<svg width="16" height="17" viewBox="0 0 16 17" fill="none" xmlns="http://www.w3.org/2000/svg">
<path d="M12.7969 16.4998C12.1302 16.4998 11.5635 16.2664 11.0969 15.7998C10.6302 15.3331 10.3969 14.7664 10.3969 14.0998C10.3969 14.0064 10.4035 13.9096 10.4169 13.8094C10.4302 13.7096 10.4502 13.6198 10.4769 13.5398L4.83687 10.2598C4.61021 10.4598 4.35687 10.6163 4.07687 10.7294C3.79687 10.843 3.50354 10.8998 3.19687 10.8998C2.53021 10.8998 1.96354 10.6664 1.49687 10.1998C1.03021 9.73309 0.796875 9.16642 0.796875 8.49976C0.796875 7.83309 1.03021 7.26642 1.49687 6.79976C1.96354 6.33309 2.53021 6.09976 3.19687 6.09976C3.50354 6.09976 3.79687 6.15629 4.07687 6.26936C4.35687 6.38296 4.61021 6.53976 4.83687 6.73976L10.4769 3.45976C10.4502 3.37976 10.4302 3.28989 10.4169 3.19016C10.4035 3.08989 10.3969 2.99309 10.3969 2.89976C10.3969 2.23309 10.6302 1.66642 11.0969 1.19976C11.5635 0.733089 12.1302 0.499756 12.7969 0.499756C13.4635 0.499756 14.0302 0.733089 14.4969 1.19976C14.9635 1.66642 15.1969 2.23309 15.1969 2.89976C15.1969 3.56642 14.9635 4.13309 14.4969 4.59976C14.0302 5.06642 13.4635 5.29976 12.7969 5.29976C12.4902 5.29976 12.1969 5.24296 11.9169 5.12936C11.6369 5.01629 11.3835 4.85976 11.1569 4.65976L5.51687 7.93976C5.54354 8.01976 5.56354 8.10962 5.57688 8.20936C5.59021 8.30962 5.59687 8.40642 5.59687 8.49976C5.59687 8.59309 5.59021 8.68962 5.57688 8.78936C5.56354 8.88962 5.54354 8.97976 5.51687 9.05976L11.1569 12.3398C11.3835 12.1398 11.6369 11.983 11.9169 11.8694C12.1969 11.7563 12.4902 11.6998 12.7969 11.6998C13.4635 11.6998 14.0302 11.9331 14.4969 12.3998C14.9635 12.8664 15.1969 13.4331 15.1969 14.0998C15.1969 14.7664 14.9635 15.3331 14.4969 15.7998C14.0302 16.2664 13.4635 16.4998 12.7969 16.4998Z" fill="#126B66"/>
</svg>
