<svg width="32" height="32" viewBox="0 0 32 32" fill="none" xmlns="http://www.w3.org/2000/svg">
<path d="M15.984 0C7.152 0 0 7.168 0 16C0 24.832 7.152 32 15.984 32C24.832 32 32 24.832 32 16C32 7.168 24.832 0 15.984 0ZM22.4 22.4C22.252 22.5483 22.0762 22.666 21.8826 22.7463C21.689 22.8266 21.4816 22.8679 21.272 22.8679C21.0625 22.8679 20.855 22.8266 20.6614 22.7463C20.4678 22.666 20.292 22.5483 20.144 22.4L14.88 17.136C14.7288 16.9878 14.6085 16.8111 14.5262 16.6161C14.4438 16.4211 14.4009 16.2117 14.4 16V9.6C14.4 8.72 15.12 8 16 8C16.88 8 17.6 8.72 17.6 9.6V15.344L22.4 20.144C23.024 20.768 23.024 21.776 22.4 22.4Z" fill="#126B66"/>
</svg>
