<svg width="27" height="32" viewBox="0 0 27 32" fill="none" xmlns="http://www.w3.org/2000/svg">
<path d="M13.8473 15.2C12.6296 15.2 11.4619 14.7786 10.6009 14.0284C9.73987 13.2783 9.25617 12.2609 9.25617 11.2C9.25617 10.1391 9.73987 9.12172 10.6009 8.37157C11.4619 7.62143 12.6296 7.2 13.8473 7.2C15.0649 7.2 16.2327 7.62143 17.0937 8.37157C17.9547 9.12172 18.4384 10.1391 18.4384 11.2C18.4384 11.7253 18.3196 12.2454 18.0889 12.7307C17.8582 13.216 17.52 13.657 17.0937 14.0284C16.6673 14.3999 16.1612 14.6945 15.6042 14.8955C15.0472 15.0965 14.4502 15.2 13.8473 15.2ZM13.8473 0C10.4379 0 7.16815 1.18 4.75735 3.2804C2.34656 5.38081 0.992188 8.22958 0.992188 11.2C0.992188 19.6 13.8473 32 13.8473 32C13.8473 32 26.7024 19.6 26.7024 11.2C26.7024 8.22958 25.348 5.38081 22.9372 3.2804C20.5264 1.18 17.2567 0 13.8473 0Z" fill="white"/>
</svg>
