<svg width="26" height="30" viewBox="0 0 26 30" fill="none" xmlns="http://www.w3.org/2000/svg">
<path d="M7.00261 9.66634H15.0026V6.99968C15.0026 5.88856 14.6137 4.94412 13.8359 4.16634C13.0582 3.38856 12.1137 2.99968 11.0026 2.99968C9.8915 2.99968 8.94705 3.38856 8.16927 4.16634C7.3915 4.94412 7.00261 5.88856 7.00261 6.99968V9.66634ZM19.0026 29.6663C17.1582 29.6663 15.5857 29.0161 14.2853 27.7157C12.9848 26.4152 12.3351 24.8432 12.3359 22.9997C12.3359 21.1552 12.9862 19.5828 14.2866 18.2823C15.5871 16.9819 17.1591 16.3321 19.0026 16.333C20.8471 16.333 22.4195 16.9832 23.7199 18.2837C25.0204 19.5841 25.6702 21.1561 25.6693 22.9997C25.6693 24.8441 25.0191 26.4166 23.7186 27.717C22.4182 29.0175 20.8462 29.6672 19.0026 29.6663ZM21.2026 26.133L22.1359 25.1997L19.6693 22.733V18.9997H18.3359V23.2663L21.2026 26.133ZM11.3359 28.333H3.00261C2.26927 28.333 1.64127 28.0717 1.11861 27.549C0.59594 27.0263 0.335051 26.3988 0.33594 25.6663V12.333C0.33594 11.5997 0.597273 10.9717 1.11994 10.449C1.64261 9.92634 2.27016 9.66545 3.00261 9.66634H4.33594V6.99968C4.33594 5.15523 4.98616 3.58279 6.28661 2.28234C7.58705 0.981898 9.15905 0.33212 11.0026 0.333009C12.8471 0.333009 14.4195 0.983231 15.7199 2.28368C17.0204 3.58412 17.6702 5.15612 17.6693 6.99968V9.66634H19.0026C19.7359 9.66634 20.3639 9.92768 20.8866 10.4503C21.4093 10.973 21.6702 11.6006 21.6693 12.333V14.0663C21.2248 13.9108 20.7804 13.805 20.3359 13.749C19.8915 13.693 19.4471 13.6655 19.0026 13.6663C16.4026 13.6663 14.1968 14.5721 12.3853 16.3837C10.5737 18.1952 9.66838 20.4006 9.66927 22.9997C9.66927 23.9552 9.8195 24.8828 10.1199 25.7823C10.4204 26.6819 10.8257 27.5321 11.3359 28.333Z" fill="#126B66"/>
</svg>
