<svg width="25" height="24" viewBox="0 0 25 24" fill="none" xmlns="http://www.w3.org/2000/svg">
<path d="M18.2586 9.09339C18.2587 8.68986 18.1778 8.29028 18.0204 7.91769C17.8631 7.54509 17.6324 7.20684 17.3417 6.92242C16.7469 6.36348 15.9563 6.05162 15.1342 6.05162C14.312 6.05162 13.5214 6.36348 12.9266 6.92242L0.838629 18.8297C0.286915 19.4122 -0.0135813 20.183 0.000471583 20.9795C0.0145245 21.776 0.342029 22.5361 0.913961 23.0994C1.48589 23.6628 2.25758 23.9855 3.06638 23.9995C3.87518 24.0135 4.65793 23.7178 5.24964 23.1746L17.3417 11.2674C17.6329 10.9827 17.8638 10.6439 18.0212 10.2708C18.1785 9.89763 18.2592 9.49745 18.2586 9.09339ZM3.80918 21.7581C3.60325 21.9514 3.32966 22.0592 3.04515 22.0592C2.76065 22.0592 2.48706 21.9514 2.28112 21.7581C2.07882 21.5583 1.96521 21.2877 1.96521 21.0056C1.96521 20.7235 2.07882 20.453 2.28112 20.2532L10.1955 12.4582L11.7286 13.968L3.80918 21.7581ZM15.9033 9.84781L13.165 12.5455L11.6369 11.0356L14.3763 8.33897C14.4739 8.22911 14.5934 8.14017 14.7274 8.07766C14.8614 8.01514 15.007 7.98039 15.1551 7.97554C15.3033 7.9707 15.4509 7.99587 15.5888 8.0495C15.7267 8.10313 15.852 8.18407 15.9568 8.28731C16.0616 8.39054 16.1438 8.51388 16.1983 8.64968C16.2527 8.78548 16.2783 8.93084 16.2734 9.07676C16.2684 9.22268 16.2331 9.36605 16.1697 9.498C16.1062 9.62994 16.0159 9.74764 15.9043 9.8438L15.9033 9.84781ZM4.87577 2.86439L6.45477 2.42097L6.90504 0.865976C6.97758 0.616459 7.13064 0.396987 7.34109 0.240748C7.55154 0.0845092 7.80792 0 8.07146 0C8.33501 0 8.59139 0.0845092 8.80184 0.240748C9.01228 0.396987 9.16535 0.616459 9.23789 0.865976L9.68816 2.42097L11.2672 2.86439C11.5205 2.93583 11.7434 3.08656 11.902 3.29381C12.0607 3.50106 12.1465 3.75354 12.1465 4.01308C12.1465 4.27262 12.0607 4.5251 11.902 4.73235C11.7434 4.9396 11.5205 5.09033 11.2672 5.16177L9.68816 5.60519L9.23789 7.16019C9.16535 7.4097 9.01228 7.62917 8.80184 7.78541C8.59139 7.94165 8.33501 8.02616 8.07146 8.02616C7.80792 8.02616 7.55154 7.94165 7.34109 7.78541C7.13064 7.62917 6.97758 7.4097 6.90504 7.16019L6.45477 5.60519L4.87577 5.16177C4.6224 5.09033 4.39954 4.9396 4.24089 4.73235C4.08224 4.5251 3.99643 4.27262 3.99643 4.01308C3.99643 3.75354 4.08224 3.50106 4.24089 3.29381C4.39954 3.08656 4.6224 2.93583 4.87577 2.86439ZM23.4917 17.2004L21.9127 17.6438L21.4624 19.1988C21.3899 19.4484 21.2368 19.6678 21.0264 19.8241C20.8159 19.9803 20.5595 20.0648 20.296 20.0648C20.0324 20.0648 19.776 19.9803 19.5656 19.8241C19.3552 19.6678 19.2021 19.4484 19.1296 19.1988L18.6793 17.6438L17.1003 17.2004C16.8469 17.129 16.6241 16.9783 16.4654 16.771C16.3068 16.5638 16.2209 16.3113 16.2209 16.0517C16.2209 15.7922 16.3068 15.5397 16.4654 15.3325C16.6241 15.1252 16.8469 14.9745 17.1003 14.903L18.6793 14.4596L19.1296 12.9046C19.2021 12.6551 19.3552 12.4356 19.5656 12.2794C19.776 12.1232 20.0324 12.0387 20.296 12.0387C20.5595 12.0387 20.8159 12.1232 21.0264 12.2794C21.2368 12.4356 21.3899 12.6551 21.4624 12.9046L21.9127 14.4596L23.4917 14.903C23.745 14.9745 23.9679 15.1252 24.1265 15.3325C24.2852 15.5397 24.371 15.7922 24.371 16.0517C24.371 16.3113 24.2852 16.5638 24.1265 16.771C23.9679 16.9783 23.745 17.129 23.4917 17.2004ZM18.009 2.50825L19.3903 2.12L19.7866 0.757628C19.8511 0.540748 19.9852 0.350292 20.1689 0.214798C20.3526 0.0793037 20.5759 0.00606958 20.8053 0.00606958C21.0348 0.00606958 21.2581 0.0793037 21.4418 0.214798C21.6254 0.350292 21.7595 0.540748 21.824 0.757628L22.2183 2.118L23.5997 2.50624C23.8199 2.56976 24.0133 2.70184 24.1509 2.88271C24.2884 3.06357 24.3628 3.28348 24.3628 3.50946C24.3628 3.73545 24.2884 3.95535 24.1509 4.13622C24.0133 4.31708 23.8199 4.44917 23.5997 4.51268L22.2183 4.90093L21.824 6.26431C21.7595 6.48119 21.6254 6.67164 21.4418 6.80714C21.2581 6.94263 21.0348 7.01587 20.8053 7.01587C20.5759 7.01587 20.3526 6.94263 20.1689 6.80714C19.9852 6.67164 19.8511 6.48119 19.7866 6.26431L19.3924 4.90494L18.009 4.51469C17.7887 4.45118 17.5954 4.31909 17.4578 4.13823C17.3202 3.95736 17.2458 3.73746 17.2458 3.51147C17.2458 3.28548 17.3202 3.06558 17.4578 2.88471C17.5954 2.70385 17.7887 2.57176 18.009 2.50825Z" fill="#4E4E4E"/>
</svg>
