<svg width="47" height="47" viewBox="0 0 47 47" fill="none" xmlns="http://www.w3.org/2000/svg">
<path d="M39.3805 29.3677V17.2082C40.1326 16.9366 40.8426 16.5177 41.4451 15.9171L44.4459 12.9255C46.6429 10.7353 46.6429 7.17373 44.4459 4.98551L41.4451 1.99392C39.2462 -0.198128 35.6735 -0.194302 33.4804 1.99392L30.4795 4.98551C29.8867 5.57656 29.4607 6.28046 29.1844 7.04366H17.0542C16.1409 3.26974 12.7467 0.44648 8.68281 0.44648C3.92054 0.444567 0.0466309 4.30647 0.0466309 9.05208C0.0466309 12.7877 2.46039 15.9419 5.80281 17.1317V31.0491H5.42098C2.45847 31.0491 0.0466309 33.4515 0.0466309 36.4049V40.9955C0.0466309 43.9489 2.45847 46.3513 5.42098 46.3513H10.024C12.9865 46.3513 15.3964 43.9489 15.3964 40.9955V36.4049C15.3964 33.4515 12.9865 31.0491 10.024 31.0491H9.64026V17.562C13.3376 17.147 16.3404 14.4347 17.1137 10.8654H29.1825C29.4588 11.6286 29.8847 12.3325 30.4776 12.9236L33.4785 15.9151C34.081 16.5158 34.789 16.9347 35.5411 17.2063V29.3658C31.7037 30.24 28.8256 33.6543 28.8256 37.7419C28.8256 42.4875 32.6995 46.3494 37.4599 46.3494C42.2202 46.3494 46.0941 42.4875 46.0941 37.7419C46.0941 33.6543 43.216 30.24 39.3786 29.3658L39.3805 29.3677ZM11.559 36.4049V40.9955C11.559 41.8391 10.8721 42.5258 10.024 42.5258H5.42098C4.57482 42.5258 3.88408 41.841 3.88408 40.9955V36.4049C3.88408 35.5613 4.5729 34.8746 5.42098 34.8746H10.024C10.8702 34.8746 11.559 35.5594 11.559 36.4049ZM8.6809 13.834C6.03497 13.834 3.88408 11.6879 3.88408 9.05208C3.88408 6.41627 6.03497 4.27013 8.6809 4.27013C11.3268 4.27013 13.4777 6.41627 13.4777 9.05208C13.4777 11.6879 11.3268 13.834 8.6809 13.834ZM33.1907 10.2189C32.8511 9.88032 32.6669 9.43081 32.6669 8.95262C32.6669 8.47442 32.853 8.02492 33.1907 7.68636L36.1916 4.69477C36.5312 4.3562 36.9821 4.17066 37.4618 4.17066C37.9415 4.17066 38.3904 4.3562 38.7301 4.69477L41.7309 7.68636C42.0706 8.02492 42.2567 8.47442 42.2567 8.95262C42.2567 9.43081 42.0686 9.88032 41.7309 10.2189L38.7301 13.2105C38.0508 13.8876 36.867 13.8857 36.1916 13.2105L33.1907 10.2189ZM37.4618 42.5258C34.8159 42.5258 32.665 40.3815 32.665 37.7438C32.665 35.1061 34.8159 32.9618 37.4618 32.9618C40.1077 32.9618 42.2586 35.1061 42.2586 37.7438C42.2586 40.3815 40.1077 42.5258 37.4618 42.5258Z" fill="#5242F3"/>
</svg>
