<svg width="75" height="26" viewBox="0 0 75 26" fill="none" xmlns="http://www.w3.org/2000/svg">
<path fill-rule="evenodd" clip-rule="evenodd" d="M29.7716 0.499023C30.5455 0.499023 31.1699 0.71637 31.6481 1.14934C32.1264 1.5823 32.3655 2.1481 32.3655 2.84498C32.3655 3.54187 32.1264 4.10766 31.6481 4.54063C31.1699 4.97532 30.5255 5.19094 29.7716 5.19094C29.0177 5.19094 28.3983 4.9736 27.9101 4.54063C27.4218 4.10766 27.1777 3.54187 27.1777 2.84498C27.1777 2.1481 27.4218 1.5823 27.9101 1.14934C28.3983 0.71637 28.9978 0.499023 29.7716 0.499023ZM10.9817 1.73413L0 25.4991H4.30101L6.75208 20.0481H20.2446L22.6957 25.4991H26.9967L16.015 1.73413H10.9817ZM8.30476 16.5948L13.4975 5.0478L18.6903 16.5948H8.30476ZM31.7544 7.43848H27.7888V25.5006H31.7544V7.43848ZM49.6309 7.56445L43.3123 21.9352L36.9405 7.56445H32.578L40.9974 25.499H45.4511L53.8705 7.56445H49.6309ZM69.5036 11.532L69.947 7.1213L69.9454 7.11957H74.0338L73.1188 16.0877L74.1168 25.4991H70.0284L69.497 20.6071C69.4156 20.7503 69.3326 20.8935 69.2446 21.0315C68.3495 22.4459 67.2468 23.5447 65.935 24.3262C64.6231 25.1076 63.2448 25.4991 61.5576 25.4991C59.8704 25.4991 58.3758 25.1024 57.0739 24.3106C55.772 23.5171 54.7557 22.4149 54.0233 20.9987C53.291 19.5842 52.9257 17.9662 52.9257 16.0877C52.9257 14.2092 53.291 12.567 54.0233 11.1612C54.7557 9.75705 55.772 8.65825 57.0739 7.86648C58.3742 7.07472 59.8687 6.67798 61.5576 6.67798C63.1634 6.67798 64.6231 7.06955 65.935 7.85096C67.2468 8.63237 68.3545 9.726 69.2595 11.1301C69.3347 11.2465 69.4059 11.3668 69.4767 11.4865L69.5036 11.532ZM65.5547 21.4282C66.4896 20.9107 67.3183 20.1931 68.0406 19.2737C68.763 18.3543 69.3376 17.2934 69.7644 16.0894C69.3376 14.8854 68.763 13.8245 68.0406 12.9051C67.3183 11.9857 66.4896 11.2681 65.5547 10.7506C64.6198 10.2331 63.5835 9.9744 62.5041 9.9744C61.4247 9.9744 60.4699 10.2331 59.6362 10.7506C58.8026 11.2681 58.1466 11.9857 57.6684 12.9051C57.1901 13.8245 56.951 14.8854 56.951 16.0894C56.951 17.2934 57.1901 18.3543 57.6684 19.2737C58.1466 20.1931 58.8026 20.9107 59.6362 21.4282C60.4699 21.9457 61.4065 22.2044 62.5041 22.2044C63.6018 22.2044 64.6198 21.9457 65.5547 21.4282Z" fill="url(#paint0_linear_137_782)"/>
<defs>
<linearGradient id="paint0_linear_137_782" x1="1.78186" y1="-10.8563" x2="86.2373" y2="21.8174" gradientUnits="userSpaceOnUse">
<stop stop-color="#8164ED"/>
<stop offset="1" stop-color="#5242F3"/>
</linearGradient>
</defs>
</svg>
