<svg width="30" height="30" viewBox="0 0 30 30" fill="none" xmlns="http://www.w3.org/2000/svg">
<path fill-rule="evenodd" clip-rule="evenodd" d="M14.7874 6.03525C14.547 6.39205 14.2727 6.95013 13.861 7.79379L11.6084 12.4098C11.4097 12.8169 11.2371 13.1707 11.0719 13.4395C10.9028 13.7147 10.6798 14.0082 10.3324 14.183C10.019 14.3408 9.66586 14.3987 9.31634 14.3435C8.92305 14.2813 8.62461 14.0579 8.39095 13.8419C8.16444 13.6325 7.9109 13.3438 7.62331 13.0164L7.59843 12.988C6.9896 12.2949 6.57063 11.8193 6.24613 11.516C6.08554 11.3659 5.97998 11.2889 5.9151 11.2526C5.9148 11.2525 5.91451 11.2523 5.91421 11.2521C5.88044 11.2644 5.84123 11.2888 5.80252 11.3335C5.80247 11.3335 5.8026 11.3335 5.80252 11.3335C5.8051 11.3349 5.74659 11.4538 5.75021 11.9194C5.754 12.4067 5.81715 13.0849 5.90854 14.056L6.13774 16.4913C6.32823 18.5153 6.46628 19.9699 6.69773 21.0729C6.92652 22.1632 7.22785 22.8071 7.67644 23.266C8.114 23.7136 8.67605 23.9697 9.61279 24.1067C10.5801 24.2481 11.845 24.25 13.6401 24.25H16.36C18.1551 24.25 19.42 24.2481 20.3873 24.1067C21.324 23.9697 21.8861 23.7136 22.3236 23.266C22.7722 22.8071 23.0735 22.1632 23.3023 21.0729C23.5338 19.9699 23.6718 18.5153 23.8623 16.4913L24.0915 14.056C24.1829 13.0849 24.2461 12.4067 24.2499 11.9194C24.2535 11.4538 24.1948 11.3348 24.1974 11.3335C24.1978 11.3333 24.1996 11.3358 24.2033 11.3403C24.1627 11.2913 24.1213 11.2651 24.0859 11.2521C24.0856 11.2523 24.0853 11.2525 24.085 11.2526C24.0201 11.2889 23.9145 11.3659 23.7539 11.516C23.4294 11.8193 23.0105 12.2949 22.4016 12.988L22.3768 13.0164C22.0892 13.3438 21.8356 13.6325 21.6091 13.8419C21.3755 14.0579 21.077 14.2813 20.6837 14.3435C20.3342 14.3987 19.9811 14.3408 19.6676 14.183C19.3203 14.0082 19.0972 13.7147 18.9281 13.4395C18.763 13.1707 18.5904 12.8169 18.3917 12.4097L16.1391 7.79378C15.7274 6.95013 15.453 6.39205 15.2127 6.03525C15.1109 5.88414 15.0409 5.80859 15 5.7722C14.9592 5.80859 14.8892 5.88414 14.7874 6.03525ZM15.0441 5.74096C15.0441 5.74143 15.0409 5.74333 15.0348 5.74527C15.0411 5.74146 15.0441 5.74049 15.0441 5.74096ZM14.9652 5.74527C14.9591 5.74333 14.956 5.74143 14.956 5.74096C14.9559 5.74049 14.959 5.74146 14.9652 5.74527ZM13.5434 5.19718C13.8451 4.74936 14.2937 4.25 15 4.25C15.7064 4.25 16.155 4.74935 16.4567 5.19717C16.7629 5.65167 17.0824 6.30648 17.4612 7.08282L19.724 11.7196C19.943 12.1684 20.0839 12.4552 20.2062 12.6542C20.291 12.7923 20.3374 12.8368 20.3483 12.8462C20.3795 12.8607 20.4086 12.8654 20.4355 12.8635C20.4528 12.8538 20.5014 12.8232 20.5908 12.7405C20.7529 12.5907 20.9547 12.3624 21.2747 11.9981L21.3038 11.965C21.8765 11.313 22.3443 10.7804 22.7296 10.4202C22.9272 10.2355 23.1348 10.0653 23.3531 9.9433C23.575 9.81924 23.8537 9.71955 24.1717 9.74748C24.6447 9.78903 25.0645 10.0283 25.3588 10.3839C25.7139 10.8129 25.7538 11.4126 25.7498 11.931C25.7455 12.4911 25.6755 13.2344 25.5886 14.158L25.3512 16.6798C25.1662 18.6455 25.0213 20.185 24.7704 21.381C24.5147 22.5995 24.1303 23.5636 23.3963 24.3145C22.6512 25.0767 21.7357 25.4254 20.6043 25.5909C19.516 25.75 18.1414 25.75 16.4194 25.75H13.5807C11.8587 25.75 10.484 25.75 9.39573 25.5909C8.26436 25.4254 7.34888 25.0767 6.60382 24.3145C5.86979 23.5636 5.4854 22.5995 5.22971 21.381C4.97873 20.185 4.83384 18.6455 4.64885 16.6798L4.41151 14.158C4.32458 13.2344 4.25461 12.4911 4.25026 11.931C4.24622 11.4126 4.28618 10.8129 4.64125 10.3839C4.93556 10.0283 5.35533 9.78903 5.8284 9.74748C6.14638 9.71955 6.42506 9.81924 6.64699 9.9433C6.86525 10.0653 7.07291 10.2355 7.27048 10.4202C7.65579 10.7804 8.12359 11.313 8.69628 11.965L8.72538 11.9981C9.04541 12.3624 9.24721 12.5907 9.40929 12.7405C9.49864 12.8232 9.54723 12.8538 9.56457 12.8635C9.59142 12.8654 9.62056 12.8607 9.65181 12.8462C9.66267 12.8368 9.70903 12.7923 9.79388 12.6542C9.91614 12.4552 10.057 12.1684 10.2761 11.7196L12.5389 7.08284C12.9177 6.30649 13.2372 5.65167 13.5434 5.19718Z" fill="#1C274C"/>
</svg>
