<svg width="33" height="33" viewBox="0 0 33 33" fill="none" xmlns="http://www.w3.org/2000/svg">
<path d="M33 16.6022C33 7.43053 25.609 0 16.5 0C7.38478 0 0 7.43053 0 16.6022C0 24.8867 6.03178 31.7559 13.9219 33V21.4023H9.73191V16.6032H13.9219V12.9435C13.9219 8.78361 16.3814 6.48627 20.1517 6.48627C21.9574 6.48627 23.8477 6.81002 23.8477 6.81002V10.8952H21.7635C19.7175 10.8952 19.0781 12.1767 19.0781 13.4893V16.6022H23.6538L22.9185 21.4013H19.0781V32.999C26.962 31.7548 33 24.8857 33 16.6012V16.6022Z" fill="white"/>
</svg>
