<svg width="33" height="33" viewBox="0 0 33 33" fill="none" xmlns="http://www.w3.org/2000/svg">
<path d="M11.3733 32.7998C10.949 32.7998 10.542 32.6312 10.242 32.3312C9.94191 32.0311 9.77334 31.6242 9.77334 31.1998V26.3998H3.37334C2.52465 26.3998 1.71071 26.0627 1.1106 25.4625C0.510482 24.8624 0.17334 24.0485 0.17334 23.1998V3.9998C0.17334 3.15111 0.510482 2.33718 1.1106 1.73706C1.71071 1.13695 2.52465 0.799805 3.37334 0.799805H28.9733C29.822 0.799805 30.636 1.13695 31.2361 1.73706C31.8362 2.33718 32.1733 3.15111 32.1733 3.9998V23.1998C32.1733 24.0485 31.8362 24.8624 31.2361 25.4625C30.636 26.0627 29.822 26.3998 28.9733 26.3998H19.2133L13.2933 32.3358C12.9733 32.6398 12.5733 32.7998 12.1733 32.7998H11.3733ZM12.9733 23.1998V28.1278L17.9013 23.1998H28.9733V3.9998H3.37334V23.1998H12.9733ZM24.1733 15.1998H20.9733V11.9998H24.1733V15.1998ZM17.7733 15.1998H14.5733V11.9998H17.7733V15.1998ZM11.3733 15.1998H8.17334V11.9998H11.3733V15.1998Z" fill="#3F4042"/>
</svg>
