<svg width="49" height="49" viewBox="0 0 49 49" fill="none" xmlns="http://www.w3.org/2000/svg">
<path fill-rule="evenodd" clip-rule="evenodd" d="M5.5305 5.37323C3.78614 7.10041 2.39947 9.1568 1.45032 11.424C0.50118 13.6912 0.00831385 16.1244 0.000104278 18.5835C-0.00810529 21.0426 0.468504 23.4791 1.40249 25.7526C2.33647 28.0261 3.70938 30.0918 5.44217 31.8306C7.17496 33.5695 9.2334 34.9472 11.499 35.8845C13.7645 36.8218 16.1925 37.3001 18.643 37.2918C21.0935 37.2836 23.5182 36.789 25.7775 35.8365C28.0367 34.884 30.0859 33.4925 31.8071 31.742C35.253 28.2373 37.1778 23.507 37.1614 18.5835C37.1449 13.6599 35.1886 8.94277 31.7193 5.46127C28.25 1.97978 23.5493 0.0165993 18.643 0.00010478C13.7367 -0.0163898 9.02298 1.91514 5.5305 5.37323ZM27.0301 26.9483C24.8125 29.1736 21.8049 30.4238 18.6688 30.4238C15.5327 30.4238 12.525 29.1736 10.3074 26.9483C8.08988 24.723 6.84406 21.7047 6.84406 18.5576C6.84406 15.4105 8.08988 12.3923 10.3074 10.1669C12.525 7.94159 15.5327 6.6914 18.6688 6.6914C21.8049 6.6914 24.8125 7.94159 27.0301 10.1669C29.2477 12.3923 30.4935 15.4105 30.4935 18.5576C30.4935 21.7047 29.2477 24.723 27.0301 26.9483Z" fill="#188181"/>
<path d="M28.2269 35.3362C27.7562 34.8638 27.3828 34.3031 27.128 33.6859C26.8733 33.0687 26.7422 32.4073 26.7422 31.7392C26.7422 31.0712 26.8733 30.4097 27.128 29.7926C27.3828 29.1754 27.7562 28.6146 28.2269 28.1423C28.6976 27.6699 29.2564 27.2952 29.8714 27.0396C30.4864 26.7839 31.1456 26.6523 31.8113 26.6523C32.477 26.6523 33.1361 26.7839 33.7511 27.0396C34.3662 27.2952 34.925 27.6699 35.3957 28.1423L47.338 40.1299C47.822 40.599 48.2081 41.1601 48.4737 41.7806C48.7392 42.401 48.879 43.0683 48.8849 43.7435C48.8907 44.4187 48.7625 45.0883 48.5077 45.7133C48.2529 46.3383 47.8766 46.906 47.4008 47.3835C46.925 47.861 46.3593 48.2386 45.7365 48.4943C45.1137 48.75 44.4464 48.8786 43.7736 48.8727C43.1007 48.8669 42.4358 48.7266 41.8175 48.4601C41.1992 48.1936 40.6401 47.8062 40.1726 47.3205L28.2269 35.3362Z" fill="#188181"/>
</svg>
