<svg width="56" height="56" viewBox="0 0 56 56" fill="none" xmlns="http://www.w3.org/2000/svg">
<rect x="0.25" y="0.25" width="55.5" height="55.5" fill="white"/>
<path d="M45.6613 44.3447L45.5709 44.225C46.3036 43.6716 46.6466 43.0133 46.6411 42.3775C46.6357 41.7417 46.2815 41.0912 45.5426 40.5542C45.3208 40.393 45.0836 40.3647 44.8952 40.4282C44.7084 40.4911 44.5538 40.6492 44.5008 40.8967C44.4432 41.166 44.5802 41.3498 44.8364 41.5678C44.8366 41.568 44.8368 41.5681 44.837 41.5683L45.6613 44.3447ZM45.6613 44.3447L45.5709 44.225C44.4441 45.0761 43.1241 45.5197 41.7612 45.9017C39.7129 46.4757 37.6134 46.7889 35.4947 47.0294M45.6613 44.3447L20.6197 46.9463M20.6197 46.9463L20.6199 46.9463C22.5318 47.1851 24.4547 47.3268 26.381 47.371C29.429 47.4363 32.4671 47.3709 35.4947 47.0294M20.6197 46.9463C18.3194 46.6629 16.0535 46.2796 13.8638 45.5341L13.8636 45.534M20.6197 46.9463L13.8636 45.534M35.4947 47.0294L35.5115 47.1784M35.4947 47.0294C35.4947 47.0294 35.4946 47.0294 35.4946 47.0294L35.5115 47.1784M35.5115 47.1784C32.4751 47.5209 29.4298 47.5863 26.3778 47.5209L35.5115 47.1784ZM13.8636 45.534C12.9337 45.2188 12.0445 44.8415 11.266 44.256C10.4954 43.6764 10.1399 43.0077 10.1502 42.3648C10.1606 41.7216 10.5378 41.0612 11.3247 40.5C12.4134 39.7251 13.6638 39.2975 14.9502 38.9222L14.9507 38.9221M13.8636 45.534L14.9507 38.9221M14.9507 38.9221C15.8066 38.669 16.6774 38.4694 17.5581 38.3244L17.5337 38.1764L17.5576 38.3245C17.7032 38.301 17.8414 38.2591 17.9361 38.1513C18.0315 38.0425 18.0559 37.8977 18.0559 37.7388V37.7386M14.9507 38.9221L18.0559 37.7386M18.0559 37.7386C18.0469 28.1294 18.0445 18.5232 18.0484 8.91994V8.91988M18.0559 37.7386L18.0484 8.91988M18.0484 8.91988C18.0484 8.68115 18.0967 8.50524 18.1752 8.38498C18.2511 8.26866 18.3619 8.1937 18.5146 8.16451C18.7269 8.12408 18.908 8.17056 19.0377 8.27214C19.1673 8.37361 19.2593 8.54092 19.2725 8.76875L19.2725 8.76996C19.2997 9.18379 19.2997 9.59895 19.2726 10.0128C19.2602 10.1782 19.2809 10.3256 19.3686 10.4471C19.4546 10.5662 19.587 10.6348 19.7377 10.6855L19.7382 10.6856C24.8635 12.3895 29.9863 14.0984 35.1066 15.8121L35.1542 15.6699L35.1066 15.8121C35.3963 15.9091 35.5699 16.0705 35.6414 16.24C35.7111 16.4052 35.6951 16.6042 35.5526 16.8095C35.4479 16.9557 35.3004 17.0042 35.0913 17.0729C35.0722 17.0791 35.0526 17.0856 35.0324 17.0923L35.0321 17.0924C32.0143 18.1039 28.9971 19.1153 25.9803 20.1268M18.0484 8.91988L25.9803 20.1268M25.9803 20.1268C23.8753 20.831 21.7689 21.5314 19.661 22.2277L19.6609 22.2278C19.551 22.2642 19.4441 22.313 19.371 22.4077C19.2964 22.5043 19.2763 22.623 19.2767 22.753L25.9803 20.1268ZM35.1261 38.9774C35.5083 39.0159 35.8061 38.7849 35.8442 38.4628C35.8691 38.2505 35.821 38.0813 35.7262 37.9621C35.6317 37.8435 35.4777 37.7581 35.2582 37.7381C33.7172 37.5985 32.1774 37.474 30.6343 37.4363C26.9951 37.3472 23.3659 37.4608 19.7608 37.9639C19.6819 37.9749 19.6095 37.9798 19.5464 37.9718C19.4805 37.9635 19.4124 37.9394 19.3602 37.8818C19.3108 37.8272 19.2932 37.7612 19.2853 37.7076C19.2774 37.654 19.2767 37.5928 19.2767 37.533V37.5327C19.2846 32.606 19.2846 27.6795 19.2767 22.7533L35.1261 38.9774ZM35.1261 38.9774C32.0742 38.6597 29.0034 38.5602 25.9373 38.6796L25.9368 38.6796C24.3853 38.7444 22.841 38.8598 21.2976 39.0033L21.2976 39.0033C20.9656 39.0343 20.6277 39.081 20.2936 39.1272C20.0601 39.1595 19.8285 39.1915 19.6022 39.2177C19.5209 39.2269 19.4263 39.2493 19.358 39.3209C19.2852 39.3973 19.2733 39.4956 19.2784 39.5814L19.2785 39.5827C19.2814 39.6249 19.2814 39.6672 19.2786 39.7093C19.2506 40.0241 19.2291 40.3547 19.347 40.6289C19.4734 40.9228 19.7423 41.1209 20.2089 41.2158C20.7528 41.3266 21.1353 41.7895 21.1191 42.4404C21.1034 43.0523 20.7075 43.3967 20.1511 43.6562C19.9383 43.7513 19.7149 43.821 19.4856 43.8636L19.4835 43.864C18.677 44.0261 17.891 43.9781 17.1467 43.6411C16.5758 43.3826 16.1828 43.0053 16.1926 42.3818C16.2024 41.7621 16.6279 41.4156 17.2019 41.1323C17.2019 41.1324 17.2019 41.1324 17.2019 41.1323C17.2023 41.1322 17.206 41.1309 17.2274 41.1252L17.2297 41.1246C17.2458 41.1204 17.28 41.1114 17.3124 41.093C17.3441 41.0762 17.3872 41.063 17.4445 41.0514C17.4811 41.0439 17.5132 41.0388 17.5478 41.0334C17.5733 41.0294 17.6002 41.0251 17.6314 41.0195C17.6946 41.0082 17.7691 40.9921 17.8347 40.9603C17.904 40.9268 17.974 40.8704 18.0077 40.776L17.8672 40.7259L18.0077 40.7759C18.0665 40.611 18.0725 40.4356 18.0683 40.2748C18.0666 40.2117 18.0636 40.1527 18.0608 40.096C18.0558 39.9982 18.0511 39.9069 18.0543 39.8123L18.0543 39.8118C18.0569 39.7255 18.0414 39.6064 17.9323 39.5449C17.8847 39.5181 17.8355 39.513 17.798 39.5135C17.7603 39.514 17.7226 39.5205 17.6898 39.5276L17.6892 39.5277C16.0544 39.8852 14.4039 40.2466 12.8691 41.0049C12.8691 41.0049 12.8691 41.0049 12.8691 41.0049L12.9356 41.1394C12.5023 41.3534 12.0877 41.5964 11.7564 41.9567M35.1261 38.9774L11.3783 42.4063C11.3786 42.606 11.4878 42.7824 11.6523 42.9526M11.7564 41.9567L11.6461 41.8551C11.6461 41.8551 11.646 41.8552 11.646 41.8552L11.7564 41.9567ZM11.7564 41.9567C11.4527 42.2866 11.4505 42.5281 11.7602 42.8483M11.7602 42.8483L11.652 42.9522C11.6521 42.9523 11.6522 42.9525 11.6523 42.9526M11.7602 42.8483C12.3229 43.4338 13.0487 43.7532 13.7879 44.0371L11.6523 42.9526M11.7602 42.8483L11.6523 42.9526M44.7932 43.2752L44.7944 43.2743L19.3366 45.3841L19.3139 45.5324C19.3139 45.5324 19.314 45.5324 19.3141 45.5324C20.7732 45.7559 22.2395 45.9213 23.7108 46.0152C25.8404 46.1506 27.9774 46.2334 30.1189 46.1514C30.2751 46.1455 30.4313 46.1397 30.5875 46.1339C31.6208 46.0958 32.6553 46.0576 33.688 45.9682C35.2132 45.8367 36.7466 45.6883 38.2563 45.3963C38.2565 45.3962 38.2568 45.3962 38.257 45.3961L38.3923 45.3717C39.6541 45.1923 40.8982 44.9052 42.1108 44.5135C43.0072 44.2324 43.9016 43.8987 44.697 43.3417C44.7033 43.3374 44.7103 43.3327 44.7177 43.3278C44.7408 43.3123 44.7682 43.2939 44.7932 43.2752Z" fill="url(#paint0_linear_1578_3806)" stroke="url(#paint1_linear_1578_3806)" stroke-width="0.3"/>
<path d="M40.2987 36.3717L40.2988 36.3717C41.8505 36.3639 43.1179 37.6032 43.1256 39.1268L43.1256 39.1276C43.1294 39.497 43.0601 39.8636 42.9219 40.2064C42.7837 40.5492 42.5791 40.8614 42.32 41.1254C42.0608 41.3893 41.7521 41.5997 41.4114 41.7445C41.0707 41.8894 40.7048 41.9658 40.3345 41.9695C39.5867 41.977 38.8666 41.6877 38.3325 41.1653C37.7985 40.6428 37.4944 39.9301 37.4869 39.184L37.4869 39.184L37.4868 39.1822C37.4531 37.6558 38.7406 36.3788 40.2987 36.3717Z" fill="url(#paint2_linear_1578_3806)" stroke="url(#paint3_linear_1578_3806)" stroke-width="0.3"/>
<rect x="0.25" y="0.25" width="55.5" height="55.5" stroke="#F4FDFF" stroke-width="0.5"/>
<defs>
<linearGradient id="paint0_linear_1578_3806" x1="28.246" y1="8" x2="28.246" y2="47.5435" gradientUnits="userSpaceOnUse">
<stop stop-color="#5FE320"/>
<stop offset="1" stop-color="#03A550"/>
</linearGradient>
<linearGradient id="paint1_linear_1578_3806" x1="28.246" y1="8" x2="28.246" y2="47.5435" gradientUnits="userSpaceOnUse">
<stop stop-color="#5FE320"/>
<stop offset="1" stop-color="#03A550"/>
</linearGradient>
<linearGradient id="paint2_linear_1578_3806" x1="40.2818" y1="36.2217" x2="40.2818" y2="42.1197" gradientUnits="userSpaceOnUse">
<stop stop-color="#5FE320"/>
<stop offset="1" stop-color="#03A550"/>
</linearGradient>
<linearGradient id="paint3_linear_1578_3806" x1="40.2818" y1="36.2217" x2="40.2818" y2="42.1197" gradientUnits="userSpaceOnUse">
<stop stop-color="#5FE320"/>
<stop offset="1" stop-color="#03A550"/>
</linearGradient>
</defs>
</svg>
