<svg width="7" height="10" viewBox="0 0 7 10" fill="none" xmlns="http://www.w3.org/2000/svg">
<path d="M0.918662 1.80661C2.05589 2.87138 3.18628 3.9362 4.3168 5.0013C3.19584 6.05111 2.07493 7.10715 0.954338 8.1629C0.947232 8.1696 0.938725 8.17689 0.924215 8.18919L0.922649 8.19052C0.910029 8.20122 0.892121 8.2164 0.874591 8.23291C0.841287 8.26429 0.788573 8.31901 0.756992 8.39931C0.710543 8.5028 0.654297 8.65688 0.66625 8.81455L0.666304 8.81524C0.690047 9.11722 0.889626 9.32178 1.157 9.40898L1.15727 9.40907C1.30217 9.45614 1.44703 9.46421 1.58731 9.4278C1.72585 9.39183 1.84333 9.31684 1.94241 9.22349C2.30768 8.87936 2.67209 8.53492 3.03624 8.19073C3.94536 7.33142 4.85288 6.47364 5.76825 5.62585C6.14371 5.28108 6.14379 4.71552 5.76847 4.37066C5.00328 3.65794 4.24156 2.94111 3.47876 2.22327C2.96998 1.74447 2.46072 1.26523 1.94965 0.786464L1.94444 0.781137L1.92914 0.764967C1.91783 0.753248 1.89739 0.732634 1.86876 0.712458C1.54637 0.458111 1.04799 0.504149 0.7943 0.847077L0.995282 0.995758L0.794609 0.84666C0.687158 0.991279 0.629638 1.16229 0.656364 1.34594C0.682358 1.52456 0.782762 1.67858 0.918095 1.80608L0.918662 1.80661Z" fill="#1172BA" stroke="#1172BA" stroke-width="0.5"/>
</svg>
