<svg width="56" height="56" viewBox="0 0 56 56" fill="none" xmlns="http://www.w3.org/2000/svg">
<rect width="56" height="56" fill="white"/>
<g clip-path="url(#clip0_1578_3800)">
<mask id="path-1-outside-1_1578_3800" maskUnits="userSpaceOnUse" x="9.00342" y="5.99707" width="39" height="41" fill="black">
<rect fill="white" x="9.00342" y="5.99707" width="39" height="41"/>
<path d="M39.3863 13.5736L30.6378 22.2925C30.0887 21.8238 29.4513 21.4674 28.7623 21.2436C28.0733 21.0198 27.3464 20.9332 26.6235 20.9887C25.9005 21.0442 25.1958 21.2407 24.55 21.567C23.9041 21.8932 23.3299 22.3427 22.8604 22.8896L16.1418 16.0924C16.4581 15.6846 16.6742 15.2096 16.773 14.7049C16.8718 14.2001 16.8505 13.6796 16.7108 13.1844C16.5121 12.4053 16.0307 11.7258 15.3583 11.2754C14.6907 10.8185 13.8805 10.612 13.0729 10.693C12.2654 10.7739 11.5134 11.1369 10.9519 11.717C10.3904 12.297 10.0562 13.056 10.0092 13.8579C9.96213 14.6598 10.2054 15.452 10.6953 16.0924C11.6673 17.3651 13.5889 17.9315 15.3637 16.8348L22.2602 23.8133C21.6643 24.9146 21.482 26.1891 21.7458 27.4107C22.0116 28.6993 22.6921 29.7376 23.7381 30.5797L18.3409 35.7987C17.8406 35.4502 17.2394 35.272 16.6278 35.2912C16.0163 35.3104 15.4276 35.5258 14.9506 35.905C14.4736 36.2841 14.1341 36.8065 13.9833 37.3933C13.8326 37.9801 13.8787 38.5995 14.1147 39.1581C14.3508 39.7167 14.764 40.1842 15.292 40.4901C15.82 40.796 16.4342 40.9238 17.042 40.854C17.6498 40.7843 18.2182 40.5209 18.6614 40.1035C19.1047 39.6862 19.3988 39.1375 19.4995 38.5403C19.6066 37.9462 19.5069 37.3337 19.2165 36.8031C19.1329 36.6472 19.1319 36.556 19.2658 36.4234C20.9956 34.7102 22.7203 32.9925 24.4401 31.2701C24.4763 31.218 24.5311 31.1812 24.5934 31.1673C24.6558 31.1533 24.7212 31.1631 24.7766 31.1948C26.8486 32.0666 28.7709 31.8121 30.5435 30.4312C30.5724 30.409 30.6035 30.3888 30.6507 30.3517L39.5792 39.1172C38.6982 40.1958 38.3596 41.4091 38.6628 42.7655C38.8758 43.7455 39.4501 44.6118 40.2736 45.1953C41.0915 45.7879 42.0986 46.0674 43.1086 45.982C44.1186 45.8967 45.0632 45.4523 45.7677 44.7311C46.4722 44.0098 46.8889 43.0605 46.9409 42.0587C46.9928 41.0569 46.6764 40.0704 46.0502 39.2816C44.7641 37.6515 42.3206 37.1128 40.3047 38.4597L31.3269 29.6369C31.8973 28.9045 32.2725 28.042 32.4179 27.1286C33.2753 27.2241 34.108 27.3153 34.9408 27.4107C36.5076 27.59 38.0723 27.7766 39.6403 27.941C39.8621 27.9654 39.9618 28.0238 40.0079 28.2518C40.3294 29.7366 41.6894 30.6508 43.223 30.4249C44.6452 30.2127 45.6783 28.903 45.5669 27.4457C45.5165 26.8121 45.2489 26.2145 44.8084 25.752C44.3679 25.2895 43.7809 24.9897 43.1448 24.9025C42.5086 24.8152 41.8614 24.9457 41.3103 25.2722C40.7593 25.5988 40.3376 26.1019 40.115 26.698C40.0797 26.7935 40.0454 26.89 40.0004 27.0162L32.5358 26.1678C32.4008 25.5972 32.3215 25.0383 32.1307 24.5186C31.94 23.9989 31.6377 23.5164 31.3569 22.9638L40.0379 14.3128C42.2252 16.0479 44.8681 15.3013 46.1027 13.7316C46.7369 12.9357 47.0551 11.9378 46.9974 10.9258C46.9396 9.91378 46.5099 8.95763 45.7891 8.23746C45.0683 7.51729 44.1063 7.08281 43.0843 7.0159C42.0623 6.94898 41.0508 7.25424 40.2404 7.87416C38.62 9.10441 37.9877 11.5066 39.3863 13.5736ZM27.0754 30.7165C26.4906 30.7199 25.9109 30.6088 25.3696 30.3896C24.8283 30.1705 24.3362 29.8476 23.9214 29.4395C23.5067 29.0315 23.1776 28.5463 22.953 28.0119C22.7284 27.4776 22.6128 26.9045 22.6128 26.3258C22.5967 23.9374 24.5955 21.9552 27.0293 21.9457C27.6113 21.9427 28.1882 22.0532 28.727 22.2708C29.2658 22.4884 29.756 22.8089 30.1697 23.214C30.5833 23.6191 30.9123 24.1009 31.1378 24.6318C31.3633 25.1627 31.4809 25.7324 31.4839 26.3083C31.487 26.8842 31.3753 27.455 31.1554 27.9883C30.9355 28.5215 30.6116 29.0066 30.2023 29.4159C29.7929 29.8253 29.3061 30.1508 28.7696 30.374C28.2331 30.5971 27.6574 30.7135 27.0754 30.7165ZM39.5438 41.845C39.5427 41.216 39.7301 40.6008 40.0822 40.0771C40.4344 39.5534 40.9354 39.1448 41.5221 38.9028C42.1089 38.6609 42.7549 38.5964 43.3786 38.7177C44.0023 38.8389 44.5757 39.1403 45.0263 39.5839C45.477 40.0275 45.7847 40.5933 45.9105 41.2099C46.0363 41.8264 45.9746 42.4661 45.7332 43.048C45.4919 43.6298 45.0816 44.1279 44.5543 44.4791C44.027 44.8304 43.4064 45.0191 42.7707 45.0214C42.3475 45.0244 41.9279 44.9445 41.5361 44.7862C41.1443 44.6279 40.7881 44.3943 40.4881 44.0989C40.188 43.8036 39.9501 43.4523 39.788 43.0655C39.6259 42.6786 39.5429 42.2638 39.5438 41.845ZM39.5995 11.1619C39.5966 10.533 39.782 9.91733 40.1325 9.39268C40.4829 8.86802 40.9826 8.45792 41.5685 8.21416C42.1543 7.9704 42.8 7.90392 43.4241 8.02313C44.0481 8.14233 44.6224 8.44187 45.0744 8.8839C45.5265 9.32594 45.8361 9.89064 45.964 10.5067C46.0919 11.1227 46.0325 11.7625 45.7932 12.3451C45.5539 12.9277 45.1455 13.4271 44.6196 13.7802C44.0936 14.1332 43.4738 14.3241 42.8383 14.3287C42.415 14.3331 41.995 14.2544 41.6026 14.0973C41.2102 13.9401 40.8531 13.7076 40.552 13.4132C40.2509 13.1188 40.0117 12.7682 39.8482 12.3818C39.6847 11.9954 39.6002 11.5808 39.5995 11.1619ZM13.4196 16.452C12.9385 16.453 12.4679 16.3129 12.0672 16.0493C11.6666 15.7856 11.3539 15.4104 11.1688 14.9709C10.9836 14.5315 10.9343 14.0476 11.0271 13.5804C11.1198 13.1132 11.3505 12.6838 11.6898 12.3463C12.0292 12.0088 12.4621 11.7785 12.9337 11.6845C13.4054 11.5904 13.8946 11.6369 14.3395 11.818C14.7845 11.999 15.1652 12.3066 15.4335 12.7018C15.7019 13.097 15.8458 13.562 15.847 14.0381C15.8479 14.6766 15.5928 15.2893 15.1377 15.7418C14.6826 16.1943 14.0647 16.4497 13.4196 16.452ZM42.7429 25.8729C43.1032 25.8716 43.4559 25.9755 43.7567 26.1717C44.0575 26.368 44.2931 26.6477 44.4339 26.9759C44.5746 27.3041 44.6144 27.6662 44.548 28.0166C44.4817 28.3671 44.3123 28.6903 44.061 28.9459C43.8097 29.2014 43.4878 29.3778 43.1356 29.453C42.7834 29.5282 42.4166 29.4987 42.0812 29.3684C41.7459 29.2381 41.4569 29.0127 41.2504 28.7205C41.044 28.4282 40.9294 28.0822 40.921 27.7257C40.9166 27.4854 40.9603 27.2466 41.0497 27.0231C41.1391 26.7996 41.2723 26.5958 41.4417 26.4236C41.6111 26.2513 41.8133 26.1139 42.0366 26.0194C42.26 25.9249 42.5 25.8751 42.7429 25.8729ZM14.8954 38.0906C14.8947 37.7324 15.0014 37.382 15.2018 37.0838C15.4023 36.7855 15.6875 36.5527 16.0216 36.4147C16.3556 36.2768 16.7235 36.2399 17.0787 36.3087C17.434 36.3775 17.7606 36.5489 18.0175 36.8013C18.2743 37.0537 18.4499 37.3758 18.5219 37.7268C18.5939 38.0779 18.5592 38.4422 18.4221 38.7737C18.2851 39.1052 18.0518 39.3892 17.7518 39.5896C17.4518 39.79 17.0985 39.898 16.7366 39.8999C16.2504 39.9002 15.7838 39.7101 15.4388 39.3711C15.0939 39.0321 14.8985 38.5717 14.8954 38.0906Z"/>
</mask>
<path d="M39.3863 13.5736L30.6378 22.2925C30.0887 21.8238 29.4513 21.4674 28.7623 21.2436C28.0733 21.0198 27.3464 20.9332 26.6235 20.9887C25.9005 21.0442 25.1958 21.2407 24.55 21.567C23.9041 21.8932 23.3299 22.3427 22.8604 22.8896L16.1418 16.0924C16.4581 15.6846 16.6742 15.2096 16.773 14.7049C16.8718 14.2001 16.8505 13.6796 16.7108 13.1844C16.5121 12.4053 16.0307 11.7258 15.3583 11.2754C14.6907 10.8185 13.8805 10.612 13.0729 10.693C12.2654 10.7739 11.5134 11.1369 10.9519 11.717C10.3904 12.297 10.0562 13.056 10.0092 13.8579C9.96213 14.6598 10.2054 15.452 10.6953 16.0924C11.6673 17.3651 13.5889 17.9315 15.3637 16.8348L22.2602 23.8133C21.6643 24.9146 21.482 26.1891 21.7458 27.4107C22.0116 28.6993 22.6921 29.7376 23.7381 30.5797L18.3409 35.7987C17.8406 35.4502 17.2394 35.272 16.6278 35.2912C16.0163 35.3104 15.4276 35.5258 14.9506 35.905C14.4736 36.2841 14.1341 36.8065 13.9833 37.3933C13.8326 37.9801 13.8787 38.5995 14.1147 39.1581C14.3508 39.7167 14.764 40.1842 15.292 40.4901C15.82 40.796 16.4342 40.9238 17.042 40.854C17.6498 40.7843 18.2182 40.5209 18.6614 40.1035C19.1047 39.6862 19.3988 39.1375 19.4995 38.5403C19.6066 37.9462 19.5069 37.3337 19.2165 36.8031C19.1329 36.6472 19.1319 36.556 19.2658 36.4234C20.9956 34.7102 22.7203 32.9925 24.4401 31.2701C24.4763 31.218 24.5311 31.1812 24.5934 31.1673C24.6558 31.1533 24.7212 31.1631 24.7766 31.1948C26.8486 32.0666 28.7709 31.8121 30.5435 30.4312C30.5724 30.409 30.6035 30.3888 30.6507 30.3517L39.5792 39.1172C38.6982 40.1958 38.3596 41.4091 38.6628 42.7655C38.8758 43.7455 39.4501 44.6118 40.2736 45.1953C41.0915 45.7879 42.0986 46.0674 43.1086 45.982C44.1186 45.8967 45.0632 45.4523 45.7677 44.7311C46.4722 44.0098 46.8889 43.0605 46.9409 42.0587C46.9928 41.0569 46.6764 40.0704 46.0502 39.2816C44.7641 37.6515 42.3206 37.1128 40.3047 38.4597L31.3269 29.6369C31.8973 28.9045 32.2725 28.042 32.4179 27.1286C33.2753 27.2241 34.108 27.3153 34.9408 27.4107C36.5076 27.59 38.0723 27.7766 39.6403 27.941C39.8621 27.9654 39.9618 28.0238 40.0079 28.2518C40.3294 29.7366 41.6894 30.6508 43.223 30.4249C44.6452 30.2127 45.6783 28.903 45.5669 27.4457C45.5165 26.8121 45.2489 26.2145 44.8084 25.752C44.3679 25.2895 43.7809 24.9897 43.1448 24.9025C42.5086 24.8152 41.8614 24.9457 41.3103 25.2722C40.7593 25.5988 40.3376 26.1019 40.115 26.698C40.0797 26.7935 40.0454 26.89 40.0004 27.0162L32.5358 26.1678C32.4008 25.5972 32.3215 25.0383 32.1307 24.5186C31.94 23.9989 31.6377 23.5164 31.3569 22.9638L40.0379 14.3128C42.2252 16.0479 44.8681 15.3013 46.1027 13.7316C46.7369 12.9357 47.0551 11.9378 46.9974 10.9258C46.9396 9.91378 46.5099 8.95763 45.7891 8.23746C45.0683 7.51729 44.1063 7.08281 43.0843 7.0159C42.0623 6.94898 41.0508 7.25424 40.2404 7.87416C38.62 9.10441 37.9877 11.5066 39.3863 13.5736ZM27.0754 30.7165C26.4906 30.7199 25.9109 30.6088 25.3696 30.3896C24.8283 30.1705 24.3362 29.8476 23.9214 29.4395C23.5067 29.0315 23.1776 28.5463 22.953 28.0119C22.7284 27.4776 22.6128 26.9045 22.6128 26.3258C22.5967 23.9374 24.5955 21.9552 27.0293 21.9457C27.6113 21.9427 28.1882 22.0532 28.727 22.2708C29.2658 22.4884 29.756 22.8089 30.1697 23.214C30.5833 23.6191 30.9123 24.1009 31.1378 24.6318C31.3633 25.1627 31.4809 25.7324 31.4839 26.3083C31.487 26.8842 31.3753 27.455 31.1554 27.9883C30.9355 28.5215 30.6116 29.0066 30.2023 29.4159C29.7929 29.8253 29.3061 30.1508 28.7696 30.374C28.2331 30.5971 27.6574 30.7135 27.0754 30.7165ZM39.5438 41.845C39.5427 41.216 39.7301 40.6008 40.0822 40.0771C40.4344 39.5534 40.9354 39.1448 41.5221 38.9028C42.1089 38.6609 42.7549 38.5964 43.3786 38.7177C44.0023 38.8389 44.5757 39.1403 45.0263 39.5839C45.477 40.0275 45.7847 40.5933 45.9105 41.2099C46.0363 41.8264 45.9746 42.4661 45.7332 43.048C45.4919 43.6298 45.0816 44.1279 44.5543 44.4791C44.027 44.8304 43.4064 45.0191 42.7707 45.0214C42.3475 45.0244 41.9279 44.9445 41.5361 44.7862C41.1443 44.6279 40.7881 44.3943 40.4881 44.0989C40.188 43.8036 39.9501 43.4523 39.788 43.0655C39.6259 42.6786 39.5429 42.2638 39.5438 41.845ZM39.5995 11.1619C39.5966 10.533 39.782 9.91733 40.1325 9.39268C40.4829 8.86802 40.9826 8.45792 41.5685 8.21416C42.1543 7.9704 42.8 7.90392 43.4241 8.02313C44.0481 8.14233 44.6224 8.44187 45.0744 8.8839C45.5265 9.32594 45.8361 9.89064 45.964 10.5067C46.0919 11.1227 46.0325 11.7625 45.7932 12.3451C45.5539 12.9277 45.1455 13.4271 44.6196 13.7802C44.0936 14.1332 43.4738 14.3241 42.8383 14.3287C42.415 14.3331 41.995 14.2544 41.6026 14.0973C41.2102 13.9401 40.8531 13.7076 40.552 13.4132C40.2509 13.1188 40.0117 12.7682 39.8482 12.3818C39.6847 11.9954 39.6002 11.5808 39.5995 11.1619ZM13.4196 16.452C12.9385 16.453 12.4679 16.3129 12.0672 16.0493C11.6666 15.7856 11.3539 15.4104 11.1688 14.9709C10.9836 14.5315 10.9343 14.0476 11.0271 13.5804C11.1198 13.1132 11.3505 12.6838 11.6898 12.3463C12.0292 12.0088 12.4621 11.7785 12.9337 11.6845C13.4054 11.5904 13.8946 11.6369 14.3395 11.818C14.7845 11.999 15.1652 12.3066 15.4335 12.7018C15.7019 13.097 15.8458 13.562 15.847 14.0381C15.8479 14.6766 15.5928 15.2893 15.1377 15.7418C14.6826 16.1943 14.0647 16.4497 13.4196 16.452ZM42.7429 25.8729C43.1032 25.8716 43.4559 25.9755 43.7567 26.1717C44.0575 26.368 44.2931 26.6477 44.4339 26.9759C44.5746 27.3041 44.6144 27.6662 44.548 28.0166C44.4817 28.3671 44.3123 28.6903 44.061 28.9459C43.8097 29.2014 43.4878 29.3778 43.1356 29.453C42.7834 29.5282 42.4166 29.4987 42.0812 29.3684C41.7459 29.2381 41.4569 29.0127 41.2504 28.7205C41.044 28.4282 40.9294 28.0822 40.921 27.7257C40.9166 27.4854 40.9603 27.2466 41.0497 27.0231C41.1391 26.7996 41.2723 26.5958 41.4417 26.4236C41.6111 26.2513 41.8133 26.1139 42.0366 26.0194C42.26 25.9249 42.5 25.8751 42.7429 25.8729ZM14.8954 38.0906C14.8947 37.7324 15.0014 37.382 15.2018 37.0838C15.4023 36.7855 15.6875 36.5527 16.0216 36.4147C16.3556 36.2768 16.7235 36.2399 17.0787 36.3087C17.434 36.3775 17.7606 36.5489 18.0175 36.8013C18.2743 37.0537 18.4499 37.3758 18.5219 37.7268C18.5939 38.0779 18.5592 38.4422 18.4221 38.7737C18.2851 39.1052 18.0518 39.3892 17.7518 39.5896C17.4518 39.79 17.0985 39.898 16.7366 39.8999C16.2504 39.9002 15.7838 39.7101 15.4388 39.3711C15.0939 39.0321 14.8985 38.5717 14.8954 38.0906Z" fill="url(#paint0_linear_1578_3800)"/>
<path d="M39.3863 13.5736L30.6378 22.2925C30.0887 21.8238 29.4513 21.4674 28.7623 21.2436C28.0733 21.0198 27.3464 20.9332 26.6235 20.9887C25.9005 21.0442 25.1958 21.2407 24.55 21.567C23.9041 21.8932 23.3299 22.3427 22.8604 22.8896L16.1418 16.0924C16.4581 15.6846 16.6742 15.2096 16.773 14.7049C16.8718 14.2001 16.8505 13.6796 16.7108 13.1844C16.5121 12.4053 16.0307 11.7258 15.3583 11.2754C14.6907 10.8185 13.8805 10.612 13.0729 10.693C12.2654 10.7739 11.5134 11.1369 10.9519 11.717C10.3904 12.297 10.0562 13.056 10.0092 13.8579C9.96213 14.6598 10.2054 15.452 10.6953 16.0924C11.6673 17.3651 13.5889 17.9315 15.3637 16.8348L22.2602 23.8133C21.6643 24.9146 21.482 26.1891 21.7458 27.4107C22.0116 28.6993 22.6921 29.7376 23.7381 30.5797L18.3409 35.7987C17.8406 35.4502 17.2394 35.272 16.6278 35.2912C16.0163 35.3104 15.4276 35.5258 14.9506 35.905C14.4736 36.2841 14.1341 36.8065 13.9833 37.3933C13.8326 37.9801 13.8787 38.5995 14.1147 39.1581C14.3508 39.7167 14.764 40.1842 15.292 40.4901C15.82 40.796 16.4342 40.9238 17.042 40.854C17.6498 40.7843 18.2182 40.5209 18.6614 40.1035C19.1047 39.6862 19.3988 39.1375 19.4995 38.5403C19.6066 37.9462 19.5069 37.3337 19.2165 36.8031C19.1329 36.6472 19.1319 36.556 19.2658 36.4234C20.9956 34.7102 22.7203 32.9925 24.4401 31.2701C24.4763 31.218 24.5311 31.1812 24.5934 31.1673C24.6558 31.1533 24.7212 31.1631 24.7766 31.1948C26.8486 32.0666 28.7709 31.8121 30.5435 30.4312C30.5724 30.409 30.6035 30.3888 30.6507 30.3517L39.5792 39.1172C38.6982 40.1958 38.3596 41.4091 38.6628 42.7655C38.8758 43.7455 39.4501 44.6118 40.2736 45.1953C41.0915 45.7879 42.0986 46.0674 43.1086 45.982C44.1186 45.8967 45.0632 45.4523 45.7677 44.7311C46.4722 44.0098 46.8889 43.0605 46.9409 42.0587C46.9928 41.0569 46.6764 40.0704 46.0502 39.2816C44.7641 37.6515 42.3206 37.1128 40.3047 38.4597L31.3269 29.6369C31.8973 28.9045 32.2725 28.042 32.4179 27.1286C33.2753 27.2241 34.108 27.3153 34.9408 27.4107C36.5076 27.59 38.0723 27.7766 39.6403 27.941C39.8621 27.9654 39.9618 28.0238 40.0079 28.2518C40.3294 29.7366 41.6894 30.6508 43.223 30.4249C44.6452 30.2127 45.6783 28.903 45.5669 27.4457C45.5165 26.8121 45.2489 26.2145 44.8084 25.752C44.3679 25.2895 43.7809 24.9897 43.1448 24.9025C42.5086 24.8152 41.8614 24.9457 41.3103 25.2722C40.7593 25.5988 40.3376 26.1019 40.115 26.698C40.0797 26.7935 40.0454 26.89 40.0004 27.0162L32.5358 26.1678C32.4008 25.5972 32.3215 25.0383 32.1307 24.5186C31.94 23.9989 31.6377 23.5164 31.3569 22.9638L40.0379 14.3128C42.2252 16.0479 44.8681 15.3013 46.1027 13.7316C46.7369 12.9357 47.0551 11.9378 46.9974 10.9258C46.9396 9.91378 46.5099 8.95763 45.7891 8.23746C45.0683 7.51729 44.1063 7.08281 43.0843 7.0159C42.0623 6.94898 41.0508 7.25424 40.2404 7.87416C38.62 9.10441 37.9877 11.5066 39.3863 13.5736ZM27.0754 30.7165C26.4906 30.7199 25.9109 30.6088 25.3696 30.3896C24.8283 30.1705 24.3362 29.8476 23.9214 29.4395C23.5067 29.0315 23.1776 28.5463 22.953 28.0119C22.7284 27.4776 22.6128 26.9045 22.6128 26.3258C22.5967 23.9374 24.5955 21.9552 27.0293 21.9457C27.6113 21.9427 28.1882 22.0532 28.727 22.2708C29.2658 22.4884 29.756 22.8089 30.1697 23.214C30.5833 23.6191 30.9123 24.1009 31.1378 24.6318C31.3633 25.1627 31.4809 25.7324 31.4839 26.3083C31.487 26.8842 31.3753 27.455 31.1554 27.9883C30.9355 28.5215 30.6116 29.0066 30.2023 29.4159C29.7929 29.8253 29.3061 30.1508 28.7696 30.374C28.2331 30.5971 27.6574 30.7135 27.0754 30.7165ZM39.5438 41.845C39.5427 41.216 39.7301 40.6008 40.0822 40.0771C40.4344 39.5534 40.9354 39.1448 41.5221 38.9028C42.1089 38.6609 42.7549 38.5964 43.3786 38.7177C44.0023 38.8389 44.5757 39.1403 45.0263 39.5839C45.477 40.0275 45.7847 40.5933 45.9105 41.2099C46.0363 41.8264 45.9746 42.4661 45.7332 43.048C45.4919 43.6298 45.0816 44.1279 44.5543 44.4791C44.027 44.8304 43.4064 45.0191 42.7707 45.0214C42.3475 45.0244 41.9279 44.9445 41.5361 44.7862C41.1443 44.6279 40.7881 44.3943 40.4881 44.0989C40.188 43.8036 39.9501 43.4523 39.788 43.0655C39.6259 42.6786 39.5429 42.2638 39.5438 41.845ZM39.5995 11.1619C39.5966 10.533 39.782 9.91733 40.1325 9.39268C40.4829 8.86802 40.9826 8.45792 41.5685 8.21416C42.1543 7.9704 42.8 7.90392 43.4241 8.02313C44.0481 8.14233 44.6224 8.44187 45.0744 8.8839C45.5265 9.32594 45.8361 9.89064 45.964 10.5067C46.0919 11.1227 46.0325 11.7625 45.7932 12.3451C45.5539 12.9277 45.1455 13.4271 44.6196 13.7802C44.0936 14.1332 43.4738 14.3241 42.8383 14.3287C42.415 14.3331 41.995 14.2544 41.6026 14.0973C41.2102 13.9401 40.8531 13.7076 40.552 13.4132C40.2509 13.1188 40.0117 12.7682 39.8482 12.3818C39.6847 11.9954 39.6002 11.5808 39.5995 11.1619ZM13.4196 16.452C12.9385 16.453 12.4679 16.3129 12.0672 16.0493C11.6666 15.7856 11.3539 15.4104 11.1688 14.9709C10.9836 14.5315 10.9343 14.0476 11.0271 13.5804C11.1198 13.1132 11.3505 12.6838 11.6898 12.3463C12.0292 12.0088 12.4621 11.7785 12.9337 11.6845C13.4054 11.5904 13.8946 11.6369 14.3395 11.818C14.7845 11.999 15.1652 12.3066 15.4335 12.7018C15.7019 13.097 15.8458 13.562 15.847 14.0381C15.8479 14.6766 15.5928 15.2893 15.1377 15.7418C14.6826 16.1943 14.0647 16.4497 13.4196 16.452ZM42.7429 25.8729C43.1032 25.8716 43.4559 25.9755 43.7567 26.1717C44.0575 26.368 44.2931 26.6477 44.4339 26.9759C44.5746 27.3041 44.6144 27.6662 44.548 28.0166C44.4817 28.3671 44.3123 28.6903 44.061 28.9459C43.8097 29.2014 43.4878 29.3778 43.1356 29.453C42.7834 29.5282 42.4166 29.4987 42.0812 29.3684C41.7459 29.2381 41.4569 29.0127 41.2504 28.7205C41.044 28.4282 40.9294 28.0822 40.921 27.7257C40.9166 27.4854 40.9603 27.2466 41.0497 27.0231C41.1391 26.7996 41.2723 26.5958 41.4417 26.4236C41.6111 26.2513 41.8133 26.1139 42.0366 26.0194C42.26 25.9249 42.5 25.8751 42.7429 25.8729ZM14.8954 38.0906C14.8947 37.7324 15.0014 37.382 15.2018 37.0838C15.4023 36.7855 15.6875 36.5527 16.0216 36.4147C16.3556 36.2768 16.7235 36.2399 17.0787 36.3087C17.434 36.3775 17.7606 36.5489 18.0175 36.8013C18.2743 37.0537 18.4499 37.3758 18.5219 37.7268C18.5939 38.0779 18.5592 38.4422 18.4221 38.7737C18.2851 39.1052 18.0518 39.3892 17.7518 39.5896C17.4518 39.79 17.0985 39.898 16.7366 39.8999C16.2504 39.9002 15.7838 39.7101 15.4388 39.3711C15.0939 39.0321 14.8985 38.5717 14.8954 38.0906Z" stroke="url(#paint1_linear_1578_3800)" stroke-width="0.4" mask="url(#path-1-outside-1_1578_3800)"/>
</g>
<defs>
<linearGradient id="paint0_linear_1578_3800" x1="28.3533" y1="45.9971" x2="28.3533" y2="7.00683" gradientUnits="userSpaceOnUse">
<stop stop-color="#5FE320"/>
<stop offset="1" stop-color="#03A550"/>
</linearGradient>
<linearGradient id="paint1_linear_1578_3800" x1="28.3533" y1="45.9971" x2="28.3533" y2="7.00683" gradientUnits="userSpaceOnUse">
<stop stop-color="#5FE320"/>
<stop offset="1" stop-color="#03A550"/>
</linearGradient>
<clipPath id="clip0_1578_3800">
<rect width="37" height="39" fill="white" transform="matrix(1 0 0 -1 10 46)"/>
</clipPath>
</defs>
</svg>
