<svg width="56" height="56" viewBox="0 0 56 56" fill="none" xmlns="http://www.w3.org/2000/svg">
<rect width="56" height="56" fill="white"/>
<g clip-path="url(#clip0_1578_3536)">
<path d="M27.9773 9.9L27.877 9.89968V9.902C26.7175 9.92861 25.5632 10.0668 24.4299 10.3148L24.4291 10.315C12.2617 13.0801 7.08441 27.4415 14.6848 37.3679L14.6847 37.3679L14.688 37.3718C14.8203 37.5274 14.9196 37.7084 14.9799 37.9038C15.0402 38.0991 15.0601 38.3048 15.0385 38.5081L15.0384 38.5098C14.8464 40.6721 14.6765 42.8376 14.5067 45.0017C14.4698 45.4723 14.4329 45.9428 14.3958 46.4133L14.3958 46.4135C14.3928 46.4515 14.3854 46.4927 14.3766 46.541L14.3756 46.5465C14.3669 46.5948 14.357 46.6501 14.3539 46.7048C14.3473 46.817 14.3683 46.9472 14.4953 47.0389C14.5573 47.0836 14.6233 47.1019 14.6898 47.0987C14.7535 47.0956 14.8115 47.0732 14.8609 47.0472C14.9103 47.0213 14.9573 46.9884 14.9983 46.9592L15.0122 46.9493C15.049 46.923 15.0805 46.9005 15.1108 46.8827C15.5297 46.6412 15.9488 46.3999 16.3679 46.1586C18.0877 45.1686 19.8084 44.1779 21.5184 43.1677L21.5185 43.1678L21.5226 43.1651C21.682 43.0599 21.8644 42.9954 22.0542 42.977C22.244 42.9585 22.4354 42.9868 22.6118 43.0592L22.6118 43.0594L22.6165 43.061C25.1908 43.9703 27.9494 44.2263 30.6463 43.8062C39.5082 42.4951 45.7233 34.5777 45.0607 25.4766C44.4283 16.8219 36.9463 9.92828 27.9773 9.9ZM16.4828 16.2827C19.6202 12.8656 23.5468 11.2084 27.7435 11.1218C36.3191 11.1464 43.251 17.5333 43.8543 25.571C44.4813 33.9971 38.7314 41.348 30.5252 42.5913L30.5244 42.5915C27.8622 43.0172 25.1351 42.7309 22.6185 41.7613C22.4151 41.6686 22.1914 41.6292 21.9686 41.6469C21.7456 41.6646 21.5307 41.7388 21.3442 41.8626C19.885 42.7304 18.4124 43.5764 16.9398 44.4223C16.6762 44.5737 16.4125 44.7252 16.1489 44.8768L16.1488 44.8769C16.1088 44.8999 16.0687 44.9293 16.0334 44.9553C16.0295 44.9581 16.0256 44.961 16.0218 44.9638C15.9813 44.9934 15.946 45.0183 15.9118 45.0362C15.8779 45.054 15.8518 45.061 15.8307 45.0609C15.8121 45.0607 15.7891 45.0552 15.7594 45.031L15.7593 45.031C15.7339 45.0104 15.7209 44.9762 15.729 44.8976C15.7329 44.8599 15.7409 44.8197 15.7499 44.7744L15.7502 44.7729C15.7588 44.7292 15.7686 44.6796 15.7727 44.6321L15.7727 44.6316C15.7987 44.3084 15.8245 43.9851 15.8504 43.6618C16.0014 41.7722 16.1525 39.8823 16.3241 37.9958L16.3241 37.9957C16.3653 37.5412 16.1594 37.2538 15.9234 36.9649L15.9233 36.9648C13.517 34.0281 12.2486 30.3188 12.3514 26.5188C12.4542 22.719 13.9213 19.0841 16.4828 16.2827Z" fill="url(#paint0_linear_1578_3536)" stroke="url(#paint1_linear_1578_3536)" stroke-width="0.2"/>
<path d="M5.41128 26.4947V26.4947L5.40801 26.4948C5.20721 26.5014 5.06124 26.57 4.97466 26.7031C4.89322 26.8282 4.87771 26.9914 4.88617 27.1576C4.89489 27.3286 4.93664 27.4741 5.039 27.5728C5.14221 27.6723 5.28667 27.705 5.45553 27.6978H5.45608H5.45745H5.45882H5.46019H5.46156H5.46293H5.46429H5.46566H5.46703H5.4684H5.46977H5.47114H5.47251H5.47388H5.47525H5.47662H5.47798H5.47935H5.48072H5.48209H5.48346H5.48483H5.4862H5.48757H5.48894H5.49031H5.49168H5.49304H5.49441H5.49578H5.49715H5.49852H5.49989H5.50126H5.50263H5.504H5.50537H5.50673H5.5081H5.50947H5.51084H5.51221H5.51358H5.51495H5.51632H5.51769H5.51906H5.52042H5.52179H5.52316H5.52453H5.5259H5.52727H5.52864H5.53001H5.53138H5.53275H5.53412H5.53548H5.53685H5.53822H5.53959H5.54096H5.54233H5.5437H5.54507H5.54644H5.54781H5.54917H5.55054H5.55191H5.55328H5.55465H5.55602H5.55739H5.55876H5.56013H5.5615H5.56287H5.56423H5.5656H5.56697H5.56834H5.56971H5.57108H5.57245H5.57382H5.57519H5.57656H5.57792H5.57929H5.58066H5.58203H5.5834H5.58477H5.58614H5.58751H5.58888H5.59025H5.59161H5.59298H5.59435H5.59572H5.59709H5.59846H5.59983H5.6012H5.60257H5.60394H5.60531H5.60667H5.60804H5.60941H5.61078H5.61215H5.61352H5.61489H5.61626H5.61763H5.619H5.62036H5.62173H5.6231H5.62447H5.62584H5.62721H5.62858H5.62995H5.63132H5.63269H5.63406H5.63542H5.63679H5.63816H5.63953H5.6409H5.64227H5.64364H5.64501H5.64638H5.64775H5.64911H5.65048H5.65185H5.65322H5.65459H5.65596H5.65733H5.6587H5.66007H5.66144H5.6628H5.66417H5.66554H5.66691H5.66828H5.66965H5.67102H5.67239H5.67376H5.67513H5.6765H5.67786H5.67923H5.6806H5.68197H5.68334H5.68471H5.68608H5.68745H5.68882H5.69019H5.69155H5.69292H5.69429H5.69566H5.69703H5.6984H5.69977H5.70114H5.70251H5.70388H5.70525H5.70661H5.70798H5.70935H5.71072H5.71209H5.71346H5.71483H5.7162H5.71757H5.71894H5.7203H5.72167H5.72304H5.72441H5.72578H5.72715H5.72852H5.72989H5.73126H5.73263H5.73399H5.73536H5.73673H5.7381H5.73947H5.74084H5.74221H5.74358H5.74495H5.74632H5.74769H5.74905H5.75042H5.75179H5.75316H5.75453H5.7559H5.75727H5.75864H5.76001H5.76138H5.76274H5.76411H5.76548H5.76685H5.76822H5.76959H5.77096H5.77233H5.7737H5.77507H5.77644H5.7778H5.77917H5.78054H5.78191H5.78328H5.78465H5.78602H5.78739H5.78876H5.79013H5.79149H5.79286H5.79423H5.7956H5.79697H5.79834H5.79971H5.80108H5.80245H5.80382H5.80519H5.80655H5.80792H5.80929H5.81066H5.81203H5.8134H5.81477H5.81614H5.81751H5.81888H5.82024H5.82161H5.82298H5.82435H5.82572H5.82709H5.82846H5.82983H5.8312H5.83257H5.83393H5.8353H5.83667H5.83804H5.83941H5.84078H5.84215H5.84352H5.84489H5.84626H5.84763H5.84899H5.85036H5.85173H5.8531H5.85447H5.85584H5.85721H5.85858H5.85995H5.86132H5.86268H5.86405H5.86542H5.86679H5.86816H5.86953H5.8709H5.87227H5.87364H5.87501H5.87638H5.87774H5.87911H5.88048H5.88185H5.88322H5.88459H5.88596H5.88733H5.8887H5.89007H5.89143H5.8928H5.89417H5.89554H5.89691H5.89828H5.89965H5.90102H5.90239H5.90376H5.90512H5.90649H5.90786H5.90923H5.9106H5.91197H5.91334H5.91471H5.91608H5.91745H5.91882H5.92018H5.92155H5.92292H5.92429H5.92566H5.92703H5.9284H5.92977H5.93114H5.93251H5.93387H5.93524H5.93661H5.93798H5.93935H5.94072H5.94209H5.94346H5.94483H5.9462H5.94757H5.94893H5.9503H5.95167H5.95304H5.95441H5.95578H5.95715H5.95852H5.95989H5.96126H5.96262H5.96399H5.96536H5.96673H5.9681H5.96947H5.97084H5.97221H5.97358H5.97495H5.97631H5.97768H5.97905H5.98042H5.98179H5.98316H5.98453H5.9859H5.98727H5.98864H5.99001H5.99137H5.99274H5.99411H5.99548H5.99685H5.99822H5.99959H6.00096H6.00233H6.0037H6.00506H6.00643H6.0078H6.00917H6.01054H6.01191H6.01328H6.01465H6.01602H6.01739H6.01876H6.02012H6.02149H6.02286H6.02423H6.0256H6.02697H6.02834H6.02971H6.03108H6.03245H6.03381H6.03518H6.03655H6.03792H6.03929H6.04066H6.04203H6.0434H6.04477H6.04614H6.0475H6.04887H6.05024H6.05161H6.05298H6.05435H6.05572H6.05709H6.05846H6.05983H6.0612H6.06256H6.06393H6.0653H6.06667H6.06804H6.06941H6.07078H6.07215H6.07352H6.07489H6.07625H6.07762H6.07899H6.08036H6.08173H6.0831H6.08447H6.08584H6.08721H6.08858H6.08995H6.09131H6.09268H6.09405H6.09542H6.09679H6.09816H6.09953H6.1009H6.10227H6.10364H6.105H6.10637H6.10774H6.10911H6.11048H6.11185H6.11322H6.11459H6.11596H6.11733H6.11869H6.12006H6.12143H6.1228H6.12417H6.12554H6.12691H6.12828H6.12965H6.13102H6.13239H6.13375H6.13512H6.13649H6.13786H6.13923H6.1406H6.14197H6.14334H6.14471H6.14608H6.14744H6.14881H6.15018H6.15155H6.15292H6.15429C6.23526 27.6978 6.31298 27.6955 6.38884 27.6932C6.54164 27.6887 6.68686 27.6844 6.83571 27.6996L6.8357 27.6997L6.83939 27.6999C7.03204 27.7124 7.18661 27.6775 7.2899 27.564C7.38865 27.4555 7.41883 27.2972 7.42482 27.1207C7.43104 26.9372 7.39799 26.7764 7.29821 26.6613C7.19637 26.5439 7.04342 26.4947 6.85757 26.4947H6.85474H6.85191H6.84907H6.84624H6.84341H6.84057H6.83774H6.8349H6.83207H6.82924H6.8264H6.82357H6.82074H6.8179H6.81507H6.81224H6.80941H6.80657H6.80374H6.80091H6.79807H6.79524H6.79241H6.78958H6.78674H6.78391H6.78108H6.77825H6.77541H6.77258H6.76975H6.76692H6.76408H6.76125H6.75842H6.75559H6.75276H6.74992H6.74709H6.74426H6.74143H6.7386H6.73576H6.73293H6.7301H6.72727H6.72444H6.72161H6.71878H6.71594H6.71311H6.71028H6.70745H6.70462H6.70179H6.69896H6.69613H6.69329H6.69046H6.68763H6.6848H6.68197H6.67914H6.67631H6.67348H6.67065H6.66782H6.66499H6.66216H6.65933H6.6565H6.65366H6.65083H6.648H6.64517H6.64234H6.63951H6.63668H6.63385H6.63102H6.62819H6.62536H6.62253H6.6197H6.61687H6.61404H6.61122H6.60839H6.60556H6.60273H6.5999H6.59707H6.59424H6.59141H6.58858H6.58575H6.58292H6.58009H6.57726H6.57443H6.5716H6.56878H6.56595H6.56312H6.56029H6.55746H6.55463H6.5518H6.54897H6.54614H6.54332H6.54049H6.53766H6.53483H6.532H6.52917H6.52635H6.52352H6.52069H6.51786H6.51503H6.5122H6.50938H6.50655H6.50372H6.50089H6.49806H6.49524H6.49241H6.48958H6.48675H6.48392H6.4811H6.47827H6.47544H6.47261H6.46979H6.46696H6.46413H6.4613H6.45848H6.45565H6.45282H6.44999H6.44717H6.44434H6.44151H6.43868H6.43586H6.43303H6.4302H6.42738H6.42455H6.42172H6.4189H6.41607H6.41324H6.41042H6.40759H6.40476H6.40194H6.39911H6.39628H6.39346H6.39063H6.3878H6.38498H6.38215H6.37932H6.3765H6.37367H6.37084H6.36802H6.36519H6.36237H6.35954H6.35671H6.35389H6.35106H6.34824H6.34541H6.34258H6.33976H6.33693H6.33411H6.33128H6.32845H6.32563H6.3228H6.31998H6.31715H6.31433H6.3115H6.30867H6.30585H6.30302H6.3002H6.29737H6.29455H6.29172H6.2889H6.28607H6.28325H6.28042H6.2776H6.27477H6.27195H6.26912H6.2663H6.26347H6.26065H6.25782H6.255H6.25217H6.24935H6.24652H6.2437H6.24087H6.23805H6.23522H6.2324H6.22957H6.22675H6.22392H6.2211H6.21828H6.21545H6.21263H6.2098H6.20698H6.20415H6.20133H6.1985H6.19568H6.19286H6.19003H6.18721H6.18438H6.18156H6.17874H6.17591H6.17309H6.17026H6.16744H6.16462H6.16179H6.15897H6.15614H6.15332H6.1505H6.14767H6.14485H6.14202H6.1392H6.13638H6.13355H6.13073H6.12791H6.12508H6.12226H6.11944H6.11661H6.11379H6.11097H6.10814H6.10532H6.1025H6.09967H6.09685H6.09403H6.0912H6.08838H6.08556H6.08273H6.07991H6.07709H6.07426H6.07144H6.06862H6.06579H6.06297H6.06015H6.05732H6.0545H6.05168H6.04886H6.04603H6.04321H6.04039H6.03756H6.03474H6.03192H6.0291H6.02627H6.02345H6.02063H6.01781H6.01498H6.01216H6.00934H6.00652H6.00369H6.00087H5.99805H5.99523H5.9924H5.98958H5.98676H5.98394H5.98111H5.97829H5.97547H5.97265H5.96982H5.967H5.96418H5.96136H5.95853H5.95571H5.95289H5.95007H5.94725H5.94442H5.9416H5.93878H5.93596H5.93314H5.93031H5.92749H5.92467H5.92185H5.91903H5.9162H5.91338H5.91056H5.90774H5.90492H5.9021H5.89927H5.89645H5.89363H5.89081H5.88799H5.88516H5.88234H5.87952H5.8767H5.87388H5.87106H5.86823H5.86541H5.86259H5.85977H5.85695H5.85413H5.85131H5.84848H5.84566H5.84284H5.84002H5.8372H5.83438H5.83156H5.82873H5.82591H5.82309H5.82027H5.81745H5.81463H5.81181H5.80898H5.80616H5.80334H5.80052H5.7977H5.79488H5.79206H5.78924H5.78642H5.78359H5.78077H5.77795H5.77513H5.77231H5.76949H5.76667H5.76385H5.76103H5.7582H5.75538H5.75256H5.74974H5.74692H5.7441H5.74128H5.73846H5.73564H5.73282H5.73H5.72717H5.72435H5.72153H5.71871H5.71589H5.71307H5.71025H5.70743H5.70461H5.70179H5.69897H5.69615H5.69332H5.6905H5.68768H5.68486H5.68204H5.67922H5.6764H5.67358H5.67076H5.66794H5.66512H5.6623H5.65948H5.65666H5.65384H5.65101H5.64819H5.64537H5.64255H5.63973H5.63691H5.63409H5.63127H5.62845H5.62563H5.62281H5.61999H5.61717H5.61435H5.61153H5.60871H5.60589H5.60307H5.60024H5.59742H5.5946H5.59178H5.58896H5.58614H5.58332H5.5805H5.57768H5.57486H5.57204H5.56922H5.5664H5.56358H5.56076H5.55794H5.55512H5.5523H5.54948H5.54666H5.54384H5.54102H5.5382H5.53538H5.53256H5.52974H5.52692H5.52409H5.52127H5.51845H5.51563H5.51281H5.50999H5.50717H5.50435H5.50153H5.49871H5.49589H5.49307H5.49025H5.48743H5.48461H5.48179H5.47897H5.47615H5.47333H5.47051H5.46769H5.46487H5.46205H5.45923H5.45641H5.45359H5.45077H5.44795H5.44513H5.44231H5.43949H5.43667H5.43385H5.43103H5.42821H5.42539H5.42257H5.41975H5.41693H5.41411H5.41128Z" fill="url(#paint2_linear_1578_3536)" stroke="url(#paint3_linear_1578_3536)" stroke-width="0.2"/>
<path d="M50.6033 27.6998L50.6033 27.6999H50.6083C50.6667 27.6999 50.7242 27.6993 50.7812 27.6987C50.9116 27.6972 51.0393 27.6958 51.1688 27.7022L51.1692 27.7022C51.2601 27.7063 51.3516 27.7087 51.4362 27.7008C51.521 27.6929 51.6057 27.6741 51.6804 27.6314C51.8407 27.5398 51.9163 27.3635 51.9163 27.0914C51.9163 26.8179 51.838 26.6455 51.676 26.5567C51.6012 26.5157 51.5168 26.4977 51.4333 26.489C51.3509 26.4805 51.2616 26.4805 51.1745 26.4805L51.1714 26.4805C51.0336 26.4805 50.8945 26.4837 50.7569 26.4869C50.4877 26.4931 50.2242 26.4992 49.9876 26.4808C49.7911 26.4656 49.6306 26.505 49.5238 26.6165C49.4186 26.7264 49.3875 26.8839 49.3963 27.0544C49.4043 27.2091 49.4195 27.383 49.5024 27.5115C49.5462 27.5795 49.6081 27.634 49.6924 27.6672C49.7745 27.6996 49.8723 27.7097 49.9867 27.6997C50.1921 27.6894 50.3979 27.6895 50.6033 27.6998Z" fill="url(#paint4_linear_1578_3536)" stroke="url(#paint5_linear_1578_3536)" stroke-width="0.2"/>
<path d="M9.29495 21.5828L9.30796 21.5573L9.30547 21.5288C9.2928 21.3833 9.23707 21.288 9.16255 21.2195C9.12738 21.1872 9.08994 21.1625 9.05698 21.1424C9.04405 21.1344 9.03258 21.1276 9.02195 21.1213C9.00295 21.1101 8.98668 21.1004 8.96977 21.089L8.96984 21.0889L8.96535 21.0862C8.82261 21.0003 8.67483 20.9188 8.52852 20.8382C8.49913 20.822 8.46979 20.8058 8.44057 20.7896C8.26496 20.6925 8.09247 20.595 7.92868 20.4881C7.76113 20.3788 7.59995 20.3021 7.44011 20.3324C7.27666 20.3634 7.15313 20.4978 7.03724 20.7003C6.91863 20.9076 6.87906 21.0843 6.9494 21.2397C7.01568 21.3862 7.16774 21.482 7.33647 21.566C7.53866 21.6667 7.72995 21.778 7.92407 21.891C8.05542 21.9674 8.18807 22.0446 8.32628 22.1198L8.32637 22.1198C8.3514 22.1334 8.37708 22.1503 8.4075 22.1703C8.41471 22.175 8.42218 22.18 8.42997 22.1851C8.46798 22.2099 8.51277 22.2381 8.55991 22.2587C8.60723 22.2793 8.66445 22.2955 8.7266 22.2885C8.79152 22.2812 8.85013 22.25 8.90033 22.1964L8.90058 22.1966L8.90581 22.19C9.05515 22.001 9.1855 21.7976 9.29495 21.5828Z" fill="url(#paint6_linear_1578_3536)" stroke="url(#paint7_linear_1578_3536)" stroke-width="0.2"/>
<path d="M48.802 34.4146L48.8449 34.4374L48.8893 34.4178C49.0414 34.3506 49.1355 34.2415 49.2059 34.1292C49.2405 34.0739 49.2704 34.0162 49.2979 33.9628L49.3 33.9588C49.3262 33.908 49.3503 33.8612 49.3767 33.8175C49.4117 33.7746 49.4365 33.7242 49.449 33.6701C49.4622 33.6132 49.4615 33.554 49.4469 33.4975C49.4324 33.4409 49.4044 33.3887 49.3653 33.3453C49.3282 33.3041 49.2821 33.272 49.2307 33.2514C49.0942 33.1738 48.9577 33.0965 48.8212 33.0192C48.5057 32.8405 48.1902 32.6619 47.8757 32.4797L47.8757 32.4797L47.8749 32.4793C47.7824 32.4268 47.6765 32.3835 47.5712 32.4018C47.4559 32.4219 47.3763 32.508 47.3226 32.632C47.3041 32.6746 47.2715 32.723 47.2296 32.7808C47.2228 32.7903 47.2156 32.8001 47.2083 32.8101C47.1738 32.8573 47.1357 32.9095 47.1052 32.9607C47.0688 33.022 47.034 33.0966 47.0331 33.1765C47.0321 33.2648 47.0724 33.3431 47.1523 33.4047L47.1522 33.4048L47.1561 33.4075C47.6838 33.7765 48.2335 34.1128 48.802 34.4146Z" fill="url(#paint8_linear_1578_3536)" stroke="url(#paint9_linear_1578_3536)" stroke-width="0.2"/>
<path d="M47.5742 22.2843L47.6116 22.292L47.2836 21.195L47.2331 21.1087C47.233 21.1088 47.2329 21.1088 47.2328 21.1089C47.1915 21.133 47.1447 21.1604 47.1024 21.1911C47.0601 21.2217 47.0166 21.2597 46.9846 21.3077C46.9512 21.3578 46.9312 21.4179 46.9365 21.4874C46.9416 21.5547 46.9699 21.622 47.0166 21.6899L47.099 21.6332L47.0162 21.6893C47.0449 21.7316 47.069 21.7802 47.0962 21.8367C47.0979 21.8401 47.0996 21.8436 47.1013 21.8471C47.1262 21.8988 47.1542 21.9567 47.1884 22.0113C47.2649 22.1331 47.3761 22.2434 47.5742 22.2843Z" fill="url(#paint10_linear_1578_3536)" stroke="url(#paint11_linear_1578_3536)" stroke-width="0.2"/>
<path d="M7.65124 34.4008L7.69324 34.4134L7.73095 34.391C7.83138 34.3314 7.93193 34.2711 8.03279 34.2106C8.31892 34.039 8.60759 33.8658 8.90325 33.7037L8.90331 33.7037C8.98335 33.6597 9.06258 33.6146 9.13058 33.5647C9.1987 33.5147 9.26114 33.456 9.30334 33.382C9.39364 33.2236 9.37073 33.0359 9.23898 32.8028C9.11011 32.5748 8.96909 32.4472 8.79019 32.4381C8.70532 32.4338 8.62334 32.4573 8.54542 32.4927C8.46766 32.528 8.3878 32.5781 8.30618 32.6332C8.08741 32.7811 7.85328 32.9146 7.61591 33.05C7.50687 33.1122 7.39716 33.1748 7.28793 33.2393L7.28793 33.2393L7.2876 33.2395C7.20496 33.2888 7.11406 33.3542 7.06876 33.4485C7.01796 33.5542 7.03504 33.6701 7.11224 33.7897C7.14057 33.8337 7.16479 33.8829 7.19207 33.9391C7.19301 33.941 7.19394 33.9429 7.19488 33.9448C7.22056 33.9977 7.24911 34.0566 7.28394 34.1126C7.35864 34.2328 7.46512 34.3451 7.65124 34.4008Z" fill="url(#paint12_linear_1578_3536)" stroke="url(#paint13_linear_1578_3536)" stroke-width="0.2"/>
<path d="M25.202 31.1294L25.202 31.1293C25.097 29.6482 25.3224 28.4056 25.9137 27.365C26.5051 26.3244 27.4569 25.4955 28.7875 24.8317L28.7891 24.8309L28.7891 24.831C28.9192 24.7688 29.0498 24.708 29.1802 24.6473C29.5463 24.4769 29.9111 24.307 30.2596 24.11L30.2603 24.1096C30.5026 23.9751 30.7052 23.7787 30.8473 23.5402C30.9894 23.3017 31.0661 23.0297 31.0694 22.7519C31.0728 22.474 31.0027 22.2002 30.8664 21.9584C30.73 21.7165 30.5323 21.5152 30.2933 21.3749L30.2904 21.3733L30.2905 21.3732C29.7566 21.0357 28.9875 20.8788 28.2183 20.9059C27.4489 20.9329 26.6978 21.1435 26.1985 21.5208L26.1933 21.5247L26.1932 21.5245C25.9493 21.6851 25.7478 21.9024 25.6059 22.1581C25.4642 22.4134 25.3861 22.6994 25.3784 22.9915C25.3782 23.2356 25.3256 23.415 25.1871 23.5246C25.0545 23.6296 24.8675 23.649 24.6598 23.6455L24.6596 23.6455C23.5643 23.6244 22.4682 23.6128 21.375 23.6455C21.3749 23.6455 21.3749 23.6455 21.3748 23.6455L21.3718 23.5455C20.832 23.5643 20.7409 23.3112 20.7479 22.8636L25.202 31.1294ZM25.202 31.1294C25.2152 31.3125 25.2526 31.4779 25.3571 31.594C25.4659 31.7149 25.6274 31.7617 25.8376 31.7542C26.2142 31.7449 26.5905 31.748 26.9691 31.7511C27.1594 31.7526 27.3504 31.7542 27.5422 31.7542L25.202 31.1294ZM24.8096 17.1029C22.1703 18.045 20.6859 20.1652 20.6479 22.8621L28.0574 31.7476C28.3917 31.7403 28.7203 31.7332 29.0502 31.7609C29.3564 31.7885 29.5913 31.7445 29.7378 31.584C29.8814 31.4266 29.9124 31.1863 29.8922 30.8974C29.8513 30.3057 29.9537 29.8141 30.2011 29.4156C30.4484 29.0171 30.8468 28.7015 31.4161 28.4731C32.1479 28.1817 32.8499 27.8201 33.5125 27.3934C34.5452 26.7329 35.3486 25.8519 35.6581 24.6485L35.6582 24.6484C35.996 23.3319 36.0289 21.8467 35.524 20.5053C35.0181 19.1609 33.9746 17.9688 32.1762 17.2402C29.8252 16.2673 27.195 16.2183 24.8096 17.1029ZM27.9358 30.5382L27.9359 30.538L27.9284 30.5374C27.7987 30.5277 27.6685 30.5276 27.5388 30.5371L27.5333 30.5371L27.5331 30.5371L27.5262 30.5371C27.1978 30.5365 26.9613 30.5361 26.7896 30.5168C26.614 30.497 26.5355 30.4597 26.4956 30.4111C26.455 30.3616 26.433 30.2745 26.4432 30.0947C26.4525 29.9315 26.4862 29.7161 26.5317 29.4248C26.5354 29.401 26.5392 29.3767 26.5431 29.3519C26.7698 27.9144 27.485 26.8654 28.7808 26.2154C29.4816 25.871 30.1831 25.5262 30.8848 25.1672L30.8851 25.1671C31.9575 24.6134 32.345 23.653 32.2984 22.7232C32.2521 21.8002 31.7779 20.8972 31.1157 20.4401C30.3163 19.8866 29.21 19.6425 28.1272 19.6924C27.0453 19.7423 25.9707 20.0866 25.2352 20.7292C24.8404 21.0453 24.5424 21.4666 24.3755 21.9447L24.3754 21.9447L24.3741 21.9491C24.3152 22.1464 24.2395 22.2669 24.1416 22.337C24.0445 22.4065 23.9092 22.4383 23.7046 22.4217L23.704 22.4217C23.2573 22.3885 22.8087 22.3885 22.362 22.4217L22.362 22.4217L22.3606 22.4218C22.1065 22.4444 22.0094 22.3879 21.9688 22.3231C21.9458 22.2862 21.9314 22.2334 21.9299 22.1582C21.9284 22.0832 21.94 21.9925 21.9626 21.886L21.9627 21.8856C22.2658 20.4321 23.0342 19.3051 24.3459 18.6576C27.0509 17.3264 29.7954 17.3612 32.4563 18.7524C34.1107 19.6244 34.7063 21.1679 34.6832 23.0193C34.6718 23.8978 34.452 24.6248 34.0508 25.2273C33.6492 25.8302 33.0617 26.3143 32.3058 26.6998C31.9956 26.8565 31.6837 27.0097 31.3714 27.163L31.3382 27.1793C31.0371 27.327 30.7359 27.4748 30.4368 27.6254L30.4367 27.6254C29.5262 28.0845 28.8982 28.8064 28.7935 29.8489C28.7606 30.1708 28.6743 30.3541 28.548 30.4521C28.4219 30.5499 28.2301 30.5825 27.9358 30.5382Z" fill="url(#paint14_linear_1578_3536)" stroke="url(#paint15_linear_1578_3536)" stroke-width="0.2"/>
<path d="M29.84 36.4912C29.9724 36.1645 30.0364 35.8141 30.0282 35.4617C30.0448 35.1096 29.9884 34.7579 29.8624 34.4287C29.7361 34.0985 29.5425 33.7982 29.294 33.5472C29.0455 33.2961 28.7475 33.0997 28.4191 32.9704C28.0914 32.8415 27.7406 32.7823 27.3889 32.7966C26.6135 32.7935 25.947 33.0623 25.4706 33.5276C24.9938 33.9933 24.7128 34.6507 24.6995 35.4142C24.6729 36.9496 25.7929 38.0736 27.341 38.0938C27.6928 38.1104 28.0443 38.0542 28.3736 37.9287C28.7034 37.803 29.0039 37.6105 29.2562 37.3631C29.5085 37.1158 29.7072 36.8189 29.84 36.4912ZM27.3343 34.0184C27.7864 34.0094 28.1542 34.1442 28.4083 34.3837C28.6618 34.6227 28.8116 34.9749 28.8118 35.4202C28.8083 35.7971 28.6588 36.1579 28.395 36.4262C28.1311 36.6945 27.7735 36.8493 27.3978 36.8579C27.0222 36.8664 26.658 36.728 26.3822 36.4719C26.1069 36.2162 25.9413 35.8631 25.9205 35.4871C25.9108 35.0408 26.0454 34.6802 26.2859 34.4294C26.5266 34.1782 26.8828 34.0273 27.3343 34.0184Z" fill="url(#paint16_linear_1578_3536)" stroke="url(#paint17_linear_1578_3536)" stroke-width="0.2"/>
</g>
<defs>
<linearGradient id="paint0_linear_1578_3536" x1="11.2241" y1="10" x2="46.5611" y2="11.5469" gradientUnits="userSpaceOnUse">
<stop stop-color="#FCD878"/>
<stop offset="1" stop-color="#FFC62F"/>
</linearGradient>
<linearGradient id="paint1_linear_1578_3536" x1="11.2241" y1="10" x2="46.5611" y2="11.5469" gradientUnits="userSpaceOnUse">
<stop stop-color="#FCD878"/>
<stop offset="1" stop-color="#FFC62F"/>
</linearGradient>
<linearGradient id="paint2_linear_1578_3536" x1="4.98413" y1="26.5947" x2="7.40772" y2="26.8647" gradientUnits="userSpaceOnUse">
<stop stop-color="#FCD878"/>
<stop offset="1" stop-color="#FFC62F"/>
</linearGradient>
<linearGradient id="paint3_linear_1578_3536" x1="4.98413" y1="26.5947" x2="7.40772" y2="26.8647" gradientUnits="userSpaceOnUse">
<stop stop-color="#FCD878"/>
<stop offset="1" stop-color="#FFC62F"/>
</linearGradient>
<linearGradient id="paint4_linear_1578_3536" x1="49.4949" y1="26.5776" x2="51.8994" y2="26.8379" gradientUnits="userSpaceOnUse">
<stop stop-color="#FCD878"/>
<stop offset="1" stop-color="#FFC62F"/>
</linearGradient>
<linearGradient id="paint5_linear_1578_3536" x1="49.4949" y1="26.5776" x2="51.8994" y2="26.8379" gradientUnits="userSpaceOnUse">
<stop stop-color="#FCD878"/>
<stop offset="1" stop-color="#FFC62F"/>
</linearGradient>
<linearGradient id="paint6_linear_1578_3536" x1="7.01465" y1="20.4258" x2="9.30279" y2="20.562" gradientUnits="userSpaceOnUse">
<stop stop-color="#FCD878"/>
<stop offset="1" stop-color="#FFC62F"/>
</linearGradient>
<linearGradient id="paint7_linear_1578_3536" x1="7.01465" y1="20.4258" x2="9.30279" y2="20.562" gradientUnits="userSpaceOnUse">
<stop stop-color="#FCD878"/>
<stop offset="1" stop-color="#FFC62F"/>
</linearGradient>
<linearGradient id="paint8_linear_1578_3536" x1="47.1331" y1="32.4976" x2="49.4572" y2="32.6331" gradientUnits="userSpaceOnUse">
<stop stop-color="#FCD878"/>
<stop offset="1" stop-color="#FFC62F"/>
</linearGradient>
<linearGradient id="paint9_linear_1578_3536" x1="47.1331" y1="32.4976" x2="49.4572" y2="32.6331" gradientUnits="userSpaceOnUse">
<stop stop-color="#FCD878"/>
<stop offset="1" stop-color="#FFC62F"/>
</linearGradient>
<linearGradient id="paint10_linear_1578_3536" x1="47.0356" y1="20.4453" x2="49.2632" y2="20.5761" gradientUnits="userSpaceOnUse">
<stop stop-color="#FCD878"/>
<stop offset="1" stop-color="#FFC62F"/>
</linearGradient>
<linearGradient id="paint11_linear_1578_3536" x1="47.0356" y1="20.4453" x2="49.2632" y2="20.5761" gradientUnits="userSpaceOnUse">
<stop stop-color="#FCD878"/>
<stop offset="1" stop-color="#FFC62F"/>
</linearGradient>
<linearGradient id="paint12_linear_1578_3536" x1="7.13989" y1="32.5376" x2="9.35177" y2="32.6646" gradientUnits="userSpaceOnUse">
<stop stop-color="#FCD878"/>
<stop offset="1" stop-color="#FFC62F"/>
</linearGradient>
<linearGradient id="paint13_linear_1578_3536" x1="7.13989" y1="32.5376" x2="9.35177" y2="32.6646" gradientUnits="userSpaceOnUse">
<stop stop-color="#FCD878"/>
<stop offset="1" stop-color="#FFC62F"/>
</linearGradient>
<linearGradient id="paint14_linear_1578_3536" x1="20.7476" y1="16.5732" x2="36.4943" y2="17.3264" gradientUnits="userSpaceOnUse">
<stop stop-color="#FCD878"/>
<stop offset="1" stop-color="#FFC62F"/>
</linearGradient>
<linearGradient id="paint15_linear_1578_3536" x1="20.7476" y1="16.5732" x2="36.4943" y2="17.3264" gradientUnits="userSpaceOnUse">
<stop stop-color="#FCD878"/>
<stop offset="1" stop-color="#FFC62F"/>
</linearGradient>
<linearGradient id="paint16_linear_1578_3536" x1="24.7991" y1="32.8945" x2="30.1646" y2="33.1533" gradientUnits="userSpaceOnUse">
<stop stop-color="#FCD878"/>
<stop offset="1" stop-color="#FFC62F"/>
</linearGradient>
<linearGradient id="paint17_linear_1578_3536" x1="24.7991" y1="32.8945" x2="30.1646" y2="33.1533" gradientUnits="userSpaceOnUse">
<stop stop-color="#FCD878"/>
<stop offset="1" stop-color="#FFC62F"/>
</linearGradient>
<clipPath id="clip0_1578_3536">
<rect width="46.8163" height="37" fill="white" transform="translate(5 10)"/>
</clipPath>
</defs>
</svg>
