<svg width="56" height="56" viewBox="0 0 56 56" fill="none" xmlns="http://www.w3.org/2000/svg">
<rect width="56" height="56" fill="white"/>
<path d="M27.5104 48.0319C23.4495 48.0291 19.4806 46.8223 16.1061 44.564C12.7316 42.3057 10.1032 39.0975 8.55339 35.3455C7.00361 31.5934 6.60218 27.4661 7.39989 23.4859C8.1976 19.5057 10.1586 15.8515 13.0347 12.9857C15.9108 10.12 19.5728 8.1715 23.5571 7.38689C27.5415 6.60228 31.6691 7.01681 35.4177 8.578C39.1663 10.1392 42.3673 12.7769 44.6156 16.1573C46.864 19.5376 48.0586 23.5087 48.0483 27.568C48.049 30.2611 47.5178 32.9279 46.4851 35.4153C45.4524 37.9027 43.9386 40.1618 42.0305 42.0631C40.1224 43.9643 37.8575 45.4703 35.3658 46.4946C32.8741 47.5188 30.2045 48.0413 27.5104 48.0319ZM27.4939 46.3428C31.2177 46.3525 34.8608 45.2586 37.9628 43.1993C41.0649 41.14 43.4866 38.2078 44.922 34.7731C46.3574 31.3385 46.7421 27.5556 46.0274 23.9025C45.3126 20.2494 43.5306 16.8901 40.9065 14.249C38.2824 11.608 34.934 9.80374 31.2844 9.06434C27.6348 8.32494 23.8479 8.68355 20.4021 10.0949C16.9564 11.5062 14.0064 13.9068 11.9252 16.9934C9.84389 20.0801 8.72466 23.7141 8.70892 27.4364C8.69155 29.9132 9.16463 32.369 10.1009 34.6623C11.0372 36.9555 12.4182 39.0409 14.1643 40.7983C15.9104 42.5557 17.9872 43.9504 20.2749 44.9019C22.5626 45.8535 25.0161 46.3432 27.4939 46.3428Z" fill="url(#paint0_linear_1549_3097)"/>
<path d="M27.5103 43.2554C24.3666 43.1375 21.3382 42.6686 18.6691 40.8616C15.8821 38.9696 14.4091 36.3263 14.2362 32.9783C14.1539 31.5414 14.4283 31.3742 15.7998 31.6429C23.7055 33.1647 31.614 33.4718 39.5142 31.6429C40.5484 31.4016 40.8282 31.7416 40.8584 32.6931C40.9736 36.4826 38.3896 40.2831 34.5492 41.9338C32.2998 42.8907 29.9188 43.1759 27.5103 43.2554ZM37.4706 37.4642C34.1799 38.0544 30.8393 38.3216 27.4966 38.2622C24.1591 38.2114 20.8311 37.8932 17.5445 37.3107C20.5317 42.7564 34.017 43.0525 37.4706 37.4642ZM39.026 33.491C36.2197 34.0093 33.4053 34.4508 30.5497 34.5248C25.948 34.6701 21.3435 34.3411 16.8093 33.5431C16.5213 33.491 15.9425 33.1592 15.9864 33.7652C16.0577 34.5138 16.0686 35.3638 17.2263 35.5613C23.8317 36.68 30.4317 36.9323 37.0674 35.8355C38.4636 35.6106 39.2043 35.0458 39.0232 33.491H39.026Z" fill="url(#paint1_linear_1549_3097)"/>
<path d="M22.2163 23.5757C20.746 22.6708 19.4457 21.8564 18.129 21.0722C17.5969 20.7541 17.2238 20.3511 17.5804 19.756C17.937 19.161 18.4774 19.32 18.9959 19.6381C20.6994 20.6856 22.422 21.7001 24.1146 22.764C24.954 23.2933 24.9677 23.9157 24.0899 24.4285C22.3644 25.4403 20.6198 26.4137 18.8779 27.4145C18.3869 27.6887 17.8849 27.8094 17.5804 27.2582C17.2759 26.7071 17.4981 26.2437 18.0879 25.9201C19.4156 25.2017 20.7076 24.4394 22.2163 23.5757Z" fill="url(#paint2_linear_1549_3097)"/>
<path d="M32.862 23.5837C34.3461 24.4283 35.6052 25.1604 36.878 25.8623C37.476 26.1914 37.8628 26.6274 37.4677 27.2772C37.0727 27.9271 36.5378 27.6255 36.0386 27.3403C34.4256 26.4135 32.8072 25.5031 31.1887 24.5516C30.0722 23.899 30.0338 23.3451 31.0872 22.6761C32.7331 21.6341 34.4229 20.6388 36.0879 19.6187C36.6064 19.3006 37.1441 19.1443 37.4979 19.7613C37.8518 20.3783 37.4513 20.7567 36.9273 21.072C35.6134 21.8699 34.3159 22.6871 32.862 23.5837Z" fill="url(#paint3_linear_1549_3097)"/>
<defs>
<linearGradient id="paint0_linear_1549_3097" x1="27.3573" y1="48.032" x2="27.3573" y2="7" gradientUnits="userSpaceOnUse">
<stop stop-color="#0E78B4"/>
<stop offset="1" stop-color="#20C1DC"/>
</linearGradient>
<linearGradient id="paint1_linear_1549_3097" x1="27.4342" y1="43.2554" x2="27.4342" y2="31.5361" gradientUnits="userSpaceOnUse">
<stop stop-color="#0E78B4"/>
<stop offset="1" stop-color="#20C1DC"/>
</linearGradient>
<linearGradient id="paint2_linear_1549_3097" x1="21.0633" y1="27.646" x2="21.0633" y2="19.3545" gradientUnits="userSpaceOnUse">
<stop stop-color="#0E78B4"/>
<stop offset="1" stop-color="#20C1DC"/>
</linearGradient>
<linearGradient id="paint3_linear_1549_3097" x1="33.948" y1="27.6649" x2="33.948" y2="19.3394" gradientUnits="userSpaceOnUse">
<stop stop-color="#0E78B4"/>
<stop offset="1" stop-color="#20C1DC"/>
</linearGradient>
</defs>
</svg>
