<svg width="56" height="56" viewBox="0 0 56 56" fill="none" xmlns="http://www.w3.org/2000/svg">
<rect width="56" height="56" fill="white"/>
<path d="M16.0698 31.7602C16.353 31.8728 16.6285 32.0036 16.8943 32.1518C17.169 32.3197 17.3342 32.5141 17.4048 32.7158C17.4739 32.9136 17.4641 33.1527 17.322 33.4392C17.1752 33.7351 16.9909 33.9081 16.7932 33.986C16.5972 34.0632 16.3503 34.0619 16.0465 33.9353C14.9123 33.4591 13.7915 32.949 12.6697 32.4384C12.5234 32.3719 12.3772 32.3053 12.2309 32.2388L12.2309 32.2388L12.2275 32.2373C11.4221 31.8856 10.6156 31.5282 9.80752 31.1701C9.27918 30.936 8.75017 30.7016 8.22034 30.4682L8.11959 30.697L8.22033 30.4682C7.86725 30.3128 7.55829 30.1754 7.3387 29.9796C7.13732 29.8 7.01256 29.5721 7.04052 29.2056C7.06668 28.8685 7.21319 28.6653 7.42817 28.5126C7.65981 28.3481 7.96678 28.2448 8.31703 28.1307C15.3008 25.8798 22.2801 23.6245 29.2549 21.3648L29.255 21.3647C29.6266 21.2441 29.9955 21.1209 30.3632 20.998C31.4111 20.6478 32.4488 20.301 33.5094 20.0303L33.5098 20.0302C33.7371 19.9718 34.0375 19.9475 34.3143 19.9742C34.6035 20.002 34.8067 20.0795 34.8967 20.1701C34.9887 20.2627 35.0693 20.4707 35.0984 20.7573C35.1264 21.0332 35.1008 21.3256 35.0358 21.5368L35.0358 21.5368C33.8998 25.2292 32.7288 28.9113 31.5578 32.5934C31.0901 34.0641 30.6224 35.5348 30.1569 37.0061C29.7459 38.2999 29.3329 39.5935 28.9198 40.8874C28.3 42.8289 27.68 44.7709 27.0664 46.7142C26.9548 47.0671 26.8562 47.3585 26.6928 47.5712C26.5442 47.7645 26.3341 47.902 25.9575 47.9163L25.9572 47.9163C25.6161 47.9296 25.4005 47.8214 25.2315 47.6525C25.0486 47.4696 24.913 47.2089 24.7606 46.8925L24.7604 46.892C23.2095 43.689 21.6497 40.4897 20.081 37.2943L20.0811 37.2943L20.0797 37.2915C20.0119 37.1575 19.9322 37.0204 19.8361 36.8551C19.7916 36.7785 19.7436 36.6958 19.6916 36.6046L19.5296 36.3205L19.2979 36.5513L18.5789 37.2674C16.2273 39.6097 13.9113 41.9164 11.5938 44.2216L11.5938 44.2216C10.5188 45.2912 9.43628 46.3608 8.34608 47.4304C7.83405 47.9296 7.48211 48.0906 7.20385 48.0634C6.93593 48.0372 6.63531 47.8266 6.25179 47.289L6.26487 46.7087L15.4649 37.5478C15.6025 37.4111 15.7401 37.2745 15.8776 37.1378C16.8408 36.1808 17.8029 35.2249 18.7752 34.279C19.3617 33.709 19.7778 33.5352 20.0867 33.5858C20.393 33.6359 20.7214 33.9286 21.073 34.6494L21.073 34.6495C22.0087 36.5666 22.9418 38.4837 23.91 40.473C24.4133 41.5069 24.926 42.5604 25.4536 43.6435L25.7271 44.2051L25.9165 43.6098C26.6586 41.2777 27.3939 38.9703 28.1263 36.6716C29.5935 32.0672 31.0495 27.4982 32.5258 22.8377L32.6723 22.375L32.2105 22.5244L11.4829 29.2261L10.8669 29.4253L11.4569 29.6918C12.404 30.1195 13.2867 30.5142 14.1398 30.8956C14.7919 31.1872 15.4266 31.471 16.0595 31.7559L16.0594 31.7561L16.0698 31.7602Z" fill="url(#paint0_linear_1578_3542)" stroke="url(#paint1_linear_1578_3542)" stroke-width="0.5"/>
<path d="M47.4158 32.9787L47.4158 32.9786C47.746 32.1461 47.9743 31.2693 48.1765 30.3706C48.2506 30.0408 48.3217 29.7057 48.3932 29.3688C48.5126 28.8062 48.633 28.2387 48.7704 27.6835L48.7572 24.7171C48.7317 24.5633 48.7058 24.4092 48.68 24.2549C48.6298 23.9556 48.5795 23.6556 48.531 23.3555L48.5309 23.3549C46.9141 13.2131 37.8232 6.24902 27.4425 7.36784L47.4158 32.9787ZM47.4158 32.9787C45.1173 38.7792 40.8684 42.5624 34.8297 44.3881L34.8296 44.3881M47.4158 32.9787L34.8296 44.3881M34.8296 44.3881C34.4071 44.516 34.0599 44.5023 33.8035 44.3972C33.5527 44.2945 33.3639 44.0949 33.2647 43.7942C33.1721 43.5106 33.2118 43.2599 33.3614 43.046C33.5169 42.8237 33.8082 42.6182 34.2572 42.4794C39.7849 40.7717 43.6797 37.2802 45.6733 31.8847C48.8016 23.4175 44.5229 13.8943 36.1559 10.515C27.5708 7.04098 17.9051 10.7479 14.0095 19.0093L14.0095 19.0093M34.8296 44.3881L14.0095 19.0093M14.0095 19.0093C13.6943 19.6777 13.4069 20.0607 13.1324 20.2389M14.0095 19.0093L13.1324 20.2389M13.1324 20.2389C13.001 20.3242 12.873 20.3623 12.7404 20.3636M13.1324 20.2389L12.7404 20.3636M12.7404 20.3636C12.6051 20.3649 12.4499 20.3278 12.2673 20.2393M12.7404 20.3636L12.2673 20.2393M12.2673 20.2393C11.937 20.0789 11.7869 19.877 11.7573 19.5965C11.7245 19.2845 11.8356 18.8345 12.1585 18.1826C15.2933 11.8632 20.3664 8.13244 27.4424 7.36785L12.2673 20.2393Z" fill="url(#paint2_linear_1578_3542)" stroke="url(#paint3_linear_1578_3542)" stroke-width="0.5"/>
<path d="M29.7417 12.5615C31.5436 12.5598 33.3281 12.9087 34.9935 13.5884C36.6608 14.2687 38.1759 15.2672 39.4523 16.5267C40.7286 17.7861 41.7411 19.2818 42.4318 20.9282C43.1225 22.5747 43.4779 24.3395 43.4777 26.1217C43.4891 31.4317 40.0775 36.4812 35.114 38.5036C34.1049 38.9152 33.4245 38.7396 33.0862 37.9843C32.7479 37.2289 33.1053 36.6624 34.1259 36.1998M29.7417 12.5615C29.7416 12.5615 29.7415 12.5615 29.7415 12.5615V12.8115M29.7417 12.5615L29.7419 12.8115M29.7417 12.5615L29.7419 12.8115M29.7415 12.8115H29.7357L29.7356 12.5615C27.1921 12.5675 24.7006 13.2743 22.5413 14.6023C20.3802 15.9315 18.6376 17.8301 17.5094 20.0847M29.7415 12.8115C29.7416 12.8115 29.7418 12.8115 29.7419 12.8115M29.7415 12.8115C29.7397 12.8115 29.7379 12.8115 29.7361 12.8115L29.7357 12.5615L29.7419 12.8115M17.5094 20.0847C17.108 20.891 17.303 21.6142 18.0159 21.9277C18.8014 22.2752 19.3614 21.9315 19.7571 21.2441M17.5094 20.0847L17.733 20.1966C17.733 20.1965 17.7331 20.1964 17.7331 20.1963M17.5094 20.0847L17.7332 20.1961C17.7332 20.1962 17.7332 20.1962 17.7331 20.1963M19.7571 21.2441C19.8104 21.1506 19.8597 21.054 19.9089 20.9575C19.9601 20.8571 20.0111 20.7569 20.0667 20.6606M19.7571 21.2441L19.5404 21.1194C19.5403 21.1195 19.5402 21.1197 19.5402 21.1198M19.7571 21.2441L19.54 21.1201C19.54 21.12 19.5401 21.1199 19.5402 21.1198M20.0667 20.6606C21.2517 18.5926 23.0804 16.9575 25.2809 15.9982C27.4815 15.0388 29.9366 14.8064 32.2815 15.3355C37.0769 16.4685 40.3853 20.3113 40.8822 25.3437C41.318 29.7624 38.5543 34.2057 34.1259 36.1998M20.0667 20.6606L19.8501 20.5357C19.8501 20.5358 19.85 20.5359 19.8499 20.536M20.0667 20.6606L19.8498 20.5363C19.8498 20.5362 19.8499 20.5361 19.8499 20.536M34.1259 36.1998L34.2285 36.4277C34.2286 36.4277 34.2286 36.4277 34.2286 36.4277M34.1259 36.1998L34.2291 36.4275C34.2289 36.4276 34.2288 36.4276 34.2286 36.4277M34.2286 36.4277C38.7426 34.395 41.5785 29.8574 41.131 25.3192L41.131 25.3192C40.6239 20.1839 37.2417 16.2506 32.339 15.0922L32.339 15.0922L32.3366 15.0916C29.9398 14.5508 27.4304 14.7883 25.181 15.769C22.9317 16.7496 21.0619 18.4212 19.8499 20.536M34.2286 36.4277C33.7356 36.6513 33.4471 36.8816 33.3114 37.11C33.1867 37.3197 33.171 37.5621 33.3143 37.8821C33.4587 38.2044 33.6597 38.375 33.9107 38.4394C34.1756 38.5074 34.539 38.4681 35.0196 38.2721L35.0197 38.272C39.8901 36.2876 43.2389 31.3291 43.2277 26.1223V26.1217C43.2279 24.3727 42.8792 22.6408 42.2013 21.025C41.5234 19.4091 40.5296 17.941 39.2767 16.7046C38.0237 15.4682 36.5362 14.4879 34.8991 13.8198C33.2638 13.1525 31.5114 12.8099 29.7419 12.8115M19.8499 20.536C19.7918 20.6368 19.7388 20.7406 19.6891 20.8381L19.6874 20.8414C19.6374 20.9396 19.5905 21.0316 19.5402 21.1198M19.5402 21.1198C19.3565 21.4387 19.1517 21.6471 18.9308 21.7457C18.7194 21.84 18.4578 21.8498 18.117 21.6991L18.1165 21.6989C17.8214 21.5691 17.6517 21.3655 17.586 21.1251C17.5186 20.8787 17.552 20.5602 17.7331 20.1963M17.7331 20.1963C18.8403 17.9838 20.5507 16.1201 22.6722 14.8153C24.7939 13.5104 27.2423 12.8164 29.7419 12.8115" fill="url(#paint4_linear_1578_3542)" stroke="url(#paint5_linear_1578_3542)" stroke-width="0.5"/>
<defs>
<linearGradient id="paint0_linear_1578_3542" x1="6" y1="19.7134" x2="36.6929" y2="21.2237" gradientUnits="userSpaceOnUse">
<stop stop-color="#FCD878"/>
<stop offset="1" stop-color="#FFC62F"/>
</linearGradient>
<linearGradient id="paint1_linear_1578_3542" x1="6" y1="19.7134" x2="36.6929" y2="21.2237" gradientUnits="userSpaceOnUse">
<stop stop-color="#FCD878"/>
<stop offset="1" stop-color="#FFC62F"/>
</linearGradient>
<linearGradient id="paint2_linear_1578_3542" x1="11.5018" y1="7" x2="50.73" y2="8.87009" gradientUnits="userSpaceOnUse">
<stop stop-color="#FCD878"/>
<stop offset="1" stop-color="#FFC62F"/>
</linearGradient>
<linearGradient id="paint3_linear_1578_3542" x1="11.5018" y1="7" x2="50.73" y2="8.87009" gradientUnits="userSpaceOnUse">
<stop stop-color="#FCD878"/>
<stop offset="1" stop-color="#FFC62F"/>
</linearGradient>
<linearGradient id="paint4_linear_1578_3542" x1="17.3037" y1="12.5615" x2="44.6695" y2="13.8742" gradientUnits="userSpaceOnUse">
<stop stop-color="#FCD878"/>
<stop offset="1" stop-color="#FFC62F"/>
</linearGradient>
<linearGradient id="paint5_linear_1578_3542" x1="17.3037" y1="12.5615" x2="44.6695" y2="13.8742" gradientUnits="userSpaceOnUse">
<stop stop-color="#FCD878"/>
<stop offset="1" stop-color="#FFC62F"/>
</linearGradient>
</defs>
</svg>
