<svg width="329" height="329" viewBox="0 0 329 329" fill="none" xmlns="http://www.w3.org/2000/svg">
<path d="M199.857 264.648C198.584 267.806 197.356 271.315 196.479 274.518C195.689 277.544 195.207 280.264 195.382 282.238C195.601 284.475 197.356 286.274 199.593 286.449C208.805 287.327 232.23 288.906 232.844 286.318C233.853 281.975 227.931 278.466 223.764 276.36C221.79 275.395 220.298 273.772 219.421 271.842C218.939 270.789 218.631 269.605 218.588 268.42L199.857 264.648Z" fill="#FC6054"/>
<path d="M199.856 264.648C198.584 267.806 197.356 271.315 196.479 274.518C203.366 278.904 213.762 274.781 219.377 271.886C218.895 270.833 218.588 269.648 218.544 268.464L199.856 264.648Z" fill="#E64B38"/>
<path d="M217.798 285.177C211.613 285.177 203.98 284.651 197.4 282.677C197.181 282.589 197.049 282.37 197.093 282.15C197.181 281.931 197.4 281.799 197.619 281.843C211.218 285.967 229.51 283.686 229.686 283.686C229.949 283.642 230.124 283.817 230.168 284.081C230.212 284.3 230.037 284.519 229.774 284.563C229.774 284.563 224.641 285.177 217.798 285.177ZM220.956 276.579C220.825 276.579 220.693 276.535 220.605 276.404C220.474 276.228 220.518 275.921 220.693 275.79L222.667 274.386C222.843 274.254 223.15 274.298 223.281 274.474C223.413 274.649 223.369 274.956 223.194 275.088C221.176 276.492 221.22 276.579 220.956 276.579ZM222.272 277.895C222.141 277.72 222.185 277.413 222.36 277.281L224.334 275.877C224.51 275.746 224.817 275.79 224.948 275.965C225.08 276.141 225.036 276.448 224.86 276.579L222.886 277.983C222.667 278.115 222.404 278.071 222.272 277.895ZM218.938 274.869C218.807 274.693 218.851 274.386 219.026 274.254L221 272.851C221.176 272.719 221.483 272.763 221.614 272.938C221.746 273.114 221.702 273.421 221.527 273.553L219.553 274.956C219.377 275.132 219.07 275.088 218.938 274.869Z" fill="#112544"/>
<path d="M80.5393 254.251C78.0827 256.62 75.5384 259.34 73.4328 261.884C71.4588 264.297 69.9235 266.622 69.3094 268.464C68.5636 270.613 69.4849 272.938 71.415 274.035C79.4865 278.553 100.279 289.52 101.858 287.414C104.534 283.861 100.542 278.202 97.6034 274.649C96.1996 272.982 95.4539 270.877 95.4539 268.771C95.4539 267.587 95.6294 266.402 96.0681 265.306L80.5393 254.251Z" fill="#FC6054"/>
<path d="M80.5391 254.251C78.0826 256.62 75.5383 259.34 73.4327 261.884C77.951 268.683 89.137 269.122 95.4538 268.771C95.4538 267.587 95.6293 266.402 96.0679 265.306L80.5391 254.251Z" fill="#E64B38"/>
<path d="M99.8844 284.607C99.7089 284.563 81.899 279.124 70.9762 269.736C70.8008 269.561 70.7569 269.297 70.9324 269.122C71.1078 268.947 71.3711 268.903 71.5465 269.078C82.3377 278.334 99.9282 283.73 100.104 283.773C100.323 283.861 100.455 284.081 100.411 284.3C100.323 284.563 100.104 284.695 99.8844 284.607ZM94.7081 273.421C94.6642 273.202 94.7958 272.938 95.059 272.895L97.4279 272.412C97.6472 272.368 97.9104 272.5 97.9543 272.763C97.9981 272.982 97.8665 273.245 97.6033 273.289L95.2345 273.772C95.0152 273.772 94.752 273.64 94.7081 273.421ZM95.6293 275.439C95.5854 275.219 95.7171 274.956 95.9802 274.912L98.349 274.43C98.5684 274.386 98.8316 274.518 98.8754 274.781C98.9193 275.044 98.7877 275.263 98.5245 275.307L96.1557 275.79C95.8925 275.834 95.6732 275.702 95.6293 275.439ZM93.8308 271.359C93.7869 271.14 93.9185 270.877 94.1817 270.833L96.5505 270.35C96.7699 270.306 97.0331 270.438 97.0769 270.701C97.1208 270.921 96.9892 271.184 96.726 271.228L94.3572 271.71C94.094 271.754 93.8746 271.579 93.8308 271.359ZM134.627 53.7805H130.196C129.933 53.7805 129.758 53.6051 129.758 53.3419C129.758 53.0787 129.933 52.9032 130.196 52.9032H134.627C134.89 52.9032 135.065 53.0787 135.065 53.3419C135.065 53.6051 134.846 53.7805 134.627 53.7805Z" fill="#112544"/>
<path d="M223.194 262.41C222.448 266.358 221.921 268.771 221.921 268.771C220.474 271.315 193.32 269.034 193.32 266.753C194.154 246.092 201.216 228.019 192.969 214.991C187.574 206.437 176.476 206.305 165.465 197.268C161.824 204.243 152.612 221.702 147.699 227.843C138.575 239.205 102.472 267.016 102.472 267.016C98.0858 270.921 70.3182 259.603 73.6521 254.909C73.6521 254.909 111.86 222.316 117.431 207.095C126.117 183.363 138.619 164.193 151.647 154.06L176.125 157.832L186.126 159.368C186.126 159.368 187.969 160.771 190.864 163.096C200.909 171.168 223.676 190.469 227.361 201.523C231.616 214.376 225.913 248.241 223.194 262.41Z" fill="#8D95FF"/>
<path d="M223.194 262.41C222.448 266.358 221.921 268.771 221.921 268.771C220.474 271.315 193.32 269.034 193.32 266.753C194.154 246.092 201.216 228.019 192.969 214.991C187.574 206.437 176.476 206.305 165.465 197.268C167.527 199.637 180.424 146.909 189.416 153.27C192.311 155.069 192.136 160.245 190.908 163.184C190.82 163.447 190.688 163.667 190.557 163.886C189.021 166.606 186.433 168.58 183.977 170.466C181.476 172.396 178.976 174.414 177.616 177.265C175.642 181.389 176.695 186.521 179.239 190.337C181.783 194.154 185.556 196.961 189.416 199.462C193.277 201.962 197.225 204.331 200.471 207.621C204.901 212.139 207.621 218.324 207.928 224.641C208.235 230.826 206.349 236.88 205.998 243.065C205.647 249.25 207.358 256.225 212.666 259.34C215.517 261.007 218.895 261.314 222.097 262.103C222.448 262.191 222.799 262.279 223.194 262.41Z" fill="#757BFF"/>
<path d="M152.173 177.309C152.173 177.046 152.349 176.87 152.612 176.87C159.28 176.607 161.254 172.571 160.069 168.667C159.982 168.448 160.113 168.185 160.377 168.141C160.596 168.053 160.859 168.185 160.903 168.448C162.219 172.922 159.85 177.485 152.656 177.748C152.349 177.748 152.173 177.572 152.173 177.309Z" fill="#112544"/>
<path d="M151.34 172.922C153.446 174.107 157.218 178.143 156.692 180.862C156.209 183.275 152.393 179.064 152.393 179.064C152.393 179.064 154.367 186.872 152.875 187.705C152.042 188.188 150.199 185.117 149.849 181.433C149.849 181.433 150.77 188.539 149.191 188.89C147.26 189.329 147.304 182.31 147.304 182.31C147.304 182.31 147.918 189.109 146.12 189.241C144.365 189.372 145.199 181.301 145.199 181.301C145.199 181.301 144.979 187.618 143.444 187.442C142.172 187.267 142.303 180.775 142.479 178.537C142.611 175.949 143.707 168.667 151.34 172.922Z" fill="#FCBBA4"/>
<path d="M160.464 206.656C160.245 206.524 160.201 206.261 160.289 206.042C173.624 183.187 178.23 161.035 178.274 160.815C178.318 160.596 178.537 160.42 178.801 160.464C179.02 160.508 179.195 160.727 179.151 160.991C179.108 161.21 174.458 183.494 161.035 206.48C160.947 206.7 160.684 206.787 160.464 206.656Z" fill="#112544"/>
<path d="M187.705 210.209C185.337 208.586 182.573 207.314 179.59 205.954C175.16 203.936 170.159 201.655 165.202 197.575C165.026 197.444 164.982 197.137 165.158 196.961C165.29 196.786 165.597 196.742 165.772 196.917C170.641 200.909 175.598 203.19 179.985 205.164C182.968 206.524 185.819 207.84 188.232 209.463C188.451 209.595 188.495 209.858 188.363 210.077C188.188 210.297 187.925 210.341 187.705 210.209Z" fill="#112544"/>
<path d="M148.489 156.779C148.489 156.779 149.103 138.531 154.849 129.494C154.849 129.494 150.156 97.1647 179.985 99.7528C201.874 101.639 212.402 113.351 212.402 113.351C212.402 113.351 205.603 166.123 198.584 169.457C190.995 173.054 179.459 154.893 166.43 159.806C153.314 164.719 148.489 156.779 148.489 156.779Z" fill="#66D3D8"/>
<path d="M257.936 131.819C241.837 155.332 225.431 170.334 210.56 166.255C209.156 165.86 207.796 165.246 206.568 164.368C191.039 153.928 187.004 111.334 187.004 111.334L196.26 103.438C223.457 111.158 221.571 141.338 221.571 141.338C223.588 138.268 226.045 135.46 228.633 132.96C237.45 124.45 247.891 119.581 247.891 119.581L257.936 131.819Z" fill="#66D3D8"/>
<path d="M257.936 131.819C241.837 155.332 225.431 170.334 210.56 166.255C209.156 165.86 207.796 165.246 206.568 164.368C207.709 163.403 209.2 162.701 210.56 162.175C214.859 160.508 219.421 159.455 223.632 157.613C227.843 155.727 231.879 152.919 233.941 148.796C236.003 144.672 235.564 139.057 232.055 136.074C230.914 135.109 229.73 134.627 228.633 132.96C237.45 124.45 247.891 119.581 247.891 119.581L257.936 131.819Z" fill="#47B6C3"/>
<path d="M273.728 157.306C273.509 157.525 273.246 157.657 272.938 157.701C251.532 160.201 233.502 137.697 221.483 100.63C221.264 99.9283 221.702 99.1825 222.448 99.0509C234.994 96.8137 244.82 87.8211 247.584 85.0575C248.022 84.6188 248.724 84.5749 249.25 84.9697C256.532 90.8917 265.086 95.5855 274.825 99.0948C275.176 99.2264 275.439 99.4896 275.57 99.7967C284.124 122.388 286.844 142.698 273.728 157.306Z" fill="white"/>
<path d="M197.137 80.934L197.225 80.8901C197.4 80.8024 197.532 81.0217 197.356 81.1095C197.312 81.1095 197.312 81.1533 197.268 81.1533C197.093 81.2411 196.961 81.0217 197.137 80.934ZM193.54 81.7236C193.364 81.7236 193.189 81.6797 193.013 81.6797C192.926 81.6797 192.882 81.5481 192.926 81.4604C192.97 81.4165 193.013 81.4165 193.057 81.4165C193.233 81.4165 193.408 81.4604 193.584 81.4604C193.715 81.4604 193.715 81.7236 193.54 81.7236Z" fill="#FF987A"/>
<path d="M193.54 81.7236C193.452 81.7236 193.408 81.6359 193.408 81.592C193.408 81.5043 193.496 81.4604 193.54 81.4604C194.022 81.5043 194.286 81.5043 194.373 81.5043C194.549 81.5043 194.549 81.7675 194.373 81.7675C194.154 81.7675 193.847 81.7675 193.54 81.7236Z" fill="#FF987A"/>
<path d="M194.505 81.7675C194.329 81.7675 194.329 81.5043 194.505 81.5043C194.636 81.5043 194.812 81.5043 194.943 81.5043C195.031 81.5043 195.075 81.5481 195.075 81.6359C195.075 81.7236 195.031 81.7675 194.943 81.7675C194.812 81.7236 194.636 81.7675 194.505 81.7675Z" fill="#FF987A"/>
<path d="M180.204 101.815C180.95 102.867 182.003 104.315 183.407 105.499C187.311 108.877 193.408 107.122 194.943 102.209L196.742 96.4628C196.742 96.4628 201.567 97.6033 203.147 92.9973C203.585 91.7252 203.497 89.4441 203.059 86.856C202.927 85.8909 202.708 84.882 202.489 83.8292C202.006 81.4604 201.348 79.0039 200.69 76.8983C199.33 77.6001 197.312 77.8633 194.373 77.4247C194.373 77.4247 192.619 81.1533 187.398 78.7407C187.398 78.7407 190.206 84.3117 185.073 86.0664C184.152 86.3735 183.143 86.1541 182.134 85.6277C182.398 87.1631 182.968 87.7772 184.065 89.0055L179.809 98.5684C179.415 99.6212 179.546 100.849 180.204 101.815Z" fill="#FCBBA4"/>
<path d="M183.099 105.85C181.652 104.578 180.511 103.087 179.809 102.078C179.327 101.376 179.108 100.542 179.151 99.7089C179.151 99.4457 179.371 99.2703 179.634 99.3141C179.897 99.3141 180.073 99.5335 180.029 99.7967C179.985 100.455 180.16 101.069 180.555 101.595C181.213 102.56 182.31 104.008 183.67 105.192C187.223 108.263 192.706 106.859 194.373 102.56C194.461 102.341 194.724 102.209 194.943 102.297C195.163 102.385 195.294 102.648 195.207 102.867C193.32 107.693 187.179 109.36 183.099 105.85Z" fill="#112544"/>
<path d="M179.59 100.191C179.327 100.191 179.151 99.9721 179.195 99.7089C179.239 99.2264 179.327 98.7877 179.546 98.3491C179.634 98.1297 179.897 98.042 180.117 98.1297C180.336 98.2175 180.424 98.4807 180.336 98.7C180.204 99.0509 180.116 99.4019 180.073 99.7528C180.029 100.016 179.853 100.191 179.59 100.191ZM202.752 68.6075C203.892 71.4149 204.682 79.0477 194.417 77.4247C194.417 77.4247 192.662 81.1533 187.442 78.7407C187.442 78.7407 190.25 84.3117 185.117 86.0664C180.029 87.7772 171.519 73.5644 181.389 71.9413C181.389 71.9413 180.687 68.7829 184.196 69.8357C184.196 69.8357 185.337 63.2119 191.917 67.0283C191.917 67.0283 199.506 60.6237 202.752 68.6075Z" fill="#112544"/>
<path d="M201.83 80.7585C201.48 79.4425 201.129 78.1265 200.778 76.8983C202.62 75.9332 203.322 74.2224 203.454 72.5116C204.462 74.2224 206.349 78.302 201.83 80.7585ZM194.68 83.9169C194.812 84.4433 195.207 84.7504 195.601 84.6627C195.996 84.5749 196.172 84.0924 196.04 83.566C195.908 83.0835 195.514 82.7325 195.119 82.8203C194.768 82.9519 194.549 83.4344 194.68 83.9169ZM200.69 82.8203C200.822 83.3467 201.216 83.6537 201.611 83.566C202.006 83.4783 202.181 82.9957 202.05 82.4693C201.918 81.9868 201.523 81.6359 201.129 81.7236C200.734 81.8552 200.558 82.3377 200.69 82.8203ZM192.969 81.2849C192.618 81.5043 192.75 81.7675 193.145 81.8113C194.242 82.0307 195.382 81.7236 196.259 81.0656C196.566 80.8463 196.435 80.5392 196.084 80.4515C195.777 80.3637 195.382 80.4515 195.119 80.4953C194.373 80.6708 193.627 80.934 192.969 81.2849Z" fill="#112544"/>
<path d="M198.979 79.8373C198.672 80.0128 198.716 80.276 199.155 80.3637C200.251 80.5831 201.392 80.276 202.269 79.618C202.576 79.3987 202.445 79.0916 202.094 79.0039C201.787 78.9161 201.392 79.0039 201.129 79.0477C200.427 79.1793 199.681 79.4425 198.979 79.8373Z" fill="#112544"/>
<path d="M198.102 91.462C197.926 91.3304 197.883 91.0233 198.014 90.8479C198.146 90.6724 198.453 90.6285 198.628 90.7601C200.076 91.8568 200.953 90.9356 201.041 90.804C201.216 90.6285 201.48 90.5847 201.655 90.7601C201.831 90.9356 201.874 91.1988 201.699 91.3743C200.953 92.2955 199.506 92.5587 198.102 91.462Z" fill="#F97A5D"/>
<path d="M196.742 96.4628C196.742 96.4628 192.969 95.7609 189.636 92.8657C189.416 92.6464 189.065 92.9096 189.197 93.2167C189.943 95.0152 191.829 98.3052 195.821 99.4457L196.742 96.4628Z" fill="#E2805D"/>
<path d="M180.336 86.0225C180.906 88.2159 182.836 89.7512 184.591 89.4441C186.389 89.1371 187.355 87.0753 186.784 84.882C186.214 82.6887 184.284 81.1533 182.529 81.4604C180.775 81.7236 179.766 83.7853 180.336 86.0225Z" fill="#FCBBA4"/>
<path d="M183.538 86.3735L183.099 85.54C182.968 85.3207 183.056 85.0575 183.275 84.9259C183.494 84.7943 183.757 84.882 183.889 85.1013L184.328 85.9348C184.459 86.1541 184.372 86.4173 184.152 86.5489C183.933 86.6367 183.67 86.5489 183.538 86.3735ZM198.672 87.2069C198.672 86.9437 198.848 86.7683 199.067 86.7244C199.111 86.7244 200.032 86.6367 200.076 86.5928C200.251 86.1541 199.198 84.4872 198.19 83.3028C198.014 83.1273 198.058 82.8203 198.233 82.6887C198.409 82.5132 198.716 82.5571 198.848 82.7325C199.418 83.4344 201.304 85.7593 200.865 86.8999C200.778 87.0753 200.602 87.4263 200.076 87.514C199.725 87.5579 199.418 87.6017 199.111 87.6456C198.891 87.6456 198.672 87.4263 198.672 87.2069Z" fill="#F97A5D"/>
<path d="M221.044 100.762C220.737 99.7967 221.351 98.7877 222.36 98.6123C234.774 96.3751 244.557 87.4263 247.233 84.7504C247.847 84.1363 248.812 84.0924 249.47 84.6627C256.576 90.4531 265.13 95.1907 274.912 98.7C275.395 98.8755 275.746 99.2264 275.921 99.6651C280.703 112.255 283.115 122.651 283.203 131.556C283.335 142.084 280.308 150.638 274.035 157.613C273.772 157.92 273.377 158.095 272.982 158.139C246.136 161.298 229.379 126.468 221.044 100.762ZM247.847 85.3645C245.083 88.0843 235.169 97.2085 222.492 99.4896C222.009 99.5773 221.702 100.06 221.878 100.499C230.081 125.81 246.575 160.333 272.851 157.262C273.158 157.218 273.333 157.043 273.377 156.999C284.782 144.277 285.309 126.687 275.088 99.9283C275 99.7089 274.825 99.5335 274.605 99.4457C264.735 95.8925 256.094 91.1111 248.899 85.2768C248.592 85.0575 248.154 85.0575 247.847 85.3645Z" fill="#112544"/>
<path d="M146.383 61.6765V138.926C146.383 143.751 142.479 147.699 137.61 147.699H54.965C50.1397 147.699 46.1917 143.795 46.1917 138.926V61.6765H146.383Z" fill="white"/>
<path d="M145.813 109.447C146.076 107.605 146.252 105.806 146.383 103.964V138.926C146.383 143.751 142.479 147.699 137.61 147.699H54.965C52.6839 147.699 50.5783 146.822 49.043 145.374C68.9584 143.093 89.4003 148.664 109.272 145.418C119.668 143.707 130.021 139.321 136.732 131.381C141.953 125.239 144.716 117.343 145.813 109.447Z" fill="#E1E5FF"/>
<path d="M146.383 61.6765V54.3947C146.383 49.5693 142.479 45.6213 137.61 45.6213H54.965C50.1397 45.6213 46.1917 49.5255 46.1917 54.3947V61.6765H146.383Z" fill="#FFC25E"/>
<path d="M146.383 54.3947V61.6765H46.2355V58.7813H138.926C141.47 58.7813 143.532 56.7196 143.532 54.1753V51.4556C143.532 49.7887 143.049 48.2095 142.26 46.8935C144.716 48.4727 146.383 51.2363 146.383 54.3947Z" fill="#EFA130"/>
<path d="M137.61 148.138H54.9649C49.8764 148.138 45.7529 144.014 45.7529 138.926V61.6765C45.7529 61.4133 45.9284 61.2379 46.1916 61.2379H146.339C146.602 61.2379 146.778 61.4133 146.778 61.6765V138.926C146.822 144.014 142.698 148.138 137.61 148.138ZM46.6741 62.1152V138.926C46.6741 143.532 50.4028 147.26 55.0088 147.26H137.654C142.26 147.26 145.988 143.532 145.988 138.926V62.1152H46.6741Z" fill="#112544"/>
<path d="M114.185 87.6456C114.185 97.5156 106.201 105.499 96.3312 105.499C86.4612 105.499 78.4774 97.5156 78.4774 87.6456C78.4774 77.7756 86.4612 69.7919 96.3312 69.7919C106.157 69.7919 114.185 77.7756 114.185 87.6456Z" fill="#E1E5FF"/>
<path d="M114.185 87.6456C114.185 97.5156 106.201 105.499 96.3312 105.499C91.4182 105.499 86.9438 103.525 83.6976 100.279C86.3735 101.902 89.5319 102.823 92.8658 102.823C102.736 102.823 110.719 94.8397 110.719 84.9697C110.719 80.0128 108.702 75.5384 105.455 72.3361C110.676 75.4507 114.185 81.1095 114.185 87.6456Z" fill="#CCD2FF"/>
<path d="M124.23 115.633V122.563C124.23 123.572 123.397 124.406 122.388 124.406H70.2306C69.2217 124.406 68.3882 123.572 68.3882 122.563V115.633C68.3882 114.624 69.2217 113.79 70.2306 113.79H122.344C123.397 113.79 124.23 114.624 124.23 115.633Z" fill="#E1E5FF"/>
<path d="M124.23 115.633V122.563C124.23 123.616 123.397 124.406 122.388 124.406H70.2306C69.2217 124.406 68.3882 123.572 68.3882 122.563C68.4759 122.563 68.5198 122.563 68.6075 122.563H120.721C121.73 122.563 122.564 121.73 122.564 120.721V113.79C123.529 113.922 124.23 114.711 124.23 115.633Z" fill="#CCD2FF"/>
<path d="M146.383 62.1152H46.2354C45.9722 62.1152 45.7968 61.9397 45.7968 61.6765V54.3947C45.7968 49.3061 49.9202 45.1827 55.0088 45.1827H137.654C142.742 45.1827 146.866 49.3061 146.866 54.3947V61.6765C146.822 61.8959 146.646 62.1152 146.383 62.1152ZM46.6741 61.2379H145.944V54.3947C145.944 49.7887 142.216 46.06 137.61 46.06H54.9649C50.3589 46.06 46.6302 49.7887 46.6302 54.3947V61.2379H46.6741Z" fill="#112544"/>
<path d="M54.5701 56.5003C55.733 56.5003 56.6757 55.5576 56.6757 54.3947C56.6757 53.2318 55.733 52.2891 54.5701 52.2891C53.4072 52.2891 52.4645 53.2318 52.4645 54.3947C52.4645 55.5576 53.4072 56.5003 54.5701 56.5003Z" fill="white"/>
<path d="M62.2907 56.5003C63.4536 56.5003 64.3963 55.5576 64.3963 54.3947C64.3963 53.2318 63.4536 52.2891 62.2907 52.2891C61.1278 52.2891 60.1851 53.2318 60.1851 54.3947C60.1851 55.5576 61.1278 56.5003 62.2907 56.5003Z" fill="white"/>
<path d="M70.0112 56.5003C71.1741 56.5003 72.1168 55.5576 72.1168 54.3947C72.1168 53.2318 71.1741 52.2891 70.0112 52.2891C68.8484 52.2891 67.9056 53.2318 67.9056 54.3947C67.9056 55.5576 68.8484 56.5003 70.0112 56.5003Z" fill="white"/>
<path d="M56.6757 54.3947C56.6757 55.5791 55.7107 56.5003 54.5701 56.5003C53.6928 56.5003 52.9471 55.9739 52.64 55.2281C54.3508 55.9739 56.1493 54.1753 55.4036 52.4207C56.1493 52.7716 56.6757 53.5173 56.6757 54.3947ZM64.3963 54.3947C64.3963 55.5791 63.4312 56.5003 62.2907 56.5003C61.4133 56.5003 60.6676 55.9739 60.3606 55.2281C62.1591 55.9739 63.8699 54.1315 63.1241 52.4207C63.8699 52.7716 64.3963 53.5173 64.3963 54.3947ZM72.1168 54.3947C72.1168 55.5791 71.1518 56.5003 70.0112 56.5003C69.1339 56.5003 68.3881 55.9739 68.0811 55.2281C69.7919 55.9739 71.6343 54.1753 70.8447 52.4207C71.5904 52.7716 72.1168 53.5173 72.1168 54.3947Z" fill="#E1E5FF"/>
<path d="M54.5701 56.9828C53.1664 56.9828 52.0259 55.8423 52.0259 54.4385C52.0259 53.0348 53.1664 51.8943 54.5701 51.8943C55.9739 51.8943 57.1144 53.0348 57.1144 54.4385C57.1144 55.8423 55.9739 56.9828 54.5701 56.9828ZM54.5701 52.7277C53.6489 52.7277 52.9032 53.4735 52.9032 54.3947C52.9032 55.3159 53.6489 56.0616 54.5701 56.0616C55.4913 56.0616 56.2371 55.3159 56.2371 54.3947C56.2371 53.4735 55.4913 52.7277 54.5701 52.7277ZM62.2907 56.9828C60.8869 56.9828 59.7464 55.8423 59.7464 54.4385C59.7464 53.0348 60.8869 51.8943 62.2907 51.8943C63.6944 51.8943 64.8349 53.0348 64.8349 54.4385C64.8349 55.8423 63.6944 56.9828 62.2907 56.9828ZM62.2907 52.7277C61.3695 52.7277 60.6237 53.4735 60.6237 54.3947C60.6237 55.3159 61.3695 56.0616 62.2907 56.0616C63.2119 56.0616 63.9576 55.3159 63.9576 54.3947C63.9576 53.4735 63.2119 52.7277 62.2907 52.7277ZM70.0112 56.9828C68.6075 56.9828 67.4669 55.8423 67.4669 54.4385C67.4669 53.0348 68.6075 51.8943 70.0112 51.8943C71.4149 51.8943 72.5555 53.0348 72.5555 54.4385C72.5555 55.8423 71.4149 56.9828 70.0112 56.9828ZM70.0112 52.7277C69.09 52.7277 68.3443 53.4735 68.3443 54.3947C68.3443 55.3159 69.09 56.0616 70.0112 56.0616C70.9324 56.0616 71.6781 55.3159 71.6781 54.3947C71.6781 53.4735 70.9324 52.7277 70.0112 52.7277Z" fill="#112544"/>
<path d="M108.658 132.828V139.759C108.658 140.768 107.824 141.602 106.815 141.602H85.8032C84.7943 141.602 83.9608 140.768 83.9608 139.759V132.828C83.9608 131.819 84.7943 130.986 85.8032 130.986H106.815C107.824 130.986 108.658 131.819 108.658 132.828Z" fill="#FC6054"/>
<path d="M108.658 132.828V139.759C108.658 140.812 107.824 141.602 106.815 141.602H85.8032C84.7943 141.602 83.9608 140.768 83.9608 139.759H104.973C105.982 139.759 106.815 138.926 106.815 137.917V130.986C107.868 130.986 108.658 131.819 108.658 132.828Z" fill="#E64B38"/>
<path d="M122.344 124.888H70.2305C68.9584 124.888 67.9495 123.836 67.9495 122.607V115.676C67.9495 114.404 69.0023 113.395 70.2305 113.395H122.344C123.616 113.395 124.625 114.448 124.625 115.676V122.607C124.669 123.836 123.616 124.888 122.344 124.888ZM70.2305 114.229C69.4409 114.229 68.8268 114.887 68.8268 115.633V122.563C68.8268 123.353 69.4848 123.967 70.2305 123.967H122.344C123.134 123.967 123.748 123.309 123.748 122.563V115.633C123.748 114.843 123.09 114.229 122.344 114.229H70.2305Z" fill="#112544"/>
<path d="M77.0299 119.098C77.0299 120.107 76.1964 120.94 75.1875 120.94C74.1786 120.94 73.3451 120.107 73.3451 119.098C73.3451 118.089 74.1786 117.256 75.1875 117.256C76.1964 117.256 77.0299 118.089 77.0299 119.098Z" fill="white"/>
<path d="M75.1874 121.379C73.9153 121.379 72.9064 120.37 72.9064 119.098C72.9064 117.826 73.9153 116.817 75.1874 116.817C76.4596 116.817 77.4685 117.826 77.4685 119.098C77.4685 120.37 76.4596 121.379 75.1874 121.379ZM75.1874 117.694C74.3978 117.694 73.7837 118.308 73.7837 119.098C73.7837 119.888 74.3978 120.502 75.1874 120.502C75.977 120.502 76.5912 119.888 76.5912 119.098C76.5912 118.308 75.977 117.694 75.1874 117.694Z" fill="#112544"/>
<path d="M84.0924 119.098C84.0924 120.107 83.2589 120.94 82.25 120.94C81.2411 120.94 80.4076 120.107 80.4076 119.098C80.4076 118.089 81.2411 117.256 82.25 117.256C83.2589 117.256 84.0924 118.089 84.0924 119.098Z" fill="white"/>
<path d="M82.2061 121.379C80.934 121.379 79.925 120.37 79.925 119.098C79.925 117.826 80.934 116.817 82.2061 116.817C83.4782 116.817 84.4872 117.826 84.4872 119.098C84.5311 120.37 83.4782 121.379 82.2061 121.379ZM82.2061 117.694C81.4165 117.694 80.8024 118.308 80.8024 119.098C80.8024 119.888 81.4165 120.502 82.2061 120.502C82.9957 120.502 83.6099 119.888 83.6099 119.098C83.6537 118.308 82.9957 117.694 82.2061 117.694Z" fill="#112544"/>
<path d="M91.1111 119.098C91.1111 120.107 90.2776 120.94 89.2687 120.94C88.2597 120.94 87.4263 120.107 87.4263 119.098C87.4263 118.089 88.2597 117.256 89.2687 117.256C90.2776 117.256 91.1111 118.089 91.1111 119.098Z" fill="white"/>
<path d="M89.2686 121.379C87.9965 121.379 86.9875 120.37 86.9875 119.098C86.9875 117.826 87.9965 116.817 89.2686 116.817C90.5407 116.817 91.5497 117.826 91.5497 119.098C91.5497 120.37 90.5407 121.379 89.2686 121.379ZM89.2686 117.694C88.479 117.694 87.8649 118.308 87.8649 119.098C87.8649 119.888 88.479 120.502 89.2686 120.502C90.0582 120.502 90.6723 119.888 90.6723 119.098C90.6723 118.308 90.0582 117.694 89.2686 117.694Z" fill="#112544"/>
<path d="M98.1297 119.098C98.1297 120.107 97.2963 120.94 96.2873 120.94C95.2784 120.94 94.4449 120.107 94.4449 119.098C94.4449 118.089 95.2784 117.256 96.2873 117.256C97.3401 117.256 98.1297 118.089 98.1297 119.098Z" fill="white"/>
<path d="M96.2873 121.379C95.0152 121.379 94.0062 120.37 94.0062 119.098C94.0062 117.826 95.0152 116.817 96.2873 116.817C97.5594 116.817 98.5684 117.826 98.5684 119.098C98.5684 120.37 97.5594 121.379 96.2873 121.379ZM96.2873 117.694C95.4977 117.694 94.8836 118.308 94.8836 119.098C94.8836 119.888 95.4977 120.502 96.2873 120.502C97.0769 120.502 97.691 119.888 97.691 119.098C97.691 118.308 97.0769 117.694 96.2873 117.694Z" fill="#112544"/>
<path d="M105.192 119.098C105.192 120.107 104.359 120.94 103.35 120.94C102.341 120.94 101.507 120.107 101.507 119.098C101.507 118.089 102.341 117.256 103.35 117.256C104.359 117.256 105.192 118.089 105.192 119.098Z" fill="white"/>
<path d="M103.35 121.379C102.078 121.379 101.069 120.37 101.069 119.098C101.069 117.826 102.078 116.817 103.35 116.817C104.622 116.817 105.631 117.826 105.631 119.098C105.631 120.37 104.622 121.379 103.35 121.379ZM103.35 117.694C102.56 117.694 101.946 118.308 101.946 119.098C101.946 119.888 102.56 120.502 103.35 120.502C104.14 120.502 104.754 119.888 104.754 119.098C104.754 118.308 104.14 117.694 103.35 117.694Z" fill="#112544"/>
<path d="M112.211 119.098C112.211 120.107 111.377 120.94 110.369 120.94C109.36 120.94 108.526 120.107 108.526 119.098C108.526 118.089 109.36 117.256 110.369 117.256C111.421 117.256 112.211 118.089 112.211 119.098Z" fill="white"/>
<path d="M110.368 121.379C109.096 121.379 108.087 120.37 108.087 119.098C108.087 117.826 109.096 116.817 110.368 116.817C111.641 116.817 112.65 117.826 112.65 119.098C112.65 120.37 111.641 121.379 110.368 121.379ZM110.368 117.694C109.579 117.694 108.965 118.308 108.965 119.098C108.965 119.888 109.579 120.502 110.368 120.502C111.158 120.502 111.772 119.888 111.772 119.098C111.772 118.308 111.158 117.694 110.368 117.694Z" fill="#112544"/>
<path d="M119.274 119.098C119.274 120.107 118.44 120.94 117.431 120.94C116.422 120.94 115.589 120.107 115.589 119.098C115.589 118.089 116.422 117.256 117.431 117.256C118.44 117.256 119.274 118.089 119.274 119.098Z" fill="white"/>
<path d="M117.431 121.379C116.159 121.379 115.15 120.37 115.15 119.098C115.15 117.826 116.159 116.817 117.431 116.817C118.703 116.817 119.712 117.826 119.712 119.098C119.712 120.37 118.703 121.379 117.431 121.379ZM117.431 117.694C116.641 117.694 116.027 118.308 116.027 119.098C116.027 119.888 116.641 120.502 117.431 120.502C118.221 120.502 118.835 119.888 118.835 119.098C118.835 118.308 118.177 117.694 117.431 117.694Z" fill="#112544"/>
<path d="M106.815 142.084H85.8032C84.531 142.084 83.5221 141.031 83.5221 139.803V132.872C83.5221 131.6 84.5749 130.591 85.8032 130.591H106.815C108.087 130.591 109.096 131.644 109.096 132.872V139.803C109.096 141.031 108.087 142.084 106.815 142.084ZM85.8032 131.425C85.0136 131.425 84.3994 132.083 84.3994 132.828V139.759C84.3994 140.549 85.0574 141.163 85.8032 141.163H106.815C107.605 141.163 108.219 140.505 108.219 139.759V132.828C108.219 132.039 107.561 131.425 106.815 131.425H85.8032Z" fill="#112544"/>
<path d="M108 101.157C99.8406 108.263 87.2509 106.508 81.3289 97.384C84.0486 96.5944 87.0315 96.2873 90.3654 96.5067C90.4531 96.5067 90.5409 96.5067 90.5847 96.5067C94.8398 96.6821 98.4369 97.4717 101.42 98.4807C104.008 99.0948 106.157 100.016 108 101.157Z" fill="#8D95FF"/>
<path d="M101.332 83.8292C101.288 83.7853 101.332 83.6976 101.376 83.6537L101.42 83.6099C101.464 83.566 101.551 83.6099 101.595 83.6537C101.639 83.6976 101.639 83.7415 101.639 83.7415C101.595 83.8731 101.376 83.9608 101.332 83.8292ZM99.051 84.3117C98.9194 84.3117 98.8316 84.3117 98.7 84.3117C98.6123 84.3117 98.5684 84.224 98.6123 84.1363C98.6562 84.0924 98.7 84.0485 98.7439 84.0485C98.8755 84.0485 98.9632 84.0485 99.0948 84.0485C99.2264 84.0924 99.2264 84.3117 99.051 84.3117Z" fill="#FF987A"/>
<path d="M99.2704 84.3556C99.1388 84.3556 99.0949 84.3556 99.051 84.3556C98.9633 84.3556 98.9194 84.3117 98.9194 84.224C98.9194 84.1363 98.9633 84.0924 99.051 84.0924C99.2265 84.0924 99.4458 84.0924 99.6213 84.0924C99.7968 84.0924 99.7968 84.3556 99.6213 84.3556C99.4897 84.3117 99.402 84.3556 99.2704 84.3556Z" fill="#FF987A"/>
<path d="M99.709 84.3117C99.5335 84.3117 99.5335 84.0485 99.709 84.0485C99.7967 84.0485 99.8845 84.0485 100.016 84.0047C100.104 84.0047 100.148 84.0485 100.148 84.1363C100.148 84.224 100.104 84.2679 100.016 84.2679C99.8845 84.3117 99.7967 84.3117 99.709 84.3117Z" fill="#FF987A"/>
<path d="M90.804 97.8665C91.3304 98.5684 92.0762 99.4457 92.9974 100.191C95.6732 102.297 99.6212 101.025 100.499 97.7349L101.551 93.9185C101.551 93.9185 104.754 94.5327 105.675 91.462C105.938 90.5847 105.806 89.0932 105.455 87.4263C105.324 86.8121 105.192 86.1103 105.017 85.4523C104.622 83.9169 104.139 82.3377 103.657 80.934C102.78 81.4165 101.464 81.6797 99.5335 81.4604C99.5335 81.4604 98.4807 83.9608 94.9714 82.5132C94.9714 82.5132 96.9454 86.1103 93.6554 87.3824C93.0851 87.6017 92.3832 87.514 91.7252 87.1631C91.9446 88.172 92.3394 88.5668 93.0851 89.3125L90.5408 95.7171C90.2337 96.4189 90.3215 97.2524 90.804 97.8665Z" fill="#FCBBA4"/>
<path d="M92.7342 100.586C91.9446 99.9283 91.1551 99.1387 90.4532 98.1736C90.1023 97.6911 89.9268 97.1208 89.9268 96.5505C89.9268 96.2873 90.1461 96.1119 90.3655 96.1119C90.6287 96.1119 90.8041 96.3312 90.8041 96.5505C90.8041 96.9453 90.9357 97.3401 91.1551 97.6472C91.5937 98.2613 92.3395 99.1825 93.3045 99.9283C95.6295 101.771 99.0072 100.762 100.016 98.0859C100.104 97.8665 100.367 97.7349 100.586 97.8227C100.806 97.9104 100.937 98.1736 100.85 98.3929C99.6213 101.551 95.5417 102.78 92.7342 100.586ZM104.798 75.4068C105.631 77.2053 106.333 82.25 99.5336 81.4165C99.5336 81.4165 98.4808 83.9169 94.9715 82.4693C94.9715 82.4693 96.9455 86.0664 93.6555 87.3385C90.3655 88.6107 84.3557 79.4864 90.8041 78.1265C90.8041 78.1265 90.2777 76.0648 92.6027 76.6789C92.6027 76.6789 93.1729 72.2923 97.6035 74.6172C97.6035 74.6611 102.429 70.2305 104.798 75.4068Z" fill="#112544"/>
<path d="M104.491 83.4344C104.227 82.5571 103.964 81.7236 103.701 80.934C104.885 80.276 105.324 79.0916 105.324 77.9511C106.07 79.0477 107.43 81.7236 104.491 83.4344ZM99.8845 85.7155C99.9722 86.0664 100.279 86.2419 100.499 86.198C100.762 86.1103 100.85 85.8032 100.762 85.4523C100.674 85.1452 100.367 84.9259 100.148 84.9697C99.8845 85.0575 99.7968 85.3645 99.8845 85.7155ZM103.789 84.8381C103.876 85.1891 104.183 85.3645 104.403 85.3207C104.666 85.2329 104.754 84.9259 104.666 84.5749C104.578 84.2679 104.271 84.0485 104.052 84.0924C103.789 84.1801 103.701 84.4872 103.789 84.8381ZM98.6562 84.0047C98.4369 84.1363 98.4808 84.3117 98.7878 84.3556C99.4897 84.4433 100.279 84.2679 100.806 83.7853C100.981 83.6099 100.893 83.4344 100.674 83.3905C100.499 83.3467 100.235 83.4344 100.06 83.4344C99.5775 83.566 99.0949 83.7415 98.6562 84.0047Z" fill="#112544"/>
<path d="M102.604 82.908C102.385 83.0396 102.429 83.2151 102.736 83.2589C103.438 83.3467 104.227 83.1712 104.754 82.6887C104.929 82.5132 104.841 82.3377 104.622 82.2939C104.447 82.25 104.183 82.3377 104.008 82.3377C103.525 82.4255 103.043 82.6448 102.604 82.908Z" fill="#112544"/>
<path d="M102.209 90.7163C101.99 90.5847 101.946 90.3215 102.122 90.1021C102.253 89.8828 102.516 89.8389 102.736 90.0144C103.613 90.6285 104.052 90.1021 104.096 90.0144C104.227 89.8389 104.534 89.7951 104.71 89.9267C104.885 90.0583 104.929 90.3653 104.798 90.5408C104.271 91.1988 103.262 91.4181 102.209 90.7163ZM101.551 93.9185C101.551 93.9185 99.051 93.5676 96.7699 91.7252C96.5944 91.5936 96.3751 91.7691 96.4628 91.9445C96.9892 93.0851 98.3052 95.2345 100.981 95.8487L101.551 93.9185Z" fill="#E2805D"/>
<path d="M90.497 87.4701C90.9357 88.9177 92.2078 89.8828 93.3922 89.6196C94.5766 89.3564 95.1469 87.9965 94.7082 86.5489C94.2695 85.1013 92.9974 84.1363 91.813 84.3995C90.6725 84.6188 90.0583 86.0225 90.497 87.4701Z" fill="#FCBBA4"/>
<path d="M92.471 87.6895L92.164 87.1631C92.0324 86.9437 92.1201 86.6805 92.2955 86.5489C92.5149 86.4173 92.7781 86.5051 92.9097 86.6805L93.2167 87.2069C93.3483 87.4263 93.2606 87.6895 93.0851 87.8211C92.8658 87.9527 92.6026 87.8649 92.471 87.6895ZM102.429 87.7772C102.385 87.5579 102.56 87.3385 102.824 87.2947C102.999 87.2947 103.174 87.2508 103.35 87.2069C103.306 86.856 102.736 86.0225 102.078 85.2768C101.902 85.1013 101.946 84.8381 102.122 84.6627C102.297 84.4872 102.56 84.5311 102.736 84.7065C103.262 85.2768 104.49 86.7244 104.227 87.5579C104.183 87.7333 104.008 87.9965 103.613 88.0843C103.394 88.1281 103.174 88.172 102.955 88.172C102.692 88.172 102.473 88.0404 102.429 87.7772Z" fill="#E2805D"/>
<path d="M96.2874 105.938C86.1981 105.938 77.995 97.7349 77.995 87.6456C77.995 77.5563 86.1981 69.3532 96.2874 69.3532C106.377 69.3532 114.58 77.5563 114.58 87.6456C114.624 97.7349 106.377 105.938 96.2874 105.938ZM96.2874 70.2305C86.6806 70.2305 78.8723 78.0388 78.8723 87.6456C78.8723 97.2524 86.6806 105.061 96.2874 105.061C105.894 105.061 113.702 97.2524 113.702 87.6456C113.746 78.0388 105.894 70.2305 96.2874 70.2305Z" fill="#112544"/>
<path d="M186.082 165.728C180.204 161.912 173.58 157.613 166.562 160.245C163.052 161.561 159.806 162.087 156.867 161.78C156.648 161.736 156.429 161.561 156.472 161.298C156.516 161.078 156.692 160.903 156.955 160.903C159.719 161.166 162.833 160.684 166.255 159.411C173.712 156.604 180.555 161.035 186.565 164.983C191.215 168.009 195.207 170.597 198.365 169.106C201.874 167.439 206.305 150.901 210.472 123.792C210.516 123.572 210.736 123.397 210.955 123.441C211.174 123.485 211.35 123.704 211.306 123.923C208.279 143.619 203.629 167.527 198.716 169.896C194.856 171.738 190.03 168.273 186.082 165.728Z" fill="#112544"/>
<path d="M164.719 113.308C166.737 130.459 154.411 138.092 154.411 138.092C157.525 144.321 157.218 157.35 156.604 166.167C156.209 171.343 155.727 175.028 155.727 175.028C149.892 172.571 145.111 173.317 141.119 176.695C136.381 162.965 135.022 150.55 135.285 141.163C135.46 135.065 136.381 130.284 137.522 127.213C142.874 113.044 155.858 97.1208 178.757 99.6651L164.719 113.308Z" fill="#66D3D8"/>
<path d="M156.604 166.211C156.209 171.387 155.727 175.072 155.727 175.072C149.892 172.615 145.111 173.361 141.119 176.739C136.381 163.009 135.022 150.594 135.285 141.207C135.592 141.163 135.899 141.163 136.206 141.251C137.654 141.645 138.18 143.312 138.487 144.76C139.671 150.726 140.154 156.779 139.935 162.833C139.891 164.281 139.803 165.816 140.329 167.176C140.856 168.536 142.172 169.72 143.619 169.589C145.944 169.325 146.778 166.255 148.752 165.026C150.112 164.193 151.866 164.325 153.402 164.851C154.498 165.202 155.507 165.728 156.604 166.211Z" fill="#47B6C3"/>
<path d="M141.119 177.177C140.988 177.177 140.856 177.134 140.768 177.002C140.593 176.827 140.637 176.519 140.812 176.388C144.936 172.879 149.805 172.264 155.376 174.414C155.858 170.466 158.446 147.129 154.016 138.268C153.928 138.048 153.972 137.829 154.191 137.697C154.323 137.61 166.255 129.977 164.281 113.351C164.237 113.132 164.412 112.913 164.676 112.869C164.939 112.825 165.114 113.001 165.158 113.264C167 128.88 156.955 136.864 154.981 138.268C159.675 148.401 156.297 174.019 156.165 175.16C156.165 175.291 156.078 175.423 155.946 175.467C155.814 175.554 155.683 175.554 155.551 175.511C150.068 173.186 145.418 173.712 141.382 177.09C141.295 177.134 141.207 177.177 141.119 177.177Z" fill="#112544"/>
<path d="M273.202 118.265C275.263 127.126 269.692 134.32 260.831 134.32C255.787 134.32 250.742 131.995 246.969 128.354C250.435 130.942 254.558 132.521 258.726 132.521C267.587 132.521 273.114 125.327 271.096 116.466C270.219 112.65 268.069 109.14 265.218 106.377C269.122 109.316 272.105 113.527 273.202 118.265Z" fill="#E1E5FF"/>
<path d="M260.831 134.758C251.795 134.758 242.758 127.389 240.653 118.352C238.547 109.14 244.337 101.771 253.462 101.771C262.498 101.771 271.579 109.14 273.64 118.177C275.746 127.389 269.956 134.758 260.831 134.758ZM253.462 102.648C244.908 102.648 239.556 109.535 241.53 118.177C243.504 126.862 252.19 133.881 260.831 133.881C269.385 133.881 274.781 127.038 272.763 118.352C270.789 109.667 262.103 102.648 253.462 102.648Z" fill="#112544"/>
<path d="M267.982 118.265C269.341 124.23 265.613 129.1 259.647 129.1C253.681 129.1 247.715 124.274 246.355 118.265C244.995 112.299 248.724 107.429 254.69 107.429C260.656 107.429 266.578 112.255 267.982 118.265Z" fill="#66D3D8"/>
<path d="M267.982 118.265C269.341 124.23 265.613 129.1 259.647 129.1C255.611 129.1 251.575 126.906 248.987 123.616C259.34 133.881 273.509 123.397 264.209 111.641C266.008 113.439 267.411 115.764 267.982 118.265Z" fill="#47B6C3"/>
<path d="M254.865 120.765L252.584 118.001C252.058 117.387 252.102 116.598 252.628 116.247C253.155 115.896 253.988 116.071 254.515 116.685L255.831 118.265L259.252 115.413C259.735 115.018 260.568 115.15 261.095 115.72C261.621 116.291 261.665 117.08 261.182 117.519L256.839 121.204C256.269 121.598 255.348 121.335 254.865 120.765Z" fill="white"/>
<path d="M236.397 69.7041L226.966 57.5969C226.835 57.4215 226.835 57.1144 227.054 56.9828C227.229 56.8512 227.536 56.8512 227.668 57.0705L237.099 69.1777C237.231 69.3532 237.231 69.6603 237.012 69.7919C236.836 69.9235 236.573 69.8796 236.397 69.7041ZM242.188 77.1176L239.863 74.1347C239.731 73.9592 239.731 73.6521 239.951 73.5205C240.126 73.3889 240.433 73.3889 240.565 73.6083L242.89 76.5912C243.021 76.7667 243.021 77.0737 242.802 77.2053C242.627 77.3369 242.319 77.2931 242.188 77.1176ZM219.904 80.7147L218.544 80.4076C218.324 80.3637 218.149 80.1005 218.193 79.8812C218.237 79.6619 218.5 79.4864 218.719 79.5741L220.079 79.8812C220.298 79.9251 220.474 80.1883 220.43 80.4076C220.386 80.6269 220.123 80.8024 219.904 80.7147ZM237.626 84.8381L223.72 81.592C223.501 81.5481 223.325 81.2849 223.413 81.0656C223.457 80.8463 223.72 80.6708 223.939 80.7585L237.845 83.9608C238.064 84.0047 238.24 84.2679 238.152 84.4872C238.108 84.7504 237.845 84.882 237.626 84.8381ZM251.356 59.4832C251.137 59.4393 250.961 59.22 250.961 59.0007L251.224 57.0267C251.268 56.8073 251.488 56.6319 251.707 56.6319C251.926 56.6757 252.102 56.8951 252.102 57.1144L251.839 59.0884C251.839 59.3516 251.619 59.5271 251.356 59.4832ZM249.25 75.8893C249.031 75.8455 248.856 75.6261 248.856 75.4068L250.215 64.7911C250.259 64.5717 250.479 64.3963 250.698 64.3963C250.917 64.4401 251.093 64.6595 251.093 64.8788L249.733 75.4945C249.689 75.7577 249.47 75.9332 249.25 75.8893Z" fill="#CCD2FF"/>
<path d="M89.2249 203.673C89.2249 207.84 91.4621 211.262 90.9795 215.517C90.5409 219.465 87.5141 223.676 83.6099 225.782C78.8285 228.326 73.5645 227.317 70.5377 224.553C70.3622 224.378 70.1429 224.203 69.9674 224.027C77.5125 227.229 86.9877 220.781 88.6985 213.543C89.6635 209.463 87.8211 206.129 88.3037 202.094C88.8301 197.488 92.3833 192.619 95.103 188.978C94.3573 190.206 89.2249 198.584 89.2249 203.673Z" fill="#E1E5FF"/>
<path d="M70.2306 224.861C68.476 223.237 66.2826 221.79 65.9317 219.07C65.5369 216.307 66.9845 213.017 69.441 210.823C72.3362 208.323 76.4158 207.27 78.1266 204.199C79.4426 201.874 78.8285 199.681 78.346 192.75C77.5564 183.056 78.1266 172.747 87.4264 167.439C93.4361 164.017 99.402 166.035 101.069 170.773C103.174 176.695 98.6124 184.065 95.5417 189.021C92.9097 193.277 89.6197 198.584 89.6197 203.585C89.6197 207.665 91.8569 211.13 91.3744 215.473C90.8918 219.553 87.7773 223.939 83.7854 226.045C79.0478 228.721 73.5206 227.843 70.2306 224.861ZM87.865 168.273C78.9601 173.361 78.4337 183.275 79.2233 192.75C79.7936 199.857 80.32 202.225 78.9162 204.682C77.0738 208.016 72.8188 209.112 70.0552 211.525C67.818 213.455 66.502 216.526 66.809 218.982C67.1161 221.307 69.1778 222.711 70.8448 224.246C73.4768 226.659 78.5214 228.019 83.3906 225.387C87.1632 223.369 90.0584 219.289 90.497 215.473C90.9796 211.35 88.7424 207.884 88.7424 203.673C88.7424 198.453 92.0762 193.057 94.796 188.671C97.6473 184.021 102.209 176.783 100.235 171.168C98.5685 166.255 92.6904 165.509 87.865 168.273Z" fill="#CCD2FF"/>
<path d="M73.3451 245.083C73.1697 245.083 73.0381 244.995 72.9503 244.864C72.8626 244.732 65.3614 230.651 78.2143 211.174C89.7074 193.803 88.6985 179.195 88.6985 179.064C88.6985 178.801 88.8739 178.625 89.0933 178.581C89.3565 178.581 89.5319 178.757 89.5758 178.976C89.5758 179.108 90.6286 194.022 78.9601 211.657C66.3703 230.695 73.6522 244.293 73.7399 244.425C73.8715 244.732 73.6961 245.083 73.3451 245.083Z" fill="#CCD2FF"/>
<path d="M72.5555 218.324C70.8447 217.535 68.2566 218.237 67.2038 216.57C66.6335 215.605 66.7213 214.157 66.8967 212.753C67.5986 206.173 68.1689 202.094 67.467 198.584C64.9666 186.346 49.701 196.303 54.8773 207.402C55.8423 209.463 57.2899 211.13 58.4743 213.017C59.6587 214.903 60.6238 217.14 60.5361 219.772C60.4045 222.799 58.913 226.133 59.0885 229.072C59.2639 231.791 61.0625 233.809 63.4313 233.941C66.3703 234.116 69.7042 231.441 71.6782 228.326C72.7749 226.615 74.1786 224.773 74.4418 222.799C74.7489 220.825 74.0031 218.982 72.5555 218.324Z" fill="#CCD2FF"/>
<path d="M63.4312 234.204C60.9308 234.073 59.0884 231.967 58.8691 229.116C58.6936 226.133 60.1851 222.799 60.3167 219.772C60.4044 217.579 59.7464 215.473 58.2988 213.148C57.1144 211.262 55.7107 209.595 54.7018 207.489C53.8683 205.735 53.1226 203.015 53.9999 199.9C56.2371 192.18 65.7562 189.329 67.6863 198.541C68.432 202.094 67.8179 206.173 67.116 212.753C66.9844 213.894 66.8528 215.473 67.4231 216.394C67.9934 217.359 69.1778 217.491 70.3622 217.623C71.1518 217.71 71.9414 217.798 72.6432 218.105C74.1786 218.807 75.012 220.737 74.6611 222.887C74.354 224.948 72.9503 226.791 71.8536 228.501C70.099 231.309 66.6774 234.38 63.4312 234.204ZM57.7286 194.987C56.2371 196.259 55.0088 198.146 54.4386 200.032C53.5612 203.015 54.307 205.647 55.0966 207.314C56.0616 209.376 57.4654 211.043 58.6498 212.929C60.1412 215.341 60.7992 217.535 60.7115 219.816C60.5799 222.799 59.0884 226.264 59.2639 229.116C59.4394 231.748 61.1502 233.678 63.3874 233.765C66.4142 233.941 69.7042 231.046 71.4588 228.282C72.5555 226.571 73.9154 224.773 74.2224 222.843C74.4856 220.913 73.7838 219.158 72.4239 218.544C71.8098 218.237 71.0202 218.193 70.2744 218.105C69.0023 217.973 67.6863 217.842 66.9844 216.701C66.3703 215.692 66.458 214.333 66.6335 212.753C67.2915 206.349 67.9495 202.181 67.2038 198.672C66.1071 193.101 61.6766 191.653 57.7286 194.987Z" fill="#CCD2FF"/>
<path d="M70.6253 233.458C70.4499 228.984 69.1339 225.124 66.6335 221.921C59.7464 213.104 60.7992 201.743 60.8431 201.655C60.8869 201.436 61.1063 201.26 61.3256 201.26C61.5449 201.304 61.7204 201.48 61.7204 201.743C61.7204 201.874 60.6676 212.885 67.3353 221.395C69.9235 224.729 71.3272 228.765 71.5027 233.458C71.5027 233.722 71.3272 233.897 71.064 233.897C70.8447 233.897 70.6253 233.722 70.6253 233.458ZM79.0477 245.083H68.8268C68.5636 245.083 68.3881 244.908 68.3881 244.644C68.3881 244.381 68.5636 244.206 68.8268 244.206H79.0477C79.3109 244.206 79.4864 244.381 79.4864 244.644C79.4864 244.908 79.2671 245.083 79.0477 245.083Z" fill="#CCD2FF"/>
<path d="M174.677 54.7456H170.948C170.685 54.7456 170.51 54.5701 170.51 54.3069C170.51 54.0437 170.685 53.8683 170.948 53.8683H174.107C172.703 47.9463 175.203 44.4808 180.248 47.2005C179.809 37.8569 190.25 40.5328 197.049 48.4727C197.4 46.8057 198.848 46.9373 200.427 47.5953H204.024C204.287 47.5953 204.463 47.7708 204.463 48.034C204.463 48.2972 204.287 48.4727 204.024 48.4727H200.339C199.593 48.4727 197.751 46.8496 197.883 49.6132C197.883 50.0519 197.356 50.2273 197.093 49.9203C190.908 42.112 180.117 38.164 181.213 47.9901C181.257 48.3411 180.862 48.6043 180.555 48.4288C175.511 45.2265 173.58 48.5165 175.116 54.2631C175.16 54.4824 174.94 54.7456 174.677 54.7456Z" fill="#CCD2FF"/>
</svg>
