<svg xmlns="http://www.w3.org/2000/svg" width="30" height="30" viewBox="0 0 30 30" fill="none">
<path fill-rule="evenodd" clip-rule="evenodd" d="M15.0005 11.25C12.9294 11.25 11.2505 12.9289 11.2505 15C11.2505 17.0711 12.9294 18.75 15.0005 18.75C17.0716 18.75 18.7505 17.0711 18.7505 15C18.7505 12.9289 17.0716 11.25 15.0005 11.25ZM12.7505 15C12.7505 13.7574 13.7579 12.75 15.0005 12.75C16.2431 12.75 17.2505 13.7574 17.2505 15C17.2505 16.2426 16.2431 17.25 15.0005 17.25C13.7579 17.25 12.7505 16.2426 12.7505 15Z" fill="#1C274C"/>
<path fill-rule="evenodd" clip-rule="evenodd" d="M14.9752 4.25C14.5308 4.24999 14.1597 4.24999 13.8551 4.27077C13.538 4.29241 13.2385 4.33905 12.9481 4.45933C12.2743 4.73844 11.7389 5.27379 11.4598 5.94762C11.3145 6.29842 11.2752 6.66812 11.2601 7.06996C11.248 7.39299 11.085 7.66251 10.8444 7.80141C10.6039 7.94031 10.2889 7.94673 10.0032 7.79568C9.64762 7.60777 9.30777 7.45699 8.93132 7.40743C8.20822 7.31223 7.47691 7.50819 6.89828 7.95219C6.64892 8.14353 6.45876 8.3796 6.28147 8.6434C6.11117 8.89681 5.92565 9.21815 5.70343 9.60307L5.67817 9.64681C5.45594 10.0317 5.27042 10.353 5.13611 10.6272C4.9963 10.9127 4.88693 11.1954 4.8459 11.507C4.7507 12.2301 4.94666 12.9614 5.39065 13.5401C5.62177 13.8412 5.92222 14.0602 6.26266 14.2741C6.53644 14.4461 6.68837 14.7221 6.68835 15C6.68834 15.2778 6.53641 15.5538 6.26266 15.7258C5.92218 15.9397 5.62169 16.1587 5.39055 16.4599C4.94656 17.0385 4.7506 17.7698 4.8458 18.4929C4.88683 18.8045 4.9962 19.0873 5.13601 19.3727C5.27032 19.6469 5.45584 19.9682 5.67807 20.3531L5.70333 20.3969C5.92555 20.7818 6.11107 21.1031 6.28138 21.3565C6.45866 21.6203 6.64882 21.8564 6.89818 22.0477C7.47681 22.4917 8.20812 22.6877 8.93122 22.5925C9.30766 22.5429 9.64748 22.3922 10.003 22.2043C10.2888 22.0532 10.6038 22.0596 10.8444 22.1986C11.085 22.3375 11.248 22.607 11.2601 22.9301C11.2752 23.3319 11.3145 23.7016 11.4598 24.0524C11.7389 24.7262 12.2743 25.2616 12.9481 25.5407C13.2385 25.661 13.538 25.7076 13.8551 25.7292C14.1597 25.75 14.5308 25.75 14.9752 25.75H15.0257C15.4702 25.75 15.8412 25.75 16.1458 25.7292C16.4629 25.7076 16.7625 25.661 17.0529 25.5407C17.7267 25.2616 18.262 24.7262 18.5411 24.0524C18.6865 23.7016 18.7258 23.3319 18.7408 22.93C18.7529 22.607 18.9159 22.3375 19.1565 22.1985C19.3971 22.0596 19.7121 22.0532 19.9979 22.2042C20.3534 22.3921 20.6932 22.5429 21.0696 22.5924C21.7927 22.6876 22.5241 22.4917 23.1027 22.0477C23.352 21.8563 23.5422 21.6203 23.7195 21.3565C23.8898 21.1031 24.0753 20.7818 24.2975 20.3969L24.3228 20.3531C24.545 19.9682 24.7306 19.6468 24.8649 19.3726C25.0047 19.0872 25.114 18.8045 25.1551 18.4929C25.2503 17.7697 25.0543 17.0384 24.6103 16.4598C24.3792 16.1586 24.0787 15.9397 23.7382 15.7258C23.4645 15.5538 23.3126 15.2778 23.3126 14.9999C23.3126 14.7221 23.4645 14.4462 23.7382 14.2742C24.0787 14.0603 24.3793 13.8414 24.6104 13.5401C25.0544 12.9615 25.2504 12.2302 25.1552 11.5071C25.1141 11.1955 25.0048 10.9127 24.8649 10.6273C24.7307 10.3531 24.5451 10.0318 24.3229 9.64695L24.2977 9.60318C24.0754 9.21825 23.8899 8.89688 23.7196 8.64347C23.5423 8.37967 23.3521 8.1436 23.1028 7.95225C22.5241 7.50826 21.7928 7.3123 21.0697 7.4075C20.6933 7.45706 20.3535 7.60782 19.998 7.79572C19.7121 7.94679 19.3972 7.94036 19.1566 7.80144C18.916 7.66253 18.7529 7.39297 18.7408 7.06991C18.7258 6.66808 18.6864 6.2984 18.5411 5.94762C18.262 5.27379 17.7267 4.73844 17.0529 4.45933C16.7625 4.33905 16.4629 4.29241 16.1458 4.27077C15.8412 4.24999 15.4702 4.24999 15.0257 4.25H14.9752ZM13.5221 5.84515C13.5993 5.81319 13.7165 5.78372 13.9572 5.76729C14.2047 5.75041 14.5243 5.75 15.0005 5.75C15.4767 5.75 15.7963 5.75041 16.0437 5.76729C16.2845 5.78372 16.4017 5.81319 16.4788 5.84515C16.7851 5.97202 17.0285 6.21536 17.1553 6.52165C17.1953 6.61826 17.2285 6.76887 17.2419 7.12597C17.2715 7.91835 17.6805 8.68129 18.4066 9.10048C19.1326 9.51968 19.9979 9.4924 20.6989 9.12188C21.0148 8.9549 21.1618 8.90832 21.2655 8.89467C21.5942 8.8514 21.9266 8.94047 22.1896 9.14228C22.2559 9.19312 22.34 9.27989 22.4746 9.48016C22.613 9.68603 22.7731 9.9626 23.0112 10.375C23.2493 10.7874 23.4088 11.0644 23.5179 11.2871C23.624 11.5038 23.6571 11.6201 23.668 11.7029C23.7113 12.0316 23.6222 12.364 23.4204 12.627C23.3567 12.71 23.2428 12.814 22.9402 13.0041C22.2689 13.426 21.8127 14.1616 21.8126 14.9999C21.8126 15.8383 22.2688 16.574 22.9402 16.9959C23.2428 17.186 23.3566 17.29 23.4203 17.373C23.6221 17.636 23.7112 17.9684 23.6679 18.2971C23.657 18.3799 23.6239 18.4961 23.5178 18.7128C23.4087 18.9355 23.2492 19.2125 23.0111 19.6249C22.773 20.0373 22.6129 20.3139 22.4745 20.5198C22.3399 20.72 22.2558 20.8068 22.1895 20.8576C21.9265 21.0595 21.5941 21.1485 21.2654 21.1053C21.1618 21.0916 21.0147 21.045 20.6988 20.8781C19.9978 20.5075 19.1325 20.4803 18.4064 20.8995C17.6804 21.3187 17.2715 22.0816 17.2419 22.874C17.2285 23.2311 17.1954 23.3817 17.1553 23.4784C17.0285 23.7846 16.7851 24.028 16.4788 24.1549C16.4017 24.1868 16.2845 24.2163 16.0437 24.2327C15.7963 24.2496 15.4767 24.25 15.0005 24.25C14.5243 24.25 14.2047 24.2496 13.9572 24.2327C13.7165 24.2163 13.5993 24.1868 13.5221 24.1549C13.2158 24.028 12.9725 23.7846 12.8456 23.4784C12.8056 23.3817 12.7724 23.2311 12.7591 22.874C12.7294 22.0817 12.3205 21.3187 11.5944 20.8995C10.8683 20.4803 10.0031 20.5076 9.30207 20.8781C8.98614 21.0451 8.83912 21.0917 8.73544 21.1053C8.40675 21.1486 8.07434 21.0595 7.81132 20.8577C7.74507 20.8069 7.66094 20.7201 7.52635 20.5198C7.38799 20.314 7.22785 20.0374 6.98974 19.625C6.75164 19.2126 6.5922 18.9356 6.48309 18.7129C6.37695 18.4962 6.34387 18.3799 6.33297 18.2971C6.2897 17.9684 6.37877 17.636 6.58058 17.373C6.64425 17.2901 6.7581 17.186 7.06069 16.9959C7.73207 16.5741 8.18831 15.8384 8.18835 15.0001C8.1884 14.1616 7.73214 13.4259 7.0607 13.004C6.75817 12.8139 6.64434 12.7099 6.58068 12.6269C6.37887 12.3639 6.2898 12.0315 6.33307 11.7028C6.34397 11.62 6.37705 11.5038 6.48319 11.2871C6.5923 11.0643 6.75174 10.7873 6.98984 10.3749C7.22794 9.96253 7.38809 9.68596 7.52645 9.48009C7.66103 9.27983 7.74517 9.19305 7.81142 9.14222C8.07444 8.9404 8.40685 8.85133 8.73553 8.8946C8.83922 8.90825 8.98625 8.95483 9.30222 9.12184C10.0032 9.49235 10.8684 9.51962 11.5944 9.10045C12.3205 8.68128 12.7294 7.91837 12.7591 7.12602C12.7724 6.76889 12.8056 6.61827 12.8456 6.52165C12.9725 6.21536 13.2158 5.97202 13.5221 5.84515Z" fill="#1C274C"/>
</svg>