<svg width="30" height="30" viewBox="0 0 30 30" fill="none" xmlns="http://www.w3.org/2000/svg">
<path d="M17.9453 4.25C16.5778 4.24998 15.4754 4.24996 14.6085 4.36652C13.7084 4.48754 12.9505 4.74643 12.3486 5.34835C11.8236 5.87328 11.5584 6.51836 11.4192 7.27635C11.2839 8.01291 11.258 8.9143 11.252 9.99583C11.2497 10.41 11.5836 10.7477 11.9978 10.75C12.412 10.7523 12.7496 10.4184 12.7519 10.0042C12.758 8.91068 12.7864 8.1356 12.8945 7.54735C12.9986 6.98054 13.1658 6.65246 13.4092 6.40901C13.686 6.13225 14.0746 5.9518 14.8083 5.85315C15.5637 5.75159 16.5648 5.75 18.0002 5.75H19.0002C20.4356 5.75 21.4367 5.75159 22.1921 5.85315C22.9259 5.9518 23.3144 6.13225 23.5912 6.40901C23.868 6.68577 24.0484 7.07435 24.1471 7.80812C24.2486 8.56347 24.2502 9.56459 24.2502 11V19C24.2502 20.4354 24.2486 21.4365 24.1471 22.1919C24.0484 22.9257 23.868 23.3142 23.5912 23.591C23.3144 23.8678 22.9259 24.0482 22.1921 24.1469C21.4367 24.2484 20.4356 24.25 19.0002 24.25H18.0002C16.5648 24.25 15.5637 24.2484 14.8083 24.1469C14.0746 24.0482 13.686 23.8678 13.4092 23.591C13.1658 23.3475 12.9986 23.0195 12.8945 22.4527C12.7864 21.8644 12.758 21.0893 12.7519 19.9958C12.7496 19.5816 12.412 19.2477 11.9978 19.25C11.5836 19.2523 11.2497 19.59 11.252 20.0042C11.258 21.0857 11.2839 21.9871 11.4192 22.7236C11.5584 23.4816 11.8236 24.1267 12.3486 24.6517C12.9505 25.2536 13.7084 25.5125 14.6085 25.6335C15.4754 25.75 16.5778 25.75 17.9453 25.75H19.0551C20.4227 25.75 21.525 25.75 22.392 25.6335C23.2921 25.5125 24.0499 25.2536 24.6519 24.6517C25.2538 24.0497 25.5127 23.2919 25.6337 22.3918C25.7503 21.5248 25.7502 20.4225 25.7502 19.0549V10.9451C25.7502 9.57754 25.7503 8.47522 25.6337 7.60825C25.5127 6.70814 25.2538 5.95027 24.6519 5.34835C24.0499 4.74643 23.2921 4.48754 22.392 4.36652C21.525 4.24996 20.4227 4.24998 19.0551 4.25H17.9453Z" fill="#1C274C"/>
<path d="M18 14.25C18.4142 14.25 18.75 14.5858 18.75 15C18.75 15.4142 18.4142 15.75 18 15.75H7.02744L8.98809 17.4306C9.30259 17.7001 9.33901 18.1736 9.06944 18.4881C8.79988 18.8026 8.3264 18.839 8.01191 18.5694L4.51191 15.5694C4.34567 15.427 4.25 15.2189 4.25 15C4.25 14.7811 4.34567 14.573 4.51191 14.4306L8.01191 11.4306C8.3264 11.161 8.79988 11.1974 9.06944 11.5119C9.33901 11.8264 9.30259 12.2999 8.98809 12.5694L7.02744 14.25H18Z" fill="#1C274C"/>
</svg>
