<svg width="18" height="19" viewBox="0 0 18 19" fill="none" xmlns="http://www.w3.org/2000/svg">
<path d="M8.81327 0.31958C8.64277 0.31958 8.47926 0.387309 8.3587 0.507869C8.23814 0.628428 8.17041 0.791941 8.17041 0.962437V17.6767C8.17041 17.8472 8.23814 18.0107 8.3587 18.1313C8.47926 18.2519 8.64277 18.3196 8.81327 18.3196C8.98376 18.3196 9.14728 18.2519 9.26784 18.1313C9.3884 18.0107 9.45612 17.8472 9.45612 17.6767V0.962437C9.45612 0.791941 9.3884 0.628428 9.26784 0.507869C9.14728 0.387309 8.98376 0.31958 8.81327 0.31958Z" fill="#5242F3"/>
<path d="M11.3841 4.81958C11.2136 4.81958 11.0501 4.88731 10.9295 5.00787C10.8089 5.12843 10.7412 5.29194 10.7412 5.46244V13.8196C10.7412 13.9901 10.8089 14.1536 10.9295 14.2741C11.0501 14.3947 11.2136 14.4624 11.3841 14.4624C11.5546 14.4624 11.7181 14.3947 11.8386 14.2741C11.9592 14.1536 12.0269 13.9901 12.0269 13.8196V5.46244C12.0269 5.29194 11.9592 5.12843 11.8386 5.00787C11.7181 4.88731 11.5546 4.81958 11.3841 4.81958Z" fill="#5242F3"/>
<path d="M13.9558 2.89105C13.7853 2.89105 13.6218 2.95878 13.5013 3.07934C13.3807 3.1999 13.313 3.36341 13.313 3.53391V15.7482C13.313 15.9187 13.3807 16.0822 13.5013 16.2028C13.6218 16.3233 13.7853 16.3911 13.9558 16.3911C14.1263 16.3911 14.2899 16.3233 14.4104 16.2028C14.531 16.0822 14.5987 15.9187 14.5987 15.7482V3.53391C14.5987 3.36341 14.531 3.1999 14.4104 3.07934C14.2899 2.95878 14.1263 2.89105 13.9558 2.89105Z" fill="#5242F3"/>
<path d="M16.5271 6.74811C16.3566 6.74811 16.1931 6.81584 16.0726 6.9364C15.952 7.05696 15.8843 7.22047 15.8843 7.39096V11.891C15.8843 12.0615 15.952 12.225 16.0726 12.3455C16.1931 12.4661 16.3566 12.5338 16.5271 12.5338C16.6976 12.5338 16.8611 12.4661 16.9817 12.3455C17.1023 12.225 17.17 12.0615 17.17 11.891V7.39096C17.17 7.22047 17.1023 7.05696 16.9817 6.9364C16.8611 6.81584 16.6976 6.74811 16.5271 6.74811Z" fill="#5242F3"/>
<path d="M6.24198 4.81958C6.07148 4.81958 5.90797 4.88731 5.78741 5.00787C5.66685 5.12843 5.59912 5.29194 5.59912 5.46244V13.8196C5.59912 13.9901 5.66685 14.1536 5.78741 14.2741C5.90797 14.3947 6.07148 14.4624 6.24198 14.4624C6.41247 14.4624 6.57599 14.3947 6.69655 14.2741C6.81711 14.1536 6.88484 13.9901 6.88484 13.8196V5.46244C6.88484 5.29194 6.81711 5.12843 6.69655 5.00787C6.57599 4.88731 6.41247 4.81958 6.24198 4.81958Z" fill="#5242F3"/>
<path d="M3.6702 2.89105C3.4997 2.89105 3.33619 2.95878 3.21563 3.07934C3.09507 3.1999 3.02734 3.36341 3.02734 3.53391V15.7482C3.02734 15.9187 3.09507 16.0822 3.21563 16.2028C3.33619 16.3233 3.4997 16.3911 3.6702 16.3911C3.8407 16.3911 4.00421 16.3233 4.12477 16.2028C4.24533 16.0822 4.31306 15.9187 4.31306 15.7482V3.53391C4.31306 3.36341 4.24533 3.1999 4.12477 3.07934C4.00421 2.95878 3.8407 2.89105 3.6702 2.89105Z" fill="#5242F3"/>
<path d="M1.09891 6.74811C0.928416 6.74811 0.764902 6.81584 0.644343 6.9364C0.523784 7.05696 0.456055 7.22047 0.456055 7.39096V11.891C0.456055 12.0615 0.523784 12.225 0.644343 12.3455C0.764902 12.4661 0.928416 12.5338 1.09891 12.5338C1.26941 12.5338 1.43292 12.4661 1.55348 12.3455C1.67404 12.225 1.74177 12.0615 1.74177 11.891V7.39096C1.74177 7.22047 1.67404 7.05696 1.55348 6.9364C1.43292 6.81584 1.26941 6.74811 1.09891 6.74811Z" fill="#5242F3"/>
</svg>
