<svg width="27" height="24" viewBox="0 0 27 24" fill="none" xmlns="http://www.w3.org/2000/svg">
<path d="M24.4474 13.2325C24.4508 14.7042 24.1625 16.162 23.5994 17.5217C23.0362 18.8815 22.2093 20.1162 21.1664 21.1545C20.6624 21.6616 19.9857 21.96 19.2715 21.9902C18.5572 22.0203 17.8578 21.7801 17.3129 21.3173L16.3532 20.4877C16.2603 20.4073 16.184 20.3095 16.1289 20.1997C16.0737 20.0899 16.0407 19.9703 16.0318 19.8478C16.0137 19.6003 16.0947 19.3557 16.2569 19.1679C16.3372 19.075 16.4351 18.9987 16.5449 18.9436C16.6547 18.8884 16.7743 18.8554 16.8968 18.8465C17.1443 18.8284 17.3889 18.9094 17.5766 19.0716L18.5372 19.9022C18.7222 20.06 18.9608 20.1407 19.2036 20.1276C19.4464 20.1146 19.6749 20.0087 19.842 19.832C20.7338 18.9292 21.4335 17.855 21.8988 16.6742C22.3641 15.4935 22.5853 14.2308 22.5491 12.9622C22.5129 11.6936 22.2201 10.4455 21.6882 9.29327C21.1564 8.14099 20.3966 7.10842 19.4547 6.25787C18.4717 5.37089 17.3099 4.70503 16.0477 4.30521C14.7855 3.90539 13.4522 3.78092 12.1378 3.94018C10.3886 4.14288 8.7322 4.83567 7.35954 5.93872C5.98687 7.04177 4.95379 8.5102 4.3793 10.1748C3.80482 11.8394 3.71233 13.6324 4.11247 15.3473C4.51262 17.0622 5.38913 18.6291 6.641 19.8676C6.80929 20.0321 7.0334 20.1271 7.26865 20.1337C7.5039 20.1403 7.73299 20.0579 7.91021 19.9031L8.87078 19.0716C9.05856 18.9094 9.30309 18.8284 9.55059 18.8465C9.79809 18.8645 10.0283 18.9802 10.1905 19.1679C10.3527 19.3557 10.4337 19.6003 10.4157 19.8478C10.3976 20.0953 10.2819 20.3254 10.0942 20.4877L9.13453 21.3182C8.5995 21.7782 7.91153 22.0209 7.20632 21.9986C6.50111 21.9762 5.82988 21.6905 5.32502 21.1976C4.01185 19.8968 3.04027 18.2918 2.49656 16.5252C1.95285 14.7586 1.85386 12.8851 2.20837 11.071C2.56289 9.25698 3.35993 7.55856 4.52871 6.12663C5.69748 4.6947 7.20182 3.57359 8.90809 2.86287C10.6144 2.15215 12.4697 1.87384 14.3094 2.05264C16.1491 2.23144 17.9162 2.86183 19.4537 3.88781C20.9912 4.91379 22.2515 6.3036 23.1226 7.93379C23.9938 9.56399 24.4489 11.3841 24.4474 13.2325ZM18.5615 9.21719C18.7319 9.04079 18.8262 8.80453 18.824 8.5593C18.8219 8.31406 18.7235 8.07947 18.5501 7.90606C18.3767 7.73265 18.1421 7.63428 17.8969 7.63215C17.6516 7.63002 17.4154 7.72429 17.239 7.89467L13.7082 11.4255C13.3104 11.3188 12.8886 11.3465 12.5081 11.504C12.1277 11.6616 11.8098 11.9403 11.6039 12.2969C11.398 12.6535 11.3155 13.0681 11.3693 13.4764C11.423 13.8847 11.61 14.2638 11.9012 14.555C12.1923 14.8462 12.5715 15.0332 12.9798 15.0869C13.388 15.1407 13.8026 15.0582 14.1593 14.8523C14.5159 14.6463 14.7946 14.3285 14.9522 13.948C15.1097 13.5676 15.1373 13.1457 15.0307 12.748L18.5615 9.21719Z" fill="#5242F3"/>
</svg>
