<svg width="24" height="24" viewBox="0 0 24 24" fill="none" xmlns="http://www.w3.org/2000/svg">
<path d="M18.0415 2.83332L18.0415 5.11327C17.3834 5.29212 16.8025 5.68256 16.3883 6.22435C15.9741 6.76613 15.7497 7.42915 15.7497 8.11112C15.7497 8.79308 15.9741 9.4561 16.3883 9.99789C16.8025 10.5397 17.3834 10.9301 18.0415 11.109L18.0415 21.1663C18.0415 21.3873 18.1293 21.5992 18.2856 21.7555C18.4419 21.9118 18.6538 21.9996 18.8749 21.9996C19.0959 21.9996 19.3078 21.9118 19.4641 21.7555C19.6204 21.5992 19.7082 21.3873 19.7082 21.1663L19.7082 11.109C20.3663 10.9301 20.9472 10.5397 21.3614 9.99789C21.7756 9.4561 22 8.79308 22 8.11112C22 7.42915 21.7756 6.76613 21.3614 6.22435C20.9472 5.68256 20.3663 5.29212 19.7082 5.11327L19.7082 2.83332C19.7082 2.61231 19.6204 2.40035 19.4641 2.24407C19.3078 2.0878 19.0959 2 18.8749 2C18.6538 2 18.4419 2.0878 18.2856 2.24407C18.1293 2.40035 18.0415 2.61231 18.0415 2.83332ZM20.3332 8.1107C20.3332 8.39913 20.2476 8.68107 20.0874 8.92089C19.9271 9.16071 19.6994 9.34762 19.4329 9.458C19.1664 9.56837 18.8732 9.59725 18.5904 9.54098C18.3075 9.48471 18.0476 9.34582 17.8437 9.14187C17.6397 8.93793 17.5008 8.67808 17.4446 8.3952C17.3883 8.11232 17.4172 7.8191 17.5276 7.55263C17.6379 7.28616 17.8248 7.05841 18.0647 6.89817C18.3045 6.73793 18.5864 6.6524 18.8749 6.6524C19.2615 6.65284 19.6322 6.80662 19.9055 7.08001C20.1789 7.3534 20.3327 7.72407 20.3332 8.1107Z" fill="#8132E4"/>
<path d="M12.8333 21.1663L12.8333 18.8863C13.4916 18.7077 14.0727 18.3175 14.4871 17.7757C14.9014 17.234 15.126 16.5709 15.126 15.8889C15.126 15.2068 14.9014 14.5438 14.4871 14.002C14.0727 13.4603 13.4916 13.07 12.8333 12.8914L12.8333 2.83332C12.8333 2.61231 12.7455 2.40035 12.5892 2.24407C12.433 2.0878 12.221 2 12 2C11.779 2 11.567 2.0878 11.4108 2.24407C11.2545 2.40035 11.1667 2.61231 11.1667 2.83332L11.1667 12.8914C10.5084 13.07 9.92727 13.4603 9.51291 14.002C9.09855 14.5438 8.87404 15.2068 8.87404 15.8889C8.87404 16.5709 9.09855 17.234 9.51291 17.7757C9.92727 18.3175 10.5084 18.7077 11.1667 18.8863L11.1667 21.1663C11.1667 21.3873 11.2545 21.5992 11.4108 21.7555C11.567 21.9118 11.779 21.9996 12 21.9996C12.221 21.9996 12.433 21.9118 12.5892 21.7555C12.7455 21.5992 12.8333 21.3873 12.8333 21.1663ZM10.5417 15.8889C10.5417 15.6004 10.6272 15.3185 10.7875 15.0787C10.9477 14.8389 11.1755 14.6519 11.4419 14.5416C11.7084 14.4312 12.0016 14.4023 12.2845 14.4586C12.5674 14.5149 12.8272 14.6537 13.0312 14.8577C13.2351 15.0616 13.374 15.3215 13.4303 15.6044C13.4865 15.8872 13.4577 16.1805 13.3473 16.4469C13.2369 16.7134 13.05 16.9412 12.8102 17.1014C12.5704 17.2616 12.2884 17.3472 12 17.3472C11.6134 17.3467 11.2427 17.1929 10.9693 16.9196C10.6959 16.6462 10.5421 16.2755 10.5417 15.8889Z" fill="#8132E4"/>
<path d="M5.95846 21.1663L5.95846 11.109C6.61656 10.9301 7.19752 10.5397 7.6117 9.99789C8.02589 9.4561 8.2503 8.79308 8.2503 8.11112C8.2503 7.42915 8.02589 6.76613 7.6117 6.22435C7.19752 5.68256 6.61656 5.29212 5.95846 5.11327L5.95846 2.83332C5.95846 2.61231 5.87067 2.40035 5.71439 2.24407C5.55812 2.0878 5.34616 2 5.12515 2C4.90414 2 4.69218 2.0878 4.53591 2.24407C4.37963 2.40035 4.29183 2.61231 4.29183 2.83332L4.29183 5.11327C3.63374 5.29212 3.05278 5.68256 2.63859 6.22435C2.22441 6.76613 2 7.42915 2 8.11112C2 8.79308 2.22441 9.4561 2.63859 9.99789C3.05278 10.5397 3.63374 10.9301 4.29183 11.109L4.29183 21.1663C4.29183 21.3873 4.37963 21.5992 4.5359 21.7555C4.69218 21.9118 4.90414 21.9996 5.12515 21.9996C5.34616 21.9996 5.55811 21.9118 5.71439 21.7555C5.87067 21.5992 5.95846 21.3873 5.95846 21.1663ZM3.66685 8.1107C3.66685 7.82228 3.75237 7.54033 3.91261 7.30051C4.07285 7.06069 4.30061 6.87378 4.56708 6.76341C4.83355 6.65303 5.12677 6.62415 5.40965 6.68042C5.69253 6.73669 5.95238 6.87558 6.15632 7.07952C6.36027 7.28347 6.49916 7.54332 6.55543 7.8262C6.6117 8.10908 6.58282 8.4023 6.47244 8.66877C6.36207 8.93524 6.17515 9.16299 5.93534 9.32323C5.69552 9.48347 5.41357 9.569 5.12515 9.569C4.73859 9.56834 4.36805 9.41449 4.0947 9.14115C3.82136 8.8678 3.66751 8.49726 3.66685 8.1107Z" fill="#8132E4"/>
</svg>
