<svg width="30" height="20" viewBox="0 0 30 20" fill="none" xmlns="http://www.w3.org/2000/svg">
<path d="M15.0026 0C8.33594 0 2.6426 4.14667 0.335938 10C2.6426 15.8533 8.33594 20 15.0026 20C21.6693 20 27.3626 15.8533 29.6693 10C27.3626 4.14667 21.6693 0 15.0026 0ZM15.0026 16.6667C11.3226 16.6667 8.33594 13.68 8.33594 10C8.33594 6.32 11.3226 3.33333 15.0026 3.33333C18.6826 3.33333 21.6693 6.32 21.6693 10C21.6693 13.68 18.6826 16.6667 15.0026 16.6667ZM15.0026 6C12.7893 6 11.0026 7.78667 11.0026 10C11.0026 12.2133 12.7893 14 15.0026 14C17.2159 14 19.0026 12.2133 19.0026 10C19.0026 7.78667 17.2159 6 15.0026 6Z" fill="#126B66"/>
</svg>
