<svg width="32" height="32" viewBox="0 0 32 32" fill="none" xmlns="http://www.w3.org/2000/svg">
<path d="M15.986 2.66699C8.62602 2.66699 2.66602 8.64033 2.66602 16.0003C2.66602 23.3603 8.62602 29.3337 15.986 29.3337C23.3593 29.3337 29.3327 23.3603 29.3327 16.0003C29.3327 8.64033 23.3593 2.66699 15.986 2.66699ZM21.3327 21.3337C21.2093 21.4573 21.0628 21.5553 20.9015 21.6222C20.7402 21.6891 20.5673 21.7236 20.3927 21.7236C20.2181 21.7236 20.0451 21.6891 19.8838 21.6222C19.7226 21.5553 19.576 21.4573 19.4527 21.3337L15.066 16.947C14.94 16.8235 14.8398 16.6762 14.7711 16.5137C14.7025 16.3512 14.6667 16.1767 14.666 16.0003V10.667C14.666 9.93366 15.266 9.33366 15.9993 9.33366C16.7327 9.33366 17.3327 9.93366 17.3327 10.667V15.4537L21.3327 19.4537C21.8527 19.9737 21.8527 20.8137 21.3327 21.3337Z" fill="#188181"/>
</svg>
