<svg width="32" height="32" viewBox="0 0 32 32" fill="none" xmlns="http://www.w3.org/2000/svg">
<path d="M23.6127 12.4393C24.2527 11.906 24.9993 11.266 25.3327 10.5593C24.786 10.8393 24.1327 11.0127 23.4127 11.106C24.0793 10.626 24.626 9.99935 24.906 9.14602C24.2127 9.51935 23.506 9.83935 22.626 9.99935C20.5593 7.50602 15.6127 9.53268 16.4927 13.266C13.0127 13.0527 10.8927 11.4793 9.13268 9.54602C8.13268 11.1727 8.99935 13.6393 10.186 14.3193C9.57268 14.2793 9.10602 14.0927 8.66602 13.8793C8.71935 15.9327 9.85268 16.9193 11.4393 17.4527C10.9593 17.546 10.426 17.5727 9.91935 17.4927C10.4127 18.9193 11.4393 19.8127 13.1993 19.9993C11.9993 21.0127 9.78602 21.7193 7.99935 21.4393C9.53268 22.4127 11.2793 23.186 13.706 23.0793C19.586 22.8127 23.5193 18.5993 23.6127 12.4393V12.4393ZM15.9993 2.66602C17.7503 2.66602 19.4841 3.01089 21.1018 3.68096C22.7195 4.35102 24.1893 5.33314 25.4274 6.57126C26.6656 7.80937 27.6477 9.27923 28.3177 10.8969C28.9878 12.5146 29.3327 14.2484 29.3327 15.9993C29.3327 19.5356 27.9279 22.927 25.4274 25.4274C22.927 27.9279 19.5356 29.3327 15.9993 29.3327C14.2484 29.3327 12.5146 28.9878 10.8969 28.3177C9.27923 27.6477 7.80937 26.6656 6.57126 25.4274C4.07077 22.927 2.66602 19.5356 2.66602 15.9993C2.66602 12.4631 4.07077 9.07174 6.57126 6.57126C9.07174 4.07077 12.4631 2.66602 15.9993 2.66602V2.66602Z" fill="#1D9BF0"/>
</svg>