<svg width="28" height="28" viewBox="0 0 28 28" fill="none" xmlns="http://www.w3.org/2000/svg">
<path d="M19.8107 16.6667C19.9174 15.7867 19.9974 14.9067 19.9974 14.0001C19.9974 13.0934 19.9174 12.2134 19.8107 11.3334H24.3174C24.5307 12.1867 24.6641 13.0801 24.6641 14.0001C24.6641 14.9201 24.5307 15.8134 24.3174 16.6667M17.4507 24.0801C18.2507 22.6001 18.8641 21.0001 19.2907 19.3334H23.2241C21.9323 21.5578 19.8829 23.2427 17.4507 24.0801ZM17.1174 16.6667H10.8774C10.7441 15.7867 10.6641 14.9067 10.6641 14.0001C10.6641 13.0934 10.7441 12.2001 10.8774 11.3334H17.1174C17.2374 12.2001 17.3307 13.0934 17.3307 14.0001C17.3307 14.9067 17.2374 15.7867 17.1174 16.6667ZM13.9974 24.6134C12.8907 23.0134 11.9974 21.2401 11.4507 19.3334H16.5441C15.9974 21.2401 15.1041 23.0134 13.9974 24.6134ZM8.66406 8.66675H4.77073C6.0492 6.43637 8.09712 4.74873 10.5307 3.92008C9.73073 5.40008 9.13073 7.00008 8.66406 8.66675ZM4.77073 19.3334H8.66406C9.13073 21.0001 9.73073 22.6001 10.5307 24.0801C8.10223 23.2423 6.05719 21.557 4.77073 19.3334ZM3.6774 16.6667C3.46406 15.8134 3.33073 14.9201 3.33073 14.0001C3.33073 13.0801 3.46406 12.1867 3.6774 11.3334H8.18406C8.0774 12.2134 7.9974 13.0934 7.9974 14.0001C7.9974 14.9067 8.0774 15.7867 8.18406 16.6667M13.9974 3.37341C15.1041 4.97341 15.9974 6.76008 16.5441 8.66675H11.4507C11.9974 6.76008 12.8907 4.97341 13.9974 3.37341ZM23.2241 8.66675H19.2907C18.8734 7.01536 18.2555 5.42128 17.4507 3.92008C19.9041 4.76008 21.9441 6.45341 23.2241 8.66675ZM13.9974 0.666748C6.62406 0.666748 0.664062 6.66675 0.664062 14.0001C0.664062 17.5363 2.06882 20.9277 4.56931 23.4282C5.80742 24.6663 7.27727 25.6484 8.89495 26.3185C10.5126 26.9885 12.2464 27.3334 13.9974 27.3334C17.5336 27.3334 20.925 25.9287 23.4255 23.4282C25.926 20.9277 27.3307 17.5363 27.3307 14.0001C27.3307 12.2491 26.9859 10.5153 26.3158 8.89763C25.6457 7.27996 24.6636 5.81011 23.4255 4.57199C22.1874 3.33388 20.7175 2.35175 19.0998 1.68169C17.4822 1.01162 15.7484 0.666748 13.9974 0.666748Z" fill="white"/>
</svg>
