<svg width="32" height="33" viewBox="0 0 32 33" fill="none" xmlns="http://www.w3.org/2000/svg">
<path d="M31.0714 1.5427C30.7753 1.24316 30.4225 1.00554 30.0336 0.843668C29.6448 0.6818 29.2276 0.598922 28.8064 0.599861H20.0258C19.4498 0.600935 18.8975 0.829101 18.4887 1.23485L0.935344 18.7844C0.336387 19.3846 0 20.1979 0 21.0458C0 21.8937 0.336387 22.707 0.935344 23.3072L9.29238 31.6641C9.89271 32.2633 10.7063 32.5999 11.5545 32.5999C12.4027 32.5999 13.2163 32.2633 13.8166 31.6641L31.3628 14.1217C31.7694 13.7135 31.9983 13.1614 31.9999 12.5853V3.79978C32.0025 3.38079 31.9218 2.96547 31.7624 2.57797C31.603 2.19048 31.3681 1.83856 31.0714 1.5427ZM25.1429 9.74249C24.6908 9.74249 24.2489 9.60844 23.873 9.35729C23.4971 9.10614 23.2042 8.74917 23.0312 8.33152C22.8582 7.91387 22.8129 7.4543 22.9011 7.01093C22.9893 6.56755 23.207 6.16029 23.5267 5.84063C23.8463 5.52098 24.2536 5.30329 24.697 5.2151C25.1404 5.1269 25.5999 5.17217 26.0176 5.34516C26.4352 5.51816 26.7922 5.81112 27.0434 6.18699C27.2945 6.56287 27.4286 7.00478 27.4286 7.45684C27.4286 8.06303 27.1878 8.6444 26.7591 9.07304C26.3305 9.50168 25.7491 9.74249 25.1429 9.74249Z" fill="#126B66"/>
</svg>
