<svg width="30" height="30" viewBox="0 0 30 30" fill="none" xmlns="http://www.w3.org/2000/svg">
<path fill-rule="evenodd" clip-rule="evenodd" d="M4.25 15C4.25 9.06294 9.06294 4.25 15 4.25C20.9371 4.25 25.75 9.06294 25.75 15C25.75 20.9371 20.9371 25.75 15 25.75C9.06294 25.75 4.25 20.9371 4.25 15ZM15 5.75C9.89137 5.75 5.75 9.89137 5.75 15C5.75 20.1086 9.89137 24.25 15 24.25C20.1086 24.25 24.25 20.1086 24.25 15C24.25 9.89137 20.1086 5.75 15 5.75ZM10 10.25C10.4142 10.25 10.75 10.5858 10.75 11L10.75 19C10.75 19.4142 10.4142 19.75 10 19.75C9.58579 19.75 9.25 19.4142 9.25 19L9.25 11C9.25 10.5858 9.58579 10.25 10 10.25ZM13.4697 11.4697C13.7626 11.1768 14.2374 11.1768 14.5303 11.4697L15.5303 12.4697C15.5733 12.5126 15.6099 12.5595 15.6403 12.6091C16.0413 12.3806 16.5054 12.25 17 12.25C17.4946 12.25 17.9587 12.3806 18.3597 12.6091C18.3901 12.5595 18.4267 12.5126 18.4697 12.4697L19.4697 11.4697C19.7626 11.1768 20.2374 11.1768 20.5303 11.4697C20.8232 11.7626 20.8232 12.2374 20.5303 12.5303L19.5303 13.5303C19.4874 13.5733 19.4405 13.6099 19.3909 13.6403C19.6194 14.0413 19.75 14.5054 19.75 15C19.75 15.4946 19.6194 15.9587 19.3909 16.3597C19.4405 16.3901 19.4874 16.4267 19.5303 16.4697L20.5303 17.4697C20.8232 17.7626 20.8232 18.2374 20.5303 18.5303C20.2374 18.8232 19.7626 18.8232 19.4697 18.5303L18.4697 17.5303C18.4267 17.4874 18.3901 17.4405 18.3597 17.3909C17.9587 17.6194 17.4946 17.75 17 17.75C16.5054 17.75 16.0413 17.6194 15.6403 17.3909C15.6099 17.4405 15.5733 17.4874 15.5303 17.5303L14.5303 18.5303C14.2374 18.8232 13.7626 18.8232 13.4697 18.5303C13.1768 18.2374 13.1768 17.7626 13.4697 17.4697L14.4697 16.4697C14.5126 16.4267 14.5595 16.3901 14.6091 16.3597C14.3806 15.9587 14.25 15.4946 14.25 15C14.25 14.5054 14.3806 14.0413 14.6091 13.6403C14.5595 13.6099 14.5126 13.5733 14.4697 13.5303L13.4697 12.5303C13.1768 12.2374 13.1768 11.7626 13.4697 11.4697ZM17 13.75C16.3096 13.75 15.75 14.3096 15.75 15C15.75 15.6904 16.3096 16.25 17 16.25C17.6904 16.25 18.25 15.6904 18.25 15C18.25 14.3096 17.6904 13.75 17 13.75Z" fill="#1C274C"/>
</svg>
