<svg xmlns="http://www.w3.org/2000/svg" viewBox="0 0 23.37 26.39"><defs><style>.cls-1{fill:#231f20;}</style></defs><g id="Layer_2" data-name="Layer 2"><g id="Layer_1-2" data-name="Layer 1"><path class="cls-1" d="M6.44,6.49c0-.76,0-1.47.13-2.17a5.21,5.21,0,0,1,10.26,0A21.43,21.43,0,0,1,17,6.47l.41,0h2.84c.57,0,.77.16.84.72.32,2.31.62,4.62.93,6.93.41,3.09.81,6.18,1.22,9.28.06.44.15.88.17,1.33a.84.84,0,0,1-.15.58,6.59,6.59,0,0,1-.92.91.83.83,0,0,1-.52.14q-10.08,0-20.15,0A1.28,1.28,0,0,1,.88,26C-.27,25,0,25.26.14,23.93c.42-3.29.86-6.58,1.29-9.87l.9-6.81c.09-.61.27-.76.89-.76H6.44ZM19.85,7.77l-.22,0c-5.25,0-10.5,0-15.75,0-.32,0-.36.15-.39.4L2.41,16.33c-.35,2.66-.71,5.32-1,8-.07.55.16.81.71.81H21.34c.52,0,.77-.27.71-.78-.16-1.25-.33-2.51-.5-3.76q-.69-5.29-1.4-10.61C20.06,9.24,20,8.52,19.85,7.77ZM15.66,6.46c0-.51,0-1,0-1.43a3.93,3.93,0,0,0-5.18-3.56c-2.12.74-3,2.59-2.68,5Z"/></g></g></svg>