<?xml version="1.0" encoding="utf-8"?>
<!-- Generator: Adobe Illustrator 23.0.3, SVG Export Plug-In . SVG Version: 6.00 Build 0)  -->
<svg version="1.1" id="Layer_1" xmlns="http://www.w3.org/2000/svg" xmlns:xlink="http://www.w3.org/1999/xlink" x="0px" y="0px"
	 viewBox="0 0 25 28.2" style="enable-background:new 0 0 25 28.2;" xml:space="preserve">
<style type="text/css">
	.st0{stroke:#000000;stroke-miterlimit:10;}
</style>
<path d="M6.9,6.9c0-0.8,0-1.6,0.1-2.3C7.4,2,9.8,0,12.5,0c2.7,0,5.1,2,5.5,4.6c0.1,0.7,0.1,1.5,0.1,2.3c0.1,0,0.3,0,0.4,0
	c1,0,2,0,3,0c0.6,0,0.8,0.2,0.9,0.8c0.3,2.5,0.7,4.9,1,7.4c0.4,3.3,0.9,6.6,1.3,9.9c0.1,0.5,0.2,0.9,0.2,1.4c0,0.2,0,0.5-0.2,0.6
	c-0.3,0.4-0.6,0.7-1,1c-0.1,0.1-0.4,0.1-0.6,0.1c-7.2,0-14.4,0-21.5,0c-0.3,0-0.6-0.2-0.8-0.4c-1.2-1.1-1-0.8-0.8-2.2
	c0.4-3.5,0.9-7,1.4-10.6c0.3-2.4,0.6-4.9,1-7.3c0.1-0.7,0.3-0.8,0.9-0.8c1,0,2,0,3,0H6.9z M21.2,8.3c-0.1,0-0.2,0-0.2,0
	c-5.6,0-11.2,0-16.9,0c-0.3,0-0.4,0.2-0.4,0.4c-0.4,2.9-0.8,5.8-1.2,8.7c-0.4,2.8-0.8,5.7-1.1,8.5c-0.1,0.6,0.2,0.9,0.8,0.9
	c6.9,0,13.7,0,20.6,0c0.6,0,0.8-0.3,0.8-0.8c-0.2-1.3-0.4-2.7-0.5-4c-0.5-3.8-1-7.6-1.5-11.3C21.5,9.9,21.3,9.1,21.2,8.3 M16.8,6.9
	c0-0.5,0-1,0-1.5c-0.1-2.8-2.9-4.7-5.5-3.8C8.9,2.4,8,4.3,8.3,6.9H16.8z"/>
</svg>
