<?xml version="1.0" encoding="utf-8"?>
<!-- Generator: Adobe Illustrator 23.0.3, SVG Export Plug-In . SVG Version: 6.00 Build 0)  -->
<svg version="1.1" id="Layer_1" xmlns="http://www.w3.org/2000/svg" xmlns:xlink="http://www.w3.org/1999/xlink" x="0px" y="0px"
	 viewBox="0 0 26.5 27.7" style="enable-background:new 0 0 26.5 27.7;" xml:space="preserve">
<style type="text/css">
	.st0{stroke:#000000;stroke-miterlimit:10;}
</style>
<g>
	<path d="M13.5,0c0.7,0.1,1.3,0.5,1.8,1c0.4,0.4,0.8,0.8,1.2,1.2c0.3,0.3,0.6,0.4,0.9,0.3c0.7-0.1,1.4-0.2,2.1-0.3
		C21,2,22.1,2.9,22.4,4.4c0.1,0.7,0.2,1.3,0.3,2C22.8,6.7,23,7,23.3,7.1c0.6,0.3,1.2,0.6,1.9,1c1.3,0.7,1.7,2,1.1,3.3
		c-0.3,0.6-0.6,1.2-0.9,1.9c-0.2,0.4-0.2,0.7,0,1c0.3,0.6,0.6,1.2,0.9,1.8c0.7,1.4,0.2,2.7-1.1,3.4c-0.6,0.3-1.2,0.6-1.8,0.9
		c-0.4,0.2-0.5,0.4-0.6,0.8c-0.1,0.7-0.2,1.4-0.4,2.1c-0.3,1.5-1.4,2.2-2.9,2c-0.7-0.1-1.4-0.2-2.1-0.3c-0.3,0-0.6,0-0.8,0.3
		c-0.5,0.5-1,1-1.6,1.5c-1.1,1-2.4,1-3.5,0c-0.5-0.5-1-1-1.5-1.4c-0.3-0.3-0.6-0.4-1-0.3c-0.7,0.1-1.4,0.2-2.1,0.3
		c-1.5,0.2-2.6-0.7-2.8-2.2c-0.1-0.7-0.2-1.3-0.3-2c-0.1-0.4-0.2-0.6-0.6-0.8c-0.6-0.3-1.2-0.6-1.8-1c-1.3-0.7-1.8-2-1.1-3.4
		c0.3-0.6,0.6-1.2,0.9-1.8c0.2-0.4,0.2-0.7,0-1.1c-0.3-0.6-0.6-1.2-0.9-1.8c-0.6-1.3-0.2-2.6,1.1-3.3c0.6-0.3,1.2-0.7,1.8-1
		C3.6,7,3.7,6.7,3.8,6.3c0.1-0.7,0.2-1.4,0.4-2c0.3-1.5,1.5-2.3,2.9-2c0.7,0.1,1.4,0.2,2,0.3c0.3,0,0.6,0,0.8-0.3
		c0.4-0.4,0.9-0.8,1.3-1.2c0.5-0.5,1.1-0.9,1.8-1H13.5z M6.6,23.9c0.7-0.1,1.4-0.2,2.1-0.3c0.9-0.1,1.7,0.1,2.4,0.7
		c0.5,0.5,1,1,1.5,1.4c0.4,0.4,0.9,0.4,1.3,0c0.5-0.5,1-1,1.6-1.5c0.6-0.6,1.2-0.8,2-0.7c0.7,0.1,1.5,0.2,2.2,0.3
		c0.6,0.1,0.9-0.2,1-0.7c0.1-0.6,0.2-1.2,0.3-1.8c0.1-1.1,0.7-1.9,1.7-2.4c0.5-0.2,1-0.5,1.5-0.8c0.7-0.4,0.8-0.7,0.5-1.4
		c-0.3-0.6-0.6-1.2-0.9-1.8c-0.4-0.8-0.4-1.6,0-2.3c0.3-0.6,0.6-1.2,0.9-1.9c0.3-0.6,0.2-1-0.4-1.3c-0.6-0.3-1.2-0.7-1.8-1
		c-0.8-0.4-1.2-1.1-1.4-1.9c-0.1-0.7-0.2-1.4-0.4-2.1c-0.1-0.5-0.5-0.8-1-0.7c-0.7,0.1-1.4,0.2-2.1,0.3C16.8,4.2,16,4,15.4,3.3
		c-0.5-0.5-1-1-1.5-1.4c-0.4-0.4-0.9-0.4-1.3,0c-0.5,0.5-1,1-1.5,1.5C10.5,4,9.8,4.2,9,4.1C8.3,4,7.5,3.9,6.8,3.8
		C6.2,3.7,5.8,4,5.7,4.5C5.6,5.1,5.5,5.7,5.4,6.3C5.3,7.4,4.8,8.2,3.7,8.7c-0.5,0.2-1,0.5-1.6,0.8c-0.6,0.3-0.7,0.7-0.4,1.3
		c0.3,0.6,0.6,1.2,0.9,1.8C3,13.4,3,14.2,2.6,15c-0.3,0.6-0.6,1.2-0.9,1.9c-0.3,0.6-0.2,1,0.4,1.3c0.6,0.3,1.2,0.7,1.9,1
		c0.8,0.4,1.2,1.1,1.4,1.9c0.1,0.7,0.2,1.4,0.4,2.2C5.8,23.6,6.2,23.9,6.6,23.9"/>
	<path d="M8,19.9c-0.3,0-0.6-0.2-0.7-0.4c-0.1-0.3-0.1-0.6,0.1-0.8c0.1-0.1,0.1-0.2,0.2-0.2C11,15,14.4,11.6,17.8,8.1
		c0.2-0.2,0.4-0.4,0.7-0.4c0.3,0,0.6,0.1,0.7,0.4c0.1,0.3,0.1,0.6-0.1,0.8C19.1,9.1,19,9.2,19,9.3c-3.4,3.4-6.8,6.8-10.3,10.3
		C8.5,19.7,8.3,19.9,8,19.9"/>
	<path d="M10.1,12.5c-1.6,0-2.9-1.3-2.9-2.9c0-1.6,1.3-2.9,2.9-2.9C11.7,6.7,13,8,13,9.6C13,11.2,11.7,12.5,10.1,12.5 M10.1,8.3
		c-0.7,0-1.3,0.6-1.3,1.3c0,0.7,0.6,1.3,1.3,1.3c0.7,0,1.3-0.6,1.3-1.3C11.4,8.9,10.8,8.3,10.1,8.3"/>
	<path d="M16.5,15.2c1.6,0,2.9,1.3,2.9,2.9c0,1.6-1.3,2.9-2.9,2.9c-1.6,0-2.9-1.3-2.9-2.9C13.5,16.5,14.9,15.2,16.5,15.2 M16.4,19.4
		c0.7,0,1.3-0.6,1.3-1.3c0-0.7-0.6-1.3-1.3-1.3c-0.7,0-1.3,0.6-1.3,1.3C15.1,18.8,15.7,19.4,16.4,19.4"/>
</g>
</svg>
