<?xml version="1.0" encoding="utf-8"?>
<!-- Generator: Adobe Illustrator 23.0.3, SVG Export Plug-In . SVG Version: 6.00 Build 0)  -->
<svg version="1.1" id="Layer_1" xmlns="http://www.w3.org/2000/svg" xmlns:xlink="http://www.w3.org/1999/xlink" x="0px" y="0px"
	 viewBox="0 0 28.7 28.8" style="enable-background:new 0 0 28.7 28.8;" xml:space="preserve">
<style type="text/css">
	.st0{stroke:#000000;stroke-miterlimit:10;}
</style>
<g>
	<path d="M24,16.7c-0.7,0-1.3,0-2,0c-0.4,0-0.6-0.2-0.6-0.4c0-0.3,0.2-0.5,0.6-0.5c1.4,0,2.7,0,4.1,0c0.4,0,0.6,0.2,0.5,0.5
		c0,0.3-0.2,0.4-0.5,0.4C25.4,16.7,24.7,16.7,24,16.7"/>
	<path d="M22.8,18.5c-0.3,0-0.6,0-0.9,0c-0.3,0-0.5-0.2-0.5-0.4c0-0.3,0.2-0.4,0.5-0.4c0.6,0,1.2,0,1.8,0c0.3,0,0.5,0.2,0.5,0.4
		c0,0.3-0.2,0.4-0.5,0.5C23.4,18.5,23.1,18.5,22.8,18.5"/>
	<path d="M23.5,20.6c0.4,0.8,0.7,1.6,0.8,2.4c0.1,1,0.2,2.1,0,3.1c-0.3,1.4-1.6,2.5-3.1,2.6c-0.1,0-0.2,0-0.3,0
		c-5.8,0-11.5,0-17.3,0c-1.5,0-2.7-0.8-3.3-2.1c-0.2-0.4-0.2-0.9-0.3-1.3c-0.1-1.6,0.1-3.1,0.8-4.6C1.8,19,3.2,18.1,5,17.4
		c0.4-0.1,0.7-0.2,1.1-0.3c0.4-0.1,0.6,0,0.7,0.4c0.7,1.7,1.5,3.4,2.5,5c0.1,0.1,0.2,0.3,0.3,0.4c0.1-0.4,0.2-0.8,0.3-1.1
		c0.1-0.4,0.2-0.8,0.3-1.1c0.1-0.2,0.2-0.5-0.1-0.7c-0.1,0-0.1-0.2-0.1-0.3c0-0.7,0-1.4,0-2.2c0-0.4,0.1-0.5,0.5-0.5
		c1,0,2.1,0,3.1,0c0.4,0,0.5,0.2,0.5,0.5c0,0.7,0,1.5,0,2.2c0,0.1,0,0.2-0.1,0.3c-0.2,0.2-0.1,0.4-0.1,0.6c0.2,0.8,0.4,1.6,0.6,2.5
		c0.4-0.6,0.7-1.2,1-1.8c0.6-1.3,1.2-2.5,1.8-3.8c0.2-0.4,0.3-0.5,0.8-0.4c0.3,0.1,0.6,0.2,1,0.3V17c0-0.7,0-1.4,0-2.1
		c0-0.8,0.4-1.2,1.2-1.2c2.4,0,4.7,0,7.1,0c0.6,0,1.2,0.4,1.1,1.1c0,1.5,0,2.9,0,4.4c0,0.8-0.4,1.2-1.2,1.2c-1.2,0-2.4,0-3.6,0
		C23.7,20.5,23.6,20.6,23.5,20.6 M18.3,18c0,0.1-0.1,0.2-0.1,0.3c-0.7,1.4-1.4,2.9-2.2,4.3c-0.6,1.1-1.3,2.1-2.3,2.8
		c-0.9,0.7-1.9,0.8-2.9,0.1c-0.1-0.1-0.3-0.2-0.4-0.3c-0.5-0.6-1-1.2-1.5-1.8c-1.1-1.6-1.9-3.3-2.7-5.1C6.1,18.1,6,18,5.8,18.1
		c-0.4,0.2-0.9,0.3-1.3,0.5c-1.6,0.7-2.8,1.9-3.3,3.7c-0.3,1-0.3,2-0.3,3c0,1.4,1.1,2.5,2.7,2.5c5.7,0,11.4,0,17.2,0
		c0.1,0,0.2,0,0.3,0c1.2-0.1,2.2-1,2.3-2.2c0.1-0.9,0.1-1.8-0.1-2.7c-0.1-0.6-0.3-1.2-0.6-1.8c-0.4,0.3-0.8,0.7-1.2,0.9
		c-0.1,0.1-0.4,0.1-0.5,0.1c-0.1-0.1-0.2-0.3-0.2-0.4c0-0.1,0-0.2,0-0.3c0-0.3,0.1-0.7,0.1-1h-0.3c-0.9,0-1.3-0.4-1.3-1.3
		C19.3,18.3,19.3,18.3,18.3,18 M27.8,14.7h-1.4c-2,0-3.9,0-5.9,0c-0.3,0-0.4,0.1-0.4,0.3c0,0.3,0,0.6,0,0.9c0,0.7,0,1.4,0.1,2.1
		c0,0.4,0,0.9-0.1,1.3c0,0.2,0.1,0.3,0.3,0.3c0.3,0,0.5,0,0.8,0c0.4,0,0.6,0.2,0.6,0.6c0,0.2,0,0.4,0,0.6c0.4-0.3,0.8-0.6,1.2-1
		c0.2-0.2,0.5-0.3,0.7-0.3c1.2,0,2.5,0,3.7,0c0.3,0,0.4-0.1,0.4-0.4c0-1.4,0-2.9,0-4.3V14.7z M13.1,20.2c-0.6,0-1.2,0-1.7,0
		c-0.1,0-0.2,0.1-0.2,0.2c-0.3,1.1-0.5,2.2-0.8,3.3c0,0.1,0,0.2,0.1,0.3c0.4,0.3,0.7,0.7,1.1,1c0.4,0.3,0.8,0.2,1.2,0
		c0.4-0.3,0.7-0.6,1-0.9c0,0,0.1-0.1,0.1-0.2C13.7,22.7,13.4,21.5,13.1,20.2 M13.4,17.9H11v1.4h2.4V17.9z"/>
	<path d="M16.9,12.7c0.4,0,0.9,0,1.4,0c0.2,0,0.3-0.1,0.3-0.3c0-0.2,0-0.4,0-0.6c0,0-0.1,0-0.1,0c-0.7,0-0.7-0.2-0.7-0.8
		c0-1.1,0-2.2,0-3.3c0-0.7,0-0.7,0.7-0.8c-0.1-3.1-2.7-5.8-6.1-5.9c-3.9-0.2-6.5,3-6.6,5.9c0,0,0,0,0,0C6.5,6.9,6.5,7,6.5,7.6
		c0,1.2,0,2.4,0,3.6c0,0.5-0.1,0.6-0.6,0.6c-1.3,0-2.2-0.6-2.5-1.7C3.2,8.9,3.4,7.6,4.7,7c0.1,0,0.1-0.2,0.1-0.3
		c0.2-2.9,2.2-5.4,5-6.4c4.4-1.5,9,1.5,9.5,6.1c0,0.3,0.1,0.5,0.4,0.7c0.7,0.4,1.1,1,1.2,1.8c0,0.6,0,1.2-0.3,1.7
		c-0.2,0.4-0.6,0.7-1,0.9c-0.2,0.1-0.2,0.2-0.2,0.3c0,0.2,0,0.4,0,0.6c-0.1,0.7-0.5,1.1-1.2,1.1c-0.5,0-1.1,0-1.6,0
		c-0.2,0-0.4,0.1-0.5,0.3c-1,1.5-2.4,2.2-4.2,2.2c-2.5-0.1-4.6-2.2-4.7-4.7c0-2.1,0-4.3,0-6.4c0-0.9,0.5-1.5,1.4-1.7
		c2.4-0.6,4.8-0.6,7.2,0.1c0.7,0.2,1,0.7,1.2,1.4c0,0.2,0,0.4,0,0.6c0,1.8,0,3.7,0,5.5C17,11.3,16.9,12,16.9,12.7 M15.2,13.6
		c-0.6,0-1.1,0-1.6,0c-0.2,0-0.3,0.1-0.4,0.2c-0.3,0.6-1.1,0.9-1.7,0.6c-0.5-0.3-0.8-0.8-0.8-1.4c0.1-0.6,0.5-1.1,1.1-1.2
		c0.6-0.1,1.1,0.1,1.4,0.7c0.1,0.1,0.2,0.2,0.3,0.2c0.6,0,1.3,0,1.9,0c0.2,0,0.3-0.1,0.4-0.3c0.1-0.5,0.2-0.9,0.2-1.4
		c0-1.1,0-2.1,0-3.2c0-0.1,0-0.2,0-0.2c-1.7-0.2-1.7-0.2-2.5-0.8c-1.6,1-3.5,1.3-5.4,1.5c0,1,0,1.9,0,2.8c0,1.7,1.1,3.2,2.7,3.8
		C12.5,15.5,14.3,14.9,15.2,13.6 M16.1,6.7c0-0.7,0-1.3,0-2c0-0.3-0.2-0.6-0.5-0.7c-2.2-0.6-4.5-0.7-6.7,0C8.4,4.1,8.2,4.4,8.2,4.9
		c0,0.8,0,1.5,0,2.3c0,0.1,0,0.1,0,0.2C9.1,7.4,11,7,12,6.6c0.7-0.3,1.4-0.7,1.9-1.3c0.1-0.1,0.2-0.3,0.3-0.4c0.2-0.2,0.5-0.2,0.7,0
		c0.2,0.2,0.2,0.4,0,0.7c-0.2,0.2-0.4,0.5-0.6,0.7C14.8,6.8,15.5,6.7,16.1,6.7 M18.7,10.9c1,0,1.4-0.8,1.4-1.7
		c-0.1-0.8-0.4-1.3-1.4-1.4V10.9z M5.6,7.8c-1.2,0-1.5,0.9-1.4,1.9c0.1,0.7,0.7,1.3,1.4,1.2V7.8z M12.6,13.1c0-0.2-0.2-0.5-0.4-0.5
		c-0.2,0-0.5,0.2-0.5,0.4c0,0.2,0.2,0.4,0.4,0.5C12.4,13.6,12.6,13.4,12.6,13.1"/>
</g>
</svg>
