<?xml version="1.0" encoding="utf-8"?>
<!-- Generator: Adobe Illustrator 23.0.3, SVG Export Plug-In . SVG Version: 6.00 Build 0)  -->
<svg version="1.1" id="Layer_1" xmlns="http://www.w3.org/2000/svg" xmlns:xlink="http://www.w3.org/1999/xlink" x="0px" y="0px"
	 viewBox="0 0 25 25" style="enable-background:new 0 0 25 25;" xml:space="preserve">
<style type="text/css">
	.st0{stroke:#000000;stroke-miterlimit:10;}
</style>
<path d="M25,11.8v1.5c0,0.1,0,0.2,0,0.2c-0.1,1.1-0.3,2.2-0.7,3.3c-2.2,6-8.5,9.4-14.8,7.9c-6.4-1.6-10.5-8-9.3-14.5
	c0.5-2.5,1.6-4.6,3.4-6.4c1.9-1.9,4.1-3.1,6.7-3.5c0.5-0.1,0.9-0.1,1.4-0.2h1.5c0.3,0,0.7,0.1,1,0.1c2.5,0.3,4.6,1.3,6.5,3
	c2.2,1.9,3.6,4.4,4.1,7.2C24.9,10.8,24.9,11.3,25,11.8 M20.8,19.7c3.7-4.3,3.7-11.1-0.9-15.3C15.3,0.1,8.2,0.6,4.1,5.4
	c-4,4.7-3,10.9,0.1,14.3c0.4-1.4,1-2.6,1.9-3.6c0.9-1,2.1-1.8,3.4-2.3c-3.2-2.3-2.7-6.3-0.7-8.1c2.1-2,5.4-2,7.4,0
	c2,2,2.3,5.9-0.8,8.1C18.2,14.8,20,16.8,20.8,19.7 M12.7,23.5c0.2,0,0.7,0,1.2-0.1c2.1-0.2,4-1.1,5.6-2.4c0.1-0.1,0.1-0.2,0.1-0.3
	c-0.6-3.9-4.1-6.6-8-6.1c-3.2,0.4-5.7,2.9-6.1,6.1c0,0.1,0,0.2,0.1,0.2C7.6,22.7,9.9,23.5,12.7,23.5 M12.5,13.2
	c2.1,0,3.8-1.7,3.8-3.8c0-2.1-1.7-3.8-3.8-3.8c-2.1,0-3.8,1.7-3.8,3.8C8.7,11.5,10.4,13.2,12.5,13.2"/>
</svg>
