<?xml version="1.0" encoding="utf-8"?>
<!-- Generator: Adobe Illustrator 23.0.3, SVG Export Plug-In . SVG Version: 6.00 Build 0)  -->
<svg version="1.1" id="Layer_1" xmlns="http://www.w3.org/2000/svg" xmlns:xlink="http://www.w3.org/1999/xlink" x="0px" y="0px"
	 viewBox="0 0 15 15" style="enable-background:new 0 0 15 15;" xml:space="preserve">
<style type="text/css">
	.st0{fill:#231F20;}
</style>
<path class="st0" d="M15,7.1v0.9c0,0,0,0.1,0,0.1c0,0.7-0.2,1.3-0.4,2c-1.3,3.6-5.1,5.6-8.9,4.7C1.9,13.8-0.6,10,0.1,6.1
	c0.3-1.5,1-2.8,2-3.9c1.1-1.1,2.5-1.8,4-2.1C6.5,0.1,6.8,0,7.1,0h0.9c0.2,0,0.4,0,0.6,0.1c1.5,0.2,2.8,0.8,3.9,1.8
	c1.3,1.2,2.1,2.6,2.4,4.3C14.9,6.5,15,6.8,15,7.1 M12.5,11.8c2.2-2.6,2.2-6.7-0.6-9.2c-2.8-2.5-7-2.3-9.5,0.6
	C0.1,6,0.7,9.8,2.5,11.8c0.2-0.8,0.6-1.5,1.2-2.2C4.2,9,4.9,8.5,5.7,8.2C3.8,6.9,4.1,4.5,5.3,3.4c1.3-1.2,3.2-1.2,4.5,0
	c1.2,1.2,1.4,3.5-0.5,4.8C10.9,8.9,12,10.1,12.5,11.8 M7.6,14.1c0.1,0,0.4,0,0.7-0.1c1.3-0.1,2.4-0.6,3.4-1.4c0,0,0.1-0.1,0.1-0.2
	c-0.3-2.3-2.4-3.9-4.8-3.6C5,9.1,3.5,10.6,3.3,12.5c0,0,0,0.1,0.1,0.1C4.5,13.6,5.9,14.1,7.6,14.1 M7.5,7.9c1.3,0,2.3-1,2.3-2.3
	c0-1.2-1-2.3-2.3-2.3c-1.3,0-2.3,1-2.3,2.3C5.2,6.9,6.3,7.9,7.5,7.9"/>
</svg>
