<?xml version="1.0" encoding="utf-8"?>
<!-- Generator: Adobe Illustrator 23.0.3, SVG Export Plug-In . SVG Version: 6.00 Build 0)  -->
<svg version="1.1" id="Layer_1" xmlns="http://www.w3.org/2000/svg" xmlns:xlink="http://www.w3.org/1999/xlink" x="0px" y="0px"
	 viewBox="0 0 25 25" style="enable-background:new 0 0 25 25;" xml:space="preserve">
<style type="text/css">
	.st0{stroke:#000000;stroke-miterlimit:10;}
</style>
<path d="M24.5,11.7C20.7,7.9,17,4.1,13.2,0.3C13,0.2,12.9,0.1,12.7,0h-0.4c-0.1,0.1-0.3,0.2-0.4,0.3C8,4.2,4.2,8,0.3,11.9
	c-0.3,0.3-0.4,0.6-0.2,0.9c0.1,0.3,0.4,0.5,0.8,0.5h2.3v10.8C3.1,24.7,3.4,25,4,25h6c0.6,0,0.9-0.3,0.9-0.9v-4.5h3.1v4.5
	c0,0.6,0.3,0.9,0.9,0.9h5.9c0.7,0,1-0.3,1-1V13.3c0.7,0,1.4,0,2.1,0c0.5,0,0.8-0.1,1-0.6v-0.4C24.8,12.1,24.7,11.9,24.5,11.7z
	 M21.5,12c-0.1,0-0.3,0-0.4,0c-0.5,0-0.8,0.3-0.8,0.8v10.9h-4.7v-4.5c0-0.6-0.3-0.9-0.9-0.9c-1.5,0-3,0-4.5,0
	c-0.6,0-0.9,0.3-0.9,0.9v4.6H4.7V12.9c0-0.7-0.3-0.9-1-0.9h-1C6,8.8,9.3,5.5,12.5,2.3c3.2,3.2,6.5,6.5,9.7,9.7H21.5z"/>
</svg>
