<?xml version="1.0" encoding="utf-8"?>
<!-- Generator: Adobe Illustrator 23.0.3, SVG Export Plug-In . SVG Version: 6.00 Build 0)  -->
<svg version="1.1" id="Layer_1" xmlns="http://www.w3.org/2000/svg" xmlns:xlink="http://www.w3.org/1999/xlink" x="0px" y="0px"
	 viewBox="0 0 15 15.6" style="enable-background:new 0 0 15 15.6;" xml:space="preserve">
<style type="text/css">
	.st0{fill:#231F20;}
</style>
<g>
	<g>
		<path class="st0" d="M7.7,0c0.4,0.1,0.7,0.3,1,0.6C8.9,0.8,9.1,1,9.3,1.3c0.1,0.2,0.3,0.2,0.5,0.2c0.4-0.1,0.8-0.1,1.2-0.2
			c0.8-0.1,1.5,0.4,1.6,1.2c0.1,0.4,0.1,0.8,0.2,1.1c0,0.2,0.1,0.4,0.3,0.4c0.4,0.2,0.7,0.4,1.1,0.6c0.7,0.4,1,1.1,0.6,1.9
			c-0.2,0.4-0.3,0.7-0.5,1.1c-0.1,0.2-0.1,0.4,0,0.6c0.2,0.3,0.3,0.7,0.5,1c0.4,0.8,0.1,1.5-0.6,1.9c-0.3,0.2-0.7,0.4-1,0.5
			c-0.2,0.1-0.3,0.3-0.3,0.5c-0.1,0.4-0.1,0.8-0.2,1.2c-0.2,0.8-0.8,1.3-1.7,1.1c-0.4-0.1-0.8-0.1-1.2-0.2c-0.2,0-0.3,0-0.5,0.2
			c-0.3,0.3-0.6,0.6-0.9,0.8c-0.6,0.6-1.4,0.6-2,0c-0.3-0.3-0.6-0.5-0.8-0.8c-0.2-0.2-0.3-0.2-0.6-0.2c-0.4,0.1-0.8,0.1-1.2,0.2
			c-0.9,0.1-1.5-0.4-1.6-1.2c-0.1-0.4-0.1-0.7-0.2-1.1c0-0.2-0.1-0.3-0.3-0.4c-0.3-0.2-0.7-0.4-1-0.5c-0.7-0.4-1-1.2-0.6-1.9
			c0.2-0.3,0.3-0.7,0.5-1c0.1-0.2,0.1-0.4,0-0.6c-0.2-0.3-0.3-0.7-0.5-1C-0.2,5.7,0,5,0.8,4.6c0.3-0.2,0.7-0.4,1-0.5
			C2,3.9,2.1,3.8,2.2,3.6c0.1-0.4,0.1-0.8,0.2-1.2C2.5,1.6,3.2,1.1,4,1.3c0.4,0.1,0.8,0.1,1.1,0.2c0.2,0,0.3,0,0.5-0.2
			C5.9,1,6.1,0.8,6.3,0.6c0.3-0.3,0.6-0.5,1-0.6H7.7z M3.8,13.5c0.4-0.1,0.8-0.1,1.2-0.2c0.5-0.1,1,0,1.3,0.4
			c0.3,0.3,0.6,0.5,0.8,0.8c0.2,0.2,0.5,0.2,0.7,0c0.3-0.3,0.6-0.6,0.9-0.8c0.3-0.3,0.7-0.5,1.2-0.4c0.4,0.1,0.8,0.1,1.3,0.2
			c0.3,0,0.5-0.1,0.6-0.4c0.1-0.3,0.1-0.7,0.2-1c0.1-0.6,0.4-1.1,1-1.4c0.3-0.1,0.6-0.3,0.8-0.4c0.4-0.2,0.5-0.4,0.3-0.8
			c-0.2-0.3-0.3-0.7-0.5-1c-0.2-0.4-0.2-0.9,0-1.3c0.2-0.4,0.3-0.7,0.5-1.1c0.2-0.3,0.1-0.6-0.2-0.7c-0.3-0.2-0.7-0.4-1-0.5
			C12.3,4.6,12,4.2,12,3.7c-0.1-0.4-0.1-0.8-0.2-1.2c-0.1-0.3-0.3-0.4-0.6-0.4c-0.4,0.1-0.8,0.1-1.2,0.2c-0.5,0.1-1-0.1-1.3-0.4
			C8.4,1.6,8.1,1.3,7.9,1.1c-0.2-0.2-0.5-0.2-0.7,0C6.8,1.4,6.6,1.6,6.3,1.9C5.9,2.2,5.6,2.4,5.1,2.3C4.7,2.3,4.3,2.2,3.8,2.2
			c-0.3,0-0.5,0.1-0.6,0.4c-0.1,0.3-0.1,0.7-0.2,1C3,4.2,2.7,4.6,2.1,4.9C1.8,5,1.5,5.2,1.2,5.4C0.9,5.6,0.8,5.8,1,6.1
			c0.2,0.3,0.3,0.7,0.5,1c0.2,0.4,0.2,0.9,0,1.3C1.3,8.8,1.2,9.2,1,9.5c-0.2,0.3-0.1,0.6,0.2,0.7c0.3,0.2,0.7,0.4,1.1,0.6
			C2.7,11.1,3,11.4,3,11.9c0.1,0.4,0.1,0.8,0.2,1.2C3.3,13.4,3.5,13.5,3.8,13.5"/>
	</g>
	<path class="st0" d="M4.5,11.2c-0.2,0-0.3-0.1-0.4-0.2c-0.1-0.2-0.1-0.3,0-0.5c0,0,0.1-0.1,0.1-0.1c1.9-1.9,3.9-3.9,5.8-5.8
		c0.1-0.1,0.2-0.2,0.4-0.2c0.2,0,0.3,0.1,0.4,0.2c0.1,0.2,0.1,0.3,0,0.5c0,0-0.1,0.1-0.1,0.1C8.8,7.2,6.9,9.1,4.9,11
		C4.8,11.2,4.7,11.3,4.5,11.2"/>
	<path class="st0" d="M5.7,7.1C4.8,7.1,4,6.3,4,5.4c0-0.9,0.8-1.6,1.7-1.6c0.9,0,1.6,0.8,1.6,1.7C7.3,6.3,6.6,7.1,5.7,7.1 M5.7,4.7
		C5.3,4.7,5,5,4.9,5.4c0,0.4,0.3,0.8,0.8,0.8c0.4,0,0.7-0.3,0.7-0.7C6.4,5,6.1,4.7,5.7,4.7"/>
	<path class="st0" d="M9.3,8.6c0.9,0,1.7,0.7,1.6,1.7c0,0.9-0.8,1.6-1.7,1.6c-0.9,0-1.6-0.8-1.6-1.7C7.7,9.3,8.4,8.6,9.3,8.6
		 M9.3,11c0.4,0,0.7-0.3,0.8-0.7c0-0.4-0.3-0.8-0.8-0.8c-0.4,0-0.7,0.3-0.7,0.8C8.6,10.6,8.9,11,9.3,11"/>
</g>
</svg>
