<svg width="32" height="32" viewBox="0 0 32 32" fill="none" xmlns="http://www.w3.org/2000/svg">
<path d="M27.3617 2.66406H4.63307C3.5479 2.66406 2.66602 3.52497 2.66602 4.58699V27.4089C2.66602 28.471 3.5479 29.3333 4.63307 29.3333H27.3617C28.4491 29.3333 29.3345 28.471 29.3345 27.4089V4.58699C29.3345 3.52497 28.449 2.66406 27.3617 2.66406Z" fill="#007BB5"/>
<path d="M6.6167 12.6625H10.5761V25.3895H6.6167V12.6625ZM8.59751 6.33594C9.86283 6.33594 10.8901 7.3636 10.8901 8.62964C10.8901 9.89604 9.86283 10.9237 8.59751 10.9237C7.32714 10.9237 6.30273 9.89605 6.30273 8.62964C6.30273 7.3636 7.32713 6.33594 8.59751 6.33594Z" fill="white"/>
<path d="M13.0566 12.6615H16.8483V14.4014H16.9025C17.4299 13.4008 18.7205 12.3457 20.6449 12.3457C24.6499 12.3457 25.3901 14.9809 25.3901 18.4086V25.3885H21.4349V19.1993C21.4349 17.7235 21.4096 15.8248 19.3796 15.8248C17.3214 15.8248 17.0074 17.4334 17.0074 19.0937V25.3885H13.0566V12.6615V12.6615Z" fill="white"/>
</svg>