<svg width="28" height="24" viewBox="0 0 28 24" fill="none" xmlns="http://www.w3.org/2000/svg">
<path fill-rule="evenodd" clip-rule="evenodd" d="M12.9351 1.22021L13.5124 0.220215L14.0898 1.22021L17.7675 7.59021L17.8302 7.69876L17.8524 7.66021L18.4298 8.66022L22.1075 15.0302L22.1702 15.1388L22.1924 15.1002L22.7698 16.1002L26.4475 22.4702L27.0248 23.4702H25.8701H18.5147H18.3448H17.36H17.1901H9.8347H9.66484H8.68H8.51014H1.1547H0L0.57735 22.4702L4.25507 16.1002L4.83242 15.1002L4.85468 15.1388L4.91735 15.0302L8.59507 8.66022L9.17242 7.66021L9.19468 7.69877L9.25735 7.59021L12.9351 1.22021ZM9.70936 8.59021L9.74977 8.66022L13.4275 15.0302L13.4902 15.1388L13.5124 15.1002L13.5347 15.1388L13.5974 15.0302L17.2751 8.66022L17.3155 8.59021H17.1901H9.8347H9.70936ZM10.4121 7.59021L13.5124 2.22021L16.6128 7.59021H10.4121ZM21.5301 16.0302H21.6555L21.6151 16.1002L17.9373 22.4702L17.8524 22.6173L17.7675 22.4702L14.0898 16.1002L14.0494 16.0302H14.1747H21.5301ZM5.40977 16.1002L5.36936 16.0302H5.4947H12.8501H12.9755L12.9351 16.1002L9.25735 22.4702L9.17242 22.6173L9.08749 22.4702L5.40977 16.1002ZM9.17242 9.66021L6.07205 15.0302H12.2728L9.17242 9.66021ZM1.73205 22.4702L4.83242 17.1002L7.93279 22.4702H1.73205ZM10.4121 22.4702L13.5124 17.1002L16.6128 22.4702H10.4121ZM19.0921 22.4702L22.1924 17.1002L25.2928 22.4702H19.0921ZM17.8524 9.66021L14.7521 15.0302H20.9528L17.8524 9.66021Z" fill="url(#paint0_linear_760_15151)"/>
<defs>
<linearGradient id="paint0_linear_760_15151" x1="-0.0834099" y1="12.4123" x2="27.0666" y2="12.4061" gradientUnits="userSpaceOnUse">
<stop stop-color="#B48B3E"/>
<stop offset="0.520833" stop-color="#F0DA7A"/>
<stop offset="1" stop-color="#B58D40"/>
</linearGradient>
</defs>
</svg>
