<svg width="41" height="28" viewBox="0 0 41 28" fill="none" xmlns="http://www.w3.org/2000/svg">
<path d="M38.1396 4.83984H2.21973C1.08973 4.83984 0.179688 3.9298 0.179688 2.7998V2.0498C0.179688 0.919805 1.08973 0.00976562 2.21973 0.00976562H38.1396C39.2696 0.00976562 40.1797 0.919805 40.1797 2.0498V2.7998C40.1797 3.9198 39.2696 4.83984 38.1396 4.83984Z" fill="#0065F7"/>
<path d="M38.1396 16.4197H2.21973C1.08973 16.4197 0.179688 15.5096 0.179688 14.3796V13.6296C0.179688 12.4996 1.08973 11.5898 2.21973 11.5898H38.1396C39.2696 11.5898 40.1797 12.4996 40.1797 13.6296V14.3796C40.1797 15.5096 39.2696 16.4197 38.1396 16.4197Z" fill="#0065F7"/>
<path d="M38.1396 28.0098H2.21973C1.08973 28.0098 0.179688 27.0997 0.179688 25.9697V25.2197C0.179688 24.0897 1.08973 23.1797 2.21973 23.1797H38.1396C39.2696 23.1797 40.1797 24.0897 40.1797 25.2197V25.9697C40.1797 27.0997 39.2696 28.0098 38.1396 28.0098Z" fill="#0065F7"/>
</svg>
