<svg width="45" height="45" viewBox="0 0 45 45" fill="none" xmlns="http://www.w3.org/2000/svg">
<g opacity="0.56">
<path d="M14.3409 31.9798C13.9509 31.9798 13.5508 31.8296 13.2508 31.5296C12.6508 30.9296 12.6508 29.9499 13.2508 29.3499L30.0208 12.5799C30.6208 11.9799 31.6007 11.9799 32.2007 12.5799C32.8007 13.1799 32.8007 14.1596 32.2007 14.7596L15.4307 31.5296C15.1307 31.8296 14.7309 31.9798 14.3409 31.9798Z" fill="white"/>
</g>
<g opacity="0.56">
<path d="M31.1109 31.9798C30.7209 31.9798 30.3208 31.8296 30.0208 31.5296L13.2508 14.7596C12.6508 14.1596 12.6508 13.1799 13.2508 12.5799C13.8508 11.9799 14.8307 11.9799 15.4307 12.5799L32.2007 29.3499C32.8007 29.9499 32.8007 30.9296 32.2007 31.5296C31.9007 31.8296 31.5009 31.9798 31.1109 31.9798Z" fill="white"/>
</g>
<path d="M22.7197 44.1001C10.5697 44.1001 0.679688 34.2101 0.679688 22.0601C0.679688 9.91006 10.5697 0.0200195 22.7197 0.0200195C34.8697 0.0200195 44.7598 9.91006 44.7598 22.0601C44.7598 34.2101 34.8797 44.1001 22.7197 44.1001ZM22.7197 1.62012C11.4497 1.62012 2.27979 10.7901 2.27979 22.0601C2.27979 33.3301 11.4497 42.5 22.7197 42.5C33.9897 42.5 43.1597 33.3301 43.1597 22.0601C43.1597 10.7901 33.9997 1.62012 22.7197 1.62012Z" fill="white"/>
</svg>
