<svg width="19" height="17" viewBox="0 0 19 17" fill="none" xmlns="http://www.w3.org/2000/svg">
<path opacity="0.63" d="M18.311 6.37C18.051 3.16 15.901 1.50006 14.011 1.31006C13.731 1.28006 13.4609 1.27002 13.2109 1.27002C11.4209 1.27002 10.371 1.97 9.51099 2.87C8.65099 1.97 7.60104 1.27002 5.81104 1.27002C5.56104 1.27002 5.29099 1.28006 5.01099 1.31006C3.12099 1.49006 0.970937 3.16 0.710938 6.37V7.34998V7.41003C0.950937 10.48 3.32105 12.44 9.08105 16.47L9.51099 16.77L9.94092 16.47C15.7009 12.43 18.071 10.48 18.311 7.41003V6.43005V6.37Z" fill="#8597A0"/>
<path d="M18.0593 5.90002C17.8093 2.78002 15.7192 1.15998 13.8792 0.97998C13.6091 0.94998 13.3494 0.939941 13.0994 0.939941C11.3594 0.939941 10.3393 1.61999 9.50928 2.48999C8.66928 1.61999 7.64918 0.939941 5.90918 0.939941C5.65918 0.939941 5.39915 0.94998 5.12915 0.97998C3.28915 1.15998 1.19922 2.77002 0.949219 5.90002V6.84998V6.91003C1.17922 9.90003 3.48936 11.8 9.08936 15.72L9.50928 16.02L9.9292 15.72C15.5292 11.79 17.8293 9.90003 18.0693 6.91003V5.95996L18.0593 5.90002Z" fill="url(#paint0_linear_2602_6355)"/>
<path d="M13.8076 1.72009C13.5576 1.70009 13.3177 1.68018 13.0977 1.68018C11.3277 1.68018 10.4776 2.45011 9.50757 3.61011C8.53757 2.45011 7.68748 1.68018 5.91748 1.68018C5.69748 1.68018 5.45752 1.69009 5.20752 1.72009C3.67752 1.87009 1.8975 3.27008 1.6875 5.96008V6.86011C1.8875 9.44011 3.82758 11.1401 9.51758 15.1301C15.1976 11.1501 17.1477 9.44011 17.3477 6.86011V5.96008C17.1177 3.27008 15.3376 1.87009 13.8076 1.72009Z" fill="url(#paint1_linear_2602_6355)"/>
<path d="M13.8076 1.72009C13.5576 1.70009 13.3177 1.68018 13.0977 1.68018C11.3277 1.68018 10.4776 2.45011 9.50757 3.61011C8.53757 2.45011 7.68748 1.68018 5.91748 1.68018C5.69748 1.68018 5.45752 1.69009 5.20752 1.72009C3.67752 1.87009 1.8975 3.27008 1.6875 5.96008V6.41016C1.9075 3.72016 3.67752 2.32017 5.20752 2.17017C5.45752 2.15017 5.69748 2.13013 5.91748 2.13013C7.68748 2.13013 8.53757 2.90018 9.50757 4.06018C10.4776 2.90018 11.3277 2.13013 13.0977 2.13013C13.3177 2.13013 13.5576 2.14017 13.8076 2.17017C15.3376 2.32017 17.1176 3.72016 17.3276 6.41016V5.96008C17.1176 3.27008 15.3376 1.87009 13.8076 1.72009Z" fill="white"/>
<defs>
<linearGradient id="paint0_linear_2602_6355" x1="9.50538" y1="2.20785" x2="9.50538" y2="16.6179" gradientUnits="userSpaceOnUse">
<stop stop-color="#ED342E"/>
<stop offset="1" stop-color="#811517"/>
</linearGradient>
<linearGradient id="paint1_linear_2602_6355" x1="9.50368" y1="2.56477" x2="9.50368" y2="26.6268" gradientUnits="userSpaceOnUse">
<stop stop-color="#ED342E"/>
<stop offset="1" stop-color="#811517"/>
</linearGradient>
</defs>
</svg>
