<svg width="39" height="39" viewBox="0 0 39 39" fill="none" xmlns="http://www.w3.org/2000/svg">
<path d="M2.92651 9.64905H0.226562V15.1691H2.92651V9.64905ZM2.92651 16.859H0.226562V22.379H2.92651V16.859ZM2.92651 24.219H0.236572V29.739H2.92651V24.219ZM21.9766 0.708984H16.4565V3.40906H21.9766V0.708984ZM29.1865 3.01904V0.708984H23.6665V3.40906H28.7266C28.8766 3.27906 29.0265 3.13904 29.1865 3.01904ZM7.09668 3.40906V0.708984C3.29668 0.708984 0.226562 3.77898 0.226562 7.57898H2.92651C2.92651 5.27898 4.79668 3.40906 7.09668 3.40906ZM14.6167 0.708984H9.09668V3.40906H14.6167V0.708984ZM2.92651 31.649H0.236572C0.236572 35.449 3.30669 38.519 7.10669 38.519V35.819C4.79669 35.819 2.92651 33.949 2.92651 31.649ZM35.5066 29.749H38.2065V24.229H35.5066V29.749ZM35.5066 22.379H38.2065V16.859H35.5066V22.379ZM35.8167 15.1791H38.2065V12.099C37.3965 13.099 36.5966 14.1291 35.8167 15.1791ZM16.4565 38.609H21.9766V35.9091H16.4565V38.609ZM9.09668 38.609H14.6167V35.9091H9.09668V38.609ZM23.6565 38.609H29.1765V35.9091H23.6565V38.609ZM31.2566 35.819V38.519C35.0566 38.519 38.1265 35.449 38.1265 31.649H35.4265C35.4265 33.949 33.5666 35.819 31.2566 35.819Z" fill="#0070D6"/>
<path d="M29.3586 38.7791H23.4985V35.739H29.3586V38.7791ZM23.8386 38.439H29.0186V36.089H23.8386V38.439ZM22.1484 38.7791H16.2886V35.739H22.1484V38.7791ZM16.6284 38.439H21.8086V36.089H16.6284V38.439ZM14.7886 38.7791H8.92847V35.739H14.7886V38.7791ZM9.26855 38.439H14.4485V36.089H9.26855V38.439ZM31.0886 38.699V35.6591H31.2585C33.4585 35.6591 35.2585 33.8591 35.2585 31.6591V31.489H38.2986V31.6591C38.2986 35.5391 35.1385 38.699 31.2585 38.699H31.0886ZM31.4285 35.989V38.349C34.9885 38.259 37.8685 35.379 37.9585 31.829H35.5986C35.5086 34.079 33.6885 35.899 31.4285 35.989ZM7.26855 38.699H7.09863C3.21863 38.699 0.0585938 35.5391 0.0585938 31.6591V31.489H3.08862V31.6591C3.09862 33.8591 4.89862 35.6591 7.08862 35.6591H7.25854L7.26855 38.699ZM0.408447 31.819C0.498447 35.379 3.37847 38.249 6.92847 38.349V35.989C4.67847 35.899 2.85854 34.079 2.75854 31.819H0.408447ZM38.3784 29.9091H35.3386V24.0491H38.3784V29.9091ZM35.6785 29.579H38.0286V24.399H35.6785V29.579ZM3.09863 29.9091H0.0585938V24.0491H3.09863V29.9091ZM0.398438 29.579H2.74854V24.399H0.398438V29.579ZM38.3784 22.5491H35.3386V16.689H38.3784V22.5491ZM35.6785 22.209H38.0286V17.0291H35.6785V22.209ZM3.09863 22.5491H0.0585938V16.689H3.09863V22.5491ZM0.398438 22.209H2.74854V17.0291H0.398438V22.209ZM38.3784 15.339H35.4685L35.6785 15.069C36.4285 14.079 37.2386 13.039 38.0686 11.979L38.3784 11.599V15.339ZM36.1484 15.009H38.0286V12.589C37.3886 13.399 36.7484 14.219 36.1484 15.009ZM3.09863 15.339H0.0585938V9.479H3.09863V15.339ZM0.398438 15.009H2.75854V9.82898H0.398438V15.009ZM3.09863 7.75903H0.0585938V7.58899C0.0585938 3.69899 3.21863 0.549072 7.09863 0.549072H7.26855V3.58899H7.09863C4.89863 3.58899 3.09863 5.38899 3.09863 7.58899V7.75903ZM0.398438 7.40906H2.75854C2.84854 5.14906 4.66847 3.32901 6.92847 3.23901V0.879028C3.37847 0.979028 0.498438 3.84906 0.398438 7.40906ZM28.7886 3.57898H23.4885V0.539062H29.3486V3.08899L29.2886 3.13904C29.1386 3.26904 28.9786 3.40906 28.8286 3.53906L28.7886 3.57898ZM23.8386 3.23901H28.6685C28.7885 3.13901 28.8986 3.03908 29.0186 2.92908V0.869019H23.8386V3.23901ZM22.1484 3.57898H16.2886V0.539062H22.1484V3.57898ZM16.6284 3.23901H21.8086V0.889038H16.6284V3.23901ZM14.7886 3.57898H8.92847V0.539062H14.7886V3.57898ZM9.26855 3.23901H14.4485V0.889038H9.26855V3.23901Z" fill="#0070D6"/>
<path d="M9.20569 35.9485V38.6484H14.7257V35.9485H9.20569ZM16.4156 35.9485V38.6484L21.9357 38.6484V35.9485L16.4156 35.9485ZM23.7756 35.9485V38.6384H29.2957V35.9485H23.7756ZM0.265625 16.8984L0.265625 22.4185H2.9657L2.9657 16.8984H0.265625ZM2.57568 9.68848H0.265625L0.265625 15.2085H2.9657L2.9657 10.1484C2.8357 9.99844 2.69568 9.84848 2.57568 9.68848ZM2.9657 31.7783H0.265625C0.265625 35.5783 3.33562 38.6484 7.13562 38.6484L7.13562 35.9485C4.83562 35.9485 2.9657 34.0783 2.9657 31.7783ZM0.265625 24.2583L0.265625 29.7783H2.9657L2.9657 24.2583H0.265625ZM31.2057 35.9485V38.6384C35.0057 38.6384 38.0757 35.5683 38.0757 31.7683H35.3756C35.3756 34.0783 33.5057 35.9485 31.2057 35.9485ZM29.3057 3.36841V0.668459H23.7856V3.36841H29.3057ZM21.9357 3.36841V0.668459L16.4156 0.668459V3.36841L21.9357 3.36841ZM14.7357 3.05835V0.668459H11.6556C12.6556 1.47846 13.6857 2.27835 14.7357 3.05835ZM38.1656 22.4185L38.1656 16.8984H35.4657L35.4657 22.4185H38.1656ZM38.1656 29.7783V24.2583H35.4657V29.7783H38.1656ZM38.1656 15.2185V9.69849H35.4657V15.2185H38.1656ZM35.3756 7.61841H38.0757C38.0757 3.81841 35.0057 0.748537 31.2057 0.748537V3.44849C33.5057 3.44849 35.3756 5.30841 35.3756 7.61841Z" fill="#0070D6"/>
<path d="M38.3376 9.51831V15.3784H35.2976V9.51831H38.3376ZM37.9976 15.0383V9.8584H35.6476V15.0383H37.9976ZM38.3376 16.7285L38.3376 22.5884H35.2976L35.2976 16.7285H38.3376ZM37.9976 22.2485L37.9976 17.0684H35.6476L35.6476 22.2485H37.9976ZM38.3376 24.0884V29.9485H35.2976V24.0884H38.3376ZM37.9976 29.6084V24.4285H35.6476V29.6084H37.9976ZM38.2576 7.78833H35.2176V7.61841C35.2176 5.41841 33.4176 3.61841 31.2176 3.61841H31.0476V0.578371H31.2176C35.0976 0.578371 38.2576 3.73841 38.2576 7.61841V7.78833ZM35.5476 7.44849H37.9076C37.8176 3.88849 34.9376 1.00846 31.3876 0.918459V3.27832C33.6376 3.36832 35.4576 5.18849 35.5476 7.44849ZM38.2576 31.6084V31.7783C38.2576 35.6583 35.0976 38.8184 31.2176 38.8184H31.0476V35.7883H31.2176C33.4176 35.7783 35.2176 33.9783 35.2176 31.7883V31.6184L38.2576 31.6084ZM31.3776 38.4685C34.9376 38.3785 37.8076 35.4985 37.9076 31.9485H35.5476C35.4576 34.1985 33.6376 36.0184 31.3776 36.1184V38.4685ZM29.4676 0.498537V3.53833H23.6077V0.498537H29.4676ZM29.1376 3.19849V0.848391H23.9576V3.19849H29.1376ZM29.4676 35.7783V38.8184H23.6077V35.7783H29.4676ZM29.1376 38.4785V36.1284H23.9576V38.4785H29.1376ZM22.1077 0.498537V3.53833L16.2476 3.53833V0.498537L22.1077 0.498537ZM21.7676 3.19849V0.848391L16.5876 0.848391V3.19849L21.7676 3.19849ZM22.1077 35.7783V38.8184L16.2476 38.8184V35.7783L22.1077 35.7783ZM21.7676 38.4785V36.1284L16.5876 36.1284V38.4785L21.7676 38.4785ZM14.8976 0.498537V3.40845L14.6276 3.19849C13.6376 2.44849 12.5976 1.63835 11.5376 0.808352L11.1576 0.498537H14.8976ZM14.5676 2.72852V0.848391H12.1476C12.9576 1.48839 13.7776 2.12852 14.5676 2.72852ZM14.8976 35.7783V38.8184H9.0376V35.7783H14.8976ZM14.5676 38.4785V36.1184H9.38757V38.4785H14.5676ZM7.31763 35.7783L7.31763 38.8184H7.14758C3.25758 38.8184 0.107666 35.6583 0.107666 31.7783L0.107666 31.6084H3.14758V31.7783C3.14758 33.9783 4.94758 35.7783 7.14758 35.7783H7.31763ZM6.96765 38.4785L6.96765 36.1184C4.70765 36.0284 2.88761 34.2085 2.79761 31.9485H0.437622C0.537622 35.4985 3.40765 38.3785 6.96765 38.4785ZM3.13757 10.0884L3.13757 15.3884H0.0976563L0.0976563 9.52832H2.64758L2.69763 9.58838C2.82763 9.73838 2.96766 9.89834 3.09766 10.0483L3.13757 10.0884ZM2.79761 15.0383L2.79761 10.2085C2.69761 10.0885 2.59767 9.9784 2.48767 9.8584H0.427612L0.427612 15.0383H2.79761ZM3.13757 16.7285L3.13757 22.5884H0.0976563L0.0976563 16.7285H3.13757ZM2.79761 22.2485L2.79761 17.0684H0.447632L0.447632 22.2485H2.79761ZM3.13757 24.0884L3.13757 29.9485H0.0976563L0.0976563 24.0884H3.13757ZM2.79761 29.6084L2.79761 24.4285H0.447632L0.447632 29.6084H2.79761Z" fill="#0070D6"/>
</svg>
