<svg width="13" height="12" viewBox="0 0 13 12" fill="none" xmlns="http://www.w3.org/2000/svg">
<path d="M10.1489 3.75966C9.92891 3.84966 9.69896 3.92009 9.45896 3.95009C9.56896 3.93009 9.72905 3.7298 9.79905 3.6498C9.89905 3.5298 9.97903 3.38988 10.029 3.22988C10.029 3.22988 10.039 3.21986 10.039 3.20986C10.039 3.19986 10.039 3.19984 10.029 3.18984C10.019 3.18984 10.019 3.18984 10.009 3.18984C9.99901 3.18984 9.99899 3.18984 9.98899 3.18984C9.72899 3.32984 9.45893 3.4299 9.17893 3.4999C9.16893 3.4999 9.15891 3.4999 9.14891 3.4999C9.13891 3.4999 9.12912 3.48988 9.11912 3.47988C9.09912 3.44988 9.06905 3.43005 9.04905 3.41005C8.92905 3.31005 8.79891 3.22982 8.65892 3.16982C8.46891 3.08982 8.25906 3.05972 8.05906 3.06972C7.85906 3.07972 7.65899 3.13988 7.48899 3.22988C7.30899 3.31988 7.14903 3.44976 7.02903 3.60976C6.89903 3.76976 6.799 3.96005 6.749 4.16005C6.709 4.35005 6.69898 4.55013 6.72898 4.74013C6.72898 4.77013 6.72895 4.77992 6.69895 4.76992C5.57895 4.59992 4.65892 4.21 3.90891 3.35C3.87891 3.31 3.85908 3.31 3.82908 3.35C3.49908 3.84 3.65907 4.62992 4.06907 5.01992C4.12907 5.06992 4.17899 5.11982 4.23899 5.16982C4.04899 5.15982 3.86895 5.10992 3.69895 5.01992C3.66895 4.99992 3.64891 5.0097 3.64891 5.0497C3.64891 5.0997 3.64891 5.15986 3.65891 5.20986C3.68891 5.45986 3.78895 5.6998 3.94895 5.8998C4.10895 6.0998 4.30905 6.26 4.54905 6.35C4.60905 6.37 4.66898 6.3898 4.72898 6.3998C4.55898 6.4398 4.37895 6.43982 4.19895 6.41982C4.15895 6.40982 4.14891 6.43011 4.15891 6.47011C4.38892 7.10011 4.89902 7.2898 5.26902 7.3998C5.31902 7.4098 5.36892 7.40982 5.41892 7.41982C5.41892 7.41982 5.40892 7.42007 5.40892 7.43007C5.28892 7.62007 4.84891 7.75998 4.64891 7.82998C4.27891 7.95998 3.889 8.00988 3.499 7.97988C3.439 7.96988 3.42891 7.96988 3.39891 7.97988C3.37891 7.98988 3.39892 8.00992 3.41892 8.01992C3.49892 8.06992 3.57891 8.12006 3.65891 8.16006C3.89891 8.29006 4.15893 8.39988 4.42893 8.47988C5.80893 8.85988 7.36892 8.5797 8.40892 7.5497C9.22892 6.7397 9.50901 5.6199 9.50901 4.4999C9.50901 4.4599 9.55909 4.43005 9.58909 4.41005C9.79909 4.25005 9.97889 4.06 10.1289 3.85C10.1489 3.82 10.1689 3.78013 10.1689 3.74013C10.1689 3.74013 10.1689 3.74966 10.1489 3.75966Z" fill="white"/>
<path d="M6.58105 11.46C3.48105 11.46 0.960938 8.93984 0.960938 5.83984C0.960938 2.73984 3.48105 0.220215 6.58105 0.220215C9.68106 0.220215 12.2009 2.73984 12.2009 5.83984C12.2009 8.93984 9.68106 11.46 6.58105 11.46ZM6.58105 0.740234C3.77105 0.740234 1.49097 3.03008 1.49097 5.83008C1.49097 8.63008 3.77105 10.9199 6.58105 10.9199C9.39105 10.9199 11.6709 8.63008 11.6709 5.83008C11.6709 3.03008 9.39105 0.740234 6.58105 0.740234Z" fill="#466DB4"/>
</svg>
