<svg width="71" height="71" viewBox="0 0 71 71" fill="none" xmlns="http://www.w3.org/2000/svg">
<path d="M56.8582 29.72C56.8582 28.47 56.6182 27.2301 56.1282 26.0701C55.6482 24.9101 54.9482 23.86 54.0582 22.97C53.1682 22.08 52.1181 21.3799 50.9581 20.8999C49.7981 20.4199 48.5582 20.1699 47.2982 20.1699H22.8882C21.6382 20.1699 20.3881 20.4199 19.2281 20.8999C18.0681 21.3799 17.0182 22.08 16.1282 22.97C15.2382 23.86 14.5382 24.9101 14.0582 26.0701C13.5782 27.2301 13.3281 28.47 13.3281 29.72V41.0701C13.3281 42.3201 13.5782 43.56 14.0582 44.72C14.5382 45.88 15.2382 46.9301 16.1282 47.8201C17.0182 48.7101 18.0681 49.4099 19.2281 49.8899C20.3881 50.3699 21.6282 50.6201 22.8782 50.6101H47.2882C48.5382 50.6101 49.7881 50.3599 50.9481 49.8899C52.1081 49.4099 53.1582 48.7101 54.0482 47.8201C54.9382 46.9301 55.6382 45.88 56.1182 44.72C56.5982 43.56 56.8481 42.3201 56.8481 41.0701V29.72H56.8582ZM42.5082 36.24L31.5582 41.6499C31.1282 41.8899 29.6782 41.5701 29.6782 41.0901V29.99C29.6782 29.49 31.1482 29.1799 31.5582 29.4199L42.0282 35.1201C42.4682 35.3701 42.9482 36 42.5082 36.24Z" fill="white"/>
<path d="M35.11 70.1399C54.2246 70.1399 69.72 54.6446 69.72 35.53C69.72 16.4155 54.2246 0.919922 35.11 0.919922C15.9954 0.919922 0.5 16.4155 0.5 35.53C0.5 54.6446 15.9954 70.1399 35.11 70.1399Z" stroke="white" stroke-miterlimit="10"/>
</svg>
