<svg width="71" height="71" viewBox="0 0 71 71" fill="none" xmlns="http://www.w3.org/2000/svg">
<path d="M44.4709 38.3799L45.921 28.8899H36.811V22.73C36.811 20.13 38.081 17.5901 42.171 17.5901H46.3209V9.53003C43.8909 9.13003 41.4309 8.91988 38.9709 8.87988C31.4709 8.87988 26.561 13.4299 26.561 21.6699V28.8999H18.2109V38.3899H26.551V61.3401C29.961 61.8601 33.4209 61.8601 36.8309 61.3401V38.3899H44.4709V38.3799Z" fill="white"/>
<path d="M35.11 69.8999C54.2246 69.8999 69.72 54.4046 69.72 35.29C69.72 16.1755 54.2246 0.679932 35.11 0.679932C15.9954 0.679932 0.5 16.1755 0.5 35.29C0.5 54.4046 15.9954 69.8999 35.11 69.8999Z" stroke="white" stroke-miterlimit="10"/>
</svg>
