<svg width="71" height="71" viewBox="0 0 71 71" fill="none" xmlns="http://www.w3.org/2000/svg">
<path fill-rule="evenodd" clip-rule="evenodd" d="M43.4303 26.5701C46.8003 28.9701 50.8302 30.26 54.9702 30.25V23.74C52.6202 23.23 50.5002 22 48.8802 20.23C47.5002 19.37 46.3102 18.2299 45.4002 16.8799C44.4902 15.5299 43.8702 14.0099 43.5902 12.4099H37.5603V45.46C37.5503 46.92 37.0802 48.33 36.2202 49.51C35.3602 50.69 34.1602 51.57 32.7802 52.03C31.4002 52.49 29.9102 52.5101 28.5102 52.0901C27.1202 51.6701 25.8902 50.8199 25.0002 49.6599C23.6002 48.9499 22.4703 47.7901 21.8103 46.3601C21.1503 44.9301 20.9802 43.33 21.3502 41.8C21.7102 40.27 22.5803 38.9099 23.8103 37.9299C25.0403 36.9499 26.5702 36.4199 28.1402 36.4099C28.8602 36.4099 29.5802 36.52 30.2602 36.74V30.1599C27.2802 30.2199 24.3702 31.1501 21.9102 32.8401C19.4502 34.5301 17.5302 36.8999 16.4002 39.6599C15.2702 42.4199 14.9702 45.4499 15.5502 48.3799C16.1202 51.3099 17.5402 54.0099 19.6302 56.1399C21.9402 57.6899 24.6202 58.58 27.3902 58.72C30.1602 58.86 32.9202 58.2399 35.3702 56.9399C37.8202 55.6299 39.8702 53.6901 41.3002 51.3101C42.7302 48.9301 43.4902 46.2099 43.4902 43.4299L43.4303 26.5701Z" fill="white"/>
<path d="M35.11 70.2C54.2246 70.2 69.72 54.7047 69.72 35.5901C69.72 16.4755 54.2246 0.97998 35.11 0.97998C15.9954 0.97998 0.5 16.4755 0.5 35.5901C0.5 54.7047 15.9954 70.2 35.11 70.2Z" stroke="white" stroke-miterlimit="10"/>
</svg>
