<svg width="71" height="71" viewBox="0 0 71 71" fill="none" xmlns="http://www.w3.org/2000/svg">
<path d="M58.1304 22.4098C56.7104 23.0098 55.2303 23.4398 53.7003 23.6598C54.4003 23.5398 55.4504 22.2499 55.8804 21.7299C56.5304 20.9299 57.0304 20.02 57.3504 19.04C57.3804 19.01 57.3904 18.9698 57.3904 18.9198C57.3904 18.8798 57.3804 18.84 57.3504 18.8C57.3104 18.78 57.2704 18.7699 57.2304 18.7699C57.1904 18.7699 57.1504 18.78 57.1104 18.8C55.4504 19.68 53.6804 20.35 51.8604 20.8C51.8004 20.82 51.7304 20.82 51.6704 20.8C51.6104 20.78 51.5504 20.7499 51.5004 20.6999C51.3604 20.5299 51.2004 20.3699 51.0404 20.2299C50.2804 19.5799 49.4204 19.0499 48.5004 18.6799C47.2604 18.1799 45.9304 17.96 44.6004 18.05C43.3104 18.14 42.0504 18.49 40.9004 19.09C39.7504 19.69 38.7304 20.52 37.9104 21.53C37.0604 22.57 36.4504 23.79 36.1304 25.1C35.8504 26.34 35.8204 27.62 36.0304 28.87C36.0304 29.08 36.0304 29.11 35.8504 29.08C28.6404 28.01 22.6604 25.4298 17.8104 19.8998C17.6004 19.6598 17.5003 19.6598 17.3203 19.8998C15.2003 23.0798 16.2304 28.1899 18.8804 30.7099C19.2404 31.0399 19.6004 31.3699 19.9904 31.6799C18.7804 31.5899 17.5904 31.2599 16.5104 30.7099C16.3004 30.5699 16.1904 30.6498 16.1704 30.8898C16.1604 31.2298 16.1804 31.5798 16.2304 31.9198C16.4404 33.5398 17.0903 35.0798 18.0903 36.3798C19.0903 37.6698 20.4203 38.68 21.9403 39.29C22.3103 39.45 22.6903 39.5698 23.0903 39.6398C21.9703 39.8698 20.8104 39.8999 19.6704 39.7499C19.4304 39.6999 19.3304 39.83 19.4304 40.06C20.9304 44.15 24.1804 45.38 26.6104 46.07C26.9404 46.13 27.2403 46.1299 27.5803 46.1999C27.5803 46.1999 27.5404 46.1999 27.5204 46.2599C26.7204 47.5199 23.9204 48.4 22.6204 48.86C20.2404 49.71 17.7004 50.03 15.1804 49.81C14.7804 49.75 14.7004 49.75 14.5504 49.81C14.4104 49.87 14.5504 49.97 14.6804 50.08C15.1804 50.41 15.7004 50.7099 16.2304 50.9999C17.8104 51.8599 19.4803 52.55 21.2003 53.05C30.1403 55.51 40.2004 53.68 46.9104 47.03C52.1904 41.8 54.0404 34.58 54.0404 27.35C54.0404 27.07 54.3703 26.9199 54.5703 26.7699C55.9103 25.7299 57.0803 24.5098 58.0703 23.1298C58.2303 22.9298 58.3104 22.6799 58.3004 22.4299C58.3104 22.2899 58.3104 22.3298 58.1304 22.4098Z" fill="white"/>
<path d="M35.11 70.4199C54.2246 70.4199 69.72 54.9246 69.72 35.8101C69.72 16.6955 54.2246 1.19995 35.11 1.19995C15.9954 1.19995 0.5 16.6955 0.5 35.8101C0.5 54.9246 15.9954 70.4199 35.11 70.4199Z" stroke="white" stroke-miterlimit="10"/>
</svg>
