<svg width="71" height="72" viewBox="0 0 71 72" fill="none" xmlns="http://www.w3.org/2000/svg">
<path fill-rule="evenodd" clip-rule="evenodd" d="M9.99113 33.9699L44.2511 19.56C46.6411 18.52 50.6811 16.7599 53.1211 17.4599C55.1811 18.0599 54.1711 21.65 53.8611 23.57L49.1812 51.6999C48.4512 56.1399 46.5712 58.1001 41.6712 54.8601L28.0811 45.28C28.0811 45.28 26.8812 43.2999 29.5212 41.1999L41.2611 28.77C45.5511 24.23 44.7311 25.2199 40.2511 27.9799L22.6211 38.7499C19.8511 40.4699 17.5812 40.0799 14.3012 39.1899L9.12113 37.7299C5.94113 36.8499 7.17112 35.1699 9.98112 33.9999V33.9699H9.99113Z" fill="white"/>
<path d="M35.11 70.6399C54.2246 70.6399 69.72 55.1446 69.72 36.03C69.72 16.9155 54.2246 1.41992 35.11 1.41992C15.9954 1.41992 0.5 16.9155 0.5 36.03C0.5 55.1446 15.9954 70.6399 35.11 70.6399Z" stroke="white" stroke-miterlimit="10"/>
</svg>
