<svg width="22" height="17" viewBox="0 0 22 17" fill="none" xmlns="http://www.w3.org/2000/svg">
<path d="M19.2087 14.2003H2.71875V2.36035H11.4688V0.610352H0.96875V15.9503H20.9587V10.6104H19.2087V14.2003ZM14.9688 0.610352L16.9187 2.56042L12.2388 7.24036L14.3787 9.38037L19.0588 4.70032L20.9688 6.61035V0.620361H14.9688V0.610352Z" fill="white"/>
<path d="M21.0386 16.0203H0.898438V0.530273H11.5386V2.4303H2.78857V14.1302H19.1384V10.5403H21.0386V16.0203ZM1.03857 15.8802H20.8884V10.6902H19.2786V14.2803H2.63843V2.29028H11.3884V0.680298H1.03857V15.8802ZM14.3784 9.47021L12.1384 7.23022L16.8186 2.55029L14.7986 0.530273H21.0386V6.77026L19.0586 4.79028L14.3784 9.47021ZM12.3386 7.23022L14.3687 9.26025L19.0486 4.5802L20.8884 6.42029V0.670288H15.1384L17.0085 2.54028L12.3386 7.23022Z" fill="white"/>
</svg>
