<svg width="99" height="78" viewBox="0 0 99 78" fill="none" xmlns="http://www.w3.org/2000/svg">
<path d="M10.2921 76.8799L9.83204 76.8198C9.54204 76.7798 9.33208 76.51 9.37208 76.21L19.0421 4.47021C19.0821 4.18021 19.352 3.96976 19.652 4.00976L20.1122 4.06982C20.4022 4.10982 20.6122 4.38018 20.5722 4.68018L10.9021 76.4199C10.8521 76.7099 10.5821 76.9199 10.2921 76.8799Z" fill="#D58C48"/>
<path d="M39.242 76.8799L39.7019 76.8198C39.9919 76.7798 40.2019 76.51 40.1619 76.21L30.492 4.47021C30.452 4.18021 30.1818 3.96976 29.8818 4.00976L29.4219 4.06982C29.1319 4.10982 28.9219 4.38018 28.9619 4.68018L38.6318 76.4199C38.6718 76.7099 38.952 76.9199 39.242 76.8799Z" fill="#D58C48"/>
<path d="M24.7622 67.0298C24.3322 67.0298 23.9922 66.6798 23.9922 66.2598V0.759766C23.9922 0.339766 24.3422 -0.00976562 24.7622 -0.00976562C25.1922 -0.00976562 25.5322 0.339766 25.5322 0.759766V66.2598C25.5422 66.6798 25.1922 67.0298 24.7622 67.0298Z" fill="#D58C48"/>
<path d="M21.3006 72.2596L20.8406 72.2401C20.5406 72.2201 20.3106 71.9697 20.3206 71.6697L21.9605 43.4197C21.9705 43.1197 22.2306 42.8897 22.5306 42.8997L22.9905 42.9197C23.2905 42.9397 23.5206 43.1901 23.5106 43.4901L21.8707 71.7401C21.8507 72.0401 21.6006 72.2796 21.3006 72.2596Z" fill="#BA6328"/>
<path d="M9.93359 64.52C9.93359 64.09 10.2835 63.75 10.7035 63.75H38.8136C39.2436 63.75 39.5836 64.1 39.5836 64.52C39.5836 64.94 39.2336 65.29 38.8136 65.29H10.7035C10.2835 65.3 9.93359 64.95 9.93359 64.52Z" fill="#E5AF78"/>
<path d="M42.1405 54.3101H7.39062V55.6099H42.1405V54.3101Z" fill="#D58C48"/>
<path d="M49.3005 6.08984H0.730469V54.71H49.3005V6.08984Z" fill="#00A9C4"/>
<path d="M48.8206 28.9503C49.0006 29.0003 49.1305 29.07 49.3005 29.15V40.6002H0.730469V26.1203C1.18047 26.0803 1.75053 26.2599 2.42053 26.7799C-0.579468 22.8099 3.27047 18.67 6.86047 19.13C5.68047 18.9 4.30044 16.6502 7.58044 17.0602C4.77044 15.5102 6.73044 12.8203 8.95044 15.9303C8.56044 7.82031 23.6604 5.48024 25.6304 12.3502C26.4104 10.1102 32.6205 7.36035 34.7305 12.9704C38.5805 4.45035 47.3805 11.1502 42.5505 16.0402C49.4105 15.5202 50.3106 21.1203 44.0906 21.3703C45.4006 22.2303 45.8106 23.9701 42.8506 23.6701C44.2206 24.3601 44.5205 26.5403 43.2905 27.4103C45.5305 25.7803 48.6706 25.9203 48.8206 28.9503Z" fill="#20B6CE"/>
<path d="M49.3119 28.44C49.0219 26.4 47.5718 24.8902 45.4918 26.3502C46.2218 22.3002 42.5419 19.5599 40.0519 22.5699C40.1519 16.2399 30.6919 16.5299 30.1019 21.8399C28.0419 18.6499 26.2319 21.1199 26.8519 23.2999C23.8719 20.7099 19.8319 23.7999 20.3519 26.0899C18.5919 22.0399 15.5719 23.55 14.1219 26.36C13.9119 22.21 10.3819 24.13 9.54187 25.17C9.47187 23.56 8.41188 23.09 7.68188 24.44C7.78188 20.81 1.71187 19.5401 0.671875 22.5201C0.671875 29.7901 0.671875 54.7301 0.671875 54.7301H49.2919V28.44H49.3119Z" fill="#8CCDDB"/>
<path d="M26.3911 25.0899C23.5311 24.6999 21.5813 29.4798 25.8413 30.0098C25.1113 32.7198 30.3712 34.56 31.9912 31.19C32.7712 32.79 34.5412 32.3799 34.7812 31.1099C36.2812 32.5899 39.7311 30.9199 39.3911 27.5299C39.0011 23.5599 34.0613 22.3199 32.3513 25.0899C32.0413 23.4199 30.1612 23.8201 30.0112 25.0201C29.1212 22.7701 26.5111 23.5399 26.3911 25.0899Z" fill="#E1F0F1"/>
<path d="M49.3115 34.9798C48.6015 33.1298 46.8216 34.1996 47.6216 35.7796C45.3516 33.6696 41.7914 36.1398 42.4014 38.7298C35.4814 34.1198 23.6716 32.1298 18.1116 35.5398C18.4916 32.0898 13.5215 32.8498 12.8615 34.0398C12.7214 32.1198 10.1314 32.3298 9.48145 33.4598C9.27145 31.5998 4.8915 31.23 5.0415 33.68C4.6315 31.96 2.84151 32.2999 2.92151 33.8899C1.72151 32.4399 0.691406 33.97 0.691406 33.97L0.741455 54.7098H49.3115V34.9798Z" fill="#CFE8E9"/>
<path d="M49.3123 42.5297C48.7423 39.1497 41.4322 38.68 40.2422 42.33C39.1822 39.01 36.3923 40.8697 36.0623 42.2597C35.0723 38.2797 26.3123 36.9602 26.1123 41.9902C24.4523 39.2702 21.2721 41.1301 21.1421 42.4501C20.2821 40.0001 14.4422 39.13 14.5122 44.31C12.3922 40.27 6.35218 40.8001 5.23218 43.4501C6.36218 39.6001 2.29219 38.2102 0.742188 38.7402C0.742188 42.4502 0.742188 54.7001 0.742188 54.7001H48.0022H49.3123V42.5297Z" fill="#8CCDDB"/>
<path d="M40.4304 54.71C41.4204 53.32 38.7705 49.2901 33.5305 51.8101C33.6605 46.9001 29.4205 48.2301 28.3605 50.6201C27.7005 43.9901 13.1105 42.7998 12.7805 50.5498C11.1905 46.4398 6.55038 49.2202 7.94038 52.4702C4.36038 47.7002 1.38046 52.9802 2.77046 54.7002C16.3605 54.7102 40.4304 54.71 40.4304 54.71Z" fill="#CDE8F0"/>
<path d="M44.0814 17.3598C48.7814 19.5598 48.3714 12.3801 44.5614 13.3701C44.5914 12.4501 43.1214 11.9701 42.6114 13.2001C42.2214 11.5301 39.4214 12.1301 39.5514 13.8701C36.1514 13.8101 37.1114 18.52 40.0714 17.54C40.6514 19.82 44.2114 18.7798 44.0814 17.3598Z" fill="white"/>
<path d="M0.730469 14.68C1.31047 14.62 1.93051 15.04 2.02051 15.7C2.88051 13.51 5.45055 14.2596 5.56055 15.7796C8.36055 15.3896 10.2705 20.0799 6.10046 20.5999C6.74046 22.9599 2.75047 24.64 0.730469 22.68V14.68Z" fill="#CDE8F0"/>
<path d="M49.3125 46.5096C48.3425 44.9196 45.0124 46.5097 46.6724 49.3597C42.4324 49.2297 41.9024 52.8098 43.4924 54.7098C44.4824 54.7098 49.3125 54.7098 49.3125 54.7098V46.5096Z" fill="#CDE8F0"/>
<path d="M33.8736 6.08984C34.8636 6.91984 33.4735 10.6998 29.0335 8.77979C31.0235 14.4198 21.5435 15.0101 21.0135 10.3701C17.1035 12.0301 10.0035 9.44 10.5335 7.25C9.34352 9.44 6.15348 8.01008 7.61348 6.08008C10.1335 6.09008 33.8736 6.08984 33.8736 6.08984Z" fill="#CDE8F0"/>
<path d="M25.1306 18.25C36.5106 18.25 45.7307 27.4701 45.7307 38.8501H43.3108C43.3108 28.8101 35.1707 20.6802 25.1407 20.6802C15.1007 20.6802 6.97074 28.8201 6.97074 38.8501H4.55081C4.53081 27.4701 13.7506 18.25 25.1306 18.25Z" fill="#E33F25"/>
<path d="M25.1309 20.6699C35.1709 20.6699 43.301 28.8098 43.301 38.8398H40.8809C40.8809 30.1398 33.8309 23.0898 25.1309 23.0898C16.4309 23.0898 9.38099 30.1398 9.38099 38.8398H6.96095C6.95095 28.8098 15.0909 20.6699 25.1309 20.6699Z" fill="#EF8C21"/>
<path d="M25.1288 23.0898C33.8288 23.0898 40.8788 30.1398 40.8788 38.8398H38.4589C38.4589 31.4798 32.4888 25.5098 25.1288 25.5098C17.7688 25.5098 11.799 31.4798 11.799 38.8398H9.37892C9.36892 30.1398 16.4288 23.0898 25.1288 23.0898Z" fill="#FCE15D"/>
<path d="M25.1303 25.52C32.4903 25.52 38.4604 31.4901 38.4604 38.8501H36.0405C36.0405 32.8301 31.1603 27.9502 25.1403 27.9502C19.1203 27.9502 14.2404 32.8301 14.2404 38.8501H11.8204C11.8004 31.4801 17.7603 25.52 25.1303 25.52Z" fill="#50B387"/>
<path d="M25.1304 27.9399C31.1504 27.9399 36.0305 32.8198 36.0305 38.8398H33.6106C33.6106 34.1598 29.8104 30.3599 25.1304 30.3599C20.4504 30.3599 16.6504 34.1598 16.6504 38.8398H14.2305C14.2205 32.8198 19.1004 27.9399 25.1304 27.9399Z" fill="#8CCDDB"/>
<path d="M25.1323 30.3599C29.8123 30.3599 33.6126 34.1598 33.6126 38.8398H31.1924C31.1924 35.4898 28.4823 32.7798 25.1323 32.7798C21.7823 32.7798 19.0725 35.4898 19.0725 38.8398H16.6524C16.6424 34.1598 20.4423 30.3599 25.1323 30.3599Z" fill="#4A6CB0"/>
<path d="M25.1319 32.79C28.4819 32.79 31.1919 35.5001 31.1919 38.8501H28.772C28.772 36.8401 27.1419 35.2202 25.1419 35.2202C23.1319 35.2202 21.502 36.8501 21.502 38.8501H19.0821C19.0721 35.5001 21.7819 32.79 25.1319 32.79Z" fill="#CD83B5"/>
<path d="M40.8502 42.1599C49.9502 46.4099 49.1402 32.5297 41.7702 34.4397C41.8202 32.6497 38.9901 31.7397 37.9901 34.1097C37.2301 30.8797 31.8302 32.0397 32.0802 35.3997C25.5002 35.2797 27.3602 44.3896 33.0802 42.5096C34.2202 46.9296 41.1102 44.9099 40.8502 42.1599Z" fill="white"/>
<path d="M42.0503 38.8997C41.9303 39.3297 41.4404 39.5399 40.8604 39.4299C40.3004 39.3299 39.8503 38.7797 40.0403 38.3997C40.2303 38.0397 40.4902 38.2399 41.1802 38.1599C41.8602 38.0799 42.1803 38.4697 42.0503 38.8997Z" fill="#F09CAB"/>
<path d="M34.3685 38.8997C34.4885 39.3297 34.9785 39.5399 35.5585 39.4299C36.1185 39.3299 36.5683 38.7797 36.3783 38.3997C36.1883 38.0397 35.9284 38.2399 35.2384 38.1599C34.5684 38.0799 34.2485 38.4697 34.3685 38.8997Z" fill="#F09CAB"/>
<path d="M40.6602 37.52C40.6602 37.74 40.7702 37.9102 40.9102 37.9102C41.0502 37.9102 41.1602 37.74 41.1602 37.52C41.1602 37.3 41.0502 37.1299 40.9102 37.1299C40.7702 37.1299 40.6602 37.31 40.6602 37.52Z" fill="#3E3B39"/>
<path d="M35.1602 37.52C35.1602 37.74 35.2702 37.9102 35.4102 37.9102C35.5502 37.9102 35.6602 37.74 35.6602 37.52C35.6602 37.3 35.5502 37.1299 35.4102 37.1299C35.2802 37.1299 35.1602 37.31 35.1602 37.52Z" fill="#3E3B39"/>
<path d="M36.7078 38.9304C36.8078 39.6504 37.4777 40.04 38.1577 40.07C38.7977 40.1 39.5278 39.8001 39.7078 39.1301C39.7278 39.0601 39.7378 39.0004 39.7378 38.9304C39.7478 38.7804 39.9778 38.7804 39.9678 38.9304C39.8378 40.4704 37.5678 40.7303 36.7378 39.6203C36.5878 39.4203 36.5078 39.1804 36.4778 38.9304C36.4578 38.7804 36.6878 38.7804 36.7078 38.9304Z" fill="#3E3B39"/>
<path d="M6.2391 35.3397C2.8091 34.8697 0.459052 40.6098 5.56905 41.2498C4.68905 44.4998 11.0091 46.7097 12.9591 42.6697C13.8991 44.5997 16.0192 44.0896 16.3092 42.5696C18.1092 44.3396 22.2592 42.3496 21.8492 38.2596C21.3792 33.4896 15.4491 31.9996 13.3891 35.3196C13.0191 33.3096 10.7591 33.8 10.5791 35.24C9.50906 32.55 6.3691 33.4697 6.2391 35.3397Z" fill="white"/>
<path d="M16.0386 39.0803C15.9186 39.5103 15.4287 39.7201 14.8487 39.6101C14.2887 39.5101 13.8386 38.9603 14.0286 38.5803C14.2186 38.2203 14.4785 38.4201 15.1685 38.3401C15.8385 38.2601 16.1586 38.6503 16.0386 39.0803Z" fill="#F09CAB"/>
<path d="M8.349 39.0803C8.469 39.5103 8.95906 39.7201 9.53906 39.6101C10.0991 39.5101 10.549 38.9603 10.359 38.5803C10.169 38.2203 9.90899 38.4201 9.21899 38.3401C8.54899 38.2601 8.229 38.6503 8.349 39.0803Z" fill="#F09CAB"/>
<path d="M10.6882 39.1101C10.7882 39.8301 11.4583 40.2202 12.1383 40.2502C12.7783 40.2802 13.5082 39.9803 13.6882 39.3103C13.7082 39.2403 13.7183 39.1801 13.7183 39.1101C13.7283 38.9601 13.9583 38.9601 13.9483 39.1101C13.8183 40.6501 11.5483 40.91 10.7183 39.8C10.5683 39.6 10.4883 39.3601 10.4583 39.1101C10.4383 38.9701 10.6682 38.9701 10.6882 39.1101Z" fill="#3E3B39"/>
<path d="M15.4185 37.9902C15.4185 37.7902 15.2986 37.4801 15.0886 37.4101C14.8386 37.3201 14.6784 37.7799 14.6484 37.9599C14.6284 38.1099 14.3985 38.0399 14.4285 37.8999C14.4885 37.5699 14.7284 37.1199 15.1284 37.1899C15.4484 37.2499 15.6484 37.71 15.6484 38C15.6484 38.14 15.4185 38.1402 15.4185 37.9902Z" fill="#3E3B39"/>
<path d="M9.74011 38.0499C9.69011 37.8599 9.59013 37.53 9.38013 37.46C9.14013 37.39 9.14014 37.9199 9.14014 38.0499C9.14014 38.1999 8.91016 38.1999 8.91016 38.0499C8.91016 37.7399 8.9501 37.2501 9.3501 37.2301C9.7101 37.2101 9.89008 37.7203 9.96008 37.9903C10.0001 38.1303 9.77011 38.1899 9.74011 38.0499Z" fill="#3E3B39"/>
<path d="M21.1895 16.4302C21.1895 16.5502 21.0995 16.6401 20.9795 16.6401C20.8595 16.6401 20.7695 16.5502 20.7695 16.4302C20.7695 16.3102 20.8595 16.2202 20.9795 16.2202C21.0995 16.2202 21.1895 16.3102 21.1895 16.4302Z" fill="white"/>
<path d="M17.5215 29.0698C17.5215 29.1898 17.4315 29.2798 17.3115 29.2798C17.1915 29.2798 17.1016 29.1898 17.1016 29.0698C17.1016 28.9498 17.1915 28.8599 17.3115 28.8599C17.4315 28.8599 17.5215 28.9598 17.5215 29.0698Z" fill="white"/>
<path d="M45.9824 33C45.9824 33.12 45.8925 33.21 45.7725 33.21C45.6525 33.21 45.5625 33.12 45.5625 33C45.5625 32.88 45.6525 32.79 45.7725 32.79C45.8825 32.79 45.9824 32.89 45.9824 33Z" fill="white"/>
<path d="M26.3303 31.9302C26.3303 32.0502 26.2404 32.1401 26.1204 32.1401C26.0004 32.1401 25.9102 32.0502 25.9102 31.9302C25.9102 31.8102 26.0004 31.7202 26.1204 31.7202C26.2404 31.7202 26.3303 31.8102 26.3303 31.9302Z" fill="white"/>
<path d="M23.0608 38.8701C23.0608 38.9901 22.9708 39.0801 22.8508 39.0801C22.7308 39.0801 22.6406 38.9901 22.6406 38.8701C22.6406 38.7501 22.7308 38.6602 22.8508 38.6602C22.9708 38.6602 23.0608 38.7601 23.0608 38.8701Z" fill="white"/>
<path d="M26.5803 36.52C26.5803 36.64 26.4904 36.73 26.3704 36.73C26.2504 36.73 26.1602 36.64 26.1602 36.52C26.1602 36.4 26.2504 36.3101 26.3704 36.3101C26.4904 36.3101 26.5803 36.41 26.5803 36.52Z" fill="white"/>
<path d="M17.4199 20.3501C17.4199 20.4701 17.33 20.5601 17.21 20.5601C17.09 20.5601 17 20.4701 17 20.3501C17 20.2301 17.09 20.1401 17.21 20.1401C17.32 20.1401 17.4199 20.2301 17.4199 20.3501Z" fill="white"/>
<path d="M36.541 26.46C36.541 26.58 36.4511 26.6699 36.3311 26.6699C36.2111 26.6699 36.1211 26.58 36.1211 26.46C36.1211 26.34 36.2111 26.25 36.3311 26.25C36.4511 26.25 36.541 26.34 36.541 26.46Z" fill="white"/>
<path d="M35.9121 31.4102C35.9121 31.5302 35.8221 31.6201 35.7021 31.6201C35.5821 31.6201 35.4922 31.5302 35.4922 31.4102C35.4922 31.2902 35.5821 31.2002 35.7021 31.2002C35.8221 31.2002 35.9121 31.3002 35.9121 31.4102Z" fill="white"/>
<path d="M15.6816 32.1699C15.6816 32.2899 15.5917 32.3799 15.4717 32.3799C15.3517 32.3799 15.2617 32.2899 15.2617 32.1699C15.2617 32.0499 15.3517 31.96 15.4717 31.96C15.5817 31.96 15.6816 32.0599 15.6816 32.1699Z" fill="white"/>
<path d="M10.3621 25.8198C10.3621 25.8998 10.302 25.96 10.222 25.96C10.142 25.96 10.082 25.8998 10.082 25.8198C10.082 25.7398 10.142 25.6802 10.222 25.6802C10.302 25.6802 10.3621 25.7498 10.3621 25.8198Z" fill="white"/>
<path d="M15.0808 23.1699C15.0808 23.2499 15.0207 23.3101 14.9407 23.3101C14.8607 23.3101 14.8008 23.2499 14.8008 23.1699C14.8008 23.0899 14.8607 23.0298 14.9407 23.0298C15.0207 23.0298 15.0808 23.0899 15.0808 23.1699Z" fill="white"/>
<path d="M22.1589 35.8999C22.1589 35.9799 22.099 36.04 22.019 36.04C21.939 36.04 21.8789 35.9799 21.8789 35.8999C21.8789 35.8199 21.939 35.7598 22.019 35.7598C22.099 35.7598 22.1589 35.8199 22.1589 35.8999Z" fill="white"/>
<path d="M32.241 30.3101C32.241 30.3901 32.1811 30.4502 32.1011 30.4502C32.0211 30.4502 31.9609 30.3901 31.9609 30.3101C31.9609 30.2301 32.0211 30.1699 32.1011 30.1699C32.1811 30.1699 32.241 30.2301 32.241 30.3101Z" fill="white"/>
<path d="M25.0613 20.7798C25.0613 20.8598 25.0011 20.9199 24.9211 20.9199C24.8411 20.9199 24.7812 20.8598 24.7812 20.7798C24.7812 20.6998 24.8411 20.6401 24.9211 20.6401C25.0011 20.6401 25.0613 20.6998 25.0613 20.7798Z" fill="white"/>
<path d="M32.3113 20.5098C32.3113 20.5898 32.2511 20.6499 32.1711 20.6499C32.0911 20.6499 32.0312 20.5898 32.0312 20.5098C32.0312 20.4298 32.0911 20.3701 32.1711 20.3701C32.2511 20.3701 32.3113 20.4298 32.3113 20.5098Z" fill="white"/>
<path d="M12.7605 20.3701C12.7605 20.4501 12.7005 20.5098 12.6205 20.5098C12.5405 20.5098 12.4805 20.4501 12.4805 20.3701C12.4805 20.2901 12.5405 20.23 12.6205 20.23C12.6905 20.23 12.7605 20.2901 12.7605 20.3701Z" fill="white"/>
<path d="M32.9285 25.1299C32.9285 25.2099 32.8686 25.27 32.7886 25.27C32.7086 25.27 32.6484 25.2099 32.6484 25.1299C32.6484 25.0499 32.7086 24.9902 32.7886 24.9902C32.8686 24.9902 32.9285 25.0499 32.9285 25.1299Z" fill="white"/>
<path d="M30.3787 33.8301C30.3787 33.8801 30.3388 33.9102 30.2988 33.9102C30.2488 33.9102 30.2188 33.8701 30.2188 33.8301C30.2188 33.7901 30.2588 33.75 30.2988 33.75C30.3388 33.75 30.3787 33.7901 30.3787 33.8301Z" fill="white"/>
<path d="M18.8594 32.1899C18.8594 32.2299 18.8193 32.27 18.7793 32.27C18.7293 32.27 18.6992 32.2299 18.6992 32.1899C18.6992 32.1399 18.7393 32.1099 18.7793 32.1099C18.8193 32.1099 18.8594 32.1399 18.8594 32.1899Z" fill="white"/>
<path d="M22.7419 23.3501C22.7419 23.4001 22.7019 23.4302 22.6619 23.4302C22.6119 23.4302 22.582 23.3901 22.582 23.3501C22.582 23.3101 22.6219 23.27 22.6619 23.27C22.7019 23.27 22.7419 23.3101 22.7419 23.3501Z" fill="white"/>
<path d="M24.3191 29.9702C24.3191 30.0502 24.259 30.1099 24.179 30.1099C24.099 30.1099 24.0391 30.0502 24.0391 29.9702C24.0391 29.8902 24.099 29.8301 24.179 29.8301C24.259 29.8301 24.3191 29.8902 24.3191 29.9702Z" fill="white"/>
<path d="M29.2996 27.6802C29.2996 27.7602 29.2394 27.8198 29.1594 27.8198C29.0794 27.8198 29.0195 27.7602 29.0195 27.6802C29.0195 27.6002 29.0794 27.54 29.1594 27.54C29.2394 27.54 29.2996 27.6002 29.2996 27.6802Z" fill="white"/>
<path d="M26.4207 34.0898C26.4207 34.1698 26.3608 34.23 26.2808 34.23C26.2008 34.23 26.1406 34.1698 26.1406 34.0898C26.1406 34.0098 26.2008 33.9502 26.2808 33.9502C26.3508 33.9502 26.4207 34.0098 26.4207 34.0898Z" fill="white"/>
<path d="M41.8813 22.75C41.8813 22.83 41.8215 22.8901 41.7415 22.8901C41.6615 22.8901 41.6016 22.83 41.6016 22.75C41.6016 22.67 41.6615 22.6099 41.7415 22.6099C41.8215 22.6099 41.8813 22.67 41.8813 22.75Z" fill="white"/>
<path d="M4.83069 32.79C4.83069 32.87 4.77067 32.9302 4.69067 32.9302C4.61067 32.9302 4.55078 32.87 4.55078 32.79C4.55078 32.71 4.61067 32.6499 4.69067 32.6499C4.77067 32.6499 4.83069 32.71 4.83069 32.79Z" fill="white"/>
<path d="M29.1792 16.25C29.1792 16.34 29.1093 16.4102 29.0193 16.4102C28.9293 16.4102 28.8594 16.34 28.8594 16.25C28.8594 16.16 28.9293 16.0898 29.0193 16.0898C29.0993 16.0998 29.1792 16.17 29.1792 16.25Z" fill="white"/>
<path d="M39.1401 8.60986C39.1401 8.69986 39.0702 8.77002 38.9802 8.77002C38.8902 8.77002 38.8203 8.69986 38.8203 8.60986C38.8203 8.51986 38.8902 8.4502 38.9802 8.4502C39.0702 8.4502 39.1401 8.51986 39.1401 8.60986Z" fill="white"/>
<path d="M4.55054 9.04004C4.55054 9.13004 4.4805 9.2002 4.3905 9.2002C4.3005 9.2002 4.23047 9.13004 4.23047 9.04004C4.23047 8.95004 4.3005 8.87988 4.3905 8.87988C4.4805 8.88988 4.55054 8.96004 4.55054 9.04004Z" fill="white"/>
<path d="M8.51147 11.7598C8.51147 11.8498 8.44144 11.9199 8.35144 11.9199C8.26144 11.9199 8.19141 11.8498 8.19141 11.7598C8.19141 11.6698 8.26144 11.6001 8.35144 11.6001C8.44144 11.6001 8.51147 11.6698 8.51147 11.7598Z" fill="white"/>
<path d="M3.06995 24.8301C3.06995 24.9201 3.00003 24.9902 2.91003 24.9902C2.82003 24.9902 2.75 24.9201 2.75 24.8301C2.75 24.7401 2.82003 24.6699 2.91003 24.6699C3.00003 24.6699 3.06995 24.7401 3.06995 24.8301Z" fill="white"/>
<path d="M47.8901 19.8101C47.8901 19.9001 47.8202 19.9702 47.7302 19.9702C47.6402 19.9702 47.5703 19.9001 47.5703 19.8101C47.5703 19.7201 47.6402 19.6499 47.7302 19.6499C47.8202 19.6499 47.8901 19.7201 47.8901 19.8101Z" fill="white"/>
<path d="M48.1597 8.54004C48.1597 8.63004 48.0898 8.7002 47.9998 8.7002C47.9098 8.7002 47.8398 8.63004 47.8398 8.54004C47.8398 8.45004 47.9098 8.37988 47.9998 8.37988C48.0898 8.37988 48.1597 8.45004 48.1597 8.54004Z" fill="white"/>
<path d="M30.0623 46.9702C30.0623 47.0602 29.9921 47.1299 29.9021 47.1299C29.8121 47.1299 29.7422 47.0602 29.7422 46.9702C29.7422 46.8802 29.8121 46.8101 29.9021 46.8101C29.9921 46.8101 30.0623 46.8802 30.0623 46.9702Z" fill="white"/>
<path d="M5.46057 48.7598C5.46057 48.8498 5.39066 48.9199 5.30066 48.9199C5.21066 48.9199 5.14062 48.8498 5.14062 48.7598C5.14062 48.6698 5.21066 48.6001 5.30066 48.6001C5.39066 48.6001 5.46057 48.6698 5.46057 48.7598Z" fill="white"/>
<path d="M43.2498 50.02C43.2498 50.11 43.1798 50.1802 43.0898 50.1802C42.9998 50.1802 42.9297 50.11 42.9297 50.02C42.9297 49.93 42.9998 49.8599 43.0898 49.8599C43.1798 49.8599 43.2498 49.93 43.2498 50.02Z" fill="white"/>
<path d="M39.6208 26.5801C39.6208 26.6701 39.5507 26.7402 39.4607 26.7402C39.3707 26.7402 39.3008 26.6701 39.3008 26.5801C39.3008 26.4901 39.3707 26.4199 39.4607 26.4199C39.5507 26.4199 39.6208 26.5001 39.6208 26.5801Z" fill="white"/>
<path d="M13.4115 30.8901C13.4115 31.0901 13.2515 31.2499 13.0515 31.2499C12.8515 31.2499 12.6914 31.0901 12.6914 30.8901C12.6914 30.6901 12.8515 30.5297 13.0515 30.5297C13.2515 30.5197 13.4115 30.6901 13.4115 30.8901Z" fill="white"/>
<path d="M4.30212 30.3599C4.30212 30.5599 4.14202 30.7202 3.94202 30.7202C3.74202 30.7202 3.58203 30.5599 3.58203 30.3599C3.58203 30.1599 3.74202 30 3.94202 30C4.14202 30 4.30212 30.1599 4.30212 30.3599Z" fill="white"/>
<path d="M26.7317 39.2798C26.7317 39.4798 26.5718 39.6401 26.3718 39.6401C26.1718 39.6401 26.0117 39.4798 26.0117 39.2798C26.0117 39.0798 26.1718 38.9199 26.3718 38.9199C26.5718 38.9199 26.7317 39.0798 26.7317 39.2798Z" fill="white"/>
<path d="M37.7825 20.0297C37.7825 20.2297 37.6224 20.3901 37.4224 20.3901C37.2224 20.3901 37.0625 20.2297 37.0625 20.0297C37.0625 19.8297 37.2224 19.6699 37.4224 19.6699C37.6224 19.6599 37.7825 19.8297 37.7825 20.0297Z" fill="white"/>
<path d="M15.0012 17.8301C15.0012 18.0301 14.8411 18.1899 14.6411 18.1899C14.4411 18.1899 14.2812 18.0301 14.2812 17.8301C14.2812 17.6301 14.4411 17.4702 14.6411 17.4702C14.8411 17.4702 15.0012 17.6301 15.0012 17.8301Z" fill="white"/>
<path d="M35.3491 9.01995C35.3491 9.21995 35.189 9.37981 34.989 9.37981C34.789 9.37981 34.6289 9.21995 34.6289 9.01995C34.6289 8.81995 34.789 8.66009 34.989 8.66009C35.189 8.65009 35.3491 8.81995 35.3491 9.01995Z" fill="white"/>
<path d="M48.2708 29.9302C48.2708 30.1302 48.1106 30.29 47.9106 30.29C47.7106 30.29 47.5508 30.1302 47.5508 29.9302C47.5508 29.7302 47.7106 29.5698 47.9106 29.5698C48.1106 29.5698 48.2708 29.7302 48.2708 29.9302Z" fill="white"/>
<path d="M3.20044 12.2598C3.20044 12.4598 3.04045 12.6201 2.84045 12.6201C2.64045 12.6201 2.48047 12.4598 2.48047 12.2598C2.48047 12.0598 2.64045 11.8999 2.84045 11.8999C3.04045 11.8999 3.20044 12.0598 3.20044 12.2598Z" fill="white"/>
<path d="M42.6614 49.8901C42.6614 50.0901 42.5015 50.25 42.3015 50.25C42.1015 50.25 41.9414 50.0901 41.9414 49.8901C41.9414 49.6901 42.1015 49.5298 42.3015 49.5298C42.5015 49.5298 42.6614 49.6901 42.6614 49.8901Z" fill="white"/>
<path d="M3.54041 49.1602C3.54041 49.3602 3.38042 49.52 3.18042 49.52C2.98042 49.52 2.82031 49.3602 2.82031 49.1602C2.82031 48.9602 2.98042 48.7998 3.18042 48.7998C3.38042 48.7998 3.54041 48.9602 3.54041 49.1602Z" fill="white"/>
<path d="M30.5208 44.1201C30.5208 44.3201 30.3606 44.48 30.1606 44.48C29.9606 44.48 29.8008 44.3201 29.8008 44.1201C29.8008 43.9201 29.9606 43.7598 30.1606 43.7598C30.3606 43.7598 30.5208 43.9201 30.5208 44.1201Z" fill="white"/>
<path d="M20.5208 28.8599C20.5208 29.0599 20.3606 29.2202 20.1606 29.2202C19.9606 29.2202 19.8008 29.0599 19.8008 28.8599C19.8008 28.6599 19.9606 28.5 20.1606 28.5C20.3606 28.5 20.5208 28.6599 20.5208 28.8599Z" fill="white"/>
<path d="M18.9006 21.2598C19.0306 21.2398 19.1506 21.14 19.1606 21C19.1706 20.89 19.2407 20.4102 19.2407 20.4102C19.2407 20.4102 19.3008 20.89 19.3208 21C19.3508 21.16 19.4508 21.2398 19.5808 21.2598C19.6908 21.2798 20.1807 21.3398 20.1807 21.3398C20.1807 21.3398 19.6908 21.4099 19.5808 21.4199C19.4008 21.4399 19.3308 21.5502 19.3208 21.6802C19.3108 21.7902 19.2407 22.27 19.2407 22.27C19.2407 22.27 19.1706 21.7902 19.1606 21.6802C19.1406 21.5302 19.0406 21.4299 18.9006 21.4199C18.7906 21.4099 18.3008 21.3398 18.3008 21.3398C18.3008 21.3398 18.7906 21.2698 18.9006 21.2598Z" fill="white"/>
<path d="M25.7092 16.5601C25.8392 16.5401 25.9592 16.4398 25.9692 16.2998C25.9792 16.1898 26.0493 15.71 26.0493 15.71C26.0493 15.71 26.1092 16.1898 26.1292 16.2998C26.1592 16.4598 26.2592 16.5401 26.3892 16.5601C26.4992 16.5701 26.9893 16.6401 26.9893 16.6401C26.9893 16.6401 26.4992 16.7102 26.3892 16.7202C26.2092 16.7402 26.1392 16.85 26.1292 16.98C26.1192 17.09 26.0493 17.5698 26.0493 17.5698C26.0493 17.5698 25.9792 17.09 25.9692 16.98C25.9492 16.83 25.8492 16.7302 25.7092 16.7202C25.5992 16.7102 25.1094 16.6401 25.1094 16.6401C25.1094 16.6401 25.5992 16.5701 25.7092 16.5601Z" fill="white"/>
<path d="M44.6118 23.1899C44.7418 23.1699 44.8618 23.0702 44.8718 22.9302C44.8818 22.8202 44.9517 22.3398 44.9517 22.3398C44.9517 22.3398 45.0117 22.8202 45.0317 22.9302C45.0617 23.0902 45.1617 23.1699 45.2917 23.1899C45.4017 23.1999 45.8916 23.27 45.8916 23.27C45.8916 23.27 45.4017 23.3401 45.2917 23.3501C45.1117 23.3701 45.0417 23.4799 45.0317 23.6099C45.0217 23.7199 44.9517 24.2002 44.9517 24.2002C44.9517 24.2002 44.8818 23.7199 44.8718 23.6099C44.8518 23.4599 44.7518 23.3601 44.6118 23.3501C44.5018 23.3401 44.0117 23.27 44.0117 23.27C44.0117 23.27 44.5018 23.1999 44.6118 23.1899Z" fill="white"/>
<path d="M7.08044 24.9399C7.21044 24.9199 7.33045 24.8202 7.34045 24.6802C7.35045 24.5702 7.42053 24.0898 7.42053 24.0898C7.42053 24.0898 7.48049 24.5702 7.50049 24.6802C7.53049 24.8402 7.6305 24.9199 7.7605 24.9399C7.8705 24.9499 8.36047 25.02 8.36047 25.02C8.36047 25.02 7.8705 25.0901 7.7605 25.1001C7.5805 25.1201 7.51049 25.2299 7.50049 25.3599C7.49049 25.4699 7.42053 25.9502 7.42053 25.9502C7.42053 25.9502 7.35045 25.4699 7.34045 25.3599C7.32045 25.2099 7.22044 25.1101 7.08044 25.1001C6.97044 25.0901 6.48047 25.02 6.48047 25.02C6.48047 25.02 6.97044 24.9499 7.08044 24.9399Z" fill="white"/>
<path d="M41.1797 29.4702C41.3997 29.4402 41.5999 29.2698 41.6199 29.0298C41.6299 28.8498 41.7598 28.0298 41.7598 28.0298C41.7598 28.0298 41.8697 28.8398 41.8997 29.0298C41.9497 29.2998 42.1098 29.4402 42.3398 29.4702C42.5198 29.4902 43.3398 29.6099 43.3398 29.6099C43.3398 29.6099 42.5198 29.72 42.3398 29.75C42.0498 29.79 41.9297 29.9799 41.8997 30.1899C41.8797 30.3699 41.7598 31.1899 41.7598 31.1899C41.7598 31.1899 41.6399 30.3799 41.6199 30.1899C41.5899 29.9399 41.4097 29.78 41.1797 29.75C40.9897 29.73 40.1797 29.6099 40.1797 29.6099C40.1797 29.6099 40.9897 29.4902 41.1797 29.4702Z" fill="white"/>
<path d="M21.1604 33.98C21.3104 33.96 21.4504 33.8402 21.4604 33.6802C21.4704 33.5602 21.5505 33.0098 21.5505 33.0098C21.5505 33.0098 21.6204 33.5602 21.6404 33.6802C21.6704 33.8602 21.7804 33.95 21.9404 33.98C22.0604 34 22.6206 34.0698 22.6206 34.0698C22.6206 34.0698 22.0704 34.1502 21.9404 34.1602C21.7404 34.1902 21.6604 34.31 21.6404 34.46C21.6204 34.58 21.5505 35.1299 21.5505 35.1299C21.5505 35.1299 21.4704 34.58 21.4604 34.46C21.4404 34.29 21.3204 34.1802 21.1604 34.1602C21.0404 34.1502 20.4805 34.0698 20.4805 34.0698C20.4805 34.0698 21.0404 34 21.1604 33.98Z" fill="white"/>
<path d="M37.3005 53.3501H12.2305V54.6499H37.3005V53.3501Z" fill="#E5AF78"/>
<path d="M28.2124 4.70996H21.3125V6.00977H28.2124V4.70996Z" fill="#E5AF78"/>
<path d="M11.7012 64.9399C11.9331 64.9399 12.1212 64.752 12.1212 64.52C12.1212 64.2881 11.9331 64.1001 11.7012 64.1001C11.4692 64.1001 11.2812 64.2881 11.2812 64.52C11.2812 64.752 11.4692 64.9399 11.7012 64.9399Z" fill="#BA6328"/>
<path d="M24.7715 64.9399C25.0034 64.9399 25.1914 64.752 25.1914 64.52C25.1914 64.2881 25.0034 64.1001 24.7715 64.1001C24.5395 64.1001 24.3516 64.2881 24.3516 64.52C24.3516 64.752 24.5395 64.9399 24.7715 64.9399Z" fill="#BA6328"/>
<path d="M37.842 64.9399C38.074 64.9399 38.262 64.752 38.262 64.52C38.262 64.2881 38.074 64.1001 37.842 64.1001C37.6101 64.1001 37.4219 64.2881 37.4219 64.52C37.4219 64.752 37.6101 64.9399 37.842 64.9399Z" fill="#BA6328"/>
<path d="M88.9519 27.1001C89.0719 31.3401 88.6419 33.3 95.1819 36.46C99.3119 38.45 100.402 44.4099 91.1121 41.1299C97.4821 47.2699 91.352 53.6798 86.972 44.3198C93.602 62.7198 71.482 64.5402 68.042 45.2202C66.302 55.9402 57.852 46.7102 61.732 38.7002C53.652 47.6002 55.562 30.5901 65.962 23.8901C75.282 25.7501 88.9519 27.1001 88.9519 27.1001Z" fill="#854132"/>
<path d="M56.9132 47.0001C56.9132 47.0001 60.9733 47 65.5033 44.4C66.3233 43.93 68.2232 45.1899 66.1432 46.2799C64.0332 47.3899 61.0034 48.5601 57.3734 48.7501C57.3734 48.7501 56.5432 48.7701 56.4132 48.5601C55.5832 47.2201 56.9132 47.0001 56.9132 47.0001Z" fill="#F9CCAC"/>
<path d="M89.8544 47.11C89.8544 47.11 85.7943 47.1101 81.2643 44.5201C80.4443 44.0501 78.5444 45.31 80.6244 46.4C82.7344 47.51 85.7642 48.6802 89.3942 48.8702C89.3942 48.8702 90.2244 48.8903 90.3544 48.6803C91.1944 47.3303 89.8544 47.11 89.8544 47.11Z" fill="#F9CCAC"/>
<path d="M75.765 41.25L73.7149 41.0698V39.5601H72.485V41.0698L70.4749 41.2402C70.3249 44.0002 72.9451 44.1399 73.1151 44.1499C73.3051 44.1599 75.915 44.01 75.765 41.25Z" fill="#F9CCAC"/>
<path d="M73.1255 40.8398C73.3455 40.8398 73.5453 40.9298 73.6553 41.0698V40.4399H72.6055V41.0698C72.7055 40.9298 72.9055 40.8398 73.1255 40.8398Z" fill="#EFB389"/>
<path d="M76.2161 41.27C76.1961 43.61 74.6662 44.4798 73.1162 44.2598H73.1062H73.0962C71.5562 44.4798 70.0161 43.61 69.9961 41.27C69.3261 41.27 66.8461 42.2601 64.9961 43.8501C65.0261 44.4101 66.316 46.8701 66.686 47.1401C67.226 46.7701 67.566 46.8098 67.886 46.3398C67.876 48.1598 67.596 53.6302 67.686 54.4302L78.936 54.2402C79.026 53.4302 78.3061 47.84 78.2961 46.02C78.6861 46.32 78.9761 46.7099 79.7561 46.8999C80.1261 46.6199 81.646 44.34 81.676 43.79C79.386 41.91 76.8861 41.27 76.2161 41.27Z" fill="#20B6CE"/>
<path d="M66.5757 47.4702C66.5757 47.4702 64.6656 45.7802 64.2656 44.2202C64.6056 43.9402 65.0857 43.6401 65.0857 43.6401C65.0857 43.6401 66.1256 45.5098 67.4856 46.7998C66.9656 47.2098 66.5757 47.4702 66.5757 47.4702Z" fill="#007188"/>
<path d="M80.0469 47.4702C80.0469 47.4702 81.9569 45.7802 82.3569 44.2202C82.0169 43.9402 81.5369 43.6401 81.5369 43.6401C81.5369 43.6401 80.4967 45.5098 79.1367 46.7998C79.6667 47.2098 80.0469 47.4702 80.0469 47.4702Z" fill="#007188"/>
<path d="M76.9143 41.3501C76.9143 41.3501 76.0943 41.21 75.6443 41.04C75.3943 42.46 74.7845 43.6599 73.0745 43.6899C71.3645 43.6599 70.7544 42.46 70.5044 41.04C70.0544 41.21 69.2344 41.3501 69.2344 41.3501C69.2344 41.3501 69.5044 44.9299 73.0444 44.9199C73.0544 44.9199 73.0645 44.9199 73.0745 44.9199C73.0845 44.9199 73.0945 44.9199 73.1045 44.9199C76.6445 44.9199 76.9143 41.3501 76.9143 41.3501Z" fill="#007188"/>
<path d="M60.2244 52.9504C59.9544 53.0904 58.1843 50.7003 56.6743 47.8503C56.4043 47.4103 56.1644 46.9504 56.0044 46.6404C55.3944 45.3804 52.9043 39.2704 53.1543 39.1404C53.4743 38.9704 56.5843 44.7703 57.4443 46.2703C57.6143 46.6103 57.9643 47.0704 58.1843 47.3704C59.6743 50.2104 60.4544 52.8304 60.2244 52.9504Z" fill="#E33525"/>
<path d="M53.2747 40.4102C52.9647 40.4402 51.5846 40.03 51.4646 38.79C51.3646 37.75 51.8245 36.6398 51.1445 35.7998C53.2245 36.2398 54.6846 38.3102 54.0146 39.9702C53.5546 40.2602 53.2747 40.4102 53.2747 40.4102Z" fill="#64352C"/>
<path d="M53.1953 40.4302C53.2553 40.5302 53.4653 40.8602 53.6653 40.9302C53.8453 40.9102 54.1753 40.6499 54.1753 40.6499C54.1753 40.6499 54.2254 40.1899 53.9854 39.9399C53.7354 39.9199 53.2353 40.2102 53.1953 40.4302Z" fill="#DCDCDC"/>
<path d="M50.9336 35.3903C50.9336 35.3903 51.5238 36.1402 51.3438 37.4602C51.2237 38.3702 51.3538 38.9 52.1038 38.53C52.8538 38.16 53.7536 37.5601 54.1636 39.1101C54.9636 38.1401 53.6236 35.0603 50.9336 35.3903Z" fill="#F5A81C"/>
<path d="M57.5018 49.82C57.7918 49.7 58.4019 49.2602 58.2719 48.9802C58.1419 48.7102 57.4918 48.8703 57.4918 48.8703C57.4918 48.8703 58.1818 48.4003 57.9418 48.1203C57.7618 47.9103 57.0619 48.2902 57.0619 48.2902C57.0619 48.2902 57.6219 47.6504 57.3119 47.4504C57.1219 47.3304 56.6918 47.6901 56.6918 47.6901C56.6918 47.6901 56.9119 47.02 56.6119 46.84C56.3119 46.66 55.7519 47.4201 55.7619 47.8801C55.7619 48.2501 56.2118 48.07 56.2118 48.07C56.2118 48.07 55.8917 48.36 56.1417 48.76C56.2817 49 56.6317 48.7702 56.6317 48.7702C56.6317 48.7702 56.3218 49.1 56.4918 49.32C56.6618 49.54 57.0719 49.2702 57.0719 49.2702C57.0719 49.2702 56.8018 50.12 57.5018 49.82Z" fill="#F9CCAC"/>
<path d="M57.1912 46.3397C57.5312 46.1897 57.9412 46.18 58.4712 46.66C59.2612 47.36 58.9912 48.4498 58.7112 48.4398C58.3312 48.4198 57.9712 47.2299 57.9712 47.2299C57.9712 47.2299 57.4313 47.4398 57.0513 47.1498C56.4813 46.6998 56.9712 46.4297 57.1912 46.3397Z" fill="#F9CCAC"/>
<path d="M97.7827 48.6699C97.9427 50.7399 94.8227 52.6602 90.8127 52.9702C86.8027 53.2802 83.4227 51.8498 83.2627 49.7798C83.1927 48.9298 86.9528 48.8099 87.8428 48.1099C89.1028 47.1099 87.8827 45.6702 90.2427 45.4902C94.2427 45.1802 97.6227 46.5999 97.7827 48.6699Z" fill="#D58C48"/>
<path d="M97.7315 48.29C97.8815 50.24 94.7916 52.06 90.8316 52.37C86.8716 52.67 83.5414 51.3401 83.3914 49.3901C83.3314 48.6201 86.8514 48.5501 87.6614 47.9101C88.8914 46.9201 87.8915 45.4997 90.2915 45.3197C94.2615 45.0097 97.5915 46.34 97.7315 48.29Z" fill="#E5AF78"/>
<path d="M87.4113 49.8801C87.4413 50.2301 86.8813 50.5604 86.1613 50.6204C85.4413 50.6804 84.8415 50.4303 84.8215 50.0803C84.7915 49.7303 85.3515 49.4001 86.0715 49.3401C86.7815 49.2901 87.3813 49.5301 87.4113 49.8801Z" fill="#005EA6"/>
<path d="M89.9308 51.05C89.9608 51.4 89.4008 51.7303 88.6808 51.7903C87.9708 51.8503 87.361 51.6102 87.341 51.2502C87.311 50.9002 87.871 50.57 88.591 50.51C89.301 50.46 89.9008 50.7 89.9308 51.05Z" fill="#FCE15D"/>
<path d="M93.103 50.9104C93.133 51.2604 92.573 51.5901 91.853 51.6501C91.133 51.7001 90.5329 51.4601 90.5129 51.1101C90.4829 50.7601 91.0429 50.4304 91.7629 50.3704C92.4729 50.3204 93.083 50.5604 93.103 50.9104Z" fill="#F0F7FB"/>
<path d="M95.8823 49.6899C95.9123 50.0399 95.3523 50.3701 94.6323 50.4301C93.9123 50.4801 93.3124 50.24 93.2824 49.89C93.2524 49.54 93.8124 49.2098 94.5324 49.1498C95.2524 49.0898 95.8623 49.3299 95.8823 49.6899Z" fill="#E33525"/>
<path d="M96.9018 47.9202C96.9318 48.2702 96.3718 48.6004 95.6518 48.6604C94.9318 48.7204 94.3319 48.4704 94.3019 48.1204C94.2719 47.7704 94.8319 47.4401 95.5519 47.3801C96.2719 47.3301 96.8718 47.5702 96.9018 47.9202Z" fill="#44B8E9"/>
<path d="M95.0912 46.6804C95.1212 47.0304 94.5612 47.3602 93.8412 47.4202C93.1212 47.4702 92.5212 47.2301 92.5012 46.8801C92.4712 46.5301 93.0312 46.2004 93.7512 46.1404C94.4612 46.0904 95.0612 46.3304 95.0912 46.6804Z" fill="#009E65"/>
<path d="M89.2118 46.3799C89.5218 46.1999 89.8817 45.78 90.9117 45.77C91.3017 45.79 91.9619 46.3098 91.3319 46.5098C91.1419 46.5698 90.7519 46.6498 90.6219 46.8398C90.6519 47.2398 88.4118 46.8299 89.2118 46.3799Z" fill="#F9CCAC"/>
<path d="M77.7224 59.46C77.7224 59.46 77.7825 72.2101 77.8625 73.6001C76.9425 73.8301 76.3726 73.6602 76.3726 73.6602L75.9023 59.2402L77.7224 59.46Z" fill="#F9CCAC"/>
<path d="M76.0922 74.29C75.9122 74.69 75.8521 75.4102 76.7821 76.2002C77.7121 76.9902 78.6321 77.6702 80.0321 77.1802C81.1821 76.7802 80.7021 75.4302 80.7021 75.4302L76.0922 74.29Z" fill="#E5E4E4"/>
<path d="M76.2406 72.6201C76.0206 72.9801 75.7806 74.38 76.4806 75C77.1806 75.62 78.6607 76.8498 80.0307 76.3398C81.2807 75.8798 80.5607 74.7798 79.8607 74.3398C79.1607 73.8898 77.8307 72.6602 77.8307 72.6602C77.8307 72.6602 77.6506 73.4301 76.2406 72.6201Z" fill="#20B6CE"/>
<path d="M78.6103 73.2997C78.0903 73.1397 77.3603 73.3897 77.1103 73.7597C76.8603 74.1197 77.1601 74.4198 77.3801 74.3998C77.6001 74.3798 78.2301 74.0802 78.9501 73.9902C79.6501 73.9002 79.0303 73.4197 78.6103 73.2997Z" fill="#E5E4E4"/>
<path d="M79.6532 74.2997C79.1332 74.1397 78.4032 74.3897 78.1532 74.7597C77.9032 75.1197 78.2032 75.4098 78.4232 75.3998C78.6432 75.3798 79.2733 75.0802 79.9933 74.9902C80.6933 74.9102 80.0632 74.4297 79.6532 74.2997Z" fill="#E5E4E4"/>
<path d="M68.8745 59.46C68.8745 59.46 68.8144 72.2101 68.7344 73.6001C69.6544 73.8301 70.2244 73.6602 70.2244 73.6602L70.6943 59.2402L68.8745 59.46Z" fill="#F9CCAC"/>
<path d="M70.5128 74.29C70.6928 74.69 70.6928 75.4598 69.7628 76.2598C68.8328 77.0498 67.7729 77.5999 66.3729 77.1299C65.1929 76.7299 65.9127 75.4399 65.9127 75.4399L70.5128 74.29Z" fill="#E5E4E4"/>
<path d="M70.3521 72.6201C70.5721 72.9801 70.8121 74.38 70.1121 75C69.4121 75.62 68.162 76.73 66.472 76.27C65.152 75.91 66.032 74.7898 66.722 74.3398C67.422 73.8898 68.752 72.6602 68.752 72.6602C68.752 72.6602 68.9521 73.4301 70.3521 72.6201Z" fill="#20B6CE"/>
<path d="M67.9929 73.2997C68.5129 73.1397 69.2429 73.3897 69.4929 73.7597C69.7429 74.1197 69.4429 74.4198 69.2229 74.3998C69.0029 74.3798 68.3729 74.0802 67.6529 73.9902C66.9429 73.9002 67.5729 73.4197 67.9929 73.2997Z" fill="#E5E4E4"/>
<path d="M67.1412 74.2299C67.6612 74.0699 68.3912 74.3199 68.6412 74.6899C68.8912 75.0599 68.5914 75.35 68.3714 75.33C68.1514 75.31 67.5214 75.0099 66.8014 74.9199C66.0914 74.8299 66.7212 74.3499 67.1412 74.2299Z" fill="#E5E4E4"/>
<path d="M64.7447 14.4303C70.7347 7.90033 79.3946 7.55037 84.9546 12.4704C87.7246 14.9204 87.8946 18.4303 87.8946 18.4303C87.8946 18.4303 89.7946 19.7402 90.4146 23.5802C90.7046 25.3402 89.9148 31.8201 86.5748 31.2301C86.5748 31.2301 78.7448 29.63 74.3348 28.55C69.8048 28.18 62.6048 27.34 62.6048 27.34C59.9648 22.56 62.6347 16.7403 64.7447 14.4303Z" fill="#854132"/>
<path d="M86.5746 30.7901C85.4446 37.7601 78.4946 41.3898 71.7846 40.2998C65.0746 39.2098 61.1446 33.8099 62.2746 26.8399C63.4046 19.8699 69.7245 15.3502 76.4345 16.4502C83.1445 17.5302 87.7046 23.8201 86.5746 30.7901Z" fill="#F9CCAC"/>
<path d="M76.0461 30.7797C76.0161 30.9097 75.866 30.9801 75.696 30.9501C75.536 30.9101 75.416 30.7798 75.446 30.6498C75.476 30.5298 75.6361 30.4399 75.8061 30.4799C75.9661 30.5199 76.0761 30.6497 76.0461 30.7797Z" fill="#E27857"/>
<path d="M75.566 29.6097C75.536 29.7397 75.3859 29.8097 75.2159 29.7797C75.0459 29.7397 74.9359 29.6099 74.9659 29.4799C74.9959 29.3599 75.156 29.2699 75.326 29.3099C75.486 29.3499 75.596 29.4797 75.566 29.6097Z" fill="#E27857"/>
<path d="M74.5461 30.4799C74.5161 30.6099 74.366 30.6798 74.196 30.6498C74.036 30.6098 73.916 30.48 73.946 30.35C73.976 30.23 74.1361 30.14 74.3061 30.18C74.4661 30.21 74.5761 30.3499 74.5461 30.4799Z" fill="#E27857"/>
<path d="M69.417 29.7001C69.387 29.8301 69.2371 29.9 69.0671 29.87C68.9071 29.83 68.7871 29.6997 68.8171 29.5697C68.8471 29.4497 69.007 29.3598 69.177 29.3998C69.337 29.4398 69.447 29.5701 69.417 29.7001Z" fill="#E27857"/>
<path d="M68.9368 28.5399C68.9068 28.6699 68.757 28.7398 68.587 28.7098C68.417 28.6698 68.307 28.54 68.337 28.41C68.367 28.29 68.5268 28.2001 68.6968 28.2401C68.8568 28.2701 68.9668 28.4099 68.9368 28.5399Z" fill="#E27857"/>
<path d="M67.9053 29.3998C67.8753 29.5298 67.7254 29.5997 67.5554 29.5697C67.3954 29.5297 67.2754 29.3999 67.3054 29.2699C67.3354 29.1499 67.4953 29.06 67.6653 29.1C67.8253 29.14 67.9353 29.2698 67.9053 29.3998Z" fill="#E27857"/>
<path d="M86.075 30.7598C86.075 30.7598 86.4648 29.3699 88.2148 29.3999C90.0548 29.4299 90.4549 31.9102 89.2949 33.2002C88.1249 34.4902 86.105 34.24 85.625 33.04L86.075 30.7598Z" fill="#F9CCAC"/>
<path d="M88.4957 30.0698C87.3357 29.7098 86.1258 31.6701 87.5958 32.9501C87.1058 31.4001 87.7858 30.9697 88.5458 31.7797C88.5958 31.2997 88.3359 30.9599 87.6159 30.9199C87.7459 30.2999 88.4957 30.0698 88.4957 30.0698Z" fill="#D68461"/>
<path d="M73.0071 26.79C72.7871 27.48 70.8272 28.01 71.3672 28.98C71.7072 29.58 72.6872 29.59 72.8572 28.52C72.9572 27.9 73.0071 26.79 73.0071 26.79Z" fill="#EC7860"/>
<path d="M76.5163 31.9904C76.4063 32.6804 77.3762 33.41 78.6762 33.61C79.9762 33.81 81.1163 33.4101 81.2163 32.7101C81.3263 32.0201 80.3564 31.29 79.0564 31.09C77.7564 30.89 76.6163 31.2904 76.5163 31.9904Z" fill="#EC7860"/>
<path d="M62.446 29.8197C62.336 30.5097 63.3062 31.2398 64.6062 31.4398C65.9062 31.6398 67.046 31.2399 67.146 30.5399C67.256 29.8499 66.286 29.1198 64.986 28.9198C63.686 28.7298 62.546 29.1297 62.446 29.8197Z" fill="#EC7860"/>
<path d="M67.4072 22.7102C68.6772 22.3902 68.9074 23.7902 68.0674 23.7702C67.1674 23.7402 66.4074 24.0502 66.2974 23.9602C66.0474 23.7502 66.6872 22.8802 67.4072 22.7102Z" fill="#854132"/>
<path d="M78.7352 24.4902C77.5252 23.9802 77.0951 25.3299 77.9251 25.4399C78.8151 25.5499 79.5251 25.9701 79.6451 25.8901C79.9151 25.7301 79.4152 24.7802 78.7352 24.4902Z" fill="#854132"/>
<path d="M68.7369 30.68C69.7669 29.86 69.8369 31.4198 71.7669 31.7098C73.7469 32.0098 74.287 30.48 75.027 31.85C75.637 32.97 73.9969 38.5198 70.7669 37.9598C67.5269 37.3998 67.7569 31.47 68.7369 30.68Z" fill="#5C2A26"/>
<path d="M73.208 37.1301C72.548 37.7601 71.7281 38.1304 70.7781 37.9704C69.8781 37.8104 69.2481 37.2502 68.8281 36.5002C69.4281 36.2802 70.198 36.1803 71.158 36.3303C72.058 36.4603 72.728 36.7601 73.208 37.1301Z" fill="#E97068"/>
<path d="M69.0977 30.4801C69.8177 30.2501 70.0876 31.4603 71.7676 31.7203C73.4676 31.9803 74.1075 30.8803 74.7275 31.4503C73.9775 32.6003 72.8976 33.4603 71.5376 33.2203C70.1876 32.9803 69.4377 31.8101 69.0977 30.4801Z" fill="white"/>
<path d="M78.7581 27.8099C80.2481 28.0599 80.5982 29.9099 80.6082 29.8299C80.8082 28.6399 80.0181 27.5097 78.8381 27.2997C77.6581 27.0997 76.5381 27.9 76.3281 29.1C76.3281 29.18 77.1681 27.5399 78.7581 27.8099Z" fill="#773332"/>
<path d="M66.3578 25.89C67.8478 26.14 68.1976 27.99 68.2176 27.91C68.4176 26.72 67.6276 25.59 66.4476 25.39C65.2676 25.19 64.1476 25.9898 63.9376 27.1898C63.9276 27.2598 64.7678 25.62 66.3578 25.89Z" fill="#773332"/>
<path d="M86.9065 29.6399C86.9065 29.6399 81.9067 27.4499 83.2967 23.3299C75.3067 25.7299 65.5767 15.22 62.3367 25.74C62.2067 16.88 78.6967 11.3996 86.8167 21.3396C88.9067 24.3496 86.9065 29.6399 86.9065 29.6399Z" fill="#854132"/>
<path d="M86.9942 27.0603C86.5542 24.9003 83.9443 26.3701 85.1043 27.9201C82.6043 27.4601 83.3542 30.8801 85.5142 29.8401C84.7242 32.5501 87.6141 31.7004 87.6341 30.4304C90.3041 30.8504 90.1941 28.19 88.3841 28.07C90.4441 26.76 87.7842 25.1403 86.9942 27.0603Z" fill="white"/>
<path d="M85.674 29.2701C86.054 29.8401 86.824 30.0002 87.404 29.6202C87.974 29.2402 88.1341 28.4702 87.7541 27.8902C87.3741 27.3202 86.6041 27.1601 86.0241 27.5401C85.4441 27.9201 85.294 28.6901 85.674 29.2701Z" fill="#FAC220"/>
<path d="M82.043 9.52992C82.043 9.52992 85.4328 6.40009 86.8928 7.71009C88.3428 9.02009 82.353 10.2501 82.353 10.2501L82.043 9.52992Z" fill="#E33525"/>
<path d="M89.7723 22.15C90.1723 23.45 93.1024 21.96 90.8524 17.59C87.9824 12 78.4722 4.64995 68.9622 5.06995C59.4522 5.48995 61.8822 12.3399 65.6422 13.7799C71.5522 13.4999 77.6424 14.2802 83.8424 17.0402C87.7824 18.7802 89.4923 21.24 89.7723 22.15Z" fill="#EB7A23"/>
<path d="M80.6521 61.1299C80.6521 61.1299 71.3322 62.8599 65.9922 61.1299C66.4522 53.9099 67.8821 41.8599 67.8821 41.8599L68.8223 41.4502L68.8523 46.8901L77.3123 46.77L77.2522 41.4302L78.1421 41.7202L80.6521 61.1299Z" fill="#E5E4E4"/>
<path d="M65.8806 66.9702V70.4702H65.8708C65.7708 70.8202 65.0907 71.0898 64.2607 71.0898C63.4307 71.0898 62.7506 70.8202 62.6506 70.4702H62.6406V66.9702H65.8806Z" fill="#814090"/>
<path d="M66.1099 65.7998V67.21H66.0999C65.9899 67.61 65.2098 67.9199 64.2698 67.9199C63.3298 67.9199 62.5497 67.61 62.4397 67.21H62.4297V65.7998H66.1099Z" fill="#9373AF"/>
<path d="M64.2603 66.6099C65.282 66.6099 66.1104 66.2472 66.1104 65.7998C66.1104 65.3525 65.282 64.9902 64.2603 64.9902C63.2385 64.9902 62.4102 65.3525 62.4102 65.7998C62.4102 66.2472 63.2385 66.6099 64.2603 66.6099Z" fill="#B091C2"/>
<path d="M64.2607 68.9302C65.1507 68.9302 65.8806 68.6102 65.8806 68.2202V69.4502H65.8708C65.7708 69.8002 65.0907 70.0698 64.2607 70.0698C63.4307 70.0698 62.7506 69.8002 62.6506 69.4502H62.6406V68.2202C62.6406 68.6202 63.3707 68.9302 64.2607 68.9302Z" fill="#B091C2"/>
<path d="M56.5291 67.7798V71.2798H56.519C56.419 71.6298 55.7389 71.8999 54.9089 71.8999C54.0789 71.8999 53.3991 71.6298 53.2991 71.2798H53.2891V67.7798H56.5291Z" fill="#168BCB"/>
<path d="M56.7581 66.6099V68.02H56.748C56.638 68.42 55.858 68.73 54.918 68.73C53.978 68.73 53.1981 68.42 53.0881 68.02H53.0781V66.6099H56.7581Z" fill="#44B8E9"/>
<path d="M54.9084 67.4199C55.9302 67.4199 56.7585 67.0572 56.7585 66.6099C56.7585 66.1625 55.9302 65.7998 54.9084 65.7998C53.8867 65.7998 53.0586 66.1625 53.0586 66.6099C53.0586 67.0572 53.8867 67.4199 54.9084 67.4199Z" fill="#A7DAF5"/>
<path d="M54.9089 69.7402C55.7989 69.7402 56.5291 69.4198 56.5291 69.0298V70.2598H56.519C56.419 70.6098 55.7389 70.8799 54.9089 70.8799C54.0789 70.8799 53.3991 70.6098 53.2991 70.2598H53.2891V69.0298C53.2991 69.4198 54.0189 69.7402 54.9089 69.7402Z" fill="#A7DAF5"/>
<path d="M61.0583 75.8398L57.6084 75.2798V75.27C57.2784 75.12 57.1183 74.3998 57.2483 73.5898C57.3783 72.7698 57.7584 72.1401 58.1184 72.1001V72.0898L61.5683 72.6499L61.0583 75.8398Z" fill="#F4AA1C"/>
<path d="M62.169 76.2598L60.7791 76.0298V76.02C60.3991 75.85 60.2192 75.0301 60.3692 74.1001C60.5192 73.1701 60.9492 72.4499 61.3692 72.3999V72.3901L62.7591 72.6201L62.169 76.2598Z" fill="#FFCA05"/>
<path d="M63.5129 74.8029C63.6767 73.7943 63.4515 72.9185 63.0099 72.8468C62.5683 72.7751 62.0775 73.5346 61.9137 74.5432C61.7499 75.5517 61.9752 76.4273 62.4168 76.499C62.8584 76.5707 63.3492 75.8114 63.5129 74.8029Z" fill="#FFD55A"/>
<path d="M59.3782 73.9302C59.2382 74.8102 59.4283 75.5801 59.8183 75.6401L58.6084 75.4399V75.4302C58.2784 75.2802 58.1183 74.5602 58.2483 73.7402C58.3783 72.9202 58.7584 72.2898 59.1184 72.2598V72.25L60.3284 72.4502C59.9484 72.3802 59.5182 73.0502 59.3782 73.9302Z" fill="#FFD55A"/>
<path d="M54.6775 72.2402V75.7402H54.6675C54.5675 76.0902 53.8876 76.3599 53.0576 76.3599C52.2276 76.3599 51.5475 76.0902 51.4475 75.7402H51.4375V72.2402H54.6775Z" fill="#DA1F26"/>
<path d="M54.9104 71.0698V72.48H54.9004C54.7904 72.88 54.0106 73.1899 53.0706 73.1899C52.1306 73.1899 51.3505 72.88 51.2405 72.48H51.2305V71.0698H54.9104Z" fill="#E54327"/>
<path d="M53.0688 71.8799C54.0906 71.8799 54.9187 71.5172 54.9187 71.0698C54.9187 70.6225 54.0906 70.2598 53.0688 70.2598C52.0471 70.2598 51.2188 70.6225 51.2188 71.0698C51.2188 71.5172 52.0471 71.8799 53.0688 71.8799Z" fill="#EA6749"/>
<path d="M53.0693 74.21C53.9593 74.21 54.6892 73.89 54.6892 73.5V74.73H54.6792C54.5792 75.08 53.8993 75.3501 53.0693 75.3501C52.2393 75.3501 51.5592 75.08 51.4592 74.73H51.4492V73.5C51.4492 73.89 52.1693 74.21 53.0693 74.21Z" fill="#EA6749"/>
<path d="M47.9401 71.3501L44.7502 69.9102L44.7402 69.9199C44.3802 69.8599 43.8502 70.3699 43.5102 71.1299C43.1702 71.8899 43.1401 72.6201 43.4201 72.8501L43.4101 72.8599L46.6003 74.2998L47.9401 71.3501Z" fill="#D5117F"/>
<path d="M49.1003 71.6201L47.8202 71.04L47.8102 71.0498C47.4002 70.9898 46.8001 71.5702 46.4101 72.4302C46.0201 73.2902 45.9802 74.1301 46.3002 74.3901L46.2902 74.3999L47.5702 74.98L49.1003 71.6201Z" fill="#DE5798"/>
<path d="M48.972 73.493C49.3927 72.5619 49.4031 71.6579 48.9954 71.4737C48.5877 71.2896 47.9167 71.8951 47.4961 72.8262C47.0754 73.7573 47.0645 74.6613 47.4721 74.8455C47.8798 75.0297 48.5514 74.4241 48.972 73.493Z" fill="#E770A5"/>
<path d="M45.482 72.0098C45.852 71.1998 46.442 70.6701 46.792 70.8301L45.6719 70.3198L45.6619 70.3301C45.3019 70.2701 44.7719 70.78 44.4319 71.54C44.0919 72.3 44.0621 73.0298 44.3421 73.2598L44.3321 73.27L45.452 73.7798C45.112 73.6198 45.112 72.8298 45.482 72.0098Z" fill="#E770A5"/>
<path d="M45.1995 67.54V68.9502H45.1895C45.0795 69.3502 44.2996 69.6602 43.3596 69.6602C42.4196 69.6602 41.6395 69.3502 41.5295 68.9502H41.5195V67.54H45.1995Z" fill="#78B94D"/>
<path d="M43.3501 68.3501C44.3718 68.3501 45.2 67.9874 45.2 67.54C45.2 67.0927 44.3718 66.73 43.3501 66.73C42.3284 66.73 41.5 67.0927 41.5 67.54C41.5 67.9874 42.3284 68.3501 43.3501 68.3501Z" fill="#A8CD80"/>
<path d="M50.6033 65.6699V69.1699H50.5933C50.4933 69.5199 49.8132 69.79 48.9832 69.79C48.1532 69.79 47.4733 69.5199 47.3733 69.1699H47.3633V65.6699H50.6033Z" fill="#059E4A"/>
<path d="M48.9832 67.6299C49.8732 67.6299 50.6033 67.3099 50.6033 66.9199V68.1499H50.5933C50.4933 68.4999 49.8132 68.77 48.9832 68.77C48.1532 68.77 47.4733 68.4999 47.3733 68.1499H47.3633V66.9199C47.3633 67.3099 48.0932 67.6299 48.9832 67.6299Z" fill="#A8CD80"/>
<path d="M48.9814 66.4702C49.8817 66.4702 50.6116 66.1519 50.6116 65.7598C50.6116 65.3676 49.8817 65.0498 48.9814 65.0498C48.0812 65.0498 47.3516 65.3676 47.3516 65.7598C47.3516 66.1519 48.0812 66.4702 48.9814 66.4702Z" fill="#D8E29F"/>
<path d="M48.9822 66.3101C49.667 66.3101 50.2222 66.0635 50.2222 65.7598C50.2222 65.456 49.667 65.21 48.9822 65.21C48.2973 65.21 47.7422 65.456 47.7422 65.7598C47.7422 66.0635 48.2973 66.3101 48.9822 66.3101Z" fill="#A8CD80"/>
<path d="M48.9797 66.3101C49.6093 66.3101 50.1199 66.1622 50.1199 65.98C50.1199 65.7977 49.6093 65.6499 48.9797 65.6499C48.3501 65.6499 47.8398 65.7977 47.8398 65.98C47.8398 66.1622 48.3501 66.3101 48.9797 66.3101Z" fill="#059E4A"/>
</svg>
