<svg width="34" height="34" viewBox="0 0 34 34" fill="none" xmlns="http://www.w3.org/2000/svg">
<path d="M9.44848 27.6699L4.42846 32.6899C3.96846 33.1499 3.35853 33.3901 2.74853 33.3901C2.13853 33.3901 1.52859 33.1599 1.06859 32.6899C0.138594 31.7599 0.138594 30.2601 1.06859 29.3301L6.08861 24.3101C6.98861 25.6201 8.13848 26.7699 9.44848 27.6699ZM33.1384 13.3301C33.1384 20.3401 27.4385 26.04 20.4285 26.04C18.6985 26.04 17.0586 25.6898 15.5586 25.0698C14.7586 24.7398 13.9986 24.3198 13.2786 23.8398L11.2485 25.8701C9.87853 25.0301 8.72842 23.8698 7.88842 22.5098L9.91845 20.48C9.43845 19.77 9.01847 19.0102 8.68847 18.2002C8.05847 16.7002 7.7185 15.0501 7.7185 13.3301C7.7185 6.32008 13.4185 0.620117 20.4285 0.620117C27.4385 0.620117 33.1384 6.32008 33.1384 13.3301ZM30.6584 13.3301C30.6584 7.68008 26.0785 3.1001 20.4285 3.1001C14.7785 3.1001 10.1985 7.68008 10.1985 13.3301C10.1985 18.9801 14.7785 23.5601 20.4285 23.5601C26.0785 23.5701 30.6584 18.9901 30.6584 13.3301ZM20.7485 4.95996C17.6985 4.95996 15.0386 6.61984 13.6086 9.08984C14.8186 8.38984 16.2285 7.99023 17.7185 7.99023C22.2685 7.99023 25.9585 11.68 25.9585 16.23C25.9585 17.73 25.5586 19.1298 24.8586 20.3398C27.3286 18.9198 28.9885 16.2502 28.9885 13.2002C28.9885 8.6502 25.2985 4.95996 20.7485 4.95996Z" fill="white"/>
</svg>
