<svg width="42" height="41" viewBox="0 0 42 41" fill="none" xmlns="http://www.w3.org/2000/svg">
<path d="M11.5619 16.3701C11.4519 16.7001 11.5419 17.05 11.7919 17.29L15.0619 20.48C15.4519 20.86 15.6218 21.3999 15.5318 21.9299L14.7618 26.4399C14.7018 26.7799 14.8318 27.1101 15.1218 27.3201C15.4018 27.5301 15.7618 27.5499 16.0718 27.3899L20.1218 25.26C20.6018 25.01 21.1718 25.01 21.6518 25.26L25.7018 27.3899C26.0118 27.5499 26.3618 27.5301 26.6418 27.3201C26.9218 27.1201 27.0618 26.7899 27.0018 26.4399L26.2318 21.9299C26.1418 21.3999 26.3118 20.85 26.7018 20.48L29.9718 17.29C30.1518 17.12 30.2418 16.8899 30.2418 16.6599C30.2418 16.5699 30.2318 16.4699 30.1918 16.3799C30.0818 16.0499 29.8118 15.82 29.4618 15.77L24.9418 15.1101C24.4018 15.0301 23.9418 14.7 23.7018 14.21L21.6819 10.1101C21.5319 9.80011 21.2318 9.61011 20.8818 9.61011C20.5318 9.61011 20.2318 9.80011 20.0718 10.1101L18.0519 14.21C17.8119 14.7 17.3519 15.0301 16.8119 15.1101L12.2919 15.77C11.9419 15.81 11.6719 16.0401 11.5619 16.3701Z" fill="#FDCD07"/>
<path d="M10.3218 30.6299C10.3618 28.8499 9.59185 27.13 8.23184 25.98C7.67184 25.51 7.05187 25.1499 6.38187 24.9199C5.52187 24.6099 4.5819 24.5099 3.6619 24.6299H3.65189C3.30189 24.6699 2.95185 24.7501 2.61185 24.8601C2.33185 26.8701 3.09188 28.8999 4.64188 30.2099C5.63188 31.0499 6.84187 31.5301 8.13187 31.6001C8.81187 31.1401 9.55181 30.8199 10.3218 30.6299Z" fill="white"/>
<path d="M3.70004 23.8799C4.58004 23.7799 5.48005 23.8701 6.33005 24.1201C7.15005 22.5301 7.21008 20.65 6.49008 19.01C6.22008 18.4 5.86013 17.8501 5.41013 17.3701L5.40012 17.3601C4.79012 16.7001 4.02014 16.1901 3.17014 15.8701C3.16014 15.8701 3.16012 15.8701 3.15012 15.8601C2.76012 15.7101 2.35003 15.61 1.94003 15.55C0.810034 17.23 0.610147 19.39 1.43015 21.25C1.90015 22.34 2.69004 23.2499 3.70004 23.8799Z" fill="white"/>
<path d="M8.45987 9.87988C10.1999 9.42988 11.6499 8.21006 12.3899 6.56006C13.2199 4.70006 13.0199 2.54011 11.8999 0.860107C9.89994 1.15011 8.15987 2.45006 7.32987 4.31006C6.91987 5.23006 6.74988 6.23998 6.83988 7.22998C7.58988 7.96998 8.13987 8.87988 8.45987 9.87988Z" fill="white"/>
<path d="M5.72004 16.6201C7.19004 15.5001 8.05011 13.7499 8.04011 11.8899C8.04011 11.3899 7.97004 10.8899 7.84004 10.4099C7.57004 9.36991 7.01005 8.41992 6.23005 7.66992C6.22005 7.65992 6.21003 7.6499 6.21003 7.6499C5.91003 7.3699 5.59006 7.1199 5.24006 6.8999C3.53006 7.9899 2.49007 9.88992 2.50007 11.9199C2.51007 13.0999 2.86009 14.24 3.52009 15.21C4.34009 15.53 5.09004 16.0201 5.72004 16.6201Z" fill="white"/>
<path d="M33.5607 32.28C32.8707 31.79 32.1006 31.46 31.2806 31.3C31.2806 31.3 31.2806 31.3 31.2706 31.3C30.9006 31.23 30.5206 31.1899 30.1406 31.1899C28.3006 31.1899 26.5706 32.06 25.4606 33.5C25.4306 33.49 25.3206 33.47 25.1506 33.45C24.4806 33.38 22.8406 33.37 21.0206 34.55C19.2106 33.37 17.5706 33.38 16.8906 33.45C16.7106 33.47 16.6106 33.49 16.5706 33.5C15.4606 32.06 13.7306 31.1899 11.8906 31.1899C11.5106 31.1899 11.1306 31.23 10.7606 31.3H10.7506C9.93061 31.46 9.17059 31.79 8.48059 32.28C7.85059 32.73 7.30062 33.31 6.89062 33.96C7.97063 35.67 9.87063 36.73 11.9006 36.73C13.7706 36.73 15.5206 35.8401 16.6306 34.3701C16.6806 34.3801 16.7206 34.3801 16.7706 34.3601C16.7906 34.3601 16.8506 34.3401 16.9506 34.3301C17.4206 34.2701 18.7306 34.2301 20.2606 35.1201C19.1306 36.0501 17.9806 37.4899 16.9806 39.6799C16.8806 39.8999 16.9806 40.16 17.2006 40.26C17.2606 40.29 17.3206 40.3 17.3806 40.3C17.5506 40.3 17.7106 40.2 17.7806 40.04C18.7806 37.84 19.9306 36.4799 21.0206 35.6299C22.1206 36.4699 23.2606 37.84 24.2606 40.04C24.3306 40.2 24.4906 40.3 24.6606 40.3C24.7206 40.3 24.7806 40.29 24.8406 40.26C25.0606 40.16 25.1607 39.8999 25.0607 39.6799C24.0607 37.4899 22.9106 36.0501 21.7806 35.1201C23.3106 34.2301 24.6306 34.2801 25.0906 34.3301C25.1906 34.3401 25.2506 34.3501 25.2706 34.3601C25.3206 34.3701 25.3706 34.3701 25.4106 34.3701C26.5206 35.8401 28.2706 36.73 30.1406 36.73C32.1706 36.73 34.0706 35.67 35.1506 33.96C34.7406 33.31 34.1907 32.73 33.5607 32.28Z" fill="white"/>
<path d="M38.3686 24.6299C37.4586 24.5099 36.5186 24.6099 35.6486 24.9199C34.9786 25.1599 34.3486 25.51 33.7986 25.98C32.4386 27.13 31.6685 28.8499 31.7085 30.6299C32.4885 30.8199 33.2186 31.1401 33.8886 31.6001C35.1786 31.5301 36.3786 31.0499 37.3786 30.2099C38.9286 28.8999 39.6986 26.8701 39.4086 24.8601C39.0686 24.7501 38.7186 24.6699 38.3686 24.6299Z" fill="white"/>
<path d="M40.1012 15.55C39.6912 15.61 39.2812 15.7101 38.8812 15.8601H38.8712C38.0212 16.1801 37.2512 16.6901 36.6412 17.3501L36.6312 17.3601C36.1812 17.8401 35.8213 18.39 35.5513 19C34.8313 20.64 34.8912 22.5201 35.7112 24.1101C36.5612 23.8601 37.4612 23.7701 38.3412 23.8701C39.3512 23.2401 40.1412 22.34 40.6212 21.24C41.4312 19.39 41.2412 17.23 40.1012 15.55Z" fill="white"/>
<path d="M33.5709 9.87988C33.8909 8.87988 34.4509 7.96997 35.1909 7.21997C35.2809 6.22997 35.1109 5.22005 34.7009 4.30005C33.8709 2.44005 32.141 1.1401 30.131 0.850098C29.001 2.5301 28.811 4.70005 29.641 6.55005C30.381 8.21005 31.8309 9.42988 33.5709 9.87988Z" fill="white"/>
<path d="M33.9884 11.8899C33.9784 13.7499 34.8384 15.5001 36.3084 16.6201C36.9284 16.0101 37.6784 15.53 38.4984 15.21C39.1584 14.24 39.5184 13.0999 39.5184 11.9199C39.5284 9.88992 38.4884 7.9799 36.7784 6.8999C36.4284 7.1199 36.0984 7.37991 35.7984 7.65991L35.7884 7.66992C35.0084 8.42992 34.4484 9.36991 34.1784 10.4099C34.0584 10.8899 33.9884 11.3899 33.9884 11.8899Z" fill="white"/>
</svg>
