<svg width="132" height="122" viewBox="0 0 132 122" fill="none" xmlns="http://www.w3.org/2000/svg">
<path d="M65.6206 32.25C65.6206 34.19 64.3904 36.0302 62.2104 37.6602C62.0504 37.7802 61.8804 37.9 61.7104 38.02C58.8104 40.01 54.4604 41.67 49.1904 42.79C44.5004 43.79 39.0705 44.3599 33.3005 44.3599C32.6805 44.3599 32.0604 44.3498 31.4404 44.3398C19.9804 44.0998 10.0904 41.6098 4.89038 38.0298C4.72038 37.9098 4.55038 37.7899 4.39038 37.6699C2.21038 36.0399 0.980469 34.1998 0.980469 32.2598C0.980469 31.1098 1.41046 29.9902 2.22046 28.9302V29.77H2.23047C2.31047 31.2 3.05038 32.5701 4.39038 33.8501C4.55038 34.0001 4.71038 34.1498 4.89038 34.2998C6.44038 35.6098 8.6304 36.8098 11.4104 37.8398C16.8304 39.8498 23.9105 41.0299 31.5005 41.1899C32.0905 41.1999 32.6905 41.21 33.2905 41.21C38.9005 41.21 44.2805 40.6599 48.9905 39.6299C51.2205 39.1399 53.3004 38.5401 55.1804 37.8501C57.9604 36.8201 60.1504 35.6201 61.7004 34.3101C61.8704 34.1601 62.0404 34.0099 62.2004 33.8599C63.5504 32.5799 64.2906 31.1998 64.3606 29.7798H64.3706V28.9399C65.1906 29.9799 65.6206 31.09 65.6206 32.25Z" fill="#D9D3BA"/>
<path d="M61.7107 87.21C61.7107 87.29 61.7107 87.38 61.7107 87.46C61.7107 87.54 61.7107 87.63 61.7007 87.71C61.5007 92.91 54.8608 97.4 45.3608 99.48C42.4508 100.12 39.2807 100.54 35.9307 100.68C35.0607 100.72 34.1908 100.74 33.3008 100.74C32.1308 100.74 30.9708 100.71 29.8408 100.64C24.9208 100.36 20.3808 99.4902 16.5608 98.1802C9.63079 95.8102 5.07063 92 4.90063 87.71C4.90063 87.63 4.89062 87.54 4.89062 87.46C4.89062 87.38 4.89063 87.29 4.90063 87.21H4.89062V38.5898C6.33063 39.5398 8.10066 40.42 10.1807 41.21C11.1207 41.57 12.1106 41.9 13.1506 42.21C17.5306 43.52 22.6706 44.3699 28.1506 44.6899C29.2306 44.7499 30.3307 44.7998 31.4307 44.8198C32.0507 44.8298 32.6708 44.8398 33.3008 44.8398C38.8408 44.8398 44.1606 44.3198 48.9006 43.3398C51.6306 42.7798 54.1607 42.0602 56.4207 41.2002C58.5007 40.4102 60.2707 39.5301 61.7107 38.5801V87.21Z" fill="#D9D3BA"/>
<path d="M63.8689 11.8599C63.8789 11.9399 63.8787 12.0299 63.8787 12.1099C63.8787 12.1899 63.8789 12.2799 63.8689 12.3599C63.6689 15.6299 59.6188 18.5601 53.3188 20.5601C53.0488 20.6501 52.7688 20.7301 52.4888 20.8101C51.7488 21.0301 50.9787 21.2402 50.1887 21.4302C49.8187 21.5202 49.4488 21.6099 49.0688 21.6899C44.4588 22.7099 39.0588 23.2998 33.2988 23.2998C27.5288 23.2998 22.1288 22.7099 17.5288 21.6899C17.1488 21.6099 16.7787 21.5202 16.4087 21.4302C15.6087 21.2402 14.8489 21.0301 14.1089 20.8101C13.8289 20.7301 13.5488 20.6401 13.2788 20.5601C6.97881 18.5601 2.92876 15.6299 2.72876 12.3599C2.72876 12.2799 2.71875 12.1899 2.71875 12.1099C2.71875 12.0299 2.71876 11.9399 2.72876 11.8599C3.08876 5.80986 16.6688 0.919922 33.2988 0.919922C49.9288 0.919922 63.5089 5.80986 63.8689 11.8599Z" fill="#CD2027"/>
<path d="M63.8792 29.2598C63.8792 29.3398 63.8792 29.4298 63.8792 29.5098C63.8792 29.5898 63.8794 29.6798 63.8694 29.7598C63.7994 30.9498 63.2192 32.0902 62.1992 33.1602C62.0492 33.3202 61.8792 33.4901 61.6992 33.6401C59.1392 35.9801 54.4693 37.9399 48.5593 39.1899C44.0593 40.1399 38.8493 40.6899 33.2893 40.6899C32.6893 40.6899 32.0993 40.6799 31.5093 40.6699C30.2193 40.6399 28.9392 40.59 27.6992 40.5C22.4892 40.15 17.7393 39.3101 13.8093 38.1201C9.88933 36.9301 6.79915 35.4001 4.87915 33.6401C4.69915 33.4801 4.53915 33.3202 4.37915 33.1602C3.36915 32.0902 2.78923 30.9498 2.70923 29.7598C2.70923 29.6798 2.69922 29.5898 2.69922 29.5098C2.69922 29.4298 2.69923 29.3398 2.70923 29.2598H2.69922V14.2202C3.81922 16.5702 6.80916 18.7202 11.3892 20.4302C11.7392 20.5602 12.0992 20.6901 12.4692 20.8101C12.7292 20.9001 12.9893 20.9801 13.2493 21.0601C13.5193 21.1401 13.7893 21.2301 14.0693 21.3101C14.4893 21.4301 14.9194 21.5599 15.3594 21.6699C15.6994 21.7599 16.0392 21.8502 16.3792 21.9302C19.5092 22.6902 22.9594 23.23 26.5994 23.52C28.4994 23.67 30.4592 23.7598 32.4392 23.7798C32.7192 23.7798 32.9893 23.7798 33.2693 23.7798C39.3593 23.7798 45.1792 23.1299 50.1592 21.9199C50.2192 21.8999 50.2794 21.8899 50.3394 21.8799C50.6294 21.8099 50.9092 21.7402 51.1892 21.6602C51.9092 21.4702 52.6193 21.2598 53.2993 21.0498C53.5593 20.9698 53.8193 20.8798 54.0793 20.7998C54.4493 20.6798 54.8092 20.5499 55.1592 20.4199C59.7392 18.7199 62.7394 16.57 63.8494 14.21V29.2598H63.8792Z" fill="#ED2926"/>
<path opacity="0.2" d="M56.4192 41.21C58.4992 40.42 60.2692 39.5398 61.7092 38.5898V87.21H61.6992C61.7092 87.29 61.7092 87.38 61.7092 87.46C61.7092 87.54 61.7092 87.63 61.6992 87.71C61.4992 92.91 54.8594 97.4 45.3594 99.48C54.6594 76.28 48.8992 43.3501 48.8992 43.3501C51.6292 42.7801 54.1592 42.06 56.4192 41.21Z" fill="#47453D"/>
<path opacity="0.2" d="M48.5703 39.2002C51.0903 36.7402 51.6304 25.7501 50.3704 21.8901C50.6604 21.8201 50.9402 21.7499 51.2202 21.6699C51.9402 21.4799 52.6503 21.2701 53.3303 21.0601C53.5903 20.9801 53.8504 20.8901 54.1104 20.8101C54.4804 20.6901 54.8402 20.5602 55.1902 20.4302C59.7702 18.7302 62.7701 16.5802 63.8801 14.2202V29.2598H63.8704C63.8804 29.3398 63.8801 29.4298 63.8801 29.5098C63.8801 29.5898 63.8804 29.6798 63.8704 29.7598C63.8004 30.9498 63.2202 32.0902 62.2002 33.1602C62.0502 33.3202 61.8802 33.4901 61.7002 33.6401C59.1502 35.9901 54.4803 37.9502 48.5703 39.2002Z" fill="#47453D"/>
<path opacity="0.2" d="M65.6201 32.25C65.6201 34.19 64.39 36.0302 62.21 37.6602C62.05 37.7802 61.88 37.9 61.71 38.02C58.81 40.01 54.4599 41.67 49.1899 42.79C49.5199 42.04 49.89 40.6901 49 39.6201C51.23 39.1301 53.3099 38.5298 55.1899 37.8398C57.9699 36.8098 60.16 35.6098 61.71 34.2998C61.88 34.1498 62.05 34.0001 62.21 33.8501C63.56 32.5701 64.3001 31.19 64.3701 29.77H64.3799V28.9302C65.1899 29.9802 65.6201 31.09 65.6201 32.25Z" fill="#47453D"/>
<path d="M64.3804 28.1499V11.8599H64.3706C64.2006 8.78986 60.9604 5.93004 55.1904 3.79004C49.3404 1.62004 41.5705 0.419922 33.3005 0.419922C25.0405 0.419922 17.2604 1.62004 11.4104 3.79004C5.6404 5.93004 2.39047 8.78986 2.23047 11.8599H2.22046V28.1499C1.07046 29.4499 0.480469 30.8202 0.480469 32.2402C0.480469 34.3802 1.84038 36.4302 4.39038 38.2402V87.7002H4.40039C4.68039 95.1802 17.5305 101.23 33.3005 101.23C49.0605 101.23 61.9204 95.1802 62.2004 87.7002H62.2104V38.2402C64.7605 36.4302 66.1206 34.3702 66.1206 32.2402C66.1206 30.8302 65.5204 29.4499 64.3804 28.1499ZM2.73047 11.8599C3.09047 5.80986 16.6705 0.919922 33.3005 0.919922C49.9305 0.919922 63.5106 5.80986 63.8706 11.8599C63.8806 11.9399 63.8804 12.0299 63.8804 12.1099C63.8804 12.1899 63.8806 12.2799 63.8706 12.3599C63.6706 15.6299 59.6206 18.5601 53.3206 20.5601C53.0506 20.6501 52.7705 20.7301 52.4905 20.8101C51.7505 21.0301 50.9804 21.2402 50.1904 21.4302C49.8204 21.5202 49.4506 21.6099 49.0706 21.6899C44.4606 22.7099 39.0605 23.2998 33.3005 23.2998C27.5305 23.2998 22.1305 22.7099 17.5305 21.6899C17.1505 21.6099 16.7804 21.5202 16.4104 21.4302C15.6104 21.2402 14.8506 21.0301 14.1106 20.8101C13.8306 20.7301 13.5505 20.6401 13.2805 20.5601C6.98052 18.5601 2.93047 15.6299 2.73047 12.3599C2.73047 12.2799 2.72046 12.1899 2.72046 12.1099C2.72046 12.0299 2.72047 11.9399 2.73047 11.8599ZM2.72046 29.2598V28.3198V27.6201V27.3901V14.21C3.84046 16.56 6.8304 18.7099 11.4104 20.4199C11.7604 20.5499 12.1205 20.6798 12.4905 20.7998C12.7505 20.8898 13.0105 20.9698 13.2705 21.0498C13.9505 21.2698 14.6604 21.4702 15.3804 21.6602C15.7204 21.7502 16.0604 21.8399 16.4004 21.9199C21.3804 23.1299 27.2005 23.7798 33.2905 23.7798C39.3805 23.7798 45.2004 23.1299 50.1804 21.9199C50.5304 21.8399 50.8704 21.7502 51.2004 21.6602C51.9204 21.4702 52.6305 21.2598 53.3105 21.0498C53.5705 20.9698 53.8306 20.8798 54.0906 20.7998C54.4606 20.6798 54.8204 20.5499 55.1704 20.4199C59.7504 18.7199 62.7506 16.57 63.8606 14.21V27.3901V27.6201V28.3198V29.2598H63.8506C63.8606 29.3398 63.8606 29.4298 63.8606 29.5098C63.8606 29.5898 63.8606 29.6798 63.8506 29.7598C63.7806 30.9498 63.2004 32.0902 62.1804 33.1602C62.0304 33.3202 61.8604 33.4901 61.6804 33.6401C57.1804 37.7701 46.1405 40.6899 33.2705 40.6899C20.4005 40.6899 9.3706 37.7701 4.8606 33.6401C4.6806 33.4801 4.5206 33.3202 4.3606 33.1602C3.3506 32.0902 2.77043 30.9498 2.69043 29.7598C2.69043 29.6798 2.68042 29.5898 2.68042 29.5098C2.68042 29.4298 2.72046 29.3498 2.72046 29.2598ZM61.7104 84.9102V87.21H61.7004C61.7104 87.29 61.7104 87.38 61.7104 87.46C61.7104 87.54 61.7104 87.63 61.7004 87.71C61.4204 94.92 48.7905 100.74 33.3005 100.74C17.8105 100.74 5.18039 94.92 4.90039 87.71C4.90039 87.63 4.89038 87.54 4.89038 87.46C4.89038 87.38 4.89039 87.29 4.90039 87.21H4.89038V84.9102V38.5898C6.33038 39.5398 8.10042 40.42 10.1804 41.21C16.3604 43.55 24.5705 44.8398 33.3005 44.8398C42.0305 44.8398 50.2404 43.55 56.4204 41.21C58.5004 40.42 60.2705 39.5398 61.7104 38.5898V84.9102ZM62.2104 37.6602C62.0504 37.7802 61.8804 37.9 61.7104 38.02C56.2304 41.79 45.5505 44.3501 33.3005 44.3501C21.0505 44.3501 10.3704 41.78 4.89038 38.02C4.72038 37.9 4.55038 37.7802 4.39038 37.6602C2.21038 36.0302 0.980469 34.19 0.980469 32.25C0.980469 31.1 1.41046 29.9799 2.22046 28.9199V29.7598H2.23047C2.31047 31.1898 3.05038 32.5598 4.39038 33.8398C4.55038 33.9898 4.71038 34.14 4.89038 34.29C6.44038 35.6 8.6304 36.8001 11.4104 37.8301C17.2604 40.0001 25.0305 41.2002 33.3005 41.2002C41.5605 41.2002 49.3404 40.0001 55.1904 37.8301C57.9704 36.8001 60.1604 35.6 61.7104 34.29C61.8804 34.14 62.0504 33.9898 62.2104 33.8398C63.5604 32.5598 64.3006 31.1798 64.3706 29.7598H64.3804V28.9199C65.1904 29.9799 65.6206 31.1 65.6206 32.25C65.6206 34.19 64.3904 36.0302 62.2104 37.6602Z" fill="#47453D"/>
<path opacity="0.4" d="M8.93909 44.3502C8.26909 47.3902 8.10909 87.0299 8.93909 89.5098C9.76909 91.9999 21.2093 98.6301 23.8593 95.8101C26.5093 92.9901 27.9992 48.0801 27.0092 47.2501C26.0192 46.4201 9.28909 42.7102 8.93909 44.3502Z" fill="white"/>
<path opacity="0.2" d="M8.36957 21.2298C6.37957 23.0098 6.60956 31.6701 7.60956 33.4901C8.59956 35.3101 21.6995 40.2097 23.8495 38.5897C25.9995 36.9697 25.8394 26.6999 24.6794 25.5399C23.5194 24.3699 9.79957 19.9498 8.36957 21.2298Z" fill="white"/>
<path opacity="0.3" d="M4.89038 38.0098C4.72038 37.8898 4.55038 37.7699 4.39038 37.6499C2.21038 36.0199 0.980469 34.1802 0.980469 32.2402C0.980469 31.0902 1.41046 29.9702 2.22046 28.9102V29.75H2.23047C2.31047 31.18 3.05038 32.5501 4.39038 33.8301C4.55038 33.9801 4.71038 34.1298 4.89038 34.2798C6.44038 35.5898 8.6304 36.7898 11.4104 37.8198C16.8304 39.8298 23.9105 41.0099 31.5005 41.1699C31.4705 42.2199 31.4504 43.2698 31.4404 44.3198C19.9804 44.0798 10.0904 41.5898 4.89038 38.0098Z" fill="white"/>
<path opacity="0.3" d="M2.72095 29.5098C2.72095 29.4298 2.72096 29.3398 2.73096 29.2598H2.72095V14.2202C3.84095 16.5702 6.83089 18.7202 11.4109 20.4302C11.7609 20.5602 12.121 20.6901 12.491 20.8101C12.751 20.9001 13.011 20.9801 13.271 21.0601C13.541 21.1401 13.8111 21.2301 14.0911 21.3101C14.5111 21.4301 14.9409 21.5599 15.3809 21.6699C15.7209 21.7599 16.0609 21.8502 16.4009 21.9302C19.5309 22.6902 22.9811 23.23 26.6211 23.52C28.5211 23.67 30.4809 23.7598 32.4609 23.7798C31.9809 29.3998 31.661 35.0299 31.511 40.6699C30.221 40.6399 28.9409 40.59 27.7009 40.5C22.4909 40.15 17.741 39.3101 13.811 38.1201C9.89104 36.9301 6.80086 35.4001 4.88086 33.6401C4.70086 33.4801 4.54086 33.3202 4.38086 33.1602C3.37086 32.0902 2.79094 30.9498 2.71094 29.7598C2.72094 29.6798 2.72095 29.5898 2.72095 29.5098Z" fill="white"/>
<path opacity="0.3" d="M35.9307 100.68C35.0607 100.72 34.1908 100.74 33.3008 100.74C32.1308 100.74 30.9708 100.71 29.8408 100.64C24.9208 100.36 20.3808 99.4902 16.5608 98.1802C9.63079 95.8102 5.07063 92 4.90063 87.71C4.90063 87.63 4.89062 87.54 4.89062 87.46C4.89062 87.38 4.89063 87.29 4.90063 87.21H4.89062V38.5898C6.33063 39.5398 8.10066 40.42 10.1807 41.21C11.1207 41.57 12.1106 41.9 13.1506 42.21C17.5306 43.52 22.6706 44.3699 28.1506 44.6899C29.2306 44.7499 30.3307 44.7998 31.4307 44.8198C31.1607 63.5298 32.6707 82.2602 35.9307 100.68Z" fill="white"/>
<path d="M131.249 32.25C131.249 34.19 130.019 36.0302 127.839 37.6602C127.679 37.7802 127.509 37.9 127.339 38.02C124.439 40.01 120.089 41.67 114.819 42.79C110.129 43.79 104.699 44.3599 98.9292 44.3599C98.3092 44.3599 97.6893 44.3498 97.0693 44.3398C85.6093 44.0998 75.7193 41.6098 70.5193 38.0298C70.3493 37.9098 70.1793 37.7899 70.0193 37.6699C67.8393 36.0399 66.6094 34.1998 66.6094 32.2598C66.6094 31.1098 67.0394 29.9902 67.8494 28.9302V29.77H67.8594C67.9394 31.2 68.6793 32.5701 70.0193 33.8501C70.1793 34.0001 70.3393 34.1498 70.5193 34.2998C72.0693 35.6098 74.2593 36.8098 77.0393 37.8398C82.4593 39.8498 89.5392 41.0299 97.1292 41.1899C97.7192 41.1999 98.3192 41.21 98.9192 41.21C104.529 41.21 109.909 40.6599 114.619 39.6299C116.849 39.1399 118.929 38.5401 120.809 37.8501C123.589 36.8201 125.779 35.6201 127.329 34.3101C127.499 34.1601 127.669 34.0099 127.829 33.8599C129.179 32.5799 129.919 31.1998 129.989 29.7798H129.999V28.9399C130.819 29.9799 131.249 31.09 131.249 32.25Z" fill="#D9D3BA"/>
<path d="M127.34 87.21C127.34 87.29 127.34 87.38 127.34 87.46C127.34 87.54 127.34 87.63 127.33 87.71C127.13 92.91 120.49 97.4 110.99 99.48C108.08 100.12 104.91 100.54 101.56 100.68C100.69 100.72 99.8194 100.74 98.9294 100.74C97.7594 100.74 96.5995 100.71 95.4695 100.64C90.5395 100.36 86.0095 99.4902 82.1895 98.1802C75.2595 95.8102 70.6995 92 70.5295 87.71C70.5195 87.63 70.5195 87.54 70.5195 87.46C70.5195 87.38 70.5195 87.29 70.5295 87.21H70.5195V38.5898C71.9595 39.5398 73.7296 40.42 75.8096 41.21C76.7496 41.57 77.7395 41.9 78.7795 42.21C83.1595 43.52 88.2995 44.3699 93.7795 44.6899C94.8595 44.7499 95.9596 44.7998 97.0596 44.8198C97.6796 44.8298 98.2994 44.8398 98.9294 44.8398C104.469 44.8398 109.79 44.3198 114.53 43.3398C117.26 42.7798 119.79 42.0602 122.05 41.2002C124.13 40.4102 125.9 39.5301 127.34 38.5801V87.21Z" fill="#D9D3BA"/>
<path d="M129.498 11.8599C129.508 11.9399 129.508 12.0299 129.508 12.1099C129.508 12.1899 129.508 12.2799 129.498 12.3599C129.298 15.6299 125.248 18.5601 118.948 20.5601C118.678 20.6501 118.398 20.7301 118.118 20.8101C117.378 21.0301 116.608 21.2402 115.818 21.4302C115.448 21.5202 115.078 21.6099 114.698 21.6899C110.088 22.7099 104.687 23.2998 98.9275 23.2998C93.1675 23.2998 87.7575 22.7099 83.1575 21.6899C82.7775 21.6099 82.4076 21.5202 82.0376 21.4302C81.2376 21.2402 80.4775 21.0301 79.7375 20.8101C79.4575 20.7301 79.1775 20.6401 78.9075 20.5601C72.6075 18.5601 68.5577 15.6299 68.3577 12.3599C68.3477 12.2799 68.3477 12.1899 68.3477 12.1099C68.3477 12.0299 68.3477 11.9399 68.3577 11.8599C68.7177 5.80986 82.2975 0.919922 98.9275 0.919922C115.567 0.919922 129.138 5.80986 129.498 11.8599Z" fill="#48853E"/>
<path d="M129.508 29.2598C129.508 29.3398 129.508 29.4298 129.508 29.5098C129.508 29.5898 129.508 29.6798 129.498 29.7598C129.428 30.9498 128.848 32.0902 127.828 33.1602C127.678 33.3202 127.508 33.4901 127.328 33.6401C124.768 35.9801 120.098 37.9399 114.188 39.1899C109.688 40.1399 104.478 40.6899 98.918 40.6899C98.318 40.6899 97.7279 40.6799 97.1379 40.6699C95.8479 40.6399 94.5681 40.59 93.3281 40.5C88.1181 40.15 83.368 39.3101 79.438 38.1201C75.518 36.9301 72.4281 35.4001 70.5081 33.6401C70.3281 33.4801 70.1681 33.3202 70.0081 33.1602C68.9981 32.0902 68.4181 30.9498 68.3381 29.7598C68.3281 29.6798 68.3281 29.5898 68.3281 29.5098C68.3281 29.4298 68.3281 29.3398 68.3381 29.2598H68.3281V14.2202C69.4481 16.5702 72.4381 18.7202 77.0181 20.4302C77.3681 20.5602 77.7281 20.6901 78.0981 20.8101C78.3581 20.9001 78.6179 20.9801 78.8779 21.0601C79.1479 21.1401 79.418 21.2301 79.698 21.3101C80.118 21.4301 80.548 21.5599 80.988 21.6699C81.328 21.7599 81.6681 21.8502 82.0081 21.9302C85.1381 22.6902 88.588 23.23 92.228 23.52C94.128 23.67 96.0881 23.7598 98.0681 23.7798C98.3481 23.7798 98.6179 23.7798 98.8979 23.7798C104.988 23.7798 110.808 23.1299 115.788 21.9199C115.848 21.8999 115.908 21.8899 115.968 21.8799C116.258 21.8099 116.538 21.7402 116.818 21.6602C117.538 21.4702 118.248 21.2598 118.928 21.0498C119.188 20.9698 119.448 20.8798 119.708 20.7998C120.078 20.6798 120.438 20.5499 120.788 20.4199C125.368 18.7199 128.368 16.57 129.478 14.21V29.2598H129.508Z" fill="#5BAA46"/>
<path opacity="0.2" d="M122.048 41.21C124.128 40.42 125.898 39.5398 127.338 38.5898V87.21H127.328C127.338 87.29 127.338 87.38 127.338 87.46C127.338 87.54 127.338 87.63 127.328 87.71C127.128 92.91 120.488 97.4 110.988 99.48C120.288 76.28 114.528 43.3501 114.528 43.3501C117.258 42.7801 119.788 42.06 122.048 41.21Z" fill="#47453D"/>
<path opacity="0.2" d="M114.199 39.2002C116.719 36.7402 117.259 25.7501 115.999 21.8901C116.289 21.8201 116.569 21.7499 116.849 21.6699C117.569 21.4799 118.279 21.2701 118.959 21.0601C119.219 20.9801 119.479 20.8901 119.739 20.8101C120.109 20.6901 120.469 20.5602 120.819 20.4302C125.399 18.7302 128.399 16.5802 129.509 14.2202V29.2598H129.499C129.509 29.3398 129.509 29.4298 129.509 29.5098C129.509 29.5898 129.509 29.6798 129.499 29.7598C129.429 30.9498 128.849 32.0902 127.829 33.1602C127.679 33.3202 127.509 33.4901 127.329 33.6401C124.779 35.9901 120.109 37.9502 114.199 39.2002Z" fill="#47453D"/>
<path opacity="0.2" d="M131.249 32.25C131.249 34.19 130.019 36.0302 127.839 37.6602C127.679 37.7802 127.509 37.9 127.339 38.02C124.439 40.01 120.089 41.67 114.819 42.79C115.149 42.04 115.519 40.6901 114.629 39.6201C116.859 39.1301 118.939 38.5298 120.819 37.8398C123.599 36.8098 125.789 35.6098 127.339 34.2998C127.509 34.1498 127.679 34.0001 127.839 33.8501C129.189 32.5701 129.929 31.19 129.999 29.77H130.009V28.9302C130.819 29.9802 131.249 31.09 131.249 32.25Z" fill="#47453D"/>
<path d="M130.009 28.1499V11.8599H129.999C129.829 8.78986 126.589 5.93004 120.819 3.79004C114.969 1.62004 107.199 0.419922 98.9292 0.419922C90.6692 0.419922 82.8893 1.62004 77.0393 3.79004C71.2693 5.93004 68.0194 8.78986 67.8594 11.8599H67.8494V28.1499C66.6994 29.4499 66.1094 30.8202 66.1094 32.2402C66.1094 34.3802 67.4693 36.4302 70.0193 38.2402V87.7002H70.0293C70.3093 95.1802 83.1592 101.23 98.9292 101.23C114.689 101.23 127.549 95.1802 127.829 87.7002H127.839V38.2402C130.389 36.4302 131.749 34.3702 131.749 32.2402C131.749 30.8302 131.159 29.4499 130.009 28.1499ZM68.3594 11.8599C68.7194 5.80986 82.2992 0.919922 98.9292 0.919922C115.559 0.919922 129.139 5.80986 129.499 11.8599C129.509 11.9399 129.509 12.0299 129.509 12.1099C129.509 12.1899 129.509 12.2799 129.499 12.3599C129.299 15.6299 125.249 18.5601 118.949 20.5601C118.679 20.6501 118.399 20.7301 118.119 20.8101C117.379 21.0301 116.609 21.2402 115.819 21.4302C115.449 21.5202 115.079 21.6099 114.699 21.6899C110.089 22.7099 104.689 23.2998 98.9292 23.2998C93.1692 23.2998 87.7592 22.7099 83.1592 21.6899C82.7792 21.6099 82.4093 21.5202 82.0393 21.4302C81.2393 21.2402 80.4793 21.0301 79.7393 20.8101C79.4593 20.7301 79.1792 20.6401 78.9092 20.5601C72.6092 18.5601 68.5594 15.6299 68.3594 12.3599C68.3494 12.2799 68.3494 12.1899 68.3494 12.1099C68.3494 12.0299 68.3594 11.9399 68.3594 11.8599ZM68.3494 29.2598V28.3198V27.6201V27.3901V14.21C69.4694 16.56 72.4593 18.7099 77.0393 20.4199C77.3893 20.5499 77.7494 20.6798 78.1194 20.7998C78.3794 20.8898 78.6392 20.9698 78.8992 21.0498C79.5792 21.2698 80.2893 21.4702 81.0093 21.6602C81.3493 21.7502 81.6893 21.8399 82.0293 21.9199C87.0093 23.1299 92.8292 23.7798 98.9192 23.7798C105.009 23.7798 110.829 23.1299 115.809 21.9199C116.159 21.8399 116.499 21.7502 116.829 21.6602C117.549 21.4702 118.259 21.2598 118.939 21.0498C119.199 20.9698 119.459 20.8798 119.719 20.7998C120.089 20.6798 120.449 20.5499 120.799 20.4199C125.379 18.7199 128.379 16.57 129.489 14.21V27.3901V27.6201V28.3198V29.2598H129.479C129.489 29.3398 129.489 29.4298 129.489 29.5098C129.489 29.5898 129.489 29.6798 129.479 29.7598C129.409 30.9498 128.829 32.0902 127.809 33.1602C127.659 33.3202 127.489 33.4901 127.309 33.6401C122.809 37.7701 111.769 40.6899 98.8992 40.6899C86.0292 40.6899 74.9993 37.7701 70.4893 33.6401C70.3093 33.4801 70.1493 33.3202 69.9893 33.1602C68.9793 32.0902 68.3993 30.9498 68.3193 29.7598C68.3093 29.6798 68.3093 29.5898 68.3093 29.5098C68.3093 29.4298 68.3594 29.3498 68.3494 29.2598ZM127.339 84.9102V87.21H127.329C127.339 87.29 127.339 87.38 127.339 87.46C127.339 87.54 127.339 87.63 127.329 87.71C127.049 94.92 114.419 100.74 98.9292 100.74C83.4392 100.74 70.8093 94.92 70.5293 87.71C70.5193 87.63 70.5193 87.54 70.5193 87.46C70.5193 87.38 70.5193 87.29 70.5293 87.21H70.5193V84.9102V38.5898C71.9593 39.5398 73.7293 40.42 75.8093 41.21C81.9893 43.55 90.1992 44.8398 98.9292 44.8398C107.659 44.8398 115.869 43.55 122.049 41.21C124.129 40.42 125.899 39.5398 127.339 38.5898V84.9102ZM127.839 37.6602C127.679 37.7802 127.509 37.9 127.339 38.02C121.859 41.79 111.179 44.3501 98.9292 44.3501C86.6792 44.3501 75.9993 41.78 70.5193 38.02C70.3493 37.9 70.1793 37.7802 70.0193 37.6602C67.8393 36.0302 66.6094 34.19 66.6094 32.25C66.6094 31.1 67.0394 29.9799 67.8494 28.9199V29.7598H67.8594C67.9394 31.1898 68.6793 32.5598 70.0193 33.8398C70.1793 33.9898 70.3393 34.14 70.5193 34.29C72.0693 35.6 74.2593 36.8001 77.0393 37.8301C82.8893 40.0001 90.6592 41.2002 98.9292 41.2002C107.189 41.2002 114.969 40.0001 120.819 37.8301C123.599 36.8001 125.789 35.6 127.339 34.29C127.509 34.14 127.679 33.9898 127.839 33.8398C129.189 32.5598 129.929 31.1798 129.999 29.7598H130.009V28.9199C130.819 29.9799 131.249 31.1 131.249 32.25C131.249 34.19 130.019 36.0302 127.839 37.6602Z" fill="#47453D"/>
<path opacity="0.4" d="M74.568 44.3502C73.898 47.3902 73.738 87.0299 74.568 89.5098C75.398 91.9999 86.8379 98.6301 89.4879 95.8101C92.1379 92.9901 93.6278 48.0801 92.6378 47.2501C91.6378 46.4201 74.928 42.7102 74.568 44.3502Z" fill="white"/>
<path opacity="0.2" d="M74.0102 21.2298C72.0202 23.0098 72.2502 31.6701 73.2502 33.4901C74.2402 35.3101 87.3402 40.2097 89.4902 38.5897C91.6402 36.9697 91.4803 26.6999 90.3203 25.5399C89.1503 24.3699 75.4302 19.9498 74.0102 21.2298Z" fill="white"/>
<path opacity="0.3" d="M70.5193 38.0098C70.3493 37.8898 70.1793 37.7699 70.0193 37.6499C67.8393 36.0199 66.6094 34.1802 66.6094 32.2402C66.6094 31.0902 67.0394 29.9702 67.8494 28.9102V29.75H67.8594C67.9394 31.18 68.6793 32.5501 70.0193 33.8301C70.1793 33.9801 70.3393 34.1298 70.5193 34.2798C72.0693 35.5898 74.2593 36.7898 77.0393 37.8198C82.4593 39.8298 89.5392 41.0099 97.1292 41.1699C97.0991 42.2199 97.0793 43.2698 97.0693 44.3198C85.6093 44.0798 75.7293 41.5898 70.5193 38.0098Z" fill="white"/>
<path opacity="0.3" d="M68.3499 29.5098C68.3499 29.4298 68.3499 29.3398 68.3599 29.2598H68.3499V14.2202C69.4699 16.5702 72.4598 18.7202 77.0398 20.4302C77.3898 20.5602 77.7499 20.6901 78.1199 20.8101C78.3799 20.9001 78.6397 20.9801 78.8997 21.0601C79.1697 21.1401 79.4397 21.2301 79.7197 21.3101C80.1397 21.4301 80.5698 21.5599 81.0098 21.6699C81.3498 21.7599 81.6898 21.8502 82.0298 21.9302C85.1598 22.6902 88.6098 23.23 92.2498 23.52C94.1498 23.67 96.1098 23.7598 98.0898 23.7798C97.6098 29.3998 97.2896 35.0299 97.1396 40.6699C95.8496 40.6399 94.5698 40.59 93.3298 40.5C88.1198 40.15 83.3697 39.3101 79.4397 38.1201C75.5197 36.9301 72.4298 35.4001 70.5098 33.6401C70.3298 33.4801 70.1698 33.3202 70.0098 33.1602C68.9998 32.0902 68.4198 30.9498 68.3398 29.7598C68.3598 29.6798 68.3499 29.5898 68.3499 29.5098Z" fill="white"/>
<path opacity="0.3" d="M101.56 100.68C100.69 100.72 99.8194 100.74 98.9294 100.74C97.7594 100.74 96.5995 100.71 95.4695 100.64C90.5395 100.36 86.0095 99.4902 82.1895 98.1802C75.2595 95.8102 70.6995 92 70.5295 87.71C70.5195 87.63 70.5195 87.54 70.5195 87.46C70.5195 87.38 70.5195 87.29 70.5295 87.21H70.5195V38.5898C71.9595 39.5398 73.7296 40.42 75.8096 41.21C76.7496 41.57 77.7395 41.9 78.7795 42.21C83.1595 43.52 88.2995 44.3699 93.7795 44.6899C94.8595 44.7499 95.9596 44.7998 97.0596 44.8198C96.7996 63.5298 98.2996 82.2602 101.56 100.68Z" fill="white"/>
<path d="M98.4407 52.8701C98.4407 54.8101 97.2108 56.6498 95.0308 58.2798C94.8708 58.3998 94.7008 58.5201 94.5308 58.6401C91.6308 60.6301 87.2807 62.2902 82.0107 63.4102C77.3207 64.4102 71.8909 64.98 66.1208 64.98C65.5008 64.98 64.8807 64.97 64.2607 64.96C52.8007 64.72 42.9107 62.2299 37.7107 58.6499C37.5407 58.5299 37.3707 58.41 37.2107 58.29C35.0307 56.66 33.8008 54.8199 33.8008 52.8799C33.8008 51.7299 34.2308 50.6098 35.0408 49.5498V50.3901H35.0508C35.1308 51.8201 35.8707 53.1902 37.2107 54.4702C37.3707 54.6202 37.5307 54.7699 37.7107 54.9199C39.2607 56.2299 41.4507 57.43 44.2307 58.46C49.6507 60.47 56.7308 61.6501 64.3208 61.8101C64.9108 61.8201 65.5108 61.8301 66.1108 61.8301C71.7208 61.8301 77.1008 61.28 81.8108 60.25C84.0408 59.76 86.1207 59.1602 88.0007 58.4702C90.7807 57.4402 92.9708 56.2402 94.5208 54.9302C94.6908 54.7802 94.8608 54.63 95.0208 54.48C96.3708 53.2 97.1107 51.8199 97.1807 50.3999H97.1907V49.5601C98.0007 50.6001 98.4407 51.7201 98.4407 52.8701Z" fill="#D9D3BA"/>
<path d="M94.5193 107.84C94.5193 107.92 94.5193 108.01 94.5193 108.09C94.5193 108.17 94.5193 108.26 94.5093 108.34C94.3093 113.54 87.6692 118.03 78.1692 120.11C75.2592 120.75 72.0893 121.17 68.7393 121.31C67.8693 121.35 66.9994 121.37 66.1094 121.37C64.9394 121.37 63.7792 121.34 62.6492 121.27C57.7192 120.99 53.1894 120.12 49.3694 118.81C42.4394 116.44 37.8792 112.63 37.7092 108.34C37.7092 108.26 37.6992 108.17 37.6992 108.09C37.6992 108.01 37.6992 107.92 37.7092 107.84H37.6992V59.2202C39.1392 60.1702 40.9093 61.0498 42.9893 61.8398C43.9293 62.1998 44.9192 62.5298 45.9592 62.8398C50.3392 64.1498 55.4792 64.9998 60.9592 65.3198C62.0392 65.3798 63.1393 65.4302 64.2393 65.4502C64.8593 65.4602 65.4794 65.4702 66.1094 65.4702C71.6494 65.4702 76.9692 64.9502 81.7092 63.9702C84.4392 63.4102 86.9692 62.6901 89.2292 61.8301C91.3092 61.0401 93.0793 60.16 94.5193 59.21V107.84Z" fill="#D9D3BA"/>
<path d="M96.689 32.4902C96.689 32.5702 96.699 32.6602 96.699 32.7402C96.699 32.8202 96.699 32.9102 96.689 32.9902C96.489 36.2602 92.4389 39.1899 86.1389 41.1899C85.8689 41.2799 85.5891 41.3599 85.3091 41.4399C84.5691 41.6599 83.799 41.8701 83.009 42.0601C82.639 42.1501 82.2689 42.2398 81.8889 42.3198C77.2789 43.3398 71.8791 43.9302 66.1191 43.9302C60.3491 43.9302 54.9491 43.3398 50.3491 42.3198C49.9691 42.2398 49.599 42.1501 49.229 42.0601C48.429 41.8701 47.669 41.6599 46.929 41.4399C46.649 41.3599 46.3691 41.2699 46.0991 41.1899C39.7991 39.1899 35.7491 36.2602 35.5491 32.9902C35.5491 32.9102 35.5391 32.8202 35.5391 32.7402C35.5391 32.6602 35.5391 32.5702 35.5491 32.4902C35.9091 26.4402 49.4891 21.5498 66.1191 21.5498C82.7491 21.5498 96.319 26.4302 96.689 32.4902Z" fill="#353894"/>
<path d="M96.6995 49.8901C96.6995 49.9701 96.6995 50.0601 96.6995 50.1401C96.6995 50.2201 96.6995 50.3101 96.6895 50.3901C96.6195 51.5801 96.0395 52.72 95.0195 53.79C94.8695 53.95 94.6995 54.12 94.5195 54.27C91.9595 56.61 87.2894 58.5698 81.3794 59.8198C76.8794 60.7698 71.6696 61.3198 66.1096 61.3198C65.5096 61.3198 64.9196 61.3098 64.3296 61.2998C63.0396 61.2698 61.7595 61.2199 60.5195 61.1299C55.3095 60.7799 50.5594 59.94 46.6294 58.75C42.7094 57.56 39.6195 56.03 37.6995 54.27C37.5195 54.11 37.3595 53.95 37.1995 53.79C36.1895 52.72 35.6095 51.5801 35.5295 50.3901C35.5295 50.3101 35.5195 50.2201 35.5195 50.1401C35.5195 50.0601 35.5195 49.9701 35.5295 49.8901H35.5195V34.8501C36.6395 37.2001 39.6295 39.3501 44.2095 41.0601C44.5595 41.1901 44.9196 41.3199 45.2896 41.4399C45.5496 41.5299 45.8096 41.6099 46.0696 41.6899C46.3396 41.7699 46.6094 41.8599 46.8894 41.9399C47.3094 42.0599 47.7394 42.1898 48.1794 42.2998C48.5194 42.3898 48.8595 42.4801 49.1995 42.5601C52.3195 43.3201 55.7794 43.8599 59.4194 44.1499C61.3194 44.2999 63.2795 44.3902 65.2595 44.4102C65.5395 44.4102 65.8096 44.4102 66.0896 44.4102C72.1796 44.4102 77.9995 43.7598 82.9795 42.5498C83.0395 42.5298 83.0994 42.5198 83.1594 42.5098C83.4494 42.4398 83.7295 42.37 84.0095 42.29C84.7295 42.1 85.4396 41.8902 86.1196 41.6802C86.3796 41.6002 86.6394 41.5102 86.8994 41.4302C87.2694 41.3102 87.6295 41.1798 87.9795 41.0498C92.5595 39.3498 95.5594 37.1998 96.6694 34.8398V49.8901H96.6995Z" fill="#404EA0"/>
<path opacity="0.2" d="M89.228 61.8398C91.308 61.0498 93.0781 60.1702 94.5181 59.2202V107.84H94.5081C94.5181 107.92 94.5181 108.01 94.5181 108.09C94.5181 108.17 94.5181 108.26 94.5081 108.34C94.3081 113.54 87.668 118.03 78.168 120.11C87.468 96.9099 81.708 63.98 81.708 63.98C84.438 63.41 86.968 62.6898 89.228 61.8398Z" fill="#47453D"/>
<path opacity="0.2" d="M81.3906 59.8301C83.9106 57.3701 84.4507 46.38 83.1807 42.52C83.4707 42.45 83.7508 42.3798 84.0308 42.2998C84.7508 42.1098 85.4606 41.8999 86.1406 41.6899C86.4006 41.6099 86.6607 41.5199 86.9207 41.4399C87.2907 41.3199 87.6507 41.1901 88.0007 41.0601C92.5807 39.3601 95.5807 37.2101 96.6907 34.8501V49.8901H96.6807C96.6807 49.9701 96.6907 50.0601 96.6907 50.1401C96.6907 50.2201 96.6907 50.3101 96.6807 50.3901C96.6107 51.5801 96.0307 52.72 95.0107 53.79C94.8607 53.95 94.6907 54.12 94.5107 54.27C91.9707 56.62 87.3006 58.5801 81.3906 59.8301Z" fill="#47453D"/>
<path opacity="0.2" d="M98.4402 52.8701C98.4402 54.8101 97.2103 56.6498 95.0303 58.2798C94.8703 58.3998 94.7003 58.5201 94.5303 58.6401C91.6303 60.6301 87.2803 62.2902 82.0103 63.4102C82.3403 62.6602 82.7103 61.3102 81.8203 60.2402C84.0503 59.7502 86.1303 59.15 88.0103 58.46C90.7903 57.43 92.9803 56.2299 94.5303 54.9199C94.7003 54.7699 94.8703 54.6202 95.0303 54.4702C96.3803 53.1902 97.1202 51.8101 97.1902 50.3901H97.2002V49.5498C98.0002 50.5998 98.4402 51.7201 98.4402 52.8701Z" fill="#47453D"/>
<path d="M97.189 48.7798V32.4902H97.179C97.009 29.4202 93.769 26.5599 87.999 24.4199C82.149 22.2499 74.3791 21.0498 66.1091 21.0498C57.8491 21.0498 50.069 22.2499 44.219 24.4199C38.449 26.5599 35.1991 29.4202 35.0391 32.4902H35.0291V48.7798C33.8791 50.0798 33.2891 51.4601 33.2891 52.8701C33.2891 55.0101 34.649 57.0601 37.199 58.8701V108.33H37.209C37.489 115.81 50.3391 121.86 66.1091 121.86C81.8691 121.86 94.729 115.81 95.009 108.33H95.019V58.8701C97.569 57.0601 98.929 55.0001 98.929 52.8701C98.929 51.4601 98.339 50.0798 97.189 48.7798ZM35.5391 32.4902C35.8991 26.4402 49.4791 21.5498 66.1091 21.5498C82.7391 21.5498 96.319 26.4402 96.679 32.4902C96.679 32.5702 96.689 32.6602 96.689 32.7402C96.689 32.8202 96.689 32.9102 96.679 32.9902C96.479 36.2602 92.4289 39.1899 86.1289 41.1899C85.8589 41.2799 85.5791 41.3599 85.2991 41.4399C84.5591 41.6599 83.789 41.8701 82.999 42.0601C82.629 42.1501 82.2589 42.2398 81.8789 42.3198C77.2689 43.3398 71.8691 43.9302 66.1091 43.9302C60.3391 43.9302 54.9391 43.3398 50.3391 42.3198C49.9591 42.2398 49.589 42.1501 49.219 42.0601C48.419 41.8701 47.6589 41.6599 46.9189 41.4399C46.6389 41.3599 46.3591 41.2699 46.0891 41.1899C39.7891 39.1899 35.7391 36.2602 35.5391 32.9902C35.5391 32.9102 35.5291 32.8202 35.5291 32.7402C35.5291 32.6602 35.5391 32.5702 35.5391 32.4902ZM35.5391 49.8901V48.9502V48.25V48.02V34.8398C36.6591 37.1898 39.649 39.3398 44.229 41.0498C44.579 41.1798 44.9391 41.3102 45.3091 41.4302C45.5691 41.5202 45.8291 41.6002 46.0891 41.6802C46.7691 41.9002 47.479 42.1 48.199 42.29C48.539 42.38 48.879 42.4698 49.219 42.5498C54.199 43.7598 60.0191 44.4102 66.1091 44.4102C72.1991 44.4102 78.019 43.7598 82.999 42.5498C83.349 42.4698 83.689 42.38 84.019 42.29C84.739 42.1 85.4489 41.8902 86.1289 41.6802C86.3889 41.6002 86.6489 41.5102 86.9089 41.4302C87.2789 41.3102 87.639 41.1798 87.989 41.0498C92.569 39.3498 95.569 37.1998 96.679 34.8398V48.02V48.25V48.9502V49.8901H96.6689C96.6689 49.9701 96.679 50.0601 96.679 50.1401C96.679 50.2201 96.6789 50.3101 96.6689 50.3901C96.5989 51.5801 96.019 52.72 94.999 53.79C94.849 53.95 94.679 54.12 94.499 54.27C89.999 58.4 78.9591 61.3198 66.0891 61.3198C53.2191 61.3198 42.189 58.4 37.679 54.27C37.499 54.11 37.339 53.95 37.179 53.79C36.169 52.72 35.589 51.5801 35.509 50.3901C35.509 50.3101 35.499 50.2201 35.499 50.1401C35.499 50.0601 35.5391 49.9701 35.5391 49.8901ZM94.519 105.54V107.84H94.509C94.519 107.92 94.519 108.01 94.519 108.09C94.519 108.17 94.519 108.26 94.509 108.34C94.229 115.55 81.5991 121.37 66.1091 121.37C50.6191 121.37 37.989 115.55 37.709 108.34C37.709 108.26 37.699 108.17 37.699 108.09C37.699 108.01 37.699 107.92 37.709 107.84H37.699V105.54V59.2202C39.139 60.1702 40.909 61.0498 42.989 61.8398C49.169 64.1798 57.3791 65.4702 66.1091 65.4702C74.8391 65.4702 83.049 64.1798 89.229 61.8398C91.309 61.0498 93.079 60.1702 94.519 59.2202V105.54ZM95.019 58.2798C94.859 58.3998 94.689 58.5201 94.519 58.6401C89.039 62.4101 78.3591 64.9702 66.1091 64.9702C53.8591 64.9702 43.179 62.4001 37.699 58.6401C37.529 58.5201 37.359 58.3998 37.199 58.2798C35.019 56.6498 33.7891 54.8101 33.7891 52.8701C33.7891 51.7201 34.2191 50.6 35.0291 49.54V50.3799H35.0391C35.1191 51.8099 35.859 53.18 37.199 54.46C37.359 54.61 37.519 54.7602 37.699 54.9102C39.249 56.2202 41.439 57.4202 44.219 58.4502C50.069 60.6202 57.8391 61.8198 66.1091 61.8198C74.3691 61.8198 82.149 60.6202 87.999 58.4502C90.779 57.4202 92.969 56.2202 94.519 54.9102C94.689 54.7602 94.859 54.61 95.019 54.46C96.369 53.18 97.109 51.7999 97.179 50.3799H97.189V49.54C97.999 50.6 98.429 51.7201 98.429 52.8701C98.439 54.8201 97.209 56.6598 95.019 58.2798Z" fill="#47453D"/>
<path opacity="0.4" d="M41.7477 64.9701C41.0777 68.0101 40.9177 107.65 41.7477 110.13C42.5777 112.62 54.0076 119.25 56.6676 116.43C59.3176 113.61 60.8078 68.7 59.8178 67.87C58.8178 67.04 42.1077 63.3401 41.7477 64.9701Z" fill="white"/>
<path opacity="0.2" d="M41.1899 41.85C39.1999 43.63 39.4299 52.29 40.4299 54.12C41.4199 55.94 54.5199 60.8401 56.6699 59.2201C58.8199 57.6001 58.6599 47.3298 57.4999 46.1698C56.3399 44.9998 42.6199 40.57 41.1899 41.85Z" fill="white"/>
<path opacity="0.3" d="M37.7107 58.6401C37.5407 58.5201 37.3707 58.3998 37.2107 58.2798C35.0307 56.6498 33.8008 54.8101 33.8008 52.8701C33.8008 51.7201 34.2308 50.6 35.0408 49.54V50.3799H35.0508C35.1308 51.8099 35.8707 53.18 37.2107 54.46C37.3707 54.61 37.5307 54.7602 37.7107 54.9102C39.2607 56.2202 41.4507 57.4202 44.2307 58.4502C49.6507 60.4602 56.7308 61.6398 64.3208 61.7998C64.2908 62.8498 64.2707 63.9002 64.2607 64.9502C52.7907 64.7102 42.9107 62.2201 37.7107 58.6401Z" fill="white"/>
<path opacity="0.3" d="M35.5374 50.1401C35.5374 50.0601 35.5374 49.9701 35.5474 49.8901H35.5374V34.8501C36.6574 37.2001 39.6473 39.3501 44.2273 41.0601C44.5773 41.1901 44.9374 41.3199 45.3074 41.4399C45.5674 41.5299 45.8274 41.6099 46.0874 41.6899C46.3574 41.7699 46.6272 41.8599 46.9072 41.9399C47.3272 42.0599 47.7573 42.1898 48.1973 42.2998C48.5373 42.3898 48.8773 42.4801 49.2173 42.5601C52.3373 43.3201 55.7973 43.8599 59.4373 44.1499C61.3373 44.2999 63.2973 44.3902 65.2773 44.4102C64.7973 50.0302 64.4774 55.6598 64.3274 61.2998C63.0374 61.2698 61.7573 61.2199 60.5173 61.1299C55.3073 60.7799 50.5572 59.94 46.6272 58.75C42.7072 57.56 39.6173 56.03 37.6973 54.27C37.5173 54.11 37.3573 53.95 37.1973 53.79C36.1873 52.72 35.6073 51.5801 35.5273 50.3901C35.5373 50.3101 35.5374 50.2201 35.5374 50.1401Z" fill="white"/>
<path opacity="0.3" d="M68.751 121.31C67.881 121.35 67.0111 121.37 66.1211 121.37C64.9511 121.37 63.7909 121.34 62.6609 121.27C57.7309 120.99 53.2009 120.12 49.3809 118.81C42.4509 116.44 37.8909 112.63 37.7209 108.34C37.7209 108.26 37.7109 108.17 37.7109 108.09C37.7109 108.01 37.7109 107.92 37.7209 107.84H37.7109V59.2202C39.1509 60.1702 40.921 61.0498 43.001 61.8398C43.941 62.1998 44.9309 62.5298 45.9709 62.8398C50.3509 64.1498 55.4909 64.9998 60.9709 65.3198C62.0509 65.3798 63.151 65.4302 64.251 65.4502C63.981 84.1502 65.481 102.89 68.751 121.31Z" fill="white"/>
</svg>
