<svg width="162" height="138" viewBox="0 0 162 138" fill="none" xmlns="http://www.w3.org/2000/svg">
<path d="M160.992 24.6001V132.03C160.992 134.57 158.922 136.64 156.382 136.64H5.87183C3.33183 136.64 1.26172 134.57 1.26172 132.03V24.6001C1.26172 22.0501 3.33183 19.98 5.87183 19.98H67.3218V21.8501H48.7017C46.9117 21.8501 45.4617 23.2998 45.4617 25.0898V31.1201H16.4016V125.49H145.842V31.1201H111.792V25.0898C111.792 23.2998 110.342 21.8501 108.552 21.8501H89.9316V19.98H156.382C158.922 19.99 160.992 22.0501 160.992 24.6001Z" fill="#677B82"/>
<path d="M145.08 31.8901V124.74H17.1602V31.8901H45.4602V36.3101C45.4602 38.1001 46.9102 39.5498 48.7002 39.5498H108.55C110.34 39.5498 111.79 38.1001 111.79 36.3101V31.8901H145.08Z" fill="#F8E695"/>
<path d="M108.551 22.6201H89.1709V12.1899C89.1709 6.37994 84.4411 1.64014 78.6211 1.64014C72.8011 1.64014 68.071 6.36994 68.071 12.1899V22.6201H48.6909C47.3209 22.6201 46.2109 23.7301 46.2109 25.1001V36.3101C46.2109 37.6701 47.3209 38.79 48.6909 38.79H108.541C109.911 38.79 111.021 37.6801 111.021 36.3101V25.1001C111.031 23.7301 109.911 22.6201 108.551 22.6201ZM78.6211 6.24023C81.9011 6.24023 84.571 8.90994 84.571 12.1899C84.571 15.4699 81.9011 18.1401 78.6211 18.1401C75.3411 18.1401 72.6709 15.4699 72.6709 12.1899C72.6709 8.90994 75.3411 6.24023 78.6211 6.24023Z" fill="#6ECDE9"/>
<path d="M78.6221 18.1401C81.9021 18.1401 84.572 15.4699 84.572 12.1899C84.572 8.90994 81.9021 6.24023 78.6221 6.24023C75.3421 6.24023 72.6719 8.90994 72.6719 12.1899C72.6719 15.4699 75.3421 18.1401 78.6221 18.1401ZM78.6221 7C81.4821 7 83.812 9.32994 83.812 12.1899C83.812 15.0499 81.4821 17.3799 78.6221 17.3799C75.7621 17.3799 73.4319 15.0499 73.4319 12.1899C73.4319 9.32994 75.7621 7 78.6221 7Z" fill="#343B40"/>
<path d="M156.38 19.2202H89.9304V12.1899C89.9304 5.94994 84.8606 0.879883 78.6206 0.879883C72.3806 0.879883 67.3105 5.94994 67.3105 12.1899V19.2202H5.8606C2.9006 19.2202 0.480469 21.6301 0.480469 24.6001V132.03C0.480469 135 2.8906 137.41 5.8606 137.41H156.371C159.331 137.41 161.74 135 161.74 132.03V24.6001C161.75 21.6401 159.34 19.2202 156.38 19.2202ZM68.0806 22.6201V21.8599V19.9902V19.23V12.2002C68.0806 6.3902 72.8104 1.6499 78.6304 1.6499C84.4504 1.6499 89.1804 6.3802 89.1804 12.2002V19.23V19.9902V21.8599V22.6201H89.9404H108.561C109.931 22.6201 111.041 23.7301 111.041 25.1001V31.1299V31.8901V36.3101C111.041 37.6701 109.931 38.79 108.561 38.79H48.7104C47.3405 38.79 46.2305 37.6801 46.2305 36.3101V31.8901V31.1299V25.1001C46.2305 23.7301 47.3405 22.6201 48.7104 22.6201H67.3306H68.0806ZM48.7004 39.5498H108.551C110.341 39.5498 111.791 38.1001 111.791 36.3101V31.8901H145.081V124.74H17.1604V31.8901H45.4604V36.3101C45.4604 38.1001 46.9104 39.5498 48.7004 39.5498ZM160.99 132.03C160.99 134.57 158.92 136.64 156.38 136.64H5.87061C3.33061 136.64 1.2605 134.57 1.2605 132.03V24.6001C1.2605 22.0501 3.33061 19.98 5.87061 19.98H67.3206V21.8501H48.7004C46.9104 21.8501 45.4604 23.2998 45.4604 25.0898V31.1201H16.4004V125.49H145.841V31.1201H111.791V25.0898C111.791 23.2998 110.341 21.8501 108.551 21.8501H89.9304V19.98H156.38C158.92 19.98 160.99 22.0501 160.99 24.6001V132.03Z" fill="#343B40"/>
<path d="M48.3801 25.46C47.1001 27.72 47.8703 32.6498 48.7603 33.3198C49.6503 33.9898 108.23 32.1998 108.86 31.2998C109.5 30.3998 109.37 26.8101 108.73 26.1401C108.1 25.4601 49.4001 23.66 48.3801 25.46Z" fill="#6ECDE9"/>
<path d="M111.029 28.5098V36.3101C111.029 37.6701 109.919 38.79 108.549 38.79H48.6987C47.3287 38.79 46.2188 37.6801 46.2188 36.3101V29C46.7588 32.13 47.5587 35.3398 48.6287 36.2998C50.9187 38.3298 105.559 37.32 108.479 35.54C109.929 34.66 110.649 31.4998 111.029 28.5098Z" fill="#39AABF"/>
<path opacity="0.4" d="M22.4594 35.6698C20.2094 36.7898 22.2095 114.96 23.4795 116.99C24.7495 119.02 137.08 121.56 139.62 119.79C142.16 118 30.0794 31.8498 22.4594 35.6698Z" fill="#F8E695"/>
<path opacity="0.5" d="M147.239 126.39C145.459 127.91 19.7487 128.76 17.9688 126.47C17.8787 126.36 17.7987 126.03 17.7188 125.5H145.839V32.6299C146.509 32.6499 146.929 32.6699 147.069 32.6899C148.589 32.9499 149.019 124.87 147.239 126.39Z" fill="#677B82"/>
<path opacity="0.4" d="M42.8185 22.7298C42.0985 21.2798 7.7484 20.4401 5.4584 21.9701C3.1684 23.4901 2.7685 127.61 4.3185 132.13C5.8685 136.65 152.218 135.56 155.268 134.04C158.318 132.52 151.838 127.94 149.548 127.94C147.258 127.94 17.2785 129.85 13.0885 128.7C8.89852 127.56 12.7085 31.8801 14.6085 29.9701C16.5185 28.0601 39.7685 30.7297 40.5285 29.5897C41.2885 28.4497 43.5785 24.2498 42.8185 22.7298Z" fill="#677B82"/>
<path opacity="0.1" d="M145.082 31.8901V99.3999C133.652 77.7399 109.282 51.0598 78.9219 39.5498H108.542C110.332 39.5498 111.782 38.1001 111.782 36.3101V31.8901H145.082Z" fill="#677B82"/>
</svg>
