<svg width="7" height="7" viewBox="0 0 7 7" fill="none" xmlns="http://www.w3.org/2000/svg">
<path d="M3.00114 0.780097C4.66114 0.380097 6.34113 1.41001 6.74113 3.07001C7.14113 4.73001 6.11109 6.41013 4.45109 6.81013C2.79109 7.21013 1.1111 6.18009 0.711101 4.52009C0.3011 2.86009 1.33114 1.1801 3.00114 0.780097ZM4.43107 6.75007C6.06107 6.36007 7.07106 4.71003 6.67106 3.09003C6.27106 1.47003 4.63115 0.460043 3.01115 0.850043C1.38115 1.24004 0.381159 2.89008 0.771159 4.51008C1.16116 6.14008 2.80107 7.15007 4.43107 6.75007Z" fill="white"/>
<path d="M3.96021 3.97998H3.72021H3.48022L3.61035 4.20996L3.41016 4.89001L3.72021 5.26001L4.04028 4.92004L3.83032 4.20996L3.96021 3.97998Z" fill="white"/>
<path d="M5.53198 5.79004C5.50198 5.51004 5.43201 5.18997 5.31201 4.83997C5.13201 4.34997 4.78189 4.13004 4.44189 4.04004L3.73193 5.09998L3.02197 4.04004C2.68197 4.13004 2.33186 4.34997 2.15186 4.83997C2.02186 5.18997 1.96187 5.51004 1.92188 5.79004H5.53198Z" fill="white"/>
<path d="M3.7207 1.81006C3.2107 1.81006 2.80078 2.26997 2.80078 2.83997C2.80078 3.40997 3.2107 3.87 3.7207 3.87C4.2307 3.87 4.64062 3.40997 4.64062 2.83997C4.64062 2.26997 4.2307 1.81006 3.7207 1.81006ZM3.7207 3.81006C3.2807 3.81006 2.92085 3.43996 2.87085 2.95996C3.24085 2.85996 3.61063 2.69997 3.89062 2.46997C4.09063 2.64997 4.33082 2.79 4.59082 2.88C4.56082 3.39 4.1907 3.81006 3.7207 3.81006Z" fill="white"/>
</svg>
