<svg xmlns:xlink="http://www.w3.org/1999/xlink" xmlns="http://www.w3.org/2000/svg" width="1923" height="161" preserveAspectRatio="none" viewBox="0 0 1920 150.1" class="" fill="rgba(102, 215, 238, 1)"><defs><style>.cls-FkXsGe{opacity:0.1;}.cls-txGVNJ{opacity:0.3;}</style></defs><path class="cls-FkXsGe" d="M1920,150H0S174,0,280-.1A568.6,568.6,0,0,1,436.9,21.9h0c171,48.7,347,87.1,523.1,87.1s352.1-38.4,523.1-87.1h0A588,588,0,0,1,1640-.1C1756-.1,1920,150,1920,150Z" transform="translate(0 0.1)" fill="#66D7EE"></path><path class="cls-txGVNJ" d="M280,13.1c45.8-1,105.9,7.4,156.9,21.9h0c171,48.7,347.1,80.1,523.2,80s352-31.4,522.9-80h0c51-14.5,111.3-23.3,156.9-21.9C1756.5,18.7,1920,150,1920,150H0S167,18.6,280,13.1Z" transform="translate(0 0.1)" fill="#66D7EE"></path><path class="cls-yTUGNK" d="M1920,150H0S160,37.3,280,26.2c37.3-2,105.9,7.4,156.9,21.9h0a1910.5,1910.5,0,0,0,1046.1,0h0c51-14.5,115.6-24.6,156.9-21.9C1757,37.4,1920,150,1920,150Z" transform="translate(0 0.1)" fill="#66D7EE"></path></svg>