<svg width="13" height="24" viewBox="0 0 13 24" fill="none" xmlns="http://www.w3.org/2000/svg">
<path d="M11.1702 24C11.0386 24.0007 10.9082 23.9755 10.7863 23.9257C10.6645 23.876 10.5537 23.8027 10.4602 23.71L2.29023 15.54C1.82459 15.0755 1.45517 14.5238 1.2031 13.9163C0.951037 13.3089 0.821289 12.6577 0.821289 12C0.821289 11.3423 0.951037 10.6911 1.2031 10.0837C1.45517 9.4762 1.82459 8.92445 2.29023 8.45999L10.4602 0.290002C10.5535 0.196764 10.6642 0.122803 10.786 0.0723425C10.9078 0.0218822 11.0384 -0.00408935 11.1702 -0.00408936C11.3021 -0.00408936 11.4327 0.0218822 11.5545 0.0723425C11.6763 0.122803 11.787 0.196764 11.8802 0.290002C11.9735 0.38324 12.0474 0.49393 12.0979 0.615752C12.1483 0.737574 12.1743 0.868142 12.1743 1C12.1743 1.13186 12.1483 1.26243 12.0979 1.38425C12.0474 1.50607 11.9735 1.61676 11.8802 1.71L3.71023 9.87999C3.14843 10.4425 2.83287 11.205 2.83287 12C2.83287 12.795 3.14843 13.5575 3.71023 14.12L11.8802 22.29C11.974 22.3829 12.0484 22.4935 12.0991 22.6154C12.1499 22.7373 12.176 22.868 12.176 23C12.176 23.132 12.1499 23.2627 12.0991 23.3846C12.0484 23.5064 11.974 23.617 11.8802 23.71C11.7868 23.8027 11.676 23.876 11.5541 23.9257C11.4323 23.9755 11.3018 24.0007 11.1702 24Z" fill="#323548"/>
</svg>
