<svg width="1440" height="896" viewBox="0 0 1440 896" fill="none" xmlns="http://www.w3.org/2000/svg">
<g clip-path="url(#clip0_167_1721)">
<rect width="1440" height="896" fill="#F9F9F9"/>
<path opacity="0.1" d="M79.5 359.625C148.812 359.625 205 310.46 205 249.812C205 189.165 148.812 140 79.5 140C10.1883 140 -46 189.165 -46 249.812C-46 310.46 10.1883 359.625 79.5 359.625Z" fill="#01B880"/>
<path fill-rule="evenodd" clip-rule="evenodd" d="M20.1537 884.351C19.0067 884.146 18.1223 883.989 17.2674 883.835C17.3571 884.479 17.4293 884.986 17.527 885.684C16.8038 885.432 16.3703 885.282 15.8718 885.109C16.0473 885.592 16.2021 886.022 16.3481 886.425L15.8012 886.972C15.3447 886.652 14.8795 886.325 14.3286 885.937L12.4838 887.782C10.5397 887.178 9.264 887.557 9.45294 888.589C9.75538 888.621 10.0999 888.569 10.3317 888.707C10.5445 888.834 10.6357 889.165 10.9382 889.669C9.98956 889.784 9.20923 889.777 8.50431 890.001C8.10343 890.129 7.82162 890.633 7.3477 891.107C8.0431 891.212 8.40906 891.268 8.74802 891.32C8.9433 893.318 8.94489 893.322 7.36914 893.781C7.17068 894.369 6.74995 894.967 6.87299 895.419C7.027 895.979 7.57951 896.414 6.79441 896.81C6.25619 896.683 5.76402 896.566 5.01703 896.387C5.24327 898.054 5.42347 899.385 5.60446 900.717C5.20676 900.741 4.92653 900.76 4.52883 900.786C4.69473 901.488 4.84874 902.139 5.01147 902.821C4.75824 903.514 4.48278 904.272 4.20415 905.034C4.57645 905.077 4.83286 905.107 5.12261 905.139C4.49389 906.3 3.90646 907.381 3.30156 908.497C3.63497 908.513 3.92393 908.527 4.08269 908.534C4.66933 909.884 5.23375 911.185 5.91564 912.756C7.027 910.484 5.57668 908.589 5.90929 906.637C6.24429 904.689 6.28636 902.691 6.47529 900.505L7.44614 901.476C7.36835 902.965 7.50171 904.189 7.19053 905.286C6.86506 906.44 7.55807 907.532 7.16274 908.58C6.7182 909.759 7.43582 910.739 7.49774 911.819C7.60094 913.609 8.79009 915.364 7.67873 917.124C8.74485 918.489 9.50692 919.907 9.50374 921.693L11.1668 923.356C10.9834 923.752 10.8247 924.094 10.6619 924.447C11.6114 924.596 12.4258 924.802 12.4473 925.983C12.4774 927.643 13.2593 928.987 14.4818 930.018C15.4257 930.814 15.7893 931.938 16.4632 932.876C16.9713 933.581 17.8762 934.02 17.804 935.09C17.7977 935.174 18.1096 935.281 18.274 935.375C18.6137 935.213 18.9535 935.052 19.2885 934.891C19.3972 935.306 19.4202 935.71 19.6052 936.014C19.8092 936.353 20.1347 936.641 20.4586 936.88C20.784 937.12 21.2246 937.216 21.5183 937.481C21.7724 937.713 21.8176 938.27 22.0812 938.378C23.6045 939.01 24.9048 939.955 26.2638 940.869C27.9626 942.014 29.9893 942.618 31.8667 942.741C33.2535 940.889 33.5742 938.886 34.7244 937.169C35.9469 935.344 36.2526 932.932 37.144 930.856C38.8325 926.923 38.9135 922.492 40.9933 918.683C41.1505 918.395 40.9481 917.91 40.9123 917.517C40.8814 917.186 40.7615 916.836 40.8314 916.528C41.7498 912.439 42.0046 908.301 41.9007 904.12C41.8451 901.861 41.3759 899.694 40.8576 897.515C40.5702 896.307 39.8415 895.185 39.7787 894.003C39.6684 891.895 38.3586 890.423 37.3044 888.909C36.1581 887.261 34.5871 885.856 33.0177 884.57C31.3912 883.235 29.3979 882.482 27.3117 882.155C26.6957 882.058 26.0058 882.535 25.3573 882.514C24.7103 882.492 24.0745 882.175 23.3425 881.961C23.3013 882.375 23.2743 882.641 23.2425 882.953C22.6845 882.968 22.0994 882.985 21.504 883.001L20.1537 884.351ZM-4.75276 896.42C-3.96767 896.936 -2.57767 896.602 -2.26729 898.073C-2.53719 898.102 -2.79915 898.129 -3.05635 898.156C-2.62609 899.259 -2.98887 900.244 -3.45723 901.111C-3.40008 902.867 -3.26989 904.547 -3.31196 906.221C-3.35483 907.977 -3.56123 909.73 -3.70094 911.53C-3.86209 911.539 -4.14548 911.555 -4.72577 911.591C-3.09049 913.061 -3.04762 914.9 -3.15399 916.635C-2.5102 916.842 -1.96722 917.017 -1.42266 917.192C-1.27818 917.049 -1.1345 916.905 -0.906663 916.677C-1.21149 916.228 -1.53061 915.758 -1.94023 915.155C-0.744725 914.274 -0.863002 913.039 -1.12973 911.69C-1.55919 911.614 -1.92038 911.551 -2.3292 911.481C-1.45917 910.096 -1.09878 908.725 -1.34645 906.993C-1.8418 903.528 -1.19403 900.066 -0.520868 896.654C-0.408939 896.083 0.069743 895.587 0.67067 894.556C-0.558174 894.884 -1.20435 895.056 -1.77194 895.207C-1.69017 895.756 -1.61793 896.249 -1.5068 896.993C-2.65309 896.45 -3.49057 896.053 -4.32885 895.654C-3.9764 894.505 -3.62473 893.356 -3.25481 892.151C-2.99443 892.119 -2.70469 892.085 -2.38239 892.047C-1.89736 889.39 0.086411 887.484 1.51054 885.166C1.83045 885.062 2.37264 884.888 2.91403 884.714L3.88647 885.686C4.15479 885.494 4.44215 885.289 5.04069 884.862C4.28815 884.526 3.82455 884.318 3.34825 884.105C3.34746 883.869 3.34826 883.563 3.34746 883.267C4.38102 882.161 5.57732 883.051 6.94667 882.972C6.57119 882.443 6.2735 882.023 5.85913 881.438C6.85538 879.934 8.78677 879.954 10.0894 879.007C10.5642 879.391 10.942 879.696 11.7946 880.383C11.4874 879.416 11.3151 878.874 11.2429 878.649L13.1409 876.751C13.26 877.187 13.3433 877.487 13.5188 878.132C13.8681 877.559 14.0879 877.195 14.5134 876.494C14.2753 876.639 14.3896 876.533 14.5246 876.493C16.8005 875.825 19.0502 875.041 21.3602 874.533C24.4911 873.845 27.714 873.599 30.8885 873.946C33.5748 874.24 36.1984 875.06 38.9268 875.21C39.4769 875.241 40.0112 875.543 40.5851 875.732C40.5859 875.826 40.5851 876.03 40.5843 876.496C41.6346 876.057 42.6292 876.28 43.504 876.826C46.4896 878.691 46.4785 878.708 46.9921 880.098C48.1749 880.616 49.1942 881.062 50.2008 881.502C49.9761 882.174 49.8324 882.605 49.634 883.202C50.1785 883.325 50.6358 883.428 50.8366 883.473C52.2488 885.53 53.5523 887.429 54.878 889.359C54.597 889.71 54.2937 890.088 53.8905 890.593C55.4329 891.957 55.3456 893.855 55.2924 896.021C56.0251 895.812 56.5141 895.674 57.1753 895.486C57.3047 896.049 57.4294 896.596 57.6199 897.423C57.1063 897.17 56.8126 897.025 56.4077 896.825C56.1973 897.336 55.7314 897.911 55.7838 898.435C55.9568 900.164 56.2751 901.883 56.6363 903.584C56.7276 904.016 57.1872 904.37 57.2619 904.468C57.1753 905.918 56.761 907.203 57.1055 908.233C58.0478 911.046 57.0332 913.629 56.5943 916.287C56.4728 917.025 56.2085 917.739 56.0005 918.499C55.7401 918.377 55.3987 918.216 55.0352 918.045C54.9812 918.193 54.8439 918.432 54.8867 918.47C55.525 919.035 56.0822 919.616 55.5043 920.85L54.2445 922.109C54.3406 923.099 54.4573 924.304 54.574 925.5C53.9024 925.868 53.4078 926.14 52.8347 926.455C53.6309 928.659 52.3576 930.612 51.5392 932.705C51.2462 932.738 50.9557 932.77 50.585 932.81C50.5635 933.651 50.5405 934.526 50.5175 935.421L48.8076 937.131C49.2053 938.278 49.4133 939.351 47.9471 939.9C47.7129 941.117 47.4795 942.335 47.2636 943.467C49.3331 942.894 51.5844 942.27 53.9024 941.629C53.9492 941.347 53.996 941.064 54.0461 940.763C54.7343 940.406 55.4488 940.036 56.1537 939.671L56.626 940.144C56.7697 940.07 57.0293 939.98 57.0205 939.933C56.8705 939.037 57.6072 938.664 58.1097 938.247C58.7622 937.704 59.583 937.369 60.2824 936.876C60.9262 936.423 61.4326 935.683 62.1304 935.423C63.0894 935.068 62.9068 934.069 63.5355 933.485C64.2364 932.835 65.3145 932.698 65.7677 931.599C66.1273 930.728 67.0775 930.087 67.8023 929.383C70.0607 927.19 71.5627 924.483 73.0701 921.769C73.9957 920.105 75.1444 918.555 75.9621 916.842C77.2616 914.123 78.5182 911.361 79.489 908.515C79.9447 907.178 81.1854 906.088 80.8639 904.482C80.7647 903.988 81.7975 903.571 80.9656 902.928C80.8274 902.822 81.2283 902.1 81.2728 901.654C81.3323 901.047 81.2466 900.428 81.2966 899.819C81.3871 898.674 81.5308 897.533 81.6832 896.111L83.382 897.81C83.0152 899.119 83.0152 899.119 84.0416 901.718L85.1149 900.644C84.329 898.923 84.9966 896.986 84.6751 895.095C85.0546 895.107 85.3578 895.116 85.8778 895.133C86.0961 895.769 86.3485 896.504 86.6597 897.412C86.8899 897.155 87.3154 896.894 87.3114 896.639C87.3019 895.917 87.1161 895.198 86.9232 893.998C87.7171 894.441 88.16 894.689 88.6998 894.989C89.2952 894.875 90.0343 894.733 91.1337 894.521C90.6892 895.546 90.3565 896.314 90.0216 897.086C90.4963 897.34 91.0488 897.635 91.7235 897.995C91.587 898.853 91.456 899.665 91.2782 900.768C91.9728 900.57 92.465 900.432 92.9905 900.283C92.9722 901.011 92.9563 901.719 92.9397 902.396C92.5269 902.512 92.0863 902.637 91.1472 902.901C91.9728 903.395 92.4022 903.651 92.7999 903.889C92.7404 904.205 92.6578 904.644 92.5896 905.007C92.5316 904.968 92.2935 904.813 91.8609 904.528C91.6219 905.735 91.3973 906.881 91.1647 908.061C91.533 908.078 91.8212 908.094 91.71 908.087C91.8394 908.887 91.968 909.677 92.1165 910.6C91.5568 910.652 91.1853 910.687 90.8146 910.721C90.9908 911.367 91.1647 912.013 91.3441 912.675L90.1636 913.855C89.7771 915.742 89.5556 917.478 89.0428 919.123C88.5863 920.592 86.9137 921.49 86.897 923.393C86.316 923.376 85.7158 923.358 85.072 923.338C84.7886 923.664 84.4759 924.025 83.8606 924.734C84.7577 924.408 85.1808 924.254 85.7452 924.048C85.0379 926.143 85.3642 928.67 82.5866 929.488C82.5866 929.923 82.5866 930.434 82.5858 930.994C82.3174 931.016 82.0452 931.039 81.5768 931.077C81.3379 932.542 80.5051 933.63 78.7603 933.87C78.7174 934.57 78.6762 935.246 78.6293 936.012C78.1245 936.278 77.622 936.54 77.002 936.867C76.9591 937.025 76.9694 937.495 76.7432 937.695C76.4931 937.918 75.9652 937.805 75.666 938.003C75.2484 938.276 74.9301 938.702 74.5697 939.062C74.2807 939.351 74.0323 939.708 73.6917 939.909C73.3766 940.095 72.9622 940.116 72.4057 940.256C72.5716 942.778 69.7543 942.166 68.6366 944.254C68.408 942.882 68.2881 942.159 68.1683 941.437C67.4157 941.464 67.0426 942.808 67.3308 944.587C67.0252 944.387 66.7862 944.233 66.4933 944.043C65.1731 944.072 65.4915 945.473 64.8898 946.17C64.296 946.188 63.699 946.205 63.114 946.222C63.0957 946.505 63.0774 946.787 63.0536 947.17C62.7424 946.993 62.4956 946.853 62.0725 946.612C60.2268 947.625 58.251 948.724 56.2267 949.721C55.2297 950.21 54.6002 950.02 53.9841 949.746C53.3761 950.332 52.8918 951.213 52.2592 951.339C48.7473 952.037 45.1973 952.541 41.6647 953.141C41.1122 953.235 40.5931 953.509 40.0469 953.66C39.396 953.839 38.7323 953.976 37.9917 954.15C38.1004 954.36 38.26 954.672 38.5307 955.198C37.2971 956.172 36.5628 957.817 34.6925 958.144C34.4655 958.864 34.2369 959.588 33.9908 960.37C31.8181 960.749 31.26 963.603 29.127 963.989C28.7817 964.611 28.465 965.182 28.1173 965.809C27.6568 965.583 27.3187 965.418 26.9575 965.241C26.6153 966.541 25.6683 967.038 24.5006 967.625C23.3996 968.18 22.5422 969.214 21.1419 969.148C21.1276 969.339 21.1125 969.529 21.0832 969.925C20.8371 969.963 20.5362 970.007 20.0559 970.079C19.9543 970.377 19.8337 970.735 19.7321 971.035C18.5572 971.752 17.4117 972.558 16.1749 973.183C13.6482 974.462 11.4683 976.407 8.56052 976.989C7.58173 977.185 6.67756 977.864 5.79324 978.408C0.605574 981.602 -5.1862 983.048 -11.0494 984.311C-14.366 985.023 -17.7064 985.347 -21.1001 985.183C-22.2082 985.129 -23.395 984.988 -24.4167 985.305C-25.5304 985.651 -26.4187 984.986 -27.4808 985.123C-30.3545 985.491 -33.1575 984.596 -35.9867 984.252C-38.7365 983.917 -41.461 983.255 -44.1449 982.544C-46.9773 981.793 -49.9025 981.124 -52.5047 979.844C-54.9584 978.639 -57.6796 977.904 -59.8555 976.125C-60.1199 975.908 -60.7041 976.06 -60.9407 975.833C-62.287 974.541 -64.1343 974.062 -65.5608 972.942C-66.5959 972.128 -67.4548 971.089 -68.5543 969.99C-68.509 969.365 -68.4511 968.575 -68.382 967.612C-67.5239 967.142 -66.5284 966.595 -65.6203 966.099C-65.2718 966.32 -65.0313 966.472 -64.7725 966.635L-63.9215 965.784C-63.0007 965.902 -62.1124 965.891 -61.3138 966.152C-60.5176 966.413 -59.6674 966.804 -59.0871 967.385C-56.9644 969.509 -54.036 970.018 -51.4862 971.25C-49.6334 972.145 -47.6425 972.785 -45.7587 973.675C-44.7458 974.154 -43.544 974.246 -42.4183 974.472C-39.8789 974.979 -37.4021 975.76 -34.8214 976.096C-33.3965 976.281 -32.0073 976.802 -30.5823 976.914C-27.488 977.155 -24.3786 977.364 -21.2763 977.348C-14.7352 977.316 -8.50281 975.601 -2.3943 973.442C-1.07337 972.975 0.107049 972.076 1.30732 971.304C2.91006 970.275 4.86367 969.953 6.36162 968.721C8.52639 966.94 11.2786 966.034 13.2989 964.008C14.0316 963.273 15.0469 962.826 15.9066 962.21C16.7671 961.594 17.1982 960.469 18.5389 960.366C18.9962 960.333 19.4558 959.407 19.7876 958.818C20.7482 957.116 21.75 956.173 23.5972 955.395C23.6671 955.019 23.7369 954.643 23.8354 954.111C24.2093 954.072 24.5831 954.016 24.9594 954C25.2595 953.987 25.5619 954.023 25.7493 954.031C25.7239 953.289 25.7001 952.594 25.6659 951.656C24.5085 951.247 23.0757 950.795 21.6888 950.234C20.2909 949.668 18.9644 948.923 17.5562 948.386C16.2353 947.883 14.9985 947.305 13.4513 946.2C13.5616 946.201 13.0504 946.2 12.4415 946.2C11.6326 945.392 10.8063 944.495 9.90289 943.687C9.26306 943.114 8.8844 942.177 7.72383 942.246C7.3801 942.268 6.78156 941.665 6.66725 941.247C6.15126 939.361 4.47072 938.466 3.35302 937.102C2.36153 935.892 1.43036 934.635 1.64946 932.794C0.662732 931.943 -0.166821 930.912 -0.580406 929.546C-0.849511 928.656 -1.74971 927.861 -1.76479 927.012C-1.78464 925.913 -2.63721 925.468 -2.91108 924.704C-3.49216 923.084 -4.75832 921.502 -3.47311 919.507C-4.12643 919.418 -4.50112 919.367 -4.9401 919.307C-4.85199 918.765 -4.7599 918.201 -4.57971 917.096C-4.73053 916.753 -5.10681 915.9 -5.69107 914.576C-5.82443 912.949 -6.41821 910.704 -6.0602 908.625C-5.70773 906.58 -6.09592 904.617 -5.88317 902.646C-5.65693 900.553 -5.14094 898.492 -4.75276 896.42Z" fill="#FDF6CF"/>
<path opacity="0.1" fill-rule="evenodd" clip-rule="evenodd" d="M1396.27 551.6C1395.84 551.2 1395.76 550.883 1395.46 550.671C1394.01 549.645 1392.4 548.925 1390.85 548.092C1389.35 547.284 1387.81 546.491 1386.21 545.906C1384.59 545.31 1383.25 544.22 1381.66 543.539C1379.65 542.677 1377.73 541.663 1375.57 541.138C1374.39 540.85 1373.2 541.323 1372.06 540.873C1371.94 540.824 1371.8 540.803 1371.66 540.791C1371.49 540.775 1371.26 540.719 1371.35 541.128C1372.7 541.479 1374.08 541.87 1375.44 542.308C1377.48 542.969 1379.52 543.61 1381.51 544.422C1382.35 544.761 1383.17 545.124 1383.93 545.575C1384.76 546.07 1385.69 546.263 1386.54 546.735C1388.68 547.934 1390.83 549.137 1393.03 550.224C1393.99 550.695 1394.77 551.514 1396.27 551.6ZM1406.77 674.87C1407.31 675.773 1407.95 676.402 1408.55 676.794C1410.38 677.992 1412.28 679.08 1414.07 680.336C1416.47 682.019 1418.88 683.716 1421.42 685.171C1422.76 685.937 1424.03 687.128 1425.92 686.832C1424.43 685.733 1423.07 684.544 1421.54 683.66C1419.26 682.344 1417.1 680.868 1414.95 679.358C1414.09 678.748 1413.27 677.997 1412.31 677.609C1411.22 677.173 1410.33 676.52 1409.38 675.904C1408.61 675.407 1407.87 674.677 1406.77 674.87ZM1580.29 679.611C1580.65 679.373 1580.76 679.299 1580.88 679.224C1581.17 679.932 1582.1 680.381 1581.6 681.367C1582.11 681.472 1582.5 681.603 1582.9 681.622C1583.41 681.645 1583.57 682.023 1583.76 682.361C1584.02 682.827 1583.4 682.928 1583.33 683.264C1584.06 683.647 1584.78 684.028 1585.5 684.407C1585.29 684.819 1584.62 684.241 1584.55 685.175C1585.42 685.078 1585.24 686.292 1586.13 686.478C1586.38 686.264 1586.65 686.072 1586.86 685.831C1587.12 685.54 1586.5 685.321 1586.71 685.017C1586.98 684.904 1587.28 685.116 1587.48 684.856C1586.99 684.829 1586.85 683.806 1586.11 684.395C1585.64 683.656 1585.02 682.972 1584.73 682.17C1584.42 681.363 1583.79 680.861 1583.36 680.182C1582.9 679.436 1582.53 678.559 1581.88 678.018C1581.21 677.45 1580.83 676.701 1580.26 676.091C1579.73 675.531 1579.24 674.914 1578.81 674.276C1578.33 673.568 1577.7 672.974 1577.12 672.391C1576.58 671.842 1576.19 671.11 1575.25 670.298C1576.03 673.248 1578.32 674.912 1578.77 677.376C1579.24 677.679 1579.77 677.496 1580.07 677.806C1580.14 678.378 1580.2 678.873 1580.29 679.611ZM1410.62 487.139C1411.23 487.97 1411.95 487.128 1412.63 487.316C1415.73 488.17 1419.01 487.946 1422.1 488.877C1422.42 488.974 1422.82 489.166 1423.08 489.059C1424.04 488.668 1424.93 489.005 1425.79 489.255C1426.71 489.522 1427.62 489.235 1428.5 489.393C1430.83 489.811 1433.17 490.221 1435.46 490.841C1437.79 491.475 1440.22 491.226 1442.55 491.838C1444.45 492.336 1446.4 492.658 1448.32 493.044C1448.63 493.107 1448.96 493.312 1449.64 492.738C1447.67 492.926 1446.45 491.749 1444.89 491.497C1443.48 491.27 1442.09 490.962 1440.71 490.639C1439.29 490.308 1437.84 490.544 1436.4 490.22C1434.41 489.771 1432.45 489.102 1430.32 489.28C1429.28 489.367 1428.21 488.813 1427.13 488.697C1426.04 488.579 1425.05 488.051 1423.82 488.322C1422.85 488.535 1421.71 487.97 1420.65 487.751C1419.92 487.6 1419.13 487.191 1418.48 487.358C1417.42 487.629 1416.51 487.057 1415.56 487.159C1414.48 487.277 1413.47 487.133 1412.46 486.873C1411.78 486.698 1411.24 487.065 1410.62 487.139ZM1455.27 501.867C1453.41 500.549 1451.22 500.305 1449.09 499.859C1446.1 499.233 1443.09 498.727 1440.13 497.981C1436.09 496.961 1431.92 496.754 1427.86 495.889C1427.73 495.861 1427.6 495.811 1427.47 495.811C1426.74 495.811 1426.02 495.946 1425.29 495.778C1424.36 495.565 1423.39 495.494 1422.51 495.167C1421.65 494.844 1420.84 495.348 1419.99 495.11C1419.08 494.852 1418.15 494.634 1417.21 494.54C1416.24 494.443 1415.32 493.69 1414.3 494.324C1414.22 494.374 1413.96 494.312 1413.93 494.235C1413.45 493.28 1412.71 493.827 1412.05 493.861C1411.21 493.904 1410.36 494.132 1409.53 493.778C1409.46 493.748 1409.32 493.883 1409.21 493.941C1409.18 494.135 1409.08 494.333 1409.38 494.607C1409.74 494.932 1410.05 494.232 1410.56 494.359C1412.42 494.813 1414.34 494.974 1416.24 495.239C1418.86 495.607 1421.57 495.514 1424.13 496.363C1424.26 496.404 1424.43 496.484 1424.52 496.436C1425.46 495.969 1426.37 496.362 1427.22 496.624C1428.15 496.909 1429.05 496.588 1429.94 496.738C1433.56 497.349 1437.11 498.279 1440.8 498.639C1444.22 498.975 1447.58 499.961 1450.96 500.66C1451.3 500.728 1451.74 500.684 1451.94 500.884C1452.89 501.83 1454.16 501.554 1455.27 501.867ZM1347.65 676.671C1347.31 676.779 1347.07 677.129 1346.67 676.868C1346.39 676.238 1345.73 675.768 1345.66 674.997C1345.63 674.766 1345.6 674.561 1345.39 674.557C1344.64 674.543 1344.53 673.718 1344.07 673.502C1343.43 673.2 1343.27 672.631 1342.93 672.171C1342.63 671.768 1342.36 671.36 1342.26 670.782C1342.19 670.377 1341.43 670.095 1340.98 669.758C1340.57 669.454 1340.83 668.876 1340.5 668.559C1340.2 668.347 1339.51 668.66 1339.63 667.991C1339.74 667.357 1339.15 667.455 1338.92 667.222C1338.56 666.863 1338.94 666.188 1338.41 666.057C1337.34 665.796 1337.02 664.756 1336.19 664.209C1336.57 663.937 1336.89 663.715 1337.2 663.491C1336.77 662.907 1336.2 663.247 1335.75 663.313C1335.33 662.63 1335.63 662.049 1335.94 661.357C1335.23 661.897 1334.65 661.487 1334.07 661.347C1333.64 660.722 1333.26 660.077 1332.54 659.115C1332.84 662.222 1335.22 663.442 1336.4 665.429C1336.13 665.591 1335.87 665.701 1335.86 666.194C1337.18 666.563 1337.43 668.014 1338.2 669.009C1338.49 668.845 1338.66 668.747 1338.84 668.648C1339.58 669.538 1340.03 670.657 1340.99 671.423C1341.42 671.761 1341.95 672.348 1341.87 672.933C1341.72 674.053 1342.4 674.695 1343.07 675.265C1343.41 675.548 1343.35 675.768 1343.4 676.054C1343.44 676.259 1343.55 676.281 1343.67 676.128C1343.96 675.852 1343.69 675.297 1344.15 675.133C1344.31 675.165 1344.49 675.147 1344.56 675.225C1345.12 675.811 1345.14 676.721 1345.63 677.281C1346.16 677.87 1347.13 677.973 1347.57 678.741C1347.61 678.8 1347.65 678.855 1347.69 678.911C1347.55 679.425 1346.3 679.329 1346.96 680.442C1347.66 680.009 1348.29 679.618 1348.87 679.258C1348.47 678.292 1347.61 677.706 1347.65 676.671ZM1456.15 508.634C1455.92 508.327 1455.79 507.96 1455.6 507.924C1454.5 507.717 1453.64 506.943 1452.5 506.759C1449.96 506.35 1447.45 505.752 1444.93 505.23C1443 504.833 1441.08 504.401 1439.15 504.047C1437.26 503.701 1435.43 503.195 1433.45 503.212C1431.84 503.227 1430.25 502.621 1428.56 502.627C1426.86 502.633 1425.24 501.888 1423.46 501.977C1422.15 502.043 1420.77 501.605 1419.49 501.191C1418.12 500.751 1416.74 501.192 1415.37 500.816C1413.15 500.207 1410.9 500.575 1408.57 500.847C1409.44 501.655 1410.3 500.969 1411.12 501.142C1412.2 501.372 1413.28 501.492 1414.42 501.499C1416.04 501.507 1417.63 502.039 1419.31 502.074C1421.14 502.113 1422.9 502.889 1424.81 502.792C1426.09 502.727 1427.35 503.298 1428.72 503.187C1429.75 503.105 1430.87 503.464 1431.89 503.814C1432.94 504.177 1433.97 503.779 1435 503.998C1440.98 505.261 1446.95 506.497 1452.93 507.699C1453.96 507.906 1454.72 508.852 1456.15 508.634ZM1586.88 673.502C1586.05 672.762 1585.1 672.106 1584.65 671.094C1583.62 668.715 1581.11 667.416 1580.23 664.94C1578.9 664.479 1578.42 663.136 1577.56 662.209C1576.35 660.889 1575.02 659.669 1573.86 658.307C1572.82 657.074 1571.65 655.996 1570.52 654.854C1569.4 653.711 1568.27 652.571 1567.23 651.36C1565.94 649.842 1564.29 648.723 1562.98 647.226C1562.08 646.195 1561.22 645.033 1559.88 644.445C1559.73 644.377 1559.68 644.098 1559.54 643.953C1558.39 642.752 1557.31 641.475 1556.06 640.382C1553.73 638.335 1551.42 636.271 1549.21 634.088C1548.93 633.813 1548.64 633.141 1547.8 633.427C1548.05 633.803 1548.21 634.253 1548.53 634.497C1550.45 635.969 1552.04 637.785 1553.82 639.408C1555.17 640.64 1556.52 641.872 1557.89 643.091C1559.79 644.788 1561.38 646.818 1563.27 648.549C1564.49 649.676 1565.55 651.003 1566.79 652.064C1569.02 653.981 1570.85 656.264 1573.01 658.246C1574.69 659.8 1576.13 661.646 1577.69 663.349C1579.23 665.022 1580.8 666.75 1582.02 668.712C1582.3 669.165 1582.63 669.533 1583.09 669.814C1583.57 670.115 1583.13 671.049 1583.97 671.137C1584.55 672.354 1585.72 673.114 1586.37 674.277C1586.46 674.443 1586.52 674.502 1586.67 674.376C1586.88 674.133 1586.86 673.799 1586.88 673.502ZM1449.24 486.901C1448.7 486.549 1448.44 485.543 1447.51 486.166C1447.3 485.442 1446.91 486.129 1446.6 486.064C1446.19 485.976 1446.14 485.475 1445.66 485.41C1444.97 485.317 1444.51 484.34 1443.57 484.982C1443.2 485.237 1443.02 484.118 1442.48 484.458C1441.93 484.8 1441.72 484.592 1441.34 484.193C1441.07 483.91 1440.42 484.043 1440.24 483.492C1438.93 484.131 1437.78 483.189 1436.54 483.128C1435.97 483.102 1435.41 482.779 1434.86 483.16C1434.39 482.413 1433.37 482.24 1432.95 482.533C1432.09 483.12 1431.67 482.105 1430.89 482.301C1430.17 482.479 1429.26 482.187 1428.4 482.258C1427.82 482.308 1427.21 482.045 1426.61 481.922C1425.95 481.784 1425.24 481.741 1424.63 481.481C1424.14 481.269 1423.5 482.005 1423.16 481.208C1422.52 481.325 1421.91 481.476 1421.24 481.245C1420.67 481.046 1420.06 480.963 1419.46 480.864C1418.63 480.728 1417.82 480.623 1416.95 480.671C1415.95 480.726 1414.85 481.017 1413.85 480.534C1413.58 480.405 1413.34 480.614 1413.11 480.644C1412.36 480.741 1411.53 480.902 1410.84 480.691C1410.02 480.44 1409.13 480.531 1408.56 480.764C1407.65 481.132 1406.91 480.577 1406.05 480.775C1404.97 481.024 1403.77 481.142 1402.68 481.073C1400.38 480.926 1398.15 481.993 1395.83 481.415C1395.45 481.32 1395.15 482.001 1394.61 481.966C1392.49 481.83 1390.42 482.26 1388.34 482.63C1389.14 482.757 1389.92 483.465 1390.73 482.649C1391.03 482.353 1391.36 482.552 1391.68 482.602C1392.14 482.675 1392.66 482.937 1393.05 482.807C1395.07 482.132 1397.18 482.318 1399.22 482.019C1400.05 481.898 1400.8 482.249 1401.52 482.063C1403.19 481.634 1404.86 481.542 1406.57 481.419C1408.02 481.315 1409.5 481.275 1410.91 481.285C1412.38 481.294 1413.96 481.103 1415.41 481.681C1415.6 481.755 1415.87 481.87 1416 481.792C1416.8 481.287 1417.58 481.694 1418.31 481.902C1419.11 482.132 1419.84 481.724 1420.63 481.906C1421.64 482.139 1422.66 482.236 1423.73 482.245C1425.41 482.257 1427.07 482.912 1428.82 482.818C1429.41 482.786 1430.02 483.04 1430.61 483.163C1431.14 483.273 1431.72 483.295 1432.2 483.515C1432.74 483.767 1433.37 483.259 1433.76 483.643C1434.34 484.198 1434.84 483.811 1435.38 483.737C1435.62 483.703 1435.71 483.925 1435.81 484.09C1436.03 484.439 1436.58 484.485 1436.7 484.392C1437.23 483.979 1437.73 484.216 1438.23 484.328C1438.85 484.464 1439.55 484.422 1439.97 485.047C1440.69 484.482 1441.38 485.121 1442.08 485.117C1442.87 485.111 1443.5 485.878 1444.34 485.584C1445.78 486.784 1447.61 486.428 1449.24 486.901ZM1412.46 724.444C1412.21 724.156 1412.17 724.069 1412.13 724.062C1409.01 723.618 1406.07 722.507 1402.97 721.651C1402.84 721.54 1402.99 721.34 1403 721.039C1402.51 720.618 1401.59 720.894 1401.17 720.157C1401.07 719.986 1400.6 720.043 1400.24 720.158C1399.5 720.397 1398.8 720.239 1398.44 719.377C1398.56 718.936 1399.05 719.502 1399.21 719.093C1398.75 718.239 1398.09 719.057 1397.59 718.977C1397.03 718.82 1397.53 718.329 1397.24 718.117C1396.87 718.123 1396.96 718.472 1396.83 718.653C1393.99 718.537 1394.44 718.328 1392.13 717.028C1391.24 717.076 1391.32 717.959 1390.86 718.562C1390.69 717.131 1389.3 718.506 1388.88 717.405C1389.19 716.964 1389.89 716.851 1390.29 716.247C1389.67 716.178 1389.16 715.727 1388.56 716.17C1387.79 716.729 1387.12 716.588 1386.47 715.928C1386.27 715.731 1385.87 715.738 1385.59 715.658C1385.41 715.96 1385.28 716.173 1385.15 716.381C1385.07 716.265 1384.94 716.167 1384.95 716.083C1384.99 715.685 1385.2 715.243 1385.09 714.91C1384.97 714.568 1384.75 713.819 1384.12 714.302C1383.68 714.648 1383.46 713.572 1383.04 714.236C1382.99 714.308 1382.96 713.845 1382.91 713.611C1382.59 713.21 1382.09 714.137 1381.8 713.495C1381.67 713.217 1381.44 713.048 1381.16 713.101C1379.48 713.425 1378.6 712.411 1377.85 711.165C1377.82 711.126 1377.71 711.148 1377.65 711.117C1377.54 711.058 1377.44 710.981 1377.27 710.864C1377.77 710.724 1378.22 710.597 1378.63 710.481C1379.46 710.804 1379.03 711.736 1379.61 712.219C1380.15 712.134 1380.75 712.101 1381.22 711.7C1381.27 710.792 1380.37 711.217 1379.97 710.848C1379.61 710.51 1379.19 710.011 1378.49 710.016C1377.82 710.02 1377.16 709.772 1376.36 709.606C1376.67 708.691 1376.28 707.978 1375.61 707.374C1374.82 707.217 1374.72 707.993 1374.29 708.334C1373.77 707.875 1374.46 706.891 1375.68 706.384C1375.27 704.813 1374.01 706.026 1373.23 705.636C1372.73 705.277 1373.43 704.735 1373.03 704.361C1372.18 704.056 1372.03 704.921 1371.65 705.188C1371.14 704.892 1370.5 705.003 1370.16 704.576C1369.67 704.597 1369.84 705.609 1369.11 705.196C1368.75 704.717 1369.1 704.496 1369.47 704.277C1369.29 703.446 1368.21 703.349 1368.08 702.499C1367.58 702.672 1367.26 702.953 1367.06 703.568C1366.17 702.804 1364.71 704.386 1364.03 702.688C1364.28 702.387 1365.11 702.883 1364.93 701.908C1364.39 701.424 1363.79 702.197 1363.12 701.951C1362.48 701.714 1362.04 701.297 1361.5 700.973C1361.66 700.67 1362.35 700.621 1361.94 700.053C1361.7 699.861 1361.48 699.885 1361.22 700.049C1360.84 700.302 1360.33 700.216 1360.16 699.908C1359.61 698.941 1358.57 698.647 1357.81 697.98C1357.18 697.418 1356.13 697.211 1356.19 696.054C1356.2 695.983 1356.01 695.85 1355.91 695.836C1355.21 695.741 1354.88 695.074 1354.33 694.819C1353.72 694.542 1353.61 693.868 1353.1 693.603C1352.45 693.262 1352.36 692.24 1351.85 692.156C1351.03 692.021 1351.66 690.885 1350.82 691.002C1350.82 690.288 1350.35 689.797 1350 689.223L1348.45 688.903C1348.03 688.262 1348.07 687.669 1348.56 687.085C1348.26 686.51 1347.59 686.786 1347.13 686.475C1347.1 686.263 1347.07 686.015 1347.02 685.691L1345.74 685.427C1345.68 685.105 1345.63 684.858 1345.58 684.58C1345 684.249 1344.32 685.268 1343.76 684.408C1343.7 684.196 1344.04 684.277 1344.09 683.965C1343.52 683.901 1343.18 683.083 1342.33 683.429C1342.19 682.742 1342.91 681.936 1341.88 681.31L1340.1 680.944C1339.69 679.512 1338.66 678.355 1338.45 676.871C1338.09 676.917 1338.17 677.262 1337.96 677.506C1337.44 677.394 1337.53 676.536 1336.94 676.547C1336.26 676.559 1336.4 676.012 1336.21 675.644C1335.98 675.18 1335.66 674.762 1335.66 674.206L1334.88 674.046C1334.7 673.883 1334.68 673.707 1334.73 673.498C1334.77 673.308 1334.79 673.111 1334.81 672.939C1334.44 672.516 1333.89 672.72 1333.31 672.315C1332.99 671.993 1333.13 670.986 1332.1 670.868C1331.92 670.846 1332.01 670.177 1331.75 669.825C1330.99 668.8 1330.51 667.594 1329.64 666.624C1329.22 666.145 1328.95 665.553 1328.78 664.887C1328.63 664.264 1327.9 663.98 1327.48 663.471C1327.08 662.982 1327.37 662.137 1326.55 661.907C1326.26 661.826 1326.53 661.392 1326.39 661.207C1326.05 660.787 1326.12 660.228 1325.56 659.813C1324.73 659.192 1324.77 657.898 1324.05 657.082C1323.43 656.389 1323.01 655.544 1322.86 654.637C1322.74 653.865 1321.6 653.686 1321.88 652.754C1321.02 651.795 1320.81 650.481 1320.05 649.468C1319.74 649.04 1319.5 648.585 1319.47 648.047C1319.45 647.697 1318.54 647.428 1319.37 647C1318.95 646.504 1318.3 646.177 1318.35 645.35C1318.36 645.179 1317.86 645.213 1317.78 644.735C1317.62 643.739 1316.9 642.908 1316.74 641.873C1316.69 641.569 1316.59 641.119 1316.49 640.989C1315.09 639.261 1315.01 637.01 1314.06 635.116C1313.97 634.936 1313.79 634.789 1313.74 634.603C1313.37 633.208 1313.36 631.707 1312.67 630.412C1312 629.151 1311.73 627.773 1311.51 626.421C1311.38 625.641 1310.8 625.071 1310.83 624.287C1310.86 623.411 1310.4 622.698 1309.92 622.002C1310.2 621.737 1310.38 621.57 1310.56 621.403C1309.46 620.813 1309.32 619.67 1309.14 618.646C1309.07 618.281 1308.97 617.885 1308.87 617.553C1308.15 615.264 1307.65 612.94 1307.42 610.554C1307.4 610.31 1307.24 610.082 1307.17 609.839C1306.81 608.642 1306.68 607.456 1307.06 606.214C1307.36 605.259 1307.07 602.188 1306.73 600.929C1306.06 598.443 1305.34 595.968 1304.75 593.463C1304.33 591.698 1304.07 589.895 1303.76 588.104C1303.44 586.184 1303.16 584.256 1302.52 582.373C1303.48 581.761 1302.93 580.816 1302.96 579.967C1302.99 578.99 1301.66 578.9 1301.72 577.954C1301.48 577.26 1302.37 577.151 1302.4 576.612C1302.26 576.065 1301.7 576.338 1301.39 576.06C1301.19 575.701 1301.36 575.462 1301.77 575.266C1301.88 575.226 1301.88 575.14 1301.74 574.999C1301.23 574.518 1301.13 573.821 1301.07 573.219C1301.01 572.759 1301.05 572.343 1300.76 571.929C1300.34 571.321 1300.57 570.825 1301.16 570.45C1300.63 569.685 1300.08 569.001 1300.39 567.892C1300.51 567.418 1299.61 566.825 1300 566.083C1299.58 565.687 1299.66 565.182 1299.87 564.78C1300.27 564.03 1299.17 564.247 1299.23 563.572C1299.39 561.739 1299.06 559.9 1299.09 558.046C1299.1 557.07 1299.49 556.018 1298.98 555.016C1298.81 554.686 1299.31 554.541 1299.48 554.298C1299.29 554.004 1299.1 553.721 1298.89 553.391C1299.09 552.82 1298.88 552.064 1299.5 551.611C1299.8 551.398 1299.54 551.301 1299.48 551.159C1298.9 549.63 1299.2 548.021 1299.03 546.459C1298.9 545.307 1299.45 544.181 1299.26 543.165C1298.94 541.486 1300.11 539.965 1299.5 538.337C1299.95 537.11 1299.72 535.713 1300.64 534.564C1301.05 534.045 1300.92 533.12 1301.15 532.412C1301.96 529.855 1302.91 527.342 1304.71 525.3C1305.54 524.351 1306.59 523.511 1307.14 522.41C1307.74 521.203 1308.74 520.33 1309.35 519.125C1309.85 518.153 1310.93 517.477 1311.76 516.68C1313.13 515.363 1314.55 514.095 1315.34 512.291C1315.44 512.059 1315.7 511.768 1315.91 511.555C1316.77 510.706 1317.36 509.616 1318.16 508.776C1318.99 507.905 1319.67 506.842 1320.69 506.171C1321.97 505.328 1322.76 503.87 1324.42 503.469C1325.29 503.26 1325.99 502.429 1326.84 502.057C1327.63 501.712 1328.42 501.464 1329.08 500.851C1329.43 500.523 1330 500.443 1330.47 500.237C1331.91 499.608 1332.99 498.436 1334.35 497.693C1335.05 497.313 1335.67 496.822 1336.4 496.47C1337.04 496.163 1337.57 495.504 1338.24 495.145C1341.6 493.341 1344.8 491.195 1348.6 490.321C1349.16 490.191 1349.35 489.417 1349.72 489.374C1350.24 489.311 1350.55 488.999 1350.96 488.836C1353.09 487.994 1355.21 487.113 1357.39 486.381C1357.86 486.219 1358.48 485.856 1359.08 486.251C1359.5 486.532 1359.89 486.156 1360.17 486.026C1361.46 485.422 1362.78 485.515 1364.12 485.617C1364.75 485.663 1365.38 485.53 1366.01 485.477L1367.8 485.913C1368.83 486.607 1369.93 486.026 1370.75 485.681C1371.94 485.181 1373.18 484.905 1374.37 484.49C1375.68 484.038 1377.02 483.635 1378.35 483.283C1379.98 482.851 1381.64 482.473 1383.3 482.16C1386.25 481.602 1389.23 481.11 1392.25 480.942C1393.88 480.851 1395.5 480.61 1397.12 480.393C1398.99 480.142 1400.85 479.726 1402.76 479.899C1403.49 479.18 1404.27 480.068 1405.05 479.81C1405.69 479.597 1406.41 479.611 1407.1 479.555C1408.82 479.416 1410.54 479.571 1412.25 479.481C1412.59 479.463 1412.54 479.659 1412.64 479.758C1412.91 480.017 1413.29 480.085 1413.56 480C1414.04 479.85 1414.43 479.127 1414.95 479.928C1415.52 479.751 1416.11 479.88 1416.66 479.824C1418.85 479.602 1421 480.734 1423.19 479.971C1423.25 479.952 1423.32 479.988 1423.39 480.009C1425.89 480.821 1428.57 480.423 1431.08 481.149C1431.48 481.262 1431.71 481.798 1431.98 481.644C1432.48 481.355 1432.9 481.571 1433.33 481.66C1433.75 481.745 1434.08 481.714 1434.46 481.479C1434.85 481.232 1434.92 482.138 1435.35 481.867C1435.77 481.603 1436.13 481.821 1436.51 481.894C1438.3 482.247 1440.08 482.69 1441.89 482.963C1442.53 483.06 1442.96 483.758 1443.68 483.48C1444.1 484.187 1444.88 483.962 1445.5 484.144C1446.21 484.354 1447.09 484.265 1447.65 484.658C1448.4 485.184 1449.19 485.41 1450.03 485.485C1450.92 485.566 1451.46 486.421 1452.37 486.415C1452.72 486.412 1452.92 486.732 1453.18 486.874C1454.36 487.504 1455.56 488.107 1456.81 488.551C1458.98 489.32 1460.91 490.536 1462.85 491.716C1464.13 492.496 1465.39 493.349 1466.51 494.34C1468.71 496.28 1470.9 498.229 1472.81 500.477C1473.93 501.792 1475.08 503.104 1476.28 504.357C1477.56 505.676 1478.51 507.301 1479.61 508.789C1480.51 510.015 1481.12 511.452 1482.34 512.457C1482.73 512.781 1482.96 513.298 1482.91 513.916C1483.12 513.806 1483.28 513.721 1483.5 513.603C1483.75 514.324 1484.5 514.754 1484.52 515.666C1484.55 516.371 1485.47 516.504 1485.78 517.107C1486.64 518.75 1488.21 519.974 1488.61 521.894C1489.34 522.454 1489.92 523.108 1490.01 524.08C1491.03 524.309 1490.27 525.357 1490.93 525.75C1491.03 526.07 1491.09 525.643 1491.38 525.805C1491.49 526.563 1492.22 527.174 1492.53 527.973C1492.84 528.794 1493.49 529.408 1493.58 530.419C1493.67 531.254 1494.54 532.014 1495.12 532.892L1494.85 534.172C1495.22 534.292 1495.53 534.392 1495.83 534.488C1496.17 535.457 1495.96 536.533 1496.68 537.42C1497.28 538.162 1497.12 539.261 1497.73 540.094C1498.16 540.676 1498.32 541.492 1498.47 542.229C1498.55 542.59 1498.34 543.011 1498.25 543.437C1499.45 545.022 1500.13 546.794 1500.08 548.808C1501.09 550.609 1500.86 552.803 1501.86 554.575C1502.19 555.164 1501.97 555.696 1502.16 556.263C1503.02 558.898 1503.73 561.579 1504.65 564.203C1505.37 566.272 1505.86 568.428 1506.38 570.565C1506.7 571.892 1507.21 573.106 1507.86 574.306C1509.22 576.804 1510.64 579.268 1512.03 581.744C1513.46 584.281 1514.95 586.785 1516.33 589.341C1518.42 593.205 1521.02 596.72 1523.35 600.412C1524.93 602.901 1526.8 605.186 1528.48 607.606C1530.02 609.822 1531.76 611.915 1533.39 614.071C1535.52 616.874 1537.81 619.565 1540.11 622.228C1542.72 625.232 1545.51 628.067 1548.33 630.859C1550.99 633.485 1553.84 635.909 1556.54 638.479C1558.94 640.76 1561.3 643.104 1563.64 645.45C1565.35 647.159 1567.14 648.777 1568.85 650.488C1571.02 652.673 1573.17 654.882 1575.18 657.23C1576.02 658.21 1576.98 659.07 1577.81 660.076C1578.21 660.561 1578.75 661.01 1579.02 661.578C1579.3 662.17 1579.89 662.337 1580.25 662.818C1581.55 664.549 1583.03 666.133 1584.31 667.894C1585.74 669.859 1587.36 671.7 1588.75 673.705C1589.12 674.238 1589.3 674.934 1589.64 675.41C1590.02 675.963 1590.62 676.335 1590.77 677.109C1590.88 677.686 1591.85 677.742 1591.75 678.632C1591.71 678.917 1592.41 679.313 1592.74 679.715C1593.64 680.818 1593.95 682.222 1594.75 683.366C1595.57 684.529 1596.45 685.676 1597.08 686.943C1598.07 688.954 1599.3 690.828 1600.26 692.841C1601.17 694.759 1602.51 696.512 1602.86 698.645C1602.96 699.221 1603.83 698.99 1603.55 699.632C1604.9 702.816 1606.28 705.993 1607.6 709.191C1608.16 710.531 1608.44 711.974 1608.87 713.356C1609.42 715.148 1610.24 716.881 1610.49 718.777C1610.79 721.078 1611.98 723.2 1611.9 725.586C1612.74 726.448 1612.26 727.709 1612.83 728.665C1613.05 729.041 1612.7 729.254 1612.43 729.407C1613.12 731.17 1613.64 732.948 1613.85 734.847C1614.11 737.21 1614.7 739.536 1614.98 741.897C1615.41 745.529 1615.85 749.158 1615.88 752.834C1615.89 754.315 1615.91 755.77 1615.81 757.256C1615.72 758.63 1615.94 760.046 1615.82 761.449C1615.81 761.62 1616.05 761.845 1616 761.977C1615.41 763.501 1616.06 765.172 1615.45 766.677C1614.98 767.828 1615.53 769.024 1615.17 770.19C1614.84 771.288 1614.42 772.461 1614.5 773.566C1614.69 776.116 1613.89 778.481 1613.27 780.836C1612.88 782.346 1612.52 783.909 1611.97 785.378C1611.11 787.7 1610.25 790.072 1608.91 792.147C1607.05 795.018 1604.9 797.646 1602.24 799.911C1600.19 801.659 1597.88 802.63 1595.48 803.587C1593.82 804.247 1592.06 804.536 1590.35 804.779C1589.08 804.96 1587.68 804.873 1586.36 804.945C1584.44 805.05 1582.54 804.799 1580.62 804.925C1579.55 804.995 1578.4 804.785 1577.33 804.64C1572.68 804.011 1568.03 803.383 1563.45 802.282C1562.61 802.081 1562.05 801.358 1561.12 801.332C1560.32 801.309 1559.41 801.221 1558.76 800.822C1557.81 800.245 1556.71 800.26 1555.81 799.797C1554.85 799.301 1553.82 799.175 1552.86 798.795C1550.84 797.995 1548.98 796.791 1546.82 796.33C1543.81 794.139 1540.25 792.923 1537.19 790.765C1534.94 789.182 1532.68 787.589 1530.38 786.089C1528.58 784.919 1527.01 783.47 1525.23 782.29C1524.54 781.83 1524.13 780.949 1523.52 780.443C1522.94 779.958 1522.07 779.76 1521.4 779.232C1520.81 778.773 1520.42 778.314 1520.38 777.686C1518.97 777.85 1518.73 776.316 1517.65 775.961C1516.64 775.63 1515.83 774.667 1514.95 773.956C1514.07 773.242 1513.25 772.454 1512.34 771.773C1511.39 771.053 1510.46 770.308 1509.53 769.548C1508.67 768.835 1507.66 768.3 1506.71 767.689C1505.75 767.069 1505.07 766.131 1504.18 765.41C1503.29 764.693 1502.23 764.253 1501.4 763.46C1500.6 762.695 1499.65 762.085 1498.78 761.42C1498.33 761.793 1498.85 761.906 1498.79 762.139C1498.13 762.53 1497.95 761.909 1497.79 761.548C1497.55 760.998 1496.93 761.283 1496.63 760.894C1496.35 760.553 1496.02 760.156 1495.64 760.039C1495.17 759.896 1494.86 759.606 1494.49 759.373C1494.13 759.154 1493.47 759.31 1493.73 758.535C1493.4 758.097 1492.86 758.266 1492.44 758.088C1492.35 757.572 1492.11 757.14 1491.45 756.863C1491.92 756.786 1492.17 756.746 1492.42 756.705C1492.19 755.778 1491.33 755.506 1490.76 755.782C1489.84 756.233 1489.46 755.549 1489.02 755.273C1488.41 755.29 1488.58 756.303 1487.8 755.866C1487.79 754.85 1487.78 753.751 1486.38 753.519C1485.82 752.275 1484.35 752.298 1483.47 751.435C1482.64 750.626 1481.35 750.377 1480.49 749.471C1480.05 749.001 1479.24 749.318 1478.67 748.809C1478.03 748.231 1477.1 748.111 1476.37 747.506C1475.9 747.115 1475.07 747.003 1474.44 746.57C1473.98 746.254 1473.32 746.239 1472.73 746.085C1472.72 745.85 1472.72 745.66 1472.72 745.415C1471.66 745.721 1470.92 744.952 1470.09 744.55C1469.2 744.117 1468.33 743.542 1467.61 742.861C1467.1 742.37 1466.51 742.204 1466.03 742.42C1465.54 742.642 1465.23 741.845 1464.83 742.368C1464.51 741.503 1463.2 742.131 1462.96 741.105C1462.84 740.631 1462.14 740.683 1462.01 740.181C1461.7 740.627 1461.08 740.26 1460.76 740.658C1459.51 739.835 1459.51 739.835 1459.3 739.127C1458.42 739.429 1457.64 739.544 1457.03 738.468C1456.69 737.858 1455.51 738.308 1455.02 737.545C1454.8 737.699 1454.44 737.954 1454.32 737.736C1453.93 737.01 1453.02 737.351 1452.64 736.859C1452.18 736.266 1451.54 736.436 1451 736.253C1450.4 736.051 1449.75 736.342 1449.12 735.894C1448.57 735.507 1447.68 735.761 1447.19 735.048C1446.94 734.688 1446.6 735.516 1446.21 735.036C1445.94 734.705 1445.36 735.42 1444.95 734.738C1444.65 734.228 1443.85 734.391 1443.28 734.236C1442.75 734.095 1442.22 734.01 1441.69 733.901C1441.66 734.346 1441.66 734.346 1441.77 734.52C1441.63 734.696 1441.45 734.662 1441.25 734.65C1440.63 734.611 1440.39 733.889 1439.71 733.871C1439.23 733.859 1438.66 733.862 1438.24 733.383C1437.92 733.016 1437.49 733.622 1437.03 733.383C1436.69 733.201 1436.59 732.766 1436.1 732.73C1433.75 732.563 1431.75 731.112 1429.42 730.974C1429.18 730.503 1429.68 730.594 1429.74 730.376C1429.71 730.332 1429.68 730.232 1429.64 730.225C1427.39 729.906 1425.41 728.65 1423.14 728.419C1422.57 728.362 1422.19 727.659 1421.47 728.044C1420.99 728.301 1420.68 727.248 1420.06 727.701C1419.67 726.965 1418.88 727.188 1418.27 727C1417.69 726.822 1417.08 726.742 1416.48 726.619C1415.82 726.482 1415.14 726.195 1414.49 726.247C1413.78 726.304 1413.46 724.918 1412.63 725.822C1412.29 725.023 1411.49 725.234 1410.88 725.06C1410.17 724.854 1409.42 724.745 1408.69 724.594C1408.03 724.457 1407.35 724.382 1406.71 724.168C1405.66 723.819 1404.71 723.165 1403.56 723.124C1402.46 723.084 1401.83 722.003 1400.72 722.144L1400.85 721.542C1404.65 722.468 1408.3 724 1412.46 724.444Z" fill="#01B880"/>
<path fill-rule="evenodd" clip-rule="evenodd" d="M1148.54 286.916C1148.54 287.824 1146.76 288.504 1148.2 289.616C1148.3 289.694 1148.31 290.091 1148.22 290.178C1147.06 291.263 1147.71 292.638 1147.66 293.865C1147.56 296.273 1147.69 298.69 1147.61 301.101C1147.53 303.536 1147.81 305.953 1147.12 308.418C1146.63 310.188 1146.86 312.23 1147.07 314.115C1147.3 316.133 1146.24 317.957 1146.45 319.9C1146.73 322.585 1145.44 325.119 1145.82 327.794C1145.83 327.893 1145.85 328.008 1145.81 328.095C1144.66 330.845 1144.77 333.862 1144.02 336.698C1143.73 337.762 1142.91 338.782 1143.62 339.974C1144.45 340.339 1145.04 339.622 1145.75 339.493C1147.89 339.099 1149.96 338.265 1152.17 338.238C1152.81 337.008 1154.14 337.901 1155.12 337.281C1155.94 336.76 1157.26 336.512 1158.36 336.494C1159.47 336.477 1160.3 335.463 1161.43 335.834C1162.53 334.629 1164.13 335.338 1165.5 334.745C1167.96 333.686 1170.66 333.169 1173.23 332.295C1174.72 331.788 1175.71 330.983 1176.5 330.201C1176.88 328.445 1176.22 327.188 1175.57 326.092C1173.78 323.093 1171.96 320.074 1169.82 317.325C1166.46 313.025 1163.39 308.536 1160.28 304.068C1157.73 300.412 1155.28 296.693 1152.81 292.989C1151.44 290.93 1150.4 288.639 1148.54 286.916ZM1175.12 342.466C1174.45 343.142 1173.88 343.711 1173.31 344.28C1173.24 344.216 1173.17 344.15 1173.1 344.085C1172.95 343.961 1172.71 343.712 1172.68 343.731C1170.6 345.484 1167.51 344.146 1165.46 346.055C1165.11 345.798 1164.7 345.183 1164.27 345.529C1163.47 346.173 1162.78 346.433 1161.97 345.643C1161.82 345.498 1161.61 345.523 1161.56 345.781C1161.25 347.184 1160.29 346.907 1159.23 346.947C1158.26 346.986 1157.32 347.622 1156.33 347.904C1153.7 348.658 1150.88 348.628 1148.34 349.753C1147.53 350.115 1147.02 348.758 1146.04 349.643C1145.59 350.054 1144.65 350.6 1143.64 350.375C1142.83 350.197 1142.09 350.899 1141.19 351.019C1139.56 351.236 1138.23 352.239 1137.65 353.947C1137.51 353.805 1137.37 353.663 1137.23 353.522C1136.05 353.92 1135.74 354.541 1136.73 355.491C1136.44 355.776 1136.16 356.061 1135.87 356.348C1135.66 356.158 1135.45 355.967 1135.24 355.785C1134.2 356.271 1134.46 358.018 1133.26 358.116C1132.27 358.198 1131.39 358.464 1130.62 358.844C1129.65 358.419 1130.52 357.418 1129.83 356.995C1129.44 357.242 1129.23 357.868 1128.4 357.385C1128.31 356.634 1127.96 355.7 1128.87 354.894C1127.84 354.137 1126.69 353.93 1125.41 353.917C1124.06 353.904 1122.78 353.557 1122.24 351.995C1121.84 350.816 1120.04 350.85 1120 349.216C1120.07 349.115 1120.29 348.808 1120.49 348.488C1121.26 347.259 1122.14 346.329 1123.81 345.952C1126.42 345.362 1128.84 343.843 1131.46 343.374C1133.66 342.978 1133.85 341.431 1134.27 340.024C1134.57 339.056 1134.76 337.958 1134.86 336.965C1135.18 333.893 1136.29 330.938 1136.15 327.813C1137.39 325.768 1136.36 323.415 1137.08 321.256C1137.78 319.158 1136.92 316.83 1137.43 314.743C1138.37 310.894 1137.82 307.044 1137.94 303.201C1138.06 299.38 1137.96 295.552 1137.96 291.729C1137.96 287.804 1138.39 283.82 1137.85 279.971C1137.3 276.103 1137.56 272.283 1137.34 268.509C1138.25 267.591 1139.11 266.738 1139.85 266C1140.44 266.597 1141.05 267.2 1141.69 267.845C1142.53 266.654 1143.61 266.739 1144.31 267.055C1147.18 268.358 1149.69 270.035 1151.31 273.01C1153.78 277.552 1156.59 281.915 1159.31 286.324C1161.39 289.707 1163.63 293.007 1165.9 296.228C1168.82 300.377 1171.57 304.682 1174.94 308.529C1176.26 310.038 1177.02 312.076 1178.64 313.279C1179.45 313.881 1178.23 315.245 1179.79 315.341C1180.8 315.403 1180.66 316.753 1181.33 317.289C1182.11 317.907 1182.46 318.885 1183.1 319.55C1183.73 320.213 1183.77 321.168 1184.52 321.716C1185.23 322.229 1185.56 323.084 1186.07 323.771C1187.25 325.378 1188.27 327.081 1189.21 328.824C1190.34 330.911 1190.22 333.056 1189.09 335.133C1188.95 335.38 1188.81 335.719 1188.67 335.848C1187.96 336.521 1188.47 337.778 1187.79 338.182C1186.08 339.186 1184.66 340.74 1182.72 341.201C1181.75 341.43 1180.95 341.842 1180.15 342.308C1179.36 342.768 1178.46 342.191 1177.63 342.862C1177.05 343.328 1175.95 343.449 1175.12 342.466Z" fill="#FDF6CF"/>
<path fill-rule="evenodd" clip-rule="evenodd" d="M562.543 772.916C562.539 773.824 560.764 774.504 562.197 775.616C562.296 775.694 562.314 776.091 562.22 776.178C561.063 777.263 561.714 778.638 561.66 779.865C561.555 782.273 561.692 784.69 561.612 787.101C561.531 789.536 561.812 791.953 561.122 794.418C560.626 796.188 560.856 798.23 561.071 800.115C561.304 802.133 560.242 803.957 560.446 805.9C560.729 808.585 559.438 811.119 559.816 813.794C559.83 813.893 559.849 814.008 559.812 814.095C558.657 816.845 558.774 819.862 558.017 822.698C557.734 823.762 556.913 824.782 557.615 825.974C558.455 826.339 559.042 825.622 559.748 825.493C561.894 825.099 563.956 824.265 566.172 824.238C566.808 823.008 568.137 823.901 569.118 823.281C569.945 822.76 571.262 822.512 572.364 822.494C573.47 822.477 574.296 821.463 575.431 821.834C576.532 820.629 578.134 821.338 579.505 820.745C581.957 819.686 584.66 819.169 587.228 818.295C588.716 817.788 589.708 816.983 590.502 816.201C590.883 814.445 590.224 813.188 589.57 812.092C587.778 809.093 585.961 806.074 583.817 803.325C580.462 799.025 577.386 794.536 574.278 790.068C571.734 786.412 569.284 782.693 566.811 778.989C565.436 776.93 564.396 774.639 562.543 772.916ZM589.123 828.466C588.448 829.142 587.878 829.711 587.309 830.28C587.238 830.216 587.167 830.15 587.096 830.085C586.955 829.961 586.705 829.712 586.684 829.731C584.598 831.484 581.513 830.146 579.459 832.055C579.109 831.798 578.705 831.183 578.273 831.529C577.47 832.173 576.781 832.433 575.971 831.643C575.822 831.498 575.611 831.523 575.555 831.781C575.254 833.184 574.286 832.907 573.233 832.947C572.256 832.986 571.317 833.622 570.334 833.904C567.702 834.658 564.878 834.628 562.344 835.753C561.528 836.115 561.021 834.758 560.041 835.643C559.587 836.054 558.652 836.6 557.638 836.375C556.829 836.197 556.088 836.899 555.192 837.019C553.558 837.236 552.23 838.239 551.655 839.947C551.513 839.805 551.371 839.663 551.231 839.522C550.047 839.92 549.741 840.541 550.73 841.491C550.445 841.776 550.16 842.061 549.873 842.348C549.66 842.158 549.448 841.967 549.243 841.785C548.202 842.271 548.457 844.018 547.257 844.116C546.265 844.198 545.392 844.464 544.622 844.844C543.651 844.419 544.523 843.418 543.831 842.995C543.443 843.242 543.228 843.868 542.396 843.385C542.31 842.634 541.956 841.7 542.867 840.894C541.836 840.137 540.689 839.93 539.406 839.917C538.059 839.904 536.78 839.557 536.242 837.995C535.837 836.816 534.041 836.85 534 835.216C534.072 835.115 534.29 834.808 534.491 834.488C535.258 833.259 536.144 832.329 537.81 831.952C540.422 831.362 542.839 829.843 545.456 829.374C547.662 828.978 547.848 827.431 548.273 826.024C548.566 825.056 548.759 823.958 548.861 822.965C549.177 819.893 550.293 816.938 550.153 813.813C551.394 811.768 550.36 809.415 551.079 807.256C551.779 805.158 550.922 802.83 551.429 800.743C552.366 796.894 551.819 793.044 551.938 789.201C552.057 785.38 551.964 781.552 551.964 777.729C551.964 773.804 552.387 769.82 551.846 765.971C551.303 762.103 551.557 758.283 551.336 754.509C552.254 753.591 553.108 752.738 553.845 752C554.442 752.597 555.046 753.2 555.691 753.845C556.532 752.654 557.615 752.739 558.312 753.055C561.185 754.358 563.688 756.035 565.309 759.01C567.783 763.552 570.591 767.915 573.31 772.324C575.394 775.707 577.629 779.007 579.897 782.228C582.82 786.377 585.575 790.682 588.94 794.529C590.26 796.038 591.018 798.076 592.643 799.279C593.454 799.881 592.231 801.245 593.794 801.341C594.796 801.403 594.659 802.753 595.334 803.289C596.113 803.907 596.457 804.885 597.096 805.55C597.732 806.213 597.767 807.168 598.524 807.716C599.234 808.229 599.562 809.084 600.069 809.771C601.254 811.378 602.272 813.081 603.213 814.824C604.339 816.911 604.221 819.056 603.087 821.133C602.952 821.38 602.807 821.719 602.67 821.848C601.962 822.521 602.471 823.778 601.786 824.182C600.085 825.186 598.656 826.74 596.716 827.201C595.746 827.43 594.945 827.842 594.147 828.308C593.363 828.768 592.465 828.191 591.631 828.862C591.051 829.328 589.948 829.449 589.123 828.466Z" fill="#FDF6CF"/>
<path opacity="0.32" d="M1396.54 743.352L1396.79 744.067C1393.88 740.444 1391.47 736.533 1389.61 732.414C1387.04 726.557 1385.47 720.402 1384.94 714.148C1384.44 708.025 1384.42 701.88 1384.91 695.757C1385.67 686.818 1385.88 677.849 1385.54 668.888C1385.21 661.5 1383.22 654.238 1379.68 647.517C1378.27 644.853 1376.8 642.206 1375.12 639.577C1375.86 639.596 1375.68 640.209 1376.31 640.535C1375.8 639.773 1375.56 638.887 1374.99 638.665C1374.66 638.562 1374.36 638.382 1374.13 638.145C1373.9 637.907 1373.75 637.621 1373.69 637.315C1373.61 635.226 1371.8 633.952 1370.78 632.322C1369.94 631.045 1368.48 630.144 1367.69 628.786C1366.69 627.056 1365.25 625.561 1364.71 623.58C1364.31 622.622 1363.62 621.776 1362.72 621.127C1361.86 620.436 1361.28 619.518 1361.08 618.514C1360.94 616.969 1359.71 615.971 1359.16 614.647C1357.79 611.421 1356.64 608.126 1355.72 604.78C1354.5 599.983 1353.86 595.088 1353.82 590.176C1353.65 582.021 1357.04 575.018 1362.57 568.664C1368.1 562.311 1375.31 558.568 1384.48 557.827C1389.32 557.45 1394.16 557.073 1399.02 557.079C1402.14 557.055 1405.24 557.392 1408.26 558.08C1410.95 558.709 1413.66 558.548 1416.36 558.455C1423.45 558.086 1430.56 558.727 1437.43 560.353C1444.3 562.168 1450.71 565.116 1456.33 569.039C1463.9 574.187 1469.92 580.603 1475.46 587.407C1483.45 597.193 1491.41 607.002 1501.36 615.396C1508.39 621.309 1515.88 626.664 1524.61 630.545C1528.49 632.152 1532.61 633.277 1536.84 633.888C1544.3 635.165 1551.83 636.049 1559.2 637.632C1564.54 638.654 1569.74 640.174 1574.71 642.166C1583.35 645.857 1591.32 650.434 1597.85 656.692C1604.83 663.404 1610.24 670.92 1612.21 680.026C1614.06 688.694 1613.14 696.948 1607.27 704.387C1604.06 708.453 1599.69 711.443 1594.86 713.91C1586.01 718.436 1576.66 722.185 1567.84 726.706C1561.85 729.797 1555.71 732.679 1550.3 736.482C1543.67 741.189 1539.23 747.238 1536.21 754.176C1534.19 758.855 1532.4 763.579 1530.47 768.271C1528.16 773.895 1525.47 779.371 1521.56 784.314C1514.67 793.006 1504.99 797.018 1493.1 797.327C1486.19 797.466 1479.29 796.69 1472.63 795.026C1469.79 794.338 1467.03 793.454 1464.25 792.614C1461.72 791.847 1459.28 790.859 1456.97 789.666C1455.11 788.707 1453.05 788.104 1451.15 787.169C1444.28 783.789 1437.67 780.013 1431.37 775.866C1427.63 773.354 1424.07 770.64 1420.54 767.897C1417.73 765.703 1415.06 763.345 1412.5 760.914C1410.37 758.9 1408.18 756.916 1406.14 754.83C1405.05 753.708 1404.45 752.256 1403.36 751.083C1401.15 748.81 1399.14 746.397 1397.33 743.865C1397.28 743.716 1397.17 743.586 1397.03 743.494C1396.88 743.403 1396.71 743.354 1396.53 743.356C1395.79 741.524 1394.42 740.018 1393.26 738.399C1394.14 740.151 1395.24 741.812 1396.54 743.352V743.352ZM1604 674.808L1604.14 674.68C1603.5 673.584 1602.94 672.442 1602.19 671.398C1599.82 668.02 1597.53 664.518 1593.74 662.018C1592.74 661.36 1592.11 660.189 1590.95 659.55C1589.33 658.675 1588.29 657.23 1586.63 656.336C1584.06 654.893 1581.57 653.402 1579.1 651.829C1577.45 650.882 1575.72 650.036 1573.93 649.298C1572.53 648.695 1571.09 648.162 1569.62 647.702C1566.96 646.709 1564.22 645.913 1561.41 645.324C1558.57 644.746 1555.69 644.269 1552.8 643.832C1549.92 643.395 1547.08 643.062 1544.25 642.575C1540.93 641.979 1537.57 641.57 1534.19 641.35C1532.53 641.276 1531.05 640.603 1529.38 640.451C1527.92 640.382 1526.48 640.161 1525.08 639.792C1522.6 639.035 1520.18 638.115 1517.84 637.04C1510.19 633.35 1503.16 628.752 1496.94 623.378C1494.99 621.736 1492.88 620.201 1491.55 618.062C1491.18 617.373 1490.66 616.757 1490.01 616.253C1488.72 615.363 1487.6 614.302 1486.68 613.109C1484.72 610.622 1482.4 608.378 1480.37 605.933C1477.08 601.964 1473.84 597.975 1470.83 593.856C1468.99 591.342 1466.77 589.085 1465 586.528C1463.91 584.873 1462.1 583.589 1460.59 582.159C1453.44 575.395 1445.16 570.121 1434.88 567.682C1433.58 567.37 1432.94 566.32 1431.6 566.179C1425.52 565.59 1419.43 564.906 1413.38 564.007C1407.02 563.063 1400.64 564.034 1394.28 564.013C1393 564.005 1393 564.051 1391.82 563.291C1391.69 563.216 1391.45 563.286 1391.25 563.303C1387.48 563.607 1383.67 563.618 1379.92 564.219C1377.59 564.591 1375.17 564.79 1373.06 565.853C1365.67 569.459 1361.56 575.08 1360.15 582.29C1359.51 586.347 1359.49 590.464 1360.1 594.528C1361.03 602.914 1363.98 611.038 1368.75 618.364C1373.53 625.742 1378.91 632.813 1383.41 640.344C1387.86 647.667 1390.6 655.692 1391.46 663.948C1392.48 673.973 1391.99 683.975 1391.46 693.969C1390.9 700.83 1391.05 707.723 1391.91 714.564C1393.38 724.029 1397.43 733.05 1403.72 740.861C1407.49 745.685 1411.63 750.277 1416.12 754.605C1428.29 766.454 1442.53 776.534 1458.31 784.465C1465.6 788.108 1473.14 790.996 1481.43 792.323C1487 793.222 1492.59 793.776 1498.26 793.119C1501.58 792.865 1504.75 791.82 1507.44 790.095C1510.73 787.823 1513.53 785.046 1515.69 781.897C1520.11 775.501 1522.65 768.41 1525.43 761.413C1528.21 754.417 1531.06 747.715 1536.35 741.92C1539.36 738.587 1542.9 735.649 1546.86 733.194C1557.06 726.97 1568.2 722.177 1579.3 717.329C1584.42 715.088 1589.78 713.244 1594.54 710.398C1597.79 708.595 1600.6 706.242 1602.8 703.477C1606.51 698.374 1608.06 692.29 1607.18 686.279C1607.14 686.113 1607.13 685.942 1607.15 685.773C1607.72 683.902 1606.84 682.272 1606.07 680.597C1605.88 680.163 1605.51 679.653 1605.63 679.275C1606.06 677.932 1604.47 677.176 1604.48 675.88C1604.49 675.312 1603.48 674.494 1603.13 673.682L1604 674.808ZM1387.54 653.04C1386.15 648.483 1384.14 644.087 1381.55 639.946C1378.49 634.957 1375.16 630.113 1371.76 625.294C1369.93 622.694 1368.21 620.028 1366.37 617.425C1365.95 616.787 1366.04 615.841 1364.96 615.446C1365.89 617.447 1367.01 619.375 1368.32 621.208C1372.26 626.983 1376.42 632.678 1380.1 638.537C1383.06 643.171 1385.55 648.024 1387.54 653.04ZM1606.4 669.723C1608.88 674.515 1610.57 679.587 1611.44 684.79C1611.24 679.481 1609.5 674.3 1606.4 669.73L1606.4 669.723ZM1500.81 617.88C1505.54 622.315 1510.99 626.107 1516.99 629.13C1511.36 625.65 1506.03 621.836 1500.82 617.887L1500.81 617.88ZM1449.41 567.077C1444.17 564.234 1438.66 561.844 1432.44 561.217C1438.33 562.598 1444.03 564.564 1449.41 567.077V567.077ZM1398.91 737.118C1395.5 732.268 1393.6 726.868 1391.53 721.533C1392.69 727.127 1395.21 732.441 1398.91 737.118ZM1602.14 663.205C1601.96 663.605 1601.87 663.716 1601.91 663.753C1603.28 665.297 1604.47 666.967 1605.44 668.732C1605.55 668.89 1605.69 669.017 1605.91 668.946C1606.12 668.875 1606.17 668.595 1606.04 668.421C1604.85 666.708 1603.55 665.046 1602.16 663.193L1602.14 663.205ZM1511.36 632.739C1513.37 634.245 1515.64 635.473 1518.09 636.378L1511.36 632.739ZM1372.18 632.797C1373.07 634.955 1373.89 635.786 1375.16 635.593C1372.93 635.53 1373.68 633.55 1372.18 632.797ZM1368.58 629.67L1368.74 629.591L1365.85 625.211L1365.69 625.29L1368.58 629.67Z" fill="#CCEEE3"/>
</g>
<defs>
<clipPath id="clip0_167_1721">
<rect width="1440" height="896" fill="white"/>
</clipPath>
</defs>
</svg>
