<svg width="25" height="24" viewBox="0 0 25 24" fill="none" xmlns="http://www.w3.org/2000/svg">
<g clip-path="url(#clip0_113_2339)">
<path d="M24.75 12.0935C24.75 11.2593 24.6839 10.4207 24.5429 9.6001H13.23V14.3253H19.7083C19.4395 15.8493 18.3348 17.3834 17.07 18.2401L17.3109 21.1201L20.91 21.1201C23.1796 18.9829 24.75 15.8268 24.75 12.0935Z" fill="#4285F4"/>
<path d="M12.9377 23.9999C16.1814 23.9999 18.9169 22.9483 20.91 21.133L17.07 18.2399C15.9917 18.9643 14.5639 19.3003 12.9421 19.3003C9.80439 19.3003 6.98456 17.2101 6.03 14.3999H2.19V17.4588C4.2317 21.469 8.39023 23.9999 12.9377 23.9999Z" fill="#34A853"/>
<path d="M6.03 14.4C5.47982 12.9396 5.71982 11.0604 6.27 9.59998L6.51 6.71998L2.18998 6.47998C0.327094 9.80266 0.284275 13.9573 2.14717 17.28L6.03 14.4Z" fill="#FBBC04"/>
<path d="M13.1692 4.69791C14.9208 4.67174 16.6137 5.30849 17.8823 6.47732L21.39 3.08859C19.1689 1.07368 16.2209 -0.0340905 13.1692 0.000799855C8.52379 0.000799855 4.27568 2.46761 2.19 6.48L6.27107 9.6C7.24168 6.78697 9.9639 4.69791 13.1692 4.69791Z" fill="#EA4335"/>
</g>
<defs>
<clipPath id="clip0_113_2339">
<rect width="24" height="24" fill="white" transform="translate(0.75)"/>
</clipPath>
</defs>
</svg>
