<svg width="32" height="32" viewBox="0 0 32 32" fill="none" xmlns="http://www.w3.org/2000/svg">
<g clip-path="url(#clip0_45_725)">
<path d="M16 31.98C24.8255 31.98 31.98 24.8255 31.98 16C31.98 7.17446 24.8255 0.0199585 16 0.0199585C7.17446 0.0199585 0.0199585 7.17446 0.0199585 16C0.0199585 24.8255 7.17446 31.98 16 31.98Z" fill="white" stroke="#0392DE" stroke-width="0.499378"/>
<path d="M15.058 31.9824C11.649 31.7787 8.37773 30.4859 5.7705 28.3122C2.54752 25.6251 0.563411 21.9346 0.0749656 17.7185C0.00294595 17.0968 -0.024563 15.5061 0.0254145 14.8533C0.1182 13.6414 0.310926 12.5677 0.632322 11.4722C2.33305 5.67543 7.182 1.31551 13.1383 0.227521C14.1523 0.0423031 14.6768 0.000474273 15.9912 2.58771e-06C17.291 -0.000299775 17.6476 0.0256731 18.6518 0.194863C21.1663 0.618557 23.4847 1.60389 25.5305 3.11834C28.9646 5.6605 31.2694 9.53314 31.8538 13.7427C31.9707 14.5845 32.0003 15.0414 32 15.9984C31.9994 17.6456 31.8043 19.0157 31.3503 20.5583C31.0029 21.7383 30.225 23.2528 29.9186 23.8524C29.1789 25.1294 28.2552 26.3602 27.3484 27.2784C26.5934 28.0349 25.9487 28.5776 25.1249 29.1498C22.8731 30.7142 20.2997 31.6598 17.5486 31.9337C16.9312 31.9952 15.6806 32.0196 15.058 31.9824ZM17.044 30.8161L17.0428 30.4744L15.9226 30.4682L15.9308 29.9819L16.9462 29.9864L16.9465 29.5115L15.9331 29.5157L15.9328 29.1004L17.048 29.0913L17.0445 28.7348L15.539 28.7301L15.4898 30.8383L17.044 30.8161ZM14.8926 30.7959L15.0795 28.7551L14.7121 28.7125L14.5038 30.741L14.8926 30.7959ZM18.1081 30.7217L17.8217 29.2186L19.0113 30.5707L19.4268 30.4918L19.0302 28.3685L18.665 28.4384L18.9363 29.9799L17.751 28.6069L17.3754 28.67L17.7201 30.7813L18.1081 30.7217ZM13.478 30.6211L14.5635 28.6721L14.1201 28.5959L13.3631 29.9825L13.1815 28.4389L12.7314 28.352L13.0484 30.5751L13.478 30.6211ZM11.77 28.0706L11.4078 27.9349L11.1348 28.5982L10.4103 28.2963L10.7027 27.6251L10.3556 27.4787L9.50317 29.4038L9.85085 29.54L10.2246 28.6932L10.9857 28.9818L10.6348 29.8768L11.0409 30.0349L11.77 28.0706ZM21.7667 29.734L21.6255 27.4339L21.2444 27.5886L21.3495 29.1996L20.3234 27.9699L19.9173 28.1497L21.3936 29.8728L21.7667 29.734ZM23.1427 29.0537L22.139 27.1888L21.7932 27.3776L22.7992 29.2554L23.1427 29.0537ZM10.0338 27.3157L9.7029 27.0921L8.94992 28.2814L8.97831 26.6359L8.67663 26.419L7.49016 28.2254L7.83451 28.4657L8.60795 27.2542L8.54775 28.9109L8.84989 29.1161L10.0338 27.3157ZM24.7085 28.7748L24.5395 28.4967L24.2682 28.6588L24.4332 28.9356L24.7085 28.7748ZM24.9073 27.9735L24.6995 27.6341L23.7622 28.2296L23.4863 27.7981L24.3342 27.2628L24.0992 26.9039L23.2772 27.4263L23.0556 27.0814L23.9584 26.4977L23.7428 26.1887L22.4156 27.0203L23.5747 28.8336L24.9073 27.9735ZM16.1073 28.5018L16.2671 28.2902L16.4358 28.4994L16.7423 28.4963L16.4514 28.1059L16.0975 28.1107L15.8302 28.5058L16.1073 28.5018ZM8.36151 26.1913L8.05393 25.9653L6.77664 27.6546L7.07461 27.8806L8.36151 26.1913ZM26.1269 26.9406L24.9966 25.6104L25.4622 25.1895L25.194 24.8699L23.8757 26.0404L24.159 26.3512L24.6372 25.931L25.8003 27.2415L26.1269 26.9406ZM6.63062 27.1185C6.79386 27.0443 6.95662 26.8615 7.00595 26.6968C7.05976 26.5171 6.98983 26.3311 6.7115 25.9133C6.57194 25.7038 6.48442 25.539 6.48439 25.4856C6.48432 25.3941 6.61361 25.2642 6.70487 25.2642C6.79861 25.2642 7.03038 25.4261 7.10155 25.5413C7.1614 25.6381 7.1835 25.6808 7.16537 25.8259L7.11451 25.9483L7.38683 26.1809C7.38683 26.1809 7.62952 25.7197 7.54079 25.5073C7.47549 25.351 7.2127 25.0792 7.0197 24.9685C6.8438 24.8675 6.60404 24.8434 6.42966 24.9092C6.30578 24.9559 6.12947 25.1278 6.07488 25.2551C5.97392 25.4904 6.01444 25.6198 6.35321 26.1438C6.56436 26.4704 6.59172 26.5848 6.48433 26.6922C6.35557 26.821 6.16204 26.7588 5.93917 26.5169C5.79488 26.3604 5.83847 26.0698 5.83847 26.0698L5.51359 25.7492C5.51359 25.7492 5.44566 25.8555 5.43395 25.8963C5.3472 26.1983 5.37762 26.4986 5.6846 26.8165C5.99955 27.1427 6.33901 27.251 6.63062 27.1185V27.1185ZM22.8345 26.515L22.8841 26.3225L23.0784 26.3707L23.3377 26.2144L22.8995 26.0425L22.6242 26.2131L22.6085 26.664L22.8345 26.515ZM17.8731 26.4674C18.8471 26.3383 19.3899 26.1892 20.0748 25.8624C21.0957 25.3754 22.0116 24.6745 22.8752 23.7193C23.3529 23.1911 23.4166 23.1114 23.6712 22.7256C24.0456 22.158 24.3978 21.3237 24.7162 20.2499C25.0301 19.1914 25.1392 17.8527 25.0297 16.4023C24.965 15.5446 24.9199 15.2316 24.7635 14.5541C24.6426 14.0306 24.1891 12.6581 24.1891 12.6581L24.1032 12.9801C23.8483 13.9352 23.6669 15.3124 23.4341 16.0912C23.3041 16.5265 23.0366 17.2096 22.8542 17.5724C22.5494 18.1788 21.9672 19.117 21.5853 19.6171C21.1364 20.205 20.1446 21.1051 20.1446 21.1051C20.6582 20.0902 21.2501 18.9856 21.6499 17.9868C21.9837 17.1443 22.314 15.8107 22.4358 14.8138C22.5063 14.2361 22.5049 12.7886 22.4331 12.2065C22.3086 11.1968 21.9695 9.86187 21.5249 8.63111C21.1794 7.67481 20.3936 5.97868 19.4871 4.80144L19.0271 4.20417C19.1989 5.61119 19.3026 7.12299 19.3224 8.30656C19.3475 9.98874 19.2863 10.7633 19.0248 12.0713C18.7398 13.4963 18.4331 14.3763 17.7353 15.7712C17.4206 16.4002 16.5625 17.8874 15.7782 19.1627C15.1255 20.2241 14.7297 21.3547 14.5339 22.7165C14.3993 23.6527 14.358 24.2672 14.3552 25.3767L14.3525 26.4465L14.4823 26.4718C14.8232 26.5383 15.25 26.5567 16.2506 26.5479C17.144 26.5401 17.433 26.5258 17.873 26.4674L17.8731 26.4674ZM14.4417 21.1262C14.8239 19.9833 15.166 19.3213 16.2031 17.7185C16.8042 16.7895 17.065 16.327 17.4239 15.5533C17.6835 14.9937 18.1313 13.8988 18.2593 13.5108L18.3304 13.295L18.1841 12.9524C17.7627 11.9655 17.3808 10.492 17.1778 9.06925C17.0228 7.98349 16.988 7.4483 17.0078 6.45663C17.0323 5.22711 17.1189 4.60097 17.486 3.00088C17.574 2.61748 17.6585 2.27316 17.646 2.27876C16.7312 2.69707 15.8238 3.23856 15.0665 3.90019C14.1766 4.69636 13.2043 6.08317 12.7625 7.18627C12.2309 8.51355 12.0525 9.92641 12.1743 11.8441C12.2474 12.9955 12.3372 13.4368 12.9035 15.4304C13.2221 16.5518 13.3424 17.0537 13.3943 17.4782C13.4235 17.7163 13.419 17.8129 13.3636 18.1367C13.3263 18.3552 13.2637 18.5904 13.2161 18.6911C13.0962 18.9445 12.811 19.1946 12.4279 19.3821C12.1427 19.5218 12.0929 19.5358 11.8867 19.5348C11.4553 19.5326 11.149 19.3006 10.6977 18.6346C10.554 18.4224 10.3965 18.2026 10.3477 18.146C10.299 18.0893 10.1892 17.9335 10.1038 17.7996C10.0184 17.6657 9.81516 17.4239 9.65218 17.2622C9.20899 16.8225 8.78325 16.6343 8.31622 16.6718C8.15843 16.6845 7.96314 16.7547 7.34215 17.022C6.91496 17.2058 6.55233 17.3676 6.53631 17.3815C6.52028 17.3954 6.58474 17.4915 6.67955 17.5951C7.1829 18.1449 7.38191 18.7124 7.60487 20.2337C7.71952 21.016 7.79385 21.3153 7.99985 21.824C8.33926 22.6622 8.7332 23.337 9.20433 23.8871C9.53484 24.273 10.2816 24.9527 10.6188 25.1744C11.1334 25.5128 11.7896 25.7965 12.5845 26.0243C13.0468 26.1568 13.7971 26.2932 13.7971 26.2932C13.8549 24.389 13.9752 22.5306 14.4417 21.1262ZM27.7044 25.2257L26.5587 24.4017L28.2896 24.4766L28.5156 24.1427L26.7768 22.9003L26.5448 23.2124L27.8073 24.12L25.9683 23.976L25.7627 24.2572L27.4773 25.5222L27.7044 25.2257ZM5.99359 23.864L5.78485 23.5875L4.05083 24.8805L4.27631 25.173L5.99359 23.864ZM4.21958 24.1896C4.59292 24.1115 5.04214 23.7946 5.18959 23.5055C5.38929 23.114 5.30296 22.6525 4.9641 22.3001C4.76371 22.0917 4.60214 22.0125 4.33908 21.9936C3.871 21.96 3.29851 22.2946 3.07442 22.7327C2.96223 22.9521 2.96808 23.2993 3.08833 23.5603C3.26169 23.9366 3.62293 24.2059 3.97622 24.2223C4.01549 24.2242 4.125 24.2095 4.21957 24.1896H4.21958ZM3.72663 23.7005C3.34745 23.5047 3.30162 23.0778 3.62599 22.763C3.9997 22.4004 4.4813 22.3383 4.72922 22.6207C5.01967 22.9516 4.86226 23.3956 4.36563 23.6464C4.10025 23.7804 3.91214 23.7963 3.72663 23.7005ZM2.81527 24.1477L3.07707 23.9672L2.91037 23.6982L2.64403 23.868L2.81527 24.1477ZM28.9551 23.4271L28.6412 23.0908L29.0151 22.4019L29.4724 22.4525L29.6875 22.0602L27.4679 21.7295L27.2214 22.1971L28.7265 23.836L28.9551 23.4271ZM27.829 22.2005L28.596 22.2919L28.3274 22.7757L27.829 22.2005ZM5.71778 22.404L5.42416 21.943L4.89984 21.9553L5.09244 22.2415L5.42146 22.2538L5.30553 22.5478L5.49027 22.8449L5.71778 22.404ZM4.45743 21.4728L4.28406 21.0745L3.54315 21.3923L3.25909 20.6725L3.95593 20.3863L3.77283 19.9338L1.83262 20.7218L1.97392 21.1633L2.85903 20.8292L3.15411 21.5572L2.29247 21.9185L2.45252 22.3573L4.45743 21.4728ZM29.9668 21.3561L28.5539 20.8517L30.1077 20.9552L30.2067 20.5826L28.9183 19.7099L30.3754 20.1269L30.4833 19.751L28.4451 19.1267L28.2855 19.6532L29.5928 20.5907L27.9906 20.4537L27.8217 20.9798L29.8457 21.7414L29.9668 21.3561ZM8.56912 12.607L9.91988 13.3208L9.66576 11.8504L10.8322 10.7568L9.2638 10.5491L8.57364 9.20872L7.9073 10.5445L6.42629 10.7717L7.49747 11.8157L7.19685 13.3208L8.56912 12.607Z" fill="#0392DE"/>
</g>
<defs>
<clipPath id="clip0_45_725">
<rect width="32" height="32" fill="white"/>
</clipPath>
</defs>
</svg>
