<svg width="80" height="108" viewBox="0 0 80 108" fill="none" xmlns="http://www.w3.org/2000/svg">
<g clip-path="url(#clip0_183_2105)">
<path d="M18.918 74.3751C18.9437 73.6519 19.1612 72.9588 19.2526 72.2446C19.2616 72.2368 19.2705 72.2245 19.2805 72.2156C19.4147 72.089 19.5203 71.9352 19.5904 71.7646C19.6605 71.5939 19.6935 71.4103 19.687 71.2259C19.6806 71.0415 19.6349 70.8605 19.5531 70.6952C19.4713 70.5298 19.3551 70.3839 19.2125 70.267C19.0577 69.9525 18.921 69.6294 18.8032 69.2994C18.608 68.6587 17.6399 68.9467 17.6956 69.5728C17.7217 69.8311 17.7691 70.0868 17.8373 70.3373C17.365 70.6329 16.974 71.0418 16.6996 71.527C16.3461 71.3752 15.8732 71.4533 15.6746 71.9086C15.209 72.9338 14.9079 74.0261 14.7824 75.1451C14.7233 75.7344 14.7824 76.3594 14.8381 76.9453C14.8939 77.5312 15.2274 78.0803 15.233 78.6428C15.2408 79.2644 15.8743 79.5356 16.3093 79.385C16.9484 80.1115 17.9979 80.4865 18.8522 79.876C18.907 79.8354 18.9558 79.7873 18.9972 79.7332C19.711 79.8727 20.4605 80.0044 21.152 80.3068C21.8436 80.6092 22.3901 80.2242 22.6131 79.6997C22.8362 79.1751 22.7325 78.5089 22.0555 78.2176C22.8362 78.5669 22.167 77.1864 22.0042 76.8025C21.7554 76.1931 21.2045 75.798 20.61 75.586C19.7668 75.2768 18.8723 75.6284 18.918 74.3751Z" fill="#A59BB3"/>
<path d="M55.7872 70.2257C55.672 70.0593 55.5184 69.9231 55.3394 69.8287C55.1603 69.7343 54.9612 69.6844 54.7589 69.6833C54.7589 69.5952 54.7589 69.5092 54.7589 69.4177C54.7466 69.0293 54.3128 68.6622 53.9559 68.9802C52.7569 70.0438 52.7859 71.3965 53.0547 72.8719C53.3971 74.7535 50.776 76.3316 49.8202 77.711C49.7095 77.866 49.6411 78.0473 49.6218 78.2368C49.6026 78.4264 49.6331 78.6177 49.7104 78.7919C49.7876 78.966 49.909 79.117 50.0625 79.2298C50.2159 79.3427 50.3961 79.4135 50.5853 79.4353C52.942 79.779 55.4314 80.3816 57.0186 78.1317C58.7763 75.634 57.3743 72.3741 55.7872 70.2257Z" fill="#A59BB3"/>
<path d="M45.3602 99.4678C43.9438 99.5437 42.3823 99.5291 40.9904 99.8617C40.5933 99.9566 40.3937 100.601 40.7383 100.924C40.9818 101.153 41.26 101.341 41.5625 101.482C41.5147 101.621 41.4866 101.766 41.4789 101.913C41.3674 104.104 43.4653 107.815 45.542 106.786C47.3132 105.91 46.6239 102.321 46.4878 100.549C46.4321 99.8137 45.9068 99.4399 45.3602 99.4678Z" fill="#A59BB3"/>
<path d="M29.492 98.5192C28.148 98.0147 26.7896 98.7803 25.4768 97.988C24.8645 97.6174 24.444 98.5928 24.7965 99.3361C25.0013 99.8109 25.3481 100.21 25.7891 100.48C25.1511 102.592 25.2314 105.591 27.1275 106.464C29.1541 107.396 29.9158 102.43 30.3207 100.522C30.5192 99.5995 30.14 98.7625 29.492 98.5192Z" fill="#A59BB3"/>
<path d="M22.4423 77.6247C22.3765 77.1348 22.1512 76.6616 21.9114 76.204C21.8596 76.0979 21.7835 76.0055 21.6893 75.9343C21.5951 75.8632 21.4855 75.8152 21.3693 75.7944C21.1585 75.4362 20.5708 75.733 20.6466 76.0924C20.5858 76.186 20.5482 76.2927 20.537 76.4037C20.5257 76.5148 20.5411 76.6269 20.5819 76.7308C21.3704 79.0521 18.0914 79.6012 16.5377 79.0878C16.0269 78.9193 15.6889 79.6525 16.2031 79.8691C17.6854 80.494 19.2491 80.6235 20.7994 80.1726C20.9529 80.1248 21.0987 80.0548 21.2321 79.965C21.3133 80.029 21.4045 80.0792 21.5021 80.1135C21.8032 80.2161 22.1824 80.157 22.3809 79.8981C22.9386 80.1592 23.8744 80.2184 23.4561 79.5209C23.0078 78.7731 22.6955 78.0443 22.4423 77.6247Z" fill="#897E9B"/>
<path d="M19.4241 75.4005C19.5423 75.3771 19.6795 75.2889 19.684 75.1517C19.6985 74.7343 19.4085 74.5289 19.3248 74.1372C19.2133 73.6205 19.404 73.039 19.5211 72.539C19.7029 71.7667 20.0788 70.3895 19.2568 69.8605C19.2179 69.8324 19.1726 69.8146 19.125 69.8088C19.0775 69.8029 19.0292 69.8092 18.9847 69.827C18.9401 69.8448 18.9008 69.8736 18.8704 69.9107C18.84 69.9478 18.8195 69.9919 18.8107 70.0391C18.7281 70.5536 18.872 71.0558 18.7839 71.5826C18.6813 72.193 18.4616 72.779 18.3512 73.3894C18.2229 74.0613 18.4214 75.6048 19.4241 75.4005Z" fill="#897E9B"/>
<path d="M57.838 75.999C57.8826 75.8081 57.6885 75.6642 57.5123 75.6642C57.6863 74.0805 57.1588 72.2402 56.3524 71.0572C56.1628 70.7782 55.7334 71.0047 55.7802 71.3105C55.952 72.4466 56.1572 73.5928 56.146 74.7446C56.1338 76.0269 55.343 77.0581 54.6281 78.0569C54.1429 78.1384 53.66 78.202 53.1714 78.2444C52.5825 78.1652 51.987 77.9029 51.7215 77.3795C51.5274 77.0034 51.9022 76.0648 52.0104 75.6988C52.0398 75.6155 52.0439 75.5253 52.022 75.4397C52.0002 75.3541 51.9535 75.2769 51.8879 75.2179C51.8222 75.1589 51.7405 75.1207 51.6531 75.1081C51.5657 75.0956 51.4766 75.1093 51.3969 75.1474C51.3419 75.1615 51.2905 75.1874 51.2464 75.2233C51.1544 75.2079 51.06 75.2177 50.9732 75.2517C50.8864 75.2857 50.8104 75.3426 50.7534 75.4164C50.7534 75.4231 50.6608 75.4253 50.6564 75.4331C49.9626 76.7467 49.5165 78.0302 48.7246 79.2277C48.7681 79.6607 49.222 79.923 49.6515 79.6439C49.7711 79.5637 49.8831 79.4725 49.9861 79.3716C51.2497 80.3493 53.6834 79.8917 54.9928 79.5256C56.9781 78.9766 57.4052 77.8516 57.838 75.999Z" fill="#897E9B"/>
<path d="M30.5794 98.1576C29.609 98.1506 28.6439 98.014 27.7096 97.7514C26.8006 97.5058 26.1114 97.546 25.2202 97.6398C24.7429 97.6889 24.7741 98.7804 25.2559 98.8674C26.185 99.0426 27.1118 99.5504 28.0442 99.9265C29.7775 101.011 27.2289 104.328 26.7605 105.452C26.4259 106.268 27.0951 107.321 27.6528 106.721C28.5584 105.744 29.3838 103.851 29.7407 102.295C29.8801 101.69 30.2771 101.722 30.1366 101.087C30.4913 101.104 30.4712 100.337 30.8292 100.21C31.6958 99.8997 31.5029 98.161 30.5794 98.1576Z" fill="#897E9B"/>
<path d="M45.7799 100.437C45.8914 100.389 46.003 100.337 46.1078 100.282C46.8528 99.8877 46.5662 98.5105 45.7732 98.6243C44.8898 98.7505 44.0422 98.9591 43.1488 98.9937C42.1718 99.0261 41.1078 98.8821 40.1541 99.1924C39.766 99.3174 39.563 100.044 40.0192 100.248C40.8488 100.598 41.7315 100.806 42.6302 100.863C42.6725 100.906 42.7234 100.94 42.7796 100.961C43.7321 101.318 44.9133 101.084 45.0861 102.655C45.147 103.286 45.147 103.922 45.0861 104.553C45.0281 105.245 44.7515 105.799 44.6222 106.459C44.4738 107.231 45.2267 107.575 45.6773 107.225C46.8194 106.332 46.9409 103.036 46.468 101.673C46.3182 101.222 46.0847 100.802 45.7799 100.437Z" fill="#897E9B"/>
<path d="M17.8916 69.6361C16.8421 71.2432 15.7446 72.7968 15.2148 74.6583C14.6738 76.5634 15.5014 78.089 16.2509 79.7921C16.493 80.3434 17.3373 80.0153 17.1198 79.4472C16.4327 77.6615 15.8226 76.3636 16.3926 74.4128C16.8476 72.8503 18.3176 71.0423 19.0627 69.6138C19.3382 69.0915 18.2184 69.1362 17.8916 69.6361Z" fill="#BCB5C6"/>
<path d="M57.4242 72.2712C56.8866 71.49 56.0858 70.8572 55.3921 70.1597C55.4054 70.1095 55.4144 70.0704 55.4199 70.0481L55.4657 69.9242C55.6095 69.5358 55.2705 68.9968 54.8143 69.1184C54.7351 69.1408 54.6571 69.1597 54.5812 69.1787C54.5455 69.1218 54.5187 69.0604 54.4853 69.0024C54.6504 68.5147 53.9979 68.2725 53.6756 68.6062C53.1848 69.1151 53.1748 70.057 53.1536 70.7177C53.1401 71.1952 53.1692 71.6728 53.2406 72.1451C53.3019 72.5592 53.535 72.9263 53.5941 73.3315C53.6059 73.4041 53.6412 73.4708 53.6947 73.5213C53.7481 73.5717 53.8167 73.6032 53.8898 73.6109C53.9629 73.6185 54.0364 73.6018 54.0991 73.5634C54.1618 73.525 54.2101 73.467 54.2366 73.3984C54.4016 72.952 54.4128 72.4766 54.4306 72.0023C54.439 71.7381 54.4658 71.4748 54.5109 71.2143C54.5109 71.201 54.5109 71.1853 54.5109 71.1708C54.6614 71.0903 54.7984 70.9868 54.9169 70.8639C55.1155 71.1016 55.3285 71.336 55.5582 71.5782C55.827 71.8616 56.9859 73.6127 57.4309 72.8426C57.4895 72.7586 57.5204 72.6583 57.5192 72.5559C57.518 72.4534 57.4848 72.3539 57.4242 72.2712Z" fill="#BCB5C6"/>
<path d="M26.3985 98.3563C26.3115 97.8429 25.8821 97.7603 25.7293 98.2022C25.2943 99.4756 25.3602 101.308 25.4103 102.746C25.4639 104.299 25.6925 106.102 26.5837 107.191C27.157 107.892 27.7369 106.66 27.2138 105.942C25.8754 104.099 26.78 100.572 26.3985 98.3563Z" fill="#BCB5C6"/>
<path d="M45.7566 105.735C45.3528 105.501 44.9613 105.447 44.591 105.108C44.0858 104.645 43.6988 103.992 43.3396 103.358C42.7106 102.242 42.2421 101.024 41.7614 99.8028C41.6153 99.4311 41.148 99.5628 41.1792 99.9992C41.2997 101.69 41.9131 103.362 42.6024 104.798C43.1534 105.944 44.4594 107.862 45.7253 107.13C46.215 106.843 46.2406 106.015 45.7566 105.735Z" fill="#BCB5C6"/>
<path d="M24.5631 79.8972C23.4656 79.3927 21.9388 79.8503 20.7777 79.9563C19.3958 80.0813 17.8488 80.1862 16.6175 79.434C15.0103 78.4519 15.2144 75.7946 15.5602 74.2545C16.0721 71.9722 17.6637 70.4901 19.1225 68.7982C19.4516 68.4165 19.0411 67.8451 18.5794 68.094C15.046 70.0024 12.4138 76.1819 15.1218 79.6907C16.0966 80.9563 17.7139 81.2453 19.2207 81.2643C20.1832 81.2766 21.148 81.1527 22.1027 81.05C22.9136 80.963 23.8292 81.0199 24.5687 80.646C24.8442 80.5076 24.8598 80.0311 24.5687 79.8972H24.5631Z" fill="#851919"/>
<path d="M18.0212 69.663C18.7863 69.2378 19.4076 68.6831 19.8058 69.7947C20.0288 70.4297 19.6262 71.3147 19.4533 71.9263C19.2158 72.7689 19.0295 73.8146 19.1187 74.6963C19.1371 74.9202 19.223 75.1332 19.365 75.3071C19.507 75.4811 19.6984 75.6079 19.9139 75.6706C20.6846 75.9317 21.607 76.2621 22.4123 76.2811C22.7357 76.2889 22.9633 75.8347 22.6911 75.6114C22.0933 75.1204 21.3327 74.9787 20.5932 74.79C19.9976 74.6383 20.1192 74.5367 20.1794 73.8972C20.3701 71.8783 21.6461 69.8136 19.8102 68.2166C19.7395 68.1491 19.6491 68.106 19.5522 68.0936C19.4553 68.0811 19.357 68.1 19.2715 68.1474C18.6837 68.4554 18.1038 68.6865 17.613 69.1429C17.3264 69.4096 17.6933 69.8549 18.0223 69.673L18.0212 69.663Z" fill="#851919"/>
<path d="M25.0797 96.459C24.5376 98.7413 24.4495 101.238 24.5454 103.574C24.6112 105.182 24.8722 107.675 26.959 107.743C28.8082 107.803 29.8254 105.083 30.353 103.738C31.1259 101.768 31.7895 99.5169 31.9144 97.3909C31.9501 96.7458 30.885 96.5907 30.779 97.2369C30.5296 98.8204 30.1779 100.386 29.7262 101.924C29.2856 103.386 28.6632 105.712 27.2122 106.51C25.6775 107.355 25.6719 103.025 25.6663 102.436C25.6463 100.477 25.9363 98.537 25.9753 96.5818C25.9842 96.0728 25.2035 95.9612 25.083 96.4612L25.0797 96.459Z" fill="#851919"/>
<path d="M48.4015 80.0945C49.0852 80.4193 49.8637 80.3835 50.6065 80.4539C51.5702 80.5454 52.5294 80.6503 53.4975 80.6704C55.0667 80.7038 56.8357 80.3958 57.8417 79.0677C60.6902 75.3056 57.1814 68.6373 53.5209 66.7233C53.4268 66.6612 53.3128 66.6369 53.2016 66.6555C53.0905 66.6741 52.9905 66.734 52.9217 66.8233C52.8529 66.9127 52.8205 67.0247 52.8309 67.137C52.8413 67.2493 52.8937 67.3535 52.9777 67.4286C54.5147 69.202 56.1007 70.7165 57.0097 72.9508C57.709 74.6773 58.0302 77.2129 56.5635 78.6425C55.553 79.6269 53.7328 79.4751 52.4524 79.3925C51.2032 79.3133 49.5793 78.8099 48.4004 79.3423C48.1126 79.4729 48.1205 79.9595 48.4004 80.0923L48.4015 80.0945Z" fill="#851919"/>
<path d="M55.2642 68.5292C54.7712 68.0827 54.189 67.8495 53.6001 67.5459C53.5146 67.4986 53.4161 67.48 53.3192 67.4926C53.2223 67.5053 53.132 67.5486 53.0614 67.6162C51.2858 69.1854 52.4669 71.0971 52.7079 73.0625C52.7636 73.5201 52.9822 74.0133 52.4848 74.1607C51.7041 74.3928 50.8787 74.5055 50.2396 75.039C49.9719 75.2622 50.1928 75.7242 50.5196 75.7086C51.3003 75.684 52.1357 75.3459 52.8952 75.1193C53.3414 74.9854 53.6871 74.7109 53.7875 74.2388C53.9503 73.4576 53.7072 72.4397 53.5399 71.6719C53.3893 70.9867 53.0938 70.3405 53.0346 69.6363C53.0179 69.4499 53.2354 68.3439 53.5923 68.4443C54.0384 68.5682 54.4533 68.8305 54.856 69.0503C55.1839 69.2289 55.5553 68.7858 55.2642 68.5202V68.5292Z" fill="#851919"/>
<path d="M45.6434 98.2738C45.6924 99.3508 46.9316 107.752 44.5938 106.756C43.2175 106.165 42.4792 103.988 42.0007 102.72C41.5016 101.363 41.1111 99.9692 40.8329 98.5506C40.7013 97.9156 39.6406 98.054 39.6975 98.7046C39.8592 100.575 40.582 102.463 41.3136 104.173C41.9126 105.573 42.9866 107.833 44.7544 107.989C46.6784 108.16 47.0821 106.14 47.1814 104.653C47.3219 102.554 47.1201 100.178 46.5334 98.1522C46.394 97.6701 45.6199 97.7504 45.6411 98.2727L45.6434 98.2738Z" fill="#851919"/>
<path d="M59.6858 16.5253C45.9171 1.03922 13.926 3.30254 6.22239 26.9379C2.56745 38.1585 4.96765 48.1772 16.3541 61.1913C18.1196 63.2113 19.0309 66.2927 19.8629 70.509H19.9198C20.4395 72.2947 21.3374 74.0324 22.6814 74.6573C24.6711 75.4865 47.7128 74.8805 49.3779 74.4922C51.0632 74.0982 52.0626 72.5949 52.7897 70.432H52.9426C54.3512 63.6387 56.2183 59.8431 58.9118 56.6111C65.7655 48.3859 73.3877 31.9389 59.6858 16.5253Z" fill="#FDC157"/>
<path d="M66.3252 30.8585C65.9137 28.5461 65.0772 26.3453 64.0879 24.2259C63.4086 22.7751 62.5164 21.0307 61.2884 19.8343C60.7393 18.8328 60.1303 17.8653 59.4648 16.9371C58.3941 15.4572 57.1226 14.2965 55.6917 13.1839C54.6221 12.3524 53.3617 11.7877 52.1337 11.175C50.9667 10.0782 49.6848 9.11057 48.3104 8.28892C47.7962 7.98201 47.3066 8.66949 47.6903 9.09247C51.9843 13.8401 55.3861 19.187 57.4728 25.0864C58.0673 27.665 58.4072 30.2959 58.4878 32.941C58.6562 38.4933 57.0234 43.6762 54.7247 48.6771C52.426 53.6781 49.6655 58.4647 47.688 63.6208C47.0289 65.3373 46.5816 67.1196 45.6804 68.7032C44.7703 69.9309 43.5078 70.7969 42.1348 71.481C41.5202 71.7868 40.8131 72.1127 40.0647 72.3973C39.4335 72.4442 38.8078 72.4743 38.1943 72.4966C35.1338 72.6082 32.0767 72.4252 29.0252 72.2042C26.5859 72.0279 23.7363 71.8159 21.3762 72.5792C21.2638 72.6154 21.1658 72.6863 21.0963 72.7818C21.0267 72.8772 20.9893 72.9923 20.9893 73.1105C20.9893 73.2286 21.0267 73.3437 21.0963 73.4391C21.1658 73.5346 21.2638 73.6055 21.3762 73.6417C24.0173 74.5256 27.0075 74.8124 29.7669 75.0758C33.066 75.3905 36.3864 75.645 39.7 75.4541C41.5649 75.3425 43.4397 75.0903 45.231 74.5613C46.2348 75.3492 47.1984 75.3024 48.0795 74.7633C48.2719 74.9055 48.5001 74.9913 48.7384 75.0111C48.9768 75.0308 49.216 74.9836 49.4291 74.8749C51.392 73.9185 52.1215 71.7355 52.2877 69.6597C52.8621 68.691 53.1431 67.6508 52.8398 66.6464C52.8754 66.5482 52.9089 66.4555 52.939 66.3685C53.8547 65.2781 54.5462 63.8563 55.2087 62.7202C56.4044 60.6678 57.5933 58.6154 58.8302 56.582C61.2627 52.5933 63.6027 48.5666 65.211 44.1639C66.7937 39.847 67.1283 35.3851 66.3252 30.8585Z" fill="#F2990A"/>
<path d="M44.4081 8.31676C39.5787 6.11147 33.2715 6.6003 28.286 7.96186C27.2784 8.23668 26.2859 8.56413 25.3125 8.94285C25.1931 8.87886 25.0534 8.86404 24.9233 8.90156C20.1608 10.0176 16.4133 12.4427 13.1007 16.0029C10.0894 19.2394 7.2486 23.4803 6.42883 27.9177C5.94478 29.1542 5.52132 30.4191 5.15847 31.7122C4.36212 34.5346 3.99964 37.5602 4.47589 40.4764C4.8841 42.9808 5.86113 46.3244 7.736 48.2775C8.35947 50.562 9.35658 53.1066 10.9838 54.6155C11.1322 54.8442 11.2839 55.0708 11.4367 55.294C13.6841 58.5651 16.3676 61.5204 18.3874 64.9488C19.3912 66.6586 20.1541 68.5826 20.714 70.4788C21.149 71.9531 21.4602 73.1461 22.4985 74.3481C22.6368 74.5088 22.9213 74.2923 22.7941 74.1249C21.5728 72.472 22.348 70.7399 22.1249 68.8628C21.9317 67.2217 21.4666 65.6244 20.7486 64.1364C19.1291 60.6856 16.5215 57.8285 14.2841 54.7884C12.6295 52.5208 11.2397 50.0712 10.1418 47.4873C9.93209 46.7385 9.75141 45.9818 9.58411 45.2263C8.75988 41.4083 8.73088 37.4631 9.17143 33.5972C9.18482 33.4766 9.20489 33.3583 9.22051 33.2389C9.62766 32.8619 10.1481 32.6304 10.7006 32.5805C12.8755 34.1117 15.7318 33.5191 18.0194 32.1441C20.192 30.8383 21.7948 28.5371 22.9358 26.3273C24.5686 23.1611 25.6639 17.8455 21.3431 16.2674C20.7296 16.0438 20.0881 15.9067 19.437 15.86C19.3673 15.6126 19.3509 15.3531 19.389 15.0989C22.288 12.9877 25.5043 11.3516 28.9173 10.252C31.3331 9.47074 33.8247 9.06673 36.3365 8.73304C39.0077 8.37925 41.6231 8.75201 44.2944 8.73973C44.5063 8.73862 44.6223 8.41385 44.4081 8.31676Z" fill="#FFDC7B"/>
<path d="M48.3003 82.1236C48.1308 82.137 47.9601 82.1537 47.7906 82.1694C47.8464 81.0935 48.0014 80.0288 47.9981 78.9585L48.8803 78.8882C51.6173 77.8927 50.9537 74.8236 48.3003 75.0725C46.8168 75.1965 45.3418 75.4063 43.8825 75.7008C42.3801 75.6752 40.8767 75.635 39.3732 75.6417C37.8697 75.6484 36.3618 75.6874 34.8383 75.6874C34.2806 75.0401 33.3883 75.1294 32.8028 75.6562C32.6355 75.6562 32.4682 75.6461 32.2998 75.6383C32.0538 75.443 31.7544 75.327 31.4411 75.3056C31.1278 75.2843 30.8155 75.3587 30.5453 75.5189C29.3117 75.4118 28.0879 75.2107 26.8848 74.9174C26.2368 74.7544 25.2542 74.5915 24.5192 74.8504C24.034 74.7712 23.5366 74.9899 23.4117 75.6316C23.1674 76.8972 23.2254 78.1304 23.3057 79.4105C23.3175 79.6801 23.4201 79.9377 23.5968 80.1415C22.8641 80.377 22.1982 80.665 21.6885 81.0411L21.7822 81.0332C20.7996 82.031 21.1699 83.5443 22.4346 83.8613C22.6031 83.9037 22.9209 83.9048 23.3581 83.8736C23.4418 84.8233 23.6392 85.7563 23.8154 86.6927C23.8154 86.8366 23.8154 86.9817 23.8154 87.1268C23.0001 87.3734 22.254 87.6848 21.6963 88.0922L21.79 88.0844C20.8074 89.0888 21.1777 90.5965 22.4425 90.9135C22.6655 90.9704 23.1708 90.9537 23.8757 90.8789C23.8924 91.2316 23.9047 91.5842 23.927 91.9369C23.9514 92.2867 24.0748 92.6223 24.2828 92.9045C23.3425 93.2583 22.9577 93.727 23.4373 94.3498C23.9615 95.0283 24.9765 96.1611 25.8777 97.1622C28.4552 99.6688 30.7093 100.91 31.6462 101.121C32.8887 101.329 38.3605 101.329 39.7703 101.19C43.2523 100.771 46.5682 97.42 48.3092 94.977C49.2015 93.7304 48.6204 93.0116 47.4683 92.5942C47.4242 92.472 47.374 92.352 47.3177 92.2349C47.8062 91.8755 48.0605 91.2104 47.9635 90.5262C47.7516 89.0374 47.852 87.5252 47.8743 86.0163L48.8892 85.936C51.6173 84.9438 50.9559 81.8747 48.3003 82.1236Z" fill="#A59BB3"/>
<path d="M27.159 98.6119C26.8333 98.238 26.3693 97.7191 25.8685 97.1611L25.7637 97.0562L27.159 98.6119Z" fill="#A59BB3"/>
<path d="M25.7633 97.0617L23.2627 94.2839C24.0396 95.2593 24.8747 96.187 25.7633 97.0617Z" fill="#A59BB3"/>
<path d="M39.3462 101.756L32.217 101.838C31.8835 104.743 39.2637 105.49 39.3462 101.756Z" fill="#A59BB3"/>
<path d="M49.1714 82.2876C49.068 82.2604 48.9615 82.2472 48.8546 82.2486C48.7131 82.1562 48.5521 82.0981 48.3843 82.0787C48.2164 82.0593 48.0464 82.0793 47.8876 82.137C45.9681 82.7419 43.8278 82.7653 42.2362 83.8233C42.2028 83.7519 42.1693 83.6782 42.1247 83.6068C42.0848 83.5408 42.0318 83.4836 41.969 83.4388C41.9063 83.3939 41.8351 83.3623 41.7597 83.3459C41.6844 83.3295 41.6065 83.3287 41.5308 83.3434C41.4551 83.3581 41.3832 83.3881 41.3194 83.4316C41.1376 83.3367 40.8577 83.4059 40.8097 83.6347C40.6568 84.3837 40.3386 85.0891 39.8784 85.6993C39.8231 85.7685 39.761 85.832 39.6933 85.8891C34.1579 87.1055 28.3035 87.8053 23.1719 90.3052C22.6856 90.5429 23.0447 91.2304 23.5221 91.1344C24.7188 90.8934 25.9189 90.6746 27.1212 90.4648C26.1388 90.7216 25.1882 91.0877 24.2872 91.5563C23.7295 91.8498 24.1188 92.7092 24.7066 92.5518C27.0822 91.9145 29.6285 91.784 32.0756 91.6657C32.9544 91.6233 33.8289 91.515 34.6999 91.39C34.8104 91.4122 34.9241 91.4122 35.0345 91.39C35.523 91.2933 36.0119 91.2133 36.5012 91.1501C36.548 91.467 36.7789 91.7505 37.1704 91.7282C37.3689 91.7159 37.5674 91.707 37.766 91.698C37.8134 91.8049 37.8938 91.8939 37.9953 91.9519C38.0968 92.0099 38.2142 92.034 38.3303 92.0206C40.667 91.8487 39.2761 94.8017 38.6761 95.9423C38.089 97.0538 37.3684 98.0894 36.5302 99.0259C35.7127 99.9332 34.8304 100.124 33.7419 100.524C33.086 100.765 33.1095 101.584 33.7419 101.834C34.1861 101.998 34.6704 102.021 35.1282 101.9C35.1715 102.009 35.2472 102.102 35.3451 102.167C35.443 102.232 35.5585 102.265 35.6758 102.262C35.8621 102.248 36.0495 102.257 36.2335 102.289C36.2989 102.301 36.3637 102.316 36.4276 102.335C36.4042 102.335 36.5391 102.394 36.5949 102.424C36.5949 102.442 36.6551 102.536 36.6629 102.511C36.6718 102.56 36.6808 102.623 36.683 102.623C36.6771 102.793 36.7017 102.963 36.7555 103.124C36.886 103.447 37.0745 103.7 37.4247 103.794C37.6296 103.849 37.8471 103.835 38.0434 103.755C38.2398 103.674 38.4041 103.531 38.511 103.347C38.8992 102.625 38.6359 101.736 38.0972 101.151C40.2777 101.047 42.6366 100.185 44.4658 99.1364C46.3373 98.0639 48.636 95.5171 47.6121 93.1969C47.4812 92.9022 47.2936 92.6361 47.0599 92.414C46.8263 92.1919 46.5512 92.018 46.2503 91.9023C46.3618 91.9335 46.4823 91.9625 46.5972 91.9949C47.5229 92.2527 48.1854 91.5485 48.2981 90.6981C48.4185 89.7863 48.3371 88.9827 47.9635 88.168C48.5724 87.5319 48.3605 86.5553 47.8129 86.0967C49.0398 85.5252 50.29 84.6525 50.0357 83.1447C49.9521 82.7307 49.5472 82.3992 49.1714 82.2876ZM43.2144 96.4847C43.2389 96.4959 43.2657 96.5026 43.2913 96.5115C43.1519 96.603 43.0092 96.6878 42.8642 96.7693C42.979 96.6722 43.0962 96.5773 43.2144 96.4847ZM36.644 102.457L36.6529 102.466C36.6509 102.462 36.6478 102.459 36.644 102.457ZM36.6283 102.443L36.6373 102.449H36.6428L36.6283 102.443ZM42.1537 92.2516C41.9086 92.3821 41.6776 92.5377 41.4644 92.7159C41.4112 92.2728 41.2633 91.8465 41.0306 91.4659L41.238 91.4391C41.76 91.3599 42.389 91.3409 42.9612 91.2159C43.7412 91.3282 44.516 91.4741 45.2855 91.6534C44.2057 91.5443 43.1175 91.7521 42.1537 92.2516Z" fill="#897E9B"/>
<path d="M41.3492 80.1046C39.4688 80.3088 37.6508 80.9516 35.8551 81.5141C32.1198 82.6848 28.0477 83.1 24.4274 84.5576C24.1887 84.3076 23.6667 84.3712 23.5887 84.7584C23.5351 85.0203 23.4846 85.283 23.437 85.5464C23.3767 85.8711 23.5228 86.2796 23.8909 86.3466C23.9969 86.3666 24.1017 86.3856 24.2077 86.4035C24.4887 86.4515 24.8345 86.3622 24.9962 86.1133C28.7114 85.8756 32.3574 85.1424 35.9164 84.0631C37.9117 83.4583 39.9015 82.7116 41.9861 82.4951C43.8375 82.302 45.6812 82.2797 47.4356 81.5856C48.6279 81.1135 48.4249 79.4338 47.4501 79.1939C48.1934 78.8052 48.9043 78.3573 49.5759 77.8546C50.6845 77.0254 50.0778 75.1572 48.5989 75.5333C46.6749 76.021 44.6952 76.1795 42.7601 76.5891C42.6876 76.4587 42.6052 76.3341 42.5136 76.2163C42.2448 75.8748 41.7451 76.1181 41.6213 76.4507C41.328 77.2721 41.6046 78.2107 41.1284 78.9707C40.8529 79.4182 41.0291 79.8512 41.3492 80.1046Z" fill="#897E9B"/>
<path d="M31.8901 78.0846C33.4432 78.0974 34.9948 77.9892 36.531 77.7609C37.6988 77.5902 39.3417 77.5868 39.877 76.3536C40.0756 75.8972 39.9785 75.4976 39.5748 75.2007C38.629 74.5077 37.4233 75.0512 36.3671 75.2342C34.8893 75.4898 33.3813 75.5378 31.8868 75.5925C29.0527 75.6963 26.2321 75.4608 23.398 75.6315C23.2483 75.6357 23.105 75.6929 22.9936 75.7931C22.8822 75.8932 22.81 76.0297 22.7899 76.1782C22.7698 76.3266 22.8031 76.4774 22.8838 76.6036C22.9646 76.7298 23.0875 76.8231 23.2307 76.867C26.0525 77.8257 28.9256 78.05 31.8901 78.0846Z" fill="#897E9B"/>
<path d="M23.5182 78.0957C23.5267 78.1777 23.5501 78.2575 23.5873 78.3312C23.5873 78.6827 23.6041 79.0175 23.8628 79.2943C23.8898 79.3215 23.9218 79.343 23.9571 79.3577C23.9925 79.3725 24.0303 79.38 24.0686 79.38C24.1068 79.38 24.1447 79.3725 24.18 79.3577C24.2154 79.343 24.2474 79.3215 24.2744 79.2943C24.3322 79.2274 24.3796 79.1522 24.4149 79.0711C24.4564 79.138 24.5022 79.2021 24.5521 79.2631C24.5997 79.3103 24.664 79.3368 24.7311 79.3368C24.7981 79.3368 24.8625 79.3103 24.9101 79.2631C25.683 78.3535 25.1499 76.9272 24.7896 75.944C24.7582 75.8559 24.7067 75.7763 24.6393 75.7116C24.5718 75.6469 24.4902 75.5987 24.4009 75.571C24.3117 75.5433 24.2172 75.5368 24.1249 75.5519C24.0327 75.567 23.9452 75.6035 23.8695 75.6583C23.7984 75.6684 23.7305 75.6945 23.671 75.7348C23.6115 75.775 23.5619 75.8282 23.526 75.8904C23.4712 75.9457 23.44 76.0201 23.439 76.098C23.427 76.4873 23.4464 76.8769 23.497 77.2631C23.4854 77.5408 23.4925 77.8189 23.5182 78.0957Z" fill="#BCB5C6"/>
<path d="M22.7376 83.3266C22.8616 83.3855 22.9991 83.4102 23.1358 83.398C23.2888 83.3846 23.4408 83.3615 23.5908 83.3288C23.5906 83.3322 23.5906 83.3355 23.5908 83.3389C23.979 84.0777 25.0051 83.8188 25.2449 83.1224C25.3977 82.676 25.3051 82.1994 25.4245 81.7418C25.5143 81.4595 25.6434 81.1912 25.8081 80.945L26.281 80.8222C28.9523 80.1147 31.648 79.6002 34.3728 79.1482C37.0418 78.7018 39.7264 78.3413 42.4032 77.9395C43.7315 77.7397 46.3336 77.7498 47.0797 76.3715C47.1198 76.3 47.1432 76.2204 47.1483 76.1386C47.1534 76.0568 47.14 75.975 47.1092 75.8991C47.0783 75.8232 47.0308 75.7552 46.9701 75.7002C46.9094 75.6452 46.8371 75.6046 46.7585 75.5813C45.129 75.0467 42.6798 75.9697 41.0402 76.223C37.9731 76.6951 34.9059 77.1326 31.8532 77.7163C30.9297 77.8915 27.5034 78.531 24.9114 79.6426C24.8295 79.6719 24.7497 79.7069 24.6727 79.7475C22.6473 80.6593 21.223 81.8769 22.1075 83.4081C22.1422 83.4659 22.193 83.5123 22.2537 83.5417C22.3144 83.571 22.3823 83.5821 22.4491 83.5734C22.516 83.5648 22.5789 83.5368 22.6301 83.493C22.6813 83.4492 22.7187 83.3913 22.7376 83.3266Z" fill="#BCB5C6"/>
<path d="M46.7799 82.1001C44.9173 81.9985 42.9766 82.753 41.2033 83.2552C39.2492 83.8132 37.3063 84.4014 35.3455 84.9292C33.3614 85.4616 31.3136 85.6268 29.2915 85.9571C28.0302 86.151 26.7839 86.4329 25.5618 86.8008C25.4928 86.6907 25.3875 86.6081 25.2641 86.5673C25.1407 86.5266 25.007 86.5302 24.886 86.5776C24.3878 86.7601 23.9662 87.1063 23.6903 87.5597C22.2738 88.3131 21.4284 89.3621 22.4456 90.7962C22.7735 91.2594 23.6201 90.9938 23.4159 90.3867C23.3826 90.2861 23.3613 90.182 23.3524 90.0764C23.3524 90.0887 23.3591 90.101 23.3635 90.1132C23.668 90.9625 25.1481 90.9023 25.0365 89.89C24.9707 89.2907 24.9473 88.7282 25.1748 88.2093C27.2728 87.3834 30.5463 87.1156 31.5478 86.9761C33.3447 86.7459 35.1246 86.3976 36.8758 85.9337C38.6402 85.4516 40.3857 84.898 42.1446 84.3924C43.7529 83.9304 45.4984 83.7005 47.0097 82.9717C47.4625 82.7541 47.2082 82.1235 46.7799 82.1001Z" fill="#BCB5C6"/>
<path d="M45.5613 91.9625C44.3913 91.7036 43.2381 91.9011 42.0525 91.9625C40.4799 92.0518 38.9095 92.1634 37.3346 92.2225C34.9746 92.3103 32.6153 92.3758 30.2567 92.4189C29.642 92.4281 29.0296 92.4953 28.4276 92.6198C28.4131 92.612 28.4019 92.6009 28.3863 92.593C27.851 92.3096 27.2375 92.1109 26.6263 92.16C26.4478 92.1652 26.2755 92.2266 26.1339 92.3355C25.9923 92.4443 25.8887 92.5951 25.8376 92.7663C25.7866 92.9375 25.7908 93.1205 25.8497 93.2891C25.9086 93.4578 26.0192 93.6036 26.1657 93.7057C26.1035 93.771 26.0457 93.8403 25.9928 93.9133C25.9309 93.6004 25.8421 93.2935 25.7274 92.9959C25.5043 92.4379 24.815 92.2951 24.4603 92.8308C23.4008 94.4278 24.8719 96.6342 25.9817 97.7804C27.2531 99.094 29.302 100.64 31.1936 100.766C31.2374 100.766 31.2805 100.755 31.3197 100.736C31.3589 100.716 31.3932 100.688 31.4198 100.653C31.4464 100.618 31.4646 100.578 31.4732 100.535C31.4817 100.492 31.4803 100.448 31.4691 100.405C31.3137 99.9805 31.0782 99.5895 30.7754 99.2535C30.3147 98.2368 29.5831 97.2983 28.9908 96.3809C28.6228 95.8106 28.2647 95.2034 28.0986 94.5405C27.9982 94.1343 28.5146 93.9981 28.9997 93.9356C30.3259 93.8352 31.7 94.016 33.0306 94.0093C35.249 93.9993 37.4818 93.8642 39.6969 93.7537C41.5985 93.6577 43.9865 93.7158 45.6583 92.7035C45.9483 92.5339 45.9182 92.0462 45.5613 91.9625Z" fill="#BCB5C6"/>
<path d="M33.296 101.368C32.8499 100.851 32.1372 101.416 32.2454 101.981C32.3859 102.709 32.5744 103.84 33.2782 104.232C33.634 104.432 34.1571 104.265 34.2485 103.838C34.3478 103.375 34.1861 103.024 34.0255 102.601C33.8563 102.15 33.6094 101.733 33.296 101.368Z" fill="#BCB5C6"/>
<path d="M20.2449 70.5067C19.9103 66.7736 18.8429 63.1309 16.3579 60.2626C13.2183 56.6411 10.3853 52.7194 8.25726 48.4092C4.83208 41.4753 4.55771 34.0124 6.99136 26.7225C11.1817 14.1771 23.6455 7.25658 36.4183 7.3693C50.4882 7.49206 63.6324 16.7083 66.249 31.037C67.5729 38.2913 65.234 45.7308 61.453 51.8779C59.8481 54.4838 57.71 56.6925 56.1284 59.3084C54.1208 62.6331 53.0557 66.47 52.2549 70.24C52.0631 71.1451 53.4494 71.5301 53.6413 70.6228C54.4766 66.6821 55.6109 62.8106 57.768 59.3787C59.3919 56.7918 61.5066 54.5709 63.0904 51.9381C66.7152 45.9116 68.6793 38.8169 67.7948 31.7848C66.0504 17.9705 54.0283 7.98758 40.709 6.29456C28.9255 4.79684 16.5196 9.01322 9.47967 18.8857C5.65296 24.2516 3.69332 31.2089 4.03908 37.7757C4.4551 45.6649 8.69447 52.6814 13.4804 58.7125C14.8188 60.4088 16.3802 61.9133 17.3394 63.8741C18.3733 65.9801 18.7893 68.3874 19.4942 70.6116C19.6203 71.0056 20.2861 70.9565 20.2449 70.509V70.5067Z" fill="#851919"/>
<path d="M19.0415 66.8527C18.4068 70.2399 19.9181 75.2409 23.7872 75.6527C27.6909 76.069 31.706 75.8848 35.6186 75.8301C39.6338 75.7743 43.6613 75.6906 47.6732 75.4417C48.8721 75.367 49.9451 75.2933 50.9913 74.6237C53.281 73.155 53.996 69.5937 54.3941 67.1373C54.5425 66.2255 53.2297 65.8159 52.9832 66.7478C52.3932 68.9799 51.9873 72.6628 49.4989 73.6393C48.7863 73.9195 47.7267 73.8626 46.8512 73.915C43.2297 74.1114 39.6015 74.1884 35.9744 74.2431C32.3474 74.2978 28.7348 74.3436 25.1245 74.1594C24.1608 74.1103 23.1682 74.1672 22.4031 73.5144C20.6074 71.9843 20.1802 69.01 19.6917 66.8527C19.6192 66.5369 19.1028 66.5179 19.0415 66.8527Z" fill="#851919"/>
<path d="M22.6882 74.4978C21.9386 75.2913 22.1528 76.7979 22.1706 77.8258C22.1874 78.8012 22.0435 80.2208 22.9358 80.8212C22.9961 80.8575 23.0669 80.8723 23.1367 80.8634C23.2065 80.8545 23.2712 80.8224 23.3205 80.7721C23.9697 79.9842 23.5726 78.7878 23.5503 77.8258C23.5269 76.7633 23.8693 75.3705 23.1733 74.4978C23.1415 74.4658 23.1037 74.4405 23.0621 74.4232C23.0204 74.4059 22.9758 74.397 22.9307 74.397C22.8857 74.397 22.841 74.4059 22.7994 74.4232C22.7578 74.4405 22.72 74.4658 22.6882 74.4978Z" fill="#851919"/>
<path d="M21.9656 81.5211C23.9074 80.3895 26.2607 80.2031 28.4077 79.6763C31.2775 78.971 34.1673 78.4319 37.0627 77.8505C39.8745 77.2925 42.6461 76.5737 45.4779 76.115C46.5932 75.9342 48.7123 75.2948 49.686 76.1474C50.7077 77.0402 49.1183 78.0134 48.5785 78.5859C48.5205 78.6464 48.4813 78.7224 48.4657 78.8048C48.4501 78.8871 48.4588 78.9723 48.4907 79.0498C48.5226 79.1273 48.5764 79.1938 48.6455 79.2412C48.7145 79.2887 48.7959 79.315 48.8797 79.3169C50.7668 79.3169 51.8286 77.1117 50.9464 75.5314C49.6537 73.2156 45.1924 74.7379 43.3063 75.1274C39.2677 75.9599 35.2213 76.8081 31.1949 77.6942C29.4104 78.0848 27.6549 78.548 25.8703 78.9219C24.3089 79.2444 22.705 79.6071 21.409 80.5781C20.8514 80.9921 21.3354 81.8961 21.9667 81.5289L21.9656 81.5211Z" fill="#851919"/>
<path d="M21.4637 80.5722C20.4488 81.4349 20.2502 83.2741 21.4135 84.1435C22.1943 84.7272 22.9348 84.7015 23.8572 84.62C26.6824 84.37 29.4841 83.7651 32.2613 83.2149C35.7891 82.5152 39.3046 81.7563 42.8134 80.9683C44.9482 80.4907 47.2881 80.1782 49.337 79.3914C50.275 79.0331 49.9225 77.6783 48.921 77.8803C44.3626 78.7977 39.85 79.9851 35.2961 80.936C32.3962 81.5431 29.4908 82.1257 26.5708 82.6201C25.2447 82.8433 20.4198 84.0866 22.3326 81.2373C22.7017 80.6849 21.9177 80.1871 21.4682 80.5677L21.4637 80.5722Z" fill="#851919"/>
<path d="M21.9656 88.5732C23.9074 87.4404 26.2607 87.254 28.4077 86.7272C31.2775 86.0219 34.1673 85.4829 37.0627 84.9025C39.8745 84.3445 42.6461 83.6247 45.4779 83.166C46.5932 82.9852 48.7123 82.3468 49.686 83.1995C50.7077 84.0923 49.1183 85.0644 48.5785 85.638C48.5203 85.6983 48.481 85.7743 48.4653 85.8566C48.4497 85.939 48.4584 86.0241 48.4903 86.1016C48.5223 86.179 48.5762 86.2455 48.6453 86.2928C48.7145 86.3401 48.7959 86.3662 48.8797 86.3679C50.7668 86.3679 51.8286 84.1626 50.9464 82.5823C49.6537 80.2665 45.1924 81.7899 43.3063 82.1783C39.2677 83.0108 35.2213 83.859 31.1949 84.7452C29.4104 85.1347 27.6549 85.5989 25.8703 85.9728C24.3089 86.2965 22.705 86.658 21.409 87.629C20.8514 88.043 21.3354 88.947 21.9667 88.581L21.9656 88.5732Z" fill="#851919"/>
<path d="M21.4637 87.6245C20.4488 88.485 20.2502 90.3253 21.4135 91.1959C22.1943 91.7795 22.9348 91.7539 23.8572 91.6724C26.6824 91.4224 29.4841 90.8175 32.2613 90.2673C35.7868 89.5698 39.3046 88.8098 42.8134 88.0285C44.9482 87.5498 47.2881 87.2373 49.337 86.4516C50.275 86.0922 49.9225 84.7374 48.921 84.9394C44.3626 85.8567 39.85 87.0442 35.2961 87.9962C32.3962 88.6011 29.4908 89.1848 26.5708 89.678C25.2447 89.9013 20.4198 91.1456 22.3326 88.2964C22.7017 87.7451 21.9177 87.2462 21.4682 87.6268L21.4637 87.6245Z" fill="#851919"/>
<path d="M22.7737 83.2652C22.167 83.6648 22.3276 84.4103 22.3432 85.0598C22.3532 85.5598 22.3666 86.0642 22.3755 86.5586C22.3822 86.966 22.6042 87.2283 22.757 87.5832C22.8685 87.8532 23.2165 87.7148 23.3013 87.5128C23.4418 87.178 23.6437 86.9437 23.6303 86.5586C23.6135 86.0598 23.5935 85.5542 23.5745 85.0598C23.5489 84.4147 23.6939 83.6547 23.0882 83.2652C23.0406 83.237 22.9863 83.2222 22.931 83.2222C22.8756 83.2222 22.8213 83.237 22.7737 83.2652Z" fill="#851919"/>
<path d="M47.8249 78.1126C47.5516 78.7499 47.5717 79.4519 47.5215 80.1327C47.4691 80.8726 47.2985 81.6817 47.9989 82.1415C48.2353 82.2966 48.5242 82.2174 48.7216 82.0489C49.2626 81.588 49.0674 80.7744 49.0696 80.1338C49.0696 79.4485 49.1332 78.7242 48.7752 78.1137C48.5867 77.7901 47.9944 77.7198 47.8249 78.1137V78.1126Z" fill="#851919"/>
<path d="M47.9445 85.6145C47.7628 86.62 47.6425 87.6356 47.5842 88.6557C47.5307 89.8108 47.4403 91.0128 46.9931 92.0909C46.9016 92.3141 47.012 92.6143 47.1726 92.7717C47.2538 92.8638 47.3626 92.9273 47.4827 92.9525C47.8943 93.0217 48.1854 92.8409 48.3426 92.4636C49.2159 90.3275 49.0542 87.7863 48.4932 85.6145C48.4263 85.3567 47.9902 85.3277 47.9445 85.6145Z" fill="#851919"/>
<path d="M27.4778 98.4256C26.8878 97.2816 25.8906 96.3698 25.072 95.3844C24.6664 94.9089 24.2888 94.4104 23.941 93.8911C23.9321 93.8766 23.9031 93.8978 24.1931 93.7404C25.8103 92.8644 28.1693 92.9213 29.946 92.8119C34.4229 92.5362 38.9322 92.6434 43.4114 92.7907C44.5167 92.8275 45.6209 92.9124 46.6994 93.1646C48.3724 93.5585 47.837 94.1299 47.2415 95.3487C46.502 96.8553 44.4364 98.2872 43.0946 99.1934C41.6759 100.152 40.1769 100.55 38.4939 100.598C37.2057 100.635 35.9153 100.621 34.627 100.598C33.6232 100.578 32.4566 100.673 31.4952 100.353C28.2607 99.2782 26.1416 95.9736 23.7481 93.7996C23.1804 93.284 22.2614 93.9402 22.6696 94.6322C24.3504 97.4769 27.6484 100.256 30.7189 101.545C32.9619 102.487 36.1261 102.001 38.4939 101.924C42.0987 101.813 44.9996 99.8485 47.3195 97.1789C48.6267 95.6756 50.8964 93.3498 48.0623 92.024C45.9845 91.0508 43.3612 91.2774 41.1272 91.2149C38.4917 91.1401 35.855 91.1178 33.2184 91.1713C31.88 91.1981 21.2642 90.9928 22.6227 94.3107C22.9317 95.0663 23.6923 95.6433 24.2355 96.2259C25.1055 97.1611 25.9208 98.2024 26.9748 98.9322C27.3004 99.1554 27.6373 98.7314 27.48 98.4267L27.4778 98.4256Z" fill="#851919"/>
<path d="M22.9665 91.2872C22.9234 91.438 22.9181 91.597 22.9508 91.7504L22.9776 91.939C22.9609 91.8274 22.9598 92.0506 22.9598 92.0439C22.9676 92.4825 23.1583 92.9925 23.5286 93.2325C23.6266 93.2886 23.7361 93.3215 23.8488 93.3288C23.9615 93.3361 24.0744 93.3175 24.1788 93.2744C24.2832 93.2313 24.3764 93.1649 24.4512 93.0803C24.526 92.9956 24.5805 92.895 24.6105 92.786C24.7108 92.3519 24.4833 91.853 24.1799 91.5327C24.045 91.3921 23.8944 91.1455 23.6702 90.9948C23.4014 90.814 23.0579 91.0037 22.9665 91.2816V91.2872Z" fill="#851919"/>
<path d="M32.036 101.533C31.2698 102.12 31.7416 103.059 32.248 103.653C32.9272 104.458 34.1306 104.818 35.1333 104.928C37.1878 105.151 40.1066 104.308 40.0129 101.752C39.9873 101.031 38.8362 100.804 38.7035 101.575C38.4057 103.291 36.968 103.682 35.3787 103.584C34.6805 103.537 33.8763 103.299 33.3176 102.866C32.8714 102.522 32.8603 101.959 32.4677 101.588C32.412 101.533 32.3394 101.497 32.2613 101.487C32.1833 101.477 32.1041 101.493 32.036 101.533Z" fill="#851919"/>
<path d="M41.245 61.19C40.2412 59.006 39.0456 57.3766 36.5104 57.1422C35.2641 57.0226 34.0201 57.3919 33.0406 58.1723C32.0848 58.9345 31.932 60.4635 31.5695 61.5349C31.3241 62.2592 32.3212 62.7927 32.8142 62.373C33.1401 62.5541 33.5206 62.6105 33.8849 62.5315C35.1118 62.2347 36.381 62.9612 37.5499 63.2592C38.692 63.5505 39.7281 63.4143 40.7844 62.9366C41.4636 62.6309 41.5104 61.7682 41.245 61.19ZM34.7761 61.5137C34.7404 61.545 34.7259 61.5349 34.7761 61.5137V61.5137Z" fill="#F0618C"/>
<path d="M39.0547 60.5495C36.4656 60.1437 33.8158 60.6397 31.5485 61.9546C31.4816 61.9803 31.4124 62.0026 31.3466 62.0305C30.3428 62.4423 30.0205 64.1331 31.3466 64.401C33.081 64.7503 34.8766 64.8474 36.6389 64.8775C38.1223 64.9054 40.7433 65.0594 41.7292 63.6555C43.0018 61.8464 40.3975 60.7661 39.0547 60.5495Z" fill="#FF93B8"/>
<path d="M32.506 57.8955C33.8355 57.9301 35.1382 57.65 36.4643 57.6098C37.9499 57.5663 38.7574 57.91 39.5872 59.1109C40.2818 60.1324 40.7869 61.2707 41.0784 62.4713C41.3695 63.6554 41.0349 63.9813 39.9162 64.2C37.8507 64.6018 35.5743 64.45 33.4875 64.2848C31.8145 64.1509 31.3605 63.3473 31.7944 61.8039C32.1723 60.5027 32.7142 59.255 33.4072 58.0908C33.8165 57.4056 32.7491 56.7851 32.3431 57.467C31.2668 59.2716 28.783 63.8964 31.7855 65.1542C33.0982 65.7033 34.7511 65.6129 36.1509 65.6352C37.7124 65.6598 39.3664 65.6553 40.8877 65.2413C43.85 64.4332 41.7878 60.3452 40.7918 58.7169C40.0668 57.535 39.2181 56.6344 37.7949 56.4569C36.0104 56.2337 33.9436 56.3956 32.3186 57.217C31.984 57.3877 32.158 57.8866 32.5038 57.9L32.506 57.8955Z" fill="#851919"/>
<path d="M29.4044 34.5896C28.9583 36.7937 28.9583 39.5358 29.3854 41.7433C29.4412 42.0302 29.9074 42.0302 29.9621 41.7433C30.3837 39.5358 30.387 36.7937 29.9442 34.5896C29.8896 34.3217 29.4579 34.3217 29.4044 34.5896Z" fill="#851919"/>
<path d="M35.5113 30.979C35.2883 32.6676 35.3686 34.3918 35.3563 36.0915C35.3463 37.5647 35.0284 39.3995 35.4946 40.8046C35.5091 40.8524 35.5386 40.8944 35.5788 40.9242C35.619 40.954 35.6677 40.9701 35.7177 40.9701C35.7677 40.9701 35.8164 40.954 35.8565 40.9242C35.8967 40.8944 35.9262 40.8524 35.9407 40.8046C36.4081 39.3995 36.0891 37.5681 36.079 36.0915C36.0668 34.3918 36.1437 32.6676 35.9251 30.979C35.9213 30.9267 35.8978 30.8778 35.8594 30.8421C35.8211 30.8065 35.7706 30.7866 35.7182 30.7866C35.6658 30.7866 35.6154 30.8065 35.577 30.8421C35.5386 30.8778 35.5152 30.9267 35.5113 30.979Z" fill="#851919"/>
<path d="M41.3573 34.6642C41.3306 35.7393 41.3042 36.8137 41.2781 37.8873C41.2503 38.9754 41.1019 40.0971 41.3406 41.1662C41.3536 41.2091 41.38 41.2467 41.4159 41.2734C41.4519 41.3001 41.4955 41.3145 41.5402 41.3145C41.585 41.3145 41.6286 41.3001 41.6646 41.2734C41.7005 41.2467 41.7269 41.2091 41.7399 41.1662C41.9473 40.2377 41.8447 39.2868 41.8157 38.3415C41.7789 37.1139 41.7533 35.8863 41.7232 34.6586C41.7232 34.6101 41.7039 34.5635 41.6696 34.5292C41.6353 34.4949 41.5888 34.4756 41.5402 34.4756C41.4917 34.4756 41.4452 34.4949 41.4109 34.5292C41.3766 34.5635 41.3573 34.6101 41.3573 34.6586V34.6642Z" fill="#851919"/>
<path d="M46.8967 36.1329C46.8398 36.7289 46.8074 37.3204 46.7851 37.9186C46.7695 38.4766 46.726 39.0223 46.987 39.5335C47.002 39.5587 47.0234 39.5795 47.0489 39.594C47.0744 39.6085 47.1032 39.6161 47.1326 39.6161C47.1619 39.6161 47.1907 39.6085 47.2162 39.594C47.2417 39.5795 47.2631 39.5587 47.2781 39.5335C47.5067 39.0871 47.4878 38.6685 47.4833 38.1741C47.4766 37.49 47.4387 36.8126 47.3718 36.1329C47.3718 36.069 47.3464 36.0077 47.3012 35.9625C47.2561 35.9172 47.1948 35.8918 47.1309 35.8918C47.067 35.8918 47.0057 35.9172 46.9605 35.9625C46.9154 36.0077 46.89 36.069 46.89 36.1329H46.8967Z" fill="#851919"/>
<path d="M22.9381 35.9532C22.773 37.3438 22.7296 38.683 22.947 40.0703C22.9838 40.3013 23.3753 40.3013 23.4121 40.0703C23.6296 38.683 23.5861 37.3438 23.4199 35.9532C23.4199 35.8893 23.3946 35.828 23.3494 35.7828C23.3042 35.7376 23.2429 35.7122 23.179 35.7122C23.1151 35.7122 23.0539 35.7376 23.0087 35.7828C22.9635 35.828 22.9381 35.8893 22.9381 35.9532Z" fill="#851919"/>
<path d="M46.5311 50.2565C46.5122 52.964 44.6273 55.4595 42.3241 55.4438C40.0209 55.4282 38.2732 53.2252 38.1896 50.1985C38.1159 47.491 39.3752 44.6719 42.5037 44.5949C45.7359 44.5134 46.5501 47.549 46.5311 50.2565Z" fill="#851919"/>
<path d="M46.8188 48.4484C46.7666 48.3835 46.7083 48.3237 46.6448 48.2698C46.5801 48.1085 46.4807 47.9634 46.3537 47.8448C46.2266 47.7262 46.0751 47.637 45.9098 47.5835C45.2228 47.3324 44.519 47.8424 44.2056 48.4227C43.8621 49.0577 43.8342 50.0075 44.2692 50.6102C44.6417 51.1235 45.2284 51.2731 45.8307 51.1682C46.1021 51.1176 46.3588 51.0069 46.582 50.8441C46.8051 50.6813 46.9889 50.4705 47.12 50.2274C47.4401 49.6102 47.2349 48.9674 46.8188 48.4484Z" fill="white"/>
<path d="M43.687 51.3423C43.3201 51.3423 43.3156 51.9081 43.687 51.9115C44.0584 51.9148 44.0529 51.3445 43.687 51.3423Z" fill="white"/>
<path d="M33.3554 50.1583C33.3354 52.8669 31.4505 55.3623 29.1484 55.3467C26.8464 55.3311 25.0964 53.1258 25.0139 50.1014C24.9391 47.3939 26.1984 44.577 29.3269 44.4977C32.5602 44.4152 33.3733 47.4497 33.3554 50.1583Z" fill="#851919"/>
<path d="M33.6433 48.3501C33.5905 48.2858 33.5323 48.226 33.4693 48.1716C33.4044 48.0107 33.3051 47.8659 33.1783 47.7476C33.0515 47.6292 32.9003 47.54 32.7354 47.4863C32.0473 47.2341 31.3435 47.7441 31.0301 48.3245C30.6855 48.9595 30.6565 49.9103 31.0937 50.513C31.4651 51.0264 32.0517 51.1748 32.6551 51.071C32.9268 51.0201 33.1836 50.9091 33.4069 50.7462C33.6302 50.5832 33.8142 50.3724 33.9456 50.1291C34.2646 49.5119 34.0582 48.8668 33.6433 48.3501Z" fill="white"/>
<path d="M30.5099 51.2441C30.1429 51.2441 30.1396 51.8111 30.5099 51.8133C30.8802 51.8156 30.879 51.2475 30.5099 51.2441Z" fill="white"/>
<path d="M39.365 42.2498C39.5881 43.5757 41.222 44.4931 42.2872 45.0745C43.0489 45.4908 45.2673 46.6314 46.0626 45.8345C46.9002 44.9975 44.6405 44.7732 44.3383 44.6928C43.369 44.4219 42.4471 44.0037 41.6046 43.4529C40.9231 43.0233 40.4123 42.4027 39.7609 41.9452C39.5457 41.7934 39.3304 42.0423 39.365 42.2498Z" fill="#851919"/>
<path d="M31.4664 42.4945C30.4626 43.3047 29.6417 44.048 28.3948 44.4877C27.7646 44.7109 27.101 44.7745 26.4385 44.8091C25.892 44.8381 25.4347 44.6841 24.9194 44.8917C24.6796 44.9877 24.5201 45.3136 24.7544 45.52C25.7347 46.385 27.5616 45.8894 28.6736 45.4988C29.9841 45.039 31.3448 44.048 31.8925 42.7433C32.004 42.4788 31.6382 42.3561 31.4664 42.4945Z" fill="#851919"/>
<path d="M50.6052 61.7694C48.0489 62.2828 45.3531 61.1176 44.946 59.0909C44.5389 57.0642 46.2978 55.1056 49.1352 54.4359C51.6726 53.84 54.5591 54.3946 55.206 57.1256C55.8752 59.9492 53.1616 61.256 50.6052 61.7694Z" fill="#F48CA3"/>
<path d="M21.3182 62.2481C23.8745 62.7615 26.5714 61.5963 26.9774 59.5696C27.3834 57.5429 25.6267 55.5809 22.7893 54.9146C20.2508 54.3243 17.3643 54.8823 16.7152 57.6087C16.046 60.429 18.763 61.737 21.3182 62.2481Z" fill="#F48CA3"/>
<path d="M48.5699 58.0073C48.5042 57.9895 48.4342 57.9984 48.375 58.032C48.3159 58.0657 48.2725 58.1214 48.2542 58.187C48.2364 58.2664 48.2136 58.3447 48.1862 58.4213C48.155 58.5184 48.097 58.6032 48.068 58.7026C48.0524 58.7614 48.0563 58.8237 48.0793 58.8801C48.1022 58.9365 48.1429 58.9839 48.1951 59.0151C48.2588 59.0503 48.3336 59.0596 48.404 59.0411C48.4744 59.0226 48.535 58.9777 48.5732 58.9157C48.7112 58.7244 48.7768 58.4903 48.7584 58.255C48.7572 58.1991 48.7383 58.145 48.7044 58.1005C48.6705 58.0559 48.6234 58.0233 48.5699 58.0073Z" fill="#F34D65"/>
<path d="M49.6174 58.1657C49.6093 58.2671 49.5921 58.3675 49.5661 58.4659C49.5304 58.5853 49.4936 58.7047 49.5661 58.8174C49.5868 58.8513 49.6177 58.8777 49.6544 58.8928C49.6911 58.9078 49.7317 58.9107 49.7702 58.9011C50.0769 58.8487 50.0312 58.3889 50.01 58.1657C50.01 58.1136 49.9893 58.0636 49.9525 58.0268C49.9157 57.9899 49.8658 57.9692 49.8137 57.9692C49.7616 57.9692 49.7117 57.9899 49.6749 58.0268C49.6381 58.0636 49.6174 58.1136 49.6174 58.1657Z" fill="#F34D65"/>
<path d="M51.7248 57.9146C51.6902 57.6724 51.3043 57.6914 51.2552 57.9146C51.2349 58.0131 51.2042 58.1093 51.1638 58.2014C51.1013 58.3398 51.0277 58.5083 51.1191 58.6478C51.1373 58.6812 51.1641 58.7091 51.1966 58.7287C51.2291 58.7483 51.2663 58.7589 51.3043 58.7594C51.495 58.746 51.5976 58.5842 51.6634 58.4179C51.7321 58.2596 51.7534 58.0848 51.7248 57.9146Z" fill="#F34D65"/>
<path d="M23.3544 58.4914C23.4201 58.4736 23.4902 58.4825 23.5493 58.5161C23.6084 58.5498 23.6518 58.6055 23.6701 58.6711C23.688 58.7504 23.7103 58.8287 23.737 58.9055C23.7694 59.0026 23.8274 59.0874 23.8552 59.1856C23.8712 59.2444 23.8675 59.3069 23.8445 59.3633C23.8215 59.4198 23.7806 59.4672 23.7281 59.4981C23.6647 59.5333 23.5901 59.5428 23.5199 59.5245C23.4497 59.5062 23.3893 59.4616 23.3511 59.3999C23.2134 59.2084 23.1475 58.9745 23.1648 58.7392C23.1663 58.6831 23.1854 58.629 23.2195 58.5845C23.2535 58.54 23.3008 58.5074 23.3544 58.4914Z" fill="#F34D65"/>
<path d="M22.3095 58.6466C22.3172 58.7477 22.3344 58.8479 22.3608 58.9457C22.3954 59.0651 22.4322 59.1845 22.3608 59.2984C22.3401 59.3322 22.3091 59.3585 22.2724 59.3733C22.2356 59.3882 22.1951 59.3909 22.1567 59.381C21.85 59.3296 21.8957 58.8687 21.9169 58.6466C21.9169 58.6208 21.922 58.5953 21.9319 58.5715C21.9417 58.5476 21.9562 58.526 21.9744 58.5077C21.9926 58.4895 22.0143 58.475 22.0381 58.4651C22.0619 58.4553 22.0874 58.4502 22.1132 58.4502C22.139 58.4502 22.1645 58.4553 22.1883 58.4651C22.2122 58.475 22.2338 58.4895 22.252 58.5077C22.2702 58.526 22.2847 58.5476 22.2946 58.5715C22.3044 58.5953 22.3095 58.6208 22.3095 58.6466Z" fill="#F34D65"/>
<path d="M20.1977 58.3943C20.2334 58.1521 20.6182 58.1711 20.6672 58.3943C20.6885 58.4928 20.7195 58.5889 20.7598 58.6811C20.8212 58.8184 20.8948 58.9881 20.8033 59.1276C20.7848 59.1603 20.7579 59.1875 20.7253 59.2064C20.6928 59.2252 20.6558 59.235 20.6182 59.2347C20.4263 59.2235 20.3248 59.0606 20.259 58.8943C20.1923 58.7367 20.1711 58.5634 20.1977 58.3943Z" fill="#F34D65"/>
<path d="M52.4541 56.4636C52.4433 56.4601 52.4328 56.4556 52.4229 56.4502C52.5043 56.4948 52.4931 56.4881 52.4541 56.4636Z" fill="#F2F5FE"/>
<path d="M52.5477 55.2706C52.3336 55.1758 52.0871 55.2059 51.9599 55.4258C51.9044 55.5237 51.889 55.6392 51.9169 55.7483C51.9447 55.8573 52.0137 55.9513 52.1094 56.0106L52.1306 56.0318L52.1395 56.0452C52.1395 56.0541 52.2109 56.236 52.2075 56.2271C52.2273 56.2804 52.2585 56.3288 52.299 56.3688C52.3068 56.3777 52.4038 56.4346 52.454 56.4637C52.5352 56.5028 52.6284 56.5088 52.7139 56.4804L52.7574 56.4625C52.7574 56.4625 52.7574 56.4625 52.763 56.4625C52.8398 56.4288 52.9056 56.374 52.9528 56.3045C52.9999 56.235 53.0265 56.1536 53.0295 56.0697C53.0362 55.9039 52.9942 55.7398 52.9085 55.5978C52.8229 55.4557 52.6974 55.342 52.5477 55.2706Z" fill="#F2F5FE"/>
<path d="M19.4693 56.9447C19.4793 56.9391 19.4905 56.9358 19.4994 56.9302C19.418 56.9748 19.4291 56.9681 19.4693 56.9447Z" fill="#F2F5FE"/>
<path d="M18.8916 56.5452C18.8945 56.629 18.9209 56.7103 18.9679 56.7798C19.0148 56.8493 19.0804 56.9041 19.157 56.938L19.2005 56.9559C19.286 56.9841 19.3789 56.9785 19.4604 56.9403C19.5106 56.909 19.6065 56.8521 19.6143 56.8443C19.6545 56.8041 19.6857 56.7558 19.7058 56.7025C19.7058 56.7115 19.7772 56.5296 19.7749 56.5206L19.7827 56.5072L19.8039 56.486C19.8999 56.4268 19.9691 56.3326 19.9969 56.2233C20.0248 56.114 20.0092 55.9981 19.9534 55.9001C19.8251 55.6769 19.5809 55.6512 19.3667 55.7461C19.2179 55.818 19.0935 55.932 19.009 56.0741C18.9245 56.2162 18.8837 56.38 18.8916 56.5452Z" fill="#F2F5FE"/>
<path d="M63.4921 0.530546L65.049 5.70301L64.2262 5.96381L62.5362 0.833511L63.4921 0.530546ZM64.6209 7.56288C64.5744 7.41497 64.5794 7.27602 64.6361 7.14601C64.696 7.01497 64.8146 6.92134 64.992 6.86512C65.1661 6.80994 65.3151 6.81872 65.4392 6.89146C65.5665 6.96316 65.6534 7.07296 65.6999 7.22087C65.7444 7.36221 65.735 7.49892 65.6718 7.631C65.6119 7.76205 65.4949 7.85516 65.3208 7.91034C65.1435 7.96656 64.9928 7.9583 64.8687 7.88556C64.748 7.81177 64.6654 7.70422 64.6209 7.56288Z" fill="#E73232"/>
<path d="M78.5517 28.0848L76.5137 33.0873L75.7097 32.7733L77.6177 27.72L78.5517 28.0848ZM75.0123 34.2654C75.069 34.1211 75.1602 34.0162 75.286 33.9506C75.4149 33.8863 75.566 33.888 75.7394 33.9556C75.9095 34.0221 76.0199 34.1225 76.0707 34.2571C76.1247 34.3928 76.1234 34.5329 76.0667 34.6772C76.0125 34.8151 75.9193 34.9156 75.7872 34.9786C75.6582 35.043 75.5087 35.0419 75.3386 34.9755C75.1653 34.9078 75.0532 34.8067 75.0024 34.6722C74.9548 34.5389 74.9581 34.4033 75.0123 34.2654Z" fill="#E73232"/>
<path d="M5.87476 4.79549L8.35231 9.59551L7.59115 10.0025L4.99055 5.26832L5.87476 4.79549ZM8.27196 11.5023C8.19913 11.3654 8.17865 11.2279 8.21053 11.0897C8.24543 10.9499 8.34493 10.8362 8.50901 10.7484C8.67005 10.6623 8.8182 10.6436 8.95345 10.6924C9.09174 10.7396 9.19729 10.8317 9.27012 10.9685C9.33971 11.0994 9.35553 11.2355 9.31758 11.3769C9.28267 11.5167 9.1847 11.6296 9.02365 11.7158C8.85957 11.8035 8.70991 11.823 8.57466 11.7742C8.44245 11.7237 8.34155 11.6331 8.27196 11.5023Z" fill="#E73232"/>
</g>
<defs>
<clipPath id="clip0_183_2105">
<rect width="80" height="108" fill="white"/>
</clipPath>
</defs>
</svg>
