<svg width="12" height="24" viewBox="0 0 12 24" fill="none" xmlns="http://www.w3.org/2000/svg">
<path d="M1.36402 24C1.23368 24.0007 1.10446 23.9755 0.983793 23.9257C0.863123 23.876 0.753368 23.8027 0.660823 23.71C0.567993 23.617 0.494312 23.5064 0.444029 23.3846C0.393747 23.2627 0.367859 23.132 0.367859 23C0.367859 22.868 0.393747 22.7373 0.444029 22.6154C0.494312 22.4935 0.567993 22.3829 0.660823 22.29L8.75255 14.12C9.30898 13.5575 9.62151 12.795 9.62151 12C9.62151 11.205 9.30898 10.4425 8.75255 9.87999L0.660823 1.71C0.474324 1.5217 0.369549 1.2663 0.369549 1C0.369549 0.7337 0.474324 0.478305 0.660823 0.290002C0.847323 0.101698 1.10027 -0.00408936 1.36402 -0.00408936C1.62777 -0.00408936 1.88072 0.101698 2.06722 0.290002L10.159 8.45999C10.6201 8.92445 10.986 9.4762 11.2357 10.0837C11.4853 10.6911 11.6138 11.3423 11.6138 12C11.6138 12.6577 11.4853 13.3089 11.2357 13.9163C10.986 14.5238 10.6201 15.0755 10.159 15.54L2.06722 23.71C1.97468 23.8027 1.86492 23.876 1.74425 23.9257C1.62358 23.9755 1.49437 24.0007 1.36402 24Z" fill="white"/>
</svg>
