<svg width="78" height="90" viewBox="0 0 78 90" fill="none" xmlns="http://www.w3.org/2000/svg">
<path d="M58.2617 27.6518C58.5554 12.6609 47.6583 3.4387 33.3452 1.96961C18.236 0.431289 -2.46853 12.7378 2.81773 34.505C5.90912 47.1193 13.4212 48.1269 22.7572 58.4028C28.654 64.8945 31.4903 74.5552 41.1045 72.7169C52.6972 70.5479 50.2396 60.7026 53.2073 49.519C55.5877 40.5814 58.1149 34.9435 58.2617 27.6518Z" fill="#F9ED35"/>
<path d="M52.7226 53.8571C45.6666 51.6727 29.0658 52.4034 24.0732 60.7795L31.5776 70.1863L35.2872 72.3784L38.8578 72.9476L42.807 72.1092L48.217 69.3249L49.8013 67.1482L51.8184 60.3257L52.7226 53.8571Z" fill="#E88128"/>
<path d="M28.4312 47.3268C23.9669 47.3268 19.6855 45.5619 16.5288 42.4202C13.3721 39.2785 11.5986 35.0175 11.5986 30.5746" stroke="#FDF5A3" stroke-width="5.79" stroke-miterlimit="10"/>
<path d="M28.2 66.1867C27.7716 66.3927 27.4424 66.7591 27.2846 67.2059C27.1267 67.6527 27.153 68.1435 27.3576 68.5711C27.46 68.7823 27.6033 68.9713 27.7791 69.1274C27.955 69.2834 28.16 69.4035 28.3825 69.4806C28.6051 69.5578 28.8407 69.5905 29.0759 69.577C29.3111 69.5635 29.5414 69.5039 29.7535 69.4018L30.8123 68.9018C31.0245 68.7999 31.2144 68.6574 31.3712 68.4823C31.528 68.3073 31.6486 68.1032 31.7262 67.8818C31.8037 67.6603 31.8366 67.4259 31.823 67.1918C31.8094 66.9576 31.7496 66.7285 31.6469 66.5174C31.5452 66.3056 31.4025 66.1158 31.2269 65.9589C31.0514 65.802 30.8464 65.6812 30.6239 65.6033C30.4013 65.5254 30.1655 65.492 29.9299 65.505C29.6943 65.518 29.4637 65.5772 29.2511 65.679L28.2 66.1867Z" fill="#344A48"/>
<path d="M51.6941 66.6174C51.9246 66.6632 52.1618 66.6634 52.3923 66.6178C52.6228 66.5723 52.842 66.4819 53.0373 66.3518C53.2326 66.2218 53.4002 66.0546 53.5304 65.86C53.6607 65.6653 53.751 65.447 53.7963 65.2175C53.8425 64.9877 53.8427 64.7511 53.797 64.5212C53.7513 64.2913 53.6606 64.0726 53.53 63.8776C53.3994 63.6827 53.2314 63.5152 53.0358 63.3848C52.8401 63.2544 52.6206 63.1636 52.3897 63.1177L51.2382 62.8869C50.771 62.7964 50.2868 62.8937 49.8914 63.1574C49.496 63.4212 49.2217 63.83 49.1283 64.2945C49.0822 64.5248 49.0822 64.7619 49.1284 64.9923C49.1746 65.2226 49.266 65.4415 49.3974 65.6366C49.5288 65.8317 49.6976 65.999 49.8941 66.1291C50.0906 66.2591 50.311 66.3492 50.5426 66.3943L51.6941 66.6174Z" fill="#344A48"/>
<path d="M26.9473 88.9999C26.9613 89.2536 27.0756 89.4915 27.2653 89.6616C27.455 89.8317 27.7047 89.9201 27.9597 89.9075H30.2782C30.5332 89.9201 30.7829 89.8317 30.9726 89.6616C31.1623 89.4915 31.2767 89.2536 31.2907 88.9999C31.2747 88.7476 31.1595 88.5116 30.97 88.3432C30.7805 88.1747 30.532 88.0874 30.2782 88.1H27.9597C27.7059 88.0874 27.4574 88.1747 27.2679 88.3432C27.0784 88.5116 26.9632 88.7476 26.9473 88.9999Z" fill="#344A48"/>
<path d="M53.4422 88.6461C53.4272 88.7694 53.4376 88.8944 53.4727 89.0136C53.5079 89.1328 53.567 89.2436 53.6465 89.3393C53.7261 89.435 53.8243 89.5136 53.9353 89.5703C54.0464 89.627 54.1678 89.6606 54.2923 89.6691L56.6108 89.9844C56.8646 90.0299 57.1262 89.9749 57.3398 89.8312C57.5535 89.6876 57.7023 89.4666 57.7547 89.2153C57.7696 89.092 57.7593 88.9669 57.7241 88.8478C57.689 88.7286 57.6299 88.6178 57.5503 88.5221C57.4708 88.4264 57.3725 88.3478 57.2615 88.2911C57.1505 88.2344 57.029 88.2008 56.9045 88.1923L54.586 87.8769C54.3325 87.8335 54.0719 87.8893 53.8587 88.0326C53.6455 88.176 53.4963 88.3958 53.4422 88.6461Z" fill="#344A48"/>
<path d="M41.0916 35.9895C41.1839 36.3808 41.4264 36.7207 41.7673 36.9363C42.1081 37.1519 42.5203 37.2262 42.9155 37.1432C43.3087 37.0514 43.6502 36.81 43.8669 36.4708C44.0835 36.1315 44.1581 35.7213 44.0748 35.328L43.1474 31.2053C43.0551 30.814 42.8125 30.4741 42.4717 30.2585C42.1308 30.0429 41.7186 29.9686 41.3234 30.0516C40.9302 30.1434 40.5887 30.3848 40.3721 30.724C40.1554 31.0633 40.0808 31.4735 40.1642 31.8668L41.0916 35.9895Z" fill="#344A48"/>
<path d="M23.8471 40.9044C23.9853 41.2802 24.2652 41.5875 24.6274 41.7613C24.9895 41.935 25.4055 41.9615 25.7869 41.8351C26.1659 41.699 26.4765 41.4211 26.6526 41.0605C26.8287 40.6999 26.8564 40.2851 26.7298 39.9045L25.3232 35.9126C25.185 35.535 24.9039 35.2263 24.5399 35.0524C24.176 34.8784 23.7581 34.8531 23.3757 34.9819C22.9981 35.1194 22.6893 35.398 22.5147 35.7584C22.3401 36.1189 22.3135 36.5328 22.4405 36.9125L23.8471 40.9044Z" fill="#344A48"/>
<path d="M28.3395 44.2195C27.9685 45.9578 29.0737 49.0037 31.6241 49.6036C35.4342 50.4497 39.6926 49.4036 42.2353 46.104C43.9433 43.8965 42.9231 40.566 41.6402 39.6276C40.365 38.6816 38.8734 39.2507 37.861 40.2045C37.0244 40.9582 36.0364 41.5263 34.9625 41.871C33.8885 42.2158 32.7532 42.3294 31.6318 42.2043C30.1634 41.9889 28.7028 42.5197 28.3395 44.2503V44.2195Z" stroke="#010101" stroke-width="1.33" stroke-miterlimit="10"/>
<path d="M57.2735 27.6595V27.0903C57.2735 26.7057 57.2735 26.1443 57.1885 25.4674C57.0377 23.4591 56.6166 21.4801 55.9365 19.5833C55.4575 18.2459 54.8493 16.958 54.1203 15.7375C53.2562 14.3239 52.246 13.0041 51.1062 11.7994C49.7948 10.4415 48.3325 9.23642 46.7474 8.20746C44.9726 7.06944 43.0684 6.14511 41.0747 5.45387C38.8877 4.70164 36.6257 4.18589 34.3277 3.91555L33.4312 3.81556H33.1994H32.9907H32.5115C31.9474 3.81556 31.3368 3.75403 30.7263 3.76941C29.4869 3.78649 28.2501 3.8867 27.0243 4.06938C21.7842 4.83241 16.8348 6.94273 12.6649 10.1919C8.24486 13.6067 5.2721 18.5469 4.33357 24.0368C3.90134 26.8601 3.97198 29.737 4.54224 32.536C4.81664 33.9612 5.18583 35.3667 5.64741 36.7433C6.07794 38.1053 6.64227 39.4218 7.33222 40.6737C8.8133 43.2009 10.7069 45.465 12.9354 47.373C15.1843 49.4421 17.5724 51.5034 19.8137 53.6878C20.942 54.7647 22.0163 55.8953 23.0674 57.0337C24.1262 58.1736 25.1122 59.3784 26.0196 60.641C27.8204 63.11 29.3738 65.6483 31.1977 67.7788C32.0575 68.8302 33.0679 69.7502 34.1964 70.5094C35.2635 71.215 36.4803 71.6651 37.7514 71.8246C39.0297 71.9594 40.3217 71.8709 41.5693 71.5631C42.8047 71.306 43.995 70.868 45.1012 70.2632C46.1314 69.6849 47.029 68.899 47.7366 67.9557C48.4089 66.9855 48.93 65.9197 49.2823 64.7945C49.9378 62.5137 50.4031 60.1829 50.6734 57.8259C51.0057 55.5184 51.3381 53.2725 51.8095 51.1496C52.2809 49.0267 52.8606 47.0885 53.3552 45.2425C54.4217 41.5813 55.4419 38.4508 56.0988 35.851C56.6423 33.8647 57.0045 31.8336 57.1808 29.7824C57.2349 29.0748 57.2581 28.5287 57.2658 28.1671C57.2735 27.8056 57.2658 27.6133 57.2658 27.6133L57.2735 27.6595ZM59.2598 27.6595C59.2598 27.6595 59.2598 27.8595 59.2598 28.2441C59.2598 28.6286 59.2134 29.2132 59.1361 29.9593C58.9198 32.1065 58.5583 34.2368 58.0541 36.3356C57.4358 39.0354 56.4234 42.2043 55.3414 45.827C54.8159 47.6269 54.2363 49.5728 53.7957 51.588C53.3552 53.6032 53.0229 55.8107 52.6751 58.1259C52.3787 60.5923 51.8825 63.0307 51.1912 65.4175C50.771 66.7392 50.1508 67.9893 49.3519 69.1249C48.4828 70.305 47.3743 71.2903 46.0982 72.0169C44.8185 72.7322 43.4376 73.2508 42.0021 73.5552C40.5347 73.9171 39.0142 74.0161 37.5119 73.8475C35.9448 73.6508 34.4435 73.101 33.1221 72.24C31.8327 71.3789 30.67 70.3434 29.6675 69.1633C27.6658 66.8559 26.0815 64.3253 24.3039 61.964C23.4358 60.776 22.491 59.6455 21.4753 58.5797C20.4474 57.4875 19.35 56.4645 18.2216 55.4646C15.9572 53.4571 13.4532 51.7111 10.9337 49.7805C8.24802 47.8294 5.9277 45.4238 4.07853 42.6735C2.29678 39.8287 1.09168 36.6644 0.531169 33.359C-0.111288 30.0926 -0.171453 26.7393 0.353418 23.4522C0.886841 20.1778 2.06619 17.0409 3.82349 14.2223C5.52402 11.5139 7.68093 9.11748 10.1995 7.13833C14.9182 3.41925 20.5618 1.04287 26.5297 0.262041C27.9287 0.0796818 29.3385 -0.00768871 30.7495 0.000530032C31.445 0.000530032 32.1328 0.000532145 32.8516 0.0928313L33.3308 0.138979H33.5935H33.8486L34.8378 0.269735C37.3794 0.62645 39.8747 1.25569 42.2803 2.14649C46.5799 3.66025 50.4262 6.22902 53.4634 9.61502C55.7423 12.289 57.3831 15.442 58.2628 18.8372C58.8372 20.9697 59.1639 23.1608 59.2366 25.3674C59.2366 26.1366 59.2366 26.7057 59.2366 27.0826C59.2366 27.4595 59.2366 27.6518 59.2366 27.6518L59.2598 27.6595Z" fill="#344A48"/>
<path d="M52.7226 53.8417C45.7669 51.8418 29.9777 52.8802 24.5137 60.1795" stroke="#344A48" stroke-width="1.33" stroke-miterlimit="10"/>
<path d="M52.0267 58.5797C45.7435 56.8876 32.7055 54.8416 27.1797 64.733" stroke="#344A48" stroke-width="1.33" stroke-miterlimit="10"/>
<path d="M50.9508 64.033C42.148 61.8101 34.5896 63.2023 30.3467 68.8095" stroke="#344A48" stroke-width="1.33" stroke-miterlimit="10"/>
<path d="M48.5265 68.8402C42.0036 67.0173 37.2043 68.3634 34.6152 72.063" stroke="#344A48" stroke-width="1.33" stroke-miterlimit="10"/>
<path d="M23.2684 60.018H22.9747C22.7153 60.0271 22.457 60.0554 22.2018 60.1026L21.7227 60.1873L21.1276 60.3488C20.658 60.5075 20.2008 60.7003 19.7596 60.9257C19.2381 61.2008 18.7461 61.5281 18.2912 61.9025C17.7948 62.3005 17.3577 62.7667 16.9928 63.287C16.6267 63.764 16.3946 64.3295 16.3205 64.9253C16.3205 65.0483 16.3205 65.1791 16.3205 65.3022L16.3668 65.4714V65.556C16.4132 65.679 16.305 65.4022 16.3205 65.4329V65.5021C16.4055 65.656 16.5137 65.9406 16.5755 65.9252C16.6373 65.9098 16.6451 66.0252 16.7996 66.1406C17.315 66.5743 17.9074 66.9082 18.5463 67.1251C19.216 67.3827 19.9098 67.5734 20.6175 67.6942C21.893 67.9177 23.1934 67.9643 24.4817 67.8327L25.2546 67.725L25.9579 67.5789C26.3984 67.4866 26.7307 67.3404 27.0708 67.2558L27.9982 66.8789L29.0261 69.071C29.0261 69.071 28.6087 69.2479 27.8668 69.5248C27.4804 69.6248 27.0244 69.7941 26.4911 69.9017L25.641 70.071L24.6904 70.1786C23.1829 70.3165 21.6633 70.2414 20.177 69.9556C19.3252 69.7982 18.4915 69.556 17.6884 69.2326C16.7931 68.8994 15.9676 68.4039 15.2539 67.7712C15.0254 67.5657 14.823 67.3333 14.6511 67.0789C14.5118 66.8837 14.3927 66.675 14.2956 66.4559V66.3867C14.2956 66.3867 14.1951 66.1329 14.2415 66.2482V66.179L14.1951 65.9713L14.1101 65.5483C14.0948 65.269 14.0948 64.9892 14.1101 64.7099C14.2305 63.7378 14.6064 62.8146 15.1998 62.0332C16.1397 60.7698 17.3656 59.7447 18.7781 59.0412C19.3341 58.7613 19.9133 58.5297 20.5093 58.349L21.2821 58.149C21.5217 58.0951 21.769 58.0644 21.9777 58.0336C22.2722 57.9908 22.569 57.9652 22.8665 57.9567H23.1602L23.2684 60.018Z" fill="#344A48"/>
<path d="M52.6221 53.534L53.7891 53.4186C54.3039 53.3888 54.82 53.3888 55.3347 53.4186C55.6207 53.4186 55.9221 53.4802 56.239 53.534L57.236 53.7571C57.5683 53.8647 57.9238 53.9724 58.2793 54.1032C58.6348 54.2339 58.9981 54.3955 59.3536 54.5878C60.1055 54.9803 60.8129 55.4522 61.4634 55.9953C62.1701 56.5902 62.7915 57.2786 63.3105 58.0413C63.6154 58.4867 63.8476 58.9773 63.9984 59.495C64.0441 59.6713 64.0726 59.8516 64.0834 60.0334V60.1872C64.0834 60.2334 64.0834 60.1026 64.0834 60.3026V60.5411V60.8564C64.0763 60.9808 64.0582 61.1044 64.0293 61.2256C63.9678 61.5175 63.8878 61.8053 63.7897 62.0871C63.6738 62.3409 63.5578 62.587 63.4342 62.8562L62.955 63.5177C62.785 63.7177 62.5918 63.8946 62.4063 64.0792C61.6629 64.7075 60.8086 65.1926 59.8868 65.5098C59.0818 65.7794 58.2502 65.9625 57.406 66.0559C57.0244 66.1111 56.6399 66.1445 56.2544 66.1559C55.8912 66.1559 55.528 66.1559 55.1956 66.1559C54.5078 66.1559 53.8973 66.1021 53.3486 66.0636L51.942 65.8867L50.7363 65.6713L51.2464 63.2869L52.3361 63.5023L53.5958 63.6792C54.0827 63.6792 54.6315 63.7792 55.2266 63.7792C55.528 63.7792 55.8371 63.7792 56.154 63.7792C56.4708 63.7792 56.7954 63.7792 57.1278 63.71C57.809 63.6377 58.4818 63.5012 59.1372 63.3023C59.7707 63.0916 60.362 62.7714 60.8838 62.3563C60.992 62.2486 61.1157 62.1486 61.2161 62.0332C61.3166 61.9178 61.3939 61.7871 61.4866 61.6717L61.6875 61.2718C61.7339 61.1487 61.7494 61.0333 61.7958 60.9179C61.8332 60.8386 61.8517 60.7517 61.8499 60.6641V60.3488V60.1872V60.1103C61.8499 60.3026 61.8499 60.1642 61.8499 60.2026C61.8499 60.2026 61.8499 60.1642 61.8499 60.118C61.7609 59.8279 61.628 59.553 61.4557 59.3027C61.0635 58.7072 60.5901 58.1688 60.0491 57.7029C59.5303 57.2576 58.9656 56.8683 58.3643 56.5414C58.0784 56.3799 57.7769 56.2722 57.5064 56.1415L56.664 55.8492L55.8912 55.6569C55.6362 55.6107 55.3966 55.5954 55.1647 55.5569C54.7847 55.519 54.4029 55.5011 54.0209 55.5031L52.8539 55.5723L52.6221 53.534Z" fill="#344A48"/>
<path d="M33.6939 71.3939C33.6939 71.3939 33.5702 71.6477 33.3384 72.1015C33.219 72.3493 33.1208 72.6066 33.0447 72.8707C32.9906 73.0091 32.9365 73.163 32.8824 73.3168C32.8283 73.4706 32.7819 73.686 32.7278 73.8783C32.6042 74.3034 32.5036 74.7347 32.4264 75.1705C32.3182 75.632 32.2332 76.1242 32.1559 76.6473C31.9936 77.6779 31.8777 78.8009 31.785 79.9239C31.5918 82.1775 31.5454 84.4465 31.5376 86.1541C31.5376 87.0001 31.5376 87.6924 31.5376 88.2077C31.5376 88.7231 31.5376 88.9769 31.5376 88.9769L29.0723 89.0461C29.0723 89.0461 29.0723 88.7538 29.0723 88.2308C29.0723 87.7078 29.0723 86.9925 29.0723 86.1233C29.1109 84.3773 29.2114 82.0468 29.4664 79.7162C29.5901 78.5471 29.7369 77.4087 29.9379 76.2935C30.0229 75.7474 30.1311 75.2166 30.2547 74.7167C30.3784 74.2167 30.4943 73.7398 30.6257 73.3014C30.6875 73.0784 30.7571 72.8707 30.8112 72.6707C30.8653 72.4707 30.9735 72.2631 31.043 72.0785C31.1515 71.7641 31.2832 71.4581 31.4372 71.1632L31.8081 70.4632L33.6939 71.3939Z" fill="#344A48"/>
<path d="M48.153 69.471L48.6631 70.1786C48.8176 70.4094 49.0186 70.6555 49.235 71.0247L49.9537 72.2015L50.7266 73.5937L51.4994 75.1781C51.994 76.2857 52.4886 77.4856 52.9369 78.6932C53.8257 81.1084 54.5522 83.5697 55.0468 85.4387C55.2864 86.3694 55.4796 87.1463 55.6032 87.7001L55.7964 88.5769L53.192 89.0615C53.192 89.0615 53.1378 88.7615 53.0374 88.2385C52.9369 87.7154 52.7746 86.954 52.5659 86.0387C52.1409 84.2235 51.5071 81.816 50.7188 79.4701C50.3247 78.2932 49.8842 77.1626 49.4436 76.0704L48.7713 74.532L48.1143 73.2091L47.5115 72.163C47.3492 71.8477 47.1328 71.5631 46.9937 71.3323L46.5068 70.6093L48.153 69.471Z" fill="#344A48"/>
<path d="M28.1843 44.1041C27.7902 45.8655 28.9572 49.0652 31.5307 49.6575C33.4854 50.2326 35.5702 50.1981 37.5045 49.5587C39.4389 48.9193 41.1301 47.7056 42.3506 46.0809C44.0586 43.8118 42.9998 40.3352 41.6859 39.4046C40.3721 38.4662 38.811 39.1354 37.8217 40.066C36.9787 40.8122 35.9887 41.3753 34.9149 41.7196C33.8411 42.0639 32.707 42.1819 31.5848 42.0659C30.1319 41.8505 28.5785 42.3427 28.1766 44.1041H28.1843Z" fill="white" stroke="#344A48" stroke-width="1.33" stroke-miterlimit="10"/>
<path d="M37.5586 40.289L41.4306 47.1192" stroke="#344A48" stroke-width="1.33" stroke-miterlimit="10"/>
<path d="M35.0615 42.0966L37.3646 49.1729" stroke="#344A48" stroke-width="1.33" stroke-miterlimit="10"/>
<path d="M31.8857 42.0966L32.79 50.0036" stroke="#344A48" stroke-width="1.33" stroke-miterlimit="10"/>
<path d="M68.1853 9.07659V6.96909C68.1853 25.6366 70.0247 28.7671 78.0005 28.7671C70.0247 28.7671 68.1853 31.8437 68.1853 50.0574C68.1853 31.8206 66.3769 28.7671 58.5557 28.7671C66.3769 28.7671 68.1853 25.9443 68.1853 9.07659Z" fill="#F9ED35"/>
<path d="M19.2972 29.3285C19.2107 28.6805 19.2989 28.0213 19.5529 27.4184C19.8069 26.8156 20.2174 26.2909 20.7425 25.8981C22.2882 24.8059 23.7334 26.5134 24.0966 27.8979C24.1151 27.9672 24.1604 28.0265 24.2228 28.0625C24.2851 28.0986 24.3593 28.1085 24.4289 28.0902C24.4986 28.0718 24.5581 28.0267 24.5944 27.9646C24.6306 27.9026 24.6406 27.8288 24.6222 27.7594C24.2203 26.2211 22.6669 24.3905 20.9048 25.1981C20.1442 25.5991 19.5293 26.2275 19.1466 26.9947C18.7639 27.7619 18.6328 28.6293 18.7717 29.4747C18.8181 29.8208 19.3436 29.6746 19.2972 29.3285Z" fill="#344A48"/>
<path d="M37.6357 23.2676C37.8134 21.9138 38.2771 20.7755 39.7996 20.614C41.0748 20.4832 41.6931 21.4293 42.3268 22.3523C42.52 22.6445 42.9915 22.3523 42.7983 22.0831C41.9636 20.8601 41.0748 19.7756 39.4209 20.114C37.767 20.4524 37.2879 21.7677 37.1024 23.2676C37.056 23.6137 37.6047 23.606 37.6511 23.2676H37.6357Z" fill="#344A48"/>
</svg>
