<svg width="308" height="186" viewBox="0 0 308 186" fill="none" xmlns="http://www.w3.org/2000/svg">
<path fill-rule="evenodd" clip-rule="evenodd" d="M89.1215 106.032C87.989 99.7827 91.8567 99.9061 99.572 100.804C116.173 102.735 132.748 103.417 149.104 103.729C171.379 104.157 193.408 103.649 215.607 103.767C229.604 103.841 241.657 99.8851 255.171 99.3576C267.184 98.8886 276.166 94.9596 285.894 91.7009C287.436 91.1846 288.451 90.0155 290.011 89.5339C292.595 88.7363 291.021 83.0082 298.292 87.4282C304.572 91.2438 307.907 94.4102 304.713 99.11C300.035 105.988 290.63 108.463 281.329 110.933C255.151 117.888 226.305 119.575 197.42 121C166.975 122.503 135.779 121.498 104.205 118.3C91.2056 116.983 77.9893 116.169 64.7025 111.931C72.0601 110.169 80.3952 112.45 88.2251 112.905C96.9479 113.409 105.793 114.509 114.591 115.451C117.256 115.736 119.694 115.985 120.585 113.904C121.738 114.531 122.874 115.512 123.968 115.661C143.522 118.346 162.519 118.599 181.182 117.518C182.782 117.424 182.043 116.152 182.075 115.349C183.416 116.697 184.948 117.782 187.052 117.714C200.681 117.287 214.619 117.61 227.309 114.811C211.869 113.865 197.791 117.23 182.102 115.428C162.079 116.783 141.415 115.59 120.637 113.94C115.118 113.607 109.608 113.325 104.08 112.928C99.3184 112.583 99.8083 112.4 97.0636 108.443C95.8802 106.741 92.0258 106.091 89.1216 106.009L89.1215 106.032Z" fill="#FDC157"/>
<path fill-rule="evenodd" clip-rule="evenodd" d="M84.2442 106.681C82.8884 105.52 81.2493 105.264 80.5455 106.367C79.9257 107.331 81.2893 108.083 82.7394 108.332C84.153 108.574 85.8332 108.402 86.7472 110.779C80.4213 111.356 73.7575 110.165 67.8555 108.272C63.242 106.792 57.3606 109.389 53.5364 103.842C52.8391 102.826 50.2815 106.804 46.2539 105.518C41.4256 103.972 36.2092 103.597 31.4357 101.948C23.4455 99.1853 15.083 98.7545 7.15837 95.7086C4.9393 94.8558 2.61769 94.5922 2.06981 92.3672C1.74929 91.0675 2.5499 90.2274 3.8894 89.7156C4.53892 94.0024 9.72342 86.1823 10.1064 91.9363C10.271 94.4193 12.4283 92.8771 13.2246 92.6276C17.0454 91.4411 21.5755 95.1466 25.479 93.1751C26.2409 92.7926 28.9035 95.1179 28.1129 96.8712C26.8184 99.7377 30.0015 99.9734 31.8941 100.104C35.3354 100.337 32.5504 98.4871 32.5875 97.4479C32.7374 93.2043 37.7609 95.1139 40.1926 95.8009C45.3814 97.2681 50.018 99.3736 55.4055 97.8496C58.8858 96.8632 57.5674 101.104 60.8797 102.135C62.5755 100.349 65.4986 99.3742 69.4106 99.393C70.3254 101.172 66.3963 101.655 68.7641 104.003C73.6066 104.681 79.4535 99.4951 84.2418 106.698C84.2439 106.701 84.2442 106.681 84.2442 106.681Z" fill="#FDC157"/>
<path fill-rule="evenodd" clip-rule="evenodd" d="M30.1395 105.36C35.3649 104.177 40.5131 105.586 47.3089 108.195C40.396 109.82 35.3442 106.421 30.1395 105.36Z" fill="#FDC157"/>
</svg>
