<svg width="192" height="32" viewBox="0 0 192 32" fill="none" xmlns="http://www.w3.org/2000/svg">
<path d="M18.3066 4.68002L20.6533 9.37335C20.9733 10.0267 21.8266 10.6534 22.5466 10.7734L26.7999 11.48C29.5199 11.9334 30.1599 13.9067 28.1999 15.8534L24.8933 19.16C24.3333 19.72 24.0266 20.8 24.1999 21.5734L25.1466 25.6667C25.8933 28.9067 24.1733 30.16 21.3066 28.4667L17.3199 26.1067C16.5999 25.68 15.4133 25.68 14.6799 26.1067L10.6933 28.4667C7.83994 30.16 6.10661 28.8934 6.85327 25.6667L7.79994 21.5734C7.97327 20.8 7.66661 19.72 7.10661 19.16L3.79994 15.8534C1.85327 13.9067 2.47994 11.9334 5.19994 11.48L9.45327 10.7734C10.1599 10.6534 11.0133 10.0267 11.3333 9.37335L13.6799 4.68002C14.9599 2.13335 17.0399 2.13335 18.3066 4.68002Z" fill="#0E8585"/>
<path d="M58.3066 4.68002L60.6533 9.37335C60.9733 10.0267 61.8266 10.6534 62.5466 10.7734L66.8 11.48C69.52 11.9334 70.16 13.9067 68.2 15.8534L64.8933 19.16C64.3333 19.72 64.0266 20.8 64.2 21.5734L65.1466 25.6667C65.8933 28.9067 64.1733 30.16 61.3066 28.4667L57.32 26.1067C56.6 25.68 55.4133 25.68 54.68 26.1067L50.6933 28.4667C47.84 30.16 46.1066 28.8934 46.8533 25.6667L47.8 21.5734C47.9733 20.8 47.6666 19.72 47.1066 19.16L43.8 15.8534C41.8533 13.9067 42.48 11.9334 45.2 11.48L49.4533 10.7734C50.16 10.6534 51.0133 10.0267 51.3333 9.37335L53.68 4.68002C54.96 2.13335 57.04 2.13335 58.3066 4.68002Z" fill="#0E8585"/>
<path d="M98.3066 4.68002L100.653 9.37335C100.973 10.0267 101.827 10.6534 102.547 10.7734L106.8 11.48C109.52 11.9334 110.16 13.9067 108.2 15.8534L104.893 19.16C104.333 19.72 104.027 20.8 104.2 21.5734L105.147 25.6667C105.893 28.9067 104.173 30.16 101.307 28.4667L97.32 26.1067C96.6 25.68 95.4133 25.68 94.68 26.1067L90.6933 28.4667C87.84 30.16 86.1066 28.8934 86.8533 25.6667L87.8 21.5734C87.9733 20.8 87.6666 19.72 87.1066 19.16L83.8 15.8534C81.8533 13.9067 82.48 11.9334 85.2 11.48L89.4533 10.7734C90.16 10.6534 91.0133 10.0267 91.3333 9.37335L93.68 4.68002C94.96 2.13335 97.04 2.13335 98.3066 4.68002Z" fill="#0E8585"/>
<path d="M138.307 4.68002L140.653 9.37335C140.973 10.0267 141.827 10.6534 142.547 10.7734L146.8 11.48C149.52 11.9334 150.16 13.9067 148.2 15.8534L144.893 19.16C144.333 19.72 144.027 20.8 144.2 21.5734L145.147 25.6667C145.893 28.9067 144.173 30.16 141.307 28.4667L137.32 26.1067C136.6 25.68 135.413 25.68 134.68 26.1067L130.693 28.4667C127.84 30.16 126.107 28.8934 126.853 25.6667L127.8 21.5734C127.973 20.8 127.667 19.72 127.107 19.16L123.8 15.8534C121.853 13.9067 122.48 11.9334 125.2 11.48L129.453 10.7734C130.16 10.6534 131.013 10.0267 131.333 9.37335L133.68 4.68002C134.96 2.13335 137.04 2.13335 138.307 4.68002Z" fill="#0E8585"/>
<path d="M178.307 4.68002L180.653 9.37335C180.973 10.0267 181.827 10.6534 182.547 10.7734L186.8 11.48C189.52 11.9334 190.16 13.9067 188.2 15.8534L184.893 19.16C184.333 19.72 184.027 20.8 184.2 21.5734L185.147 25.6667C185.893 28.9067 184.173 30.16 181.307 28.4667L177.32 26.1067C176.6 25.68 175.413 25.68 174.68 26.1067L170.693 28.4667C167.84 30.16 166.107 28.8934 166.853 25.6667L167.8 21.5734C167.973 20.8 167.667 19.72 167.107 19.16L163.8 15.8534C161.853 13.9067 162.48 11.9334 165.2 11.48L169.453 10.7734C170.16 10.6534 171.013 10.0267 171.333 9.37335L173.68 4.68002C174.96 2.13335 177.04 2.13335 178.307 4.68002Z" fill="#0E8585"/>
</svg>
