<svg width="23" height="23" viewBox="0 0 23 23" fill="none" xmlns="http://www.w3.org/2000/svg">
<path d="M22.9924 11.3712C22.9924 17.6513 17.9013 22.7424 11.6212 22.7424C5.34105 22.7424 0.25 17.6513 0.25 11.3712C0.25 5.09105 5.34105 0 11.6212 0C17.9013 0 22.9924 5.09105 22.9924 11.3712Z" fill="url(#paint0_linear_326_457)"/>
<path d="M9.80179 14.7825V22.5149C9.80179 22.6405 9.90361 22.7424 10.0292 22.7424H13.2131C13.3387 22.7424 13.4406 22.6405 13.4406 22.5149V14.7825C13.4406 14.6569 13.5424 14.5551 13.668 14.5551H15.9422C16.0678 14.5551 16.1697 14.4533 16.1697 14.3277V11.5986C16.1697 11.473 16.0678 11.3712 15.9422 11.3712H13.668C13.5424 11.3712 13.4406 11.2695 13.4406 11.1439V9.09694C13.4406 8.18725 14.5777 7.7324 15.0325 7.7324H16.3971C16.5227 7.7324 16.6245 7.63058 16.6245 7.50498V4.7759C16.6245 4.65029 16.5227 4.54847 16.3971 4.54847H13.4406C11.2573 4.54847 9.80179 6.82271 9.80179 8.18725V11.1438C9.80179 11.2694 9.69997 11.3712 9.57437 11.3712H7.30013C7.17453 11.3712 7.07271 11.473 7.07271 11.5986V14.3277C7.07271 14.4533 7.17453 14.5551 7.30013 14.5551H9.57437C9.69997 14.5551 9.80179 14.6569 9.80179 14.7825Z" fill="white"/>
<defs>
<linearGradient id="paint0_linear_326_457" x1="11.6212" y1="0" x2="11.6212" y2="22.7424" gradientUnits="userSpaceOnUse">
<stop stop-color="#18ACFE"/>
<stop offset="1" stop-color="#0165E1"/>
</linearGradient>
</defs>
</svg>
