<svg width="20" height="19" viewBox="0 0 20 19" fill="none" xmlns="http://www.w3.org/2000/svg">
<path d="M3.89443 8.55279L4.22984 9.22361L3.89443 8.55279ZM7.42229 6.78886L7.08688 6.11804L7.42229 6.78886ZM7.42229 3.21115L7.08688 3.88197L7.42229 3.21115ZM3.89443 1.44722L4.22984 0.776396V0.776396L3.89443 1.44722ZM12 2.25C11.5858 2.25 11.25 2.58579 11.25 3C11.25 3.41421 11.5858 3.75 12 3.75V2.25ZM19 3.75C19.4142 3.75 19.75 3.41421 19.75 3C19.75 2.58579 19.4142 2.25 19 2.25V3.75ZM12 7.25C11.5858 7.25 11.25 7.58579 11.25 8C11.25 8.41421 11.5858 8.75 12 8.75V7.25ZM19 8.75C19.4142 8.75 19.75 8.41421 19.75 8C19.75 7.58579 19.4142 7.25 19 7.25V8.75ZM1 12.25C0.585786 12.25 0.25 12.5858 0.25 13C0.25 13.4142 0.585786 13.75 1 13.75V12.25ZM19 13.75C19.4142 13.75 19.75 13.4142 19.75 13C19.75 12.5858 19.4142 12.25 19 12.25V13.75ZM1 17.25C0.585786 17.25 0.25 17.5858 0.25 18C0.25 18.4142 0.585786 18.75 1 18.75V17.25ZM19 18.75C19.4142 18.75 19.75 18.4142 19.75 18C19.75 17.5858 19.4142 17.25 19 17.25V18.75ZM4.22984 9.22361L7.7577 7.45968L7.08688 6.11804L3.55902 7.88197L4.22984 9.22361ZM7.7577 2.54033L4.22984 0.776396L3.55902 2.11804L7.08688 3.88197L7.7577 2.54033ZM7.7577 7.45968C9.78458 6.44624 9.78459 3.55377 7.7577 2.54033L7.08688 3.88197C8.00819 4.34262 8.00819 5.65738 7.08688 6.11804L7.7577 7.45968ZM3.55902 7.88197C2.72789 8.29753 1.75 7.69316 1.75 6.76393H0.25C0.25 8.80823 2.40136 10.1378 4.22984 9.22361L3.55902 7.88197ZM4.22984 0.776396C2.40136 -0.137842 0.25 1.19177 0.25 3.23607H1.75C1.75 2.30684 2.72789 1.70247 3.55902 2.11804L4.22984 0.776396ZM12 3.75H19V2.25H12V3.75ZM12 8.75H19V7.25H12V8.75ZM1 13.75H19V12.25H1V13.75ZM1 18.75H19V17.25H1V18.75ZM0.25 3.23607V6.76393H1.75V3.23607H0.25Z" fill="#111111"/>
</svg>
