<svg width="80" height="108" viewBox="0 0 80 108" fill="none" xmlns="http://www.w3.org/2000/svg">
<g clip-path="url(#clip0_183_1665)">
<path d="M26.1804 80.6297C25.9384 79.5015 26.4927 78.2601 26.6611 77.1532C26.7392 76.6328 26.1592 76.4411 25.8436 76.7046C25.8279 76.6878 25.8134 76.671 25.7967 76.6553C24.8186 75.739 23.4066 74.4258 21.9399 74.9933C20.365 75.6033 20.142 77.6175 20.4186 79.0675C20.6651 80.3594 21.6577 81.5258 22.4764 82.4981C23.3686 83.5567 24.4327 84.6344 25.809 84.9653C26.3421 85.0954 26.9745 84.5313 26.8529 83.9739C26.6064 82.8603 26.4135 81.74 26.1804 80.6297ZM24.7483 81.7355C24.7483 81.8286 24.755 81.9205 24.7628 82.0136C24.7048 81.9463 24.6479 81.8779 24.5921 81.8084C24.6442 81.7873 24.6949 81.763 24.7438 81.7355H24.7483Z" fill="#A59BB3"/>
<path d="M55.2348 80.8103C55.1157 80.7654 54.9904 80.7397 54.8634 80.734C54.7571 80.3136 54.5674 79.9192 54.3057 79.5744C54.1373 79.3501 53.6153 79.4623 53.651 79.7886C53.699 80.2735 53.6964 80.7622 53.6432 81.2465C53.5302 81.3661 53.4526 81.5149 53.4191 81.6764C53.3856 81.8378 53.3976 82.0055 53.4536 82.1605C53.4625 82.1852 53.4703 82.211 53.4803 82.2356C53.2703 83.1971 52.9362 84.1268 52.4866 85.0012C52.481 85.0516 52.4765 85.1021 52.4687 85.1514C52.3985 85.5843 52.3226 86.015 52.2334 86.4445C52.2976 86.5332 52.3814 86.6059 52.4781 86.6569C52.5748 86.7078 52.6819 86.7357 52.7911 86.7383C53.6612 86.8133 54.5366 86.8009 55.4043 86.7013C55.8828 86.6374 56.3021 86.3503 56.4415 85.9163C56.9869 84.2206 57.2323 81.5863 55.2348 80.8103Z" fill="#A59BB3"/>
<path d="M50.0736 98.7256C49.2526 99.4301 48.3368 100.015 47.3533 100.462C46.5124 100.859 45.5186 100.881 44.7312 101.369C44.3877 101.582 44.4724 102.195 44.8238 102.415C45.0809 102.573 45.3697 102.671 45.6692 102.703C45.5559 102.951 45.467 103.21 45.4037 103.475C44.9576 105.269 46.5057 106.739 47.9601 106.839C50.6614 107.027 51.3194 102.054 51.4767 99.8616C51.5325 99.0889 50.725 98.1536 50.0736 98.7256Z" fill="#A59BB3"/>
<path d="M33.9926 99.6687C32.3542 99.3906 30.6812 99.1629 29.1354 98.3476C28.5978 98.0639 28.1873 99.0115 28.5621 99.6216C28.6803 99.8123 28.7941 99.9861 28.909 100.152C28.8998 100.156 28.8909 100.16 28.8822 100.164C27.7367 100.837 27.1445 103.118 27.1099 104.762C27.0887 105.741 27.691 106.236 28.2565 106.239C30.5831 106.248 32.4089 104.152 34.2793 102.136C34.915 101.451 34.7912 99.8033 33.9926 99.6687Z" fill="#A59BB3"/>
<path d="M26.6693 79.7427C26.602 78.9012 26.6256 78.0548 26.7395 77.2183C26.7395 77.1712 26.7395 77.1252 26.7395 77.0792C26.7395 76.7764 26.2488 76.6946 26.1506 76.9817C25.7022 78.2637 25.3988 79.5924 25.2461 80.9427C25.2461 80.9494 25.2461 80.955 25.2383 80.9617C24.5691 83.0734 21.5041 79.0115 21.0446 78.2635C20.8138 77.8867 20.2382 78.1514 20.2773 78.5573C20.4368 80.1778 21.599 82.0238 22.8771 82.9949C23.2293 83.2692 23.6313 83.4718 24.0605 83.5916C24.1121 83.6917 24.1783 83.7835 24.2568 83.8641L24.2947 83.9033L24.3126 83.9224C24.3605 83.9773 24.4062 84.0345 24.452 84.0872C24.5635 84.2184 24.6494 84.3631 24.752 84.4977C25.0219 84.8554 25.4312 85.138 25.835 85.0943C25.835 85.101 25.8417 85.1078 25.845 85.1134C26.1506 85.6629 26.8823 85.2255 26.8711 84.7209C26.841 83.4188 26.5644 82.1763 26.6224 80.8507C26.6343 80.4806 26.6499 80.1113 26.6693 79.7427Z" fill="#897E9B"/>
<path d="M56.371 85.2804C55.6728 84.9743 54.5865 85.3926 53.9664 84.9956C53.9363 84.9754 53.9095 84.9541 53.8827 84.9328C53.8147 84.7926 53.7478 84.6524 53.6898 84.5111C54.3121 82.3007 54.0244 79.7023 53.8013 77.7969C53.7612 77.4605 53.2436 77.5031 53.2001 77.8496C53.0105 79.229 52.9436 80.5871 52.8343 81.9654C52.8088 82.2783 52.7652 82.5895 52.7038 82.8973C52.6667 82.9337 52.6344 82.9748 52.6079 83.0196C52.5912 83.2674 52.5834 83.5164 52.5756 83.7664C52.4908 84.215 52.4138 84.6636 52.3447 85.1122C52.3001 85.397 52 86.0699 52.1975 86.329C52.2125 86.3484 52.2297 86.3661 52.2488 86.3817C52.2131 86.5521 52.1807 86.7181 52.1372 86.8919C52.2408 86.892 52.3431 86.8682 52.4361 86.8223C52.5291 86.7765 52.6104 86.7097 52.6737 86.6273C52.6938 86.6015 52.7094 86.5735 52.7284 86.5477C52.96 86.5488 53.1908 86.5183 53.4143 86.4568C54.2764 86.8291 55.6249 86.8673 56.3543 86.4568C56.8696 86.1596 56.8517 85.4912 56.371 85.2804Z" fill="#897E9B"/>
<path d="M51.2135 98.7771C51.2845 98.6747 51.3472 98.5667 51.4009 98.4542C51.4206 98.4049 51.4288 98.3517 51.4248 98.2988C51.4208 98.2458 51.4048 98.1945 51.378 98.1487C51.3511 98.103 51.3142 98.0641 51.27 98.035C51.2258 98.0059 51.1756 97.9874 51.1232 97.9809C50.1194 97.9596 49.3085 98.7256 48.4743 99.2145C47.6054 99.7248 46.7354 100.224 45.8677 100.735C45.4429 100.854 45.0272 101.004 44.6241 101.184C44.5489 101.193 44.4785 101.226 44.4222 101.277C44.0787 101.588 44.2271 102.341 44.7568 102.33C45.4753 102.305 46.1908 102.224 46.8972 102.09C46.9451 102.144 47.0051 102.187 47.0723 102.214C47.1396 102.241 47.2121 102.251 47.2842 102.245C47.7303 102.175 48.1608 102.061 48.6148 102.07C49.0687 102.079 49.1022 102.942 49.0609 103.292C48.9393 104.388 48.201 105.369 47.4994 106.031C46.8793 106.615 47.5742 107.883 48.2969 107.356C49.3554 106.586 50.3625 104.977 50.4383 103.394C50.4484 103.387 50.4629 103.386 50.4718 103.377C50.5885 103.281 50.6794 103.156 50.7361 103.015C50.8627 102.923 50.9556 102.791 51.0005 102.641C51.2748 101.819 51.3518 100.916 51.6262 100.094C51.6924 99.9029 51.6909 99.6949 51.6217 99.5052C51.5526 99.3154 51.4201 99.1556 51.247 99.053C51.247 98.9835 51.238 98.9151 51.2269 98.8433C51.2235 98.8211 51.219 98.799 51.2135 98.7771Z" fill="#897E9B"/>
<path d="M35.9204 99.6541C35.1029 98.7132 33.8626 99.2549 32.8432 99.1192C31.5048 98.9398 30.2411 98.2153 28.8983 98.1357C28.4153 98.1076 28.1834 98.9868 28.6016 99.3592C29.4258 100.097 30.3928 100.539 31.3699 100.817C31.5405 101.022 31.6844 101.266 31.661 101.482C31.5929 102.109 31.11 102.7 30.8033 103.082C30.5909 103.35 30.355 103.597 30.0984 103.821L30.008 103.865C29.8787 103.93 29.7678 104.026 29.6857 104.146C29.0868 104.578 28.4588 104.867 27.8019 105.21C27.2353 105.506 27.29 106.78 27.8476 106.908C28.499 107.061 29.2095 106.54 29.8117 106.051C29.8801 106.089 29.9568 106.109 30.0348 106.109C30.1128 106.109 30.1896 106.089 30.2579 106.051C31.7781 105.341 33.7221 103.853 34.5898 101.694C34.6557 101.529 34.6952 101.355 34.7069 101.177C34.9585 101.122 35.1968 101.017 35.4081 100.869C35.6194 100.721 35.7996 100.533 35.9383 100.315C36.0587 100.135 36.0442 99.7954 35.9204 99.6541Z" fill="#897E9B"/>
<path d="M22.4402 74.5951C20.8553 74.2127 20.6412 76.0754 20.6066 77.1823C20.5955 77.5434 21.1186 77.6567 21.1743 77.2765C21.2301 76.8963 21.3082 75.8186 21.7956 75.6762C21.7666 75.6997 22.0119 75.7244 22.0856 75.7569C22.3035 75.8578 22.5151 75.972 22.7191 76.099C23.6191 76.6384 24.3519 77.4111 25.4639 77.4122C25.7606 77.4122 25.9513 76.9804 25.755 76.7584C24.9754 75.8803 23.6002 74.8732 22.4402 74.5951Z" fill="#BCB5C6"/>
<path d="M54.2647 79.4555C53.9836 79.1819 53.417 79.5497 53.533 79.8929C53.8866 80.9358 54.6383 81.7994 55.1871 82.7526C55.5651 83.3774 55.7942 84.0818 55.8563 84.8105C55.8897 85.3062 55.8797 85.5114 56.3615 85.7559C56.4203 85.779 56.4836 85.7881 56.5465 85.7825C56.6094 85.7768 56.6702 85.7566 56.724 85.7233L56.9181 85.6112C57.1266 85.4934 57.2883 85.2512 57.2761 85.0415C57.1523 82.9533 55.7536 80.9134 54.2647 79.4555Z" fill="#BCB5C6"/>
<path d="M46.53 103.15C46.346 102.658 45.9478 102.273 45.689 101.826C45.6572 101.762 45.6011 101.712 45.5331 101.689C45.465 101.666 45.3905 101.67 45.326 101.702C45.2615 101.734 45.2123 101.791 45.1892 101.859C45.1661 101.928 45.171 102.003 45.2028 102.067C45.3779 102.535 45.3556 103.008 45.5128 103.467C45.7035 104.019 45.882 104.573 46.0705 105.123C46.3582 105.956 46.656 107.083 47.487 107.342C47.5303 107.354 47.5759 107.357 47.6204 107.349C47.6649 107.342 47.7073 107.325 47.7445 107.3C47.7818 107.274 47.8129 107.24 47.8359 107.201C47.8588 107.162 47.873 107.119 47.8773 107.074C48.0234 106.202 47.3197 105.287 47.0096 104.463C46.849 104.027 46.694 103.586 46.53 103.15Z" fill="#BCB5C6"/>
<path d="M29.133 99.4892C28.7538 100.216 28.446 101.047 28.1493 101.851C27.8392 102.69 27.8303 103.795 27.6217 104.692C27.4745 105.324 28.2218 105.488 28.2642 104.717C28.3155 103.778 28.7895 103.26 29.1007 102.515C29.4029 101.793 29.7699 101.118 30.042 100.367C30.3532 99.5038 29.5434 98.7009 29.133 99.4892Z" fill="#BCB5C6"/>
<path d="M52.6275 77.8956C53.9659 79.4779 55.9546 80.7082 56.7219 82.7055C57.8027 85.5192 54.6675 86.6059 52.4926 86.2942C51.7119 86.182 51.3773 87.3775 52.1636 87.4896C54.5972 87.8373 57.7202 87.1218 58.1049 84.2475C58.5321 81.0603 55.2687 79.1135 53.4997 77.0175C52.9845 76.4063 52.1167 77.2889 52.6275 77.8944V77.8956Z" fill="#851919"/>
<path d="M26.933 76.0271C25.4965 74.9382 24.0967 73.5398 22.1951 73.4713C19.9644 73.3906 19.4871 75.6436 19.4815 77.3965C19.467 81.5391 22.9044 85.0908 26.6865 86.1853C27.4528 86.4096 27.7762 85.2097 27.0144 84.9887C23.9874 84.1129 21.5705 81.6961 20.8489 78.5964C20.5143 77.1778 20.5143 74.4235 22.62 74.7487C24.0175 74.9651 25.2288 76.2817 26.3107 77.1038C26.9464 77.586 27.5598 76.5083 26.933 76.0328V76.0271Z" fill="#851919"/>
<path d="M28.8212 97.5736C27.5753 99.4364 24.1814 108.058 29.1658 107.568C31.1734 107.371 32.7873 105.206 33.916 103.755C34.6466 102.815 35.3169 101.831 35.9682 100.839C36.3999 100.18 37.368 99.165 37.2129 98.3306C37.1863 98.2341 37.1229 98.1521 37.0363 98.1025C36.9498 98.053 36.8473 98.0398 36.7512 98.0659C36.1824 98.2151 35.9247 98.8824 35.6359 99.3455C35.1079 100.179 34.564 101.002 34.0041 101.813C32.9144 103.383 31.6809 105.065 30.0514 106.098C29.419 106.5 28.6795 106.68 28.0561 106.158C27.3534 105.572 27.5843 104.28 27.727 103.514C28.0895 101.577 29.2707 99.8132 29.5305 97.882C29.5885 97.457 29.0844 97.1979 28.8256 97.5837L28.8212 97.5736Z" fill="#851919"/>
<path d="M44.2915 101.267C44.1164 103.564 45.2685 108.844 48.5376 107.883C50.2318 107.385 51.0794 105.54 51.549 103.992C52.2371 101.723 52.4346 98.9218 52.062 96.5903C51.9583 95.941 50.9857 96.1339 50.9646 96.7406C50.8954 98.619 51.0337 100.441 50.7326 102.32C50.4838 103.871 49.9864 105.747 48.5688 106.621C46.0705 108.159 45.4515 102.522 45.0098 101.171C44.984 101.088 44.9295 101.016 44.856 100.969C44.7825 100.922 44.6948 100.903 44.6085 100.915C44.5222 100.926 44.4429 100.969 44.3847 101.034C44.3264 101.099 44.293 101.183 44.2904 101.27L44.2915 101.267Z" fill="#851919"/>
<path d="M63.6858 16.5764C49.9171 1.01501 17.926 3.28933 10.2224 27.0396C6.56745 38.3147 8.96765 48.382 20.3541 61.4594C22.1196 63.4881 23.0309 66.5856 23.8629 70.8224H23.9198C24.4395 72.6168 25.3374 74.3629 26.6814 74.9909C28.6711 75.8241 51.7128 75.2152 53.3779 74.8249C55.0632 74.429 56.0625 72.9184 56.7897 70.745H56.9425C58.3512 63.9187 60.2183 60.1047 62.9118 56.8569C69.7655 48.5906 77.3877 32.0637 63.6858 16.5764Z" fill="#FDC157"/>
<path d="M70.3252 30.9793C69.9137 28.6556 69.0772 26.4441 68.0879 24.3145C67.4086 22.8566 66.5164 21.1037 65.2884 19.9015C64.7393 18.8951 64.1303 17.9229 63.4648 16.9902C62.3941 15.5032 61.1226 14.3368 59.6917 13.2188C58.6221 12.3833 57.3617 11.8158 56.1337 11.2001C54.9667 10.098 53.6848 9.12568 52.3104 8.30004C51.7962 7.99164 51.3066 8.68245 51.6903 9.10749C55.9843 13.8782 59.3861 19.2511 61.4728 25.1791C62.0673 27.7703 62.4072 30.4139 62.4878 33.0719C62.6562 38.6512 61.0234 43.8604 58.7247 48.8845C56.426 53.9086 53.6655 58.7197 51.688 63.9008C51.0289 65.6256 50.5816 67.4155 49.6804 69.0079C48.7703 70.2415 47.5078 71.1129 46.1348 71.7992C45.5202 72.1054 44.8131 72.434 44.0647 72.72C43.4335 72.7671 42.8078 72.7973 42.1943 72.8198C39.1338 72.9319 36.0767 72.748 33.0252 72.5259C30.5859 72.3488 27.7363 72.1357 25.3762 72.9028C25.2638 72.9391 25.1658 73.0104 25.0963 73.1063C25.0267 73.2022 24.9893 73.3179 24.9893 73.4366C24.9893 73.5553 25.0267 73.6709 25.0963 73.7669C25.1658 73.8628 25.2638 73.9341 25.3762 73.9704C28.0173 74.8586 31.0075 75.1468 33.7669 75.4115C37.066 75.7277 40.3864 75.9823 43.7 75.7916C45.5649 75.6795 47.4397 75.426 49.231 74.8945C50.2348 75.6862 51.1984 75.6391 52.0795 75.0975C52.2719 75.2404 52.5001 75.3266 52.7384 75.3464C52.9768 75.3662 53.216 75.3188 53.4291 75.2096C55.392 74.2485 56.1215 72.0549 56.2877 69.969C56.8621 68.9956 57.1431 67.9504 56.8398 66.9411C56.8754 66.8413 56.9089 66.7493 56.939 66.6618C57.8547 65.5662 58.5462 64.1374 59.2087 62.9958C60.4044 60.9334 61.5933 58.8711 62.8302 56.8278C65.2627 52.8197 67.6027 48.7746 69.211 44.3493C70.7937 40.0115 71.1283 35.5279 70.3252 30.9793Z" fill="#F2990A"/>
<path d="M48.4081 8.32803C43.5787 6.11203 37.2715 6.60322 32.286 7.9714C31.2784 8.24757 30.2859 8.5766 29.3125 8.95717C29.1929 8.89343 29.0535 8.87857 28.9233 8.91567C24.1608 10.0371 20.4133 12.4741 17.1007 16.0515C14.0894 19.3037 11.2486 23.5653 10.4288 28.0242C9.94478 29.2668 9.52132 30.5378 9.15847 31.8372C8.36212 34.6722 7.99964 37.7125 8.47589 40.6451C8.8841 43.1605 9.86113 46.5204 11.736 48.483C12.3595 50.7786 13.3566 53.3355 14.9838 54.8517C15.1322 55.0816 15.2839 55.3093 15.4367 55.5336C17.6841 58.8206 20.3676 61.7902 22.3874 65.2353C23.3912 66.9534 24.1541 68.8857 24.714 70.7933C25.149 72.2736 25.4602 73.4724 26.4985 74.6802C26.6368 74.8417 26.9213 74.6242 26.7941 74.4559C25.5728 72.7939 26.348 71.0546 26.1249 69.1683C25.9317 67.5193 25.4666 65.9141 24.7486 64.4189C23.1291 60.9513 20.5215 58.0804 18.2841 55.0256C16.6298 52.7471 15.24 50.286 14.1418 47.6901C13.9321 46.9365 13.7514 46.1761 13.5841 45.4169C12.7599 41.5793 12.7309 37.616 13.1714 33.7313C13.1848 33.6102 13.2049 33.4913 13.2205 33.3713C13.6274 32.992 14.1479 32.7593 14.7006 32.7097C16.8755 34.2483 19.7318 33.6528 22.0194 32.2712C24.192 30.9591 25.7948 28.6466 26.9358 26.4261C28.5686 23.2445 29.6639 17.903 25.3431 16.3173C24.7296 16.0927 24.0881 15.9549 23.437 15.908C23.3673 15.6593 23.3509 15.3986 23.389 15.1431C26.288 13.0217 29.5043 11.3776 32.9173 10.2726C35.3331 9.48762 37.8247 9.08165 40.3365 8.74633C43.0077 8.39083 45.6231 8.7654 48.2944 8.75306C48.5063 8.75194 48.6223 8.42559 48.4081 8.32803Z" fill="#FFDC7B"/>
<path d="M52.3003 82.4936C52.1308 82.5071 51.9601 82.5239 51.7906 82.5396C51.8464 81.4585 52.0014 80.3886 51.9981 79.3131L52.8803 79.2425C55.6173 78.2421 54.9537 75.1581 52.3003 75.4082C50.8167 75.5327 49.3416 75.7439 47.8825 76.0407C46.3801 76.0138 44.8767 75.9746 43.3732 75.9802C41.8697 75.9858 40.3618 76.0261 38.8383 76.0261C38.2806 75.3768 37.3883 75.4654 36.8028 75.9948C36.6355 75.9948 36.4682 75.9847 36.2998 75.9768C36.0538 75.7805 35.7544 75.6639 35.4411 75.6425C35.1278 75.6211 34.8155 75.6958 34.5453 75.8568C33.3117 75.7492 32.0879 75.5471 30.8848 75.2523C30.2368 75.0886 29.2542 74.9249 28.5192 75.1851C28.034 75.1054 27.5366 75.3252 27.4117 75.9701C27.1674 77.2418 27.2254 78.481 27.3057 79.7673C27.3175 80.0382 27.4201 80.2971 27.5968 80.5019C26.8641 80.7385 26.1982 81.0279 25.6885 81.4058L25.7822 81.3979C24.7996 82.4005 25.1699 83.9212 26.4346 84.2397C26.6031 84.2823 26.9209 84.2835 27.3581 84.252C27.4418 85.2064 27.6392 86.144 27.8154 87.0849C27.8154 87.2295 27.8154 87.3753 27.8154 87.5211C27.0001 87.7701 26.254 88.0818 25.6963 88.4912L25.79 88.4833C24.8074 89.4859 25.1777 91.0077 26.4425 91.3251C26.6655 91.3823 27.1708 91.3666 27.8757 91.2914C27.8924 91.6458 27.9047 92.0002 27.927 92.3546C27.9515 92.7064 28.0749 93.0439 28.2828 93.328C27.3425 93.6824 26.9577 94.1534 27.4373 94.7792C27.9615 95.4599 28.9765 96.5993 29.8777 97.6064C32.4552 100.124 34.7093 101.372 35.6462 101.583C36.8887 101.793 42.3605 101.793 43.7703 101.653C47.2523 101.232 50.5682 97.8643 52.3092 95.4106C53.2015 94.1568 52.6204 93.4357 51.4683 93.0151C51.4248 92.894 51.3746 92.774 51.3177 92.654C51.8062 92.2929 52.0605 91.6245 51.9635 90.9371C51.7516 89.441 51.852 87.9215 51.8743 86.4052L52.8892 86.3245C55.6173 85.3275 54.9559 82.2435 52.3003 82.4936Z" fill="#A59BB3"/>
<path d="M31.159 99.0621C30.8333 98.6864 30.3693 98.1649 29.8685 97.6109C29.8351 97.5762 29.7994 97.5392 29.7637 97.5044L31.159 99.0621Z" fill="#A59BB3"/>
<path d="M29.7633 97.5042L27.2627 94.7129C28.0396 95.693 28.8747 96.6252 29.7633 97.5042Z" fill="#A59BB3"/>
<path d="M43.3462 102.221L36.217 102.304C35.8835 105.223 43.2637 105.974 43.3462 102.221Z" fill="#A59BB3"/>
<path d="M53.1714 82.6583C53.0681 82.6307 52.9615 82.6179 52.8546 82.6202C52.7132 82.5271 52.5522 82.4686 52.3843 82.4491C52.2164 82.4296 52.0464 82.4498 51.8876 82.508C49.9681 83.1158 47.8278 83.1383 46.2362 84.2025C46.2028 84.1296 46.1693 84.0567 46.1247 83.985C46.0848 83.9186 46.0318 83.8612 45.969 83.8161C45.9063 83.7711 45.8351 83.7393 45.7597 83.7229C45.6844 83.7064 45.6065 83.7055 45.5308 83.7203C45.4551 83.7351 45.3832 83.7652 45.3194 83.8089C45.1376 83.7136 44.8577 83.7831 44.8097 84.0119C44.6569 84.7649 44.3388 85.4742 43.8784 86.0877C43.8231 86.1572 43.761 86.221 43.6933 86.2784C38.1579 87.4996 32.3035 88.2028 27.1719 90.7148C26.6856 90.9537 27.0447 91.6445 27.5221 91.5481C28.7188 91.307 29.9189 91.086 31.1212 90.8752C30.1388 91.1332 29.1882 91.5011 28.2872 91.972C27.7295 92.2669 28.1188 93.1305 28.7066 92.9723C31.0822 92.332 33.6285 92.2008 36.0756 92.0819C36.9544 92.0393 37.8289 91.9305 38.6999 91.8049C38.8104 91.8266 38.924 91.8266 39.0345 91.8049C39.523 91.7062 40.0116 91.6266 40.5012 91.5627C40.548 91.8812 40.7789 92.166 41.1704 92.1436C41.3689 92.1312 41.5674 92.1223 41.766 92.1133C41.8133 92.2208 41.8936 92.3103 41.9952 92.3686C42.0967 92.427 42.2142 92.4511 42.3303 92.4374C44.667 92.2647 43.2761 95.2321 42.6761 96.3782C42.089 97.4951 41.3684 98.5357 40.5302 99.4768C39.7127 100.389 38.8304 100.581 37.7419 100.982C37.086 101.224 37.1095 102.047 37.7419 102.298C38.1861 102.464 38.6704 102.487 39.1282 102.365C39.1715 102.474 39.2472 102.568 39.3451 102.633C39.443 102.698 39.5585 102.732 39.6758 102.729C39.8621 102.715 40.0495 102.724 40.2335 102.756C40.2989 102.768 40.3637 102.783 40.4276 102.802C40.4042 102.802 40.5391 102.86 40.5949 102.892C40.5949 102.91 40.6551 103.004 40.6629 102.979C40.6718 103.03 40.6808 103.091 40.683 103.091C40.6772 103.262 40.7018 103.433 40.7555 103.596C40.886 103.919 41.0745 104.173 41.4247 104.269C41.6296 104.324 41.8471 104.311 42.0434 104.23C42.2398 104.148 42.4041 104.005 42.511 103.82C42.8992 103.095 42.6359 102.201 42.0972 101.613C44.2777 101.509 46.6366 100.643 48.4658 99.5889C50.3373 98.5112 52.636 95.9521 51.6121 93.6205C51.4812 93.3244 51.2936 93.0571 51.0599 92.8339C50.8263 92.6107 50.5512 92.4359 50.2503 92.3197C50.3618 92.3511 50.4823 92.3802 50.5972 92.4127C51.5229 92.6718 52.1854 91.9641 52.2981 91.1096C52.4185 90.1934 52.3371 89.3859 51.9635 88.5673C52.5724 87.9269 52.3605 86.9456 51.8129 86.4858C53.0398 85.9116 54.29 85.0347 54.0357 83.5196C53.9521 83.1024 53.5472 82.7693 53.1714 82.6583ZM47.2144 96.9244C47.2389 96.9356 47.2657 96.9423 47.2913 96.9524C47.1519 97.0432 47.0092 97.1285 46.8642 97.2103C46.979 97.1128 47.0962 97.0174 47.2144 96.9244ZM40.644 102.925L40.6529 102.933L40.644 102.925ZM40.6283 102.912L40.6373 102.917H40.6428L40.6283 102.912ZM46.1537 92.6707C45.9086 92.8019 45.6776 92.9582 45.4644 93.1372C45.4112 92.692 45.2633 92.2636 45.0306 91.8812C45.0997 91.8722 45.1689 91.8643 45.238 91.8531C45.76 91.7746 46.389 91.7556 46.9612 91.6288C47.7419 91.741 48.516 91.8901 49.2855 92.0696C48.2057 91.9592 47.1172 92.1681 46.1537 92.6707Z" fill="#897E9B"/>
<path d="M45.3492 80.4648C43.4688 80.67 41.6508 81.316 39.8551 81.8812C36.1198 83.0565 32.0477 83.4748 28.4274 84.9394C28.1887 84.6882 27.6667 84.7522 27.5887 85.1413C27.5351 85.4045 27.4846 85.6684 27.437 85.933C27.3767 86.2583 27.5228 86.6698 27.8909 86.7371C27.9969 86.7573 28.1017 86.7764 28.2077 86.7943C28.4887 86.8425 28.8345 86.7528 28.9962 86.5027C32.7114 86.2639 36.3574 85.5271 39.9164 84.4426C41.9117 83.8348 43.9015 83.0845 45.9861 82.867C47.8375 82.673 49.6812 82.6505 51.4356 81.953C52.6279 81.4786 52.4249 79.7908 51.4501 79.5486C52.1936 79.1584 52.9046 78.7083 53.5759 78.2028C54.6845 77.3696 54.0778 75.4923 52.5989 75.8702C50.6749 76.3603 48.6952 76.5195 46.7601 76.9311C46.6876 76.8001 46.6052 76.6749 46.5136 76.5565C46.2448 76.2134 45.7451 76.4578 45.6213 76.792C45.328 77.6174 45.6046 78.5606 45.1284 79.3243C44.8529 79.7751 45.0291 80.2102 45.3492 80.4648Z" fill="#897E9B"/>
<path d="M35.8901 78.435C37.4432 78.4479 38.9948 78.3391 40.531 78.1097C41.6988 77.9393 43.3417 77.9348 43.877 76.6956C44.0756 76.2369 43.9785 75.8354 43.5748 75.5371C42.629 74.8407 41.4233 75.3868 40.3671 75.5708C38.8893 75.8276 37.3813 75.8758 35.8868 75.9308C33.0527 76.0351 30.2321 75.7984 27.398 75.97C27.2483 75.9742 27.105 76.0317 26.9936 76.1323C26.8822 76.2329 26.81 76.3701 26.7899 76.5193C26.7698 76.6685 26.8031 76.82 26.8838 76.9468C26.9646 77.0736 27.0875 77.1674 27.2307 77.2115C30.0525 78.1748 32.9256 78.4013 35.8901 78.435Z" fill="#897E9B"/>
<path d="M27.5182 78.4462C27.5267 78.5287 27.5501 78.6089 27.5873 78.6828C27.5873 79.0361 27.604 79.3725 27.8628 79.6507C27.8898 79.678 27.9218 79.6996 27.9571 79.7144C27.9924 79.7292 28.0303 79.7368 28.0686 79.7368C28.1068 79.7368 28.1447 79.7292 28.18 79.7144C28.2153 79.6996 28.2474 79.678 28.2744 79.6507C28.3322 79.5835 28.3796 79.5078 28.4149 79.4264C28.4567 79.4934 28.5025 79.5578 28.5521 79.6193C28.5996 79.667 28.6639 79.6938 28.7311 79.6938C28.7982 79.6938 28.8626 79.667 28.9101 79.6193C29.683 78.7053 29.1499 77.272 28.7896 76.284C28.7582 76.1955 28.7067 76.1156 28.6393 76.0505C28.5718 75.9855 28.4902 75.9371 28.4009 75.9093C28.3116 75.8814 28.2172 75.8749 28.1249 75.8901C28.0327 75.9053 27.9452 75.9419 27.8695 75.997C27.7984 76.0071 27.7305 76.0334 27.671 76.0738C27.6115 76.1142 27.5619 76.1677 27.526 76.2302C27.471 76.2856 27.4397 76.3605 27.439 76.4388C27.427 76.8304 27.4464 77.2223 27.497 77.6107C27.4854 77.8894 27.4925 78.1685 27.5182 78.4462Z" fill="#BCB5C6"/>
<path d="M26.7376 83.7034C26.8619 83.7617 26.9992 83.7861 27.1358 83.7741C27.2888 83.7606 27.4408 83.7374 27.5908 83.7046C27.5906 83.7079 27.5906 83.7113 27.5908 83.7147C27.979 84.4582 29.0051 84.1969 29.2449 83.4971C29.3977 83.0485 29.3051 82.5697 29.4245 82.1099C29.514 81.826 29.6432 81.5565 29.8081 81.3091L30.281 81.1858C32.9523 80.4748 35.648 79.9578 38.3728 79.5036C41.0418 79.055 43.7264 78.6928 46.4032 78.289C47.7315 78.0883 50.3336 78.0984 51.0798 76.7134C51.1198 76.6416 51.1432 76.5616 51.1483 76.4794C51.1534 76.3972 51.14 76.315 51.1092 76.2387C51.0783 76.1624 51.0308 76.0941 50.9701 76.0388C50.9094 75.9836 50.8371 75.9427 50.7585 75.9194C49.129 75.3822 46.6798 76.3108 45.0402 76.5642C41.9731 77.0386 38.9059 77.4782 35.8532 78.0636C34.9297 78.2408 31.5034 78.8823 28.9114 80.0004C28.8295 80.0298 28.7497 80.065 28.6727 80.1058C26.6473 81.0232 25.223 82.2455 26.1075 83.7842C26.1424 83.8418 26.1932 83.8881 26.2538 83.9174C26.3143 83.9466 26.3819 83.9577 26.4486 83.9491C26.5152 83.9406 26.5779 83.9129 26.6292 83.8693C26.6805 83.8257 26.7182 83.7681 26.7376 83.7034Z" fill="#BCB5C6"/>
<path d="M50.7799 82.47C48.9173 82.368 46.9766 83.1261 45.2033 83.6307C43.2492 84.1915 41.3063 84.7825 39.3455 85.3129C37.3614 85.8479 35.3136 86.0127 33.2915 86.3458C32.0302 86.5406 30.7839 86.8239 29.5618 87.1936C29.4928 87.0829 29.3875 86.9999 29.2641 86.9589C29.1407 86.918 29.007 86.9217 28.886 86.9693C28.3878 87.1526 27.9662 87.5006 27.6903 87.9562C26.2738 88.7132 25.4284 89.7685 26.4456 91.2084C26.7735 91.6738 27.6201 91.4069 27.4159 90.7968C27.3826 90.6958 27.3613 90.5912 27.3524 90.4851C27.3524 90.4974 27.3591 90.5098 27.3635 90.5221C27.668 91.3755 29.1481 91.315 29.0365 90.2978C28.9707 89.6956 28.9473 89.1304 29.1748 88.6089C31.2728 87.779 34.5463 87.5087 35.5478 87.3697C37.3447 87.1383 39.1246 86.7884 40.8758 86.3222C42.6402 85.8378 44.3857 85.2815 46.1446 84.7735C47.7529 84.3092 49.4984 84.0782 51.0097 83.3459C51.4625 83.1272 51.2082 82.4936 50.7799 82.47Z" fill="#BCB5C6"/>
<path d="M49.5613 92.3804C48.3913 92.1202 47.2381 92.3187 46.0525 92.3804C44.4799 92.4701 42.9095 92.5822 41.3346 92.6417C38.9746 92.7299 36.6153 92.7957 34.2567 92.839C33.642 92.8482 33.0296 92.9158 32.4276 93.0409C32.4131 93.033 32.4019 93.0218 32.3863 93.014C31.851 92.7291 31.2375 92.5295 30.6263 92.5789C30.4478 92.5841 30.2755 92.6458 30.1339 92.7551C29.9923 92.8645 29.8887 93.016 29.8376 93.188C29.7866 93.3601 29.7908 93.5439 29.8497 93.7134C29.9086 93.8829 30.0192 94.0294 30.1657 94.1321C30.1037 94.1979 30.046 94.2675 29.9928 94.3407C29.9309 94.0263 29.8421 93.7178 29.7274 93.4188C29.5043 92.8581 28.815 92.7146 28.4603 93.2529C27.4008 94.8577 28.8719 97.0759 29.9817 98.2265C31.2531 99.5465 33.302 101.1 35.1936 101.226C35.2374 101.226 35.2806 101.216 35.3198 101.196C35.359 101.176 35.3932 101.148 35.4198 101.113C35.4463 101.077 35.4646 101.037 35.4731 100.994C35.4817 100.95 35.4803 100.906 35.4691 100.863C35.3134 100.437 35.0779 100.044 34.7754 99.7068C34.3147 98.6852 33.5831 97.7421 32.9908 96.8202C32.6228 96.2471 32.2647 95.6371 32.0986 94.9709C31.9982 94.5627 32.5146 94.4259 32.9997 94.3631C34.3259 94.2622 35.7 94.4438 37.0306 94.4371C39.249 94.427 41.4818 94.2913 43.6969 94.1803C45.5985 94.0838 47.9865 94.141 49.6584 93.125C49.9483 92.9545 49.9182 92.4645 49.5613 92.3804Z" fill="#BCB5C6"/>
<path d="M37.296 101.832C36.8499 101.312 36.1372 101.88 36.2454 102.446C36.3859 103.179 36.5744 104.316 37.2782 104.711C37.634 104.91 38.1571 104.742 38.2485 104.314C38.3478 103.848 38.1861 103.495 38.0255 103.07C37.8566 102.617 37.6097 102.198 37.296 101.832Z" fill="#BCB5C6"/>
<path d="M24.2449 70.8202C23.9103 67.0689 22.8429 63.4085 20.3579 60.5263C17.2183 56.8872 14.3853 52.9464 12.2573 48.6153C8.83208 41.6477 8.55771 34.1485 10.9914 26.8232C15.1817 14.2168 27.6455 7.26268 40.4183 7.37595C54.4882 7.49931 67.6324 16.7603 70.249 31.1587C71.5729 38.4482 69.234 45.9238 65.453 52.1008C63.8481 54.7206 61.71 56.9388 60.1284 59.5675C58.1208 62.9083 57.0557 66.7639 56.2549 70.5522C56.0631 71.4617 57.4494 71.8486 57.6412 70.9368C58.4766 66.977 59.6109 63.0866 61.768 59.6381C63.3919 57.0386 65.5066 54.8069 67.0903 52.1614C70.7152 46.1055 72.6793 38.9764 71.7948 31.9101C70.0504 18.0287 58.0283 7.99724 44.709 6.29599C32.9255 4.79099 20.5196 9.02786 13.4797 18.9483C9.65296 24.3403 7.69332 31.3314 8.03908 37.9301C8.4551 45.8577 12.6945 52.9083 17.4804 58.9686C18.8188 60.6733 20.3802 62.185 21.3394 64.1565C22.3733 66.2716 22.7893 68.6906 23.4942 70.9256C23.6203 71.3215 24.2861 71.2722 24.2449 70.8225V70.8202Z" fill="#851919"/>
<path d="M23.0415 67.1488C22.4068 70.5524 23.9181 75.5765 27.7872 75.9915C31.6909 76.4098 35.706 76.2248 39.6186 76.1698C43.6338 76.1137 47.6613 76.0296 51.6732 75.7795C52.8721 75.7044 53.9451 75.6304 54.9913 74.9575C57.281 73.4817 57.996 69.9031 58.3941 67.4348C58.5425 66.5185 57.2297 66.107 56.9832 67.0434C56.3932 69.2863 55.9873 72.9871 53.4989 73.9684C52.7863 74.2499 51.7267 74.1927 50.8512 74.2454C47.2297 74.4427 43.6015 74.5201 39.9744 74.574C36.3474 74.6278 32.7348 74.6749 29.1245 74.491C28.1608 74.4416 27.1682 74.4988 26.4031 73.8428C24.6074 72.3053 24.1802 69.3166 23.6917 67.1488C23.6192 66.8314 23.1028 66.8124 23.0415 67.1488Z" fill="#851919"/>
<path d="M26.6882 74.8306C25.9386 75.6279 26.1528 77.1419 26.1706 78.1759C26.1874 79.1549 26.0435 80.5814 26.9358 81.1859C26.9963 81.2217 27.0671 81.2362 27.1368 81.2271C27.2065 81.218 27.2712 81.1857 27.3205 81.1354C27.9697 80.3436 27.5726 79.1414 27.5503 78.1759C27.5269 77.1071 27.8693 75.7087 27.1733 74.8306C27.1415 74.7984 27.1037 74.773 27.0621 74.7556C27.0204 74.7382 26.9758 74.7292 26.9307 74.7292C26.8857 74.7292 26.841 74.7382 26.7994 74.7556C26.7578 74.773 26.72 74.7984 26.6882 74.8306Z" fill="#851919"/>
<path d="M25.9656 81.888C27.9074 80.7509 30.2607 80.5636 32.4077 80.0342C35.2775 79.3255 38.1673 78.7838 41.0627 78.1995C43.8745 77.6388 46.6461 76.9155 49.4779 76.4557C50.5932 76.274 52.7124 75.6314 53.686 76.4882C54.7077 77.3854 53.1183 78.3633 52.5785 78.9397C52.5202 79.0002 52.4807 79.0765 52.465 79.1592C52.4493 79.2419 52.4579 79.3275 52.4899 79.4053C52.5219 79.4831 52.5759 79.5498 52.6451 79.5972C52.7144 79.6446 52.7959 79.6706 52.8797 79.672C54.7668 79.6776 55.8286 77.4571 54.9464 75.8692C53.6537 73.5421 49.1924 75.0729 47.3063 75.4632C43.2677 76.2998 39.2213 77.1521 35.1949 78.0425C33.4104 78.435 31.6549 78.9005 29.8703 79.2761C28.3089 79.6002 26.705 79.9647 25.409 80.9393C24.8514 81.3564 25.3354 82.2648 25.9667 81.8959L25.9656 81.888Z" fill="#851919"/>
<path d="M25.4637 80.9359C24.4488 81.8017 24.2502 83.6499 25.4135 84.5246C26.1943 85.11 26.9348 85.0853 27.8572 85.0034C30.6824 84.7522 33.4841 84.1444 36.2613 83.5915C39.7891 82.8884 43.3046 82.1247 46.8134 81.334C48.9482 80.8541 51.2881 80.54 53.337 79.7494C54.275 79.3894 53.9225 78.028 52.921 78.231C48.3626 79.1517 43.85 80.346 39.2961 81.3026C36.3962 81.9116 33.4908 82.497 30.5708 82.9927C29.2447 83.217 24.4198 84.4674 26.3326 81.6032C26.7017 81.0492 25.9177 80.549 25.4682 80.9303L25.4637 80.9359Z" fill="#851919"/>
<path d="M25.9656 88.9735C27.9074 87.8374 30.2607 87.649 32.4077 87.1197C35.2775 86.4109 38.1673 85.8693 41.0627 85.2861C43.8745 84.7254 46.6461 84.002 49.4779 83.5411C50.5932 83.3594 52.7124 82.718 53.686 83.5748C54.7077 84.4719 53.1183 85.4487 52.5785 86.0252C52.5203 86.0858 52.481 86.1621 52.4653 86.2448C52.4497 86.3276 52.4584 86.4131 52.4903 86.491C52.5223 86.5688 52.5762 86.6356 52.6453 86.6831C52.7145 86.7307 52.7959 86.7569 52.8797 86.7586C54.7668 86.7586 55.8286 84.5426 54.9464 82.9546C53.6537 80.6276 49.1924 82.1584 47.3063 82.5486C43.2677 83.3852 39.2213 84.2375 35.1949 85.128C33.4104 85.5194 31.6549 85.9859 29.8703 86.3616C28.3089 86.6857 26.705 87.0502 25.409 88.0258C24.8514 88.4419 25.3354 89.3503 25.9667 88.9813L25.9656 88.9735Z" fill="#851919"/>
<path d="M25.4637 88.0212C24.4488 88.887 24.2502 90.7352 25.4135 91.6099C26.1943 92.1964 26.9348 92.1706 27.8572 92.0888C30.6824 91.8376 33.4841 91.2297 36.2613 90.6768C39.7868 89.9759 43.3046 89.2122 46.8134 88.4272C48.9482 87.9461 51.2881 87.6321 53.337 86.8426C54.275 86.4815 53.9225 85.12 52.921 85.323C48.3626 86.2448 43.85 87.4381 39.2961 88.3947C36.3962 89.0025 33.4908 89.589 30.5708 90.0858C29.2447 90.3101 24.4198 91.5594 26.3326 88.6964C26.7017 88.1356 25.9177 87.6411 25.4682 88.0235L25.4637 88.0212Z" fill="#851919"/>
<path d="M26.7737 83.6409C26.167 84.0424 26.3276 84.7904 26.3432 85.4442C26.3532 85.9466 26.3666 86.4535 26.3755 86.9515C26.3822 87.3597 26.6042 87.6243 26.757 87.9798C26.8685 88.2512 27.2165 88.1122 27.3013 87.9081C27.4418 87.5716 27.6437 87.3372 27.6303 86.9515C27.6135 86.449 27.5935 85.9421 27.5745 85.4442C27.5489 84.796 27.6939 84.0323 27.0882 83.6409C27.0406 83.6126 26.9863 83.5977 26.931 83.5977C26.8756 83.5977 26.8213 83.6126 26.7737 83.6409Z" fill="#851919"/>
<path d="M51.8249 78.4631C51.5516 79.1034 51.5717 79.8088 51.5215 80.4929C51.4691 81.2364 51.2985 82.0495 51.9989 82.5115C52.2353 82.6674 52.5242 82.5867 52.7216 82.4184C53.2626 81.9564 53.0674 81.1377 53.0696 80.494C53.0696 79.8054 53.1332 79.0776 52.7752 78.4642C52.5867 78.1389 51.9944 78.0683 51.8249 78.4642V78.4631Z" fill="#851919"/>
<path d="M51.9445 86.0015C51.7628 87.0119 51.6425 88.0324 51.5842 89.0575C51.5307 90.2182 51.4403 91.426 50.9931 92.5093C50.9016 92.7336 51.012 93.0353 51.1726 93.1934C51.2533 93.2867 51.3623 93.3505 51.4827 93.3751C51.8943 93.4446 52.1854 93.263 52.3426 92.8839C53.2159 90.7374 53.0542 88.1839 52.4932 86.0015C52.4263 85.7425 51.9902 85.7133 51.9445 86.0015Z" fill="#851919"/>
<path d="M31.4778 98.8746C30.8878 97.7251 29.8906 96.8088 29.072 95.8186C28.6662 95.3407 28.2885 94.8393 27.941 94.317C27.9321 94.3035 27.9031 94.3248 28.1931 94.1667C29.8103 93.2852 32.1693 93.3435 33.946 93.2336C38.4229 92.9577 42.9322 93.0643 47.4114 93.2123C48.5167 93.2482 49.6209 93.3346 50.6994 93.588C52.3724 93.9839 51.837 94.5592 51.2415 95.7827C50.502 97.2955 48.4364 98.7355 47.0946 99.6461C45.6759 100.609 44.1769 101.011 42.4939 101.058C41.2057 101.095 39.9153 101.082 38.627 101.058C37.6232 101.038 36.4566 101.133 35.4952 100.812C32.2607 99.7314 30.1416 96.4107 27.7481 94.2261C27.1804 93.708 26.2614 94.3674 26.6696 95.0627C28.3504 97.9213 31.6484 100.714 34.7189 102.009C36.9619 102.954 40.1261 102.467 42.4939 102.39C46.0987 102.278 48.9996 100.306 51.3195 97.6219C52.6267 96.1113 54.8964 93.7742 52.0623 92.4419C49.9845 91.464 47.3612 91.6916 45.1272 91.6288C42.4917 91.5537 39.855 91.5313 37.2184 91.584C35.88 91.612 25.2642 91.4056 26.6227 94.7386C26.9317 95.499 27.6923 96.0844 28.2355 96.6642C29.1055 97.6039 29.9208 98.6503 30.9748 99.3826C31.3004 99.6069 31.6373 99.1818 31.48 98.8757L31.4778 98.8746Z" fill="#851919"/>
<path d="M26.9665 91.7018C26.9234 91.8529 26.9181 92.0124 26.9508 92.1661C26.9598 92.2311 26.9687 92.2939 26.9776 92.3567C26.9609 92.2446 26.9598 92.4689 26.9598 92.4622C26.9676 92.9029 27.1583 93.4154 27.5286 93.6565C27.6266 93.7129 27.7361 93.746 27.8488 93.7533C27.9615 93.7606 28.0744 93.7419 28.1788 93.6986C28.2832 93.6554 28.3764 93.5886 28.4512 93.5036C28.526 93.4185 28.5805 93.3174 28.6105 93.2079C28.7108 92.7728 28.4833 92.2704 28.1799 91.9485C28.045 91.8072 27.8944 91.5594 27.6702 91.408C27.4014 91.2263 27.0579 91.417 26.9665 91.6962V91.7018Z" fill="#851919"/>
<path d="M36.036 101.997C35.2698 102.587 35.7416 103.531 36.248 104.134C36.9272 104.942 38.1306 105.304 39.1333 105.415C41.1878 105.639 44.1066 104.792 44.0129 102.224C43.9873 101.498 42.8362 101.27 42.7035 102.045C42.4057 103.771 40.968 104.163 39.3787 104.064C38.6805 104.017 37.8763 103.778 37.3176 103.343C36.8714 102.996 36.8603 102.431 36.4677 102.059C36.412 102.003 36.3394 101.967 36.2613 101.957C36.1833 101.947 36.1041 101.963 36.036 102.003V101.997Z" fill="#851919"/>
<path d="M55.3396 60.2864C52.7844 60.8012 50.0875 59.6304 49.6804 57.5949C49.2733 55.5595 51.0322 53.5857 53.8696 52.9185C56.4081 52.3207 59.2946 52.877 59.9403 55.6212C60.6084 58.4562 57.8959 59.7706 55.3396 60.2864Z" fill="#F48CA3"/>
<path d="M26.0513 60.7686C28.6077 61.2834 31.3045 60.1126 31.7105 58.0771C32.1165 56.0417 30.3587 54.069 27.5224 53.4006C24.9839 52.8018 22.0975 53.3591 21.4517 56.1022C20.7825 58.9384 23.495 60.2527 26.0513 60.7686Z" fill="#F48CA3"/>
<path d="M53.3044 56.5093C53.2386 56.4911 53.1683 56.4998 53.1089 56.5337C53.0495 56.5675 53.0059 56.6237 52.9877 56.6899C52.9694 56.7691 52.9471 56.8473 52.9208 56.9243C52.8884 57.0229 52.8304 57.1093 52.8025 57.208C52.7867 57.2671 52.7906 57.3298 52.8136 57.3865C52.8365 57.4432 52.8773 57.4908 52.9297 57.522C52.9932 57.5576 53.0679 57.5671 53.1382 57.5485C53.2085 57.5299 53.2689 57.4846 53.3067 57.4222C53.4444 57.2297 53.5103 56.9947 53.4929 56.7583C53.4912 56.7022 53.4721 56.6481 53.4384 56.6034C53.4046 56.5588 53.3577 56.5259 53.3044 56.5093Z" fill="#F34D65"/>
<path d="M54.3499 56.6654C54.341 56.767 54.323 56.8676 54.2964 56.966C54.2629 57.086 54.225 57.206 54.2964 57.3204C54.3172 57.3543 54.3482 57.3807 54.3848 57.3958C54.4215 57.4109 54.462 57.4139 54.5005 57.4045C54.8072 57.3518 54.7615 56.8886 54.7392 56.6654C54.7392 56.6135 54.7187 56.5637 54.6822 56.527C54.6457 56.4903 54.5962 56.4697 54.5445 56.4697C54.4929 56.4697 54.4434 56.4903 54.4069 56.527C54.3704 56.5637 54.3499 56.6135 54.3499 56.6654Z" fill="#F34D65"/>
<path d="M56.4586 56.4118C56.4241 56.1684 56.0393 56.1875 55.9902 56.4118C55.969 56.5107 55.938 56.6073 55.8976 56.7C55.8352 56.839 55.7627 57.0084 55.853 57.1486C55.8713 57.182 55.8981 57.21 55.9306 57.2297C55.9631 57.2494 56.0002 57.2601 56.0382 57.2607C56.23 57.2484 56.3315 57.0846 56.3973 56.9175C56.4652 56.7583 56.4865 56.5828 56.4586 56.4118Z" fill="#F34D65"/>
<path d="M28.0881 56.9914C28.1547 56.9724 28.226 56.9808 28.2865 57.0146C28.3469 57.0485 28.3915 57.1051 28.4105 57.172C28.428 57.2517 28.4499 57.3303 28.4763 57.4075C28.5086 57.5051 28.5666 57.5903 28.5945 57.6901C28.6106 57.7491 28.6069 57.8117 28.5839 57.8683C28.5609 57.9249 28.5199 57.9723 28.4673 58.003C28.4039 58.0384 28.3294 58.0479 28.2592 58.0295C28.189 58.0112 28.1285 57.9663 28.0904 57.9043C27.9527 57.7119 27.8867 57.4768 27.9041 57.2404C27.9055 57.1849 27.9239 57.1312 27.9569 57.0866C27.9898 57.042 28.0357 57.0088 28.0881 56.9914Z" fill="#F34D65"/>
<path d="M27.0428 57.1465C27.0507 57.2485 27.0683 57.3495 27.0952 57.4482C27.1287 57.5682 27.1655 57.6871 27.0952 57.8026C27.0745 57.8366 27.0435 57.8629 27.0067 57.8779C26.97 57.8928 26.9295 57.8955 26.8911 57.8856C26.5844 57.834 26.6301 57.3708 26.6513 57.1465C26.6513 57.0943 26.6719 57.0443 26.7086 57.0074C26.7453 56.9704 26.7951 56.9497 26.847 56.9497C26.8989 56.9497 26.9487 56.9704 26.9854 57.0074C27.0222 57.0443 27.0428 57.0943 27.0428 57.1465Z" fill="#F34D65"/>
<path d="M24.9315 56.8942C24.9672 56.6508 25.3531 56.6699 25.4011 56.8942C25.4224 56.9931 25.4535 57.0896 25.4936 57.1824C25.5561 57.3203 25.6297 57.4908 25.5371 57.631C25.5183 57.6633 25.4915 57.6901 25.4592 57.7088C25.4269 57.7275 25.3903 57.7374 25.3531 57.7375C25.1613 57.7252 25.0598 57.5615 24.994 57.3944C24.9273 57.2367 24.9056 57.0635 24.9315 56.8942Z" fill="#F34D65"/>
<path d="M57.186 54.9547L57.1553 54.9404C57.2376 54.9844 57.2266 54.9778 57.186 54.9547Z" fill="#F2F5FE"/>
<path d="M57.2823 53.755C57.0681 53.6608 56.8227 53.6911 56.6945 53.9098C56.6388 54.0084 56.6233 54.1249 56.6514 54.2348C56.6795 54.3446 56.7489 54.4392 56.845 54.4985L56.8662 54.5199C56.8684 54.5249 56.871 54.5298 56.874 54.5344C56.874 54.5423 56.9465 54.7251 56.9421 54.7172C56.9626 54.7701 56.9937 54.8182 57.0335 54.8585C57.0425 54.8675 57.1384 54.9247 57.1886 54.955C57.27 54.9934 57.363 54.999 57.4484 54.9707C57.4652 54.9651 57.4786 54.9583 57.4919 54.9527H57.4986C57.5755 54.9191 57.6415 54.8643 57.6888 54.7946C57.7361 54.725 57.763 54.6434 57.7663 54.5591C57.7732 54.3921 57.731 54.2267 57.6449 54.0837C57.5588 53.9407 57.4326 53.8263 57.2823 53.755ZM56.8807 54.54C56.903 54.5692 56.903 54.5681 56.8807 54.54V54.54Z" fill="#F2F5FE"/>
<path d="M24.2027 55.4369L24.2334 55.4226C24.1533 55.4666 24.1632 55.4556 24.2027 55.4369Z" fill="#F2F5FE"/>
<path d="M23.6259 55.0359C23.6287 55.1205 23.6552 55.2025 23.7024 55.2725C23.7495 55.3426 23.8154 55.3978 23.8925 55.4318L23.9349 55.4497C24.0203 55.478 24.1133 55.4724 24.1947 55.434C24.2449 55.4026 24.3408 55.3454 24.3498 55.3376C24.3894 55.2967 24.4204 55.2483 24.4412 55.1952C24.4412 55.2041 24.5126 55.0213 24.5093 55.0124L24.5182 54.9989L24.5394 54.9765C24.6349 54.9172 24.7039 54.8229 24.7318 54.7135C24.7596 54.6042 24.7442 54.4882 24.6888 54.39C24.5606 54.1657 24.3152 54.1388 24.101 54.2341C23.9524 54.3062 23.8281 54.4207 23.7437 54.5632C23.6592 54.7058 23.6182 54.8702 23.6259 55.0359Z" fill="#F2F5FE"/>
<path d="M50.1915 51.1949C50.1759 53.5735 48.5274 55.7648 46.5109 55.7514C44.4944 55.7379 42.9697 53.8023 42.8972 51.1455C42.8325 48.7669 43.9334 46.2919 46.667 46.2235C49.4977 46.155 50.2082 48.8208 50.1915 51.1949Z" fill="#851919"/>
<path d="M50.4442 49.6101C50.3982 49.5535 50.3475 49.5009 50.2925 49.4531C50.236 49.3116 50.1491 49.1843 50.038 49.0804C49.927 48.9765 49.7945 48.8985 49.6501 48.852C49.0489 48.6277 48.4344 49.0763 48.16 49.5888C47.86 50.1495 47.8354 50.9805 48.2158 51.5087C48.5414 51.9573 49.0534 52.0919 49.5809 52.0044C49.8182 51.96 50.0425 51.8627 50.2375 51.7197C50.4324 51.5767 50.593 51.3915 50.7074 51.1779C50.9874 50.634 50.8078 50.0654 50.4442 49.6101Z" fill="white"/>
<path d="M47.7062 52.1523C47.3861 52.1523 47.3827 52.6491 47.7062 52.6525C48.0296 52.6559 48.0274 52.1546 47.7062 52.1523Z" fill="white"/>
<path d="M37.8184 51.1129C37.8017 53.4904 36.1544 55.6828 34.1378 55.6682C32.1213 55.6537 30.5978 53.7192 30.5242 51.0624C30.4595 48.6849 31.5603 46.2099 34.2951 46.1403C37.1236 46.0686 37.8341 48.7343 37.8184 51.1129Z" fill="#851919"/>
<path d="M38.0706 49.5239C38.024 49.4675 37.9729 49.415 37.9178 49.3669C37.8612 49.2256 37.7744 49.0986 37.6636 48.9947C37.5528 48.8909 37.4206 48.8127 37.2765 48.7658C36.6753 48.5415 36.0597 48.9901 35.7864 49.5026C35.4853 50.0633 35.4618 50.8955 35.8422 51.4237C36.1667 51.8723 36.6787 52.0057 37.2062 51.9182C37.4442 51.8743 37.6694 51.7773 37.8651 51.6342C38.0608 51.4912 38.2222 51.3058 38.3372 51.0917C38.6127 50.5444 38.4342 49.9792 38.0706 49.5239Z" fill="white"/>
<path d="M35.3326 52.0662C35.0114 52.0662 35.0091 52.5641 35.3326 52.5663C35.656 52.5686 35.6516 52.0684 35.3326 52.0662Z" fill="white"/>
<path d="M31.3587 44.9472C32.087 44.6052 32.7707 44.1297 33.5168 43.8347C34.5976 43.4075 35.0939 44.0893 35.7018 44.8856C36.0587 45.3521 36.9632 45.1098 36.7323 44.4493C35.6817 41.4371 32.4628 42.4183 30.8735 44.3147C30.8085 44.3849 30.7705 44.476 30.7661 44.5718C30.7616 44.6676 30.7912 44.7618 30.8494 44.8378C30.9077 44.9137 30.9908 44.9664 31.0841 44.9864C31.1773 45.0065 31.2746 44.9926 31.3587 44.9472Z" fill="#851919"/>
<path d="M44.0344 45.3756C45.1832 44.6735 46.2182 43.4534 47.7239 43.7382C48.6162 43.9065 48.9206 45.3083 49.5709 45.8298C49.9468 46.1314 50.5903 45.8679 50.433 45.3251C50.0884 44.1442 49.0768 42.7357 47.8109 42.4968C46.2439 42.2007 44.0645 43.2975 43.3953 44.733C43.2079 45.1356 43.605 45.638 44.0344 45.3756Z" fill="#851919"/>
<g opacity="0.4">
<path d="M39.2831 44.7261C39.0199 43.0608 37.3982 41.7509 36.2193 40.7225C33.1633 38.0557 29.5663 38.2093 25.7731 38.8407C22.2475 39.4261 19.4335 41.1296 17.5285 44.1643C16.2604 46.1829 15.705 48.8823 16.3809 51.1925C16.4257 52.4921 16.8075 53.7574 17.4884 54.863C18.2278 56.0439 19.3844 56.9377 20.7039 57.6106C21.2013 58.3429 21.8192 58.9092 22.5933 59.1358C23.3907 59.3713 24.0566 59.2816 24.6008 58.9799C25.0849 59.092 25.56 59.1873 26.0117 59.2647C29.0488 59.7817 32.8956 59.7234 35.4307 57.7126C36.5293 56.8413 37.1684 55.7355 37.5978 54.5254C38.2639 53.7994 38.7749 52.9436 39.099 52.0111C39.6478 50.3962 39.4392 49.1099 39.1727 47.6688C39.3678 46.7089 39.4526 45.7646 39.2831 44.7261Z" fill="#A9D3F7"/>
<path d="M64.7342 47.134C64.0048 43.57 60.8484 41.1992 57.7266 39.8277C54.3092 38.326 50.6319 37.3986 47.0818 39.0427C43.3734 40.754 41.0769 44.1116 40.7245 48.1769C40.6984 48.41 40.7492 48.6453 40.8691 48.8465C40.989 49.0477 41.1713 49.2037 41.3881 49.2905C41.276 50.5723 41.4368 51.8633 41.8599 53.0777C44.7575 61.0412 56.0714 61.1085 61.7596 56.5609C64.5881 54.299 65.4402 50.5634 64.7342 47.134ZM49.6192 55.7378C49.6192 55.7614 49.6248 55.7849 49.6293 55.8073L49.5646 55.7849L49.6192 55.7378ZM54.4575 56.1696C54.4575 56.2021 54.4687 56.2324 54.4732 56.2638L54.3795 56.275C54.4062 56.2413 54.4319 56.2043 54.4575 56.1696Z" fill="#A9D3F7"/>
</g>
<path d="M28.1593 49.4004C27.8927 48.6816 27.4176 48.1982 26.803 47.7732C27.1733 48.0289 28.8552 45.2196 29.0404 44.8899C30.0787 43.0306 31.6402 41.3428 31.3491 39.1066C31.2755 38.5458 30.5896 38.0558 30.1022 38.2745C29.7988 37.799 29.0861 37.587 28.5407 37.855C26.8933 38.6614 26.232 40.883 25.3152 42.3554C24.2679 44.0376 23.0633 45.7198 22.7131 47.7104C22.5859 48.4393 22.6082 49.3174 22.9919 49.9757C23.185 50.2927 23.445 50.563 23.7537 50.7675C23.7934 50.7933 23.8348 50.8165 23.8775 50.837C23.8287 50.9242 23.8044 51.023 23.8072 51.123C23.7358 52.4093 23.1759 53.6474 22.8938 54.8978C22.6283 56.0709 22.0316 57.3426 22.113 58.5426C22.1666 59.3018 23.0354 60.024 23.7693 59.498C23.8652 59.4296 23.9556 59.3545 24.0448 59.2738C24.2208 59.3857 24.4303 59.4322 24.6369 59.4051C24.8434 59.3781 25.0341 59.2793 25.1757 59.1257C26.3212 57.8607 26.9859 55.9856 27.5849 54.4156C28.1659 52.8915 28.7537 50.9974 28.1593 49.4004Z" fill="#D9EFFF"/>
<path d="M33.1197 39.7561C32.1694 42.7739 29.7202 45.1391 29.1291 48.2791C28.8123 49.9613 29.3376 51.5729 28.9127 53.31C28.4309 55.2793 27.3746 57.0837 26.7266 58.998C26.5928 59.3917 27.2185 59.6597 27.3958 59.2829C28.9316 56.0464 30.4072 53.0229 29.9287 49.3546C29.4926 46.0284 33.1431 43.1238 33.7432 39.9344C33.8213 39.5194 33.2469 39.3523 33.1197 39.7561Z" fill="#D9EFFF"/>
<path d="M55.3281 49.3219C55.2166 48.5291 54.6589 47.8472 54.1168 47.3033C53.5101 46.7011 54.5005 46.0697 54.9444 45.5505C56.3107 43.9681 57.0747 41.8261 58.3016 40.1114C58.9641 39.1806 57.7896 38.2666 56.9163 38.593C56.6074 38.326 56.1501 38.2128 55.7742 38.4438C54.0087 39.5372 52.8398 40.9323 51.6218 42.6179C50.7831 43.7752 48.1643 46.128 48.8045 47.7945C49.4838 49.5731 51.2092 50.0767 50.5355 52.3017C49.9778 54.1397 47.8732 55.8017 48.0639 57.7968C48.1197 58.3844 48.6896 59.0663 49.3566 58.7871C49.5105 58.7232 49.6596 58.6482 49.8027 58.5628C49.9412 58.7144 50.1254 58.8159 50.327 58.8518C50.5286 58.8877 50.7363 58.8559 50.9181 58.7613C52.368 58.0738 53.4454 55.8365 54.2005 54.4997C55.1106 52.8691 55.6069 51.1813 55.3281 49.3219Z" fill="#D9EFFF"/>
<path d="M59.9741 40.7651C60.0968 40.4286 59.5369 40.1886 59.3964 40.5195C58.6156 42.3553 57.575 44.0801 56.608 45.8184C55.9868 46.9286 55.6845 47.8224 56.1954 49.0302C57.4646 52.0312 55.4927 56.5148 53.3535 58.6748C52.9821 59.0493 53.4806 59.7458 53.929 59.425C56.1708 57.8213 57.0943 54.3291 57.4389 51.7441C57.6977 49.7995 56.2433 48.0635 57.275 46.2154C58.2609 44.4255 59.2748 42.6816 59.9741 40.7651Z" fill="#D9EFFF"/>
<path d="M38.8081 42.3991C35.5357 37.8337 29.9824 36.5676 24.7225 37.8808C19.9523 39.0707 16.5315 42.3599 15.8902 47.338C15.5556 49.9443 15.9136 52.9868 17.1505 55.3251C18.1911 57.2955 20.0839 58.5975 22.1294 59.3332C24.6143 60.2303 27.3804 60.1249 29.9367 59.6999C32.5923 59.2603 35.2133 58.4192 37.2009 56.5351C40.8993 53.025 41.6745 46.6237 38.8025 42.4048C38.3564 41.7487 37.2879 42.3689 37.7373 43.0316C40.655 47.3223 39.3635 53.7651 35.0907 56.6641C32.6693 58.307 29.127 58.7949 26.2706 58.7769C23.6953 58.7601 21.072 57.9919 19.234 56.1168C17.2264 54.0578 16.9163 50.7439 17.058 48.0098C17.1918 45.4237 18.2848 43.0574 20.2445 41.373C24.4203 37.7754 31.7647 37.5881 35.9863 41.0983C36.6493 41.6653 37.2377 42.315 37.7373 43.0316C38.2047 43.6675 39.2743 43.0496 38.8081 42.3991Z" fill="#851919"/>
<path d="M43.4047 43.026C47.0374 37.957 54.0316 37.5724 59.2425 40.2728C64.1901 42.8365 65.3891 49.6426 63.0602 54.4526C60.4169 59.9129 52.8862 59.1728 48.1549 57.6465C43.0032 55.9856 40.6822 49.8422 42.4099 44.9C42.6574 44.2342 42.9912 43.6041 43.4025 43.026C43.8486 42.3632 42.7824 41.7431 42.3374 42.3991C39.7096 46.2637 40.1524 51.7981 42.9798 55.4406C46.1987 59.59 52.6743 60.652 57.5739 59.7234C59.7957 59.3017 61.8914 58.1612 63.3023 56.3691C64.9117 54.3236 65.2931 51.5861 65.3433 49.0516C65.4448 44.0051 62.6375 40.1697 58.039 38.3978C52.4869 36.2479 45.9209 37.4008 42.3396 42.3991C41.8723 43.0496 42.943 43.6675 43.4047 43.026Z" fill="#851919"/>
<path d="M37.2894 58.9139C37.3083 60.7498 37.5437 63.3998 39.684 63.9661C40.8049 64.2611 42.0942 63.5848 42.8861 62.8447C43.8397 61.9475 43.7248 60.3831 43.7784 59.1965C43.7784 59.0608 43.734 58.9288 43.6523 58.8209C43.5705 58.7129 43.4557 58.6349 43.3256 58.5988C43.2179 58.5719 43.1053 58.5719 42.9976 58.5988C42.7222 58.6459 42.5571 58.9409 42.5459 59.1965C42.5058 60.0309 42.5348 60.8619 42.0998 61.6043C41.705 62.2772 40.6265 62.7796 39.8691 62.5822C38.7025 62.2772 38.5307 59.8504 38.5207 58.9151C38.5118 58.1155 37.2793 58.1143 37.2871 58.9151L37.2894 58.9139Z" fill="#851919"/>
<path d="M63.0293 6.34862L62.1128 6.63909C62.0168 6.32251 61.9636 6.05564 61.9531 5.83849C61.9448 5.617 61.9767 5.40266 62.0488 5.19547C62.1208 4.98828 62.2267 4.74506 62.3665 4.46582C62.4689 4.26345 62.5614 4.0751 62.6438 3.90078C62.7285 3.72213 62.7854 3.54142 62.8146 3.35866C62.8428 3.17262 62.8217 2.96785 62.7514 2.74434C62.68 2.51755 62.5774 2.33499 62.4436 2.19668C62.3131 2.05732 62.155 1.96825 61.9694 1.92948C61.7871 1.88967 61.581 1.9062 61.3511 1.97908C61.1606 2.03947 60.9908 2.13124 60.8417 2.2544C60.6926 2.37756 60.5883 2.52811 60.5287 2.70605C60.468 2.8807 60.4722 3.08359 60.5413 3.31471L59.6299 3.60362C59.5196 3.23012 59.5112 2.88215 59.6048 2.55969C59.7017 2.23619 59.8807 1.95536 60.1417 1.7172C60.4027 1.47905 60.7221 1.3001 61.0998 1.18037C61.517 1.04815 61.8955 1.01131 62.2354 1.06984C62.5786 1.12734 62.8718 1.27296 63.1151 1.50669C63.3574 1.73715 63.539 2.04465 63.66 2.42922C63.7531 2.72503 63.7782 3.0171 63.7352 3.30543C63.6945 3.58942 63.6147 3.86956 63.4957 4.14584C63.3768 4.42211 63.2432 4.69217 63.095 4.95602C62.9671 5.18091 62.905 5.40842 62.9088 5.63857C62.9126 5.86871 62.9527 6.10539 63.0293 6.34862ZM62.5651 8.21449C62.5186 8.06658 62.5253 7.9271 62.5852 7.79606C62.6451 7.66502 62.7621 7.5719 62.9362 7.51672C63.1136 7.4605 63.2643 7.46876 63.3883 7.54151C63.5123 7.61425 63.5976 7.72457 63.6442 7.87248C63.6886 8.01382 63.6809 8.15001 63.621 8.28105C63.5611 8.4121 63.4424 8.50573 63.2651 8.56195C63.091 8.61713 62.9419 8.60835 62.8179 8.5356C62.6939 8.46286 62.6096 8.35582 62.5651 8.21449Z" fill="#229A87"/>
<path d="M74.9632 23.8695L74.0019 23.8603C74.0092 23.5296 74.0416 23.2594 74.0992 23.0498C74.1602 22.8367 74.2572 22.6429 74.3902 22.4685C74.5232 22.294 74.6995 22.0958 74.9192 21.8739C75.0796 21.7135 75.2261 21.5632 75.3586 21.4232C75.4947 21.2798 75.605 21.1258 75.6896 20.9612C75.7743 20.7931 75.818 20.592 75.8207 20.3577C75.8235 20.1199 75.7828 19.9145 75.6987 19.7414C75.618 19.5684 75.4955 19.4345 75.3312 19.3399C75.1703 19.2454 74.9693 19.1969 74.7281 19.1947C74.5283 19.1928 74.3383 19.2271 74.1583 19.2978C73.9783 19.3684 73.8323 19.479 73.7203 19.6296C73.6083 19.7767 73.5492 19.9708 73.5429 20.212L72.5868 20.2029C72.5982 19.8136 72.6986 19.4803 72.8879 19.203C73.0806 18.9257 73.3381 18.7145 73.6603 18.5694C73.9824 18.4243 74.3416 18.3536 74.7379 18.3574C75.1754 18.3616 75.5466 18.4444 75.8515 18.6058C76.1597 18.7672 76.3931 18.9968 76.5516 19.2947C76.7101 19.5891 76.787 19.9379 76.7823 20.341C76.7787 20.6511 76.7117 20.9364 76.5811 21.1971C76.4541 21.4543 76.291 21.6957 76.092 21.9212C75.8929 22.1468 75.682 22.3618 75.459 22.5665C75.2675 22.7404 75.1377 22.9373 75.0697 23.1572C75.0016 23.3771 74.9661 23.6145 74.9632 23.8695ZM73.9414 25.4983C73.9432 25.3432 73.993 25.2127 74.0907 25.1068C74.1884 25.001 74.3286 24.9489 74.5112 24.9506C74.6973 24.9524 74.8379 25.0071 74.9332 25.1149C75.0284 25.2226 75.0751 25.354 75.0733 25.509C75.0716 25.6572 75.0219 25.7842 74.9241 25.8901C74.8264 25.996 74.6845 26.048 74.4985 26.0463C74.3159 26.0445 74.1769 25.9898 74.0817 25.8821C73.9865 25.7744 73.9397 25.6464 73.9414 25.4983Z" fill="#229A87"/>
<path d="M3.77965 49.9851L2.81984 50.0396C2.80524 49.7091 2.81972 49.4373 2.8633 49.2243C2.91013 49.0077 2.99412 48.8079 3.11526 48.625C3.2364 48.4422 3.39923 48.2327 3.60374 47.9968C3.75315 47.8261 3.88937 47.6665 4.01239 47.518C4.13866 47.3659 4.23857 47.2049 4.31211 47.0351C4.38547 46.8618 4.41575 46.6582 4.40297 46.4243C4.39 46.1869 4.33582 45.9846 4.24042 45.8174C4.14846 45.6501 4.01737 45.5247 3.84717 45.4411C3.68041 45.3574 3.47662 45.3224 3.23581 45.3361C3.03628 45.3474 2.84905 45.3943 2.6741 45.4767C2.49916 45.5591 2.36078 45.6791 2.25897 45.8367C2.15696 45.9909 2.11082 46.1885 2.12054 46.4296L1.16589 46.4838C1.15153 46.0946 1.22963 45.7554 1.40017 45.4662C1.57416 45.1767 1.81708 44.949 2.12893 44.7829C2.44078 44.6167 2.79452 44.5225 3.19014 44.5C3.62704 44.4752 4.0029 44.5332 4.31772 44.6741C4.63598 44.8148 4.88404 45.0285 5.06189 45.3152C5.23955 45.5985 5.33938 45.9414 5.36137 46.344C5.37829 46.6536 5.33024 46.9428 5.21724 47.2115C5.10749 47.4766 4.96077 47.7282 4.77709 47.9664C4.59341 48.2046 4.39712 48.4332 4.18822 48.6521C4.0086 48.8384 3.89212 49.0434 3.83879 49.2673C3.78545 49.4912 3.76574 49.7305 3.77965 49.9851ZM2.86793 51.6779C2.85947 51.5231 2.90049 51.3896 2.99099 51.2775C3.08149 51.1654 3.2179 51.1041 3.40023 51.0938C3.586 51.0832 3.72996 51.1285 3.83211 51.2297C3.93426 51.3309 3.98957 51.4589 3.99802 51.6138C4.00611 51.7617 3.9649 51.8917 3.8744 52.0039C3.7839 52.116 3.64577 52.1773 3.46 52.1879C3.27767 52.1982 3.13543 52.1528 3.03328 52.0516C2.93113 51.9504 2.87601 51.8258 2.86793 51.6779Z" fill="#229A87"/>
</g>
<defs>
<clipPath id="clip0_183_1665">
<rect width="80" height="108" fill="white"/>
</clipPath>
</defs>
</svg>
