<svg width="80" height="108" viewBox="0 0 80 108" fill="none" xmlns="http://www.w3.org/2000/svg">
<path d="M21.0136 74.3336C20.9645 74.3115 20.9188 74.285 20.8675 74.2674C19.5681 73.806 18.7595 72.6317 17.3843 72.2454C16.521 72.0026 15.8965 72.6416 15.7838 73.4263C15.5909 74.7651 16.1396 75.7982 16.985 76.8048C18.2598 78.3224 18.9803 80.0199 19.9696 81.7041C20.5273 82.6577 22.0553 82.0474 21.7731 80.9735C21.259 79.0232 22.0576 76.7187 22.2037 74.7684C22.2494 74.1658 21.3493 73.859 21.0136 74.3336Z" fill="#A59BB3"/>
<path d="M57.4757 73.5467C57.459 72.9794 56.8523 72.422 56.2957 72.3856C54.2981 72.2564 52.1065 73.4793 51.1462 75.2309C51.1373 75.1868 51.1284 75.1437 51.1183 75.0996C50.97 74.4594 49.9338 74.3104 49.7799 74.9495C49.7799 74.9495 49.7799 74.9594 49.7799 74.9627C49.77 75.0092 49.7647 75.0565 49.7643 75.104C49.7442 76.8964 49.9305 78.8566 48.8419 80.3952C48.7108 80.5727 48.648 80.7906 48.6648 81.0099C48.6815 81.2291 48.7767 81.4352 48.9333 81.5912C49.0898 81.7472 49.2975 81.8428 49.5189 81.8609C49.7403 81.879 49.961 81.8183 50.1413 81.6898C51.8701 80.532 53.5799 79.3047 55.225 78.0332C56.7084 76.8898 57.5281 75.4097 57.4757 73.5467Z" fill="#A59BB3"/>
<path d="M46.5548 97.9782C45.3882 97.6703 44.1479 98.4937 43.0248 98.7939C42.7471 98.8689 42.4236 98.9042 42.1035 98.9605C41.8882 99.0521 41.673 99.1404 41.4577 99.2276C41.2852 99.3012 41.1112 99.3689 40.9358 99.4307C40.7903 99.5752 40.6907 99.7585 40.6491 99.9583C40.6167 100.06 40.6252 100.17 40.6728 100.266C40.7204 100.361 40.8034 100.435 40.9045 100.471C41.3272 100.629 41.8615 100.603 42.3946 100.522C42.3653 100.752 42.3903 100.986 42.4677 101.205C42.5451 101.424 42.6728 101.622 42.8407 101.784C42.8095 101.839 42.7738 101.894 42.7348 101.953C42.4794 102.353 42.1225 102.684 41.7801 103.016C41.1109 103.649 40.3513 104.179 39.6989 104.823C38.5199 105.989 39.8104 107.576 41.2525 107.073C43.3148 106.353 45.5421 105.468 46.9585 103.74C48.1352 102.305 48.3114 99.9505 46.9719 98.5985C46.9797 98.3303 46.8035 98.0489 46.5548 97.9782Z" fill="#A59BB3"/>
<path d="M56.8855 72.8249C56.6134 72.4364 56.1048 72.8183 56.2163 73.2068C56.7416 75.0544 54.415 76.849 53.1302 77.754C52.1621 78.4372 50.8203 79.2021 49.5823 78.9328C49.5957 78.8887 49.6046 78.8445 49.6191 78.8004C49.8846 77.9041 50.2024 77.0289 50.2738 76.0908C50.2995 75.7376 49.8009 75.5809 49.6548 75.9241C49.5433 76.1912 49.4228 76.476 49.3057 76.7717C49.0492 77.9858 48.8674 79.2131 48.5584 80.414C48.4298 80.9038 48.2757 81.3868 48.0967 81.8609C48.0967 81.989 48.1045 82.117 48.1156 82.2417C48.1536 82.6777 48.7536 82.6137 48.8428 82.2417C48.8651 82.1424 48.8852 82.043 48.9075 81.9426C49.0374 81.9869 49.1739 82.0093 49.3113 82.0088C49.7776 81.9927 50.2394 81.9121 50.6831 81.7693C50.8719 81.7249 51.0548 81.6594 51.2285 81.574C51.468 81.437 51.6812 81.2596 51.8587 81.0497C51.9491 80.9591 52.0084 80.8428 52.0284 80.717C52.0485 80.5913 52.0281 80.4625 51.9702 80.3489C52.578 80.0746 53.1592 79.7462 53.7068 79.3677C55.5538 78.1437 58.5395 75.178 56.8855 72.8249Z" fill="#897E9B"/>
<path d="M22.2404 78.788C22.2293 77.4459 22.3062 76.1027 22.1635 74.7672C22.1244 74.3997 21.5802 74.2584 21.4731 74.6679C21.1641 75.8367 21.1262 77.0044 21.0649 78.2074C21.0582 78.3697 21.047 78.5386 21.037 78.6986C19.9083 79.1191 18.8119 77.8498 18.2029 77.1115C17.3675 76.0961 16.6671 75.0012 15.7771 74.0299C15.4202 73.6403 14.8926 74.1237 15.0833 74.5498C15.8708 76.3024 17.4858 80.1864 19.6651 80.5672C19.6455 80.688 19.6534 80.8116 19.6881 80.929C19.7228 81.0464 19.7836 81.1547 19.8659 81.2459C20.0072 81.3971 20.1663 81.5308 20.3399 81.6444C20.4258 81.7051 20.5094 81.7658 20.5931 81.8276C20.6324 81.858 20.6738 81.8856 20.7169 81.9104L20.9399 82.0064H20.9478C20.9544 82.0792 20.9589 82.1521 20.9667 82.2271C20.9817 82.3287 21.0203 82.4255 21.0795 82.5098C21.1388 82.594 21.217 82.6635 21.308 82.7128C21.5043 83.2072 22.4233 83.1355 22.3765 82.5152C22.3308 81.9512 22.2962 81.3861 22.265 80.821C22.2772 80.1422 22.2449 79.4624 22.2404 78.788Z" fill="#897E9B"/>
<path d="M46.2401 98.389C46.2884 98.3195 46.3299 98.2456 46.3639 98.1683C46.4754 97.8802 46.2836 97.6263 46.0371 97.506C45.8395 97.413 45.6202 97.3749 45.4024 97.3957C44.1212 98.0744 42.8043 98.6853 41.4575 99.2256L41.2344 99.3161C41.1006 99.3867 40.969 99.4607 40.8396 99.5369C40.7796 99.5691 40.7316 99.6196 40.7028 99.6808C40.6739 99.7421 40.6657 99.8109 40.6793 99.8771C40.6929 99.9434 40.7276 100.004 40.7784 100.049C40.8291 100.094 40.8932 100.122 40.9612 100.128C41.7107 100.211 42.3721 100.08 43.0424 99.8713C44.7979 100.396 47.3721 101.328 45.804 103.494C45.1939 104.336 44.1153 104.841 43.1785 105.224C42.3264 105.572 41.2322 105.519 40.4927 106.058C40.2608 106.228 40.2786 106.593 40.4526 106.792C41.3371 107.796 43.3023 107.15 44.3563 106.763C45.7872 106.235 47.2082 105.186 47.9153 103.828C48.6481 102.42 48.4317 101.241 47.7156 100.36C47.7402 99.4949 47.0676 98.7422 46.2401 98.389Z" fill="#897E9B"/>
<path d="M21.9261 74.8712C21.3149 74.4727 20.6312 74.1847 20.0166 73.7752C19.3474 73.3282 18.6782 72.8989 17.9176 72.6141C17.8059 72.5726 17.6899 72.5433 17.5718 72.5269L17.5606 72.517C17.5615 72.5199 17.5615 72.5229 17.5606 72.5258H17.5517C17.545 72.517 17.5361 72.5026 17.525 72.4861C17.438 72.3658 17.3476 72.2488 17.255 72.1329C17.032 71.8559 16.5412 71.6914 16.2111 71.6914C16.0038 71.6912 15.8021 71.7573 15.6358 71.8798C15.4696 72.0023 15.3479 72.1747 15.2887 72.3713C15.166 72.7973 15.3612 73.1935 15.7137 73.4353C15.8002 73.49 15.8926 73.5351 15.9891 73.5699C15.8659 73.8712 15.8019 74.193 15.8007 74.518C15.8007 74.8657 16.2814 74.9175 16.3929 74.6041C16.5937 74.0324 16.616 73.6008 17.235 73.7035C17.7737 73.794 18.2823 74.2134 18.7206 74.5103C19.5236 75.0533 20.5932 75.9627 21.6205 75.9451C21.749 75.9469 21.8746 75.9067 21.9777 75.8306C22.0808 75.7545 22.1555 75.6469 22.1904 75.5244C22.2252 75.4019 22.2182 75.2714 22.1704 75.1533C22.1226 75.0352 22.0367 74.936 21.9261 74.8712Z" fill="#BCB5C6"/>
<path d="M57.117 73.4285C57.1092 73.3998 57.1014 73.3711 57.0947 73.3424C57.0657 73.1773 56.9859 73.025 56.8661 72.9065C56.7463 72.7879 56.5924 72.7089 56.4255 72.6802C55.0938 72.369 53.6617 73.1217 52.5453 73.753C51.4512 74.3667 50.3358 75.1205 49.4737 76.0465C49.4201 76.2672 49.3711 76.4803 49.3242 76.6999C49.3774 76.7624 49.4486 76.8075 49.5282 76.8292C49.6079 76.8509 49.6923 76.8481 49.7704 76.8213C51.034 76.3302 52.1951 75.5509 53.4153 74.9594C54.0759 74.6227 54.7776 74.372 55.5032 74.2132C56.0006 74.115 56.4579 74.338 56.8806 73.9804C57.0379 73.8556 57.1695 73.6371 57.117 73.4285Z" fill="#BCB5C6"/>
<path d="M41.9376 99.2023C41.8443 99.1978 41.7514 99.2175 41.668 99.2593C41.5846 99.3011 41.5137 99.3637 41.4622 99.4408C41.4107 99.518 41.3803 99.6071 41.3741 99.6993C41.3679 99.7916 41.386 99.8839 41.4268 99.9671C41.6833 100.519 42.2756 100.792 42.4562 101.381C42.6168 101.902 42.2332 102.439 41.9477 102.836C41.2851 103.753 40.3003 104.411 39.4627 105.153C39.272 105.323 39.2664 105.549 39.3512 105.772C39.4471 106.044 39.5921 106.172 39.8374 106.323C40.0828 106.475 40.4765 106.201 40.3048 105.912C40.3014 105.906 40.2984 105.9 40.2958 105.894C40.5323 105.794 40.7598 105.651 40.994 105.541C41.3733 105.36 41.729 105.018 42.0536 104.756C42.6983 104.233 43.3217 103.575 43.6552 102.809C44.2397 101.455 43.6675 99.3193 41.9376 99.2023Z" fill="#BCB5C6"/>
<path d="M50.2859 75.616C51.1067 74.8882 52.0111 74.2585 52.9806 73.7397C53.8037 73.2927 54.9703 72.582 55.9318 72.7332C58.1702 73.0875 56.5028 75.9902 55.7778 77.0542C53.9743 79.7031 50.6841 81.2483 47.724 82.2416C46.9745 82.491 47.2957 83.6709 48.0519 83.4181C52.1385 82.0451 56.3556 79.7207 57.955 75.5333C58.6889 73.6139 58.2249 71.8668 55.9864 71.5125C54.9659 71.3513 54.0078 71.912 53.1044 72.3193C51.7557 72.9388 50.512 73.7608 49.4171 74.7563C48.8271 75.2849 49.7015 76.1458 50.2893 75.6194L50.2859 75.616Z" fill="#851919"/>
<path d="M22.8647 74.5532C21.813 73.4009 20.2325 72.423 18.8718 71.6836C17.8022 71.0975 16.108 70.4297 15.1689 71.5842C13.7447 73.338 15.1544 76.3456 16.1493 77.9151C16.9791 79.2252 18.003 80.3973 19.0893 81.5021C20.0753 82.5054 21.368 84.066 22.7811 84.4203C22.8537 84.4394 22.9303 84.4368 23.0014 84.4127C23.0724 84.3886 23.1346 84.3442 23.1802 84.2851C23.2257 84.226 23.2524 84.1548 23.257 84.0807C23.2616 84.0065 23.2439 83.9326 23.206 83.8685C22.6584 82.8266 21.4092 82.0948 20.5526 81.2924C19.5692 80.3911 18.671 79.4029 17.8692 78.34C17.0817 77.2716 16.3791 76.1701 15.9999 74.8931C15.8036 74.2309 15.5916 72.8954 16.0891 72.2818C16.7259 71.497 18.7246 72.9142 19.2789 73.2663C20.2827 73.902 21.1862 74.8269 22.2457 75.3467C22.3529 75.4043 22.4772 75.4223 22.5965 75.3974C22.7158 75.3725 22.8223 75.3064 22.8968 75.2108C22.9713 75.1153 23.009 74.9967 23.0031 74.8762C22.9972 74.7557 22.9482 74.6412 22.8647 74.5532Z" fill="#851919"/>
<path d="M40.3282 100.095C40.9516 100.664 41.5283 101.4 41.1089 102.269C40.8334 102.848 39.9802 103.17 39.4682 103.525C38.6752 104.077 38.0094 104.793 37.9904 105.79C37.9748 106.666 38.8927 107.453 39.6456 107.744C40.7118 108.152 41.835 108.016 42.9124 107.723C45.0315 107.143 47.3391 105.764 48.6608 104.001C50.4331 101.637 47.7106 98.85 46.4614 97.0068C46.0219 96.3567 44.9523 96.966 45.3974 97.6227C46.6588 99.4868 49.2564 101.909 47.0213 104.024C45.6105 105.326 43.8834 106.245 42.0079 106.691C41.0487 106.911 39.959 106.823 39.3244 105.996C38.6407 105.106 40.9795 104.089 41.4435 103.7C43.0183 102.375 42.5934 100.508 41.197 99.2319C40.6137 98.6988 39.7393 99.563 40.3248 100.095H40.3282Z" fill="#851919"/>
<path d="M59.6858 16.4089C45.9182 1.09391 13.926 3.33222 6.22239 26.7065C2.56745 37.8031 4.96765 47.7111 16.3541 60.5814C18.1196 62.5791 19.0309 65.6264 19.8629 69.7962H19.9198C20.4395 71.5622 21.3385 73.2806 22.6825 73.8987C24.6722 74.7188 47.7128 74.1194 49.3779 73.7354C51.0632 73.3457 52.0625 71.859 52.7897 69.7201H52.9425C54.3512 63.0018 56.2194 59.2481 58.9118 56.0518C65.7655 47.9175 73.3888 31.6522 59.6858 16.4089Z" fill="#FDC157"/>
<path d="M66.3244 30.5839C65.914 28.297 65.0763 26.1205 64.087 24.0246C63.4089 22.5898 62.5167 20.8647 61.2876 19.6815C60.7388 18.6908 60.1299 17.734 59.464 16.8163C58.3933 15.3528 57.1218 14.2049 55.6908 13.1045C54.6212 12.2823 53.3609 11.7238 52.1329 11.1178C50.9659 10.0332 49.684 9.07624 48.3095 8.26366C47.7954 7.96015 47.3057 8.64003 47.6905 9.05833C51.9846 13.7535 55.3863 19.0413 57.472 24.8755C58.0663 27.4258 58.4066 30.0275 58.4881 32.6434C58.6554 38.1343 57.0236 43.2599 54.7238 48.2056C52.424 53.1513 49.6647 57.8851 47.6872 62.9842C47.028 64.6817 46.5808 66.4444 45.6796 68.0105C44.7695 69.2246 43.5058 70.0811 42.134 70.7576C41.5194 71.0601 40.8112 71.3823 40.0628 71.6638C39.4326 71.7101 38.8058 71.7399 38.1924 71.762C35.133 71.8724 32.0748 71.6914 29.0232 71.4729C26.584 71.2985 23.7343 71.0888 21.3743 71.8437C21.2619 71.8795 21.1639 71.9496 21.0943 72.044C21.0248 72.1384 20.9873 72.2522 20.9873 72.3691C20.9873 72.4859 21.0248 72.5997 21.0943 72.6941C21.1639 72.7885 21.2619 72.8587 21.3743 72.8944C24.0154 73.7686 27.0056 74.0522 29.7649 74.3127C33.0641 74.6239 36.3855 74.8756 39.6981 74.6868C41.5629 74.5765 43.4378 74.327 45.229 73.8039C46.2328 74.5831 47.1964 74.5367 48.0776 74.0036C48.2699 74.1443 48.4981 74.2292 48.7365 74.2487C48.9749 74.2682 49.214 74.2215 49.4271 74.114C51.3901 73.1681 52.1195 71.0093 52.2857 68.9564C52.8612 67.9984 53.1423 66.9697 52.8378 65.9764C52.8724 65.8793 52.9058 65.7877 52.9371 65.7016C53.8527 64.6233 54.5443 63.2171 55.2068 62.0936C56.4024 60.0639 57.5913 58.0341 58.8282 56.0232C61.2608 52.0785 63.6019 48.0964 65.2102 43.7423C66.7928 39.4731 67.1274 35.0605 66.3244 30.5839Z" fill="#F2990A"/>
<path d="M44.4087 8.29122C39.5793 6.1103 33.2721 6.59373 28.2866 7.94025C27.2791 8.2122 26.2865 8.53603 25.3131 8.9104C25.1938 8.847 25.054 8.83234 24.9239 8.86957C20.1614 9.97327 16.4139 12.3716 13.1014 15.8924C10.09 19.0932 7.24921 23.2873 6.42944 27.6756C5.94538 28.8985 5.52193 30.1494 5.15907 31.4282C4.36273 34.2195 4.00024 37.2116 4.47761 40.0956C4.8847 42.5723 5.86173 45.879 7.73661 47.8105C8.36008 50.0698 9.35718 52.5862 10.9845 54.0784C11.1328 54.3047 11.2845 54.5287 11.4373 54.7495C13.6847 57.9844 16.3682 60.9071 18.388 64.2976C19.3918 65.9885 20.1536 67.8913 20.7135 69.7665C21.1485 71.2245 21.4608 72.4043 22.498 73.593C22.6363 73.752 22.9207 73.5378 22.7936 73.3723C21.5667 71.7377 22.3475 70.0248 22.1244 68.1683C21.9317 66.5453 21.4666 64.9655 20.7481 63.4941C19.1297 60.0815 16.5221 57.256 14.2847 54.2495C12.6305 52.0069 11.2411 49.5843 10.1435 47.0291C9.93381 46.2885 9.75313 45.5402 9.58583 44.793C8.76048 41.0172 8.7326 37.1156 9.17204 33.2924C9.18654 33.1732 9.2055 33.0562 9.22111 32.9381C9.6287 32.5652 10.1495 32.3363 10.7023 32.2869C12.8761 33.8012 15.7324 33.2151 18.02 31.8553C20.1926 30.564 21.7954 28.2882 22.9352 26.1028C24.5703 22.9716 25.6645 17.7147 21.3437 16.154C20.7303 15.9328 20.0887 15.7972 19.4376 15.7512C19.3679 15.5065 19.3515 15.2499 19.3896 14.9984C22.2886 12.9106 25.5049 11.2925 28.9179 10.205C31.3337 9.43246 33.8253 9.03291 36.3382 8.70291C39.0083 8.35303 41.6237 8.72167 44.295 8.70953C44.5069 8.70843 44.6229 8.38725 44.4087 8.29122Z" fill="#FFDC7B"/>
<path d="M48.3 81.2825C48.1304 81.2957 47.9598 81.3123 47.7903 81.3277C47.846 80.2638 48.0011 79.2108 47.9977 78.1524L48.8811 78.0828C51.617 77.0983 50.9533 74.0631 48.3 74.3093C46.8165 74.4321 45.3414 74.6395 43.8821 74.9307C42.3798 74.9053 40.8763 74.8655 39.3728 74.8722C37.8694 74.8788 36.3615 74.9185 34.8379 74.9174C34.2802 74.2773 33.388 74.3656 32.8035 74.8865C32.6351 74.8865 32.4689 74.8766 32.2994 74.8689C32.0536 74.6754 31.7541 74.5605 31.4408 74.5394C31.1274 74.5183 30.815 74.592 30.545 74.7508C29.3109 74.6449 28.0868 74.446 26.8834 74.1559C26.2354 73.9947 25.2527 73.8336 24.5177 74.0896C24.0326 74.0113 23.5362 74.2287 23.4113 74.8622C23.166 76.1138 23.224 77.3334 23.2998 78.5994C23.312 78.8659 23.4146 79.1205 23.5909 79.3223C22.8581 79.5552 22.1923 79.8399 21.6837 80.2119L21.7763 80.2042C20.7936 81.1909 21.1639 82.6875 22.4298 83.0009C22.5983 83.0429 22.915 83.044 23.3522 83.0131C23.4359 83.9523 23.6333 84.875 23.8106 85.8011C23.8106 85.9434 23.8106 86.0869 23.8106 86.2304C22.9953 86.4754 22.2492 86.7822 21.6915 87.1851L21.7841 87.1774C20.8015 88.1707 21.1717 89.6618 22.4376 89.9753C22.6663 90.0316 23.1648 90.015 23.8697 89.941C23.8865 90.2898 23.8987 90.6386 23.921 90.9874C23.9454 91.3333 24.0688 91.6652 24.2768 91.9443C23.3366 92.2941 22.9518 92.7577 23.4325 93.3736C23.9556 94.0446 24.9717 95.1649 25.8718 96.1549C28.4504 98.6338 30.7034 99.8612 31.6391 100.07C32.8827 100.276 38.3557 100.276 39.7643 100.138C43.2464 99.7243 46.5623 96.4099 48.3033 93.9939C49.1956 92.761 48.6145 92.0502 47.4624 91.6374C47.4183 91.5165 47.368 91.3979 47.3118 91.2821C47.7992 90.9267 48.0546 90.2689 47.9576 89.5923C47.7468 88.1199 47.846 86.6244 47.8683 85.1322L48.8844 85.0527C51.617 84.0715 50.9556 81.0364 48.3 81.2825Z" fill="#A59BB3"/>
<path d="M27.1588 97.5886C26.8343 97.2189 26.3692 96.7056 25.8684 96.1538L25.7646 96.05L27.1588 97.5886Z" fill="#A59BB3"/>
<path d="M25.7644 96.0557L23.2627 93.3086C24.0397 94.2735 24.8751 95.1909 25.7644 96.0557Z" fill="#A59BB3"/>
<path d="M39.3473 100.698L32.217 100.779C31.8835 103.652 39.2637 104.391 39.3473 100.698Z" fill="#A59BB3"/>
<path d="M49.171 81.4447C49.0677 81.4177 48.9611 81.4047 48.8543 81.406C48.7128 81.3147 48.5518 81.2572 48.3839 81.2381C48.2161 81.2189 48.0461 81.2386 47.8873 81.2957C45.9678 81.8939 43.8275 81.917 42.237 82.9634C42.2024 82.8927 42.169 82.8199 42.1255 82.7492C42.0855 82.684 42.0326 82.6274 41.9698 82.5831C41.9071 82.5387 41.8359 82.5075 41.7605 82.4913C41.6851 82.4751 41.6072 82.4742 41.5316 82.4888C41.4559 82.5033 41.3839 82.533 41.3202 82.576C41.1384 82.4821 40.8585 82.5506 40.8105 82.7768C40.6585 83.5179 40.3402 84.2156 39.8792 84.8187C39.8239 84.8868 39.7623 84.9496 39.6952 85.0063C34.1587 86.2094 28.3032 86.9014 23.1726 89.3737C22.6852 89.6088 23.0444 90.2887 23.5217 90.1937C24.7185 89.9564 25.9197 89.739 27.122 89.5315C26.1391 89.7852 25.1881 90.1473 24.2869 90.6109C23.7292 90.9012 24.1184 91.7511 24.7062 91.5954C27.0819 90.9652 29.6282 90.8361 32.0752 90.7191C32.9541 90.6772 33.8285 90.5701 34.6996 90.4465C34.81 90.4684 34.9238 90.4684 35.0342 90.4465C35.5227 90.3508 36.0116 90.2717 36.5009 90.2092C36.5477 90.5226 36.7786 90.803 37.1701 90.7809C37.3697 90.7688 37.5671 90.7599 37.7657 90.7511C37.8135 90.8568 37.894 90.9447 37.9957 91.002C38.0974 91.0594 38.2149 91.0832 38.3311 91.0701C40.6666 90.9001 39.2758 93.8205 38.6769 94.9485C38.089 96.0475 37.368 97.0716 36.5299 97.998C35.7123 98.8953 34.8301 99.0841 33.7415 99.4792C33.0857 99.7176 33.1091 100.528 33.7415 100.775C34.1858 100.938 34.67 100.96 35.1279 100.84C35.1708 100.948 35.2463 101.04 35.3441 101.105C35.4418 101.169 35.5571 101.202 35.6744 101.199C35.8585 101.185 36.0435 101.194 36.2254 101.225C36.2916 101.237 36.3571 101.252 36.4217 101.271C36.3971 101.271 36.5332 101.329 36.5879 101.359C36.5879 101.376 36.6481 101.469 36.6559 101.445C36.6648 101.493 36.6737 101.555 36.676 101.555C36.6706 101.723 36.6951 101.891 36.7485 102.051C36.879 102.37 37.0675 102.62 37.4177 102.713C37.6226 102.768 37.8401 102.755 38.0365 102.675C38.2329 102.595 38.3973 102.453 38.504 102.272C38.8921 101.557 38.63 100.678 38.0913 100.099C40.2707 99.9968 42.6296 99.1448 44.4599 98.1073C46.3303 97.0466 48.6301 94.528 47.6051 92.2334C47.3403 91.6455 46.8511 91.1852 46.2444 90.9531C46.3559 90.984 46.4753 91.0127 46.5902 91.0447C47.517 91.2996 48.1784 90.6032 48.291 89.7622C48.4115 88.8605 48.3301 88.0658 47.9564 87.2601C48.5654 86.631 48.3535 85.6652 47.8059 85.2116C49.0327 84.6465 50.283 83.7834 50.0287 82.2923C49.9518 81.8828 49.548 81.555 49.171 81.4447ZM43.2141 95.4849C43.2397 95.4959 43.2654 95.5026 43.2921 95.5114C43.1516 95.6019 43.0088 95.6858 42.8638 95.7663C42.9787 95.6703 43.0958 95.5765 43.2141 95.4849ZM36.6436 101.391C36.6468 101.393 36.6494 101.395 36.6514 101.399C36.6496 101.395 36.6469 101.393 36.6436 101.391ZM36.6291 101.378L36.6369 101.383C36.6369 101.383 36.6369 101.383 36.6425 101.383L36.6291 101.378ZM42.1534 91.2985C41.9082 91.4277 41.6772 91.5815 41.4641 91.7577C41.4109 91.3196 41.2629 90.8979 41.0302 90.5215L41.2377 90.495C41.7597 90.4167 42.3887 90.3979 42.9609 90.2743C43.7416 90.3847 44.5156 90.5304 45.2852 90.7058C44.2053 90.5983 43.117 90.8042 42.1534 91.2985Z" fill="#897E9B"/>
<path d="M41.3495 79.2859C39.4701 79.4879 37.651 80.1237 35.8554 80.6799C32.1201 81.8377 28.048 82.2483 24.4288 83.6897C24.189 83.4425 23.667 83.5054 23.59 83.8884C23.5365 84.1478 23.4852 84.4071 23.4384 84.6676C23.377 84.9888 23.5231 85.3927 23.8912 85.459C23.9971 85.4788 24.102 85.4976 24.2079 85.5153C24.4901 85.5627 24.8359 85.4744 24.9965 85.2283C28.7128 84.9932 32.3577 84.2681 35.9167 83.2008C37.912 82.6026 39.9018 81.8642 41.9863 81.6501C43.8389 81.4591 45.6814 81.4371 47.437 80.7506C48.6281 80.2837 48.4263 78.6226 47.4504 78.3853C48.1938 78.0012 48.9047 77.5582 49.5762 77.0609C50.6859 76.2408 50.0792 74.3932 48.5991 74.7652C46.6763 75.2475 44.6955 75.4042 42.7604 75.8093C42.6879 75.6803 42.6055 75.5571 42.5139 75.4406C42.2451 75.1029 41.7454 75.3435 41.6216 75.6724C41.3272 76.4847 41.6038 77.413 41.1275 78.1646C40.8532 78.6072 41.0294 79.0354 41.3495 79.2859Z" fill="#897E9B"/>
<path d="M31.8901 77.2882C33.4432 77.3009 34.9948 77.1939 36.531 76.9681C37.6988 76.7993 39.3417 76.7959 39.877 75.5763C40.0756 75.1249 39.9796 74.7298 39.5748 74.4362C38.629 73.7508 37.4233 74.2883 36.3671 74.4693C34.8904 74.7221 33.3813 74.7695 31.8868 74.8236C29.0527 74.9263 26.2321 74.6934 23.398 74.8622C23.2483 74.8663 23.105 74.923 22.9936 75.022C22.8822 75.121 22.81 75.256 22.7899 75.4028C22.7698 75.5497 22.8031 75.6988 22.8838 75.8236C22.9646 75.9484 23.0875 76.0407 23.2307 76.084C26.0525 77.0321 28.9267 77.254 31.8901 77.2882Z" fill="#897E9B"/>
<path d="M23.5182 77.2992C23.527 77.3804 23.5509 77.4593 23.5884 77.5321C23.5884 77.8797 23.6041 78.2108 23.8628 78.4846C23.8898 78.5114 23.9218 78.5327 23.9571 78.5473C23.9925 78.5618 24.0303 78.5693 24.0686 78.5693C24.1068 78.5693 24.1447 78.5618 24.18 78.5473C24.2154 78.5327 24.2474 78.5114 24.2744 78.4846C24.3322 78.4184 24.3796 78.344 24.4149 78.2638C24.4564 78.3302 24.5026 78.3937 24.5532 78.4537C24.6006 78.5003 24.6648 78.5265 24.7317 78.5265C24.7985 78.5265 24.8627 78.5003 24.9101 78.4537C25.683 77.5541 25.151 76.1436 24.7896 75.1712C24.7582 75.0841 24.7067 75.0054 24.6393 74.9414C24.5718 74.8774 24.4902 74.8298 24.4009 74.8024C24.3117 74.775 24.2172 74.7685 24.1249 74.7835C24.0327 74.7985 23.9452 74.8345 23.8695 74.8887C23.7984 74.8987 23.7305 74.9246 23.671 74.9643C23.6115 75.0041 23.5619 75.0567 23.526 75.1183C23.4712 75.1729 23.44 75.2465 23.439 75.3235C23.427 75.7086 23.4464 76.0939 23.497 76.4758C23.4854 76.7504 23.4925 77.0255 23.5182 77.2992Z" fill="#BCB5C6"/>
<path d="M22.7379 82.4721C22.8622 82.5305 23.0001 82.5549 23.1372 82.5428C23.2898 82.5295 23.4414 82.5067 23.5911 82.4744C23.5917 82.4776 23.5917 82.481 23.5911 82.4843C23.9792 83.2149 25.0053 82.9589 25.2463 82.2702C25.3979 81.8287 25.3065 81.3574 25.4258 80.9049C25.5152 80.6257 25.644 80.3604 25.8084 80.1168L26.2813 79.9954C28.9525 79.2957 31.6483 78.7869 34.373 78.3399C37.042 77.8984 39.7266 77.5419 42.4034 77.1446C43.7318 76.947 46.3338 76.9569 47.0789 75.5939C47.1189 75.5232 47.1424 75.4445 47.1474 75.3636C47.1525 75.2827 47.1392 75.2017 47.1083 75.1267C47.0774 75.0516 47.0299 74.9844 46.9692 74.93C46.9085 74.8756 46.8362 74.8354 46.7577 74.8124C45.1282 74.2838 42.6789 75.1965 41.0394 75.4471C37.9733 75.9139 34.905 76.3466 31.8524 76.9238C30.9289 77.0971 27.5026 77.7295 24.9117 78.8288C24.8293 78.8575 24.7491 78.8922 24.6719 78.9326C22.6453 79.8343 21.2221 81.0384 22.1066 82.5527C22.1412 82.6102 22.1921 82.6565 22.2529 82.6857C22.3137 82.715 22.3819 82.726 22.449 82.7175C22.516 82.7089 22.5791 82.6811 22.6305 82.6375C22.6818 82.5939 22.7191 82.5365 22.7379 82.4721Z" fill="#BCB5C6"/>
<path d="M46.781 81.2592C44.9184 81.1587 42.9766 81.9048 41.2044 82.4015C39.2514 82.9534 37.3085 83.535 35.3467 84.0571C33.3636 84.5835 31.3147 84.7469 29.2926 85.0736C28.0309 85.2653 26.7843 85.5441 25.5618 85.908C25.4928 85.799 25.3875 85.7173 25.2641 85.677C25.1407 85.6367 25.007 85.6403 24.886 85.6872C24.3878 85.8677 23.9662 86.2101 23.6903 86.6585C22.2738 87.4035 21.4284 88.441 22.4456 89.8592C22.7735 90.3173 23.6201 90.0546 23.4159 89.4542C23.3832 89.3546 23.3618 89.2517 23.3524 89.1474C23.3524 89.1595 23.3591 89.1716 23.3635 89.1838C23.668 90.0237 25.1481 89.9641 25.0365 88.963C24.9718 88.3704 24.9484 87.8141 25.1748 87.3009C27.2728 86.4841 30.5463 86.2192 31.5478 86.0813C33.3448 85.8538 35.1246 85.5094 36.8758 85.0504C38.6402 84.5736 40.3857 84.0262 42.1446 83.5262C43.7529 83.0693 45.4995 82.8419 47.0108 82.1212C47.4625 81.906 47.2082 81.2824 46.781 81.2592Z" fill="#BCB5C6"/>
<path d="M45.5615 91.0128C44.3915 90.7567 43.2393 90.9521 42.0526 91.0128C40.48 91.1011 38.9107 91.2115 37.3348 91.27C34.9747 91.3568 32.6154 91.4216 30.2569 91.4642C29.6422 91.4732 29.0298 91.5398 28.4277 91.6629C28.4132 91.6552 28.4021 91.6441 28.3865 91.6364C27.8511 91.3561 27.2377 91.1596 26.6265 91.2082C26.448 91.2133 26.2757 91.274 26.1341 91.3817C25.9925 91.4893 25.8888 91.6384 25.8378 91.8077C25.7868 91.977 25.791 92.158 25.8499 92.3248C25.9088 92.4916 26.0194 92.6358 26.1658 92.7368C26.1042 92.8016 26.0469 92.8701 25.9941 92.9421C25.9313 92.6328 25.8421 92.3293 25.7275 92.0348C25.5044 91.483 24.8152 91.3417 24.4605 91.8715C23.4009 93.4509 24.8709 95.6329 25.9818 96.7664C27.2533 98.0655 29.3022 99.5941 31.1938 99.7188C31.2375 99.7186 31.2807 99.7084 31.3199 99.6891C31.3591 99.6698 31.3933 99.6419 31.4199 99.6075C31.4465 99.5731 31.4648 99.5331 31.4733 99.4906C31.4819 99.4481 31.4805 99.4042 31.4692 99.3623C31.3138 98.9422 31.0783 98.5555 30.7755 98.2233C30.3149 97.2178 29.5832 96.2896 28.991 95.3824C28.6229 94.8184 28.2649 94.218 28.0987 93.5624C27.9983 93.1606 28.5147 93.026 29.001 92.9642C30.3271 92.8648 31.7001 93.0436 33.0318 93.037C35.2491 93.0271 37.482 92.8935 39.6971 92.7843C41.5987 92.6893 43.9877 92.7467 45.6585 91.7457C45.9485 91.5779 45.9184 91.0956 45.5615 91.0128Z" fill="#BCB5C6"/>
<path d="M33.2961 100.315C32.85 99.8028 32.1373 100.362 32.2466 100.921C32.386 101.641 32.5745 102.76 33.2783 103.147C33.6341 103.345 34.1572 103.179 34.2486 102.757C34.3479 102.299 34.1873 101.952 34.0256 101.533C33.8564 101.088 33.6095 100.676 33.2961 100.315Z" fill="#BCB5C6"/>
<path d="M20.2449 69.7941C19.9103 66.1022 18.8429 62.4997 16.359 59.6632C13.2194 56.0816 10.3853 52.2032 8.25838 47.9407C4.83208 41.0834 4.55771 33.7029 6.99136 26.4935C11.1817 14.0868 23.6455 7.24269 36.4183 7.35417C50.4882 7.47558 63.6324 16.59 66.249 30.7604C67.5729 37.9345 65.234 45.2918 61.453 51.371C59.847 53.9482 57.7089 56.1324 56.1273 58.7195C54.1197 62.0074 53.0546 65.802 52.2538 69.5303C52.0619 70.4254 53.4483 70.8062 53.6401 69.9089C54.4755 66.0117 55.6098 62.1829 57.7669 58.789C59.3919 56.2306 61.5055 54.0343 63.0903 51.4306C66.7141 45.4706 68.6793 38.4544 67.7937 31.4999C66.0504 17.8383 54.0283 7.96562 40.709 6.2913C28.9266 4.81013 16.5196 8.97993 9.48078 18.7433C5.65296 24.0499 3.69332 30.9304 4.03908 37.4246C4.4551 45.2267 8.69447 52.1657 13.4804 58.1301C14.8188 59.8077 16.3802 61.2955 17.3405 63.2348C18.3733 65.3174 18.7905 67.6981 19.4954 69.8978C19.6203 70.2874 20.2861 70.2389 20.2449 69.7963V69.7941Z" fill="#851919"/>
<path d="M19.0415 66.1805C18.4068 69.5302 19.9181 74.4759 23.7872 74.8832C27.6909 75.2949 31.706 75.1128 35.6198 75.0587C39.6349 75.0035 43.6613 74.9207 47.6732 74.6746C48.8721 74.6006 49.9451 74.5278 50.9913 73.8656C53.281 72.4131 53.996 68.8912 54.3941 66.4619C54.5425 65.5602 53.2297 65.1551 52.9832 66.0767C52.3932 68.2841 51.9873 71.9264 49.4989 72.8921C48.7874 73.1691 47.7267 73.1128 46.8512 73.1647C43.2297 73.359 39.6015 73.4351 35.9744 73.4892C32.3474 73.5433 28.7348 73.5885 25.1245 73.4064C24.1608 73.3579 23.1682 73.4141 22.4042 72.7685C20.6074 71.2553 20.1802 68.3139 19.6906 66.1805C19.6192 65.8681 19.1039 65.8494 19.0415 66.1805Z" fill="#851919"/>
<path d="M22.6886 73.7408C21.9391 74.5256 22.1544 76.0156 22.1711 77.0321C22.1879 77.9967 22.044 79.4006 22.9362 79.9955C22.9968 80.0308 23.0676 80.0451 23.1373 80.0361C23.207 80.0271 23.2716 79.9953 23.321 79.9458C23.9702 79.1666 23.5731 77.9835 23.5519 77.0321C23.5285 75.9813 23.8687 74.6039 23.1738 73.7408C23.142 73.7092 23.1042 73.6841 23.0626 73.667C23.0209 73.6499 22.9763 73.6411 22.9312 73.6411C22.8861 73.6411 22.8415 73.6499 22.7999 73.667C22.7583 73.6841 22.7205 73.7092 22.6886 73.7408Z" fill="#851919"/>
<path d="M21.9656 80.6867C23.9074 79.5675 26.2607 79.3832 28.4077 78.8622C31.2775 78.1647 34.1673 77.6316 37.0627 77.0566C39.8745 76.5047 42.6461 75.7939 45.479 75.3403C46.5943 75.1615 48.7135 74.5291 49.686 75.3723C50.7077 76.2553 49.1183 77.2177 48.5785 77.7839C48.5204 77.8438 48.4812 77.9191 48.4657 78.0006C48.4501 78.0822 48.4589 78.1664 48.491 78.2431C48.523 78.3198 48.577 78.3856 48.6462 78.4324C48.7154 78.4792 48.7969 78.5051 48.8808 78.5069C50.7668 78.5069 51.8286 76.3259 50.9464 74.7631C49.6537 72.4729 45.1935 73.9784 43.3063 74.3635C39.2677 75.1869 35.2213 76.0257 31.1949 76.9021C29.4104 77.2884 27.6549 77.7464 25.8703 78.1161C24.3089 78.4351 22.705 78.7938 21.409 79.754C20.8514 80.1635 21.3354 81.0575 21.9667 80.6944L21.9656 80.6867Z" fill="#851919"/>
<path d="M21.4636 79.7482C20.4486 80.6014 20.2501 82.4203 21.4145 83.2801C22.1952 83.8573 22.9347 83.832 23.8571 83.7514C26.6822 83.5042 29.4839 82.9059 32.2622 82.3618C35.7889 81.6698 39.3055 80.9193 42.8133 80.1401C44.948 79.6677 47.288 79.3586 49.3368 78.5805C50.2748 78.2262 49.9235 76.8863 48.9208 77.0861C44.3636 77.9967 39.8498 79.1754 35.2959 80.1114C32.396 80.7118 29.4906 81.2879 26.5707 81.7769C25.2445 81.9976 20.4196 83.2271 22.3324 80.4094C22.7027 79.863 21.9186 79.3708 21.468 79.7471L21.4636 79.7482Z" fill="#851919"/>
<path d="M21.9656 87.6608C23.9074 86.5406 26.2607 86.3563 28.4077 85.8353C31.2775 85.1378 34.1673 84.6047 37.0627 84.0307C39.8745 83.4789 42.6461 82.767 45.479 82.3134C46.5943 82.1346 48.7135 81.5033 49.686 82.3465C50.7077 83.2295 49.1183 84.1908 48.5785 84.7581C48.5203 84.8178 48.4809 84.893 48.4653 84.9746C48.4497 85.0561 48.4585 85.1404 48.4906 85.217C48.5227 85.2937 48.5767 85.3594 48.646 85.4061C48.7153 85.4528 48.7969 85.4785 48.8808 85.4799C50.7668 85.4799 51.8286 83.299 50.9464 81.7361C49.6537 79.446 45.1935 80.9525 43.3063 81.3366C39.2677 82.16 35.2213 82.9988 31.1949 83.8751C29.4104 84.2603 27.6549 84.7195 25.8703 85.0892C24.3089 85.4093 22.705 85.7669 21.409 86.7271C20.8514 87.1366 21.3354 88.0306 21.9667 87.6686L21.9656 87.6608Z" fill="#851919"/>
<path d="M21.4636 86.7226C20.4486 87.5735 20.2501 89.3935 21.4145 90.2544C22.1952 90.8317 22.9347 90.8063 23.8571 90.7257C26.6822 90.4785 29.4839 89.8803 32.2622 89.3362C35.7867 88.6463 39.3055 87.8947 42.8133 87.1221C44.948 86.6486 47.288 86.3396 49.3368 85.5626C50.2748 85.2072 49.9235 83.8673 48.9208 84.0671C44.3636 84.9743 39.8498 86.1487 35.2959 87.0901C32.396 87.6883 29.4906 88.2656 26.5707 88.7534C25.2445 88.9741 20.4196 90.2048 22.3324 87.387C22.7027 86.8418 21.9186 86.3484 21.468 86.7248L21.4636 86.7226Z" fill="#851919"/>
<path d="M22.7743 82.4117C22.1664 82.8069 22.3281 83.5441 22.3426 84.1865C22.3527 84.681 22.3661 85.1798 22.375 85.6688C22.3828 86.0716 22.6047 86.331 22.7564 86.682C22.8735 86.9491 23.2159 86.8122 23.3007 86.6124C23.4412 86.2813 23.6431 86.0496 23.6297 85.6688C23.613 85.1754 23.5929 84.6754 23.574 84.1865C23.5483 83.5486 23.6933 82.7969 23.0877 82.4117C23.0403 82.3839 22.9861 82.3691 22.931 82.3691C22.8758 82.3691 22.8217 82.3839 22.7743 82.4117Z" fill="#851919"/>
<path d="M47.8243 77.316C47.5511 77.9462 47.5712 78.6404 47.5221 79.3137C47.4685 80.0454 47.299 80.8456 47.9983 81.3003C48.2348 81.4549 48.5237 81.3754 48.7211 81.2087C49.2631 80.7529 49.0679 79.9483 49.0691 79.3148C49.0691 78.6371 49.1315 77.9208 48.7746 77.3171C48.5861 76.997 47.9939 76.9275 47.8243 77.3171V77.316Z" fill="#851919"/>
<path d="M47.9444 84.7348C47.7633 85.7293 47.643 86.7336 47.5842 87.7424C47.5306 88.8848 47.4403 90.0735 46.9931 91.1396C46.9016 91.3604 47.012 91.6573 47.1737 91.8129C47.2544 91.904 47.3629 91.9668 47.4827 91.9917C47.8942 92.0601 48.1865 91.8813 48.3426 91.5083C49.2159 89.3958 49.0553 86.8826 48.4943 84.7348C48.4263 84.4799 47.9913 84.4512 47.9444 84.7348Z" fill="#851919"/>
<path d="M27.4778 97.4044C26.8878 96.2731 25.8918 95.3714 25.072 94.3968C24.6664 93.9266 24.2888 93.4336 23.941 92.9201C23.9332 92.9057 23.9031 92.9267 24.1931 92.7711C25.8103 91.9047 28.1693 91.9609 29.946 91.8528C34.4229 91.5802 38.9322 91.6861 43.4125 91.8318C44.5167 91.8682 45.6209 91.9521 46.7005 92.2016C48.3735 92.5912 47.837 93.1574 47.2415 94.3615C46.5031 95.8515 44.4375 97.2676 43.0958 98.1638C41.6759 99.1118 40.1769 99.5059 38.4939 99.5533C37.2057 99.5898 35.9153 99.5754 34.627 99.5533C33.6232 99.5335 32.4566 99.6273 31.4952 99.3105C28.2607 98.2476 26.1416 94.9796 23.7481 92.8296C23.1815 92.3196 22.2614 92.9686 22.6696 93.6529C24.3504 96.4663 27.6484 99.2145 30.7189 100.489C32.9619 101.421 36.126 100.941 38.4939 100.865C42.0987 100.754 44.9996 98.8116 47.3206 96.1716C48.6267 94.6849 50.8964 92.3848 48.0635 91.0736C45.9856 90.1111 43.3612 90.3352 41.1272 90.2734C38.4917 90.1994 35.8539 90.1774 33.2184 90.2303C31.88 90.2568 21.2642 90.0537 22.6227 93.3351C22.9317 94.0823 23.6934 94.6529 24.2355 95.229C25.1055 96.1539 25.9219 97.1837 26.9748 97.9055C27.3004 98.1262 27.6373 97.7068 27.48 97.4055L27.4778 97.4044Z" fill="#851919"/>
<path d="M22.9663 90.3452C22.923 90.4943 22.918 90.6517 22.9518 90.8032C22.9596 90.865 22.9696 90.928 22.9785 90.9898C22.9607 90.8794 22.9607 91.1001 22.9607 91.0935C22.9674 91.5273 23.1581 92.0317 23.5284 92.269C23.6264 92.3245 23.7359 92.3571 23.8486 92.3642C23.9613 92.3714 24.0742 92.353 24.1786 92.3104C24.283 92.2678 24.3762 92.2021 24.451 92.1184C24.5258 92.0347 24.5803 91.9352 24.6103 91.8275C24.7106 91.3981 24.4842 90.9048 24.1798 90.588C24.0448 90.4489 23.8942 90.205 23.67 90.056C23.4013 89.8772 23.0577 90.0649 22.9663 90.3397V90.3452Z" fill="#851919"/>
<path d="M32.0369 100.477C31.2695 101.058 31.7413 101.987 32.2477 102.574C32.9269 103.37 34.1304 103.726 35.1342 103.835C37.1886 104.055 40.1063 103.222 40.0138 100.695C39.987 99.9816 38.836 99.7565 38.7032 100.519C38.4054 102.217 36.9678 102.603 35.3784 102.506C34.6802 102.459 33.8772 102.224 33.3173 101.796C32.8712 101.456 32.8611 100.899 32.4685 100.532C32.4128 100.477 32.3403 100.442 32.2622 100.432C32.1841 100.422 32.1049 100.438 32.0369 100.477Z" fill="#851919"/>
<path d="M36.5332 55.0817C35.6142 55.0729 34.6918 55.0144 33.7717 54.9912C33.4975 54.9915 33.2309 55.0807 33.0127 55.2452C32.7946 55.4096 32.6369 55.6402 32.5638 55.9018C32.4325 56.3967 32.354 56.9038 32.3296 57.4149C32.3209 57.613 32.3672 57.8095 32.4634 57.9834C32.3581 58.0507 32.2718 58.1434 32.2125 58.2527C32.1531 58.362 32.1227 58.4843 32.1241 58.6084C32.1254 58.7324 32.1584 58.8541 32.2201 58.9622C32.2818 59.0702 32.3701 59.161 32.4768 59.2261C33.3914 59.8431 34.9997 59.6742 36.0681 59.7184C36.266 59.7212 36.461 59.6716 36.6328 59.5745C36.8047 59.4774 36.9471 59.3366 37.0452 59.1665C37.4645 58.3156 37.4657 57.4481 37.6497 56.5386C37.8014 55.8068 37.3285 55.0883 36.5332 55.0817Z" fill="#F0618C"/>
<path d="M37.3053 59.8155C36.7756 58.8508 36.548 57.7714 35.2543 57.6081C34.0374 57.4579 32.6656 58.3674 32.2986 59.513C32.1704 59.9126 32.5351 60.343 32.9277 60.364C32.9569 60.4452 32.9967 60.5224 33.0459 60.5936C33.3247 60.9821 33.3995 61.4489 33.492 61.928C33.6638 62.7933 34.9899 63.1663 35.5688 62.4699C35.8985 62.0705 36.1142 61.5911 36.1934 61.0814C36.3785 61.1381 36.5746 61.1506 36.7655 61.1178C37.0221 61.0781 37.1592 60.8971 37.3031 60.7095C37.495 60.46 37.447 60.0737 37.3053 59.8155ZM33.7798 60.7691L33.7887 60.7602C33.782 60.7812 33.7731 60.8022 33.7664 60.822C33.7731 60.805 33.7776 60.7872 33.7798 60.7691Z" fill="#FF93B8"/>
<path d="M40.3484 50.6182C41.4336 48.2795 45.6719 48.6724 46.9679 50.531C47.6025 51.4405 48.8639 50.6657 48.4368 49.6812C46.9355 46.2166 40.6618 46.8115 39.2832 50.0023C38.9776 50.7109 40.0138 51.34 40.3484 50.6182Z" fill="#851919"/>
<path d="M39.1917 49.5001C39.9457 49.254 40.5926 48.8004 41.351 48.5476C42.1563 48.2794 43.024 48.2353 43.8706 48.2596C44.7171 48.2839 45.5703 48.5189 46.3745 48.7927C47.066 49.0277 47.6538 49.5476 48.4077 49.4891C48.7223 49.4648 49.029 49.1756 48.9096 48.8379C48.3274 47.1901 45.3785 46.7994 43.8706 46.7265C42.1507 46.6415 39.5743 47.2464 38.7133 48.8876C38.5515 49.1944 38.8181 49.626 39.1917 49.5034V49.5001Z" fill="#851919"/>
<path d="M32.3705 50.0024C30.992 46.8105 24.7182 46.2156 23.217 49.6812C22.7909 50.6658 24.0513 51.4472 24.6859 50.5311C25.9819 48.6725 30.2202 48.2795 31.3054 50.6183C31.64 51.3401 32.6772 50.711 32.3705 50.0024Z" fill="#851919"/>
<path d="M32.9404 48.8845C32.0549 47.1936 29.5253 46.7102 27.7842 46.7234C26.2886 46.7355 23.3118 47.2333 22.7452 48.8381C22.6258 49.1758 22.9314 49.465 23.246 49.4893C23.9854 49.5467 24.61 49.0478 25.2803 48.7929C26.0836 48.4931 26.9275 48.3134 27.7842 48.2598C28.6342 48.2122 29.4861 48.3096 30.3027 48.5478C31.0767 48.7608 31.7069 49.2531 32.462 49.5003C32.8367 49.6228 33.101 49.1913 32.9404 48.8845Z" fill="#851919"/>
<path d="M32.5747 55.4138C34.3592 55.5849 36.1906 55.1346 37.9338 55.6346C38.699 55.8553 39.0258 54.6721 38.2618 54.458C36.2709 53.8985 34.4518 54.4172 32.4765 54.692C32.0304 54.7538 32.191 55.3774 32.5747 55.4127V55.4138Z" fill="#851919"/>
<path d="M32.1064 55.1622C31.6424 56.7593 31.8466 58.6422 32.0864 60.2613C32.2983 61.6961 32.886 63.3241 34.5401 63.4897C36.0681 63.6442 36.9012 61.7789 37.3284 60.6531C37.9887 58.9093 38.2207 57.0286 38.5776 55.2097C38.7293 54.4371 37.5403 54.1137 37.3886 54.8852C37.1321 56.1831 36.9224 57.4866 36.6079 58.7735C36.3347 59.8872 35.9766 61.5847 34.8869 62.2094C32.9853 63.2976 33.1783 56.1015 33.0712 55.2902C33.0032 54.7792 32.2782 54.6004 32.1142 55.1622H32.1064Z" fill="#851919"/>
<path d="M49.9108 59.5198C47.3456 59.9745 44.6688 58.7671 44.3085 56.7605C43.9483 54.754 45.7428 52.8435 48.5936 52.2442C51.1433 51.7089 54.0175 52.3159 54.6075 55.0277C55.2165 57.8278 52.4772 59.0651 49.9108 59.5198Z" fill="#F48CA3"/>
<path d="M20.6181 59.3937C23.1633 59.9533 25.8836 58.8562 26.3309 56.8629C26.7781 54.8697 25.0627 52.8896 22.2398 52.1755C19.7147 51.5343 16.8182 52.0243 16.1144 54.714C15.3895 57.4854 18.0741 58.8342 20.6181 59.3937Z" fill="#F48CA3"/>
<path d="M47.9543 55.7625C47.8888 55.7433 47.8182 55.7505 47.7581 55.7825C47.6979 55.8146 47.6529 55.8689 47.6331 55.9336C47.6142 56.0116 47.5904 56.0882 47.5617 56.1632C47.5283 56.2592 47.468 56.342 47.4379 56.4391C47.4209 56.497 47.4234 56.5589 47.4452 56.6153C47.4669 56.6717 47.5067 56.7195 47.5584 56.7515C47.6221 56.789 47.6981 56.8004 47.7701 56.7833C47.8422 56.7662 47.9047 56.7219 47.9443 56.6598C48.0851 56.4736 48.1553 56.2443 48.1428 56.012C48.1426 55.9559 48.1241 55.9014 48.0902 55.8565C48.0562 55.8116 48.0086 55.7786 47.9543 55.7625Z" fill="#F34D65"/>
<path d="M48.9963 55.936C48.9856 56.0361 48.9658 56.1351 48.9371 56.2318C48.9003 56.3488 48.8613 56.4658 48.9271 56.5794C48.9468 56.6136 48.977 56.6405 49.0134 56.6562C49.0498 56.6719 49.0903 56.6756 49.129 56.6666C49.4368 56.6214 49.4011 56.1655 49.3833 55.9448C49.3809 55.8963 49.36 55.8506 49.3249 55.8167C49.2897 55.7828 49.2429 55.7634 49.1939 55.7623C49.1449 55.7611 49.0972 55.7784 49.0606 55.8107C49.0239 55.8429 49.0009 55.8877 48.9963 55.936Z" fill="#F34D65"/>
<path d="M51.1102 55.7306C51.08 55.4911 50.6941 55.501 50.6406 55.7207C50.6171 55.8178 50.5843 55.9124 50.5424 56.0032C50.4778 56.139 50.4008 56.3034 50.4889 56.4447C50.5069 56.4774 50.5333 56.5048 50.5654 56.5242C50.5975 56.5435 50.6342 56.5542 50.6718 56.5551C50.8625 56.5462 50.9685 56.3884 51.0377 56.224C51.1081 56.0695 51.1333 55.8985 51.1102 55.7306Z" fill="#F34D65"/>
<path d="M22.7377 55.7196C22.8038 55.7035 22.8736 55.7138 22.9321 55.7483C22.9905 55.7828 23.0329 55.8387 23.05 55.9039C23.0659 55.9827 23.0868 56.0605 23.1124 56.1368C23.1414 56.2339 23.1983 56.32 23.224 56.4171C23.239 56.4754 23.2342 56.537 23.2102 56.5923C23.1862 56.6476 23.1444 56.6935 23.0912 56.7228C23.027 56.7564 22.9521 56.7643 22.8821 56.7447C22.8122 56.7252 22.7525 56.6798 22.7154 56.618C22.582 56.4258 22.5212 56.1934 22.5436 55.9613C22.5462 55.9059 22.5663 55.8528 22.6012 55.8094C22.636 55.766 22.6838 55.7346 22.7377 55.7196Z" fill="#F34D65"/>
<path d="M21.6845 55.851C21.6903 55.9515 21.7056 56.0513 21.7302 56.149C21.7626 56.2671 21.7972 56.3852 21.7302 56.4966C21.7086 56.5295 21.677 56.5548 21.6399 56.5689C21.6029 56.583 21.5623 56.5851 21.5239 56.575C21.2183 56.5165 21.273 56.0629 21.3008 55.8432C21.3087 55.798 21.3328 55.757 21.3686 55.7277C21.4044 55.6985 21.4496 55.6829 21.496 55.6839C21.5425 55.6848 21.587 55.7022 21.6216 55.7328C21.6562 55.7635 21.6785 55.8054 21.6845 55.851Z" fill="#F34D65"/>
<path d="M19.5797 55.556C19.6198 55.3188 20.0046 55.343 20.0492 55.566C20.0677 55.664 20.0964 55.7598 20.1351 55.8518C20.1942 55.9887 20.2645 56.1587 20.1697 56.2933C20.1504 56.3249 20.123 56.3509 20.0903 56.3687C20.0576 56.3866 20.0208 56.3956 19.9834 56.3949C19.7916 56.3783 19.6935 56.2161 19.631 56.0505C19.5674 55.8937 19.5496 55.7224 19.5797 55.556Z" fill="#F34D65"/>
<path d="M51.8686 54.3109C51.8579 54.3074 51.8476 54.3027 51.8379 54.2969C51.918 54.3412 51.9071 54.3412 51.8686 54.3109Z" fill="#F2F5FE"/>
<path d="M51.9867 53.1347C51.7748 53.0354 51.5283 53.0618 51.3967 53.2738C51.3388 53.3694 51.3207 53.4835 51.3463 53.5921C51.3719 53.7006 51.4392 53.795 51.5339 53.8554L51.5551 53.8775L51.5618 53.8907C51.5618 53.8996 51.632 54.0806 51.6276 54.0728C51.6463 54.1257 51.6763 54.1739 51.7157 54.2141C51.7235 54.2229 51.8194 54.2814 51.8685 54.3112C51.9485 54.3518 52.0416 54.3593 52.1272 54.3322L52.1707 54.3157H52.1774C52.2549 54.2838 52.3218 54.231 52.3703 54.1632C52.4188 54.0955 52.4471 54.0156 52.4518 53.9327C52.4618 53.7692 52.4231 53.6064 52.3404 53.4645C52.2577 53.3226 52.1347 53.2079 51.9867 53.1347Z" fill="#F2F5FE"/>
<path d="M18.8801 54.1104C18.8907 54.1066 18.9011 54.1022 18.9111 54.0972C18.8336 54.1401 18.8413 54.1324 18.8801 54.1104Z" fill="#F2F5FE"/>
<path d="M18.3117 53.7031C18.3127 53.7862 18.3374 53.8675 18.3829 53.9374C18.4285 54.0073 18.4931 54.063 18.5693 54.0982H18.5749L18.6184 54.1158C18.7027 54.1462 18.7956 54.1426 18.8772 54.1059C18.9285 54.0772 19.0255 54.0231 19.0344 54.0143C19.0757 53.9758 19.1077 53.9287 19.1281 53.8763C19.1281 53.8852 19.2029 53.7064 19.2017 53.6975C19.2039 53.6932 19.2065 53.6892 19.2095 53.6854L19.2319 53.6633C19.3287 53.6068 19.3996 53.5152 19.4296 53.4079C19.4595 53.3006 19.4462 53.186 19.3925 53.0883C19.2698 52.8676 19.0244 52.8344 18.808 52.9238C18.6573 52.9914 18.53 53.1013 18.4417 53.2398C18.3535 53.3783 18.3083 53.5394 18.3117 53.7031Z" fill="#F2F5FE"/>
<path d="M47.3027 49.3657C47.9719 49.3657 47.9719 48.3403 47.3027 48.3403C46.6335 48.3403 46.6335 49.3657 47.3027 49.3657Z" fill="#F2F5FE"/>
<path d="M24.4739 49.3226C25.0862 49.3226 25.0862 48.3833 24.4739 48.3833C23.8616 48.3833 23.8616 49.3226 24.4739 49.3226Z" fill="#F2F5FE"/>
<path d="M27.4534 96.7243C26.8188 96.1967 26.3035 95.8733 25.8562 95.1482C25.5439 94.6438 25.2986 94.1703 24.9283 93.699C24.8127 93.5533 24.6789 93.4228 24.5301 93.3105C24.5234 93.2895 24.5156 93.2708 24.51 93.2498C24.4882 93.1831 24.4531 93.1215 24.4067 93.0685C24.3603 93.0156 24.3037 92.9724 24.2401 92.9415C24.1766 92.9106 24.1074 92.8927 24.0367 92.8888C23.966 92.8848 23.8952 92.895 23.8286 92.9187C22.962 92.5666 21.8979 92.5136 21.0715 92.5876C17.4288 92.9032 16.6592 96.2121 17.5024 99.2738C17.8649 100.598 19.51 100.765 20.1223 99.5332C20.7915 98.1867 22.4701 97.8015 23.7616 97.2673C23.9557 97.1843 24.1242 97.0522 24.2502 96.8843C24.7119 97.0134 25.1658 97.1801 25.6019 97.318C25.7184 97.3523 25.8419 97.356 25.9602 97.3287C26.0785 97.3015 26.1876 97.2441 26.2767 97.1624C26.4521 97.2463 26.6434 97.2926 26.8381 97.2983C27.0328 97.304 27.2265 97.269 27.4066 97.1955C27.6073 97.1072 27.6006 96.8468 27.4534 96.7243Z" fill="#A59BB3"/>
<path d="M37.6218 99.2176C29.8725 98.0874 26.2064 95.1339 25.8205 94.4419C25.4011 93.6958 24.1921 94.2156 24.5858 95.0014C24.6304 95.0897 24.5111 95.1869 24.3226 95.2818C23.4761 95.2553 22.6117 95.4639 21.9804 95.8667C21.1339 96.4065 20.4836 97.1349 19.7776 97.8347C19.0348 98.5719 17.9518 98.6172 17.3306 99.3909C17.0941 99.6867 17.228 100.046 17.4722 100.274C18.6244 101.348 20.3721 99.8037 21.193 98.977C21.5142 98.6514 21.822 98.3148 22.1511 98.009C22.2727 98.0177 22.3947 97.9961 22.5057 97.9461C23.6713 97.4395 24.7643 97.3292 26.0235 97.4439C26.1433 97.4559 26.2643 97.4389 26.3759 97.3943C26.5214 97.5023 26.6799 97.592 26.8477 97.6614C35.5462 101.053 38.4304 99.3357 37.6218 99.2176Z" fill="#897E9B"/>
<path d="M19.44 93.0923C17.2093 94.0856 17.1881 96.3824 17.2796 98.4254C17.2941 98.7565 17.8629 98.8128 17.9421 98.4905C18.3336 96.8913 18.7496 94.8141 20.6278 94.366C22.022 94.0349 23.3046 95.2754 24.6586 94.8075C24.9932 94.6894 25.1181 94.1695 24.8672 93.9179C23.6437 92.6883 20.9803 92.4036 19.44 93.0923Z" fill="#BCB5C6"/>
<path d="M25.4731 93.3196C24.3087 92.4996 23.0897 91.4654 21.6052 91.323C20.2221 91.1906 18.9774 91.6817 18.0093 92.6475C16.1668 94.4874 15.801 97.6406 16.5951 100.005C17.3981 102.398 19.476 101.472 20.9125 100.274C21.9319 99.4242 22.8086 98.3625 24.215 98.2157C25.085 98.1252 26.1568 98.2355 27.0034 98.4364C27.725 98.6064 28.247 98.8062 28.9808 98.6572C28.9943 98.6532 29.0063 98.6454 29.0154 98.6348C29.0245 98.6242 29.0303 98.6112 29.0321 98.5974C29.0339 98.5836 29.0316 98.5696 29.0254 98.5571C29.0193 98.5446 29.0096 98.5341 28.9976 98.5269C27.0669 97.4056 24.689 96.4376 22.522 97.4563C21.0564 98.145 20.1798 99.8006 18.6283 100.326C17.6848 100.65 17.4773 98.5689 17.4338 98.0258C17.339 96.8537 17.6379 95.6396 18.1487 94.5889C18.6729 93.5106 19.4938 92.8406 20.6515 92.5393C22.136 92.153 23.8213 93.3726 25.1129 93.9366C25.1957 93.9845 25.2943 93.9978 25.3871 93.9737C25.4799 93.9496 25.5592 93.89 25.6075 93.808C25.6559 93.7261 25.6694 93.6284 25.645 93.5367C25.6206 93.4449 25.5604 93.3664 25.4776 93.3185L25.4731 93.3196Z" fill="#851919"/>
<path d="M72.9332 1.51625V0C72.9332 13.4304 74.2576 15.6826 80 15.6826C74.2576 15.6826 72.9332 17.8961 72.9332 31C72.9332 17.8795 71.6312 15.6826 66 15.6826C71.6312 15.6826 72.9332 13.6517 72.9332 1.51625Z" fill="#FDC157"/>
</svg>
