<svg width="12" height="24" viewBox="0 0 12 24" fill="none" xmlns="http://www.w3.org/2000/svg">
<path d="M10.8042 24C10.6738 24.0007 10.5446 23.9755 10.4239 23.9257C10.3033 23.876 10.1935 23.8027 10.101 23.71L2.00925 15.54C1.54808 15.0755 1.18219 14.5238 0.932537 13.9163C0.682887 13.3089 0.554382 12.6577 0.554382 12C0.554382 11.3423 0.682887 10.6911 0.932537 10.0837C1.18219 9.4762 1.54808 8.92445 2.00925 8.45999L10.101 0.290002C10.1933 0.196764 10.303 0.122803 10.4236 0.0723425C10.5443 0.0218822 10.6736 -0.00408935 10.8042 -0.00408936C10.9348 -0.00408936 11.0641 0.0218822 11.1847 0.0723425C11.3054 0.122803 11.415 0.196764 11.5074 0.290002C11.5997 0.38324 11.673 0.49393 11.723 0.615752C11.7729 0.737574 11.7986 0.868142 11.7986 1C11.7986 1.13186 11.7729 1.26243 11.723 1.38425C11.673 1.50607 11.5997 1.61676 11.5074 1.71L3.41564 9.87999C2.85922 10.4425 2.54669 11.205 2.54669 12C2.54669 12.795 2.85922 13.5575 3.41564 14.12L11.5074 22.29C11.6002 22.3829 11.6739 22.4935 11.7242 22.6154C11.7745 22.7373 11.8003 22.868 11.8003 23C11.8003 23.132 11.7745 23.2627 11.7242 23.3846C11.6739 23.5064 11.6002 23.617 11.5074 23.71C11.4148 23.8027 11.3051 23.876 11.1844 23.9257C11.0637 23.9755 10.9345 24.0007 10.8042 24Z" fill="#DEDEDE"/>
</svg>
