<svg width="28" height="15" viewBox="0 0 28 15" fill="none" xmlns="http://www.w3.org/2000/svg">
<path d="M27.3055 9.25018C27.404 9.42122 27.4678 9.60999 27.4934 9.80571C27.5189 10.0014 27.5056 10.2003 27.4543 10.3909C27.403 10.5814 27.3147 10.7601 27.1944 10.9165C27.074 11.073 26.924 11.2042 26.753 11.3027C26.582 11.4012 26.3932 11.465 26.1975 11.4905C26.0017 11.5161 25.8029 11.5028 25.6123 11.4515C25.4217 11.4002 25.2431 11.3119 25.0867 11.1915C24.9302 11.0712 24.799 10.9212 24.7005 10.7502L22.593 7.06268C21.417 7.80247 20.1491 8.38493 18.8217 8.79518L19.483 12.7502C19.548 13.1425 19.4546 13.5446 19.2233 13.8681C18.9919 14.1916 18.6416 14.4099 18.2492 14.4752C18.1667 14.4897 18.083 14.4968 17.9992 14.4964C17.645 14.4961 17.3024 14.3704 17.0319 14.1416C16.7615 13.9128 16.5808 13.5957 16.5217 13.2464L15.878 9.39643C14.6293 9.53476 13.3692 9.53476 12.1205 9.39643L11.483 13.2502C11.4239 13.5999 11.2428 13.9173 10.9719 14.1461C10.7009 14.375 10.3576 14.5004 10.003 14.5002C9.9192 14.5006 9.83553 14.4935 9.753 14.4789C9.55871 14.4462 9.37277 14.3755 9.2058 14.2709C9.03883 14.1663 8.8941 14.0299 8.77988 13.8694C8.66566 13.7088 8.58418 13.5273 8.54011 13.3353C8.49603 13.1433 8.49022 12.9445 8.523 12.7502L9.18425 8.78518C7.85687 8.37493 6.58898 7.79247 5.413 7.05268L3.3055 10.7502C3.20701 10.9212 3.07579 11.0712 2.91934 11.1915C2.76289 11.3119 2.58427 11.4002 2.39368 11.4515C2.20308 11.5028 2.00425 11.5161 1.80853 11.4905C1.61282 11.465 1.42405 11.4012 1.253 11.3027C1.08195 11.2042 0.93198 11.073 0.811644 10.9165C0.691309 10.7601 0.602967 10.5814 0.551663 10.3909C0.500358 10.2003 0.487096 10.0014 0.512633 9.80571C0.538171 9.60999 0.602008 9.42122 0.700499 9.25018L3.003 5.23143C2.22261 4.52668 1.49911 3.76138 0.839249 2.94268C0.606302 2.63198 0.502921 2.24306 0.550852 1.85771C0.598783 1.47235 0.79429 1.12061 1.09625 0.876447C1.39821 0.632288 1.78309 0.514746 2.16994 0.548545C2.55679 0.582344 2.91546 0.76485 3.1705 1.05768C5.1755 3.54018 8.683 6.50018 14.003 6.50018C19.323 6.50018 22.8305 3.54018 24.8355 1.05768C25.0864 0.751155 25.4484 0.55633 25.8424 0.51572C26.2365 0.475111 26.6306 0.592014 26.9387 0.840917C27.2469 1.08982 27.4441 1.45051 27.4873 1.84427C27.5304 2.23804 27.4161 2.63289 27.1692 2.94268C26.5086 3.76147 25.7843 4.52677 25.003 5.23143L27.3055 9.25018Z" fill="#126B66"/>
</svg>
