<svg width="33" height="33" viewBox="0 0 33 33" fill="none" xmlns="http://www.w3.org/2000/svg">
<circle cx="16.5" cy="16.5" r="16.5" fill="white"/>
<path d="M22.8673 10.4467C21.9954 9.49287 21.5149 8.26797 21.5153 7H17.574V22.1556C17.5436 22.9757 17.1822 23.7525 16.566 24.3225C15.9498 24.8924 15.1268 25.211 14.2704 25.2111C12.4592 25.2111 10.9541 23.7933 10.9541 22.0333C10.9541 19.9311 13.0714 18.3544 15.2526 19.0022V15.14C10.852 14.5778 7 17.8533 7 22.0333C7 26.1033 10.5204 29 14.2577 29C18.2628 29 21.5153 25.8833 21.5153 22.0333V14.3456C23.1135 15.4454 25.0324 16.0355 27 16.0322V12.2556C27 12.2556 24.602 12.3656 22.8673 10.4467Z" fill="#4A9B8B"/>
</svg>
