<svg width="18" height="12" viewBox="0 0 18 12" fill="none" xmlns="http://www.w3.org/2000/svg">
<g clip-path="url(#clip0_96_271)">
<path d="M8.66667 1.41159C10.8816 1.41159 12.7556 2.46259 13.9406 3.34713C15.3425 4.39317 16.0625 5.40442 16.2509 5.78954C16.0625 6.17466 15.3425 7.1884 13.9406 8.23444C12.758 9.11649 10.884 10.17 8.66667 10.17C6.45172 10.17 4.57533 9.11897 3.39276 8.23444C1.99083 7.1884 1.27079 6.17715 1.08244 5.78954C1.27079 5.40442 1.99083 4.39317 3.39276 3.34713C4.57533 2.46259 6.45172 1.41159 8.66667 1.41159ZM8.66667 0.315857C3.87914 0.315857 0 4.69381 0 5.78954C0 6.88527 3.87914 11.2632 8.66667 11.2632C13.4518 11.2632 17.3333 6.88527 17.3333 5.78954C17.3333 4.69381 13.4518 0.315857 8.66667 0.315857ZM8.66667 2.50483C6.92618 2.50483 5.51472 3.97575 5.51472 5.78954C5.51472 7.60334 6.92618 9.07425 8.66667 9.07425C10.4072 9.07425 11.8186 7.60334 11.8186 5.78954C11.8186 3.97575 10.4072 2.50483 8.66667 2.50483ZM7.81788 5.78954C7.08116 5.78954 6.4851 5.16838 6.4851 4.40062C6.4851 3.63286 7.08116 3.0117 7.81788 3.0117C8.55461 3.0117 9.15067 3.63286 9.15067 4.40062C9.15067 5.16838 8.55461 5.78954 7.81788 5.78954Z" fill="url(#paint0_linear_96_271)"/>
</g>
<defs>
<linearGradient id="paint0_linear_96_271" x1="8.66667" y1="0.315857" x2="8.66667" y2="11.2632" gradientUnits="userSpaceOnUse">
<stop stop-color="#EBA000"/>
<stop offset="1" stop-color="#FFCC00"/>
</linearGradient>
<clipPath id="clip0_96_271">
<rect width="17.3333" height="10.9474" fill="white" transform="translate(0 0.315857)"/>
</clipPath>
</defs>
</svg>
