<?xml version="1.0" encoding="utf-8"?>
<!-- Generator: Adobe Illustrator 28.0.0, SVG Export Plug-In . SVG Version: 6.00 Build 0)  -->
<svg version="1.1" id="Layer_1" xmlns="http://www.w3.org/2000/svg" xmlns:xlink="http://www.w3.org/1999/xlink" x="0px" y="0px"
	 viewBox="0 0 41 28" style="enable-background:new 0 0 41 28;" xml:space="preserve">
<style type="text/css">
	.st0{fill:#FFFFFF;}
</style>
<path class="st0" d="M38.1,4.8H2.2c-1.1,0-2-0.9-2-2V2c0-1.1,0.9-2,2-2h35.9c1.1,0,2,0.9,2,2v0.8C40.2,3.9,39.3,4.8,38.1,4.8z"/>
<path class="st0" d="M38.1,16.4H2.2c-1.1,0-2-0.9-2-2v-0.8c0-1.1,0.9-2,2-2h35.9c1.1,0,2,0.9,2,2v0.8C40.2,15.5,39.3,16.4,38.1,16.4
	z"/>
<path class="st0" d="M38.1,28H2.2c-1.1,0-2-0.9-2-2v-0.8c0-1.1,0.9-2,2-2h35.9c1.1,0,2,0.9,2,2V26C40.2,27.1,39.3,28,38.1,28z"/>
</svg>
