<?xml version="1.0" encoding="utf-8"?>
<!-- Generator: Adobe Illustrator 26.0.0, SVG Export Plug-In . SVG Version: 6.00 Build 0)  -->
<svg version="1.1" id="Layer_1" xmlns="http://www.w3.org/2000/svg" xmlns:xlink="http://www.w3.org/1999/xlink" x="0px" y="0px"
	 viewBox="0 0 508.25 122.04" style="enable-background:new 0 0 508.25 122.04;" xml:space="preserve">
<style type="text/css">
	.st0{fill:url(#XMLID_00000087395493611818170000000005827706120092648098_);}
	.st1{fill:url(#XMLID_00000164472121677107225180000006211009656694121129_);}
</style>
<linearGradient id="XMLID_00000116934231431355109610000000128188878612749489_" gradientUnits="userSpaceOnUse" x1="254.1242" y1="15.4483" x2="254.1242" y2="106.5933">
	<stop  offset="0" style="stop-color:#1776B3"/>
	<stop  offset="1" style="stop-color:#053755"/>
</linearGradient>
<path id="XMLID_5_" style="fill:url(#XMLID_00000116934231431355109610000000128188878612749489_);" d="M61.02,122.04
	C27.37,122.04,0,94.67,0,61.02C0,27.37,27.37,0,61.02,0h386.21c33.65,0,61.02,27.37,61.02,61.02c0,33.65-27.37,61.02-61.02,61.02
	H61.02z"/>
<linearGradient id="XMLID_00000008862300847494427920000017338113859511597200_" gradientUnits="userSpaceOnUse" x1="254.1242" y1="120.4964" x2="254.1242" y2="16.8892">
	<stop  offset="0" style="stop-color:#1776B3"/>
	<stop  offset="1" style="stop-color:#004F7F"/>
</linearGradient>
<path id="XMLID_1_" style="fill:url(#XMLID_00000008862300847494427920000017338113859511597200_);" d="M447.23,117.41H61.02
	c-31.01,0-56.39-25.37-56.39-56.39v0c0-31.01,25.37-56.39,56.39-56.39h386.21c31.01,0,56.39,25.37,56.39,56.39v0
	C503.61,92.03,478.24,117.41,447.23,117.41z"/>
</svg>
