<?xml version="1.0" encoding="utf-8"?>
<!-- Generator: Adobe Illustrator 26.0.0, SVG Export Plug-In . SVG Version: 6.00 Build 0)  -->
<svg version="1.1" id="Layer_1" xmlns="http://www.w3.org/2000/svg" xmlns:xlink="http://www.w3.org/1999/xlink" x="0px" y="0px"
	 viewBox="0 0 508.25 122.04" style="enable-background:new 0 0 508.25 122.04;" xml:space="preserve">
<style type="text/css">
	.st0{fill:url(#XMLID_00000142891498081968884660000006745301734831731381_);}
	.st1{fill:url(#XMLID_00000168076237175392434430000017041594280898405293_);}
</style>
<linearGradient id="XMLID_00000135686880299683439200000007829050916609132202_" gradientUnits="userSpaceOnUse" x1="254.1242" y1="15.4483" x2="254.1242" y2="106.5933">
	<stop  offset="0" style="stop-color:#7C1A1A"/>
	<stop  offset="1" style="stop-color:#E03941"/>
</linearGradient>
<path id="XMLID_24_" style="fill:url(#XMLID_00000135686880299683439200000007829050916609132202_);" d="M61.02,122.04
	C27.37,122.04,0,94.67,0,61.02C0,27.37,27.37,0,61.02,0h386.21c33.65,0,61.02,27.37,61.02,61.02c0,33.65-27.37,61.02-61.02,61.02
	H61.02z"/>
<linearGradient id="XMLID_00000042002886659159520100000018382648067187297437_" gradientUnits="userSpaceOnUse" x1="254.1242" y1="112.3861" x2="254.1242" y2="16.1926">
	<stop  offset="0" style="stop-color:#7C1A1A"/>
	<stop  offset="1" style="stop-color:#E03941"/>
</linearGradient>
<path id="XMLID_23_" style="fill:url(#XMLID_00000042002886659159520100000018382648067187297437_);" d="M447.23,117.41H61.02
	c-31.01,0-56.39-25.37-56.39-56.39v0c0-31.01,25.37-56.39,56.39-56.39h386.21c31.01,0,56.39,25.37,56.39,56.39v0
	C503.61,92.03,478.24,117.41,447.23,117.41z"/>
</svg>
