<svg width="40" height="40" viewBox="0 0 40 40" fill="none" xmlns="http://www.w3.org/2000/svg">
<path d="M29.8268 21.09H11.5569L4.52686 4.28003H0.296875V0.47998H7.05688L14.0868 17.29H27.6168L32.7769 8.26001H14.0469V4.44995H39.3368L29.8268 21.09Z" fill="white"/>
<path d="M10.1954 29.2501C9.55543 29.2501 8.29547 29.1301 7.35547 28.2701C6.71547 27.6701 6.35547 26.8402 6.35547 25.9202C6.35547 24.3802 8.05553 21.6902 11.4155 17.9302L14.2555 20.4601C12.6455 22.2701 11.0854 24.3201 10.4454 25.4401L34.1655 25.4302V29.2401H10.4554C10.3854 29.2401 10.2954 29.2501 10.1954 29.2501Z" fill="white"/>
<path d="M30.2582 39.7501C32.7048 39.7501 34.6881 37.7667 34.6881 35.3201C34.6881 32.8734 32.7048 30.8901 30.2582 30.8901C27.8116 30.8901 25.8281 32.8734 25.8281 35.3201C25.8281 37.7667 27.8116 39.7501 30.2582 39.7501Z" fill="white"/>
<path d="M11.7972 39.7501C14.2439 39.7501 16.2272 37.7667 16.2272 35.3201C16.2272 32.8734 14.2439 30.8901 11.7972 30.8901C9.35062 30.8901 7.36719 32.8734 7.36719 35.3201C7.36719 37.7667 9.35062 39.7501 11.7972 39.7501Z" fill="white"/>
</svg>
