<?xml version="1.0" encoding="utf-8"?>
<!-- Generator: Adobe Illustrator 26.0.0, SVG Export Plug-In . SVG Version: 6.00 Build 0)  -->
<svg version="1.1" id="_x3C_Layer_x3E_" xmlns="http://www.w3.org/2000/svg" xmlns:xlink="http://www.w3.org/1999/xlink" x="0px"
	 y="0px" viewBox="0 0 2159.83 1392.9" style="enable-background:new 0 0 2159.83 1392.9;" xml:space="preserve">
<style type="text/css">
	.st0{fill:url(#SVGID_1_);}
	.st1{fill:url(#SVGID_00000069356228551537910220000002831669532157654948_);}
	.st2{fill:url(#SVGID_00000017514894877601611020000011878520534230450825_);}
	.st3{fill:#FFFFFF;}
</style>
<g>
	<path d="M1997.57,1181.49c0,26.65-22.51,49.17-49.13,49.17H211.38c-26.64,0-49.15-22.52-49.15-49.17v-970.1
		c0-26.65,22.51-49.17,49.15-49.17h1737.07c26.62,0,49.13,22.52,49.13,49.17V1181.49z M1948.45,14.73H211.38
		c-108.15,0-196.64,88.49-196.64,196.66v970.1c0,108.15,88.48,196.66,196.64,196.66h1737.07c108.15,0,196.64-88.5,196.64-196.66
		v-970.1C2145.09,103.23,2056.6,14.73,1948.45,14.73z"/>
</g>
<linearGradient id="SVGID_1_" gradientUnits="userSpaceOnUse" x1="87.3102" y1="2158.3047" x2="1999.14" y2="-657.3549">
	<stop  offset="0" style="stop-color:#AD0008"/>
	<stop  offset="0.3084" style="stop-color:#910006"/>
	<stop  offset="0.6317" style="stop-color:#B70009"/>
	<stop  offset="0.7695" style="stop-color:#CB000B"/>
	<stop  offset="1" style="stop-color:#B50009"/>
</linearGradient>
<path class="st0" d="M1948.45,14.73H211.38c-108.15,0-196.64,88.49-196.64,196.66v970.1c0,108.15,88.48,196.66,196.64,196.66
	h1737.07c108.15,0,196.64-88.5,196.64-196.66v-970.1C2145.09,103.23,2056.6,14.73,1948.45,14.73z M1997.57,1181.49
	c0,26.65-22.51,49.17-49.13,49.17H211.38c-26.64,0-49.15-22.52-49.15-49.17v-970.1c0-26.65,22.51-49.17,49.15-49.17h1737.07
	c26.62,0,49.13,22.52,49.13,49.17V1181.49z"/>
<linearGradient id="SVGID_00000079447604918994937630000007756516147954835860_" gradientUnits="userSpaceOnUse" x1="1079.9156" y1="-4.9155" x2="1079.9156" y2="1390.0431">
	<stop  offset="0" style="stop-color:#FE0011"/>
	<stop  offset="1" style="stop-color:#910006"/>
</linearGradient>
<path style="fill:url(#SVGID_00000079447604918994937630000007756516147954835860_);" d="M1948.46,0H211.39
	C94.84,0,0,94.82,0,211.39v970.1c0,116.56,94.84,211.4,211.39,211.4h1737.07c116.55,0,211.37-94.84,211.37-211.4v-970.1
	C2159.83,94.82,2065.01,0,1948.46,0z M2145.11,1181.49c0,108.15-88.49,196.66-196.64,196.66H211.39
	c-108.15,0-196.64-88.5-196.64-196.66v-970.1c0-108.16,88.48-196.66,196.64-196.66h1737.07c108.15,0,196.64,88.49,196.64,196.66
	V1181.49z"/>
<linearGradient id="SVGID_00000125577199846681871090000013449196612367191694_" gradientUnits="userSpaceOnUse" x1="1079.9156" y1="1214.2812" x2="1079.9156" y2="160.5086">
	<stop  offset="0" style="stop-color:#FE0011"/>
	<stop  offset="1" style="stop-color:#910006"/>
</linearGradient>
<path style="fill:url(#SVGID_00000125577199846681871090000013449196612367191694_);" d="M1948.46,162.22H211.39
	c-26.64,0-49.15,22.52-49.15,49.17v970.1c0,26.65,22.51,49.17,49.15,49.17h1737.07c26.62,0,49.13-22.52,49.13-49.17v-970.1
	C1997.59,184.74,1975.08,162.22,1948.46,162.22z M1982.87,1181.49c0,18.67-15.74,34.42-34.4,34.42H211.39
	c-18.65,0-34.4-15.74-34.4-34.42v-970.1c0-18.66,15.75-34.43,34.4-34.43h1737.07c18.66,0,34.4,15.77,34.4,34.43V1181.49z"/>
<g>
	<path class="st3" d="M639.31,96.4c0,2.17-0.56,4.12-1.68,5.85s-2.75,3.08-4.91,4.06c-2.15,0.98-4.71,1.47-7.66,1.47
		c-3.54,0-6.46-0.67-8.76-2.01c-1.63-0.96-2.96-2.25-3.98-3.85s-1.53-3.17-1.53-4.68c0-0.88,0.31-1.63,0.92-2.26
		c0.61-0.63,1.39-0.94,2.34-0.94c0.77,0,1.42,0.25,1.95,0.73c0.53,0.49,0.98,1.21,1.36,2.18c0.46,1.14,0.95,2.1,1.48,2.86
		c0.53,0.77,1.28,1.4,2.24,1.9c0.96,0.5,2.23,0.75,3.79,0.75c2.15,0,3.9-0.5,5.25-1.5c1.34-1,2.02-2.25,2.02-3.75
		c0-1.19-0.36-2.16-1.09-2.9c-0.73-0.74-1.66-1.31-2.81-1.7c-1.15-0.39-2.69-0.81-4.61-1.25c-2.58-0.6-4.73-1.31-6.47-2.12
		c-1.74-0.81-3.12-1.91-4.13-3.3c-1.02-1.39-1.53-3.13-1.53-5.2c0-1.97,0.54-3.73,1.61-5.26s2.63-2.71,4.67-3.54
		c2.04-0.82,4.44-1.24,7.19-1.24c2.2,0,4.11,0.27,5.71,0.82c1.61,0.55,2.94,1.27,4,2.18c1.06,0.91,1.83,1.86,2.32,2.85
		c0.49,1,0.73,1.97,0.73,2.91c0,0.87-0.31,1.64-0.92,2.34c-0.61,0.69-1.37,1.04-2.29,1.04c-0.83,0-1.46-0.21-1.9-0.62
		c-0.43-0.42-0.9-1.1-1.41-2.04c-0.65-1.35-1.43-2.41-2.35-3.17c-0.91-0.76-2.38-1.14-4.4-1.14c-1.88,0-3.39,0.41-4.54,1.24
		c-1.15,0.82-1.72,1.81-1.72,2.97c0,0.72,0.2,1.34,0.59,1.86c0.39,0.52,0.93,0.97,1.61,1.35c0.69,0.38,1.38,0.67,2.08,0.88
		s1.86,0.52,3.47,0.93c2.02,0.47,3.85,1,5.49,1.57c1.64,0.57,3.03,1.26,4.18,2.08s2.05,1.85,2.69,3.09
		C638.98,93.06,639.31,94.58,639.31,96.4z"/>
	<path class="st3" d="M667.6,101.75l-5.75-22.85v24.76c0,1.37-0.31,2.4-0.92,3.08c-0.61,0.69-1.42,1.03-2.43,1.03
		c-0.98,0-1.78-0.34-2.4-1.01c-0.62-0.68-0.93-1.71-0.93-3.09V75.28c0-1.57,0.41-2.62,1.22-3.17c0.82-0.55,1.92-0.82,3.3-0.82h2.25
		c1.35,0,2.34,0.12,2.95,0.37c0.61,0.25,1.06,0.69,1.36,1.32c0.29,0.64,0.63,1.67,1,3.11l5.21,19.64l5.21-19.64
		c0.38-1.43,0.71-2.47,1-3.11c0.29-0.64,0.75-1.08,1.36-1.32c0.61-0.24,1.59-0.37,2.95-0.37h2.25c1.39,0,2.49,0.27,3.3,0.82
		c0.82,0.55,1.22,1.6,1.22,3.17v28.38c0,1.37-0.31,2.4-0.92,3.08c-0.61,0.69-1.43,1.03-2.46,1.03c-0.96,0-1.75-0.34-2.37-1.03
		c-0.62-0.68-0.93-1.71-0.93-3.08V78.9l-5.75,22.85c-0.38,1.48-0.68,2.57-0.92,3.27s-0.67,1.33-1.31,1.9
		c-0.64,0.57-1.52,0.86-2.64,0.86c-0.85,0-1.57-0.18-2.15-0.55c-0.59-0.37-1.04-0.84-1.37-1.41c-0.33-0.57-0.58-1.2-0.77-1.9
		C667.99,103.22,667.8,102.5,667.6,101.75z"/>
	<path class="st3" d="M730.19,103.1l-1.71-4.5H713.9l-1.71,4.6c-0.67,1.79-1.24,3-1.71,3.63c-0.47,0.63-1.25,0.94-2.32,0.94
		c-0.91,0-1.72-0.33-2.42-1c-0.7-0.67-1.05-1.43-1.05-2.27c0-0.49,0.08-1,0.24-1.52c0.16-0.52,0.43-1.25,0.81-2.18l9.17-23.29
		c0.26-0.67,0.57-1.47,0.94-2.41s0.76-1.72,1.17-2.34c0.42-0.62,0.96-1.12,1.64-1.5s1.51-0.58,2.51-0.58c1.01,0,1.85,0.19,2.53,0.58
		s1.22,0.88,1.64,1.48c0.42,0.6,0.77,1.25,1.05,1.95c0.29,0.69,0.65,1.62,1.09,2.78l9.37,23.14c0.73,1.76,1.1,3.04,1.1,3.84
		c0,0.83-0.35,1.59-1.04,2.29c-0.69,0.69-1.53,1.04-2.51,1.04c-0.57,0-1.06-0.1-1.47-0.31c-0.41-0.2-0.75-0.48-1.03-0.83
		c-0.28-0.35-0.58-0.89-0.89-1.61C730.69,104.29,730.42,103.65,730.19,103.1z M715.81,93.14h10.71l-5.41-14.8L715.81,93.14z"/>
	<path class="st3" d="M763.06,91.82h-2.54v11.52c0,1.52-0.33,2.63-1,3.35c-0.67,0.72-1.54,1.08-2.62,1.08
		c-1.16,0-2.05-0.38-2.69-1.12s-0.95-1.85-0.95-3.3V75.75c0-1.57,0.35-2.7,1.05-3.4s1.83-1.05,3.4-1.05h11.82
		c1.63,0,3.03,0.07,4.18,0.21c1.16,0.14,2.2,0.42,3.13,0.84c1.13,0.47,2.12,1.15,2.98,2.03s1.52,1.9,1.97,3.07
		c0.45,1.17,0.67,2.4,0.67,3.71c0,2.67-0.75,4.81-2.26,6.41c-1.51,1.6-3.8,2.73-6.86,3.4c1.29,0.68,2.52,1.7,3.69,3.03
		c1.17,1.34,2.22,2.76,3.14,4.27c0.92,1.51,1.64,2.87,2.15,4.09s0.77,2.05,0.77,2.51c0,0.47-0.15,0.94-0.45,1.41
		s-0.71,0.83-1.24,1.1c-0.52,0.27-1.13,0.4-1.81,0.4c-0.82,0-1.5-0.19-2.05-0.57c-0.55-0.38-1.03-0.87-1.43-1.46
		s-0.94-1.45-1.63-2.59l-2.91-4.84c-1.04-1.78-1.98-3.13-2.8-4.06c-0.82-0.93-1.66-1.57-2.51-1.91
		C765.42,91.99,764.35,91.82,763.06,91.82z M767.22,76.75h-6.7v9.86h6.51c1.75,0,3.21-0.15,4.4-0.45c1.19-0.3,2.1-0.81,2.73-1.54
		c0.63-0.73,0.94-1.72,0.94-3c0-1-0.25-1.87-0.76-2.63c-0.51-0.76-1.21-1.33-2.1-1.7C771.39,76.93,769.71,76.75,767.22,76.75z"/>
	<path class="st3" d="M820.15,77.29h-7.93v26.05c0,1.5-0.33,2.61-1,3.34c-0.67,0.72-1.53,1.09-2.59,1.09c-1.08,0-1.95-0.37-2.63-1.1
		s-1.01-1.84-1.01-3.33V77.29h-7.93c-1.24,0-2.16-0.27-2.76-0.82c-0.6-0.55-0.91-1.27-0.91-2.17c0-0.93,0.31-1.66,0.94-2.2
		s1.54-0.81,2.73-0.81h23.09c1.26,0,2.19,0.28,2.8,0.83c0.61,0.55,0.92,1.28,0.92,2.18c0,0.9-0.31,1.62-0.93,2.17
		C822.32,77.02,821.39,77.29,820.15,77.29z"/>
	<path class="st3" d="M883.68,103.1l-1.71-4.5h-14.58l-1.71,4.6c-0.67,1.79-1.24,3-1.71,3.63c-0.47,0.63-1.25,0.94-2.32,0.94
		c-0.91,0-1.72-0.33-2.42-1c-0.7-0.67-1.05-1.43-1.05-2.27c0-0.49,0.08-1,0.24-1.52c0.16-0.52,0.43-1.25,0.81-2.18l9.17-23.29
		c0.26-0.67,0.57-1.47,0.94-2.41s0.76-1.72,1.17-2.34c0.42-0.62,0.96-1.12,1.64-1.5s1.51-0.58,2.51-0.58c1.01,0,1.85,0.19,2.53,0.58
		s1.22,0.88,1.64,1.48c0.42,0.6,0.77,1.25,1.05,1.95c0.29,0.69,0.65,1.62,1.09,2.78l9.37,23.14c0.73,1.76,1.1,3.04,1.1,3.84
		c0,0.83-0.35,1.59-1.04,2.29c-0.69,0.69-1.53,1.04-2.51,1.04c-0.57,0-1.06-0.1-1.47-0.31c-0.41-0.2-0.75-0.48-1.03-0.83
		c-0.28-0.35-0.58-0.89-0.89-1.61C884.18,104.29,883.91,103.65,883.68,103.1z M869.3,93.14h10.71l-5.41-14.8L869.3,93.14z"/>
	<path class="st3" d="M916.55,91.82h-2.54v11.52c0,1.52-0.33,2.63-1,3.35c-0.67,0.72-1.54,1.08-2.62,1.08
		c-1.16,0-2.05-0.38-2.69-1.12s-0.95-1.85-0.95-3.3V75.75c0-1.57,0.35-2.7,1.05-3.4s1.83-1.05,3.4-1.05h11.82
		c1.63,0,3.03,0.07,4.18,0.21c1.16,0.14,2.2,0.42,3.13,0.84c1.13,0.47,2.12,1.15,2.98,2.03s1.52,1.9,1.97,3.07
		c0.45,1.17,0.67,2.4,0.67,3.71c0,2.67-0.75,4.81-2.26,6.41c-1.51,1.6-3.8,2.73-6.86,3.4c1.29,0.68,2.52,1.7,3.69,3.03
		c1.17,1.34,2.22,2.76,3.14,4.27c0.92,1.51,1.64,2.87,2.15,4.09s0.77,2.05,0.77,2.51c0,0.47-0.15,0.94-0.45,1.41
		s-0.71,0.83-1.24,1.1c-0.52,0.27-1.13,0.4-1.81,0.4c-0.82,0-1.5-0.19-2.05-0.57c-0.55-0.38-1.03-0.87-1.43-1.46
		s-0.94-1.45-1.63-2.59l-2.91-4.84c-1.04-1.78-1.98-3.13-2.8-4.06c-0.82-0.93-1.66-1.57-2.51-1.91
		C918.91,91.99,917.84,91.82,916.55,91.82z M920.71,76.75h-6.7v9.86h6.51c1.75,0,3.21-0.15,4.4-0.45c1.19-0.3,2.1-0.81,2.73-1.54
		c0.63-0.73,0.94-1.72,0.94-3c0-1-0.25-1.87-0.76-2.63c-0.51-0.76-1.21-1.33-2.1-1.7C924.88,76.93,923.21,76.75,920.71,76.75z"/>
	<path class="st3" d="M973.64,77.29h-7.93v26.05c0,1.5-0.33,2.61-1,3.34c-0.67,0.72-1.53,1.09-2.59,1.09c-1.08,0-1.95-0.37-2.63-1.1
		s-1.01-1.84-1.01-3.33V77.29h-7.93c-1.24,0-2.16-0.27-2.76-0.82c-0.6-0.55-0.91-1.27-0.91-2.17c0-0.93,0.31-1.66,0.94-2.2
		s1.54-0.81,2.73-0.81h23.09c1.26,0,2.19,0.28,2.8,0.83c0.61,0.55,0.92,1.28,0.92,2.18c0,0.9-0.31,1.62-0.93,2.17
		C975.81,77.02,974.88,77.29,973.64,77.29z"/>
	<path class="st3" d="M1041.48,96.4c0,2.17-0.56,4.12-1.68,5.85s-2.75,3.08-4.91,4.06c-2.15,0.98-4.71,1.47-7.66,1.47
		c-3.54,0-6.46-0.67-8.76-2.01c-1.63-0.96-2.96-2.25-3.98-3.85s-1.53-3.17-1.53-4.68c0-0.88,0.31-1.63,0.92-2.26
		c0.61-0.63,1.39-0.94,2.34-0.94c0.77,0,1.42,0.25,1.95,0.73c0.53,0.49,0.98,1.21,1.36,2.18c0.46,1.14,0.95,2.1,1.48,2.86
		c0.53,0.77,1.28,1.4,2.24,1.9c0.96,0.5,2.23,0.75,3.79,0.75c2.15,0,3.9-0.5,5.25-1.5c1.34-1,2.02-2.25,2.02-3.75
		c0-1.19-0.36-2.16-1.09-2.9c-0.73-0.74-1.66-1.31-2.81-1.7c-1.15-0.39-2.69-0.81-4.61-1.25c-2.58-0.6-4.73-1.31-6.47-2.12
		c-1.74-0.81-3.12-1.91-4.13-3.3c-1.02-1.39-1.53-3.13-1.53-5.2c0-1.97,0.54-3.73,1.61-5.26s2.63-2.71,4.67-3.54
		c2.04-0.82,4.44-1.24,7.19-1.24c2.2,0,4.11,0.27,5.71,0.82c1.61,0.55,2.94,1.27,4,2.18c1.06,0.91,1.83,1.86,2.32,2.85
		c0.49,1,0.73,1.97,0.73,2.91c0,0.87-0.31,1.64-0.92,2.34c-0.61,0.69-1.37,1.04-2.29,1.04c-0.83,0-1.46-0.21-1.9-0.62
		c-0.43-0.42-0.9-1.1-1.41-2.04c-0.65-1.35-1.43-2.41-2.35-3.17c-0.91-0.76-2.38-1.14-4.4-1.14c-1.88,0-3.39,0.41-4.54,1.24
		c-1.15,0.82-1.72,1.81-1.72,2.97c0,0.72,0.2,1.34,0.59,1.86c0.39,0.52,0.93,0.97,1.61,1.35c0.69,0.38,1.38,0.67,2.08,0.88
		c0.7,0.21,1.86,0.52,3.47,0.93c2.02,0.47,3.85,1,5.49,1.57c1.64,0.57,3.03,1.26,4.18,2.08s2.05,1.85,2.69,3.09
		C1041.16,93.06,1041.48,94.58,1041.48,96.4z"/>
	<path class="st3" d="M1073.44,70.68c3.72,0,6.91,0.75,9.58,2.26c2.67,1.51,4.68,3.65,6.05,6.43c1.37,2.78,2.06,6.05,2.06,9.8
		c0,2.77-0.38,5.29-1.13,7.56s-1.88,4.23-3.38,5.9c-1.5,1.66-3.34,2.94-5.53,3.82c-2.19,0.88-4.69,1.32-7.51,1.32
		c-2.81,0-5.32-0.45-7.54-1.36s-4.07-2.18-5.55-3.83c-1.48-1.65-2.61-3.63-3.36-5.95c-0.76-2.32-1.14-4.82-1.14-7.51
		c0-2.76,0.39-5.28,1.19-7.58c0.79-2.3,1.94-4.26,3.44-5.87c1.5-1.61,3.33-2.85,5.48-3.71C1068.26,71.11,1070.7,70.68,1073.44,70.68
		z M1083.77,89.13c0-2.63-0.42-4.9-1.27-6.83c-0.85-1.92-2.06-3.38-3.63-4.37c-1.57-0.99-3.38-1.48-5.42-1.48
		c-1.45,0-2.79,0.27-4.02,0.82c-1.23,0.55-2.29,1.34-3.18,2.39s-1.59,2.38-2.1,4c-0.51,1.62-0.77,3.45-0.77,5.47
		c0,2.04,0.26,3.88,0.77,5.53c0.51,1.65,1.24,3.01,2.18,4.1c0.94,1.08,2.01,1.9,3.23,2.43s2.55,0.81,4,0.81
		c1.86,0,3.57-0.46,5.12-1.39c1.56-0.93,2.8-2.37,3.72-4.31C1083.31,94.36,1083.77,91.97,1083.77,89.13z"/>
	<path class="st3" d="M1114.48,75.09v26.1h14.73c1.17,0,2.08,0.29,2.7,0.86c0.63,0.57,0.94,1.29,0.94,2.15
		c0,0.88-0.31,1.59-0.93,2.14c-0.62,0.55-1.52,0.82-2.71,0.82h-17.54c-1.58,0-2.72-0.35-3.41-1.05s-1.04-1.83-1.04-3.4V75.09
		c0-1.47,0.33-2.57,0.99-3.3c0.66-0.73,1.53-1.1,2.61-1.1c1.09,0,1.98,0.36,2.65,1.09S1114.48,73.6,1114.48,75.09z"/>
	<path class="st3" d="M1145.2,92.33V75.09c0-1.47,0.33-2.57,0.99-3.3c0.66-0.73,1.53-1.1,2.61-1.1c1.12,0,2.02,0.37,2.68,1.1
		c0.66,0.73,0.99,1.83,0.99,3.3v17.64c0,2.01,0.22,3.68,0.67,5.03c0.45,1.35,1.24,2.39,2.38,3.13s2.74,1.11,4.79,1.11
		c2.84,0,4.84-0.75,6.02-2.26c1.17-1.51,1.76-3.79,1.76-6.86V75.09c0-1.48,0.33-2.59,0.98-3.31s1.52-1.09,2.62-1.09
		s1.98,0.36,2.65,1.09s1.02,1.83,1.02,3.31v17.25c0,2.8-0.27,5.15-0.82,7.02c-0.55,1.88-1.58,3.52-3.09,4.94
		c-1.3,1.21-2.82,2.09-4.55,2.64c-1.73,0.55-3.75,0.83-6.07,0.83c-2.76,0-5.13-0.3-7.12-0.89c-1.99-0.6-3.61-1.52-4.87-2.76
		c-1.26-1.25-2.18-2.85-2.76-4.79C1145.49,97.37,1145.2,95.04,1145.2,92.33z"/>
	<path class="st3" d="M1216.52,77.29h-7.93v26.05c0,1.5-0.33,2.61-1,3.34c-0.67,0.72-1.53,1.09-2.59,1.09
		c-1.08,0-1.95-0.37-2.63-1.1s-1.01-1.84-1.01-3.33V77.29h-7.93c-1.24,0-2.16-0.27-2.76-0.82c-0.6-0.55-0.91-1.27-0.91-2.17
		c0-0.93,0.31-1.66,0.94-2.2s1.54-0.81,2.73-0.81h23.09c1.26,0,2.19,0.28,2.8,0.83c0.61,0.55,0.92,1.28,0.92,2.18
		c0,0.9-0.31,1.62-0.93,2.17C1218.69,77.02,1217.76,77.29,1216.52,77.29z"/>
	<path class="st3" d="M1234.86,103.34V75.09c0-1.47,0.33-2.57,1-3.3c0.67-0.73,1.53-1.1,2.59-1.1c1.09,0,1.98,0.36,2.65,1.09
		s1.02,1.83,1.02,3.31v28.25c0,1.48-0.34,2.59-1.02,3.33s-1.56,1.1-2.65,1.1c-1.04,0-1.9-0.37-2.58-1.11
		C1235.2,105.92,1234.86,104.81,1234.86,103.34z"/>
	<path class="st3" d="M1276.05,70.68c3.72,0,6.91,0.75,9.58,2.26c2.67,1.51,4.68,3.65,6.05,6.43c1.37,2.78,2.06,6.05,2.06,9.8
		c0,2.77-0.38,5.29-1.13,7.56s-1.88,4.23-3.38,5.9c-1.5,1.66-3.34,2.94-5.53,3.82c-2.19,0.88-4.69,1.32-7.51,1.32
		c-2.81,0-5.32-0.45-7.54-1.36s-4.07-2.18-5.55-3.83c-1.48-1.65-2.61-3.63-3.36-5.95c-0.76-2.32-1.14-4.82-1.14-7.51
		c0-2.76,0.39-5.28,1.19-7.58c0.79-2.3,1.94-4.26,3.44-5.87c1.5-1.61,3.33-2.85,5.48-3.71
		C1270.86,71.11,1273.31,70.68,1276.05,70.68z M1286.37,89.13c0-2.63-0.42-4.9-1.27-6.83c-0.85-1.92-2.06-3.38-3.63-4.37
		c-1.57-0.99-3.38-1.48-5.42-1.48c-1.45,0-2.79,0.27-4.02,0.82c-1.23,0.55-2.29,1.34-3.18,2.39s-1.59,2.38-2.1,4
		c-0.51,1.62-0.77,3.45-0.77,5.47c0,2.04,0.26,3.88,0.77,5.53c0.51,1.65,1.24,3.01,2.18,4.1c0.94,1.08,2.01,1.9,3.23,2.43
		s2.55,0.81,4,0.81c1.86,0,3.57-0.46,5.12-1.39c1.56-0.93,2.8-2.37,3.72-4.31C1285.91,94.36,1286.37,91.97,1286.37,89.13z"/>
	<path class="st3" d="M1319.43,75.04l13.97,21.14V74.84c0-1.39,0.3-2.43,0.89-3.12c0.6-0.69,1.4-1.04,2.41-1.04
		c1.04,0,1.87,0.35,2.47,1.04s0.91,1.73,0.91,3.12v28.21c0,3.15-1.3,4.72-3.91,4.72c-0.65,0-1.24-0.09-1.76-0.28
		s-1.01-0.49-1.47-0.89s-0.88-0.88-1.27-1.43c-0.39-0.55-0.78-1.1-1.17-1.68l-13.63-20.89v21.01c0,1.37-0.32,2.41-0.95,3.11
		c-0.64,0.7-1.45,1.05-2.45,1.05c-1.03,0-1.85-0.35-2.47-1.06c-0.62-0.71-0.93-1.74-0.93-3.09V75.94c0-1.17,0.13-2.1,0.39-2.76
		c0.31-0.73,0.82-1.33,1.54-1.8s1.49-0.7,2.32-0.7c0.65,0,1.21,0.11,1.68,0.32s0.87,0.5,1.22,0.86c0.35,0.36,0.71,0.82,1.08,1.39
		C1318.66,73.82,1319.04,74.42,1319.43,75.04z"/>
	<path class="st3" d="M1401.44,75.09v18.79c0,1.63-0.07,3.02-0.21,4.16c-0.14,1.14-0.45,2.3-0.94,3.47
		c-0.82,1.97-2.16,3.51-4.04,4.61c-1.88,1.1-4.16,1.65-6.85,1.65c-2.43,0-4.46-0.38-6.08-1.15s-2.93-2.01-3.93-3.72
		c-0.52-0.91-0.95-1.96-1.27-3.16s-0.49-2.32-0.49-3.4c0-1.14,0.32-2.01,0.95-2.62c0.64-0.6,1.45-0.9,2.45-0.9
		c0.96,0,1.69,0.28,2.18,0.83c0.49,0.55,0.86,1.42,1.13,2.59c0.28,1.26,0.55,2.26,0.83,3.01s0.74,1.39,1.39,1.93
		s1.58,0.81,2.79,0.81c3.21,0,4.82-2.36,4.82-7.07V75.09c0-1.47,0.32-2.57,0.97-3.3c0.64-0.73,1.52-1.1,2.63-1.1
		c1.13,0,2.02,0.37,2.68,1.1C1401.11,72.52,1401.44,73.62,1401.44,75.09z"/>
	<path class="st3" d="M1419.53,107.77c-1.01,0-1.88-0.33-2.62-0.98c-0.73-0.65-1.1-1.57-1.1-2.74c0-1,0.35-1.85,1.05-2.57
		c0.7-0.72,1.57-1.08,2.59-1.08s1.9,0.35,2.63,1.06c0.73,0.71,1.09,1.57,1.09,2.58c0,1.16-0.36,2.07-1.09,2.73
		C1421.36,107.44,1420.51,107.77,1419.53,107.77z"/>
	<path class="st3" d="M1468.52,96.4c0,2.17-0.56,4.12-1.68,5.85s-2.75,3.08-4.91,4.06c-2.15,0.98-4.71,1.47-7.66,1.47
		c-3.54,0-6.46-0.67-8.76-2.01c-1.63-0.96-2.96-2.25-3.98-3.85s-1.53-3.17-1.53-4.68c0-0.88,0.31-1.63,0.92-2.26
		c0.61-0.63,1.39-0.94,2.34-0.94c0.77,0,1.42,0.25,1.95,0.73c0.53,0.49,0.98,1.21,1.36,2.18c0.46,1.14,0.95,2.1,1.48,2.86
		c0.53,0.77,1.28,1.4,2.24,1.9c0.96,0.5,2.23,0.75,3.79,0.75c2.15,0,3.9-0.5,5.25-1.5c1.34-1,2.02-2.25,2.02-3.75
		c0-1.19-0.36-2.16-1.09-2.9c-0.73-0.74-1.66-1.31-2.81-1.7c-1.15-0.39-2.69-0.81-4.61-1.25c-2.58-0.6-4.73-1.31-6.47-2.12
		c-1.74-0.81-3.12-1.91-4.13-3.3c-1.02-1.39-1.53-3.13-1.53-5.2c0-1.97,0.54-3.73,1.61-5.26s2.63-2.71,4.67-3.54
		c2.04-0.82,4.44-1.24,7.19-1.24c2.2,0,4.11,0.27,5.71,0.82c1.61,0.55,2.94,1.27,4,2.18c1.06,0.91,1.83,1.86,2.32,2.85
		c0.49,1,0.73,1.97,0.73,2.91c0,0.87-0.31,1.64-0.92,2.34c-0.61,0.69-1.37,1.04-2.29,1.04c-0.83,0-1.46-0.21-1.9-0.62
		c-0.43-0.42-0.9-1.1-1.41-2.04c-0.65-1.35-1.43-2.41-2.35-3.17c-0.91-0.76-2.38-1.14-4.4-1.14c-1.88,0-3.39,0.41-4.54,1.24
		c-1.15,0.82-1.72,1.81-1.72,2.97c0,0.72,0.2,1.34,0.59,1.86c0.39,0.52,0.93,0.97,1.61,1.35c0.69,0.38,1.38,0.67,2.08,0.88
		s1.86,0.52,3.47,0.93c2.02,0.47,3.85,1,5.49,1.57c1.64,0.57,3.03,1.26,4.18,2.08s2.05,1.85,2.69,3.09
		C1468.2,93.06,1468.52,94.58,1468.52,96.4z"/>
	<path class="st3" d="M1486.76,107.77c-1.01,0-1.88-0.33-2.62-0.98c-0.73-0.65-1.1-1.57-1.1-2.74c0-1,0.35-1.85,1.05-2.57
		c0.7-0.72,1.57-1.08,2.59-1.08s1.9,0.35,2.63,1.06c0.73,0.71,1.09,1.57,1.09,2.58c0,1.16-0.36,2.07-1.09,2.73
		C1488.59,107.44,1487.74,107.77,1486.76,107.77z"/>
	<path class="st3" d="M1539.05,95.83c0,1.14-0.28,2.38-0.84,3.71c-0.56,1.33-1.45,2.63-2.65,3.91c-1.21,1.28-2.75,2.32-4.62,3.12
		c-1.88,0.8-4.06,1.2-6.56,1.2c-1.89,0-3.61-0.18-5.16-0.54c-1.55-0.36-2.96-0.92-4.22-1.68c-1.26-0.76-2.43-1.76-3.49-3
		c-0.95-1.13-1.75-2.39-2.42-3.78s-1.17-2.88-1.5-4.46c-0.33-1.58-0.5-3.26-0.5-5.04c0-2.89,0.42-5.47,1.26-7.75
		c0.84-2.28,2.04-4.24,3.61-5.86s3.4-2.86,5.5-3.71c2.1-0.85,4.35-1.27,6.73-1.27c2.9,0,5.49,0.58,7.75,1.74s4,2.59,5.21,4.29
		c1.21,1.7,1.81,3.31,1.81,4.83c0,0.83-0.29,1.57-0.88,2.2s-1.3,0.95-2.13,0.95c-0.93,0-1.63-0.22-2.09-0.66
		c-0.46-0.44-0.98-1.2-1.55-2.28c-0.95-1.78-2.06-3.11-3.34-3.99c-1.28-0.88-2.86-1.32-4.73-1.32c-2.98,0-5.36,1.13-7.13,3.4
		s-2.65,5.49-2.65,9.66c0,2.79,0.39,5.11,1.17,6.96c0.78,1.85,1.89,3.23,3.33,4.15c1.44,0.91,3.12,1.37,5.04,1.37
		c2.09,0,3.85-0.52,5.3-1.55c1.44-1.04,2.53-2.56,3.27-4.56c0.31-0.95,0.69-1.72,1.15-2.31c0.46-0.6,1.19-0.89,2.2-0.89
		c0.86,0,1.61,0.3,2.23,0.91C1538.74,94.19,1539.05,94.94,1539.05,95.83z"/>
</g>
<g>
	<g>
		<g>
			<path class="st3" d="M960.08,1310.97v6.73c0,0.89-0.09,1.61-0.26,2.14c-0.18,0.54-0.5,1.02-0.97,1.45
				c-0.47,0.43-1.07,0.85-1.81,1.25c-2.12,1.15-4.17,1.99-6.13,2.51c-1.96,0.53-4.1,0.79-6.42,0.79c-2.7,0-5.16-0.42-7.38-1.25
				c-2.22-0.83-4.11-2.04-5.68-3.62c-1.56-1.58-2.77-3.5-3.6-5.75c-0.84-2.25-1.26-4.77-1.26-7.54c0-2.73,0.41-5.23,1.22-7.5
				c0.81-2.27,2.01-4.19,3.59-5.77s3.5-2.79,5.77-3.63c2.27-0.84,4.84-1.26,7.71-1.26c2.36,0,4.45,0.32,6.27,0.95
				c1.82,0.63,3.3,1.42,4.43,2.38c1.13,0.96,1.99,1.97,2.56,3.04c0.58,1.07,0.86,2.02,0.86,2.85c0,0.89-0.33,1.66-0.99,2.29
				c-0.66,0.63-1.46,0.95-2.38,0.95c-0.51,0-1-0.12-1.47-0.36s-0.87-0.58-1.18-1.01c-0.88-1.37-1.62-2.41-2.23-3.11
				c-0.61-0.7-1.42-1.29-2.45-1.77c-1.03-0.48-2.34-0.72-3.94-0.72c-1.64,0-3.11,0.28-4.41,0.85s-2.4,1.39-3.32,2.47
				c-0.92,1.08-1.62,2.4-2.11,3.96c-0.49,1.56-0.73,3.3-0.73,5.2c0,4.12,0.95,7.29,2.84,9.51s4.53,3.33,7.91,3.33
				c1.64,0,3.19-0.22,4.63-0.65c1.44-0.43,2.91-1.04,4.39-1.84v-5.7h-5.51c-1.33,0-2.33-0.2-3.01-0.6s-1.02-1.08-1.02-2.04
				c0-0.78,0.28-1.43,0.85-1.94c0.57-0.51,1.34-0.77,2.31-0.77h8.07c0.99,0,1.83,0.09,2.51,0.26c0.69,0.18,1.24,0.57,1.67,1.17
				C959.87,1308.84,960.08,1309.75,960.08,1310.97z"/>
			<path class="st3" d="M992.12,1289.53c3.64,0,6.76,0.74,9.38,2.21s4.59,3.58,5.93,6.3s2.01,5.92,2.01,9.59
				c0,2.71-0.37,5.18-1.1,7.4c-0.74,2.22-1.84,4.14-3.3,5.77c-1.47,1.63-3.27,2.87-5.41,3.74c-2.14,0.86-4.59,1.29-7.35,1.29
				c-2.75,0-5.21-0.44-7.38-1.33s-3.98-2.13-5.44-3.75c-1.45-1.61-2.55-3.55-3.29-5.82s-1.11-4.72-1.11-7.35
				c0-2.7,0.39-5.17,1.16-7.42s1.9-4.17,3.36-5.75s3.26-2.79,5.36-3.63S989.43,1289.53,992.12,1289.53z M1002.22,1307.59
				c0-2.57-0.42-4.8-1.25-6.68c-0.83-1.88-2.02-3.31-3.56-4.27c-1.54-0.97-3.31-1.45-5.3-1.45c-1.42,0-2.73,0.27-3.94,0.8
				c-1.21,0.54-2.24,1.31-3.11,2.33s-1.56,2.33-2.06,3.92c-0.5,1.59-0.75,3.37-0.75,5.35c0,2,0.25,3.8,0.75,5.41
				s1.21,2.95,2.13,4.01c0.92,1.06,1.97,1.86,3.16,2.38c1.19,0.53,2.49,0.79,3.92,0.79c1.82,0,3.49-0.46,5.02-1.37
				s2.74-2.31,3.64-4.21C1001.77,1312.71,1002.22,1310.37,1002.22,1307.59z"/>
			<path class="st3" d="M1051.8,1290.13h9.27c2.41,0,4.48,0.22,6.2,0.67c1.72,0.45,3.29,1.29,4.69,2.51
				c3.66,3.13,5.48,7.89,5.48,14.27c0,2.11-0.18,4.03-0.55,5.77c-0.37,1.74-0.93,3.31-1.7,4.71c-0.77,1.4-1.75,2.65-2.95,3.75
				c-0.94,0.85-1.97,1.53-3.09,2.04s-2.32,0.87-3.6,1.08c-1.29,0.21-2.73,0.31-4.35,0.31h-9.27c-1.29,0-2.27-0.2-2.92-0.59
				c-0.66-0.39-1.08-0.94-1.28-1.65c-0.2-0.71-0.3-1.63-0.3-2.77v-25.74c0-1.53,0.34-2.64,1.03-3.33S1050.26,1290.13,1051.8,1290.13
				z M1054.55,1295.76v23.83h5.39c1.18,0,2.11-0.03,2.78-0.1s1.37-0.22,2.08-0.48c0.72-0.25,1.34-0.61,1.87-1.08
				c2.38-2.01,3.57-5.48,3.57-10.39c0-3.46-0.52-6.06-1.57-7.78c-1.05-1.72-2.33-2.82-3.87-3.29c-1.53-0.47-3.38-0.71-5.56-0.71
				H1054.55z"/>
			<path class="st3" d="M1103.06,1310.22h-2.49v11.28c0,1.48-0.33,2.58-0.98,3.28c-0.66,0.7-1.51,1.05-2.56,1.05
				c-1.13,0-2.01-0.37-2.63-1.1c-0.62-0.73-0.93-1.81-0.93-3.23v-27.01c0-1.53,0.34-2.64,1.03-3.33c0.69-0.69,1.8-1.03,3.33-1.03
				h11.57c1.6,0,2.96,0.07,4.09,0.2s2.16,0.41,3.07,0.83c1.1,0.46,2.08,1.13,2.92,1.99c0.85,0.86,1.49,1.86,1.93,3.01
				c0.44,1.14,0.66,2.35,0.66,3.63c0,2.62-0.74,4.71-2.21,6.27c-1.48,1.57-3.72,2.67-6.72,3.33c1.26,0.67,2.47,1.66,3.62,2.97
				c1.15,1.31,2.17,2.7,3.08,4.18c0.9,1.48,1.6,2.81,2.11,4s0.75,2.01,0.75,2.45c0,0.46-0.15,0.92-0.44,1.38
				c-0.3,0.46-0.7,0.81-1.21,1.08c-0.51,0.26-1.1,0.4-1.77,0.4c-0.8,0-1.47-0.19-2.01-0.56s-1.01-0.85-1.4-1.42
				c-0.39-0.58-0.92-1.42-1.59-2.54l-2.85-4.74c-1.02-1.74-1.94-3.06-2.74-3.97c-0.81-0.91-1.62-1.53-2.45-1.87
				S1104.32,1310.22,1103.06,1310.22z M1107.13,1295.47h-6.56v9.65h6.37c1.71,0,3.14-0.15,4.31-0.44c1.17-0.29,2.05-0.8,2.67-1.51
				c0.61-0.71,0.92-1.69,0.92-2.93c0-0.97-0.25-1.83-0.74-2.57c-0.5-0.74-1.18-1.3-2.06-1.67
				C1111.21,1295.65,1109.57,1295.47,1107.13,1295.47z"/>
			<path class="st3" d="M1161.04,1321.26l-1.68-4.41h-14.27l-1.68,4.5c-0.66,1.76-1.21,2.94-1.68,3.56s-1.22,0.92-2.27,0.92
				c-0.89,0-1.68-0.33-2.37-0.98s-1.03-1.4-1.03-2.23c0-0.48,0.08-0.97,0.24-1.48c0.16-0.51,0.42-1.22,0.79-2.13l8.98-22.8
				c0.25-0.65,0.56-1.44,0.92-2.36c0.36-0.92,0.74-1.68,1.15-2.29s0.94-1.1,1.6-1.47c0.66-0.38,1.48-0.56,2.45-0.56
				c0.99,0,1.82,0.19,2.48,0.56c0.66,0.38,1.2,0.86,1.6,1.45c0.41,0.59,0.75,1.23,1.03,1.9s0.63,1.58,1.07,2.72l9.17,22.65
				c0.72,1.72,1.08,2.98,1.08,3.76c0,0.81-0.34,1.56-1.02,2.24c-0.68,0.68-1.5,1.02-2.46,1.02c-0.56,0-1.04-0.1-1.44-0.3
				c-0.4-0.2-0.73-0.47-1.01-0.81s-0.56-0.87-0.87-1.58C1161.54,1322.43,1161.27,1321.81,1161.04,1321.26z M1146.96,1311.52h10.49
				l-5.29-14.49L1146.96,1311.52z"/>
			<path class="st3" d="M1208.52,1319.71l-5.68-21.05l-5.75,21.05c-0.45,1.6-0.8,2.74-1.07,3.44c-0.26,0.7-0.72,1.32-1.38,1.87
				c-0.66,0.55-1.53,0.83-2.61,0.83c-0.88,0-1.6-0.16-2.17-0.49c-0.57-0.33-1.03-0.79-1.38-1.39c-0.35-0.6-0.64-1.31-0.86-2.13
				s-0.42-1.58-0.6-2.29l-5.84-23.64c-0.35-1.37-0.53-2.42-0.53-3.14c0-0.91,0.32-1.68,0.96-2.3s1.43-0.93,2.37-0.93
				c1.29,0,2.16,0.42,2.61,1.25c0.45,0.83,0.84,2.04,1.17,3.62l4.6,20.5l5.15-19.18c0.38-1.47,0.73-2.59,1.03-3.35
				c0.3-0.77,0.8-1.43,1.48-1.99s1.62-0.84,2.8-0.84c1.2,0,2.13,0.29,2.79,0.87c0.66,0.58,1.12,1.22,1.38,1.9
				c0.25,0.69,0.6,1.82,1.03,3.4l5.2,19.18l4.6-20.5c0.22-1.07,0.44-1.91,0.63-2.51s0.54-1.15,1.03-1.63
				c0.49-0.48,1.19-0.72,2.12-0.72c0.93,0,1.71,0.31,2.36,0.92s0.97,1.38,0.97,2.31c0,0.66-0.18,1.7-0.53,3.14l-5.84,23.64
				c-0.4,1.6-0.73,2.77-0.99,3.51s-0.71,1.39-1.34,1.95c-0.63,0.56-1.52,0.84-2.67,0.84c-1.09,0-1.96-0.27-2.61-0.81
				c-0.66-0.54-1.11-1.15-1.37-1.83C1209.34,1322.51,1208.98,1321.35,1208.52,1319.71z"/>
		</g>
	</g>
	<path class="st3" d="M984.65,1286.43c0.81,0.01,1.54-0.06,2.16-0.19c0.67-0.14,1.37-0.42,2.14-0.87l3.84-2.14l3.8,2.19
		c0.77,0.47,1.48,0.76,2.19,0.91c0.65,0.14,1.38,0.21,2.19,0.22c1.81,0.01,2.45-0.69,2.46-1.35c0-0.34-0.22-0.72-0.76-1.28
		l-5.28-4.23c-0.47-0.39-0.98-0.7-1.51-0.93c-0.61-0.27-1.38-0.41-2.28-0.41l-1.37-0.01c-0.9-0.01-1.67,0.12-2.28,0.38
		c-0.55,0.23-1.06,0.53-1.52,0.9l-5.41,4.22c-0.48,0.48-0.71,0.86-0.71,1.2C982.28,1285.71,982.9,1286.41,984.65,1286.43z"/>
</g>
</svg>
