<?xml version="1.0" encoding="utf-8"?>
<!-- Generator: Adobe Illustrator 26.0.0, SVG Export Plug-In . SVG Version: 6.00 Build 0)  -->
<svg version="1.1" id="_x3C_Layer_x3E_" xmlns="http://www.w3.org/2000/svg" xmlns:xlink="http://www.w3.org/1999/xlink" x="0px"
	 y="0px" viewBox="0 0 2159.83 1392.9" style="enable-background:new 0 0 2159.83 1392.9;" xml:space="preserve">
<style type="text/css">
	.st0{fill:url(#SVGID_1_);}
	.st1{fill:url(#SVGID_00000161595516748919143070000006517562146680682389_);}
	.st2{fill:url(#SVGID_00000165196215111678258140000009465334397504930481_);}
</style>
<g>
	<g>
		<path d="M1997.59,1181.49c0,26.65-22.51,49.17-49.13,49.17H211.39c-26.64,0-49.15-22.52-49.15-49.17v-970.1
			c0-26.65,22.51-49.17,49.15-49.17h1737.07c26.62,0,49.13,22.52,49.13,49.17V1181.49z M1948.46,14.73H211.39
			c-108.15,0-196.64,88.49-196.64,196.66v970.1c0,108.15,88.48,196.66,196.64,196.66h1737.07c108.15,0,196.64-88.5,196.64-196.66
			v-970.1C2145.11,103.23,2056.61,14.73,1948.46,14.73z"/>
	</g>
	<linearGradient id="SVGID_1_" gradientUnits="userSpaceOnUse" x1="87.3258" y1="2158.3047" x2="1999.1556" y2="-657.3549">
		<stop  offset="0" style="stop-color:#AD0008"/>
		<stop  offset="0.3084" style="stop-color:#910006"/>
		<stop  offset="0.6317" style="stop-color:#B70009"/>
		<stop  offset="0.7695" style="stop-color:#CB000B"/>
		<stop  offset="1" style="stop-color:#B50009"/>
	</linearGradient>
	<path class="st0" d="M1948.46,14.73H211.39c-108.15,0-196.64,88.49-196.64,196.66v970.1c0,108.15,88.48,196.66,196.64,196.66
		h1737.07c108.15,0,196.64-88.5,196.64-196.66v-970.1C2145.11,103.23,2056.61,14.73,1948.46,14.73z M1997.59,1181.49
		c0,26.65-22.51,49.17-49.13,49.17H211.39c-26.64,0-49.15-22.52-49.15-49.17v-970.1c0-26.65,22.51-49.17,49.15-49.17h1737.07
		c26.62,0,49.13,22.52,49.13,49.17V1181.49z"/>
	
		<linearGradient id="SVGID_00000140710118701737990830000002866807667054743189_" gradientUnits="userSpaceOnUse" x1="1079.9156" y1="-4.9155" x2="1079.9156" y2="1390.0431">
		<stop  offset="0" style="stop-color:#FE0011"/>
		<stop  offset="1" style="stop-color:#910006"/>
	</linearGradient>
	<path style="fill:url(#SVGID_00000140710118701737990830000002866807667054743189_);" d="M1948.46,0H211.39
		C94.84,0,0,94.82,0,211.39v970.1c0,116.56,94.84,211.4,211.39,211.4h1737.07c116.55,0,211.37-94.84,211.37-211.4v-970.1
		C2159.83,94.82,2065.01,0,1948.46,0z M2145.11,1181.49c0,108.15-88.49,196.66-196.64,196.66H211.39
		c-108.15,0-196.64-88.5-196.64-196.66v-970.1c0-108.16,88.48-196.66,196.64-196.66h1737.07c108.15,0,196.64,88.49,196.64,196.66
		V1181.49z"/>
	
		<linearGradient id="SVGID_00000057829614787923917070000015615673546393049790_" gradientUnits="userSpaceOnUse" x1="1079.9146" y1="1214.2812" x2="1079.9146" y2="160.5086">
		<stop  offset="0" style="stop-color:#FE0011"/>
		<stop  offset="1" style="stop-color:#910006"/>
	</linearGradient>
	<path style="fill:url(#SVGID_00000057829614787923917070000015615673546393049790_);" d="M1948.46,162.22H211.39
		c-26.64,0-49.15,22.52-49.15,49.17v970.1c0,26.65,22.51,49.17,49.15,49.17h1737.07c26.62,0,49.13-22.52,49.13-49.17v-970.1
		C1997.59,184.74,1975.08,162.22,1948.46,162.22z M1982.87,1181.49c0,18.67-15.74,34.42-34.4,34.42H211.39
		c-18.65,0-34.4-15.74-34.4-34.42v-970.1c0-18.66,15.75-34.43,34.4-34.43h1737.07c18.66,0,34.4,15.77,34.4,34.43V1181.49z"/>
</g>
</svg>
