<svg width="30" height="37" viewBox="0 0 30 37" fill="none" xmlns="http://www.w3.org/2000/svg">
<path d="M26.5601 14.8301V12.3096C26.5601 6.05957 21.47 0.970215 15.22 0.970215C8.95997 0.970215 3.87988 6.05957 3.87988 12.3096V14.8301C2.18988 15.3001 0.949951 16.8397 0.949951 18.6797V32.3799C0.949951 34.5899 2.73995 36.3799 4.94995 36.3799H25.5C27.71 36.3799 29.5 34.5899 29.5 32.3799V18.6797C29.49 16.8397 28.2501 15.2901 26.5601 14.8301ZM15.22 3.1001C20.3 3.1001 24.4299 7.22957 24.4299 12.3096V14.6797H6.01001V12.3096C6.01001 7.22957 10.14 3.1001 15.22 3.1001ZM15.22 28.8496C13.38 28.8496 11.8899 27.3595 11.8899 25.5195C11.8899 23.6795 13.38 22.1904 15.22 22.1904C17.06 22.1904 18.55 23.6795 18.55 25.5195C18.55 27.3595 17.06 28.8496 15.22 28.8496Z" fill="white"/>
</svg>
