<svg width="250" height="59" viewBox="0 0 250 59" fill="none" xmlns="http://www.w3.org/2000/svg">
<path d="M76.8507 17.75C74.8407 17.75 72.9707 18.1101 71.3207 18.8301C69.6707 19.5501 68.2308 20.53 67.0508 21.75C65.8708 22.97 64.9408 24.4 64.2908 25.99C63.6408 27.59 63.3008 29.29 63.3008 31.04V31.1101C63.3008 32.9301 63.6207 34.66 64.2507 36.26C64.8807 37.86 65.8107 39.28 67.0007 40.49C68.2007 41.69 69.6507 42.6401 71.3307 43.3301C73.0007 44.0101 74.9208 44.3601 77.0308 44.3601C79.0108 44.3601 80.8407 44.05 82.4707 43.45C84.0707 42.86 85.5007 42.13 86.7107 41.29C87.5707 40.74 88.0308 39.95 88.0308 39.01V31.6201C88.0308 31.0301 87.8107 30.5001 87.3807 30.0901C86.9607 29.6901 86.4407 29.49 85.8707 29.49H77.6608C77.1308 29.49 76.6507 29.6901 76.2507 30.0601C75.8507 30.4401 75.6407 30.93 75.6407 31.48C75.6407 32.01 75.8507 32.4901 76.2507 32.8701C76.6407 33.2401 77.1308 33.4399 77.6508 33.4399H83.7708V38.3601C83.0108 38.8901 82.0807 39.36 81.0107 39.76C79.8107 40.2 78.5107 40.4299 77.1407 40.4299C75.6907 40.4299 74.3707 40.19 73.2307 39.72C72.0907 39.25 71.1108 38.6 70.3108 37.77C69.5108 36.95 68.8807 35.9501 68.4507 34.8301C68.0107 33.7001 67.7908 32.4301 67.7908 31.0701V31C67.7908 29.76 68.0207 28.5599 68.4707 27.4399C68.9207 26.3199 69.5407 25.33 70.3307 24.5C71.1107 23.67 72.0608 23.01 73.1608 22.52C74.2508 22.03 75.4607 21.79 76.7607 21.79C78.2707 21.79 79.5408 21.9801 80.5508 22.3501C81.5708 22.7301 82.5308 23.2401 83.4008 23.8701C83.8408 24.1901 84.3007 24.3601 84.7507 24.3601C85.3307 24.3601 85.8507 24.15 86.2607 23.76C86.6807 23.36 86.9108 22.83 86.9108 22.23C86.9108 21.84 86.8207 21.4899 86.6407 21.1899C86.4807 20.9099 86.2607 20.68 86.0007 20.5C84.7907 19.66 83.4608 18.99 82.0508 18.5C80.6108 18 78.8707 17.75 76.8507 17.75Z" fill="#EC2024"/>
<path d="M107.811 10.98H107.151C106.671 10.98 106.251 11.09 105.911 11.3C105.631 11.48 105.361 11.72 105.121 12L102.571 14.98L102.541 15.01L102.521 15.05C102.261 15.44 102.141 15.76 102.141 16.05C102.141 16.62 102.511 17.28 103.541 17.28C103.961 17.28 104.331 17.2301 104.661 17.1201C105.011 17.0101 105.381 16.7899 105.771 16.4399L107.441 15.04L109.111 16.4399C109.511 16.7899 109.881 17.0101 110.251 17.1201C110.591 17.2201 110.961 17.27 111.381 17.27C112.441 17.27 112.811 16.61 112.811 16.04C112.811 15.74 112.691 15.43 112.431 15.04L112.411 15L112.381 14.97L109.831 11.99C109.591 11.71 109.321 11.47 109.041 11.29C108.711 11.09 108.291 10.98 107.811 10.98ZM107.521 17.75C105.481 17.75 103.591 18.1101 101.901 18.8301C100.211 19.5501 98.751 20.52 97.541 21.73C96.331 22.94 95.3809 24.37 94.7209 25.98C94.0509 27.59 93.7109 29.29 93.7109 31.05V31.1201C93.7109 32.8801 94.0409 34.5799 94.7009 36.1699C95.3509 37.7699 96.301 39.1899 97.511 40.3999C98.721 41.6099 100.181 42.58 101.851 43.28C103.531 43.99 105.411 44.3401 107.441 44.3401C109.481 44.3401 111.361 43.98 113.051 43.26C114.741 42.54 116.201 41.5701 117.411 40.3601C118.621 39.1501 119.571 37.7201 120.231 36.1101C120.901 34.5001 121.231 32.79 121.231 31.04V30.97C121.231 29.22 120.901 27.5199 120.251 25.9199C119.591 24.3199 118.651 22.8999 117.441 21.6899C116.241 20.4799 114.781 19.5101 113.101 18.8101C111.441 18.1101 109.561 17.75 107.521 17.75ZM107.521 40.3401C106.171 40.3401 104.911 40.0901 103.791 39.6001C102.651 39.1101 101.661 38.4401 100.831 37.6101C100.001 36.7801 99.351 35.7899 98.891 34.6799C98.431 33.5599 98.2009 32.3401 98.2009 31.0601V30.99C98.2009 29.71 98.431 28.4899 98.891 27.3899C99.351 26.2799 99.991 25.3 100.801 24.46C101.601 23.63 102.581 22.97 103.711 22.49C104.841 22.01 106.101 21.77 107.451 21.77C108.801 21.77 110.061 22.02 111.191 22.51C112.331 23 113.321 23.67 114.151 24.5C114.981 25.33 115.631 26.3199 116.091 27.4299C116.551 28.5499 116.781 29.77 116.781 31.05V31.1201C116.781 32.4001 116.551 33.61 116.091 34.72C115.631 35.83 114.991 36.8099 114.181 37.6399C113.381 38.4699 112.401 39.1301 111.271 39.6101C110.131 40.1001 108.871 40.3401 107.521 40.3401Z" fill="#EC2024"/>
<path d="M137.28 18.1699H129.84C129.26 18.1699 128.74 18.38 128.33 18.77C127.9 19.18 127.68 19.7 127.68 20.3V41.8101C127.68 42.4001 127.9 42.9301 128.33 43.3401C128.74 43.7301 129.27 43.9399 129.84 43.9399H137.28C139.35 43.9399 141.29 43.61 143.03 42.96C144.78 42.31 146.3 41.39 147.57 40.25C148.85 39.1 149.84 37.7199 150.54 36.1499C151.24 34.5799 151.59 32.8701 151.59 31.0601V30.99C151.59 29.18 151.24 27.4799 150.54 25.9199C149.84 24.3599 148.84 22.9901 147.57 21.8401C146.3 20.6901 144.77 19.7899 143.03 19.1399C141.28 18.4899 139.35 18.1699 137.28 18.1699ZM132.04 22.1799H137.28C138.79 22.1799 140.17 22.4099 141.39 22.8799C142.6 23.3399 143.64 23.98 144.48 24.77C145.31 25.56 145.97 26.5101 146.42 27.5801C146.88 28.6501 147.11 29.82 147.11 31.05V31.1201C147.11 32.3801 146.88 33.5501 146.42 34.6101C145.96 35.6701 145.31 36.5999 144.48 37.3799C143.65 38.1599 142.61 38.79 141.39 39.24C140.17 39.69 138.78 39.9199 137.27 39.9199H132.03V22.1799H132.04Z" fill="#EC2024"/>
<path d="M169.74 18.1699H160.18C159.6 18.1699 159.08 18.38 158.67 18.77C158.24 19.18 158.02 19.7 158.02 20.3V41.99C158.02 42.58 158.24 43.11 158.67 43.52C159.09 43.91 159.61 44.1201 160.18 44.1201C160.78 44.1201 161.319 43.91 161.729 43.52C162.159 43.12 162.38 42.59 162.38 41.99V34.51H168.609L175.569 43.1201C175.789 43.3901 176.049 43.62 176.329 43.8C176.669 44.01 177.06 44.1201 177.49 44.1201C178.04 44.1201 178.539 43.92 178.979 43.54C179.439 43.13 179.689 42.61 179.689 42.03C179.689 41.5 179.47 40.99 179.03 40.53L173.459 33.7C174.069 33.53 174.649 33.3201 175.189 33.0701C176.099 32.6601 176.9 32.12 177.56 31.47C178.22 30.81 178.75 30.0399 179.12 29.1699C179.5 28.2899 179.689 27.3 179.689 26.2V26.1299C179.689 23.9799 178.95 22.19 177.49 20.8C176.62 19.97 175.509 19.3101 174.199 18.8501C172.929 18.4001 171.42 18.1699 169.74 18.1699ZM162.39 22.1799H169.53C171.43 22.1799 172.9 22.55 173.91 23.29C174.86 23.98 175.319 24.94 175.319 26.23V26.3C175.319 26.96 175.18 27.55 174.92 28.05C174.64 28.57 174.26 29.0001 173.77 29.3601C173.26 29.7401 172.64 30.03 171.92 30.24C171.19 30.45 170.37 30.5601 169.5 30.5601H162.4V22.1799H162.39Z" fill="#EC2024"/>
<path d="M197.709 17.8899H197.559C196.939 17.8899 196.409 18.0401 195.999 18.3501C195.629 18.6301 195.309 19.02 195.069 19.52L184.709 41.0801L184.699 41.0901V41.1001C184.529 41.4701 184.449 41.8099 184.449 42.1299C184.449 42.6799 184.659 43.17 185.059 43.55C185.449 43.92 185.949 44.1201 186.499 44.1201C187.449 44.1201 188.179 43.63 188.559 42.75L191.019 37.53H204.089L206.549 42.6799C206.719 43.0599 206.969 43.3899 207.309 43.6599C207.689 43.9599 208.139 44.1201 208.649 44.1201C209.229 44.1201 209.739 43.92 210.149 43.53C210.559 43.14 210.779 42.6301 210.779 42.0601C210.779 41.8001 210.699 41.4901 210.539 41.0901L210.529 41.0701L210.519 41.05L200.169 19.55C199.709 18.46 198.859 17.8899 197.709 17.8899ZM192.869 33.54L197.569 23.5901L202.269 33.54H192.869Z" fill="#EC2024"/>
<path d="M247.57 17.99C246.6 17.99 245.86 18.54 245.49 19.55L239.13 36.96L233.141 19.5701V19.5601V19.55C232.761 18.55 232.011 17.99 231.021 17.99H230.84C230.26 17.99 229.791 18.15 229.431 18.47C229.121 18.75 228.88 19.11 228.72 19.54V19.55V19.5601L222.73 36.95L216.411 19.6201C216.241 19.1701 215.98 18.8 215.63 18.5C215.24 18.16 214.76 17.99 214.22 17.99C213.62 17.99 213.081 18.2001 212.651 18.6101C212.211 19.0301 211.98 19.5501 211.98 20.1201C211.98 20.4301 212.051 20.73 212.181 21.03L220.33 42.5701C220.67 43.6501 221.451 44.25 222.531 44.25H222.75C223.3 44.25 223.771 44.08 224.161 43.74C224.511 43.44 224.78 43.0401 224.94 42.5701L230.84 25.8701L236.781 42.5701C236.941 43.0401 237.211 43.43 237.561 43.73C237.951 44.07 238.43 44.24 238.97 44.24H239.19C239.74 44.24 240.21 44.07 240.6 43.73C240.95 43.43 241.21 43.0401 241.38 42.5701L249.541 21.01C249.591 20.89 249.641 20.7699 249.681 20.6499C249.741 20.4699 249.781 20.2701 249.781 20.0801C249.781 19.5301 249.55 19.0201 249.11 18.6101C248.67 18.2101 248.15 17.99 247.57 17.99Z" fill="#EC2024"/>
<path d="M102.481 50.52V55.74C102.481 56.49 102.371 57.07 102.141 57.48C101.731 58.23 100.952 58.6101 99.8015 58.6101C99.3015 58.6101 98.8715 58.5201 98.5315 58.3301C98.0015 58.0501 97.6915 57.5699 97.6115 56.9099H98.5814C98.6414 57.2099 98.7815 57.4301 99.0015 57.5901C99.2215 57.7501 99.5215 57.8201 99.8815 57.8201C100.581 57.8201 101.062 57.5801 101.312 57.1001C101.462 56.8201 101.531 56.4001 101.531 55.8601V55.5601L101.511 55.6001C101.361 55.8301 101.171 56.0199 100.941 56.1499C100.661 56.3099 100.341 56.3899 99.9714 56.3899C99.0814 56.3899 98.4214 56.0301 97.9714 55.3101C97.6214 54.7401 97.4414 54.0399 97.4414 53.1899C97.4414 52.3699 97.6514 51.6899 98.0814 51.1599C98.5114 50.6299 99.0914 50.3601 99.8314 50.3601C100.291 50.3601 100.681 50.48 100.991 50.71C101.181 50.85 101.362 51.0501 101.542 51.3201L101.562 50.52H102.481ZM98.4315 53.3501C98.4315 54.0101 98.5614 54.5399 98.8214 54.9399C99.0814 55.3399 99.4614 55.54 99.9714 55.54C100.371 55.54 100.721 55.4099 100.991 55.1599C101.361 54.8199 101.552 54.3099 101.552 53.6299C101.552 52.9799 101.472 52.4701 101.302 52.0901C101.042 51.5101 100.611 51.22 99.9915 51.22C99.3415 51.22 98.8915 51.48 98.6515 52.01C98.5115 52.33 98.4315 52.7801 98.4315 53.3501Z" fill="white"/>
<path d="M107.443 52.9099V56.22H106.473V50.53H107.373V51.49C107.593 51.14 107.823 50.8699 108.073 50.6899C108.353 50.4799 108.663 50.3799 109.013 50.3799C109.133 50.3799 109.213 50.3899 109.253 50.3999V51.3999H108.903C108.463 51.3999 108.113 51.5501 107.843 51.8401C107.583 52.1201 107.443 52.4799 107.443 52.9099Z" fill="white"/>
<path d="M116.411 54.4299H117.381C117.341 54.6499 117.261 54.8801 117.131 55.1101C116.931 55.4701 116.671 55.76 116.351 55.97C116.151 56.1 115.981 56.19 115.821 56.24C115.541 56.34 115.201 56.3799 114.781 56.3799C113.991 56.3799 113.361 56.1101 112.901 55.5801C112.441 55.0501 112.211 54.36 112.211 53.51C112.211 52.57 112.431 51.82 112.871 51.27C113.351 50.66 114.061 50.3601 114.981 50.3601C115.781 50.3601 116.401 50.66 116.811 51.25C117.221 51.84 117.441 52.6499 117.441 53.6699H113.241C113.241 54.2699 113.381 54.7301 113.661 55.0601C113.941 55.3801 114.361 55.54 114.911 55.54C115.341 55.54 115.691 55.4099 115.981 55.1499C116.241 54.9299 116.381 54.6899 116.411 54.4299ZM113.241 52.9099H116.451C116.451 52.4299 116.331 52.03 116.091 51.74C115.811 51.39 115.401 51.22 114.841 51.22C114.401 51.22 114.031 51.39 113.711 51.73C113.401 52.07 113.241 52.4599 113.241 52.9099Z" fill="white"/>
<path d="M121.99 52.26H121.09C121.09 51.61 121.31 51.12 121.75 50.8C122.15 50.51 122.72 50.3601 123.46 50.3601C123.93 50.3601 124.34 50.4401 124.69 50.6001C125.29 50.8701 125.59 51.32 125.59 51.95V55.21C125.59 55.44 125.7 55.55 125.92 55.55L126.23 55.51V56.21C126.15 56.23 126.07 56.25 125.98 56.28C125.89 56.3 125.8 56.3201 125.71 56.3201C125.32 56.3201 125.05 56.23 124.89 56.05C124.77 55.91 124.7 55.71 124.7 55.46C124.44 55.73 124.19 55.9301 123.94 56.0601C123.55 56.2801 123.11 56.3899 122.62 56.3899C122.09 56.3899 121.66 56.2399 121.32 55.9299C120.98 55.6299 120.82 55.23 120.82 54.73C120.82 54.35 120.91 54.02 121.09 53.74C121.38 53.3 121.88 53.03 122.57 52.95L124.15 52.75C124.3 52.74 124.42 52.6901 124.49 52.6201C124.6 52.5101 124.66 52.3301 124.66 52.0801C124.66 51.4601 124.21 51.1499 123.32 51.1499C122.84 51.1499 122.5 51.28 122.27 51.54C122.13 51.7 122.04 51.94 121.99 52.26ZM124.62 54.24V53.3101C124.54 53.3801 124.4 53.45 124.19 53.5C123.98 53.55 123.63 53.6099 123.12 53.6699C122.61 53.7399 122.27 53.84 122.08 54C121.89 54.16 121.8 54.3501 121.8 54.6001C121.8 54.9301 121.88 55.1701 122.05 55.3401C122.22 55.5101 122.48 55.5901 122.84 55.5901C123.31 55.5901 123.72 55.46 124.08 55.2C124.44 54.93 124.62 54.62 124.62 54.24Z" fill="white"/>
<path d="M131.752 51.3201H130.832V55.02C130.832 55.21 130.902 55.3299 131.042 55.3999C131.122 55.4399 131.242 55.46 131.402 55.46H131.752V56.22L131.032 56.3C130.582 56.3 130.272 56.1799 130.092 55.9399C129.942 55.7499 129.872 55.4601 129.872 55.0601V51.3201H129.082V50.52H129.872V48.9299H130.842V50.52H131.762V51.3201H131.752Z" fill="white"/>
<path d="M144.08 50.52H145.16C144.82 51.45 144.48 52.38 144.15 53.29C143.82 54.2 143.46 55.1401 143.09 56.1101C142.63 57.2601 142.29 57.9499 142.08 58.1899C141.87 58.4299 141.45 58.54 140.84 58.54C140.78 58.54 140.73 58.54 140.7 58.53C140.59 58.49 140.5 58.47 140.45 58.46V57.5901C140.51 57.6101 140.59 57.6399 140.7 57.6599C140.81 57.6899 140.91 57.7 141.02 57.7C141.26 57.7 141.44 57.63 141.54 57.49C141.64 57.35 141.81 56.9801 142.06 56.3701L139.93 50.52H141.02L142.54 55.1499L144.08 50.52Z" fill="white"/>
<path d="M148.18 53.3701C148.18 52.5501 148.39 51.8701 148.82 51.3201C149.3 50.6901 149.98 50.3799 150.84 50.3799C151.71 50.3799 152.38 50.6901 152.87 51.3201C153.3 51.8801 153.52 52.5601 153.52 53.3701C153.52 54.1801 153.3 54.8599 152.87 55.4099C152.38 56.0499 151.7 56.3701 150.84 56.3701C149.99 56.3701 149.32 56.0499 148.83 55.4199C148.4 54.8599 148.18 54.1801 148.18 53.3701ZM149.17 53.3701C149.17 53.9101 149.27 54.36 149.48 54.74C149.77 55.28 150.23 55.55 150.84 55.55C151.45 55.55 151.9 55.29 152.19 54.76C152.4 54.37 152.51 53.9101 152.51 53.3701C152.51 52.8401 152.41 52.38 152.2 52C151.91 51.47 151.45 51.2 150.84 51.2C150.23 51.2 149.78 51.46 149.49 51.99C149.28 52.37 149.17 52.8301 149.17 53.3701Z" fill="white"/>
<path d="M161.702 56.22H160.772V55.3899L160.752 55.3701C160.552 55.7101 160.302 55.9699 160.022 56.1399C159.742 56.3099 159.372 56.3899 158.932 56.3899C158.432 56.3899 158.022 56.27 157.692 56.02C157.272 55.71 157.062 55.2401 157.062 54.6101V50.52H158.032V54.3C158.032 54.74 158.142 55.06 158.352 55.27C158.532 55.45 158.802 55.54 159.152 55.54C159.702 55.54 160.122 55.3299 160.392 54.9099C160.622 54.5699 160.732 54.1499 160.732 53.6499V50.52H161.702V56.22Z" fill="white"/>
<path d="M166.771 52.9099V56.22H165.801V50.53H166.701V51.49C166.921 51.14 167.151 50.8699 167.401 50.6899C167.681 50.4799 167.991 50.3799 168.341 50.3799C168.461 50.3799 168.541 50.3899 168.581 50.3999V51.3999H168.231C167.791 51.3999 167.441 51.5501 167.171 51.8401C166.911 52.1201 166.771 52.4799 166.771 52.9099Z" fill="white"/>
<path d="M182.022 48.4099V56.21H181.102V55.4299C180.902 55.7799 180.642 56.0299 180.322 56.1899C180.062 56.3199 179.772 56.3899 179.452 56.3899C178.562 56.3899 177.902 56.0301 177.452 55.3101C177.102 54.7401 176.922 54.0399 176.922 53.1899C176.922 52.3599 177.132 51.6799 177.552 51.1499C177.972 50.6199 178.562 50.3601 179.312 50.3601C179.762 50.3601 180.152 50.48 180.462 50.71C180.622 50.82 180.812 51.0201 181.022 51.3201L181.042 51.26V48.4199H182.022V48.4099ZM177.912 53.3501C177.912 54.0001 178.042 54.5299 178.312 54.9399C178.582 55.3499 178.962 55.55 179.472 55.55C179.862 55.55 180.202 55.4199 180.482 55.1699C180.852 54.8399 181.032 54.3299 181.032 53.6399C181.032 52.9899 180.952 52.4701 180.792 52.1001C180.542 51.5201 180.112 51.23 179.492 51.23C178.842 51.23 178.392 51.49 178.142 52.02C177.992 52.34 177.912 52.7801 177.912 53.3501Z" fill="white"/>
<path d="M186.993 52.9099V56.22H186.023V50.53H186.923V51.49C187.143 51.14 187.373 50.8699 187.623 50.6899C187.903 50.4799 188.213 50.3799 188.563 50.3799C188.683 50.3799 188.763 50.3899 188.803 50.3999V51.3999H188.453C188.013 51.3999 187.663 51.5501 187.393 51.8401C187.123 52.1201 186.993 52.4799 186.993 52.9099Z" fill="white"/>
<path d="M195.95 54.4299H196.92C196.88 54.6499 196.8 54.8801 196.67 55.1101C196.47 55.4701 196.21 55.76 195.89 55.97C195.69 56.1 195.52 56.19 195.36 56.24C195.08 56.34 194.74 56.3799 194.32 56.3799C193.53 56.3799 192.9 56.1101 192.44 55.5801C191.98 55.0501 191.75 54.36 191.75 53.51C191.75 52.57 191.97 51.82 192.41 51.27C192.89 50.66 193.6 50.3601 194.52 50.3601C195.32 50.3601 195.94 50.66 196.35 51.25C196.76 51.84 196.98 52.6499 196.98 53.6699H192.78C192.78 54.2699 192.92 54.7301 193.2 55.0601C193.48 55.3801 193.9 55.54 194.45 55.54C194.88 55.54 195.23 55.4099 195.52 55.1499C195.78 54.9299 195.92 54.6899 195.95 54.4299ZM192.78 52.9099H195.99C195.99 52.4299 195.87 52.03 195.63 51.74C195.35 51.39 194.94 51.22 194.38 51.22C193.94 51.22 193.57 51.39 193.25 51.73C192.94 52.07 192.78 52.4599 192.78 52.9099Z" fill="white"/>
<path d="M201.533 52.26H200.633C200.633 51.61 200.853 51.12 201.293 50.8C201.693 50.51 202.263 50.3601 203.003 50.3601C203.473 50.3601 203.883 50.4401 204.233 50.6001C204.833 50.8701 205.133 51.32 205.133 51.95V55.21C205.133 55.44 205.243 55.55 205.463 55.55L205.773 55.51V56.21C205.693 56.23 205.613 56.25 205.523 56.28C205.433 56.3 205.343 56.3201 205.253 56.3201C204.863 56.3201 204.593 56.23 204.433 56.05C204.313 55.91 204.243 55.71 204.243 55.46C203.983 55.73 203.733 55.9301 203.483 56.0601C203.093 56.2801 202.653 56.3899 202.163 56.3899C201.633 56.3899 201.203 56.2399 200.863 55.9299C200.523 55.6299 200.363 55.23 200.363 54.73C200.363 54.35 200.453 54.02 200.633 53.74C200.923 53.3 201.423 53.03 202.113 52.95L203.693 52.75C203.843 52.74 203.963 52.6901 204.033 52.6201C204.143 52.5101 204.203 52.3301 204.203 52.0801C204.203 51.4601 203.753 51.1499 202.863 51.1499C202.383 51.1499 202.043 51.28 201.813 51.54C201.673 51.7 201.583 51.94 201.533 52.26ZM204.173 54.24V53.3101C204.093 53.3801 203.953 53.45 203.743 53.5C203.533 53.55 203.183 53.6099 202.673 53.6699C202.163 53.7399 201.823 53.84 201.633 54C201.443 54.16 201.353 54.3501 201.353 54.6001C201.353 54.9301 201.433 55.1701 201.603 55.3401C201.773 55.5101 202.033 55.5901 202.393 55.5901C202.863 55.5901 203.273 55.46 203.633 55.2C203.993 54.93 204.173 54.62 204.173 54.24Z" fill="white"/>
<path d="M209.18 56.22V50.53H210.08V51.3301C210.28 51.0701 210.48 50.88 210.66 50.75C211 50.5 211.39 50.3799 211.83 50.3799C212.17 50.3799 212.47 50.4501 212.71 50.5801C212.95 50.7101 213.17 50.95 213.37 51.29C213.66 50.97 213.9 50.7499 214.09 50.6399C214.38 50.4699 214.72 50.3799 215.12 50.3799C215.56 50.3799 215.93 50.5 216.24 50.73C216.68 51.06 216.9 51.58 216.9 52.3V56.23H215.93V52.5601C215.93 52.1301 215.86 51.8101 215.71 51.6001C215.53 51.3501 215.25 51.23 214.85 51.23C214.45 51.23 214.13 51.3799 213.88 51.6799C213.63 51.9799 213.51 52.34 213.51 52.75V56.23H212.54V52.3C212.54 52.02 212.48 51.7801 212.35 51.5901C212.19 51.3501 211.95 51.23 211.64 51.23C211.27 51.23 210.95 51.3501 210.68 51.5901C210.3 51.9201 210.12 52.4301 210.12 53.1201V56.23H209.18V56.22Z" fill="white"/>
<path d="M27.5499 55.54C12.4099 55.54 0.0898438 43.2201 0.0898438 28.0801C0.0898438 12.9401 12.4099 0.620117 27.5499 0.620117C36.9999 0.620117 45.6699 5.39012 50.7399 13.3701L50.7499 13.3799C51.1599 14.0799 51.3599 15.44 50.2499 16.29C49.8599 16.59 49.3699 16.74 48.7899 16.74C48.3399 16.74 47.9299 16.6501 47.6699 16.5701L47.6499 16.6101L47.3899 16.47L47.1599 16.3799V16.3501C44.8399 15.1601 42.2299 14.53 39.5999 14.53C37.2399 14.53 34.8498 15.05 32.7098 16.03C32.5198 16.12 32.3099 16.1599 32.0999 16.1599C31.5699 16.1599 31.0898 15.8699 30.8398 15.4099L30.8198 15.3799C30.6298 15.0299 30.5999 14.62 30.7299 14.24C30.8599 13.87 31.1199 13.5699 31.4799 13.4099C34.0099 12.2499 36.8199 11.6399 39.6099 11.6399C42.1399 11.6399 44.6899 12.1501 47.0299 13.1101C42.3999 7.09011 35.1699 3.52002 27.5599 3.52002C14.0199 3.52002 2.99988 14.5401 2.99988 28.0801C2.99988 41.6201 14.0199 52.6399 27.5599 52.6399C34.2899 52.6399 40.7098 49.8801 45.3198 45.05C43.5098 45.7901 41.5599 46.1799 39.6099 46.1799C31.3099 46.1799 24.5599 39.4299 24.5599 31.1299C24.5599 22.8299 31.3099 16.0801 39.6099 16.0801C47.9099 16.0801 54.6599 22.8299 54.6599 31.1299C54.6599 31.9199 54.5998 32.72 54.4698 33.52C54.4599 33.61 54.4498 33.7001 54.4398 33.8101C54.1198 36.3601 52.7598 39.1899 51.9698 40.6499C51.5698 41.4299 51.1398 42.1801 50.6998 42.8701C45.6098 50.8001 36.9599 55.54 27.5499 55.54ZM39.5999 18.98C32.8999 18.98 27.4398 24.4299 27.4398 31.1399C27.4398 37.8399 32.8899 43.3 39.5999 43.3C45.7099 43.3 50.8499 38.78 51.6499 32.75H39.4799C38.6499 32.75 37.9698 32.07 37.9698 31.24C37.9698 30.41 38.6499 29.73 39.4799 29.73H51.6699C50.9599 23.68 45.6999 18.98 39.5999 18.98Z" fill="white"/>
</svg>
