<svg width="182" height="125" viewBox="0 0 182 125" fill="none" xmlns="http://www.w3.org/2000/svg">
<path d="M11.8481 90.51C10.0881 90.51 8.45781 90.8099 7.00781 91.3999C5.56781 91.9899 4.30783 92.8 3.27783 93.8C2.24783 94.8 1.43816 95.97 0.868164 97.28C0.298164 98.59 0.0078125 99.9799 0.0078125 101.42V101.48C0.0078125 102.97 0.287891 104.39 0.837891 105.7C1.38789 107.01 2.19805 108.18 3.24805 109.16C4.29805 110.14 5.56809 110.92 7.03809 111.48C8.49809 112.04 10.1781 112.32 12.0181 112.32C13.7481 112.32 15.3478 112.07 16.7778 111.57C18.1778 111.08 19.4283 110.49 20.4883 109.8C21.2383 109.35 21.6382 108.7 21.6382 107.93V101.87C21.6382 101.38 21.4379 100.95 21.0679 100.62C20.7079 100.3 20.248 100.13 19.748 100.13H12.5679C12.1079 100.13 11.6779 100.29 11.3379 100.6C10.9879 100.91 10.7979 101.32 10.7979 101.77C10.7979 102.2 10.9879 102.59 11.3379 102.91C11.6779 103.21 12.1079 103.38 12.5679 103.38H17.918V107.41C17.248 107.85 16.4378 108.23 15.5078 108.56C14.4578 108.92 13.3179 109.11 12.1279 109.11C10.8579 109.11 9.70801 108.91 8.70801 108.53C7.70801 108.15 6.84795 107.61 6.14795 106.93C5.44795 106.25 4.89807 105.44 4.51807 104.52C4.13807 103.59 3.93799 102.55 3.93799 101.44V101.38C3.93799 100.36 4.13783 99.38 4.52783 98.46C4.91783 97.54 5.46795 96.73 6.14795 96.05C6.82795 95.37 7.65816 94.8299 8.61816 94.4299C9.56816 94.0299 10.6281 93.8301 11.7681 93.8301C13.0881 93.8301 14.2079 93.98 15.0879 94.29C15.9879 94.6 16.8181 95.02 17.5781 95.53C17.9681 95.8 18.3578 95.9299 18.7578 95.9299C19.2578 95.9299 19.7181 95.7599 20.0781 95.4399C20.4481 95.1099 20.6479 94.6799 20.6479 94.1899C20.6479 93.8699 20.568 93.5901 20.418 93.3401C20.278 93.1101 20.0879 92.92 19.8579 92.78C18.7979 92.09 17.6279 91.5399 16.3979 91.1399C15.1379 90.7099 13.6081 90.51 11.8481 90.51Z" fill="#EC2024"/>
<path d="M41.9473 84.97H41.377C40.957 84.97 40.5869 85.06 40.2969 85.24C40.0469 85.39 39.8169 85.5801 39.6069 85.8201L37.377 88.26L37.3569 88.29L37.3369 88.3201C37.1069 88.6401 37.0068 88.8999 37.0068 89.1399C37.0068 89.5999 37.3271 90.1499 38.2271 90.1499C38.5871 90.1499 38.917 90.11 39.207 90.02C39.517 89.93 39.837 89.75 40.187 89.46L41.647 88.3101L43.1069 89.46C43.4569 89.75 43.7769 89.93 44.1069 90.02C44.3969 90.1 44.7372 90.1499 45.0972 90.1499C46.0272 90.1499 46.3472 89.6099 46.3472 89.1399C46.3472 88.8999 46.2471 88.6401 46.0171 88.3201L45.9971 88.29L45.9673 88.26L43.7373 85.8101C43.5273 85.5801 43.2969 85.38 43.0469 85.24C42.7369 85.06 42.3673 84.97 41.9473 84.97ZM41.687 90.51C39.907 90.51 38.2569 90.8099 36.7769 91.3999C35.3069 91.9899 34.0173 92.79 32.9673 93.78C31.9173 94.77 31.0771 95.94 30.4971 97.26C29.9171 98.58 29.6172 99.9799 29.6172 101.42V101.48C29.6172 102.92 29.9071 104.31 30.4771 105.62C31.0471 106.93 31.8772 108.1 32.9272 109.09C33.9772 110.08 35.2571 110.87 36.7271 111.45C38.1971 112.03 39.8372 112.32 41.6172 112.32C43.3972 112.32 45.0469 112.02 46.5269 111.43C47.9969 110.84 49.2869 110.04 50.3369 109.05C51.3869 108.06 52.2271 106.89 52.8071 105.57C53.3871 104.25 53.687 102.85 53.687 101.41V101.35C53.687 99.9101 53.3971 98.52 52.8271 97.21C52.2571 95.9 51.427 94.73 50.377 93.74C49.327 92.75 48.0471 91.9599 46.5771 91.3799C45.1171 90.8099 43.467 90.51 41.687 90.51ZM41.687 109.02C40.507 109.02 39.407 108.82 38.417 108.42C37.427 108.02 36.5471 107.47 35.8271 106.79C35.1071 106.11 34.5372 105.3 34.1372 104.39C33.7372 103.47 33.5371 102.48 33.5371 101.42V101.36C33.5371 100.31 33.7372 99.3099 34.1372 98.4099C34.5372 97.4999 35.0971 96.69 35.8071 96.01C36.5071 95.33 37.3669 94.7899 38.3569 94.3999C39.3469 94.0099 40.447 93.8101 41.627 93.8101C42.807 93.8101 43.907 94.0099 44.897 94.4099C45.887 94.8099 46.7573 95.36 47.4873 96.04C48.2073 96.72 48.7772 97.5299 49.1772 98.4399C49.5772 99.3599 49.7871 100.36 49.7871 101.41V101.47C49.7871 102.52 49.587 103.51 49.187 104.42C48.787 105.33 48.2271 106.14 47.5171 106.82C46.8171 107.5 45.9573 108.04 44.9673 108.43C43.9773 108.82 42.877 109.02 41.687 109.02Z" fill="#EC2024"/>
<path d="M70.4585 90.8501H63.9487C63.4487 90.8501 62.9884 91.0201 62.6284 91.3401C62.2584 91.6701 62.0586 92.1001 62.0586 92.5901V110.22C62.0586 110.71 62.2584 111.14 62.6284 111.47C62.9884 111.79 63.4487 111.96 63.9487 111.96H70.4585C72.2685 111.96 73.9588 111.69 75.4888 111.15C77.0188 110.61 78.3485 109.87 79.4585 108.93C80.5785 107.99 81.4486 106.86 82.0586 105.57C82.6686 104.28 82.9785 102.88 82.9785 101.4V101.34C82.9785 99.8601 82.6686 98.4599 82.0586 97.1799C81.4486 95.8999 80.5785 94.7801 79.4585 93.8401C78.3485 92.9001 77.0088 92.1599 75.4888 91.6299C73.9588 91.1199 72.2685 90.8501 70.4585 90.8501ZM65.8784 94.1399H70.4585C71.7785 94.1399 72.9886 94.33 74.0586 94.71C75.1186 95.09 76.0283 95.61 76.7583 96.26C77.4883 96.91 78.0585 97.6801 78.4585 98.5601C78.8585 99.4401 79.0586 100.4 79.0586 101.41V101.47C79.0586 102.5 78.8585 103.46 78.4585 104.33C78.0585 105.2 77.4883 105.96 76.7583 106.6C76.0283 107.24 75.1186 107.75 74.0586 108.12C72.9886 108.49 71.7785 108.68 70.4585 108.68H65.8784V94.1399Z" fill="#EC2024"/>
<path d="M104.129 90.8501H95.769C95.269 90.8501 94.8092 91.0201 94.4492 91.3401C94.0792 91.6701 93.8789 92.1001 93.8789 92.5901V110.36C93.8789 110.85 94.0792 111.28 94.4492 111.61C94.8092 111.93 95.269 112.1 95.769 112.1C96.289 112.1 96.7589 111.93 97.1289 111.61C97.4989 111.28 97.6992 110.85 97.6992 110.36V104.23H103.149L109.239 111.28C109.429 111.5 109.659 111.69 109.909 111.84C110.199 112.02 110.549 112.1 110.929 112.1C111.409 112.1 111.849 111.94 112.229 111.62C112.639 111.29 112.849 110.86 112.849 110.38C112.849 109.94 112.659 109.53 112.269 109.15L107.389 103.56C107.919 103.42 108.429 103.25 108.909 103.04C109.709 102.7 110.399 102.26 110.979 101.73C111.559 101.19 112.019 100.56 112.349 99.8501C112.679 99.1301 112.849 98.3099 112.849 97.4199V97.3601C112.849 95.6001 112.199 94.13 110.929 93C110.169 92.32 109.199 91.7799 108.049 91.3999C106.919 91.0399 105.609 90.8501 104.129 90.8501ZM97.6992 94.1399H103.939C105.599 94.1399 106.889 94.45 107.769 95.05C108.599 95.62 108.999 96.4 108.999 97.46V97.52C108.999 98.06 108.879 98.54 108.649 98.95C108.409 99.38 108.079 99.73 107.639 100.03C107.189 100.34 106.649 100.58 106.029 100.75C105.389 100.92 104.679 101.01 103.909 101.01H97.6992V94.1399Z" fill="#EC2024"/>
<path d="M134.298 90.6299H134.168C133.628 90.6299 133.169 90.76 132.809 91.01C132.479 91.24 132.209 91.56 131.989 91.97L122.929 109.63V109.64V109.65C122.789 109.96 122.719 110.23 122.719 110.49C122.719 110.94 122.908 111.34 123.258 111.66C123.598 111.96 124.039 112.13 124.519 112.13C125.349 112.13 125.988 111.73 126.318 111L128.469 106.72H139.898L142.048 110.94C142.198 111.25 142.418 111.52 142.708 111.74C143.038 111.99 143.428 112.12 143.878 112.12C144.378 112.12 144.838 111.95 145.188 111.64C145.548 111.32 145.739 110.9 145.739 110.43C145.739 110.21 145.668 109.96 145.528 109.63L145.519 109.61L145.508 109.59L136.458 91.97C136.048 91.09 135.308 90.6299 134.298 90.6299ZM130.059 103.45L134.168 95.3L138.278 103.45H130.059Z" fill="#EC2024"/>
<path d="M179.687 90.71C178.837 90.71 178.197 91.16 177.867 91.99L172.307 106.25L167.066 92V91.99V91.98C166.736 91.16 166.077 90.7 165.217 90.7H165.057C164.557 90.7 164.137 90.8301 163.827 91.1001C163.557 91.3301 163.347 91.62 163.207 91.98V91.99V92L157.967 106.25L152.437 92.05C152.287 91.68 152.056 91.3799 151.756 91.1299C151.416 90.8499 150.997 90.71 150.517 90.71C149.997 90.71 149.516 90.89 149.146 91.22C148.766 91.56 148.566 91.99 148.566 92.46C148.566 92.71 148.627 92.96 148.747 93.21L155.876 110.86C156.176 111.75 156.856 112.24 157.796 112.24H157.987C158.467 112.24 158.877 112.1 159.227 111.82C159.537 111.57 159.767 111.25 159.907 110.86L165.066 97.1799L170.256 110.86C170.396 111.24 170.627 111.56 170.937 111.81C171.277 112.09 171.697 112.23 172.177 112.23H172.367C172.847 112.23 173.256 112.09 173.606 111.81C173.916 111.56 174.147 111.24 174.287 110.86L181.427 93.1899C181.477 93.0899 181.516 92.9899 181.546 92.8899C181.606 92.7399 181.626 92.5799 181.626 92.4199C181.626 91.9699 181.426 91.55 181.046 91.21C180.646 90.89 180.187 90.71 179.687 90.71Z" fill="#EC2024"/>
<path d="M42.5562 117.5V122.1C42.5562 122.76 42.4559 123.27 42.2559 123.64C41.8959 124.3 41.206 124.64 40.186 124.64C39.736 124.64 39.3659 124.56 39.0659 124.4C38.5959 124.15 38.3259 123.73 38.2559 123.15H39.106C39.156 123.41 39.2761 123.61 39.4761 123.75C39.6761 123.89 39.9361 123.96 40.2461 123.96C40.8661 123.96 41.2859 123.75 41.5059 123.33C41.6359 123.08 41.6963 122.72 41.6963 122.23V121.96L41.6763 122C41.5463 122.21 41.376 122.37 41.166 122.48C40.916 122.62 40.6359 122.69 40.3159 122.69C39.5359 122.69 38.9459 122.37 38.5459 121.74C38.2359 121.24 38.0859 120.62 38.0859 119.87C38.0859 119.15 38.2763 118.55 38.6562 118.08C39.0362 117.61 39.5463 117.38 40.1963 117.38C40.6063 117.38 40.9461 117.48 41.2261 117.69C41.3861 117.81 41.5563 117.99 41.7163 118.22L41.7363 117.51H42.5562V117.5ZM38.9863 119.99C38.9863 120.57 39.1059 121.04 39.3359 121.4C39.5659 121.75 39.9062 121.93 40.3462 121.93C40.7062 121.93 41.0061 121.82 41.2461 121.59C41.5761 121.29 41.7363 120.84 41.7363 120.24C41.7363 119.67 41.6661 119.21 41.5161 118.88C41.2861 118.37 40.9062 118.11 40.3662 118.11C39.7962 118.11 39.396 118.34 39.186 118.81C39.056 119.1 38.9863 119.49 38.9863 119.99Z" fill="white"/>
<path d="M46.936 119.61V122.53H46.0859V117.51H46.8862V118.35C47.0762 118.04 47.2859 117.8 47.5059 117.64C47.7559 117.46 48.0259 117.37 48.3359 117.37C48.4359 117.37 48.5059 117.38 48.5459 117.39V118.27H48.2363C47.8563 118.27 47.5359 118.4 47.2959 118.65C47.0559 118.9 46.936 119.23 46.936 119.61Z" fill="white"/>
<path d="M54.8447 120.95H55.6948C55.6648 121.14 55.5846 121.35 55.4746 121.55C55.3046 121.87 55.0747 122.12 54.7847 122.31C54.6147 122.43 54.4547 122.51 54.3247 122.55C54.0747 122.63 53.7746 122.68 53.4146 122.68C52.7146 122.68 52.1644 122.45 51.7544 121.98C51.3444 121.51 51.1445 120.9 51.1445 120.15C51.1445 119.32 51.3346 118.66 51.7246 118.17C52.1546 117.63 52.7745 117.36 53.5845 117.36C54.2945 117.36 54.8346 117.62 55.2046 118.14C55.5746 118.66 55.7544 119.37 55.7544 120.28H52.0444C52.0444 120.81 52.1646 121.22 52.4146 121.5C52.6646 121.78 53.0346 121.93 53.5146 121.93C53.8946 121.93 54.2048 121.81 54.4648 121.58C54.6948 121.39 54.8147 121.18 54.8447 120.95ZM52.0444 119.61H54.8745C54.8745 119.18 54.7647 118.84 54.5547 118.58C54.3047 118.27 53.9446 118.12 53.4546 118.12C53.0746 118.12 52.7346 118.27 52.4546 118.57C52.1846 118.87 52.0444 119.21 52.0444 119.61Z" fill="white"/>
<path d="M59.7671 119.04H58.9673C58.9673 118.46 59.1569 118.03 59.5469 117.75C59.8969 117.49 60.4071 117.37 61.0571 117.37C61.4671 117.37 61.837 117.44 62.147 117.58C62.677 117.82 62.937 118.21 62.937 118.77V121.65C62.937 121.85 63.0371 121.95 63.2271 121.95L63.4971 121.91V122.52C63.4271 122.54 63.3571 122.56 63.2671 122.58C63.1871 122.6 63.1069 122.61 63.0269 122.61C62.6869 122.61 62.4471 122.53 62.3071 122.37C62.1971 122.25 62.1372 122.07 62.1372 121.85C61.9072 122.08 61.6873 122.26 61.4673 122.38C61.1173 122.57 60.7269 122.67 60.2969 122.67C59.8269 122.67 59.447 122.54 59.147 122.27C58.847 122 58.707 121.65 58.707 121.21C58.707 120.87 58.7873 120.58 58.9473 120.34C59.2073 119.95 59.6368 119.72 60.2568 119.64L61.6572 119.47C61.7972 119.46 61.897 119.42 61.957 119.35C62.057 119.25 62.1069 119.09 62.1069 118.87C62.1069 118.32 61.7172 118.05 60.9272 118.05C60.5072 118.05 60.1968 118.16 60.0068 118.39C59.8968 118.54 59.8171 118.75 59.7671 119.04ZM62.0972 120.78V119.96C62.0272 120.03 61.8973 120.08 61.7173 120.12C61.5373 120.16 61.2169 120.21 60.7769 120.27C60.3269 120.33 60.0269 120.42 59.8569 120.56C59.6969 120.69 59.6172 120.87 59.6172 121.09C59.6172 121.38 59.6869 121.6 59.8369 121.75C59.9869 121.9 60.2171 121.97 60.5371 121.97C60.9471 121.97 61.317 121.86 61.627 121.63C61.937 121.4 62.0972 121.11 62.0972 120.78Z" fill="white"/>
<path d="M68.3755 118.21H67.5654V121.47C67.5654 121.64 67.6256 121.75 67.7456 121.8C67.8156 121.83 67.9254 121.85 68.0654 121.85H68.3755V122.52L67.7358 122.59C67.3458 122.59 67.0658 122.49 66.9058 122.28C66.7758 122.11 66.7158 121.86 66.7158 121.5V118.2H66.0156V117.49H66.7158V116.09H67.5654V117.49H68.3755V118.21Z" fill="white"/>
<path d="M79.2446 117.5H80.1948C79.8948 118.32 79.5947 119.14 79.3047 119.94C79.0147 120.75 78.6947 121.57 78.3647 122.43C77.9547 123.44 77.6548 124.05 77.4648 124.26C77.2748 124.47 76.9047 124.57 76.3647 124.57C76.3147 124.57 76.2649 124.57 76.2349 124.56C76.1349 124.53 76.0646 124.51 76.0146 124.49V123.72C76.0646 123.74 76.1349 123.76 76.2349 123.78C76.3249 123.8 76.4246 123.82 76.5146 123.82C76.7246 123.82 76.8846 123.76 76.9746 123.64C77.0646 123.52 77.2146 123.19 77.4346 122.65L75.5547 117.49H76.5244L77.8647 121.57L79.2446 117.5Z" fill="white"/>
<path d="M82.875 120.01C82.875 119.29 83.0651 118.69 83.4351 118.2C83.8651 117.64 84.4553 117.37 85.2153 117.37C85.9753 117.37 86.5749 117.65 87.0049 118.2C87.3849 118.69 87.5752 119.3 87.5752 120.01C87.5752 120.72 87.3849 121.32 87.0049 121.81C86.5749 122.37 85.9753 122.66 85.2153 122.66C84.4653 122.66 83.8753 122.38 83.4453 121.82C83.0653 121.33 82.875 120.73 82.875 120.01ZM83.7451 120.01C83.7451 120.48 83.8351 120.89 84.0151 121.22C84.2751 121.69 84.6753 121.93 85.2153 121.93C85.7553 121.93 86.1453 121.7 86.4053 121.23C86.5953 120.89 86.6851 120.48 86.6851 120.01C86.6851 119.54 86.595 119.14 86.415 118.8C86.155 118.33 85.7553 118.09 85.2153 118.09C84.6753 118.09 84.2849 118.32 84.0249 118.79C83.8349 119.14 83.7451 119.54 83.7451 120.01Z" fill="white"/>
<path d="M94.7969 122.53H93.9771V121.8L93.957 121.78C93.777 122.08 93.5571 122.31 93.3071 122.46C93.0571 122.61 92.7372 122.68 92.3472 122.68C91.9072 122.68 91.5468 122.57 91.2568 122.35C90.8868 122.08 90.707 121.66 90.707 121.1V117.49H91.5571V120.83C91.5571 121.22 91.6469 121.5 91.8369 121.68C91.9969 121.84 92.2369 121.92 92.5469 121.92C93.0369 121.92 93.397 121.73 93.647 121.36C93.847 121.06 93.9473 120.69 93.9473 120.25V117.49H94.8071V122.53H94.7969Z" fill="white"/>
<path d="M99.2754 119.61V122.53H98.4258V117.51H99.2158V118.35C99.4058 118.04 99.6154 117.8 99.8354 117.64C100.085 117.46 100.356 117.37 100.666 117.37C100.766 117.37 100.845 117.38 100.875 117.39V118.27H100.565C100.175 118.27 99.8655 118.4 99.6255 118.65C99.3955 118.91 99.2754 119.23 99.2754 119.61Z" fill="white"/>
<path d="M112.727 115.64V122.52H111.917V121.83C111.747 122.14 111.517 122.36 111.227 122.5C110.997 122.62 110.747 122.67 110.457 122.67C109.677 122.67 109.087 122.35 108.687 121.72C108.377 121.22 108.227 120.6 108.227 119.85C108.227 119.12 108.417 118.52 108.787 118.05C109.157 117.58 109.676 117.35 110.336 117.35C110.736 117.35 111.076 117.45 111.356 117.66C111.496 117.76 111.666 117.94 111.856 118.19L111.876 118.13V115.62H112.727V115.64ZM109.097 119.99C109.097 120.57 109.217 121.03 109.447 121.39C109.687 121.75 110.027 121.93 110.467 121.93C110.817 121.93 111.106 121.82 111.356 121.59C111.686 121.3 111.847 120.85 111.847 120.24C111.847 119.66 111.777 119.21 111.637 118.88C111.417 118.37 111.037 118.11 110.487 118.11C109.917 118.11 109.516 118.34 109.296 118.81C109.166 119.1 109.097 119.5 109.097 119.99Z" fill="white"/>
<path d="M117.108 119.61V122.53H116.258V117.51H117.048V118.35C117.238 118.04 117.448 117.8 117.668 117.64C117.918 117.46 118.188 117.37 118.498 117.37C118.598 117.37 118.678 117.38 118.708 117.39V118.27H118.398C118.008 118.27 117.698 118.4 117.458 118.65C117.228 118.91 117.108 119.23 117.108 119.61Z" fill="white"/>
<path d="M125.004 120.95H125.854C125.824 121.14 125.745 121.35 125.635 121.55C125.465 121.87 125.235 122.12 124.945 122.31C124.775 122.43 124.615 122.51 124.485 122.55C124.235 122.63 123.935 122.68 123.575 122.68C122.875 122.68 122.325 122.45 121.915 121.98C121.505 121.51 121.305 120.9 121.305 120.15C121.305 119.32 121.495 118.66 121.885 118.17C122.315 117.63 122.935 117.36 123.745 117.36C124.455 117.36 124.995 117.62 125.365 118.14C125.735 118.66 125.915 119.37 125.915 120.28H122.205C122.205 120.81 122.325 121.22 122.575 121.5C122.825 121.78 123.195 121.93 123.675 121.93C124.055 121.93 124.365 121.81 124.625 121.58C124.865 121.39 124.984 121.18 125.004 120.95ZM122.215 119.61H125.044C125.044 119.18 124.935 118.84 124.725 118.58C124.475 118.27 124.115 118.12 123.625 118.12C123.245 118.12 122.905 118.27 122.625 118.57C122.355 118.87 122.215 119.21 122.215 119.61Z" fill="white"/>
<path d="M129.937 119.04H129.146C129.146 118.46 129.337 118.03 129.727 117.75C130.077 117.49 130.587 117.37 131.237 117.37C131.647 117.37 132.017 117.44 132.327 117.58C132.857 117.82 133.117 118.21 133.117 118.77V121.65C133.117 121.85 133.217 121.95 133.407 121.95L133.677 121.91V122.52C133.607 122.54 133.537 122.56 133.457 122.58C133.377 122.6 133.297 122.61 133.217 122.61C132.877 122.61 132.637 122.53 132.497 122.37C132.387 122.25 132.327 122.07 132.327 121.85C132.097 122.08 131.877 122.26 131.657 122.38C131.307 122.57 130.917 122.67 130.487 122.67C130.017 122.67 129.636 122.54 129.336 122.27C129.036 122 128.887 121.65 128.887 121.21C128.887 120.87 128.966 120.58 129.126 120.34C129.386 119.95 129.817 119.72 130.437 119.64L131.836 119.47C131.976 119.46 132.077 119.42 132.137 119.35C132.237 119.25 132.287 119.09 132.287 118.87C132.287 118.32 131.896 118.05 131.106 118.05C130.686 118.05 130.377 118.16 130.187 118.39C130.057 118.54 129.977 118.75 129.937 119.04ZM132.256 120.78V119.96C132.186 120.03 132.066 120.08 131.876 120.12C131.696 120.16 131.377 120.21 130.937 120.27C130.487 120.33 130.187 120.42 130.017 120.56C129.857 120.69 129.776 120.87 129.776 121.09C129.776 121.38 129.847 121.6 129.997 121.75C130.147 121.9 130.377 121.97 130.697 121.97C131.107 121.97 131.477 121.86 131.787 121.63C132.097 121.4 132.256 121.11 132.256 120.78Z" fill="white"/>
<path d="M136.688 122.53V117.51H137.478V118.22C137.658 117.99 137.828 117.82 137.998 117.7C138.298 117.48 138.648 117.37 139.038 117.37C139.338 117.37 139.598 117.43 139.808 117.55C140.018 117.67 140.218 117.88 140.388 118.18C140.648 117.9 140.857 117.71 141.027 117.6C141.277 117.45 141.588 117.37 141.938 117.37C142.327 117.37 142.658 117.47 142.928 117.68C143.318 117.97 143.507 118.43 143.507 119.06V122.53H142.658V119.29C142.658 118.91 142.598 118.63 142.468 118.45C142.318 118.23 142.058 118.12 141.708 118.12C141.358 118.12 141.067 118.25 140.857 118.52C140.637 118.79 140.527 119.1 140.527 119.47V122.54H139.678V119.07C139.678 118.82 139.617 118.61 139.507 118.45C139.367 118.24 139.157 118.13 138.877 118.13C138.547 118.13 138.268 118.24 138.038 118.45C137.708 118.74 137.538 119.19 137.538 119.8V122.54H136.688V122.53Z" fill="white"/>
<path d="M116.036 62.7218C125.568 58.7736 130.094 47.8461 126.146 38.3145C122.198 28.7829 111.27 24.2569 101.739 28.205C92.2071 32.1532 87.6811 43.0806 91.6293 52.6121C95.5775 62.1437 106.505 66.67 116.036 62.7218Z" fill="#026AD1"/>
<path d="M88.6069 30.27C88.4669 30.27 88.3169 30.1701 88.2969 29.8701V29.8501V29.8401C88.3969 28.5101 88.6969 26.0401 89.5869 24.3601C90.4669 22.7101 91.6368 22.46 92.2568 22.46C92.3868 22.46 92.5172 22.47 92.6372 22.49C93.9972 22.63 94.997 23.8099 94.917 25.1699C94.897 25.4899 94.817 25.8001 94.687 26.1001C94.247 27.2501 92.727 27.7499 91.397 28.1899C91.007 28.3199 90.6271 28.4401 90.3071 28.5701C89.7571 28.7901 89.3071 29.23 89.0571 29.78C88.9271 30.07 88.7969 30.27 88.6069 30.27Z" fill="white"/>
<path d="M85.82 22.2715C86.5599 19.138 84.6197 15.9979 81.4861 15.258C78.3526 14.518 75.2125 16.4585 74.4726 19.592C73.7326 22.7256 75.6731 25.8657 78.8066 26.6056C81.9402 27.3455 85.0801 25.405 85.82 22.2715Z" fill="#EC2024"/>
<path d="M68.5874 36.3701C65.2474 36.3701 62.5273 39.0899 62.5273 42.4299C62.5273 45.7699 65.2474 48.49 68.5874 48.49C71.9274 48.49 74.6475 45.7699 74.6475 42.4299C74.6475 39.0899 71.9274 36.3701 68.5874 36.3701Z" fill="#FDCD07"/>
<path d="M85.3343 64.5584C85.8501 61.3801 83.6873 58.3846 80.5036 57.8679C77.3198 57.3512 74.3209 59.509 73.8051 62.6873C73.2893 65.8656 75.4519 68.861 78.6356 69.3777C81.8193 69.8944 84.8185 67.7367 85.3343 64.5584Z" fill="#026AD1"/>
<path d="M91.0674 81.5701C68.7574 81.5701 50.5977 63.4201 50.5977 41.1001C50.5977 18.7801 68.7474 0.629883 91.0674 0.629883C104.987 0.629883 117.768 7.64992 125.248 19.4199L125.257 19.4299C125.857 20.4699 126.157 22.46 124.527 23.72C123.957 24.16 123.227 24.3799 122.377 24.3799C121.707 24.3799 121.118 24.2499 120.728 24.1299L120.698 24.1899L120.317 23.99L119.988 23.8601V23.8201C116.568 22.0601 112.717 21.1299 108.837 21.1299C105.357 21.1299 101.838 21.8901 98.6875 23.3401C98.3975 23.4701 98.0976 23.54 97.7876 23.54C97.0076 23.54 96.2877 23.1099 95.9277 22.4299L95.9077 22.3899C95.6377 21.8799 95.5776 21.27 95.7676 20.71C95.9576 20.16 96.3477 19.72 96.8677 19.48C100.598 17.77 104.738 16.8701 108.848 16.8701C112.578 16.8701 116.338 17.62 119.788 19.03C112.968 10.16 102.317 4.88989 91.0874 4.88989C71.1274 4.88989 54.8877 21.1301 54.8877 41.0901C54.8877 61.0501 71.1274 77.29 91.0874 77.29C101.007 77.29 110.468 73.2301 117.268 66.1001C114.608 67.1901 111.718 67.76 108.848 67.76C96.6177 67.76 86.6577 57.8101 86.6577 45.5701C86.6577 33.3401 96.6077 23.3799 108.848 23.3799C121.078 23.3799 131.038 33.3301 131.038 45.5701C131.038 46.7301 130.947 47.9201 130.757 49.0901C130.747 49.2201 130.738 49.36 130.718 49.51C130.248 53.27 128.237 57.4501 127.087 59.6001C126.487 60.7501 125.858 61.8601 125.218 62.8701C117.688 74.5901 104.937 81.5701 91.0674 81.5701ZM108.828 27.6799C98.9476 27.6799 90.9077 35.7201 90.9077 45.6001C90.9077 55.4801 98.9476 63.52 108.828 63.52C117.828 63.52 125.407 56.86 126.587 47.98H108.647C107.417 47.98 106.417 46.98 106.417 45.75C106.417 44.52 107.417 43.52 108.647 43.52H126.618C125.578 34.61 117.818 27.6799 108.828 27.6799Z" fill="white"/>
</svg>
