<svg width="97" height="79" viewBox="0 0 97 79" fill="none" xmlns="http://www.w3.org/2000/svg">
<path d="M7.34937 57.9199C6.30937 57.9199 5.34927 58.11 4.49927 58.48C3.64927 58.85 2.90932 59.3597 2.29932 59.9897C1.68932 60.6197 1.20926 61.3597 0.869263 62.1797C0.529263 62.9997 0.359375 63.88 0.359375 64.79V64.8301C0.359375 65.7701 0.519365 66.6597 0.849365 67.4897C1.16937 68.3197 1.64929 69.0499 2.26929 69.6699C2.88929 70.2899 3.63928 70.7799 4.50928 71.1299C5.36928 71.4799 6.35934 71.6597 7.44934 71.6597C8.46934 71.6597 9.40928 71.4999 10.2593 71.1899C11.0893 70.8799 11.8193 70.5101 12.4493 70.0801C12.8893 69.8001 13.1293 69.3899 13.1293 68.8999V65.0801C13.1293 64.7701 13.0093 64.5 12.7893 64.29C12.5793 64.09 12.3093 63.98 12.0093 63.98H7.76929C7.49929 63.98 7.24931 64.08 7.03931 64.27C6.82931 64.47 6.71936 64.72 6.71936 65C6.71936 65.27 6.82931 65.5197 7.03931 65.7197C7.23931 65.9097 7.48929 66.0098 7.76929 66.0098H10.9293V68.5498C10.5393 68.8198 10.0593 69.07 9.49927 69.27C8.87927 69.5 8.20927 69.6099 7.49927 69.6099C6.74927 69.6099 6.06937 69.4897 5.47937 69.2397C4.88937 68.9997 4.37936 68.66 3.96936 68.23C3.55936 67.8 3.22928 67.29 3.00928 66.71C2.77928 66.12 2.66931 65.47 2.66931 64.77V64.73C2.66931 64.09 2.78929 63.4696 3.01929 62.8896C3.24929 62.3096 3.56937 61.7996 3.97937 61.3696C4.37937 60.9396 4.86933 60.6001 5.43933 60.3501C5.99933 60.1001 6.62932 59.9697 7.29932 59.9697C8.07932 59.9697 8.73928 60.0698 9.25928 60.2598C9.78928 60.4598 10.2794 60.72 10.7294 61.04C10.9594 61.21 11.1893 61.29 11.4293 61.29C11.7293 61.29 11.9994 61.18 12.2094 60.98C12.4294 60.77 12.5493 60.4999 12.5493 60.1899C12.5493 59.9899 12.4993 59.8099 12.4093 59.6499C12.3293 59.5099 12.2193 59.3898 12.0793 59.2998C11.4493 58.8698 10.7693 58.52 10.0393 58.27C9.29931 58.05 8.39937 57.9199 7.34937 57.9199Z" fill="#EA2427"/>
<path d="M23.3386 54.4297H22.9985C22.7485 54.4297 22.5386 54.4901 22.3586 54.6001C22.2086 54.6901 22.0786 54.81 21.9486 54.96L20.6285 56.5L20.6185 56.52L20.6086 56.54C20.4786 56.74 20.4086 56.9001 20.4086 57.0601C20.4086 57.3501 20.5985 57.6899 21.1285 57.6899C21.3385 57.6899 21.5386 57.6599 21.7086 57.6099C21.8886 57.5499 22.0786 57.4398 22.2886 57.2598L23.1486 56.54L24.0085 57.2598C24.2185 57.4398 24.4086 57.5599 24.5986 57.6099C24.7686 57.6599 24.9686 57.6899 25.1786 57.6899C25.7286 57.6899 25.9186 57.3501 25.9186 57.0601C25.9186 56.9101 25.8586 56.75 25.7186 56.54L25.7086 56.52L25.6886 56.5L24.3685 54.96C24.2485 54.81 24.1086 54.6901 23.9586 54.6001C23.8086 54.4901 23.5886 54.4297 23.3386 54.4297ZM23.1886 57.9199C22.1386 57.9199 21.1586 58.11 20.2886 58.48C19.4186 58.85 18.6586 59.35 18.0386 59.98C17.4186 60.6 16.9286 61.3399 16.5786 62.1699C16.2386 62.9999 16.0586 63.88 16.0586 64.79V64.8301C16.0586 65.7401 16.2286 66.6099 16.5686 67.4399C16.9086 68.2699 17.3886 68.9999 18.0186 69.6299C18.6386 70.2499 19.3985 70.7496 20.2585 71.1196C21.1285 71.4796 22.0986 71.6699 23.1486 71.6699C24.1986 71.6699 25.1786 71.4799 26.0486 71.1099C26.9186 70.7399 27.6786 70.2399 28.2986 69.6099C28.9186 68.9899 29.4085 68.2499 29.7585 67.4199C30.0985 66.5899 30.2786 65.7098 30.2786 64.7998V64.7598C30.2786 63.8498 30.1086 62.9799 29.7686 62.1499C29.4286 61.3199 28.9386 60.59 28.3186 59.96C27.6986 59.34 26.9386 58.8397 26.0786 58.4697C25.2086 58.1097 24.2386 57.9199 23.1886 57.9199ZM23.1886 69.5898C22.4886 69.5898 21.8385 69.46 21.2585 69.21C20.6685 68.96 20.1586 68.6097 19.7286 68.1797C19.2986 67.7497 18.9686 67.2399 18.7286 66.6699C18.4886 66.0899 18.3685 65.4598 18.3685 64.7998V64.7598C18.3685 64.0998 18.4886 63.4699 18.7286 62.8999C18.9686 62.3299 19.2986 61.8196 19.7186 61.3896C20.1286 60.9596 20.6386 60.6196 21.2186 60.3696C21.7986 60.1196 22.4486 60 23.1486 60C23.8486 60 24.4986 60.1299 25.0786 60.3799C25.6686 60.6299 26.1786 60.9797 26.6086 61.4097C27.0386 61.8397 27.3686 62.3499 27.6086 62.9199C27.8486 63.4999 27.9686 64.13 27.9686 64.79V64.8301C27.9686 65.4901 27.8486 66.1199 27.6086 66.6899C27.3686 67.2599 27.0385 67.7697 26.6285 68.1997C26.2185 68.6297 25.7085 68.9697 25.1285 69.2197C24.5385 69.4597 23.8886 69.5898 23.1886 69.5898Z" fill="#EA2427"/>
<path d="M38.5576 58.1396H34.7177C34.4177 58.1396 34.1476 58.2497 33.9376 58.4497C33.7176 58.6597 33.5977 58.9297 33.5977 59.2397V70.3501C33.5977 70.6601 33.7176 70.9296 33.9376 71.1396C34.1476 71.3396 34.4177 71.4497 34.7177 71.4497H38.5576C39.6276 71.4497 40.6276 71.2799 41.5276 70.9399C42.4276 70.5999 43.2176 70.13 43.8676 69.54C44.5276 68.95 45.0376 68.2299 45.3976 67.4199C45.7576 66.6099 45.9376 65.73 45.9376 64.79V64.75C45.9376 63.82 45.7576 62.9399 45.3976 62.1299C45.0376 61.3299 44.5176 60.62 43.8676 60.02C43.2076 59.43 42.4276 58.9599 41.5176 58.6299C40.6176 58.3099 39.6276 58.1396 38.5576 58.1396ZM35.8477 60.21H38.5576C39.3376 60.21 40.0476 60.3298 40.6776 60.5698C41.3076 60.8098 41.8376 61.1398 42.2676 61.5498C42.6976 61.9598 43.0376 62.45 43.2676 63C43.5076 63.55 43.6276 64.16 43.6276 64.79V64.8301C43.6276 65.4801 43.5076 66.0799 43.2776 66.6299C43.0376 67.1799 42.7076 67.6601 42.2776 68.0601C41.8476 68.4601 41.3076 68.79 40.6876 69.02C40.0576 69.25 39.3376 69.3696 38.5576 69.3696H35.8477V60.21Z" fill="#EA2427"/>
<path d="M55.3196 58.1396H50.3895C50.0895 58.1396 49.8196 58.2497 49.6096 58.4497C49.3896 58.6597 49.2695 58.9297 49.2695 59.2397V70.4399C49.2695 70.7499 49.3896 71.02 49.6096 71.23C49.8196 71.43 50.0895 71.54 50.3895 71.54C50.6995 71.54 50.9796 71.43 51.1896 71.23C51.4096 71.02 51.5295 70.7499 51.5295 70.4399V66.5801H54.7495L58.3396 71.02C58.4496 71.16 58.5896 71.2796 58.7296 71.3696C58.8996 71.4796 59.1096 71.54 59.3296 71.54C59.6096 71.54 59.8696 71.4397 60.0996 71.2397C60.3396 71.0297 60.4696 70.76 60.4696 70.46C60.4696 70.18 60.3595 69.9199 60.1295 69.6899L57.2495 66.1699C57.5595 66.0799 57.8595 65.9701 58.1495 65.8501C58.6195 65.6401 59.0295 65.36 59.3695 65.02C59.7095 64.68 59.9796 64.2801 60.1796 63.8301C60.3796 63.3801 60.4796 62.8598 60.4796 62.2998V62.2598C60.4796 61.1498 60.0996 60.2298 59.3396 59.5098C58.8896 59.0798 58.3195 58.74 57.6395 58.5C56.9595 58.26 56.1796 58.1396 55.3196 58.1396ZM51.5195 60.21H55.1996C56.1796 60.21 56.9396 60.3998 57.4596 60.7798C57.9496 61.1398 58.1896 61.6298 58.1896 62.2998V62.3398C58.1896 62.6798 58.1196 62.9797 57.9796 63.2397C57.8396 63.5097 57.6395 63.7299 57.3895 63.9199C57.1295 64.1099 56.8096 64.2696 56.4396 64.3696C56.0596 64.4796 55.6396 64.5298 55.1896 64.5298H51.5195V60.21Z" fill="#EA2427"/>
<path d="M69.7579 57.9897H69.678C69.358 57.9897 69.0879 58.07 68.8779 58.23C68.6879 58.37 68.5279 58.5801 68.3979 58.8301L63.048 69.96V69.9697V69.98C62.958 70.17 62.918 70.3498 62.918 70.5098C62.918 70.7898 63.028 71.0497 63.238 71.2397C63.438 71.4297 63.698 71.5298 63.978 71.5298C64.468 71.5298 64.848 71.2798 65.038 70.8198L66.308 68.1299H73.058L74.328 70.79C74.418 70.99 74.548 71.1598 74.718 71.2998C74.908 71.4598 75.148 71.54 75.408 71.54C75.708 71.54 75.968 71.4397 76.178 71.2397C76.388 71.0397 76.5079 70.77 76.5079 70.48C76.5079 70.34 76.4679 70.18 76.3879 69.98V69.9697L76.3779 69.96L71.038 58.8599C70.788 58.2899 70.3479 57.9897 69.7579 57.9897ZM67.2579 66.0698L69.688 60.9297L72.1179 66.0698H67.2579Z" fill="#EA2427"/>
<path d="M95.4984 58.0498C94.9984 58.0498 94.6185 58.3401 94.4285 58.8501L91.1484 67.8398L88.0585 58.8599C87.8685 58.3399 87.4785 58.0601 86.9685 58.0601H86.8784C86.5784 58.0601 86.3384 58.1401 86.1484 58.3101C85.9884 58.4501 85.8684 58.6399 85.7784 58.8599L82.6885 67.8398L79.4285 58.8896C79.3385 58.6596 79.2084 58.4701 79.0284 58.3101C78.8284 58.1401 78.5785 58.0498 78.2985 58.0498C77.9885 58.0498 77.7085 58.1596 77.4885 58.3696C77.2585 58.5796 77.1484 58.8499 77.1484 59.1499C77.1484 59.3099 77.1884 59.4696 77.2484 59.6196L81.4585 70.7397C81.6385 71.2997 82.0385 71.6099 82.5885 71.6099H82.6985C82.9785 71.6099 83.2285 71.5201 83.4285 71.3501C83.6085 71.1901 83.7485 70.99 83.8285 70.75L86.8784 62.1299L89.9485 70.75C90.0285 70.99 90.1685 71.1901 90.3485 71.3501C90.5485 71.5201 90.7985 71.6099 91.0785 71.6099H91.1885C91.4685 71.6099 91.7185 71.5201 91.9185 71.3501C92.0985 71.1901 92.2385 70.99 92.3185 70.75L96.5284 59.6196C96.5584 59.5596 96.5785 59.4897 96.5985 59.4297C96.6285 59.3397 96.6484 59.2399 96.6484 59.1299C96.6484 58.8499 96.5285 58.5796 96.3085 58.3696C96.0685 58.1596 95.7984 58.0498 95.4984 58.0498Z" fill="#EA2427"/>
<path d="M20.5905 74.8398V77.5298C20.5905 77.9198 20.5304 78.2197 20.4204 78.4297C20.2104 78.8197 19.8004 79.0098 19.2104 79.0098C18.9504 79.0098 18.7304 78.9596 18.5504 78.8696C18.2804 78.7196 18.1204 78.4796 18.0704 78.1396H18.5704C18.6004 78.2896 18.6704 78.4097 18.7904 78.4897C18.9104 78.5697 19.0605 78.6099 19.2405 78.6099C19.6005 78.6099 19.8505 78.4897 19.9805 78.2397C20.0605 78.0897 20.0905 77.8801 20.0905 77.6001V77.4399L20.0804 77.46C20.0004 77.58 19.9104 77.6697 19.7804 77.7397C19.6404 77.8197 19.4704 77.8599 19.2804 77.8599C18.8204 77.8599 18.4804 77.6698 18.2504 77.2998C18.0704 77.0098 17.9805 76.64 17.9805 76.21C17.9805 75.79 18.0904 75.4397 18.3104 75.1597C18.5304 74.8897 18.8304 74.75 19.2104 74.75C19.4504 74.75 19.6504 74.8097 19.8104 74.9297C19.9104 74.9997 20.0005 75.1097 20.1005 75.2397L20.1105 74.8301H20.5905V74.8398ZM18.5004 76.2998C18.5004 76.6398 18.5704 76.9196 18.7004 77.1196C18.8304 77.3296 19.0304 77.4297 19.2904 77.4297C19.5004 77.4297 19.6804 77.36 19.8204 77.23C20.0104 77.05 20.1105 76.7899 20.1105 76.4399C20.1105 76.1099 20.0705 75.8396 19.9805 75.6396C19.8505 75.3396 19.6204 75.1899 19.3004 75.1899C18.9604 75.1899 18.7305 75.3301 18.6105 75.6001C18.5405 75.7801 18.5004 76.0098 18.5004 76.2998Z" fill="white"/>
<path d="M23.1484 76.0801V77.79H22.6484V74.8501H23.1184V75.3398C23.2284 75.1598 23.3485 75.0197 23.4785 74.9297C23.6185 74.8197 23.7885 74.77 23.9685 74.77C24.0285 74.77 24.0685 74.7698 24.0885 74.7798V75.2998H23.9084C23.6784 75.2998 23.4985 75.37 23.3585 75.52C23.2185 75.67 23.1484 75.8501 23.1484 76.0801Z" fill="white"/>
<path d="M27.7811 76.8599H28.2811C28.2611 76.9699 28.2211 77.09 28.1511 77.21C28.0511 77.4 27.9111 77.5499 27.7511 77.6499C27.6511 77.7199 27.5612 77.76 27.4812 77.79C27.3412 77.84 27.1612 77.8599 26.9512 77.8599C26.5412 77.8599 26.2212 77.7197 25.9812 77.4497C25.7412 77.1697 25.6211 76.8199 25.6211 76.3799C25.6211 75.8899 25.7312 75.5097 25.9612 75.2197C26.2112 74.9097 26.5711 74.75 27.0511 74.75C27.4711 74.75 27.7811 74.9 28.0011 75.21C28.2211 75.52 28.3212 75.93 28.3212 76.46H26.1511C26.1511 76.77 26.2211 77.0097 26.3711 77.1797C26.5211 77.3497 26.7311 77.4297 27.0211 77.4297C27.2411 77.4297 27.4212 77.36 27.5712 77.23C27.6912 77.12 27.7611 76.9899 27.7811 76.8599ZM26.1411 76.0801H27.8011C27.8011 75.8301 27.7412 75.6297 27.6112 75.4697C27.4712 75.2897 27.2512 75.1997 26.9712 75.1997C26.7412 75.1997 26.5511 75.29 26.3911 75.46C26.2311 75.64 26.1411 75.8401 26.1411 76.0801Z" fill="white"/>
<path d="M30.6586 75.7397H30.1886C30.1886 75.3997 30.2986 75.1497 30.5286 74.9897C30.7386 74.8397 31.0286 74.77 31.4086 74.77C31.6486 74.77 31.8586 74.8096 32.0486 74.8896C32.3586 75.0296 32.5186 75.2598 32.5186 75.5898V77.2798C32.5186 77.3998 32.5786 77.46 32.6886 77.46L32.8486 77.4399V77.7998C32.8086 77.8098 32.7686 77.8198 32.7186 77.8398C32.6686 77.8498 32.6286 77.8599 32.5786 77.8599C32.3786 77.8599 32.2386 77.8097 32.1586 77.7197C32.0986 77.6497 32.0586 77.5497 32.0586 77.4097C31.9286 77.5497 31.7986 77.6497 31.6686 77.7197C31.4686 77.8297 31.2386 77.8896 30.9886 77.8896C30.7186 77.8896 30.4886 77.8099 30.3186 77.6499C30.1486 77.4899 30.0586 77.2898 30.0586 77.0298C30.0586 76.8298 30.1086 76.66 30.1986 76.52C30.3486 76.29 30.6086 76.1599 30.9586 76.1099L31.7786 76.0098C31.8586 75.9998 31.9186 75.9799 31.9586 75.9399C32.0186 75.8799 32.0486 75.7897 32.0486 75.6597C32.0486 75.3397 31.8186 75.1797 31.3586 75.1797C31.1086 75.1797 30.9286 75.2499 30.8186 75.3799C30.7286 75.4499 30.6886 75.5797 30.6586 75.7397ZM32.0186 76.7598V76.2798C31.9786 76.3198 31.9086 76.3499 31.7986 76.3799C31.6886 76.4099 31.5085 76.4397 31.2485 76.4697C30.9885 76.4997 30.8086 76.5596 30.7086 76.6396C30.6186 76.7196 30.5686 76.8197 30.5686 76.9497C30.5686 77.1197 30.6086 77.2501 30.6986 77.3301C30.7886 77.4101 30.9186 77.46 31.1086 77.46C31.3486 77.46 31.5685 77.3898 31.7485 77.2598C31.9285 77.1198 32.0186 76.9598 32.0186 76.7598Z" fill="white"/>
<path d="M35.7003 75.2598H35.2203V77.1699C35.2203 77.2699 35.2603 77.3299 35.3303 77.3599C35.3703 77.3799 35.4403 77.3896 35.5203 77.3896H35.7003V77.7798L35.3303 77.8198C35.1003 77.8198 34.9403 77.7596 34.8403 77.6396C34.7603 77.5396 34.7303 77.3897 34.7303 77.1797V75.25H34.3203V74.8398H34.7303V74.02H35.2303V74.8398H35.7103V75.2598H35.7003Z" fill="white"/>
<path d="M42.0597 74.8398H42.6196C42.4396 75.3198 42.2697 75.8 42.0997 76.27C41.9297 76.74 41.7497 77.23 41.5497 77.73C41.3097 78.32 41.1397 78.6798 41.0297 78.7998C40.9197 78.9198 40.7096 78.98 40.3896 78.98C40.3596 78.98 40.3297 78.9797 40.3197 78.9697C40.2597 78.9497 40.2197 78.9397 40.1897 78.9297V78.48C40.2197 78.49 40.2597 78.5 40.3197 78.52C40.3797 78.53 40.4297 78.54 40.4897 78.54C40.6197 78.54 40.6996 78.4997 40.7596 78.4297C40.8096 78.3597 40.8997 78.1701 41.0297 77.8501L39.9297 74.8301H40.4996L41.2797 77.2197L42.0597 74.8398Z" fill="white"/>
<path d="M44.1914 76.3101C44.1914 75.8901 44.3014 75.53 44.5214 75.25C44.7714 74.92 45.1214 74.7598 45.5614 74.7598C46.0114 74.7598 46.3615 74.92 46.6115 75.25C46.8315 75.54 46.9514 75.8901 46.9514 76.3101C46.9514 76.7301 46.8415 77.0796 46.6115 77.3696C46.3615 77.6996 46.0114 77.8696 45.5614 77.8696C45.1214 77.8696 44.7714 77.7099 44.5214 77.3799C44.3014 77.0899 44.1914 76.7301 44.1914 76.3101ZM44.6914 76.3101C44.6914 76.5901 44.7414 76.82 44.8514 77.02C45.0014 77.3 45.2414 77.4399 45.5514 77.4399C45.8614 77.4399 46.1013 77.2998 46.2513 77.0298C46.3613 76.8298 46.4214 76.5901 46.4214 76.3101C46.4214 76.0301 46.3714 75.8001 46.2614 75.6001C46.1114 75.3201 45.8714 75.1899 45.5614 75.1899C45.2514 75.1899 45.0115 75.3301 44.8615 75.6001C44.7515 75.8001 44.6914 76.0401 44.6914 76.3101Z" fill="white"/>
<path d="M51.1595 77.7798H50.6796V77.3599L50.6696 77.3501C50.5596 77.5301 50.4396 77.66 50.2896 77.75C50.1396 77.84 49.9496 77.8799 49.7296 77.8799C49.4696 77.8799 49.2596 77.8199 49.0896 77.6899C48.8696 77.5299 48.7695 77.29 48.7695 76.96V74.8501H49.2695V76.7998C49.2695 77.0298 49.3296 77.1898 49.4396 77.2998C49.5296 77.3898 49.6696 77.4399 49.8496 77.4399C50.1296 77.4399 50.3496 77.3299 50.4896 77.1099C50.6096 76.9399 50.6595 76.72 50.6595 76.46V74.8398H51.1595V77.7798Z" fill="white"/>
<path d="M53.7812 76.0801V77.79H53.2812V74.8501H53.7512V75.3398C53.8612 75.1598 53.9813 75.0197 54.1113 74.9297C54.2513 74.8197 54.4213 74.77 54.6013 74.77C54.6613 74.77 54.7013 74.7698 54.7213 74.7798V75.2998H54.5413C54.3113 75.2998 54.1313 75.37 53.9913 75.52C53.8513 75.67 53.7812 75.8501 53.7812 76.0801Z" fill="white"/>
<path d="M61.6613 73.7598V77.79H61.1813V77.3896C61.0813 77.5696 60.9412 77.6998 60.7812 77.7798C60.6513 77.8498 60.5013 77.8799 60.3313 77.8799C59.8713 77.8799 59.5313 77.6898 59.3013 77.3198C59.1213 77.0298 59.0312 76.66 59.0312 76.23C59.0312 75.8 59.1413 75.4497 59.3613 75.1797C59.5813 74.9097 59.8812 74.77 60.2712 74.77C60.5012 74.77 60.7012 74.8297 60.8712 74.9497C60.9512 75.0097 61.0513 75.1098 61.1613 75.2598L61.1713 75.23V73.7598H61.6613ZM59.5312 76.2998C59.5312 76.6398 59.6013 76.9096 59.7413 77.1196C59.8813 77.3296 60.0813 77.4297 60.3413 77.4297C60.5413 77.4297 60.7213 77.36 60.8613 77.23C61.0513 77.06 61.1512 76.7999 61.1512 76.4399C61.1512 76.0999 61.1112 75.8396 61.0312 75.6396C60.9013 75.3396 60.6813 75.1899 60.3613 75.1899C60.0213 75.1899 59.7913 75.3301 59.6613 75.6001C59.5713 75.7801 59.5312 76.0098 59.5312 76.2998Z" fill="white"/>
<path d="M64.2188 76.0801V77.79H63.7188V74.8501H64.1887V75.3398C64.2987 75.1598 64.4187 75.0197 64.5487 74.9297C64.6887 74.8197 64.8587 74.77 65.0387 74.77C65.0987 74.77 65.1387 74.7698 65.1587 74.7798V75.2998H64.9788C64.7488 75.2998 64.5687 75.37 64.4287 75.52C64.2887 75.67 64.2188 75.8501 64.2188 76.0801Z" fill="white"/>
<path d="M68.8514 76.8599H69.3514C69.3314 76.9699 69.2914 77.09 69.2214 77.21C69.1214 77.4 68.9814 77.5499 68.8214 77.6499C68.7214 77.7199 68.6314 77.76 68.5514 77.79C68.4114 77.84 68.2314 77.8599 68.0214 77.8599C67.6114 77.8599 67.2914 77.7197 67.0514 77.4497C66.8114 77.1697 66.6914 76.8199 66.6914 76.3799C66.6914 75.8899 66.8014 75.5097 67.0314 75.2197C67.2814 74.9097 67.6413 74.75 68.1213 74.75C68.5413 74.75 68.8514 74.9 69.0714 75.21C69.2914 75.52 69.3914 75.93 69.3914 76.46H67.2214C67.2214 76.77 67.2914 77.0097 67.4414 77.1797C67.5914 77.3497 67.8014 77.4297 68.0914 77.4297C68.3114 77.4297 68.4914 77.36 68.6414 77.23C68.7614 77.12 68.8314 76.9899 68.8514 76.8599ZM67.2114 76.0801H68.8713C68.8713 75.8301 68.8114 75.6297 68.6814 75.4697C68.5414 75.2897 68.3214 75.1997 68.0414 75.1997C67.8114 75.1997 67.6214 75.29 67.4614 75.46C67.3014 75.64 67.2114 75.8401 67.2114 76.0801Z" fill="white"/>
<path d="M71.729 75.7397H71.2589C71.2589 75.3997 71.369 75.1497 71.599 74.9897C71.809 74.8397 72.099 74.77 72.479 74.77C72.719 74.77 72.9289 74.8096 73.1189 74.8896C73.4289 75.0296 73.589 75.2598 73.589 75.5898V77.2798C73.589 77.3998 73.6489 77.46 73.7589 77.46L73.9189 77.4399V77.7998C73.8789 77.8098 73.8389 77.8198 73.7889 77.8398C73.7389 77.8498 73.6989 77.8599 73.6489 77.8599C73.4489 77.8599 73.309 77.8097 73.229 77.7197C73.169 77.6497 73.1289 77.5497 73.1289 77.4097C72.9989 77.5497 72.869 77.6497 72.739 77.7197C72.539 77.8297 72.309 77.8896 72.059 77.8896C71.789 77.8896 71.5589 77.8099 71.3889 77.6499C71.2189 77.4899 71.1289 77.2898 71.1289 77.0298C71.1289 76.8298 71.1789 76.66 71.2689 76.52C71.4189 76.29 71.6789 76.1599 72.0289 76.1099L72.849 76.0098C72.929 75.9998 72.9889 75.9799 73.0289 75.9399C73.0889 75.8799 73.1189 75.7897 73.1189 75.6597C73.1189 75.3397 72.889 75.1797 72.429 75.1797C72.179 75.1797 71.9989 75.2499 71.8889 75.3799C71.7989 75.4499 71.759 75.5797 71.729 75.7397ZM73.089 76.7598V76.2798C73.049 76.3198 72.9789 76.3499 72.8689 76.3799C72.7589 76.4099 72.579 76.4397 72.319 76.4697C72.059 76.4997 71.8789 76.5596 71.7789 76.6396C71.6789 76.7196 71.6389 76.8197 71.6389 76.9497C71.6389 77.1197 71.6789 77.2501 71.7689 77.3301C71.8589 77.4101 71.989 77.46 72.179 77.46C72.419 77.46 72.639 77.3898 72.819 77.2598C72.999 77.1198 73.089 76.9598 73.089 76.7598Z" fill="white"/>
<path d="M75.6797 77.7798V74.8398H76.1497V75.25C76.2597 75.12 76.3597 75.0197 76.4497 74.9497C76.6297 74.8197 76.8297 74.7598 77.0597 74.7598C77.2397 74.7598 77.3896 74.7899 77.5096 74.8599C77.6296 74.9299 77.7497 75.05 77.8497 75.23C77.9997 75.07 78.1197 74.9496 78.2197 74.8896C78.3697 74.7996 78.5396 74.7598 78.7496 74.7598C78.9796 74.7598 79.1697 74.8199 79.3297 74.9399C79.5597 75.1099 79.6697 75.38 79.6697 75.75V77.7798H79.1697V75.8799C79.1697 75.6599 79.1297 75.4896 79.0597 75.3896C78.9697 75.2596 78.8196 75.1997 78.6196 75.1997C78.4196 75.1997 78.2496 75.2797 78.1196 75.4297C77.9896 75.5897 77.9297 75.77 77.9297 75.98V77.77H77.4297V75.7397C77.4297 75.5897 77.3997 75.4699 77.3297 75.3799C77.2497 75.2599 77.1197 75.1899 76.9597 75.1899C76.7697 75.1899 76.5997 75.2499 76.4697 75.3799C76.2797 75.5499 76.1797 75.8199 76.1797 76.1699V77.7798H75.6797Z" fill="white"/>
<path d="M63.9392 38.1496C69.7459 35.7444 72.5034 29.0873 70.0981 23.2806C67.6928 17.4739 61.0355 14.7162 55.2288 17.1214C49.4221 19.5267 46.6648 26.1842 49.0701 31.9909C51.4754 37.7976 58.1325 40.5549 63.9392 38.1496Z" fill="#336FB5"/>
<path d="M47.1587 18.2598C47.0787 18.2598 46.9787 18.2 46.9688 18.02V18.0098V18C47.0287 17.19 47.2087 15.6797 47.7487 14.6597C48.2887 13.6497 48.9987 13.5 49.3787 13.5C49.4587 13.5 49.5388 13.51 49.6088 13.52C50.4388 13.61 51.0487 14.3197 50.9987 15.1597C50.9887 15.3597 50.9388 15.55 50.8588 15.73C50.5888 16.43 49.6688 16.73 48.8488 17C48.6088 17.08 48.3787 17.15 48.1887 17.23C47.8587 17.37 47.5787 17.6297 47.4287 17.9697C47.3587 18.1397 47.2787 18.2598 47.1587 18.2598Z" fill="white"/>
<path d="M45.1514 13.5776C45.6019 11.6695 44.4201 9.75748 42.512 9.30693C40.604 8.85638 38.6921 10.0379 38.2416 11.946C37.791 13.854 38.9724 15.7661 40.8805 16.2166C42.7885 16.6672 44.7008 15.4856 45.1514 13.5776Z" fill="#EA2427"/>
<path d="M34.9596 21.9697C32.9196 21.9697 31.2695 23.6297 31.2695 25.6597C31.2695 27.6897 32.9296 29.3501 34.9596 29.3501C36.9996 29.3501 38.6495 27.6897 38.6495 25.6597C38.6495 23.6297 36.9996 21.9697 34.9596 21.9697Z" fill="#FCCC0A"/>
<path d="M45.2114 39.2522C45.5264 37.3114 44.2088 35.4829 42.268 35.1679C40.3273 34.8529 38.4986 36.1708 38.1836 38.1116C37.8686 40.0524 39.1866 41.8811 41.1274 42.1961C43.0682 42.511 44.8964 41.1929 45.2114 39.2522Z" fill="#336FB5"/>
<path d="M48.66 49.52C35.06 49.52 24 38.4599 24 24.8599C24 11.2599 35.06 0.199707 48.66 0.199707C57.14 0.199707 64.9301 4.4799 69.4901 11.6499V11.6597C69.8601 12.2897 70.04 13.5098 69.04 14.2798C68.69 14.5498 68.2501 14.6797 67.7301 14.6797C67.3201 14.6797 66.9601 14.5998 66.7201 14.5298L66.7001 14.5698L66.4701 14.4497L66.27 14.3696V14.3501C64.18 13.2801 61.8401 12.71 59.4801 12.71C57.3601 12.71 55.22 13.1698 53.29 14.0498C53.12 14.1298 52.9301 14.1699 52.7401 14.1699C52.2601 14.1699 51.8301 13.9097 51.6101 13.4897L51.6001 13.46C51.4301 13.15 51.4 12.7699 51.51 12.4399C51.62 12.0999 51.8601 11.8399 52.1801 11.6899C54.4501 10.6499 56.9701 10.1001 59.4801 10.1001C61.7501 10.1001 64.04 10.5499 66.14 11.4199C61.98 6.01992 55.49 2.81006 48.66 2.81006C36.5 2.81006 26.6001 12.6996 26.6001 24.8696C26.6001 37.0396 36.49 46.9297 48.66 46.9297C54.7 46.9297 60.4701 44.4499 64.6101 40.1099C62.9901 40.7799 61.2301 41.1196 59.4801 41.1196C52.0301 41.1196 45.9601 35.0601 45.9601 27.6001C45.9601 20.1401 52.0201 14.0801 59.4801 14.0801C66.9301 14.0801 73 20.1401 73 27.6001C73 28.3101 72.9401 29.0297 72.8301 29.7397C72.8201 29.8197 72.81 29.9 72.8 30C72.51 32.29 71.2901 34.8399 70.5901 36.1499C70.2301 36.8499 69.8401 37.5196 69.4501 38.1396C64.8801 45.2596 57.11 49.52 48.66 49.52ZM59.4801 16.6797C53.4601 16.6797 48.5601 21.5801 48.5601 27.6001C48.5601 33.6201 53.4601 38.52 59.4801 38.52C64.9701 38.52 69.59 34.4598 70.3 29.0498H59.37C58.62 29.0498 58.01 28.4399 58.01 27.6899C58.01 26.9399 58.62 26.3301 59.37 26.3301H70.3201C69.6901 20.9001 64.9601 16.6797 59.4801 16.6797Z" fill="white"/>
</svg>
