<svg width="60" height="61" viewBox="0 0 60 61" fill="none" xmlns="http://www.w3.org/2000/svg">
<path d="M29.927 6.06006L35.8572 0.570068L39.2271 7.90991L46.8071 5.1001L47.1172 13.1799L55.197 13.49L52.387 21.0701L59.7371 24.45L54.2371 30.3701L59.7371 36.3L52.387 39.6799L55.197 47.26L47.1172 47.5701L46.8071 55.6499L39.2271 52.8401L35.8572 60.1799L29.927 54.6899L23.9971 60.1799L20.6172 52.8401L13.0371 55.6499L12.7371 47.5701L4.65698 47.26L7.45703 39.6799L0.117188 36.3L5.60718 30.3701L0.117188 24.45L7.45703 21.0701L4.65698 13.49L12.7371 13.1799L13.0371 5.1001L20.6172 7.90991L23.9971 0.570068L29.927 6.06006Z" fill="#CA2026"/>
<path d="M14.5508 35.1799V24.98H17.2407L19.3608 28.72C19.9708 29.79 20.5708 31.06 21.0208 32.21H21.0708C20.9208 30.86 20.8708 29.49 20.8708 27.96V24.98H22.9907V35.1799H20.5708L18.3906 31.25C17.7906 30.16 17.1208 28.8399 16.6208 27.6499L16.5708 27.6699C16.6308 29.0199 16.6606 30.4501 16.6606 32.1201V35.1899H14.5508V35.1799Z" fill="white"/>
<path d="M31.0623 30.8701H27.3123V33.29H31.5022V35.1799H24.9922V24.98H31.2822V26.8701H27.3022V28.99H31.0522V30.8701H31.0623Z" fill="white"/>
<path d="M34.8225 35.1799L32.4023 24.98H34.8726L35.6423 29.1899C35.8723 30.3999 36.0824 31.72 36.2424 32.75H36.2725C36.4425 31.65 36.6824 30.4199 36.9424 29.1599L37.8025 24.98H40.2524L41.0725 29.28C41.3025 30.48 41.4625 31.56 41.6125 32.7H41.6423C41.7923 31.57 42.0224 30.3699 42.2324 29.1599L43.0625 24.98H45.4023L42.7725 35.1799H40.2725L39.4124 30.79C39.2124 29.76 39.0524 28.8099 38.9324 27.6399H38.9023C38.7223 28.7899 38.5525 29.76 38.3125 30.79L37.3425 35.1799H34.8225Z" fill="white"/>
</svg>
