<svg width="42" height="42" viewBox="0 0 42 42" fill="none" xmlns="http://www.w3.org/2000/svg">
<path d="M28.0837 16.2803H27.9436V12.5703C27.9436 10.7103 27.1936 9.03031 25.9736 7.82031C24.7536 6.60031 23.0736 5.84961 21.2136 5.84961C17.4936 5.84961 14.4836 8.86008 14.4836 12.5801V16.29H14.0637C12.3337 16.29 10.9336 17.6899 10.9336 19.4199V30.1602C10.9336 31.8902 12.3337 33.29 14.0637 33.29H28.0737C29.8037 33.29 31.2036 31.8902 31.2036 30.1602V19.4199C31.2136 17.6799 29.8137 16.2803 28.0837 16.2803ZM17.8538 12.7305C17.8538 10.8705 19.3636 9.37012 21.2236 9.37012C22.1536 9.37012 22.9938 9.75035 23.6038 10.3604C24.2138 10.9704 24.5938 11.8102 24.5938 12.7402V16.29H17.8638V12.7305H17.8538ZM22.5237 25.4697V29.5H19.6238V25.4697C18.7438 25.0297 18.0936 24.2002 17.9036 23.2002C17.8636 23.0002 17.8438 22.7998 17.8438 22.5898C17.8438 21.3098 18.5936 20.1997 19.6836 19.6797C20.1036 19.4797 20.5737 19.3701 21.0637 19.3701C21.5637 19.3701 22.0336 19.4797 22.4536 19.6797C23.5436 20.1997 24.2937 21.3098 24.2937 22.5898C24.2937 22.7998 24.2736 23.0002 24.2336 23.2002C24.0536 24.1902 23.4037 25.0297 22.5237 25.4697Z" fill="white"/>
<path d="M21.082 41.7002C9.64203 41.7002 0.332031 32.3902 0.332031 20.9502C0.332031 9.5102 9.64203 0.200195 21.082 0.200195C32.522 0.200195 41.832 9.5102 41.832 20.9502C41.832 32.3802 32.522 41.7002 21.082 41.7002ZM21.082 2.5498C10.942 2.5498 2.68188 10.8002 2.68188 20.9502C2.68188 31.0902 10.932 39.3398 21.082 39.3398C31.232 39.3398 39.4819 31.0902 39.4819 20.9502C39.4719 10.8002 31.222 2.5498 21.082 2.5498Z" fill="white"/>
</svg>
