<svg width="43" height="45" viewBox="0 0 43 45" fill="none" xmlns="http://www.w3.org/2000/svg">
<path d="M25.5588 12.3604C24.4788 11.2804 22.9889 10.6104 21.3389 10.6104C18.0389 10.6104 15.3689 13.2801 15.3689 16.5801V19.8701H14.9988C13.4588 19.8701 12.2188 21.1104 12.2188 22.6504V32.1904C12.2188 33.7204 13.4588 34.9697 14.9988 34.9697H27.4387C28.9787 34.9697 30.2188 33.7204 30.2188 32.1904V22.6504C30.2188 21.1104 28.9787 19.8701 27.4387 19.8701H27.3188V16.5801C27.3088 14.9401 26.6388 13.4404 25.5588 12.3604ZM24.0288 26.0098C23.8588 26.8898 23.2888 27.6303 22.5088 28.0303V31.6104H19.9387V28.0303C19.1587 27.6403 18.5787 26.8998 18.4087 26.0098C18.3787 25.8398 18.3589 25.6597 18.3589 25.4697C18.3589 24.3297 19.0288 23.3499 19.9888 22.8799C20.3588 22.6999 20.7788 22.5996 21.2188 22.5996C21.6587 22.5996 22.0787 22.6999 22.4487 22.8799C23.4187 23.3399 24.0789 24.3297 24.0789 25.4697C24.0789 25.6597 24.0588 25.8398 24.0288 26.0098ZM24.3289 19.8701H18.3589V16.7197C18.3589 15.0697 19.6989 13.7305 21.3489 13.7305C22.1689 13.7305 22.9187 14.0604 23.4587 14.6104C23.9987 15.1604 24.3389 15.8997 24.3389 16.7197V19.8701H24.3289Z" fill="white"/>
<path d="M39.8704 13.5898L38.2002 14.4697C39.6302 17.1897 40.3801 20.2704 40.3801 23.3604C40.3801 33.9304 31.7802 42.5303 21.2102 42.5303C10.6402 42.5303 2.04028 33.9304 2.04028 23.3604C2.04028 12.7904 10.6402 4.19043 21.2102 4.19043C23.6202 4.19043 25.9902 4.63977 28.2002 5.50977L26.0002 8.95996L36.4102 9.42969L31.6104 0.19043L29.2402 3.90039C26.7102 2.86039 23.9802 2.30957 21.2102 2.30957C9.60021 2.30957 0.160156 11.7504 0.160156 23.3604C0.160156 34.9704 9.60021 44.4102 21.2102 44.4102C32.8202 44.4102 42.2603 34.9704 42.2603 23.3604C42.2703 19.9604 41.4404 16.5798 39.8704 13.5898Z" fill="white"/>
</svg>
