<svg width="38" height="38" viewBox="0 0 38 38" fill="none" xmlns="http://www.w3.org/2000/svg">
<path d="M19.071 0.820312C9.03104 0.820312 0.871094 8.98953 0.871094 19.0195C0.871094 23.1595 2.22102 27.0598 4.79102 30.2998C8.27102 34.6998 13.471 37.2197 19.071 37.2197C24.671 37.2197 29.8811 34.6998 33.3511 30.2998C35.9111 27.0598 37.271 23.1595 37.271 19.0195C37.281 8.98953 29.111 0.820312 19.071 0.820312ZM32.551 28.9805C31.871 26.7505 30.651 24.7602 29.041 23.1602C26.491 20.6102 22.971 19.0303 19.071 19.0303C12.731 19.0303 7.37107 23.2205 5.60107 28.9805C3.45107 26.0905 2.32104 22.6603 2.32104 19.0303C2.32104 9.79027 9.83105 2.28027 19.071 2.28027C28.311 2.28027 35.821 9.79027 35.821 19.0303C35.831 22.6603 34.691 26.0805 32.551 28.9805Z" fill="white"/>
<path d="M19.0691 17.3896C22.5374 17.3896 25.3491 14.5787 25.3491 11.1104C25.3491 7.642 22.5374 4.83008 19.0691 4.83008C15.6007 4.83008 12.7891 7.642 12.7891 11.1104C12.7891 14.5787 15.6007 17.3896 19.0691 17.3896Z" fill="white"/>
</svg>
