<svg width="29" height="45" viewBox="0 0 29 45" fill="none" xmlns="http://www.w3.org/2000/svg">
<path fill-rule="evenodd" clip-rule="evenodd" d="M23.6997 36.1104C23.6997 36.8304 23.0097 37.4199 22.1897 37.4199H4.26978C3.43978 37.4199 2.75977 36.8304 2.75977 36.1104V4.26953C2.75977 3.54953 3.44978 2.95996 4.26978 2.95996H11.3997C11.5197 3.85996 12.2897 4.55957 13.2297 4.55957C14.1697 4.55957 14.9398 3.85996 15.0598 2.95996H22.1897C23.0197 2.95996 23.6997 3.54953 23.6997 4.26953V12.5H25.8699V4.76953C25.8699 2.60953 24.0997 0.839844 21.9397 0.839844H4.51978C2.35978 0.839844 0.589844 2.60953 0.589844 4.76953V40.4102C0.589844 42.5702 2.35978 44.3398 4.51978 44.3398H21.9397C24.0997 44.3398 25.8699 42.5702 25.8699 40.4102V28.1904H23.6997V36.1104ZM13.1897 2.03027C13.5697 2.03027 13.8796 2.33973 13.8796 2.71973C13.8796 3.09973 13.5697 3.41016 13.1897 3.41016C12.8097 3.41016 12.4998 3.09973 12.4998 2.71973C12.4998 2.32973 12.8097 2.03027 13.1897 2.03027ZM5.49976 41.6904C5.49976 41.7604 5.43986 41.8203 5.35986 41.8203H5.19971C5.12971 41.8203 5.05981 41.7604 5.05981 41.6904V40.1504C5.05981 40.0804 5.11971 40.0098 5.19971 40.0098H5.35986C5.42986 40.0098 5.49976 40.0704 5.49976 40.1504V41.6904ZM6.19971 41.6904C6.19971 41.7604 6.13981 41.8203 6.05981 41.8203H5.89966C5.82966 41.8203 5.75977 41.7604 5.75977 41.6904V40.1504C5.75977 40.0804 5.81966 40.0098 5.89966 40.0098H6.05981C6.12981 40.0098 6.19971 40.0704 6.19971 40.1504V41.6904ZM6.89966 41.6904C6.89966 41.7604 6.83977 41.8203 6.75977 41.8203H6.59985C6.52985 41.8203 6.45972 41.7604 6.45972 41.6904V40.1504C6.45972 40.0804 6.51985 40.0098 6.59985 40.0098H6.75977C6.82977 40.0098 6.89966 40.0704 6.89966 40.1504V41.6904ZM14.0999 41.5098C14.0999 41.6898 13.9598 41.8301 13.7798 41.8301H12.6099C12.4299 41.8301 12.2898 41.6898 12.2898 41.5098V40.3398C12.2898 40.1598 12.4299 40.0195 12.6099 40.0195H13.7798C13.9598 40.0195 14.0999 40.1598 14.0999 40.3398V41.5098ZM21.3098 41.7002C21.3098 41.7502 21.2797 41.7903 21.2397 41.8203C21.1997 41.8403 21.1399 41.8396 21.0999 41.8096L19.9697 41.0303C19.9297 41.0003 19.9097 40.9699 19.9097 40.9199C19.9097 40.8699 19.9297 40.8396 19.9697 40.8096L21.0999 40.0303C21.1399 40.0003 21.1897 39.9995 21.2397 40.0195C21.2797 40.0395 21.3098 40.0896 21.3098 40.1396V41.7002Z" fill="white"/>
<path fill-rule="evenodd" clip-rule="evenodd" d="M26.6199 14.04H14.8796C13.6696 14.04 12.6797 15.0302 12.6797 16.2402V24.1299C12.6797 25.3399 13.6696 26.3301 14.8796 26.3301H15.4497L14.5098 30.1904C14.3898 30.6704 14.3997 30.8502 14.8997 30.4102L19.4397 26.3203H26.6296C27.8396 26.3203 28.8298 25.3301 28.8298 24.1201V16.2305C28.8298 15.0305 27.8299 14.04 26.6199 14.04ZM16.6396 21.5098C16.0296 21.5098 15.5398 21.0202 15.5398 20.4102C15.5398 19.8002 16.0296 19.3096 16.6396 19.3096C17.2496 19.3096 17.7397 19.8002 17.7397 20.4102C17.7397 21.0202 17.2496 21.5098 16.6396 21.5098ZM20.7698 21.5098C20.1598 21.5098 19.6697 21.0202 19.6697 20.4102C19.6697 19.8002 20.1598 19.3096 20.7698 19.3096C21.3798 19.3096 21.8699 19.8002 21.8699 20.4102C21.8699 21.0202 21.3798 21.5098 20.7698 21.5098ZM24.8997 21.5098C24.2897 21.5098 23.7998 21.0202 23.7998 20.4102C23.7998 19.8002 24.2897 19.3096 24.8997 19.3096C25.5097 19.3096 25.9998 19.8002 25.9998 20.4102C25.9998 21.0202 25.5097 21.5098 24.8997 21.5098Z" fill="white"/>
</svg>
