<svg width="12" height="12" viewBox="0 0 12 12" fill="none" xmlns="http://www.w3.org/2000/svg">
<path d="M5.87183 11.4902C2.78183 11.4902 0.261719 8.96988 0.261719 5.87988C0.261719 2.78988 2.78183 0.27002 5.87183 0.27002C8.96183 0.27002 11.4817 2.78988 11.4817 5.87988C11.4817 8.96988 8.97183 11.4902 5.87183 11.4902ZM5.87183 0.799805C3.07183 0.799805 0.791748 3.07988 0.791748 5.87988C0.791748 8.67988 3.07183 10.96 5.87183 10.96C8.67183 10.96 10.9517 8.67988 10.9517 5.87988C10.9517 3.07988 8.68183 0.799805 5.87183 0.799805Z" fill="#466DB4"/>
<path fill-rule="evenodd" clip-rule="evenodd" d="M4.37329 2.58008H7.37329C8.34329 2.58008 9.13306 3.36984 9.13306 4.33984V7.33008C9.13306 8.29008 8.34329 9.08984 7.37329 9.08984H4.37329C3.40329 9.08984 2.61328 8.30008 2.61328 7.33008V4.33984C2.61328 3.37984 3.41329 2.58008 4.37329 2.58008ZM7.62329 3.72021C7.82329 3.72021 7.99316 3.88984 7.99316 4.08984C7.99316 4.28984 7.82329 4.45996 7.62329 4.45996C7.40329 4.45996 7.25317 4.28984 7.25317 4.08984C7.25317 3.88984 7.41329 3.72021 7.62329 3.72021ZM5.87329 4.06006H5.89307C6.86307 4.06006 7.66309 4.87008 7.66309 5.83008C7.66309 6.81008 6.85307 7.6001 5.89307 7.6001H5.87329C4.90329 7.6001 4.11328 6.81008 4.11328 5.83008C4.11328 4.87008 4.90329 4.06006 5.87329 4.06006ZM5.87329 4.66992H5.89307C6.53307 4.66992 7.06323 5.19984 7.06323 5.83984C7.06323 6.48984 6.53307 7.02002 5.89307 7.02002H5.87329C5.23329 7.02002 4.70312 6.48984 4.70312 5.83984C4.70312 5.19984 5.23329 4.66992 5.87329 4.66992ZM4.39307 3.14014H7.36328C8.03328 3.14014 8.57324 3.6801 8.57324 4.3501V7.31006C8.57324 7.98006 8.03328 8.52002 7.36328 8.52002H4.39307C3.72307 8.52002 3.18311 7.98006 3.18311 7.31006V4.3501C3.17311 3.6901 3.72307 3.14014 4.39307 3.14014Z" fill="white"/>
</svg>
