<svg width="12" height="12" viewBox="0 0 12 12" fill="none" xmlns="http://www.w3.org/2000/svg">
<path d="M7.99097 6.27002L8.19092 4.95996H6.93091V4.10986C6.93091 3.74986 7.1109 3.3999 7.6709 3.3999H8.24097V2.29004C7.91097 2.24004 7.57096 2.2102 7.23096 2.2002C6.20096 2.2002 5.521 2.82996 5.521 3.95996V4.95996H4.37109V6.27002H5.521V9.43018C5.991 9.50018 6.47092 9.50018 6.94092 9.43018V6.27002H7.99097Z" fill="white"/>
<path d="M6.2998 11.46C3.1998 11.46 0.679688 8.93984 0.679688 5.83984C0.679688 2.73984 3.1998 0.220215 6.2998 0.220215C9.39981 0.220215 11.9197 2.73984 11.9197 5.83984C11.9197 8.93984 9.39981 11.46 6.2998 11.46ZM6.2998 0.740234C3.4898 0.740234 1.20972 3.03008 1.20972 5.83008C1.20972 8.63008 3.4898 10.9199 6.2998 10.9199C9.1098 10.9199 11.3896 8.63008 11.3896 5.83008C11.3896 3.03008 9.1098 0.740234 6.2998 0.740234Z" fill="#466DB4"/>
</svg>
