<svg width="216" height="124" viewBox="0 0 216 124" fill="none" xmlns="http://www.w3.org/2000/svg">
<path d="M78.3828 2.62006C100.183 8.51006 125.113 19.2999 138.533 38.9399C146.603 46.8199 152.093 57.1101 154.073 68.3901C154.083 68.4701 154.103 68.5401 154.113 68.6201C154.833 72.8001 155.333 77.2 157.633 80.77C160.183 84.72 164.893 87.1599 169.593 86.9599C174.283 86.7599 178.783 83.92 180.983 79.77C182.443 77.02 182.913 73.8399 184.073 70.9599C161.153 -3.90009 78.3828 2.62006 78.3828 2.62006ZM163.993 80.4399C164.453 80.6899 164.963 80.9101 165.493 81.1201C166.023 81.3201 166.583 81.4798 167.153 81.6098C167.733 81.7198 168.313 81.8198 168.913 81.8198C169.503 81.8598 170.103 81.8002 170.683 81.7402C170.973 81.6902 171.263 81.6398 171.543 81.5898C171.823 81.5198 172.103 81.4598 172.383 81.3798C172.653 81.2898 172.923 81.2098 173.183 81.1298C173.443 81.0298 173.693 80.9298 173.943 80.8398C174.193 80.7498 174.423 80.6297 174.653 80.5297C174.763 80.4797 174.883 80.4298 174.993 80.3798C175.103 80.3198 175.203 80.2699 175.313 80.2099C175.523 80.0999 175.723 80.0001 175.913 79.9101C176.103 79.8101 176.283 79.6998 176.443 79.6098C176.773 79.4198 177.073 79.2598 177.313 79.1098C177.793 78.8198 178.073 78.6601 178.073 78.6601C178.073 78.6601 177.863 78.9098 177.483 79.3198C177.383 79.4198 177.283 79.5401 177.163 79.6601C177.043 79.7801 176.903 79.9 176.753 80.04C176.603 80.17 176.453 80.3199 176.283 80.4599C176.103 80.5999 175.923 80.7401 175.723 80.8901C175.623 80.9601 175.523 81.0401 175.423 81.1201C175.313 81.1901 175.203 81.26 175.093 81.33C174.863 81.47 174.643 81.63 174.393 81.77C174.143 81.9 173.883 82.0401 173.613 82.1801C173.343 82.3001 173.053 82.42 172.763 82.54C172.473 82.65 172.163 82.7398 171.853 82.8398C171.543 82.9198 171.213 82.99 170.883 83.06C170.223 83.16 169.543 83.2301 168.863 83.2001C168.183 83.1801 167.503 83.0701 166.853 82.9101C166.533 82.8201 166.213 82.7398 165.903 82.6098C165.593 82.5098 165.303 82.3702 165.013 82.2402C164.443 81.9602 163.923 81.6598 163.453 81.3198C162.983 80.9898 162.573 80.65 162.213 80.31C161.853 79.98 161.553 79.64 161.293 79.33C161.033 79.03 160.833 78.7497 160.673 78.5097C160.353 78.0397 160.213 77.7499 160.213 77.7499C160.213 77.7499 160.273 77.8001 160.383 77.9101C160.493 78.0101 160.663 78.1498 160.873 78.3398C161.303 78.6998 161.923 79.1901 162.703 79.7001C163.093 79.9401 163.533 80.1999 163.993 80.4399Z" fill="#26B3E8"/>
<path d="M0.601562 61.5801C0.611562 61.5601 0.621348 61.5398 0.631348 61.5098C0.611348 61.5598 0.601562 61.5801 0.601562 61.5801Z" fill="#FFCC07"/>
<path d="M106.131 12.79C97.0406 8.37004 87.4406 5.07012 78.3906 2.62012C44.2906 9.16012 15.7806 31.3898 0.640625 61.5098C1.79062 59.2698 32.9406 0.250039 106.131 12.79Z" fill="#FFCC07"/>
<path d="M106.133 12.79C32.9431 0.250029 1.79307 59.27 0.643066 61.52C0.633066 61.54 0.623281 61.5598 0.613281 61.5898C17.1133 35.1698 46.4531 17.5801 79.9031 17.5801C98.1431 17.5801 115.153 22.8098 129.533 31.8398C132.803 33.8998 135.823 36.2799 138.543 38.9399C130.693 27.4599 118.913 19.01 106.133 12.79Z" fill="#FAB516"/>
<path d="M211.283 63.5C208.373 61.2 204.803 59.8302 201.993 57.4102C195.033 51.4002 194.343 40.4301 187.713 34.0601C184.753 31.2101 180.873 29.5602 177.083 27.9702C177.053 27.9602 177.013 27.9402 176.983 27.9302C171.133 25.4702 165.523 22.4702 160.243 18.9702C149.383 11.7602 137.163 6.43018 124.063 3.43018L123.993 3.3999C123.993 3.4099 124.003 3.40992 124.003 3.41992C116.063 1.60992 107.803 0.649902 99.313 0.649902C92.153 0.649902 85.1628 1.33014 78.3828 2.64014C78.3828 2.64014 161.153 -3.88979 184.073 70.9702C184.293 70.4102 184.543 69.8601 184.833 69.3301C186.603 66.0601 190.923 63.5401 193.993 65.6401C198.053 68.4201 195.653 75.8701 199.583 78.8301C202.093 80.7301 205.663 79.6201 208.553 78.3701C211.163 77.2401 213.963 75.8102 215.033 73.1802C216.433 69.7202 214.193 65.8 211.283 63.5Z" fill="#37C5F2"/>
<path d="M207.23 102.59C207.23 102.59 221.691 119.25 212.291 122.82C203.481 126.15 210.21 110.38 207.23 102.59Z" fill="#37C5F2"/>
<path d="M188.992 86.9702C188.992 86.9702 198.972 98.4702 192.482 100.93C186.412 103.23 191.062 92.3502 188.992 86.9702Z" fill="#37C5F2"/>
</svg>
