<svg width="233" height="233" viewBox="0 0 233 233" fill="none" xmlns="http://www.w3.org/2000/svg">
<path d="M232.459 116.82C232.459 180.91 180.499 232.88 116.389 232.88C52.2789 232.88 0.289062 180.91 0.289062 116.82C0.289062 52.7098 52.2689 0.72998 116.389 0.72998C180.499 0.72998 232.459 52.6998 232.459 116.82Z" fill="url(#paint0_linear_2602_1233)"/>
<path d="M116.389 214.43C55.4089 214.43 5.36894 167.34 0.658936 107.59C0.428936 110.66 0.289062 113.69 0.289062 116.82C0.289062 180.91 52.2689 232.88 116.389 232.88C180.499 232.88 232.459 180.91 232.459 116.82C232.459 113.69 232.309 110.67 232.109 107.59C227.379 167.35 177.399 214.43 116.389 214.43Z" fill="url(#paint1_linear_2602_1233)"/>
<path opacity="0.5" d="M215.929 71.6201C199.319 32.8901 160.909 5.77979 116.109 5.77979C56.0894 5.77979 7.44922 54.4001 7.44922 114.37C7.44922 127.45 9.77935 140.06 14.0793 151.68C40.1593 111.05 102.679 42.1901 215.929 71.6201Z" fill="url(#paint2_linear_2602_1233)"/>
<path d="M82.5779 114.02V103.45H108.548V137.08H99.8777L98.5278 129.3C95.9578 132.18 93.7577 134.22 91.9277 135.43C88.3977 137.69 84.1279 138.81 79.1079 138.81C71.1279 138.81 64.5178 136.09 59.2678 130.65C53.4278 124.64 50.5078 116.45 50.5078 106.07C50.5078 96.8798 52.9579 89.28 57.8679 83.27C63.4279 76.53 71.1378 73.1602 81.0078 73.1602C89.6678 73.1602 96.5577 75.5899 101.688 80.4399C106.028 84.5299 108.198 89.0801 108.198 94.1001H95.2078C95.2078 92.3201 94.1077 90.3401 91.9077 88.1401C89.1477 85.3201 85.7277 83.9102 81.6677 83.9102C76.5877 83.9102 72.4578 85.6298 69.2778 89.0698C65.6378 93.0698 63.8179 98.8002 63.8179 106.24C63.8179 114.02 65.7078 119.7 69.4878 123.29C72.5378 126.25 76.6479 127.73 81.8379 127.73C85.6679 127.73 88.9279 126.5 91.6079 124.05C94.2879 121.6 96.0677 118.26 96.9377 114.03H82.5779V114.02Z" fill="white"/>
<path d="M120.477 105.89C120.477 97.0401 122.437 89.9002 126.357 84.4902C129.427 80.2002 133.617 77.12 138.917 75.23C142.727 73.85 146.577 73.1602 150.467 73.1602C154.387 73.1602 158.167 73.8199 161.807 75.1499C167.107 77.0999 171.297 80.1802 174.367 84.4102C178.287 89.8202 180.247 96.9899 180.247 105.9C180.247 114.73 178.287 121.89 174.367 127.39C171.297 131.65 167.107 134.77 161.807 136.74C158.057 138.12 154.277 138.81 150.467 138.81C146.467 138.81 142.637 138.15 139.007 136.82C133.707 134.85 129.517 131.76 126.447 127.56C122.467 122 120.477 114.78 120.477 105.89ZM133.457 105.89C133.457 113.73 135.387 119.55 139.247 123.36C142.207 126.27 145.947 127.72 150.457 127.72C154.827 127.72 158.497 126.27 161.457 123.36C165.317 119.55 167.247 113.73 167.247 105.89C167.247 98.0801 165.317 92.2998 161.457 88.5498C158.497 85.6698 154.827 84.2402 150.457 84.2402C146.057 84.2402 142.347 85.6798 139.337 88.5498C135.417 92.3598 133.457 98.1401 133.457 105.89ZM155.757 55.98L165.617 68.6299H155.927L150.386 61.52L144.807 68.6299H135.117L145.017 55.98H155.757Z" fill="white"/>
<defs>
<linearGradient id="paint0_linear_2602_1233" x1="116.373" y1="0.72898" x2="116.373" y2="232.876" gradientUnits="userSpaceOnUse">
<stop stop-color="#EF484A"/>
<stop offset="1" stop-color="#661019"/>
</linearGradient>
<linearGradient id="paint1_linear_2602_1233" x1="0.287163" y1="170.232" x2="232.459" y2="170.232" gradientUnits="userSpaceOnUse">
<stop stop-color="#121617"/>
<stop offset="0.489" stop-color="#687581"/>
<stop offset="0.6044" stop-color="#687581"/>
<stop offset="1" stop-color="#121617"/>
</linearGradient>
<linearGradient id="paint2_linear_2602_1233" x1="429.257" y1="78.729" x2="36.2775" y2="78.729" gradientUnits="userSpaceOnUse">
<stop stop-color="white"/>
<stop offset="0.1442" stop-color="#E3E3E4"/>
<stop offset="0.4565" stop-color="#9B9D9D"/>
<stop offset="0.9098" stop-color="#292D2E"/>
<stop offset="1" stop-color="#121617"/>
</linearGradient>
</defs>
</svg>
