<svg width="84" height="63" viewBox="0 0 84 63" fill="none" xmlns="http://www.w3.org/2000/svg">
<path d="M72.83 55.1101C75.76 55.3401 76.8802 57.7101 75.0502 58.1501C73.2302 58.5901 68.2799 58.3 66.8099 58.26C64.4499 58.18 57.9499 58.8101 57.8099 56.5901C57.7199 55.0901 62.1701 55.04 64.7201 54.99C67.0601 54.94 69.56 54.8601 72.83 55.1101Z" fill="#E7E9E8"/>
<path d="M54.9392 28.7299C54.9392 28.7299 57.6493 30.4298 61.7393 30.5898C62.4793 30.6198 63.2192 32.2498 61.3792 32.1098C59.5092 31.9698 56.9993 31.4798 54.5093 30.0898C54.5093 30.0898 53.9492 29.75 53.9492 29.56C53.9592 28.31 54.9392 28.7299 54.9392 28.7299Z" fill="#F7CAAB"/>
<path d="M56.0275 33.1899C55.7975 33.2599 54.7973 31.1397 54.0673 28.7197C53.9273 28.3397 53.8175 27.9497 53.7375 27.6797C53.4575 26.6197 52.4674 21.5199 52.6774 21.4599C52.9474 21.3799 54.4674 26.3198 54.9074 27.6098C54.9874 27.8998 55.1873 28.3098 55.3173 28.5698C56.0173 30.9898 56.2275 33.1299 56.0275 33.1899Z" fill="#E13A27"/>
<path d="M52.5787 22.46C52.3387 22.44 51.3288 21.9099 51.4288 20.9399C51.5088 20.1199 52.0388 19.3301 51.6388 18.5801C53.1788 19.2401 53.9889 21.05 53.2189 22.23C52.8089 22.38 52.5787 22.46 52.5787 22.46Z" fill="#3E3A38"/>
<path d="M52.5078 22.4599C52.5378 22.5499 52.6479 22.8399 52.7979 22.9199C52.9379 22.9299 53.2378 22.7798 53.2378 22.7798C53.2378 22.7798 53.3478 22.4299 53.1978 22.2099C52.9978 22.1499 52.5778 22.2899 52.5078 22.4599Z" fill="#DBDBD9"/>
<path d="M51.529 18.23C51.529 18.23 51.869 18.8996 51.529 19.8896C51.299 20.5696 51.3189 21.0001 51.9489 20.8301C52.5889 20.6601 53.3689 20.3298 53.4489 21.5898C54.2189 20.9598 53.659 18.38 51.529 18.23Z" fill="#FFD00A"/>
<path d="M54.4107 30.36C54.6507 30.31 55.1906 30.0602 55.1306 29.8302C55.0706 29.6002 54.5508 29.63 54.5508 29.63C54.5508 29.63 55.1507 29.3698 55.0107 29.1198C54.9007 28.9298 54.3008 29.11 54.3008 29.11C54.3008 29.11 54.8306 28.7001 54.6206 28.5001C54.4906 28.3801 54.1006 28.59 54.1006 28.59C54.1006 28.59 54.3707 28.1101 54.1607 27.9201C53.9507 27.7301 53.4106 28.24 53.3406 28.59C53.2906 28.87 53.6607 28.8102 53.6607 28.8102C53.6607 28.8102 53.3707 28.9902 53.5007 29.3302C53.5807 29.5302 53.8806 29.4098 53.8806 29.4098C53.8806 29.4098 53.5907 29.6202 53.6907 29.8102C53.7907 30.0002 54.1506 29.86 54.1506 29.86C54.1506 29.86 53.8207 30.49 54.4107 30.36Z" fill="#F7CAAB"/>
<path d="M54.6902 27.63C54.9702 27.56 55.2901 27.62 55.6301 28.07C56.1301 28.73 55.7603 29.5301 55.5503 29.4801C55.2603 29.4101 55.1602 28.4298 55.1602 28.4298C55.1602 28.4298 54.7102 28.5101 54.4602 28.2301C54.0902 27.8001 54.5102 27.67 54.6902 27.63Z" fill="#F7CAAB"/>
<path d="M62.7188 44.0497C62.7188 44.0497 62.7188 50.5199 62.7188 54.2299C63.3587 54.4299 63.8086 53.6796 63.8086 53.6796C63.8086 53.6796 63.8086 47.69 63.8086 44.08C63.5786 43.46 62.7188 44.0497 62.7188 44.0497Z" fill="#F7CAAB"/>
<path d="M63.7586 54.8599C63.8686 55.1499 64.1186 55.51 63.4286 56.04C62.7386 56.57 61.8485 57.0299 60.8685 56.6499C60.0485 56.3299 60.5985 55.4297 60.5985 55.4297L63.7586 54.8599Z" fill="#CDCFCF"/>
<path d="M63.7784 53.5898C63.9684 53.7998 63.8882 54.86 63.8182 54.98C63.4882 55.55 62.1584 56.4298 60.9684 56.0498C60.0384 55.7498 60.7084 54.9799 61.2184 54.6899C61.7284 54.3999 62.7184 53.5601 62.7184 53.5601C62.7184 53.5601 62.7584 54.1098 63.7784 53.5898Z" fill="#A75487"/>
<path d="M63.4181 53.7499C63.4781 53.7099 63.6681 53.2297 63.5781 53.0697C63.4181 52.7697 62.4581 52.7596 62.4181 52.9296C62.3381 53.2096 62.5881 53.6498 62.5881 53.6498C62.5881 53.6498 62.9781 53.9599 63.4181 53.7499Z" fill="#E7E4E5"/>
<path d="M62.267 53.8397C62.647 53.7497 63.1468 53.9496 63.3168 54.2196C63.4868 54.4896 63.2568 54.6796 63.1068 54.6596C62.9568 54.6396 62.5169 54.4097 62.0069 54.3197C61.5069 54.2297 61.967 53.9097 62.267 53.8397Z" fill="#E7E4E5"/>
<path d="M61.4974 54.3998C61.8774 54.3098 62.3775 54.5097 62.5475 54.7797C62.7175 55.0497 62.4873 55.2396 62.3373 55.2196C62.1873 55.1996 61.7474 54.9698 61.2374 54.8798C60.7374 54.7998 61.1974 54.4798 61.4974 54.3998Z" fill="#E7E4E5"/>
<path d="M67.7281 44.4896C67.7281 44.4896 73.3679 47.6696 76.5879 49.4896C77.0779 49.0296 76.648 48.2796 76.648 48.2796C76.648 48.2796 71.4281 45.3299 68.2881 43.5599C67.6281 43.4499 67.7281 44.4896 67.7281 44.4896Z" fill="#F7CAAB"/>
<path d="M77.7078 48.8599C78.0178 48.8999 78.3778 48.85 78.5078 49.71C78.6378 50.57 78.6078 51.63 77.7878 52.29C77.0978 52.85 76.5977 51.9297 76.5977 51.9297L77.7078 48.8599Z" fill="#CDCFCF"/>
<path d="M76.5178 48.1796C76.7978 48.1196 77.7377 48.7796 77.8477 48.9296C77.9577 49.5796 78.2376 51.0696 77.3176 51.9096C76.5976 52.5696 76.2578 51.6097 76.2578 51.0297C76.2578 50.4397 76.0078 49.1699 76.0078 49.1699C76.0078 49.1699 76.4678 49.3296 76.5178 48.1796Z" fill="#A75487"/>
<path d="M76.5181 48.6396C76.5081 48.5596 76.1881 48.1699 76.0081 48.1699C75.6681 48.1699 75.1879 48.9899 75.3079 49.1099C75.5179 49.3199 76.0181 49.3198 76.0181 49.3198C76.0181 49.3198 76.4781 49.1396 76.5181 48.6396Z" fill="#E7E4E5"/>
<path d="M76.0297 49.6897C76.1297 49.3197 76.5596 48.9697 76.8796 48.9597C77.1896 48.9497 77.2496 49.2396 77.1596 49.3596C77.0696 49.4796 76.6495 49.7497 76.3195 50.1497C75.9995 50.5497 75.9497 49.9797 76.0297 49.6897Z" fill="#E7E4E5"/>
<path d="M76.1372 50.5999C76.2372 50.2299 76.6673 49.8794 76.9873 49.8694C77.2973 49.8594 77.3574 50.1498 77.2674 50.2698C77.1774 50.3898 76.7573 50.6598 76.4273 51.0598C76.0973 51.4598 76.0472 50.8999 76.1372 50.5999Z" fill="#E7E4E5"/>
<path d="M69.2501 30.1001C69.2501 30.1001 68.59 29.9698 67.95 29.7598C67.92 29.0998 68.0799 28.3696 68.0799 28.3696L66.88 28.1997C66.88 28.1997 66.7401 29.28 66.7401 29.71C65.8501 29.9 65.11 29.9897 65.11 29.9897C65.11 29.9897 64.6801 32.1496 66.9801 32.3696C67.7901 32.4296 69.0301 31.6001 69.2501 30.1001Z" fill="#F7CAAB"/>
<path d="M66.9089 28.2998L67.8489 28.3799C67.8489 28.3799 67.7991 29.4898 67.7891 29.7998C67.5091 29.4498 67.0489 29.37 66.8789 29.71C66.8989 29.09 66.9089 28.2998 66.9089 28.2998Z" fill="#EEBA93"/>
<path d="M64.928 30.1196C65.498 33.0596 67.9679 32.8799 69.3379 29.9399C72.0579 30.1499 72.398 32.5801 71.208 34.1001C71.168 35.7501 71.2579 41.8096 71.3279 43.3696C71.3279 43.3696 67.268 45.4898 61.678 43.3398C61.678 43.3398 63.5781 35.0198 63.2881 33.5898C62.1481 33.6498 61.1281 33.2399 61.0281 33.1699C60.7581 32.9999 61.1079 30.8297 61.5579 30.1597C62.2679 30.3397 63.108 30.3596 64.928 30.1196Z" fill="#E25582"/>
<path d="M65.3869 29.9199C65.3069 30.8999 65.747 31.5697 66.757 31.6597C68.057 31.7797 68.697 30.9201 68.767 29.8501C69.107 29.9401 69.717 29.98 69.717 29.98C69.717 29.98 69.747 32.4896 66.927 32.6196C64.247 32.7496 64.457 30.02 64.457 30.02L65.3869 29.9199Z" fill="#F3F1EE"/>
<path d="M61.3989 30.1396C60.8889 31.2096 60.7791 32.0998 60.7991 33.2798C61.0991 33.3898 61.5588 33.46 61.5588 33.46C61.5088 32.93 61.7391 31.59 62.2791 30.25C61.8991 30.14 61.3989 30.1396 61.3989 30.1396Z" fill="#F3F1EE"/>
<path d="M72.291 26.2902C71.801 26.9502 72.1308 27.66 72.8608 27.59C71.4108 28.52 71.9609 29.82 73.0109 29.26C72.2109 30.4 73.4008 30.3703 73.8608 30.1003C72.5708 31.9203 75.9409 33.1899 76.9809 30.6799C76.7709 32.8099 77.9108 31.5901 78.1008 30.6101C78.9208 33.0601 82.6908 30.4403 80.4008 28.0603C81.5908 28.1003 81.3608 26.9901 80.5608 26.6901C82.2708 26.9601 82.1908 24.2 80.3408 24.59C81.4408 23.66 80.1209 23.52 79.6909 23.8C80.7009 22.91 79.6909 22.1999 78.7509 22.6599C79.8309 21.2199 77.4109 21.4298 76.7209 22.1398C76.0209 22.8298 72.841 25.5502 72.291 26.2902Z" fill="#C67B33"/>
<path d="M74.9688 25.48C74.9688 25.48 78.0687 27.1199 79.6787 26.4399C79.7687 25.0399 78.8987 23.77 78.8987 23.77L74.9688 25.48Z" fill="#F5BD1B"/>
<path d="M75.0085 25.3799C75.0085 25.3799 76.4384 28.2001 75.8584 29.8501C74.4684 30.0301 73.1484 29.2397 73.1484 29.2397L75.0085 25.3799Z" fill="#F5BD1B"/>
<path d="M76.8186 21.2698C76.2486 26.5698 71.7286 29.6597 66.6186 29.1097C61.5086 28.5597 57.7486 24.5796 58.3286 19.2796C58.8986 13.9796 63.4786 10.3097 68.5886 10.8597C73.6986 11.4097 77.3986 15.9598 76.8186 21.2698Z" fill="#F7CAAB"/>
<path d="M76.4509 21.27C76.4509 21.27 76.691 20.2097 78.011 20.1597C79.401 20.1097 79.811 21.96 78.981 22.98C78.151 24 76.6209 23.8898 76.2109 23.0098L76.4509 21.27Z" fill="#F7CAAB"/>
<path d="M78.2428 20.6498C77.3528 20.4298 76.5227 21.9598 77.6827 22.8598C77.2427 21.7098 77.7426 21.3598 78.3526 21.9398C78.3726 21.5798 78.1626 21.33 77.6226 21.33C77.6926 20.85 78.2428 20.6498 78.2428 20.6498Z" fill="#D38160"/>
<path d="M58.6395 19.3503C58.6395 19.3503 58.6295 18.2599 57.3495 17.9299C55.9995 17.5899 55.2097 19.3102 55.7997 20.4802C56.3897 21.6502 57.9196 21.8803 58.4996 21.1003L58.6395 19.3503Z" fill="#F7CAAB"/>
<path d="M57.0208 18.3695C57.9308 18.3395 58.4306 20.0098 57.1006 20.6498C57.7706 19.6198 57.3606 19.1698 56.6406 19.6098C56.7006 19.2498 56.9507 19.0498 57.4807 19.1698C57.5207 18.6798 57.0208 18.3695 57.0208 18.3695Z" fill="#D38160"/>
<path d="M68.1384 19.8999C67.9884 20.4399 66.4784 20.9297 66.9384 21.6597C67.2184 22.1097 67.9883 22.09 68.0783 21.25C68.1383 20.76 68.1384 19.8999 68.1384 19.8999Z" fill="#EB7A61"/>
<path d="M70.6595 23.5803C70.5995 24.1303 71.3795 24.6602 72.3995 24.7702C73.4195 24.8802 74.2894 24.5302 74.3494 23.9802C74.4094 23.4302 73.6294 22.9002 72.6094 22.7902C71.5894 22.6802 70.7095 23.0303 70.6595 23.5803Z" fill="#EB7A61"/>
<path d="M60.179 22.4495C60.119 22.9995 60.899 23.5294 61.919 23.6394C62.939 23.7494 63.809 23.3999 63.869 22.8499C63.929 22.2999 63.149 21.7694 62.129 21.6594C61.109 21.5494 60.239 21.9095 60.179 22.4495Z" fill="#EB7A61"/>
<path d="M64.6193 23.1195C65.3893 22.7195 65.5793 23.4998 67.1893 23.6698C68.8293 23.8398 69.1493 23.0799 69.8693 23.7699C70.4593 24.3399 69.6093 27.1097 66.9193 26.7997C64.2093 26.4797 63.8793 23.4995 64.6193 23.1195Z" fill="#5C2B26"/>
<path d="M68.8274 26.4001C68.3474 26.7101 67.7075 26.89 66.9075 26.8C66.1575 26.71 65.5975 26.4203 65.1875 26.0403C65.6575 25.9303 66.2874 25.8902 67.0774 25.9802C67.8274 26.0502 68.4074 26.2101 68.8274 26.4001Z" fill="#E9726A"/>
<path d="M64.8877 23.02C65.4577 22.91 65.7777 23.5199 67.1777 23.6699C68.5977 23.8199 69.0176 23.2701 69.5776 23.5601C69.4876 24.3301 68.2276 24.7699 67.0976 24.6299C65.9776 24.4999 64.7977 23.78 64.8877 23.02Z" fill="white"/>
<path d="M70.982 19.8299C70.542 20.6899 70.8519 21.7097 71.6519 22.1297C72.4619 22.5397 73.4719 22.1796 73.9019 21.3196C74.3419 20.4596 74.032 19.4398 73.232 19.0198C72.422 18.6098 71.412 18.9699 70.982 19.8299Z" fill="white"/>
<path d="M71.5409 20.1098C71.2709 20.6398 71.4609 21.2697 71.9609 21.5297C72.4609 21.7797 73.0808 21.5597 73.3508 21.0297C73.6208 20.4997 73.4308 19.8698 72.9308 19.6098C72.4308 19.3598 71.8109 19.5798 71.5409 20.1098Z" fill="#2B2926"/>
<path d="M72.6334 20.2999C72.6234 20.4699 72.7434 20.6197 72.9034 20.6397C73.0634 20.6497 73.2135 20.5301 73.2235 20.3501C73.2335 20.1801 73.1235 20.0298 72.9535 20.0098C72.7935 19.9998 72.6434 20.1299 72.6334 20.2999Z" fill="white"/>
<path d="M71.6924 20.9398C71.6824 21.0498 71.7523 21.1398 71.8623 21.1498C71.9623 21.1598 72.0522 21.0796 72.0622 20.9696C72.0722 20.8596 71.9923 20.7696 71.8923 20.7596C71.7923 20.7496 71.7024 20.8298 71.6924 20.9398Z" fill="white"/>
<path d="M74.271 20.0199C74.271 20.0199 73.1209 18.3596 71.2109 19.2596C73.1709 17.5396 74.271 20.0199 74.271 20.0199Z" fill="#7E472F"/>
<path d="M64.3486 19.1098C64.5886 20.0398 64.0787 20.9799 63.1987 21.2099C62.3187 21.4399 61.4086 20.8698 61.1686 19.9398C60.9286 19.0098 61.4385 18.0697 62.3185 17.8397C63.1985 17.6197 64.1086 18.1798 64.3486 19.1098Z" fill="white"/>
<path d="M63.7391 19.2701C63.8891 19.8401 63.5692 20.4199 63.0292 20.5699C62.4892 20.7099 61.9292 20.3601 61.7792 19.7901C61.6292 19.2201 61.9491 18.6398 62.4891 18.4898C63.0291 18.3498 63.5891 18.7001 63.7391 19.2701Z" fill="#2B2926"/>
<path d="M62.6394 19.2199C62.6194 19.3899 62.4693 19.51 62.3093 19.49C62.1493 19.47 62.0293 19.3099 62.0593 19.1399C62.0793 18.9699 62.2294 18.8499 62.3894 18.8699C62.5494 18.8999 62.6594 19.0499 62.6394 19.2199Z" fill="white"/>
<path d="M63.4177 20.0498C63.4077 20.1598 63.3077 20.2297 63.2077 20.2197C63.1077 20.2097 63.0378 20.11 63.0478 20C63.0578 19.89 63.1578 19.82 63.2578 19.83C63.3678 19.85 63.4377 19.9398 63.4177 20.0498Z" fill="white"/>
<path d="M61.0898 18.6097C61.0898 18.6097 62.56 17.2396 64.24 18.5096C62.69 16.4096 61.0898 18.6097 61.0898 18.6097Z" fill="#7E472F"/>
<path d="M63.0099 15.7796C63.9599 15.5096 64.17 16.5499 63.53 16.5599C62.85 16.5599 62.2799 16.8098 62.1999 16.7498C62.0099 16.6098 62.4699 15.9296 63.0099 15.7796Z" fill="#C67B33"/>
<path d="M73.1405 17.0802C72.2105 16.7302 71.9207 17.7599 72.5507 17.8199C73.2307 17.8799 73.7705 18.1697 73.8605 18.1197C74.0705 17.9797 73.6605 17.2702 73.1405 17.0802Z" fill="#C67B33"/>
<path d="M67.8391 6.94964C68.6891 4.78964 70.3991 4.32972 70.6191 6.77972C71.8991 5.46972 72.5392 6.21972 72.2892 7.27972C73.5992 5.70972 76.7192 5.82003 76.1892 8.35003C77.1092 7.83003 78.9691 8.72997 78.1291 9.78997C79.7291 8.64997 82.1692 10.2898 81.2592 12.5898C83.3092 12.5998 84.0591 15.1598 81.3991 15.8398C83.2891 16.5798 82.5191 19.7299 80.6291 18.7299C81.5491 20.6599 80.2591 22.9697 78.8691 20.7997C78.4591 22.1497 77.5192 21.0196 77.2292 20.3896C76.3892 22.1896 74.5791 19.2299 76.0991 17.6699C74.5591 18.4899 73.8992 16.2498 74.2392 15.5698C73.0292 17.3598 72.1891 15.6999 73.0991 14.9399C72.0191 15.5499 70.4991 15.6996 70.3691 14.1396C69.3791 14.3796 68.049 13.1296 69.069 12.4296C68.209 12.4396 65.8292 11.3097 66.2092 13.2797C66.5892 15.2397 62.8992 14.0697 62.2692 12.9697C62.6092 15.0497 60.8591 16.1399 59.9191 15.4599C61.1891 17.7099 59.659 18.65 58.819 17.6C59.099 19.52 56.3291 19.2499 56.6491 17.9199C55.4491 18.6099 54.7892 16.9197 55.9892 16.0297C54.2492 16.3497 54.359 13.0796 56.319 12.9096C54.759 12.2796 55.5992 11.1997 56.2892 11.2397C55.3592 10.0097 56.4592 8.3197 57.9492 9.0097C56.5392 6.9397 59.8492 5.62986 60.7092 6.16986C60.3592 4.69986 61.5692 3.52999 62.5392 6.05999C63.4492 4.73999 64.3191 5.67996 64.3791 6.51995C65.3691 4.42996 67.5491 4.40964 67.8391 6.94964Z" fill="#E39749"/>
<path d="M55.2808 16.77C54.9308 20 57.2707 22.92 60.5007 23.27C63.2607 23.57 65.8007 21.8996 66.6907 19.3896L68.7407 19.6196C69.0707 22.2696 71.1807 24.4499 73.9507 24.7499C77.1807 25.0999 80.1007 22.7597 80.4507 19.5297C80.8007 16.2997 78.4607 13.3797 75.2307 13.0297C72.0007 12.6797 69.0807 15.0199 68.7307 18.2499C68.7107 18.3999 68.7107 18.5399 68.7007 18.6899L66.9307 18.4999C66.9607 18.3599 66.9807 18.21 67.0007 18.06C67.3507 14.83 65.0108 11.91 61.7808 11.56C58.5508 11.2 55.6408 13.54 55.2808 16.77ZM56.2007 16.8696C56.5007 14.1396 58.9607 12.1697 61.6907 12.4697C64.4207 12.7697 66.3906 15.2296 66.0906 17.9496C65.7906 20.6696 63.3306 22.65 60.6006 22.35C57.8706 22.06 55.9007 19.5996 56.2007 16.8696ZM69.6506 18.35C69.9506 15.62 72.4106 13.6496 75.1306 13.9496C77.8606 14.2496 79.8308 16.7096 79.5308 19.4296C79.2308 22.1596 76.7708 24.13 74.0508 23.83C71.3208 23.53 69.3506 21.07 69.6506 18.35Z" fill="#3E3A38"/>
<path d="M74.668 3.61946C74.668 3.61946 77.2279 1.18952 78.3579 2.17952C79.4879 3.16952 74.918 4.16975 74.918 4.16975L74.668 3.61946Z" fill="#3E3A38"/>
<path d="M80.0674 13.4298C80.3874 14.4198 82.1474 13.4598 80.8474 9.92976C78.7874 4.34976 71.2475 0.159921 63.9775 0.589921C56.7075 1.01992 58.6376 6.22012 61.5376 7.29012C66.0576 7.01012 70.7276 7.54992 75.4976 9.58992C78.5176 10.8699 79.8474 12.7398 80.0674 13.4298Z" fill="#E25582"/>
<path d="M73.2891 45.96C73.2891 45.96 63.7689 47.6897 59.8789 45.6797C61.3189 36.0097 63.2891 30.23 63.2891 30.23L64.1289 30.21L63.3989 33.7998L68.759 34.0698L69.719 29.9297L70.5789 30.1299L69.8889 34.5098L71.3789 34.8398L73.2891 45.96Z" fill="#E3E2E2"/>
<path d="M71.0797 38.8698C71.0497 39.3998 70.8299 40.06 70.5199 39.49C70.2199 38.92 69.9098 37.8702 69.7398 37.4602C69.4798 36.7702 71.3397 34.0498 71.0797 38.8698Z" fill="#009181"/>
<path d="M69.0596 39.8599C68.8296 39.6499 68.7697 38.7897 68.9297 38.4697C69.0897 38.1497 69.2897 38.7398 69.3697 39.2998C69.4097 39.7098 69.2896 40.0699 69.0596 39.8599Z" fill="#009181"/>
<path d="M68.4389 42.2702C68.2589 41.6802 68.9788 41.5698 69.0888 42.3898C69.2688 43.6898 68.6189 42.8602 68.4389 42.2702Z" fill="#EEAFCF"/>
<path d="M65.7672 44.8101C65.1472 43.4501 66.6171 43.5098 67.1171 44.7398C68.1271 47.2198 66.3972 46.1701 65.7672 44.8101Z" fill="#EEAFCF"/>
<path d="M70.8671 45.1997C70.7871 44.4597 70.2071 43.0298 69.8571 43.7998C69.5071 44.5698 70.6172 46.1799 70.7172 45.9399C70.8172 45.6999 70.9171 45.6697 70.8671 45.1997Z" fill="#F6BA29"/>
<path d="M64.5275 41.8196C64.7575 41.1796 65.2374 40.9895 64.7274 43.2395C64.2174 45.4895 64.1074 44.7095 64.1374 44.2395C64.1674 43.7695 64.2175 42.6696 64.5275 41.8196Z" fill="#0B60A6"/>
<path d="M60.3289 44.8499C60.5489 45.1999 63.4991 44.5797 63.2691 43.7097C63.0391 42.8397 62.4591 42.9299 61.7091 43.5799C60.9691 44.2399 60.1889 44.6199 60.3289 44.8499Z" fill="#E35B25"/>
<path d="M70.9108 42.0002C71.8308 41.6802 72.5309 40.8501 72.2909 40.3801C72.0509 39.9201 69.5208 42.4902 70.9108 42.0002Z" fill="#E35B25"/>
<path d="M63.9192 36.94C63.2292 37.02 62.7392 37.1799 62.1492 37.5699C61.5592 37.9599 61.5191 38.7799 62.1191 38.8799C62.7191 38.9799 62.8691 37.9798 63.6191 37.5298C64.3691 37.0698 64.4892 36.88 63.9192 36.94Z" fill="#039CD0"/>
<path d="M60.9687 41.8C60.7887 42.39 61.3387 42.5099 61.7587 41.6799C62.1787 40.8499 61.4887 40.07 60.9687 41.8Z" fill="#039CD0"/>
<path d="M61.3778 35.7399C61.3778 35.7399 64.5778 35.7399 68.1278 33.6999C68.7678 33.3299 70.2678 34.3198 68.6278 35.1798C66.9678 36.0598 64.5779 36.9698 61.7279 37.1198C61.7279 37.1198 61.0779 37.1299 60.9779 36.9699C60.3279 35.9099 61.3778 35.7399 61.3778 35.7399Z" fill="#F7CAAB"/>
<path d="M54.9574 37.1901C54.8374 38.8201 57.2873 40.33 60.4373 40.57C63.5873 40.81 66.2473 39.6902 66.3773 38.0602C66.4273 37.3902 63.4774 37.2899 62.7774 36.7399C61.7874 35.9599 62.7473 34.8198 60.8873 34.6798C57.7473 34.4498 55.0874 35.5701 54.9574 37.1901Z" fill="#D38A47"/>
<path d="M54.9964 36.8895C54.8764 38.4195 57.3064 39.8597 60.4164 40.0897C63.5264 40.3297 66.1465 39.2799 66.2665 37.7499C66.3165 37.1399 63.5464 37.09 62.9064 36.58C61.9364 35.8 62.7263 34.6899 60.8463 34.5399C57.7363 34.3099 55.1164 35.3595 54.9964 36.8895Z" fill="#E3AE7A"/>
<path d="M63.1178 38.1501C63.0978 38.4301 63.5378 38.6902 64.0978 38.7302C64.6578 38.7702 65.1379 38.5802 65.1579 38.3102C65.1779 38.0302 64.7379 37.7702 64.1779 37.7302C63.6179 37.6902 63.1378 37.8701 63.1178 38.1501Z" fill="#0B60A6"/>
<path d="M61.1374 39.07C61.1174 39.35 61.5574 39.6101 62.1174 39.6501C62.6774 39.6901 63.1574 39.5002 63.1774 39.2302C63.1974 38.9502 62.7574 38.6901 62.1974 38.6501C61.6374 38.6001 61.1574 38.79 61.1374 39.07Z" fill="#FFD00A"/>
<path d="M58.6374 38.9601C58.6174 39.2401 59.0574 39.5002 59.6174 39.5402C60.1774 39.5802 60.6574 39.3898 60.6774 39.1198C60.6974 38.8398 60.2574 38.5802 59.6974 38.5402C59.1374 38.4902 58.6674 38.6801 58.6374 38.9601Z" fill="#EDF4F9"/>
<path d="M56.4577 37.9897C56.4377 38.2697 56.8777 38.5298 57.4377 38.5698C57.9977 38.6098 58.4777 38.4199 58.4977 38.1499C58.5177 37.8699 58.0777 37.6098 57.5177 37.5698C56.9477 37.5298 56.4777 37.7197 56.4577 37.9897Z" fill="#E13A27"/>
<path d="M55.6569 36.61C55.6369 36.89 56.0769 37.1501 56.6369 37.1901C57.1969 37.2301 57.6769 37.0402 57.6969 36.7702C57.7169 36.4902 57.277 36.2301 56.717 36.1901C56.157 36.1401 55.6769 36.33 55.6569 36.61Z" fill="#48B7E7"/>
<path d="M57.0788 35.6298C57.0588 35.9098 57.4988 36.1699 58.0588 36.2099C58.6188 36.2499 59.0988 36.06 59.1188 35.79C59.1388 35.51 58.6988 35.2499 58.1388 35.2099C57.5788 35.1699 57.1088 35.3598 57.0788 35.6298Z" fill="#009886"/>
<path d="M61.7388 35.4897C61.4788 35.3397 61.1787 34.99 60.3087 34.98C59.9787 34.99 59.4288 35.4301 59.9588 35.6001C60.1188 35.6501 60.4489 35.7099 60.5489 35.8799C60.5289 36.2099 62.3988 35.8697 61.7388 35.4897Z" fill="#F7CAAB"/>
<path d="M68.4102 33.1002C68.4102 33.1002 69.7602 35.1299 70.2102 35.2999C71.1002 34.6199 71.9701 33.3101 71.8701 32.0401C71.7701 30.7701 70.7502 30.6299 70.4202 31.2599C70.0902 31.8799 68.4102 33.1002 68.4102 33.1002Z" fill="#E25582"/>
<path d="M69.7087 35.8101C68.3287 34.4101 68.3286 34.4101 67.8086 33.3501C68.0286 33.1201 68.4587 32.8501 68.4587 32.8501C68.6587 33.3501 69.3087 34.2797 70.3987 35.2197C70.1187 35.4897 69.7087 35.8101 69.7087 35.8101Z" fill="#F3F1EE"/>
<path d="M49.3801 49.79L44.8002 49.0498V49.0298C44.3602 48.8298 44.15 47.88 44.33 46.79C44.51 45.71 45.0102 44.8698 45.4902 44.8198V44.7998L50.07 45.54L49.3801 49.79Z" fill="#F1A91E"/>
<path d="M50.8605 50.3398L49.0206 50.04V50.02C48.5206 49.79 48.2806 48.6997 48.4806 47.4697C48.6806 46.2297 49.2507 45.2797 49.8007 45.2197V45.1997L51.6405 45.5L50.8605 50.3398Z" fill="#FBC712"/>
<path d="M52.6298 48.3238C52.8467 46.9882 52.5498 45.8287 51.9665 45.734C51.3832 45.6392 50.7347 46.6452 50.5178 47.9808C50.3009 49.3165 50.5977 50.4762 51.181 50.5709C51.7643 50.6656 52.4129 49.6595 52.6298 48.3238Z" fill="#FFD45D"/>
<path d="M47.1504 47.25C46.9604 48.42 47.2204 49.44 47.7304 49.52L46.1203 49.2598V49.2397C45.6803 49.0397 45.4704 48.09 45.6504 47C45.8304 45.92 46.3303 45.0798 46.8103 45.0298V45.0098L48.4204 45.27C47.9104 45.2 47.3404 46.08 47.1504 47.25Z" fill="#FFD45D"/>
<path d="M18.6282 54.23V58.8696H18.6082C18.4782 59.3396 17.5783 59.6997 16.4783 59.6997C15.3783 59.6997 14.4781 59.3396 14.3481 58.8696H14.3281V54.23H18.6282Z" fill="#D92127"/>
<path d="M18.939 52.6797V54.54H18.9189C18.7689 55.07 17.739 55.48 16.489 55.48C15.239 55.48 14.1988 55.07 14.0588 54.54H14.0391V52.6797H18.939Z" fill="#E44427"/>
<path d="M16.489 53.75C17.8421 53.75 18.939 53.2706 18.939 52.6797C18.939 52.0887 17.8421 51.6099 16.489 51.6099C15.1359 51.6099 14.0391 52.0887 14.0391 52.6797C14.0391 53.2706 15.1359 53.75 16.489 53.75Z" fill="#E8674A"/>
<path d="M16.49 56.8398C17.68 56.8398 18.6399 56.4199 18.6399 55.8999V57.5298H18.6199C18.4899 57.9998 17.59 58.3599 16.49 58.3599C15.39 58.3599 14.4899 57.9998 14.3599 57.5298H14.3398V55.8999C14.3398 56.4199 15.3 56.8398 16.49 56.8398Z" fill="#E8674A"/>
<path d="M4.8999 51.3501V53.21H4.87988C4.72988 53.74 3.69995 54.1499 2.44995 54.1499C1.19995 54.1499 0.16002 53.74 0.0200195 53.21H0V51.3501H4.8999Z" fill="#7AB84C"/>
<path d="M2.44995 52.4199C3.80305 52.4199 4.8999 51.941 4.8999 51.3501C4.8999 50.7592 3.80305 50.2798 2.44995 50.2798C1.09685 50.2798 0 50.7592 0 51.3501C0 51.941 1.09685 52.4199 2.44995 52.4199Z" fill="#A7CC80"/>
<path d="M12.0615 48.8599V53.5H12.0417C11.9117 53.97 11.0116 54.3301 9.91162 54.3301C8.81162 54.3301 7.91174 53.97 7.78174 53.5H7.76172V48.8599H12.0615Z" fill="#129D49"/>
<path d="M9.91162 51.4697C11.1016 51.4697 12.0615 51.0498 12.0615 50.5298V52.1597H12.0417C11.9117 52.6297 11.0116 52.9897 9.91162 52.9897C8.81162 52.9897 7.91174 52.6297 7.78174 52.1597H7.76172V50.5298C7.77172 51.0498 8.73162 51.4697 9.91162 51.4697Z" fill="#A7CC80"/>
<path d="M9.90991 49.9399C11.1028 49.9399 12.0698 49.5144 12.0698 48.9897C12.0698 48.4651 11.1028 48.04 9.90991 48.04C8.71698 48.04 7.75 48.4651 7.75 48.9897C7.75 49.5144 8.71698 49.9399 9.90991 49.9399Z" fill="#D7E09D"/>
<path d="M9.91162 49.71C10.8229 49.71 11.5615 49.3874 11.5615 48.9897C11.5615 48.5921 10.8229 48.27 9.91162 48.27C9.00035 48.27 8.26172 48.5921 8.26172 48.9897C8.26172 49.3874 9.00035 49.71 9.91162 49.71Z" fill="#A7CC80"/>
<path d="M9.91064 49.71C10.7501 49.71 11.4307 49.513 11.4307 49.27C11.4307 49.027 10.7501 48.8301 9.91064 48.8301C9.07117 48.8301 8.39062 49.027 8.39062 49.27C8.39062 49.513 9.07117 49.71 9.91064 49.71Z" fill="#129D49"/>
<path d="M39.3218 46.9097C39.3218 46.9097 38.572 58.0597 38.292 58.4297C38.002 58.7997 36.7318 59.9897 32.3818 59.9897C28.0318 59.9897 25.8619 58.9197 25.6519 58.4297C25.4519 57.9397 24.6719 46.9697 24.6719 46.9697L39.3218 46.9097Z" fill="#E35B25"/>
<path d="M38.9053 48.1997C37.4653 48.7297 34.9154 49.0898 31.9954 49.0898C29.3554 49.0898 27.0154 48.8001 25.5254 48.3501C24.6254 47.9101 24.4453 47.5498 24.4453 47.5498L39.0952 47.48C39.1052 47.48 39.0253 47.7797 38.9053 48.1997Z" fill="#A41E23"/>
<path d="M23.7734 45.9697H24.0334C24.8034 45.1097 28.0834 44.4697 32.0034 44.4697C35.9234 44.4697 39.1934 45.1097 39.9734 45.9697H40.2334L40.1433 47.1196H40.1333C39.8533 48.0996 36.3234 48.79 32.0134 48.79C27.7034 48.79 24.1733 48.1096 23.8933 47.1196H23.8833L23.7734 45.9697Z" fill="#E35B25"/>
<path d="M23.7734 45.94C23.7734 46.97 27.4534 47.8101 31.9934 47.8101C36.5334 47.8101 40.2134 46.97 40.2134 45.94C40.2134 44.91 36.5334 44.0699 31.9934 44.0699C27.4534 44.0599 23.7734 44.9 23.7734 45.94Z" fill="#E96742"/>
<path d="M25.2148 45.8896C25.2148 46.6996 28.2549 47.3501 31.9949 47.3501C35.7449 47.3501 38.7749 46.6996 38.7749 45.8896C38.7749 45.0796 35.7349 44.4297 31.9949 44.4297C28.2549 44.4297 25.2148 45.0896 25.2148 45.8896Z" fill="#DC2227"/>
<path d="M38.5532 46.27C37.7732 46.89 35.1332 47.3501 32.0032 47.3501C28.8632 47.3501 26.2231 46.89 25.4531 46.27C26.2331 45.65 28.8732 45.1899 32.0032 45.1899C35.1332 45.1899 37.7732 45.65 38.5532 46.27Z" fill="#FBD626"/>
<path d="M29.5354 53.02C30.2755 53.02 30.8752 52.4197 30.8752 51.6797C30.8752 50.9396 30.2755 50.3398 29.5354 50.3398C28.7953 50.3398 28.1953 50.9396 28.1953 51.6797C28.1953 52.4197 28.7953 53.02 29.5354 53.02Z" fill="#DC2227"/>
<path d="M29.5348 51.4897C31.9748 52.8597 34.2446 53.7799 36.0846 54.1499C37.4346 54.4199 39.2148 54.5099 40.0348 53.4199C41.0548 52.0699 39.8447 50.3801 39.1647 49.6001C39.1847 49.3701 39.2047 49.1296 39.2247 48.8896C39.4447 49.1096 39.9747 49.6699 40.3947 50.3999C41.1247 51.6699 41.1447 52.83 40.4547 53.75C39.8947 54.49 38.9447 54.8599 37.6747 54.8599C37.1647 54.8599 36.5947 54.7997 35.9847 54.6797C34.0847 54.2997 31.7648 53.36 29.2748 51.96C29.1448 51.89 29.1047 51.7301 29.1747 51.6001C29.2447 51.4601 29.4048 51.4097 29.5348 51.4897Z" fill="#999999"/>
<path d="M37.5942 54.6097C37.6242 54.3497 37.3542 54.3298 37.0742 54.2898C37.1242 54.0698 37.2844 53.8698 37.5044 53.7698L39.8044 52.7596C40.1944 52.5896 40.6442 52.7697 40.8142 53.1497C40.9842 53.5397 40.8043 53.9895 40.4243 54.1595L38.1243 55.1697C37.7543 55.3297 37.3243 55.1796 37.1343 54.8196C37.3443 54.8596 37.5642 54.8597 37.5942 54.6097Z" fill="#DC2227"/>
<path d="M38.552 46.27C38.752 46.35 39.5319 46.7601 38.7219 47.0601C38.4619 47.1601 38.1618 47.4797 38.4318 48.6797C38.7018 49.8797 38.2418 51.0997 37.3818 50.6597C36.5118 50.2097 37.5018 49.0001 37.6518 48.6001C37.8118 48.2001 37.1219 47.4501 36.1919 47.8101C35.2719 48.1701 35.6718 50.1299 36.1318 50.9399C36.5918 51.7499 36.922 53.9001 35.542 53.8301C34.152 53.7601 33.2019 52.07 34.2019 50.25C35.2019 48.43 34.7618 48.22 33.8818 48C33.0018 47.78 32.4918 48.6499 32.8618 49.6299C33.2218 50.6099 33.5019 51.5498 32.5019 51.5498C31.5019 51.5498 31.1618 49.9898 31.8818 49.0498C32.6018 48.1098 32.1119 48.0399 31.5019 47.9199C30.8919 47.7999 27.8119 47.8601 27.7519 47.5601C27.6919 47.2601 29.0617 47.0601 29.0617 47.0601C29.0617 47.0601 33.892 46.93 38.552 46.27Z" fill="#FBD626"/>
<path d="M27.1319 46.6898C27.7819 46.9698 27.4419 47.2898 26.4119 47.2098C25.2819 47.1198 25.3319 47.4395 25.6219 47.8895C25.9119 48.3395 27.0518 49.7498 26.3118 50.6498C25.5718 51.5398 25.0519 51.5997 24.9119 49.8597C24.7719 48.1197 24.822 47.9397 24.722 47.7997C24.162 47.4997 24.1119 46.9895 24.1719 46.6595C24.1919 46.5395 25.242 46.1999 25.442 46.2899C25.642 46.3499 27.0619 46.6598 27.1319 46.6898Z" fill="#FBD626"/>
<path d="M40.261 59.5497C42.031 59.9097 42.8009 61.3298 40.4609 61.4198C38.2409 61.4998 34.8608 60.9598 35.9008 61.7098C36.9408 62.4598 34.3408 62.8097 32.8408 61.8797C31.3408 60.9597 33.4208 60.1497 35.0908 60.3197C36.7608 60.4897 39.1308 60.3196 37.6308 60.0296C36.1308 59.7396 37.371 58.9697 40.261 59.5497Z" fill="#FBD626"/>
<path d="M29.1224 60.4897C27.8424 60.3897 26.1125 60.2899 25.7725 60.7499C25.5525 61.0399 28.7424 62.1899 30.1424 61.7499C31.5424 61.3099 31.4324 60.6697 29.1224 60.4897Z" fill="#FBD626"/>
<path d="M51.3496 57.3299C44.1396 57.4799 37.9698 57.8596 39.7798 58.7196C41.5898 59.5796 49.0798 59.6599 52.2298 59.3299C55.3898 59.0099 58.3996 57.1899 51.3496 57.3299Z" fill="#FBD626"/>
<path d="M24.1015 58.2098C23.5015 58.2798 23.2817 58.8297 24.8017 59.0897C26.3217 59.3497 27.7314 59.7896 26.0614 59.9696C24.4014 60.1496 20.1816 59.9896 20.5016 58.9496C20.8216 57.9096 22.6916 57.5099 24.4716 57.7699C25.1716 57.8699 24.6015 58.1498 24.1015 58.2098Z" fill="#FBD626"/>
<path d="M40.91 56.3601C41.8 56.4301 43.52 57.0999 41.85 57.1399C40.19 57.1799 38.4801 57.08 38.6801 56.8C38.8901 56.52 39.45 56.2401 40.91 56.3601Z" fill="#FBD626"/>
</svg>
