<svg width="155" height="162" viewBox="0 0 155 162" fill="none" xmlns="http://www.w3.org/2000/svg">
<path d="M69.6982 160.46C69.1682 160.46 68.7383 160.03 68.7383 159.5V116.96C68.7383 116.43 69.1682 116 69.6982 116H84.5183C85.0483 116 85.4783 116.43 85.4783 116.96V159.5C85.4783 160.03 85.0483 160.46 84.5183 160.46H69.6982Z" fill="#EF5339"/>
<path d="M84.519 116.96V159.5H69.699V116.96H84.519ZM84.519 115.05H69.699C68.639 115.05 67.7891 115.91 67.7891 116.96V159.5C67.7891 160.55 68.649 161.41 69.699 161.41H84.519C85.579 161.41 86.4291 160.55 86.4291 159.5V116.96C86.4291 115.91 85.569 115.05 84.519 115.05Z" fill="#380F40"/>
<path d="M39.7607 145.44C39.2307 145.44 38.8008 145.01 38.8008 144.48V138C38.8008 137.47 39.2307 137.04 39.7607 137.04H114.471C115.001 137.04 115.431 137.47 115.431 138V144.48C115.431 145.01 115.001 145.44 114.471 145.44H39.7607Z" fill="#F79938"/>
<path d="M14.749 112.1C14.219 112.1 13.7891 111.67 13.7891 111.14V25.3198C13.7891 24.7898 14.219 24.3599 14.749 24.3599H139.469C139.999 24.3599 140.429 24.7898 140.429 25.3198V111.14C140.429 111.67 139.999 112.1 139.469 112.1H14.749Z" fill="#C6CECB"/>
<path d="M68.3085 32.1401C65.7385 32.1401 63.6484 30.05 63.6484 27.48V6.49023C63.6484 3.92023 65.7385 1.83008 68.3085 1.83008H85.9084C88.4784 1.83008 90.5684 3.92023 90.5684 6.49023V27.48C90.5684 30.05 88.4784 32.1401 85.9084 32.1401H68.3085Z" fill="#EF5339"/>
<path d="M139.47 25.3198V111.14H14.7499V25.3198H139.47ZM139.47 23.4102H14.7499C13.6999 23.4102 12.8398 24.2598 12.8398 25.3198V111.14C12.8398 112.19 13.6999 113.05 14.7499 113.05H139.47C140.53 113.05 141.38 112.19 141.38 111.14V25.3198C141.38 24.2698 140.53 23.4102 139.47 23.4102Z" fill="#380F40"/>
<path d="M114.472 138V144.48H39.7616V138H114.472ZM114.472 136.09H39.7616C38.7016 136.09 37.8516 136.94 37.8516 138V144.48C37.8516 145.54 38.7116 146.39 39.7616 146.39H114.472C115.522 146.39 116.381 145.54 116.381 144.48V138C116.381 136.95 115.522 136.09 114.472 136.09Z" fill="#380F40"/>
<path d="M22.5478 160.46C22.2078 160.46 21.8978 160.28 21.7278 159.99C21.5578 159.7 21.5477 159.34 21.7077 159.05L48.1778 109.81C48.2978 109.59 48.4978 109.42 48.7478 109.35C48.8378 109.32 48.9278 109.31 49.0178 109.31C49.1778 109.31 49.3278 109.35 49.4678 109.42L58.4377 114.24C58.6577 114.36 58.8278 114.56 58.8978 114.81C58.9678 115.05 58.9477 115.31 58.8277 115.54L34.9477 159.95C34.7777 160.26 34.4578 160.45 34.1078 160.45H22.5478V160.46Z" fill="#F79938"/>
<path d="M49.0287 110.27L57.9986 115.09L34.1186 159.5H22.5487L49.0287 110.27ZM49.0287 108.36C48.8487 108.36 48.6586 108.39 48.4786 108.44C47.9886 108.59 47.5886 108.92 47.3486 109.36L20.8686 158.6C20.5486 159.19 20.5687 159.91 20.9087 160.48C21.2487 161.06 21.8787 161.41 22.5487 161.41H34.1186C34.8186 161.41 35.4687 161.02 35.7987 160.4L59.6787 115.99C59.9187 115.54 59.9686 115.02 59.8286 114.54C59.6886 114.06 59.3487 113.65 58.9087 113.41L49.9386 108.59C49.6486 108.43 49.3387 108.36 49.0287 108.36Z" fill="#380F40"/>
<path d="M120.1 160.46C119.75 160.46 119.42 160.27 119.26 159.96L95.3802 115.55C95.2602 115.33 95.2303 115.07 95.3103 114.82C95.3803 114.58 95.5503 114.37 95.7703 114.25L104.74 109.43C104.88 109.35 105.03 109.32 105.19 109.32C105.28 109.32 105.37 109.33 105.46 109.36C105.7 109.43 105.91 109.6 106.03 109.82L132.51 159.06C132.67 159.36 132.66 159.71 132.49 160C132.32 160.29 132.01 160.47 131.67 160.47H120.1V160.46Z" fill="#F79938"/>
<path d="M105.188 110.27L131.668 159.51H120.098L96.2181 115.1L105.188 110.27ZM105.188 108.36C104.878 108.36 104.568 108.44 104.288 108.59L95.3181 113.41C94.8681 113.65 94.5382 114.06 94.3982 114.54C94.2482 115.03 94.3082 115.55 94.5482 115.99L118.428 160.4C118.758 161.02 119.408 161.41 120.108 161.41H131.678C132.348 161.41 132.968 161.06 133.318 160.48C133.658 159.9 133.678 159.19 133.358 158.6L106.878 109.36C106.638 108.91 106.228 108.58 105.748 108.44C105.558 108.38 105.378 108.36 105.188 108.36Z" fill="#380F40"/>
<path d="M9.66064 122.29C4.96064 122.29 1.14062 118.47 1.14062 113.77C1.14062 109.07 4.96064 105.25 9.66064 105.25H144.571C149.271 105.25 153.091 109.07 153.091 113.77C153.091 118.47 149.271 122.29 144.571 122.29H9.66064Z" fill="#F79938"/>
<path d="M85.9093 2.79004C87.9593 2.79004 89.6093 4.45023 89.6093 6.49023V27.48C89.6093 29.53 87.9493 31.1802 85.9093 31.1802H68.3093C66.2593 31.1802 64.6093 29.52 64.6093 27.48V6.49023C64.6093 4.44023 66.2693 2.79004 68.3093 2.79004H85.9093ZM85.9093 0.879883H68.3093C65.2093 0.879883 62.6992 3.4 62.6992 6.5V27.4902C62.6992 30.5902 65.2193 33.1001 68.3093 33.1001H85.9093C89.0093 33.1001 91.5193 30.5802 91.5193 27.4902V6.5C91.5193 3.39 89.0093 0.879883 85.9093 0.879883Z" fill="#380F40"/>
<path d="M59.6704 35.54C54.3804 35.54 50.0703 31.2299 50.0703 25.9399C50.0703 20.6499 54.3804 16.3398 59.6704 16.3398H94.5504C99.8404 16.3398 104.15 20.6499 104.15 25.9399C104.15 31.2299 99.8404 35.54 94.5504 35.54H59.6704Z" fill="#F79938"/>
<path d="M94.5511 17.2998C99.3211 17.2998 103.191 21.1699 103.191 25.9399C103.191 30.7099 99.3211 34.5801 94.5511 34.5801H59.6711C54.9011 34.5801 51.0311 30.7099 51.0311 25.9399C51.0311 21.1699 54.9011 17.2998 59.6711 17.2998H94.5511ZM94.5511 15.3901H59.6711C53.8511 15.3901 49.1211 20.1199 49.1211 25.9399C49.1211 31.7599 53.8511 36.4902 59.6711 36.4902H94.5511C100.371 36.4902 105.101 31.7599 105.101 25.9399C105.111 20.1199 100.371 15.3901 94.5511 15.3901Z" fill="#380F40"/>
<path d="M144.56 106.21C148.74 106.21 152.12 109.6 152.12 113.77C152.12 117.94 148.73 121.33 144.56 121.33H9.64966C5.46966 121.33 2.0896 117.94 2.0896 113.77C2.0896 109.6 5.47966 106.21 9.64966 106.21H144.56ZM144.56 104.29H9.64966C4.42966 104.29 0.179688 108.54 0.179688 113.76C0.179688 118.98 4.42966 123.23 9.64966 123.23H144.56C149.78 123.23 154.03 118.98 154.03 113.76C154.04 108.54 149.79 104.29 144.56 104.29Z" fill="#380F40"/>
<path d="M59.591 19.3798C60.431 20.2198 59.7111 22.3 57.9911 24.02C56.2611 25.75 54.191 26.4601 53.351 25.6201C52.511 24.7801 53.231 22.6999 54.951 20.9799C56.671 19.2599 58.751 18.5398 59.591 19.3798Z" fill="white"/>
<path d="M8.16301 111.899C9.45564 110.607 9.92407 108.98 9.20942 108.265C8.49477 107.55 6.86754 108.019 5.57492 109.311C4.28229 110.604 3.81377 112.231 4.52842 112.946C5.24308 113.661 6.87039 113.192 8.16301 111.899Z" fill="white"/>
<path d="M76.5211 7.45996H67.9211C67.0711 7.45996 66.3711 6.76016 66.3711 5.91016C66.3711 5.06016 67.0711 4.35986 67.9211 4.35986H76.5211C77.3711 4.35986 78.071 5.06016 78.071 5.91016C78.081 6.76016 77.3811 7.45996 76.5211 7.45996Z" fill="white"/>
<path d="M19.689 59.7598C18.509 59.7598 17.5391 58.7899 17.5391 57.6099V29.9102C17.5391 28.7302 18.509 27.7598 19.689 27.7598C20.869 27.7598 21.839 28.7302 21.839 29.9102V57.6099C21.839 58.7899 20.879 59.7598 19.689 59.7598Z" fill="white"/>
<path d="M19.6912 62.6201C20.7412 62.6201 21.6012 63.4798 21.6012 64.5298V68.3501C21.6012 69.4001 20.7412 70.2598 19.6912 70.2598C18.6412 70.2598 17.7812 69.4001 17.7812 68.3501V64.5298C17.7812 63.4798 18.6412 62.6201 19.6912 62.6201Z" fill="white"/>
<path d="M37.6579 136.58C37.0779 136.27 36.8479 135.55 37.1579 134.97L42.3678 125.03C42.6778 124.45 43.3978 124.22 43.9778 124.53C44.5578 124.84 44.7878 125.56 44.4778 126.14L39.2679 136.08C38.9679 136.66 38.2479 136.89 37.6579 136.58Z" fill="white"/>
<path d="M110.528 136.98C109.938 137.28 109.218 137.04 108.928 136.46L103.848 126.45C103.548 125.86 103.789 125.14 104.369 124.84C104.959 124.54 105.678 124.78 105.968 125.36L111.048 135.37C111.348 135.96 111.108 136.68 110.528 136.98Z" fill="white"/>
<path d="M72.1096 134.02C71.3196 134.02 70.6797 133.38 70.6797 132.59V125.9C70.6797 125.11 71.3196 124.47 72.1096 124.47C72.8996 124.47 73.5397 125.11 73.5397 125.9V132.59C73.5397 133.37 72.8896 134.02 72.1096 134.02Z" fill="white"/>
</svg>
