<svg width="129" height="122" viewBox="0 0 129 122" fill="none" xmlns="http://www.w3.org/2000/svg">
<path d="M81.4402 10.3799C98.3002 10.3799 111.96 24.0499 111.96 40.8999V89.75C111.96 106.6 98.3002 120.27 81.4402 120.27H32.6003C15.7503 120.27 2.07031 106.6 2.07031 89.75V40.8999C2.07031 24.0499 15.7403 10.3799 32.6003 10.3799H81.4402Z" stroke="#53A7D2" stroke-width="2.2944" stroke-miterlimit="10"/>
<path d="M56.7234 84.9502C51.7334 89.3602 45.1534 92.56 38.4934 93.23C37.6634 93.31 36.8234 93.3601 35.9934 93.3501C35.2534 93.3501 34.5134 93.3198 33.7734 93.2598C34.5634 92.8598 35.3234 92.3701 35.9934 91.8101C36.4634 91.4201 36.9035 91.0001 37.3035 90.5601C38.4135 89.3001 39.2134 87.8398 39.6934 86.2798C40.0934 84.9898 40.2734 83.63 40.2434 82.25C40.1634 79.09 39.2734 75.9101 40.4434 72.8501C40.6434 72.3301 40.8833 71.8399 41.1533 71.3599C42.1933 69.5599 43.7634 68.0802 45.5334 66.9702C45.8734 66.7602 46.2335 66.5501 46.5835 66.3701C48.4635 65.7301 50.4135 65.2502 52.3635 64.9702C53.4535 64.8102 54.5433 64.73 55.6433 64.71C55.6833 64.79 55.7334 64.8599 55.7734 64.9399C56.2234 65.7099 56.7334 66.4599 57.2834 67.1699C57.8234 67.8699 58.4134 68.5299 59.0334 69.1499L59.1333 69.25C59.7233 69.84 60.3534 70.3902 61.0134 70.9102C61.7234 71.4602 62.4734 71.9699 63.2534 72.4199C63.2634 72.4299 63.2734 72.4299 63.2834 72.4399C63.2734 72.7599 63.2434 73.0799 63.2134 73.3999C62.3834 76.6599 61.0035 79.74 59.0835 82.52C58.3535 83.39 57.5634 84.2002 56.7234 84.9502Z" fill="#B68F6C"/>
<path d="M109.92 28.9299C104.19 34.6399 98.3803 40.2796 92.5103 45.8396C88.9603 49.2096 85.3803 52.5496 81.7803 55.8596C80.9403 55.4396 80.1303 54.9797 79.3503 54.4597C78.2603 53.7397 77.2403 52.9296 76.2903 52.0295C76.2703 52.0095 76.2402 51.99 76.2202 51.97C74.6402 50.33 73.3403 48.4497 72.3203 46.4197C75.6303 42.8197 78.9803 39.2397 82.3403 35.6897C87.9103 29.8197 93.5402 24.0195 99.2502 18.2795C102.04 15.4795 104.84 12.6899 107.67 9.92994C110.39 7.26994 113.2 4.48978 116.48 2.51978C118.03 1.58978 119.95 0.739549 121.87 0.529549C123.14 0.389549 124.42 0.539901 125.57 1.1399C125.9 1.3099 126.2 1.50998 126.47 1.71998C126.68 1.98998 126.88 2.28988 127.05 2.61988C127.1 2.70988 127.14 2.7999 127.18 2.8899C128.47 5.7299 127.17 9.20973 125.67 11.7097C123.7 14.9897 120.92 17.7998 118.26 20.5198C115.51 23.3398 112.72 26.1399 109.92 28.9299Z" fill="#A35B42"/>
<path d="M81.4297 56.1899C79.2297 58.2099 77.0198 60.2202 74.7998 62.2202C71.2498 65.4202 67.6198 68.5402 64.0398 71.7202C63.8898 71.8502 63.7499 71.9799 63.5999 72.1099C63.5699 72.0899 63.5498 72.0801 63.5198 72.0601C63.5198 72.0601 63.5098 72.0598 63.5098 72.0498C63.4398 72.0098 63.3598 71.9699 63.2898 71.9199C62.4098 71.3899 61.5698 70.8099 60.7798 70.1699C60.2998 69.7899 59.8397 69.39 59.3997 68.96C59.3697 68.93 59.3398 68.9001 59.3098 68.8701C58.0898 67.6101 57.0397 66.1999 56.1597 64.6899C56.1397 64.6499 56.1098 64.6098 56.0898 64.5698C56.2298 64.4098 56.3798 64.2498 56.5198 64.0898C56.5698 64.0398 56.6097 63.9802 56.6597 63.9302C56.7097 63.8802 56.7498 63.8298 56.7898 63.7798C59.8498 60.3098 62.8797 56.8099 65.9697 53.3799C67.9697 51.1599 69.9798 48.95 72.0098 46.75C72.6198 47.98 73.3597 49.15 74.1997 50.25C74.7397 50.95 75.3297 51.61 75.9497 52.23L76.0198 52.2998C76.6198 52.8998 77.2597 53.46 77.9297 53.98C78.2797 54.25 78.6398 54.5098 78.9998 54.7598C79.7898 55.2998 80.5897 55.7699 81.4297 56.1899Z" fill="#88D3E7"/>
<path d="M63.9214 72.7098C63.9714 72.6698 64.0115 72.6297 64.0615 72.5897C64.1115 72.5497 64.1614 72.4998 64.2114 72.4598C65.4214 71.3998 66.6215 70.3398 67.8315 69.2698C71.3715 66.1398 74.9014 62.9799 78.4014 59.7899C79.6114 58.6899 80.8115 57.5898 82.0215 56.4798C82.0415 56.4598 82.0615 56.4397 82.0815 56.4197C82.1215 56.3797 82.1614 56.3399 82.2014 56.3099C82.2614 56.2599 82.3116 56.21 82.3716 56.16C93.5216 45.9 104.442 35.3799 115.102 24.6199C117.952 21.7399 120.891 18.9001 123.451 15.7401C125.441 13.2801 127.381 10.5697 128.011 7.39973C128.291 5.99973 128.272 4.56987 127.832 3.28987C127.762 3.09986 127.692 2.90004 127.602 2.72004C127.392 2.26004 127.122 1.83977 126.792 1.43977C126.232 0.969767 125.611 0.619728 124.941 0.399728C123.661 -0.0402717 122.222 -0.0599592 120.832 0.220041C117.662 0.850041 114.951 2.78961 112.491 4.77961C109.331 7.33961 106.492 10.2797 103.612 13.1297C92.8416 23.7897 82.3215 34.7097 72.0715 45.8597C72.0215 45.9097 71.9714 45.9696 71.9214 46.0296C71.8814 46.0696 71.8415 46.1097 71.8115 46.1497C71.7915 46.1697 71.7715 46.1898 71.7515 46.2098C70.6415 47.4098 69.5414 48.6196 68.4414 49.8196C65.2614 53.3196 62.0914 56.84 58.9614 60.39C57.9414 61.54 56.9214 62.6899 55.9114 63.8499C52.5614 64.0099 49.1314 64.6397 46.2114 66.1697C46.2014 66.1697 46.1914 66.18 46.1814 66.18C45.6314 66.47 45.1116 66.79 44.6016 67.14C43.4916 67.92 42.4816 68.8696 41.6116 70.0096C39.7416 72.4796 39.2515 75.2696 39.5515 78.2996C39.7015 79.8696 40.0215 81.4298 40.0115 82.9998C40.0015 84.0898 39.8315 85.18 39.5215 86.22C39.3315 86.84 39.0815 87.4499 38.7915 88.0399C37.8815 89.8299 36.5015 91.36 34.8115 92.43C34.3215 92.74 33.8215 93 33.3115 93.22C33.1015 93.31 32.9014 93.39 32.6914 93.47C32.8714 93.5 33.0515 93.5199 33.2415 93.5399C37.9315 94.0999 42.8013 93.1098 47.1313 91.2698C50.7413 89.7298 54.4614 87.5698 57.4514 84.7498C57.4514 84.7898 57.5015 84.8196 57.5315 84.7796C60.9015 81.6496 63.2014 77.2898 63.9214 72.7098ZM82.3516 35.6898C87.9216 29.8198 93.5515 24.0196 99.2615 18.2796C102.051 15.4796 104.851 12.69 107.681 9.93C110.401 7.27 113.211 4.48985 116.491 2.51985C119.071 0.969846 122.692 -0.370037 125.582 1.13996C125.912 1.30996 126.211 1.51004 126.481 1.72004C126.691 1.99004 126.892 2.28994 127.062 2.61994C127.112 2.70994 127.151 2.79996 127.191 2.88996C128.481 5.72996 127.181 9.20979 125.681 11.7098C123.711 14.9898 120.931 17.7998 118.271 20.5198C115.511 23.3498 112.721 26.1498 109.921 28.9398C104.191 34.6498 98.3815 40.2899 92.5115 45.8499C88.9615 49.2199 85.3815 52.5599 81.7815 55.8699C79.7715 54.8699 77.9215 53.5899 76.3015 52.0399C76.2815 52.0199 76.2514 51.9998 76.2314 51.9798C74.6514 50.3398 73.3515 48.46 72.3315 46.43C75.6415 42.82 78.9816 39.2398 82.3516 35.6898ZM65.9714 53.3997C67.9714 51.1797 69.9815 48.9698 72.0115 46.7698C72.6215 47.9998 73.3614 49.1698 74.2014 50.2698C74.7414 50.9698 75.3314 51.6298 75.9514 52.2498C75.9714 52.2698 76.0015 52.2996 76.0215 52.3196C76.6215 52.9196 77.2614 53.4798 77.9314 53.9998C79.0214 54.8398 80.2014 55.58 81.4214 56.2C79.2214 58.22 77.0115 60.2298 74.7915 62.2298C71.2415 65.4298 67.6115 68.5498 64.0315 71.7298C63.8815 71.8598 63.7416 71.9899 63.5916 72.1199C63.5616 72.0999 63.5415 72.0896 63.5115 72.0696C63.5115 72.0696 63.5015 72.0699 63.5015 72.0599C63.4315 72.0199 63.3515 71.98 63.2815 71.93C61.8815 71.09 60.5713 70.1098 59.3813 68.9798C59.3513 68.9498 59.3215 68.92 59.2915 68.89C58.0715 67.63 57.0214 66.2198 56.1414 64.7098C56.1214 64.6698 56.0915 64.6297 56.0715 64.5897C56.2115 64.4297 56.3615 64.2697 56.5015 64.1097C56.5515 64.0597 56.5914 64 56.6414 63.95C56.6914 63.9 56.7315 63.8496 56.7715 63.7996C59.8515 60.3296 62.8814 56.8197 65.9714 53.3997ZM55.7114 64.0399C55.6914 64.0599 55.6714 64.0897 55.6514 64.1097C55.3714 64.1097 55.1015 64.12 54.8215 64.14C55.1115 64.1 55.4114 64.0699 55.7114 64.0399ZM56.7214 84.95C51.7314 89.36 45.1515 92.5598 38.4915 93.2298C36.9215 93.3898 35.3415 93.3996 33.7715 93.2596C35.1215 92.5796 36.3415 91.6399 37.3015 90.5599C38.4115 89.2999 39.2114 87.8396 39.6914 86.2796C40.0914 84.9896 40.2715 83.6298 40.2415 82.2498C40.1615 79.0898 39.2714 75.9099 40.4414 72.8499C41.5314 69.9899 43.9015 67.7697 46.5815 66.3797C48.4615 65.7397 50.4116 65.2598 52.3616 64.9798C53.4516 64.8198 54.5414 64.74 55.6414 64.72C55.6814 64.8 55.7315 64.87 55.7715 64.95C56.2215 65.72 56.7315 66.47 57.2815 67.18C57.8215 67.88 58.4115 68.54 59.0315 69.16C59.0615 69.19 59.0913 69.2196 59.1313 69.2596C59.7213 69.8496 60.3515 70.3997 61.0115 70.9197C61.7215 71.4697 62.4715 71.98 63.2515 72.43C63.2615 72.44 63.2715 72.44 63.2815 72.45C63.2715 72.77 63.2414 73.09 63.2114 73.41C62.3814 76.67 61.0015 79.7496 59.0815 82.5296C58.3515 83.3896 57.5614 84.2 56.7214 84.95Z" fill="#503E2E"/>
<path d="M79.0112 54.77C79.7912 55.3 80.6012 55.7699 81.4312 56.1899C79.2312 58.2099 77.0213 60.2202 74.8013 62.2202C71.2513 65.4202 67.6213 68.5402 64.0413 71.7202C63.8913 71.8502 63.7513 71.9799 63.6013 72.1099C63.5713 72.0899 63.5512 72.0801 63.5212 72.0601C63.5212 72.0601 63.5112 72.0598 63.5112 72.0498C63.4412 72.0098 63.3613 71.9699 63.2913 71.9199C62.4113 71.3899 61.5713 70.8099 60.7812 70.1699C65.7213 66.2299 72.1512 60.83 79.0112 54.77Z" fill="#6CC1D1"/>
<path opacity="0.4" d="M109.921 28.93C104.191 34.64 98.3815 40.2797 92.5115 45.8397C88.9615 49.2097 85.3815 52.5497 81.7815 55.8597C80.9415 55.4397 80.1316 54.9798 79.3516 54.4598C103.112 33.4498 131.811 4.68985 121.881 0.519848C123.151 0.379848 124.432 0.529711 125.582 1.12971C125.912 1.29971 126.211 1.49979 126.481 1.70979C126.691 1.97979 126.892 2.27969 127.062 2.60969C127.112 2.69969 127.151 2.78971 127.191 2.87971C128.481 5.71971 127.181 9.20002 125.681 11.7C123.711 14.98 120.931 17.7896 118.271 20.5096C115.511 23.3396 112.721 26.14 109.921 28.93Z" fill="#A35B42"/>
<path d="M58.4597 63.8301C59.1297 62.7101 70.1896 49.8198 71.1596 49.8198C72.1396 49.8198 74.5798 52.59 74.0898 53.73C73.5998 54.87 60.7397 66.1102 59.7597 66.4302C58.7797 66.7602 57.9697 64.6401 58.4597 63.8301Z" fill="#88D3E7"/>
<path opacity="0.5" d="M74.7416 45.9101C75.0316 44.4601 114.312 1.45003 118.712 3.89003C123.112 6.33003 78.3216 48.5101 77.0216 49.1601C75.7216 49.8201 74.5816 46.7301 74.7416 45.9101Z" fill="#A35B42"/>
<path opacity="0.5" d="M56.7222 84.9502C51.7322 89.3602 45.1522 92.56 38.4922 93.23C37.6622 93.31 36.8222 93.3601 35.9922 93.3501C40.2122 92.7601 44.2921 91.2498 47.9121 89.0098C50.2021 87.5898 52.3021 85.8699 54.1421 83.8999C55.0021 82.9799 55.8721 81.9798 56.6521 81.0098C57.5721 79.8798 58.0321 78.4298 58.9021 77.2998C56.9121 79.8898 54.0323 81.7798 50.8623 82.5698C54.2423 79.9298 56.7923 76.2399 58.0623 72.1499C56.3023 74.0399 54.2021 75.6301 51.9021 76.8101C53.0921 74.1501 54.8522 71.7501 57.0222 69.8101C54.0322 69.9401 51.0922 71.0599 48.7622 72.9399C50.1822 70.4299 52.8321 68.5098 55.4421 67.2798C52.4921 66.1698 49.1921 65.99 46.1421 66.79C45.9321 66.84 45.7322 66.9 45.5322 66.96C45.8722 66.75 46.2323 66.5399 46.5823 66.3599C48.4623 65.7199 50.4123 65.24 52.3623 64.96C53.4523 64.8 54.5421 64.7202 55.6421 64.7002C55.6821 64.7802 55.7322 64.8502 55.7722 64.9302C56.2222 65.7002 56.7322 66.4502 57.2822 67.1602C57.8222 67.8602 58.4122 68.5201 59.0322 69.1401L59.1321 69.2402C59.7221 69.8302 60.3522 70.3799 61.0122 70.8999C61.7222 71.4499 62.4722 71.9602 63.2522 72.4102C63.2622 72.4202 63.2722 72.4202 63.2822 72.4302C63.2722 72.7502 63.2422 73.0701 63.2122 73.3901C62.3822 76.6501 61.0023 79.7298 59.0823 82.5098C58.3523 83.3898 57.5622 84.2002 56.7222 84.9502Z" fill="#B68F6C"/>
<path opacity="0.5" d="M35.9922 91.8198C36.4622 91.4298 36.9022 91.0098 37.3022 90.5698C38.4122 89.3098 39.2121 87.85 39.6921 86.29C40.0921 85 40.2722 83.6398 40.2422 82.2598C40.1622 79.0998 39.2721 75.9199 40.4421 72.8599C40.6421 72.3399 40.8821 71.8501 41.1521 71.3701C41.3221 71.1901 41.5021 71.0199 41.6921 70.8599C42.3021 70.3499 43.9423 69.8901 44.3223 69.3501C42.3123 72.2201 41.3323 75.8 41.6023 79.29C42.5423 76.66 44.6121 74.4701 47.1721 73.3701C45.3621 76.2001 44.2022 79.4398 43.8022 82.7798C45.5222 79.7698 47.7222 77.03 50.3022 74.71C48.4922 77.11 47.2923 79.9702 46.8423 82.9502C48.0823 81.7302 49.2322 80.4301 50.2922 79.0601C48.0522 85.3101 42.4622 90.2598 35.9922 91.8198Z" fill="#B68F6C"/>
</svg>
