<svg width="459" height="118" viewBox="0 0 459 118" fill="none" xmlns="http://www.w3.org/2000/svg">
<path d="M312.15 117.31C312.49 101.4 313.35 81.4802 315.24 66.6602C315.4 65.4302 315.32 64.6698 316.01 63.8198C311.83 63.4198 302.98 62.6799 300.84 62.6299C301.24 64.3899 301.08 66.06 300.94 67.5C300.03 76.79 297.7 96.8701 295.57 117.31C303.8 117.31 309.05 117.31 312.15 117.31Z" fill="#FBCB9D"/>
<path d="M330.739 53.5897C329.519 50.1797 320.269 53.9801 319.759 52.9701C319.239 51.9301 321.078 48.3099 322.938 43.7899C325.128 38.4599 328.288 33.7797 325.428 32.3397C323.158 31.1897 320.828 35.04 318.678 38.58C317.128 41.13 315.519 43.5099 314.799 43.7499C314.139 42.8499 314.419 39.5899 314.869 36.0399C315.489 31.2099 316.249 25.83 313.549 25.16C309.979 24.27 309.408 30.6398 308.888 35.9198C308.538 39.4398 308.049 42.4596 307.339 42.5096C306.779 42.5096 305.749 39.7401 304.819 36.7201C303.659 32.9401 302.489 28.7697 300.589 29.0697C297.649 29.5497 299.019 35.32 300.089 39.89C300.779 42.84 301.109 45.2899 300.829 45.4799C300.379 45.6099 299.018 44.0497 297.688 42.2997C296.008 40.0997 294.219 37.6501 292.789 38.4501C290.699 39.6101 293.099 44.5797 295.859 50.5497C297.479 54.0597 300.919 63.0699 301.369 63.8099C301.929 64.7199 303.858 65.1101 305.688 64.4501C309.058 63.2401 310.669 64.9101 312.269 64.9701C314.239 65.0401 315.428 64.5599 315.638 64.3099C321.928 59.1999 332.049 57.2497 330.739 53.5897Z" fill="#0F80C4"/>
<path d="M326.017 58.4199C325.907 56.6299 325.497 53.6998 325.297 52.3398C325.827 52.2598 326.357 52.1999 326.877 52.1699C326.787 53.8099 327.147 55.7002 327.407 57.7002C326.967 57.9402 326.497 58.1699 326.017 58.4199Z" fill="#EF5145"/>
<path d="M321.246 53.0601C321.656 53.0001 322.126 52.9101 322.636 52.8101C322.786 54.5001 323.266 57.7901 323.546 59.6201C322.896 59.9401 322.236 60.2601 321.566 60.6001C321.736 58.5801 321.406 54.9101 321.246 53.0601Z" fill="#EF5145"/>
<path d="M303.938 33.8901C302.447 34.8001 300.228 35.8498 299.288 36.2798C299.148 35.5398 299.017 34.8199 298.938 34.1299C300.048 33.5299 301.558 32.7499 303.218 31.9199C303.468 32.5199 303.707 33.1901 303.938 33.8901Z" fill="#EF5145"/>
<path d="M315.297 32.5803C313.567 31.5603 310.687 31.1101 309.477 30.9601C309.587 30.2601 309.716 29.5901 309.876 28.9601C311.696 28.7201 313.697 29.4601 315.457 30.4201C315.427 31.1201 315.367 31.8403 315.297 32.5803Z" fill="#EF5145"/>
<path d="M325.308 38.52C324.098 37.25 321.697 35.9502 320.688 35.4302C320.988 35.0002 321.288 34.5902 321.588 34.2202C322.928 34.8002 324.697 35.5399 326.137 36.4399C325.917 37.0799 325.628 37.78 325.308 38.52Z" fill="#EF5145"/>
<path d="M318.677 38.5898C318.717 38.5298 318.748 38.4702 318.788 38.4102C319.648 39.0802 322.257 41.1799 323.427 42.6499C323.257 43.0299 323.097 43.4201 322.938 43.8101C322.718 44.3601 322.488 44.8902 322.268 45.4102C321.638 43.4502 318.817 41.0802 317.688 40.2002C318.018 39.6702 318.347 39.1298 318.677 38.5898Z" fill="#EF5145"/>
<path d="M293.887 46.25C295.327 45.08 297.437 43.8498 298.447 43.2798C298.777 43.6898 299.107 44.0699 299.407 44.3999C298.107 45.4499 296.187 47.1599 294.847 48.3799C294.507 47.6399 294.187 46.93 293.887 46.25Z" fill="#EF5145"/>
<path d="M295.687 39.8198C296.147 40.3298 296.617 40.9098 297.077 41.5098C296.217 42.5498 294.567 43.65 293.147 44.48C292.827 43.68 292.567 42.94 292.367 42.27C293.497 41.45 294.897 40.4398 295.687 39.8198Z" fill="#EF5145"/>
<path d="M300.079 39.8901C300.069 39.8401 300.059 39.79 300.039 39.73C301.109 38.88 303.079 37.8598 304.909 37.0298C305.119 37.6998 305.339 38.3602 305.549 38.9702C303.899 39.2702 301.349 40.9899 300.449 41.6299C300.349 41.0799 300.219 40.4901 300.079 39.8901Z" fill="#EF5145"/>
<path d="M308.886 35.91C308.896 35.79 308.906 35.6699 308.926 35.5399C310.366 35.4599 312.756 36.1099 314.776 36.7899C314.696 37.4699 314.616 38.1299 314.556 38.7499C312.866 38.2099 309.846 37.99 308.656 37.93C308.746 37.3 308.816 36.62 308.886 35.91Z" fill="#EF5145"/>
<path d="M386.457 117.31C388.447 93.3701 390.867 72.7602 390.867 71.6602C394.387 73.9402 401.797 78.8501 403.507 80.1401C403.207 80.3801 402.927 80.6402 402.657 80.9102C401.707 81.8702 400.617 104.77 400.617 117.31C392.347 117.31 391.397 117.31 386.457 117.31Z" fill="#FBCB9D"/>
<path d="M385.648 54.5001C388.718 52.5901 393.618 61.3102 394.638 60.8302C395.688 60.3402 396.488 56.3603 397.848 51.6603C399.438 46.1203 399.868 40.5003 402.998 41.1403C405.488 41.6503 404.928 46.1104 404.418 50.2204C404.048 53.1804 403.838 56.0403 404.258 56.6803C405.338 56.3803 407.138 53.65 408.988 50.59C411.498 46.41 414.238 41.73 416.778 42.88C420.128 44.4 416.628 49.7501 413.758 54.2101C411.848 57.1801 410.358 59.86 410.888 60.34C411.328 60.69 413.858 59.16 416.458 57.36C419.708 55.12 423.218 52.5704 424.518 53.9904C426.528 56.1904 421.868 59.8602 418.198 62.7902C415.828 64.6802 414.048 66.3901 414.148 66.7101C414.418 67.0901 416.458 66.7101 418.588 66.1701C421.278 65.4901 424.188 64.6801 424.828 66.1901C425.748 68.4001 420.778 70.8002 414.918 73.7702C411.468 75.5202 403.178 80.4501 402.368 80.7501C401.358 81.1201 399.608 80.23 398.578 78.57C396.688 75.53 394.388 75.84 393.098 74.9001C391.508 73.7301 390.878 72.6202 390.868 72.2902C389.078 64.3602 382.358 56.5501 385.648 54.5001Z" fill="#FAC22C"/>
<path d="M404.607 63.2699C403.227 56.8199 396.567 58.9298 396.857 63.1898C397.107 66.9398 399.137 70.4499 399.877 71.2899C401.807 71.6399 404.227 71.5397 407.907 70.5497C412.127 69.4097 411.887 65.8798 410.757 64.6698C408.807 62.5998 404.607 63.2699 404.607 63.2699Z" fill="#EE4043"/>
<path d="M385.647 54.5001C387.767 53.1801 390.747 56.9103 392.727 59.2003C392.607 59.6303 392.207 59.8902 391.387 59.8502C388.397 59.7102 387.827 60.8502 388.397 63.4102C388.607 64.3502 388.757 65.3799 388.687 66.1299C386.227 60.6399 383.227 56.0101 385.647 54.5001Z" fill="#0D5D9C"/>
<path d="M396.637 56.05C396.997 54.74 397.387 53.2403 397.847 51.6603C399.437 46.1203 399.867 40.5003 402.997 41.1403C404.597 41.4703 404.937 43.4303 404.837 45.8903C403.547 47.5003 401.257 47.5301 401.787 50.1701C402.427 53.3801 402.857 55.5101 400.077 55.9401C398.737 56.1401 397.527 56.36 396.637 56.05Z" fill="#24C2E9"/>
<path d="M413.758 54.1901C413.588 54.4501 413.418 54.7204 413.258 54.9704C412.138 54.8504 410.928 54.6203 410.198 54.1403C408.558 53.0703 409.988 51.3604 411.768 51.4304C413.348 51.4904 413.528 48.58 411.498 46.53C413.258 43.95 415.058 42.0803 416.768 42.8503C420.128 44.3803 416.618 49.7401 413.758 54.1901Z" fill="#01A46C"/>
<path d="M420.817 60.6501C420.057 60.8501 419.307 60.8701 418.607 60.7101C416.187 60.1401 412.337 61.7803 413.047 59.6403C413.067 59.5903 413.087 59.5502 413.107 59.5002C414.077 58.9402 415.257 58.1803 416.457 57.3503C419.707 55.1103 423.217 52.5601 424.517 53.9801C426.067 55.6601 423.667 58.2201 420.817 60.6501Z" fill="#EE4043"/>
<path d="M418.957 68.6803C420.657 67.9803 421.407 66.3702 422.367 65.3502C423.567 65.2302 424.497 65.39 424.827 66.17C425.747 68.38 420.777 70.7801 414.917 73.7501C413.947 74.2401 412.607 74.9802 411.157 75.7902C410.977 74.1802 416.687 69.6103 418.957 68.6803Z" fill="#EE72AA"/>
<path d="M229.477 117.31C227.487 93.3701 227.407 83.7699 227.417 82.6699C223.897 84.9499 216.487 89.8599 214.777 91.1499C215.077 91.3899 215.357 91.6499 215.627 91.9199C216.577 92.8799 215.327 104.77 215.327 117.31C223.587 117.31 224.537 117.31 229.477 117.31Z" fill="#FBCB9D"/>
<path d="M232.628 65.5099C229.558 63.5999 224.658 72.32 223.638 71.84C222.588 71.35 221.788 67.3701 220.428 62.6701C218.838 57.1301 218.408 51.5101 215.278 52.1501C212.788 52.6601 213.348 57.1201 213.858 61.2301C214.228 64.1901 214.438 67.0501 214.018 67.6901C212.938 67.3901 211.138 64.6602 209.288 61.6002C206.778 57.4202 204.038 52.7403 201.498 53.8903C198.148 55.4103 201.648 60.7604 204.518 65.2204C206.428 68.1904 207.918 70.8702 207.388 71.3502C206.948 71.7002 204.418 70.1703 201.818 68.3703C198.568 66.1303 195.058 63.5801 193.758 65.0001C191.748 67.2001 196.408 70.88 200.078 73.8C202.448 75.69 204.228 77.4004 204.128 77.7204C203.858 78.1004 201.818 77.7203 199.688 77.1803C196.998 76.5003 194.088 75.6903 193.448 77.2003C192.528 79.4103 197.498 81.8099 203.358 84.7799C206.808 86.5299 215.098 91.4599 215.908 91.7599C216.918 92.1299 218.668 91.2402 219.698 89.5802C221.588 86.5402 223.888 86.8503 225.178 85.9103C226.768 84.7403 227.398 83.63 227.408 83.3C229.198 75.37 235.928 67.5699 232.628 65.5099Z" fill="#19AC9E"/>
<path d="M213.198 74.7599C214.578 68.3099 221.238 70.4204 220.948 74.6804C220.698 78.4304 218.668 81.94 217.928 82.78C215.998 83.13 213.578 83.0302 209.898 82.0402C205.678 80.9002 205.918 77.3703 207.048 76.1603C208.998 74.0803 213.198 74.7599 213.198 74.7599Z" fill="#E9B5D3"/>
<path d="M232.627 65.5098C230.507 64.1898 227.527 67.92 225.547 70.21C225.667 70.64 226.067 70.8999 226.887 70.8599C229.877 70.7199 230.447 71.86 229.877 74.42C229.667 75.36 229.517 76.3902 229.587 77.1402C232.047 71.6502 235.057 67.0198 232.627 65.5098Z" fill="#0D5D9C"/>
<path d="M221.638 67.0602C221.278 65.7502 220.888 64.2501 220.428 62.6701C218.838 57.1301 218.408 51.5101 215.278 52.1501C213.678 52.4801 213.338 54.4401 213.438 56.9001C214.738 58.5101 217.018 58.5403 216.488 61.1803C215.848 64.3903 215.418 66.5203 218.198 66.9503C219.538 67.1503 220.758 67.3702 221.638 67.0602Z" fill="#0D5D9C"/>
<path d="M204.53 65.2003C204.7 65.4603 204.87 65.7301 205.03 65.9801C206.15 65.8601 207.36 65.63 208.09 65.15C209.73 64.08 208.3 62.3701 206.52 62.4401C204.94 62.5001 204.76 59.5902 206.79 57.5402C205.03 54.9602 203.23 53.09 201.52 53.86C198.16 55.39 201.66 60.7503 204.53 65.2003Z" fill="#0D5D9C"/>
<path d="M197.469 71.6604C198.229 71.8604 198.979 71.8804 199.679 71.7204C202.099 71.1504 205.949 72.7901 205.239 70.6501C205.219 70.6001 205.199 70.56 205.179 70.51C204.209 69.95 203.029 69.1901 201.829 68.3601C198.579 66.1201 195.069 63.5704 193.769 64.9904C192.219 66.6804 194.609 69.2404 197.469 71.6604Z" fill="#0D5D9C"/>
<path d="M199.318 79.69C197.618 78.99 196.868 77.3799 195.908 76.3599C194.718 76.2399 193.778 76.4002 193.458 77.1802C192.538 79.3902 197.508 81.7898 203.368 84.7598C204.338 85.2498 205.678 85.9899 207.128 86.7999C207.298 85.1899 201.588 80.63 199.318 79.69Z" fill="#0D5D9C"/>
<path d="M379.646 117.31C380.086 94.5901 380.136 55.5201 378.296 47.3901C375.156 50.1701 368.566 56.1399 367.066 57.6699C367.406 57.8599 367.716 58.0798 368.016 58.2998C369.096 59.1098 367.436 94.4301 366.156 117.31C369.946 117.31 375.746 117.31 379.646 117.31Z" fill="#FBCB9D"/>
<path d="M380.887 29.65C377.567 28.22 374.027 37.5701 372.947 37.2501C371.837 36.9201 370.447 33.1103 368.407 28.6603C366.007 23.4203 364.747 17.9199 361.737 19.0299C359.347 19.9099 360.577 24.2303 361.687 28.2203C362.487 31.0903 363.137 33.8902 362.817 34.5802C361.707 34.4502 359.517 32.0199 357.237 29.2599C354.127 25.4999 350.717 21.2899 348.387 22.7999C345.297 24.7999 349.567 29.5699 353.067 33.5499C355.397 36.1999 357.267 38.6303 356.827 39.1803C356.447 39.5903 353.717 38.4599 350.877 37.0699C347.327 35.3399 343.477 33.3503 342.397 34.9503C340.737 37.4303 345.897 40.3603 349.957 42.7003C352.587 44.2103 354.597 45.6403 354.547 45.9703C354.337 46.3903 352.267 46.3102 350.077 46.1002C347.317 45.8302 344.317 45.4599 343.917 47.0499C343.337 49.3699 348.607 51.0099 354.857 53.0699C358.527 54.2799 367.467 57.92 368.307 58.09C369.357 58.2999 370.957 57.1602 371.727 55.3702C373.147 52.0802 375.467 52.05 376.597 50.92C377.997 49.53 378.447 48.3301 378.417 48.0001C378.967 39.9101 384.447 31.18 380.887 29.65Z" fill="#ED75AA"/>
<path d="M361.669 43.7599C362.079 41.5799 364.249 40.16 366.499 40.59C368.749 41.02 370.249 43.1302 369.839 45.3102C369.429 47.4902 367.259 48.9101 365.009 48.4801C362.759 48.0501 361.259 45.9399 361.669 43.7599ZM362.449 43.9103C362.119 45.6603 363.339 47.3601 365.159 47.7101C366.989 48.0601 368.739 46.91 369.069 45.17C369.399 43.42 368.179 41.7202 366.359 41.3702C364.529 41.0202 362.779 42.1603 362.449 43.9103Z" fill="white"/>
<path d="M367 39.7902C367.19 39.8302 367.39 39.7102 367.45 39.5202C367.82 38.3502 368.06 36.4503 368.07 36.3703C368.1 36.1503 367.94 35.9604 367.73 35.9304C367.51 35.9004 367.32 36.0602 367.29 36.2702C367.29 36.2902 367.05 38.18 366.7 39.28C366.63 39.49 366.75 39.71 366.96 39.78C366.97 39.78 366.98 39.7802 367 39.7902Z" fill="white"/>
<path d="M363.229 52.8103C363.379 52.8403 363.539 52.7801 363.629 52.6501C364.589 51.2701 364.749 49.4601 364.759 49.3801C364.779 49.1601 364.619 48.9704 364.399 48.9504C364.179 48.9304 363.989 49.0903 363.969 49.3103C363.969 49.3303 363.819 50.9902 362.979 52.1902C362.859 52.3702 362.899 52.6105 363.079 52.7405C363.129 52.7705 363.179 52.8003 363.229 52.8103Z" fill="white"/>
<path d="M373.388 47.5602C373.578 47.6002 373.778 47.4899 373.838 47.3C373.908 47.0899 373.798 46.87 373.588 46.8C373.568 46.79 371.628 46.1604 370.798 45.7204C370.608 45.6204 370.368 45.69 370.268 45.88C370.168 46.07 370.238 46.3103 370.428 46.4103C371.318 46.8803 373.258 47.52 373.348 47.55C373.348 47.55 373.368 47.5502 373.388 47.5602Z" fill="white"/>
<path d="M360.728 43.4398C360.828 43.4598 360.898 43.4699 360.928 43.4799C361.138 43.5199 361.348 43.3701 361.388 43.1601C361.428 42.9501 361.289 42.7401 361.079 42.7001C360.249 42.5501 358.779 42.2198 358.349 41.9398C358.169 41.8198 357.919 41.88 357.809 42.06C357.689 42.24 357.748 42.49 357.928 42.6C358.518 42.99 360.138 43.3298 360.728 43.4398Z" fill="white"/>
<path d="M363.399 40.2596C363.469 40.2696 363.539 40.2701 363.619 40.2401C363.819 40.1601 363.919 39.9298 363.839 39.7298L362.789 37.0296C362.709 36.8296 362.479 36.7299 362.279 36.8099C362.079 36.8899 361.979 37.1196 362.059 37.3196L363.109 40.0198C363.149 40.1498 363.269 40.2396 363.399 40.2596Z" fill="white"/>
<path d="M369.29 51.66C369.37 51.68 369.46 51.66 369.54 51.62C369.73 51.52 369.81 51.2797 369.71 51.0897L368.45 48.6297C368.35 48.4397 368.11 48.3598 367.92 48.4598C367.73 48.5598 367.65 48.8001 367.75 48.9901L369.01 51.4501C369.07 51.5601 369.17 51.64 369.29 51.66Z" fill="white"/>
<path d="M370.29 42.5198C370.35 42.5298 370.41 42.5296 370.47 42.5096L373.04 41.7596C373.25 41.6996 373.37 41.4798 373.31 41.2698C373.25 41.0598 373.03 40.9398 372.82 40.9998L370.25 41.7498C370.04 41.8098 369.92 42.0301 369.98 42.2401C370.02 42.3901 370.14 42.4898 370.29 42.5198Z" fill="white"/>
<path d="M358.687 47.8799C358.747 47.8899 358.807 47.8901 358.877 47.8701L361.377 47.1098C361.587 47.0498 361.707 46.8301 361.637 46.6201C361.577 46.4101 361.357 46.2898 361.147 46.3598L358.647 47.1201C358.437 47.1801 358.317 47.3998 358.387 47.6098C358.427 47.7598 358.547 47.8599 358.687 47.8799Z" fill="white"/>
<path d="M289.059 117.31C288.909 84.0601 286.599 37.4801 284.879 29.3301C281.689 32.0601 275.009 37.9202 273.489 39.4302C273.819 39.6302 274.139 39.8501 274.429 40.0801C275.499 40.9101 273.789 96.7301 273.289 117.31C278.609 117.31 284.919 117.31 289.059 117.31Z" fill="#FBCB9D"/>
<path d="M287.749 11.6298C284.449 10.1398 280.759 19.44 279.689 19.1C278.579 18.75 277.249 14.9198 275.289 10.4398C272.969 5.15983 271.799 -0.349918 268.779 0.700082C266.379 1.54008 267.529 5.89002 268.589 9.89002C269.349 12.77 269.94 15.5799 269.62 16.2699C268.51 16.1199 266.36 13.6597 264.12 10.8597C261.07 7.05975 257.73 2.77965 255.37 4.25965C252.25 6.20965 256.44 11.05 259.87 15.08C262.16 17.77 263.989 20.2299 263.539 20.7699C263.149 21.1699 260.44 19.9997 257.62 18.5697C254.1 16.7797 250.279 14.7299 249.179 16.3099C247.479 18.7599 252.59 21.7801 256.62 24.1801C259.22 25.7301 261.209 27.1997 261.159 27.5297C260.939 27.9397 258.869 27.8397 256.689 27.5897C253.939 27.2697 250.939 26.8598 250.509 28.4398C249.889 30.7498 255.139 32.4698 261.349 34.6298C264.999 35.8998 273.879 39.68 274.719 39.87C275.769 40.1 277.379 38.9801 278.179 37.2001C279.649 33.9301 281.97 33.94 283.12 32.83C284.54 31.46 285.009 30.2698 284.979 29.9398C285.669 21.8598 291.299 13.2198 287.749 11.6298Z" fill="#B4D235"/>
<path d="M270.611 32.7599C269.271 32.7599 268.171 32.4399 267.691 32.0099C267.531 31.8599 267.511 31.6103 267.661 31.4503C267.811 31.2903 268.061 31.2701 268.221 31.4201C268.971 32.1001 272.471 32.4699 275.171 30.5299C278.331 28.2599 278.581 24.4703 278.581 24.4303C278.591 24.2103 278.781 24.0402 279.001 24.0602C279.221 24.0702 279.381 24.2601 279.371 24.4801C279.361 24.6501 279.111 28.6803 275.631 31.1803C274.021 32.3303 272.151 32.7599 270.611 32.7599Z" fill="#131314"/>
<path d="M280.399 31.1801C278.889 31.1801 277.399 30.07 276.779 29.56C276.609 29.42 276.589 29.1699 276.729 28.9999C276.869 28.8299 277.119 28.8101 277.289 28.9501C277.749 29.3401 279.379 30.5898 280.749 30.3598C281.309 30.2598 281.75 29.9297 282.1 29.3397C282.47 28.7097 282.46 28.13 282.07 27.62C281.36 26.7 279.679 26.2697 278.769 26.5297C278.559 26.5897 278.339 26.4697 278.279 26.2597C278.219 26.0497 278.339 25.8299 278.549 25.7699C279.739 25.4299 281.759 25.9398 282.689 27.1298C283.289 27.8998 283.319 28.8301 282.779 29.7401C282.309 30.5301 281.669 31 280.879 31.14C280.719 31.17 280.559 31.1801 280.399 31.1801Z" fill="#131314"/>
<path d="M280.711 28.91C280.641 28.91 280.561 28.89 280.491 28.85C279.551 28.24 278.141 27.9098 278.131 27.8998C277.921 27.8498 277.791 27.6401 277.831 27.4301C277.881 27.2201 278.091 27.0898 278.301 27.1298C278.361 27.1398 279.861 27.5001 280.921 28.1801C281.101 28.3001 281.151 28.5399 281.031 28.7299C280.971 28.8499 280.841 28.91 280.711 28.91Z" fill="#131314"/>
<path d="M272.232 28.4801C271.892 28.4801 271.462 28.3502 271.222 27.7902C271.072 27.4302 271.012 26.9804 270.952 26.4704C270.882 25.8304 270.792 25.1102 270.492 24.5202C270.392 24.3302 270.472 24.0904 270.672 23.9904C270.872 23.8904 271.102 23.9701 271.202 24.1701C271.562 24.8901 271.652 25.68 271.742 26.38C271.872 27.49 271.962 27.7203 272.282 27.7003C273.192 27.6303 273.302 26.89 273.312 26.86C273.342 26.64 273.542 26.4902 273.752 26.5202C273.972 26.5502 274.122 26.7501 274.092 26.9601C274.032 27.4501 273.582 28.3901 272.342 28.4801C272.302 28.4801 272.272 28.4801 272.232 28.4801Z" fill="#131314"/>
<path d="M266.42 29.7998C265.41 29.7998 264.441 29.3102 263.821 28.4902C263.051 27.4702 262.71 26.17 262.92 25.02C263.08 24.15 263.53 23.44 264.19 23.02C264.62 22.75 265.091 22.6099 265.601 22.6099C266.471 22.6099 267.381 23.03 268.101 23.77C268.881 24.58 269.31 25.6299 269.28 26.6499C269.2 28.8299 267.79 29.7998 266.42 29.7998ZM265.591 23.3999C265.241 23.3999 264.911 23.4999 264.611 23.6899C264.131 23.9899 263.81 24.5202 263.69 25.1602C263.52 26.1002 263.8 27.17 264.44 28.02C264.91 28.63 265.66 29.0098 266.42 29.0098C267.38 29.0098 268.42 28.3899 268.48 26.6299C268.51 25.8199 268.16 24.9798 267.52 24.3198C266.96 23.7398 266.251 23.3999 265.591 23.3999Z" fill="#131314"/>
<path d="M275.36 23.5C274.9 23.5 274.42 23.4 273.91 23.21C272.59 22.7 271.59 21.3601 271.41 19.8701C271.27 18.7101 271.68 17.6999 272.54 17.1099C272.99 16.7999 273.54 16.6299 274.12 16.6299C275.51 16.6299 276.92 17.5199 277.71 18.8999C278.28 19.8999 278.29 21.1701 277.73 22.1401C277.25 23.0101 276.38 23.5 275.36 23.5ZM274.14 17.4302C273.71 17.4302 273.33 17.54 273 17.77C272.17 18.35 272.14 19.28 272.2 19.79C272.34 20.98 273.16 22.08 274.2 22.48C274.61 22.64 275 22.7202 275.36 22.7202C276.1 22.7202 276.71 22.3798 277.07 21.7598C277.49 21.0298 277.48 20.0701 277.05 19.3101C276.4 18.1801 275.23 17.4302 274.14 17.4302Z" fill="#131314"/>
<path d="M273.539 21.0399C273.749 21.4599 274.259 21.62 274.669 21.41C275.079 21.2 275.249 20.6897 275.039 20.2797C274.829 19.8597 274.319 19.7 273.909 19.91C273.499 20.12 273.329 20.6299 273.539 21.0399Z" fill="#131314"/>
<path d="M267.42 25.4601C267.72 25.8101 267.68 26.3501 267.32 26.6501C266.97 26.9501 266.43 26.91 266.13 26.55C265.83 26.2 265.87 25.66 266.23 25.36C266.59 25.06 267.12 25.1101 267.42 25.4601Z" fill="#131314"/>
<path d="M279.572 24.83C278.802 24.83 277.962 24.5598 277.362 23.7098C277.242 23.5298 277.281 23.29 277.461 23.16C277.641 23.04 277.882 23.0796 278.012 23.2596C278.952 24.5996 280.661 23.8199 280.741 23.7899C280.941 23.6999 281.172 23.7799 281.262 23.9799C281.352 24.1799 281.272 24.4099 281.072 24.4999C280.712 24.6699 280.162 24.83 279.572 24.83Z" fill="#131314"/>
<path d="M266.71 34.0399C266.59 34.0399 266.469 33.9797 266.389 33.8797C266.259 33.7097 266.3 33.4599 266.47 33.3299C266.54 33.2799 268.03 32.1298 267.29 30.6698C267.19 30.4798 267.27 30.24 267.46 30.14C267.65 30.04 267.89 30.1199 267.99 30.3099C268.83 31.9599 267.669 33.4098 266.939 33.9598C266.879 34.0098 266.8 34.0399 266.71 34.0399Z" fill="#131314"/>
<path d="M439.998 117.31C440.198 99.2301 442.028 65.1601 442.768 50.6001C442.828 49.3601 442.848 48.6098 443.538 47.7598C439.358 47.3598 430.508 46.6198 428.368 46.5698C428.768 48.3298 428.608 49.9999 428.468 51.4399C427.558 60.7299 424.998 95.2898 423.418 117.32C431.658 117.31 436.898 117.31 439.998 117.31Z" fill="#FBCB9D"/>
<path d="M458.268 37.5297C457.048 34.1197 448.698 37.1598 448.198 36.1498C447.678 35.1098 448.608 32.2599 450.468 27.7299C452.658 22.3999 455.818 17.7197 452.958 16.2797C450.688 15.1297 448.358 18.9799 446.208 22.5199C444.658 25.0699 443.238 26.4398 442.518 26.6698C441.858 25.7698 441.938 23.5201 442.398 19.9701C443.018 15.1401 443.778 9.76972 441.078 9.08972C437.508 8.19972 436.938 14.57 436.418 19.85C436.068 23.37 435.548 25.32 434.838 25.37C434.278 25.37 433.278 23.6698 432.348 20.6498C431.188 16.8698 430.018 12.6999 428.118 12.9999C425.178 13.4799 426.548 19.2497 427.618 23.8197C428.308 26.7697 428.398 28.5599 428.118 28.7499C427.668 28.8799 426.548 27.9699 425.208 26.2299C423.528 24.0299 421.738 21.5798 420.308 22.3798C418.218 23.5398 420.618 28.5099 423.378 34.4799C424.998 37.9899 428.438 47.0001 428.888 47.7401C429.448 48.6501 431.378 49.0398 433.208 48.3798C436.578 47.1698 438.188 48.8398 439.788 48.8998C441.758 48.9698 442.948 48.4899 443.158 48.2299C449.468 43.1299 459.578 41.1797 458.268 37.5297Z" fill="#EE4043"/>
<path d="M436.85 43.7499C437.09 43.7499 437.34 43.7401 437.59 43.7201C441.46 43.4101 444.31 40.4399 444.5 38.9999C444.53 38.7799 444.38 38.59 444.16 38.56C443.94 38.53 443.75 38.6798 443.72 38.8998C443.58 39.9598 441.02 42.6599 437.52 42.9399C433.42 43.2699 430.65 40.39 430.62 40.37C430.47 40.21 430.22 40.2 430.06 40.35C429.9 40.5 429.89 40.7501 430.04 40.9101C430.17 41.0301 432.8 43.7499 436.85 43.7499Z" fill="#131314"/>
<path d="M437.178 39.7402C437.548 39.7402 437.958 39.6298 438.378 39.3198C439.328 38.6298 438.679 37.6498 438.109 36.7998C437.739 36.2398 437.308 35.5999 437.138 34.9199C437.088 34.7099 436.878 34.5798 436.658 34.6298C436.438 34.6798 436.319 34.8998 436.369 35.1098C436.569 35.9298 437.028 36.6302 437.438 37.2402C438.098 38.2302 438.178 38.4899 437.898 38.6899C437.138 39.2499 436.538 38.7699 436.478 38.7099C436.318 38.5599 436.068 38.5802 435.918 38.7402C435.768 38.9002 435.788 39.1498 435.948 39.2998C436.198 39.4998 436.638 39.7402 437.178 39.7402Z" fill="#131314"/>
<path d="M439.631 35.7798C438.641 34.6898 438.332 32.9602 438.862 31.4902C439.282 30.3402 440.131 29.5902 441.211 29.4502C441.331 29.4302 441.462 29.4199 441.592 29.4199C443.462 29.4199 445.081 31.2801 445.211 33.5601C445.261 34.5001 444.922 35.4401 444.282 36.1201C443.702 36.7301 442.961 37.0601 442.181 37.0601C441.541 37.0601 440.591 36.8298 439.631 35.7798ZM441.322 30.2202C440.262 30.3702 439.792 31.24 439.602 31.75C439.172 32.94 439.421 34.3802 440.211 35.2402C440.821 35.9102 441.491 36.2598 442.171 36.2598C442.731 36.2598 443.281 36.0101 443.701 35.5601C444.201 35.0301 444.461 34.3101 444.421 33.5801C444.321 31.7401 443.022 30.1899 441.592 30.1899C441.512 30.1999 441.412 30.2102 441.322 30.2202Z" fill="#131314"/>
<path d="M428.51 36.3299C428.72 36.3299 428.9 36.16 428.9 35.95C428.97 33.34 429.91 32.3799 430.77 32.3499C431.78 32.3099 432.99 33.47 433.18 35.39C433.2 35.61 433.39 35.7701 433.61 35.7401C433.83 35.7201 433.99 35.5299 433.96 35.3099C433.72 32.8999 432.14 31.5099 430.74 31.5599C429.52 31.5999 428.19 32.78 428.11 35.93C428.1 36.15 428.28 36.3299 428.49 36.3299C428.51 36.3299 428.51 36.3299 428.51 36.3299Z" fill="#131314"/>
<path d="M440.289 33.5698C440.289 34.0598 440.689 34.46 441.179 34.46C441.669 34.46 442.069 34.0598 442.069 33.5698C442.069 33.0798 441.669 32.6802 441.179 32.6802C440.679 32.6902 440.289 33.0798 440.289 33.5698Z" fill="#131314"/>
<path d="M428.589 42.0901C428.619 42.0901 428.659 42.0903 428.689 42.0803C429.609 41.8303 431.289 40.8602 431.109 38.9402C431.089 38.7202 430.899 38.5603 430.679 38.5803C430.459 38.6003 430.299 38.79 430.319 39.01C430.479 40.74 428.559 41.2903 428.479 41.3103C428.269 41.3703 428.149 41.5803 428.199 41.7903C428.259 41.9803 428.409 42.0901 428.589 42.0901Z" fill="#131314"/>
<path d="M446.248 40.0498C446.318 40.0498 446.378 40.05 446.448 40.04C446.668 40.03 446.828 39.8401 446.818 39.6201C446.808 39.4001 446.618 39.24 446.398 39.25C446.308 39.26 444.318 39.3501 443.918 37.6601C443.868 37.4501 443.658 37.3201 443.438 37.3701C443.218 37.4201 443.098 37.6301 443.148 37.8501C443.558 39.6001 445.258 40.0498 446.248 40.0498Z" fill="#131314"/>
<path d="M346.801 117.31C346.421 114.09 346.231 102.82 346.041 97.75C345.991 96.51 345.86 95.7701 346.43 94.8301C342.24 94.9701 333.36 95.3901 331.23 95.6201C331.86 97.3101 331.85 99.0002 331.96 100.43C332.07 101.83 331.951 111.61 332.031 117.31C338.901 117.31 343.171 117.31 346.801 117.31Z" fill="#FBCB9D"/>
<path d="M346.801 117.31C346.421 114.09 346.231 102.82 346.041 97.75C345.991 96.51 345.86 95.7701 346.43 94.8301C342.24 94.9701 333.36 95.3901 331.23 95.6201C331.86 97.3101 331.85 99.0002 331.96 100.43C332.07 101.83 331.951 111.61 332.031 117.31C338.901 117.31 343.171 117.31 346.801 117.31Z" fill="#FBCB9D"/>
<path d="M359.719 82.7799C358.069 79.5599 349.389 84.52 348.759 83.59C348.109 82.63 349.459 78.8 350.719 74.07C352.199 68.5 354.729 63.46 351.709 62.4C349.309 61.56 347.499 65.6801 345.829 69.4601C344.619 72.1801 343.339 74.7602 342.649 75.0802C341.879 74.2702 341.729 71.0001 341.729 67.4201C341.719 62.5501 341.779 57.1199 339.009 56.7999C335.359 56.3799 335.609 62.77 335.779 68.07C335.889 71.6 335.789 74.6599 335.099 74.7999C334.549 74.8699 333.159 72.26 331.849 69.38C330.209 65.79 328.509 61.8002 326.659 62.3502C323.799 63.2002 325.909 68.7503 327.559 73.1403C328.619 75.9803 329.269 78.36 329.019 78.59C328.589 78.78 327.039 77.4 325.489 75.84C323.539 73.88 321.449 71.68 320.129 72.65C318.199 74.07 321.229 78.6901 324.739 84.2501C326.799 87.5201 331.379 96.0103 331.919 96.6803C332.589 97.5103 334.549 97.6499 336.289 96.7599C339.479 95.1199 341.289 96.5803 342.879 96.4303C344.839 96.2503 345.959 95.6102 346.139 95.3302C351.709 89.4802 361.489 86.2399 359.719 82.7799Z" fill="#039370"/>
<path d="M335.088 75.67C335.158 75.43 335.088 75.1302 335.068 74.8102H335.078C335.768 74.6702 335.868 71.6102 335.758 68.0802C335.588 62.7902 335.338 56.3902 338.988 56.8102C341.758 57.1302 341.698 62.5503 341.708 67.4303C341.718 71.0103 341.858 74.2799 342.628 75.0899C343.138 74.8399 343.988 73.3503 344.878 71.4703L344.698 79.61C344.698 79.61 340.558 85.5202 338.268 84.8102C338.088 83.5302 337.268 83.8601 336.038 82.7301C334.168 80.9901 334.118 78.83 335.088 75.67Z" fill="#FAC22C"/>
<path d="M338.91 96.0096C338.31 93.6596 338.92 89.8896 338.69 87.2596C338.51 85.1696 337.671 84.3796 339.121 83.7796C341.961 82.5996 340.54 78.0396 342.58 75.0096C342.6 75.0396 342.62 75.0696 342.65 75.0896C343.33 74.7596 344.62 72.19 345.83 69.47C347.5 65.69 349.31 61.57 351.71 62.41C354.73 63.47 352.2 68.5099 350.72 74.0799C349.46 78.8099 348.11 82.6399 348.76 83.5999C349.39 84.5299 358.07 79.5698 359.72 82.7898C361.49 86.2498 351.711 89.4897 346.121 95.3597C345.941 95.6397 344.831 96.2698 342.861 96.4598C341.771 96.5498 340.57 95.8996 338.91 96.0096Z" fill="#705DA7"/>
<path d="M346.119 95.3501C345.939 95.6301 344.829 96.2602 342.859 96.4502C341.889 96.5402 340.839 96.04 339.439 96C339.099 92.74 338.839 89.3099 338.719 87.1699C341.329 84.7099 343.759 83.5701 348.749 83.5801C348.749 83.5901 348.759 83.5901 348.759 83.6001C349.389 84.5301 358.069 79.5701 359.719 82.7901C361.489 86.2401 351.709 89.4801 346.119 95.3501Z" fill="#EE4043"/>
<path d="M320.11 72.67C321.43 71.7 323.52 73.8899 325.47 75.8599C325.52 75.9099 325.57 75.9598 325.61 76.0098C325.62 76.0198 325.639 76.0399 325.649 76.0499C325.679 76.0799 325.72 76.1199 325.75 76.1499C325.77 76.1699 325.8 76.2003 325.82 76.2203C325.84 76.2403 325.869 76.2701 325.889 76.2901C325.909 76.3101 325.94 76.3399 325.96 76.3599C325.98 76.3799 326.01 76.4102 326.03 76.4302C326.06 76.4602 326.08 76.4798 326.11 76.5098C326.13 76.5298 326.149 76.5499 326.169 76.5699C326.199 76.5999 326.23 76.6299 326.26 76.6499C326.28 76.6699 326.3 76.6802 326.31 76.7002C326.34 76.7302 326.369 76.7598 326.399 76.7798C326.419 76.7998 326.43 76.8101 326.45 76.8301C326.48 76.8601 326.51 76.89 326.54 76.92C326.55 76.93 326.57 76.95 326.58 76.96C326.61 76.99 326.64 77.0199 326.68 77.0499C326.69 77.0599 326.71 77.0699 326.72 77.0899C326.75 77.1199 326.79 77.1502 326.82 77.1802C326.83 77.1902 326.84 77.2 326.85 77.21C326.89 77.24 326.92 77.2699 326.95 77.2999C326.96 77.3099 326.97 77.3199 326.98 77.3199C327.01 77.3499 327.05 77.3802 327.08 77.4102C327.09 77.4202 327.1 77.4202 327.1 77.4302C327.14 77.4602 327.17 77.4901 327.21 77.5201C327.22 77.5301 327.22 77.5301 327.23 77.5401C327.27 77.5701 327.3 77.5999 327.34 77.6299C327.35 77.6399 327.35 77.6399 327.36 77.6499C327.4 77.6799 327.43 77.7103 327.47 77.7403C327.48 77.7403 327.48 77.75 327.48 77.75C327.52 77.78 327.55 77.8099 327.59 77.8399L327.6 77.8501C327.64 77.8801 327.67 77.91 327.71 77.94C327.71 77.94 327.72 77.9402 327.72 77.9502C327.76 77.9802 327.79 78.0098 327.82 78.0298C327.82 78.0298 327.83 78.0301 327.83 78.0401C327.86 78.0701 327.9 78.0902 327.93 78.1202C327.93 78.1202 327.93 78.1202 327.94 78.1202C327.97 78.1502 328.01 78.17 328.04 78.19C328.07 78.21 328.109 78.2398 328.139 78.2598C328.169 78.2798 328.2 78.2999 328.24 78.3199C328.27 78.3399 328.3 78.3599 328.33 78.3799C328.36 78.3999 328.389 78.4202 328.419 78.4302C328.649 78.5602 328.83 78.6199 328.95 78.5899C329.2 78.9199 329.36 79.2602 329.58 79.4502C333.86 83.1502 334.199 87.1803 338.659 87.2403C339.889 90.1203 340.309 93.0501 340.169 96.0401C339.109 95.8901 337.85 95.9298 336.24 96.7598C334.5 97.6498 332.55 97.5202 331.87 96.6802C331.33 96.0102 326.75 87.52 324.69 84.25C321.21 78.71 318.18 74.09 320.11 72.67Z" fill="#ED75AA"/>
<path d="M339.519 78.7299C343.629 79.9599 347.569 82.5199 344.019 87.9599C340.469 93.3999 334.319 91.04 332.659 85.83C330.999 80.62 334.789 77.3099 339.519 78.7299Z" fill="#24C2E9"/>
<path d="M98.0154 117.31C97.6354 114.09 97.4454 102.82 97.2554 97.75C97.2054 96.51 97.0753 95.7701 97.6453 94.8301C93.4553 94.9701 84.5753 95.3901 82.4453 95.6201C83.0753 97.3101 83.0653 99.0002 83.1753 100.43C83.2853 101.83 83.1654 111.61 83.2454 117.31C90.1154 117.31 94.3854 117.31 98.0154 117.31Z" fill="#FBCB9D"/>
<path d="M98.0154 117.31C97.6354 114.09 97.4454 102.82 97.2554 97.75C97.2054 96.51 97.0753 95.7701 97.6453 94.8301C93.4553 94.9701 84.5753 95.3901 82.4453 95.6201C83.0753 97.3101 83.0653 99.0002 83.1753 100.43C83.2853 101.83 83.1654 111.61 83.2454 117.31C90.1154 117.31 94.3854 117.31 98.0154 117.31Z" fill="#FBCB9D"/>
<path d="M110.938 82.7799C109.288 79.5599 100.608 84.52 99.9775 83.59C99.3275 82.63 100.678 78.8 101.938 74.07C103.418 68.5 105.947 63.46 102.927 62.4C100.527 61.56 98.7176 65.6801 97.0476 69.4601C95.8376 72.1801 94.5577 74.7602 93.8677 75.0802C93.0977 74.2702 92.9475 71.0001 92.9475 67.4201C92.9375 62.5501 92.9975 57.1199 90.2275 56.7999C86.5775 56.3799 86.8276 62.77 86.9976 68.07C87.1076 71.6 87.0076 74.6599 86.3176 74.7999C85.7676 74.8699 84.3776 72.26 83.0676 69.38C81.4276 65.79 79.7274 61.8002 77.8774 62.3502C75.0174 63.2002 77.1276 68.7503 78.7776 73.1403C79.8376 75.9803 80.4876 78.36 80.2376 78.59C79.8076 78.78 78.2575 77.4 76.7075 75.84C74.7575 73.88 72.6677 71.68 71.3477 72.65C69.4177 74.07 72.4475 78.6901 75.9575 84.2501C78.0175 87.5201 82.5975 96.0103 83.1375 96.6803C83.8075 97.5103 85.7676 97.6499 87.5076 96.7599C90.6976 95.1199 92.5077 96.5803 94.0977 96.4303C96.0577 96.2503 97.1777 95.6102 97.3577 95.3302C102.928 89.4802 112.718 86.2399 110.938 82.7799Z" fill="#1890CF"/>
<path d="M86.3184 75.67C86.3984 75.43 86.3183 75.1302 86.2983 74.8102H86.3083C86.9983 74.6702 87.0983 71.6102 86.9883 68.0802C86.8183 62.7902 86.5683 56.3902 90.2183 56.8102C92.9883 57.1302 92.9282 62.5503 92.9382 67.4303C92.9482 71.0103 93.0884 74.2799 93.8584 75.0899C94.3684 74.8399 95.2184 73.3503 96.1084 71.4703L95.9282 79.61C95.9282 79.61 91.7883 85.5202 89.4983 84.8102C89.3183 83.5302 88.4983 83.8601 87.2683 82.7301C85.3883 80.9901 85.3384 78.83 86.3184 75.67Z" fill="#F5CBDF"/>
<path d="M90.1252 96.0096C89.5252 93.6596 90.1352 89.8896 89.9052 87.2596C89.7252 85.1696 88.8854 84.3796 90.3354 83.7796C93.1754 82.5996 91.7553 78.0396 93.7953 75.0096C93.8153 75.0396 93.8354 75.0696 93.8654 75.0896C94.5454 74.7596 95.8353 72.19 97.0453 69.47C98.7153 65.69 100.525 61.57 102.925 62.41C105.945 63.47 103.415 68.5099 101.935 74.0799C100.675 78.8099 99.3253 82.6399 99.9753 83.5999C100.605 84.5299 109.285 79.5698 110.935 82.7898C112.705 86.2498 102.925 89.4897 97.3354 95.3597C97.1554 95.6397 96.0454 96.2698 94.0754 96.4598C92.9854 96.5498 91.7952 95.8996 90.1252 96.0096Z" fill="#8AC440"/>
<path d="M97.3376 95.3501C97.1576 95.6301 96.0476 96.2602 94.0776 96.4502C93.1076 96.5402 92.0575 96.04 90.6575 96C90.3175 92.74 90.0575 89.3099 89.9375 87.1699C92.5475 84.7099 94.9775 83.5701 99.9675 83.5801C99.9675 83.5901 99.9775 83.5901 99.9775 83.6001C100.608 84.5301 109.288 79.5701 110.938 82.7901C112.718 86.2401 102.928 89.4801 97.3376 95.3501Z" fill="#009247"/>
<path d="M71.3272 72.67C72.6472 71.7 74.737 73.8899 76.687 75.8599C76.737 75.9099 76.7872 75.9598 76.8272 76.0098C76.8372 76.0198 76.8572 76.0399 76.8672 76.0499C76.8972 76.0799 76.9371 76.1199 76.9671 76.1499C76.9871 76.1699 77.0171 76.2003 77.0371 76.2203C77.0571 76.2403 77.0872 76.2701 77.1072 76.2901C77.1272 76.3101 77.157 76.3399 77.177 76.3599C77.197 76.3799 77.2271 76.4102 77.2471 76.4302C77.2771 76.4602 77.2972 76.4798 77.3272 76.5098C77.3472 76.5298 77.367 76.5499 77.387 76.5699C77.417 76.5999 77.4471 76.6299 77.4771 76.6499C77.4971 76.6699 77.5171 76.6802 77.5271 76.7002C77.5571 76.7302 77.5872 76.7598 77.6172 76.7798C77.6372 76.7998 77.647 76.8101 77.667 76.8301C77.697 76.8601 77.7271 76.89 77.7571 76.92C77.7671 76.93 77.7871 76.95 77.7971 76.96C77.8271 76.99 77.867 77.0199 77.897 77.0499C77.907 77.0599 77.927 77.0699 77.937 77.0899C77.967 77.1199 78.0071 77.1502 78.0371 77.1802C78.0471 77.1902 78.0572 77.2 78.0672 77.21C78.0972 77.24 78.137 77.2699 78.167 77.2999C78.177 77.3099 78.187 77.3199 78.197 77.3199C78.237 77.3499 78.2671 77.3802 78.2971 77.4102C78.3071 77.4202 78.3172 77.4202 78.3172 77.4302C78.3572 77.4602 78.387 77.4901 78.427 77.5201C78.437 77.5301 78.437 77.5301 78.447 77.5401C78.487 77.5701 78.5171 77.5999 78.5571 77.6299C78.5671 77.6399 78.5672 77.6399 78.5772 77.6499C78.6172 77.6799 78.647 77.7103 78.687 77.7403C78.697 77.7403 78.6971 77.75 78.7071 77.75C78.7471 77.78 78.7772 77.8099 78.8172 77.8399L78.8272 77.8501C78.8672 77.8801 78.897 77.91 78.937 77.94C78.937 77.94 78.947 77.9402 78.947 77.9502C78.987 77.9802 79.0171 78.0098 79.0471 78.0298C79.0471 78.0298 79.0571 78.0301 79.0571 78.0401C79.0871 78.0701 79.127 78.0902 79.157 78.1202C79.157 78.1202 79.157 78.1202 79.167 78.1202C79.197 78.1502 79.2371 78.17 79.2671 78.19C79.2971 78.21 79.3372 78.2398 79.3672 78.2598C79.3972 78.2798 79.4271 78.2999 79.4671 78.3199C79.4971 78.3399 79.5271 78.3599 79.5571 78.3799C79.5871 78.3999 79.617 78.4202 79.647 78.4302C79.877 78.5602 80.057 78.6199 80.177 78.5899C80.427 78.9199 80.5871 79.2602 80.8071 79.4502C85.0871 83.1502 85.427 87.1803 89.887 87.2403C91.117 90.1203 91.537 93.0501 91.397 96.0401C90.337 95.8901 89.0771 95.9298 87.4671 96.7598C85.7271 97.6498 83.7772 97.5202 83.0972 96.6802C82.5572 96.0102 77.977 87.52 75.917 84.25C72.437 78.71 69.4072 74.09 71.3272 72.67Z" fill="#EE4043"/>
<path d="M90.7455 78.7299C94.8555 79.9599 98.7955 82.5199 95.2455 87.9599C91.6955 93.3999 85.5453 91.04 83.8853 85.83C82.2153 80.62 86.0055 77.3099 90.7455 78.7299Z" fill="#FAC22C"/>
<path d="M252.708 117.31C253.068 107.2 254.138 88.6601 255.508 76.3101C255.648 75.0801 255.588 74.3302 256.278 73.4702C252.108 73.0702 243.268 72.3298 241.138 72.2798C241.538 74.0298 241.378 75.7001 241.238 77.1401C240.328 86.4101 237.738 106.94 236.168 117.3C244.378 117.31 249.618 117.31 252.708 117.31Z" fill="#FBCB9D"/>
<path d="M270.977 63.27C269.757 59.87 260.527 63.6599 260.027 62.6499C259.507 61.6199 261.347 58.0002 263.197 53.4902C265.377 48.1702 268.527 43.5098 265.677 42.0698C263.407 40.9298 261.087 44.7698 258.947 48.2998C257.397 50.8398 255.797 53.2202 255.077 53.4502C254.417 52.5502 254.697 49.3 255.147 45.75C255.767 40.93 256.527 35.5701 253.827 34.8901C250.267 34.0001 249.697 40.3601 249.177 45.6201C248.827 49.1301 248.337 52.1499 247.637 52.1899C247.087 52.1899 246.047 49.4302 245.117 46.4102C243.957 42.6402 242.787 38.4698 240.887 38.7798C237.947 39.2498 239.317 45.0201 240.387 49.5801C241.077 52.5201 241.397 54.9702 241.127 55.1602C240.677 55.2902 239.327 53.7302 237.987 51.9902C236.307 49.7902 234.527 47.3501 233.097 48.1401C231.007 49.2901 233.407 54.26 236.157 60.21C237.777 63.71 241.207 72.7099 241.657 73.4399C242.217 74.3499 244.137 74.7401 245.967 74.0801C249.337 72.8701 250.937 74.5401 252.527 74.6001C254.497 74.6701 255.677 74.1899 255.897 73.9399C262.187 68.8599 272.287 66.92 270.977 63.27Z" fill="#24C2E9"/>
<path d="M254.686 51.5897C254.666 51.0297 254.686 50.37 254.736 49.66C252.826 48.75 250.276 48.4997 248.776 48.8597C248.666 49.5797 248.546 50.2098 248.406 50.7298C250.376 50.3098 252.676 50.8497 254.686 51.5897Z" fill="#EE4876"/>
<path d="M262.647 54.7998C262.827 54.3698 263.008 53.9402 263.188 53.4902C263.298 53.2202 263.408 52.9602 263.518 52.7002C261.798 51.2002 259.348 50.31 257.698 50.27C257.258 50.95 256.827 51.5701 256.438 52.0801C259.168 52.4901 260.907 53.9398 262.647 54.7998Z" fill="#EE4876"/>
<path d="M244.927 57.0296C242.577 56.9896 238.747 57.2298 235.117 57.9798C235.387 58.5598 235.657 59.1596 235.937 59.7596C238.897 59.0396 244.357 58.3899 248.417 58.8699C252.377 59.3399 256.707 60.2799 260.057 61.3299C260.167 60.8699 260.357 60.32 260.587 59.7C256.167 58.26 254.097 57.1796 244.927 57.0296Z" fill="#EE4876"/>
<path d="M266.385 61.9102C265.285 62.0302 264.135 62.2502 263.125 62.4502C263.415 62.5702 263.675 62.6898 263.925 62.8198C266.365 64.0998 268.395 65.5498 269.395 66.2998C270.085 65.8098 270.595 65.3098 270.865 64.7798C269.525 63.8398 268.505 62.6002 266.385 61.9102Z" fill="#EE4876"/>
<path d="M240.947 52.3302C241.747 51.7302 243.097 51.3802 243.947 51.1002C244.657 50.8702 245.837 50.8799 246.667 50.7999C246.437 50.2699 246.187 49.62 245.927 48.9C244.347 48.89 242.137 49.4299 240.547 50.2999C240.707 51.0299 240.837 51.7202 240.947 52.3302Z" fill="#EE4876"/>
<path d="M254.545 70.5698C249.885 69.1998 247.515 69.8101 245.815 70.0801C244.825 70.2401 241.645 70.1802 239.855 69.1602C240.265 70.1702 240.635 71.0898 240.935 71.8198C243.895 71.9298 246.205 72.0701 247.465 71.8501C251.355 71.2001 252.495 73.1902 257.255 72.9302C258.595 72.0002 260.045 71.1899 261.475 70.4399C258.875 70.2799 256.415 71.1198 254.545 70.5698Z" fill="#EE4876"/>
<path d="M237.375 63.0601C237.635 63.6901 237.905 64.3498 238.185 65.0298C241.395 65.0998 246.935 65.3001 249.915 65.8101C253.395 66.4101 261.505 67.66 265.465 68.48C266.055 68.19 266.625 67.9099 267.165 67.6299C263.615 66.2899 261.555 65.3302 250.375 63.9102C244.925 63.2102 240.805 63.3201 237.375 63.0601Z" fill="#EE4876"/>
<path d="M232.527 51.3999C233.677 50.7699 235.067 50 235.967 49.48C235.447 48.91 234.937 48.4502 234.437 48.2002C233.637 48.8402 232.887 49.4401 232.297 49.8901C232.307 50.3301 232.387 50.8399 232.527 51.3999Z" fill="#EE4876"/>
<path d="M233.626 54.5898C234.866 54.2098 236.806 53.61 238.776 53C238.516 52.68 238.246 52.3402 237.976 51.9902C237.816 51.7802 237.646 51.5598 237.476 51.3398C236.076 51.9098 234.316 52.6702 233.086 53.2202C233.256 53.6602 233.436 54.1198 233.626 54.5898Z" fill="#EE4876"/>
<path d="M239.718 46.6099C241.008 44.6699 242.978 43.9401 244.078 43.1401C243.908 42.6401 243.728 42.1502 243.548 41.7002C241.698 42.0202 240.378 43.1102 239.258 43.9702C239.368 44.8202 239.528 45.7099 239.718 46.6099Z" fill="#EE4876"/>
<path d="M261.016 45.0298C262.826 45.4598 264.396 46.3399 265.586 48.1499C265.896 47.4399 266.165 46.7802 266.375 46.1602C265.085 44.7302 263.766 43.8401 262.356 43.3301C261.906 43.8101 261.456 44.3898 261.016 45.0298Z" fill="#EE4876"/>
<path d="M249.508 42.4402C251.648 42.1802 254.148 42.4701 255.498 42.9201C255.568 42.3201 255.628 41.7301 255.668 41.1501C253.658 40.3601 251.848 39.9702 249.828 40.2902C249.708 40.9802 249.598 41.7002 249.508 42.4402Z" fill="#EE4876"/>
<path d="M254.038 37.46C254.038 38.04 253.568 38.5098 252.988 38.5098C252.408 38.5098 251.938 38.04 251.938 37.46C251.938 36.88 252.408 36.4102 252.988 36.4102C253.568 36.4102 254.038 36.88 254.038 37.46Z" fill="#EE4876"/>
<path d="M253.198 45.4902C253.198 46.0702 252.727 46.54 252.147 46.54C251.567 46.54 251.098 46.0702 251.098 45.4902C251.098 44.9102 251.567 44.4399 252.147 44.4399C252.727 44.4399 253.198 44.9102 253.198 45.4902Z" fill="#EE4876"/>
<path d="M242.499 60.8701C242.499 61.4501 242.028 61.9199 241.448 61.9199C240.868 61.9199 240.398 61.4501 240.398 60.8701C240.398 60.2901 240.868 59.8198 241.448 59.8198C242.028 59.8198 242.499 60.2901 242.499 60.8701Z" fill="#EE4876"/>
<path d="M258.397 55.46C258.397 56.04 257.927 56.5098 257.347 56.5098C256.767 56.5098 256.297 56.04 256.297 55.46C256.297 54.88 256.767 54.4102 257.347 54.4102C257.927 54.4102 258.397 54.88 258.397 55.46Z" fill="#EE4876"/>
<path d="M249.999 67.5898C249.999 68.1698 249.528 68.6401 248.948 68.6401C248.368 68.6401 247.898 68.1698 247.898 67.5898C247.898 67.0098 248.368 66.54 248.948 66.54C249.528 66.54 249.999 67.0098 249.999 67.5898Z" fill="#EE4876"/>
<path d="M178.239 117.31C177.899 101.43 176.129 64.6399 174.239 49.8599C174.079 48.6299 174.159 47.88 173.469 47.02C177.639 46.62 186.479 45.8801 188.609 45.8301C188.209 47.5801 188.369 49.2499 188.509 50.6899C189.419 59.9599 192.659 96.9101 194.789 117.31C186.569 117.31 181.329 117.31 178.239 117.31Z" fill="#FBCB9D"/>
<path d="M158.768 36.8101C159.988 33.4101 169.218 37.1999 169.718 36.1899C170.238 35.1599 168.398 31.5398 166.548 27.0298C164.368 21.7098 161.218 17.0399 164.068 15.6099C166.338 14.4699 168.658 18.3098 170.798 21.8398C172.348 24.3798 173.948 26.7602 174.668 26.9902C175.328 26.0902 175.048 22.84 174.598 19.29C173.978 14.47 173.218 9.11017 175.918 8.43017C179.478 7.54017 180.048 13.9002 180.568 19.1602C180.918 22.6702 181.408 25.69 182.108 25.73C182.658 25.73 183.698 22.9702 184.628 19.9502C185.788 16.1802 186.958 12.0098 188.858 12.3198C191.798 12.7898 190.428 18.5601 189.358 23.1201C188.668 26.0601 188.348 28.5102 188.618 28.7002C189.068 28.8302 190.418 27.2698 191.758 25.5298C193.438 23.3298 195.218 20.8902 196.648 21.6802C198.738 22.8402 196.338 27.8 193.588 33.75C191.968 37.25 188.538 46.25 188.088 46.98C187.528 47.89 185.608 48.2801 183.778 47.6201C180.418 46.4101 178.808 48.0801 177.218 48.1401C175.248 48.2101 174.068 47.73 173.848 47.48C167.558 42.41 157.458 40.4601 158.768 36.8101Z" fill="#705DA7"/>
<path d="M163.489 41.6299C163.599 39.8499 164.009 36.9201 164.209 35.5601C163.679 35.4801 163.149 35.4201 162.639 35.3901C162.729 37.0201 162.369 38.9202 162.109 40.9102C162.539 41.1502 162.999 41.3899 163.489 41.6299Z" fill="#FAC22C"/>
<path d="M168.249 36.29C167.839 36.23 167.369 36.14 166.859 36.04C166.709 37.72 166.229 41.0101 165.949 42.8301C166.599 43.1401 167.259 43.4701 167.929 43.8101C167.749 41.7901 168.079 38.13 168.249 36.29Z" fill="#FAC22C"/>
<path d="M185.52 17.1499C187.01 18.0499 189.219 19.1 190.159 19.54C190.299 18.8 190.42 18.0801 190.51 17.3901C189.4 16.7901 187.89 16.0102 186.24 15.1802C185.98 15.7802 185.75 16.4499 185.52 17.1499Z" fill="#FAC22C"/>
<path d="M174.179 15.8503C175.909 14.8303 178.78 14.3904 179.99 14.2404C179.88 13.5404 179.75 12.8702 179.59 12.2502C177.78 12.0102 175.77 12.7501 174.02 13.7101C174.05 14.3801 174.109 15.1003 174.179 15.8503Z" fill="#FAC22C"/>
<path d="M164.188 21.77C165.398 20.5 167.788 19.2002 168.798 18.6802C168.498 18.2502 168.197 17.8402 167.897 17.4702C166.557 18.0502 164.788 18.7899 163.348 19.6899C163.578 20.3399 163.868 21.03 164.188 21.77Z" fill="#FAC22C"/>
<path d="M170.799 21.8398C170.759 21.7798 170.728 21.7202 170.688 21.6602C169.828 22.3302 167.229 24.4201 166.059 25.8901C166.229 26.2701 166.389 26.66 166.549 27.04C166.769 27.59 166.999 28.1199 167.219 28.6299C167.839 26.6799 170.669 24.3102 171.789 23.4302C171.469 22.9202 171.139 22.3798 170.799 21.8398Z" fill="#FAC22C"/>
<path d="M195.551 29.4902C194.111 28.3202 192.011 27.09 191.001 26.52C190.671 26.93 190.341 27.3101 190.051 27.6401C191.351 28.6801 193.261 30.3899 194.601 31.6099C194.931 30.8799 195.251 30.1702 195.551 29.4902Z" fill="#FAC22C"/>
<path d="M193.751 23.0601C193.291 23.5701 192.831 24.15 192.371 24.75C193.231 25.79 194.871 26.8802 196.301 27.7202C196.621 26.9202 196.881 26.1798 197.081 25.5098C195.931 24.6998 194.541 23.6901 193.751 23.0601Z" fill="#FAC22C"/>
<path d="M189.359 23.1299C189.369 23.0799 189.378 23.0302 189.398 22.9702C188.328 22.1202 186.369 21.1098 184.539 20.2798C184.329 20.9498 184.118 21.6102 183.898 22.2202C185.538 22.5202 188.089 24.2401 188.989 24.8701C189.099 24.3201 189.219 23.7399 189.359 23.1299Z" fill="#FAC22C"/>
<path d="M180.568 19.1698C180.558 19.0498 180.548 18.9297 180.528 18.7997C179.088 18.7197 176.707 19.3697 174.688 20.0497C174.767 20.7197 174.847 21.3796 174.907 22.0096C176.597 21.4696 179.608 21.2598 180.798 21.1898C180.718 20.5498 180.638 19.8698 180.568 19.1698Z" fill="#FAC22C"/>
<path d="M135.699 117.31C137.209 96.8001 138.519 76.6701 138.509 75.5801C142.029 77.8501 149.419 82.7598 151.119 84.0498C150.819 84.2898 150.539 84.5501 150.279 84.8101C149.329 85.7701 149.629 112.51 149.829 117.31C141.579 117.31 140.629 117.31 135.699 117.31Z" fill="#FBCB9D"/>
<path d="M133.309 58.4504C136.369 56.5404 141.259 65.24 142.279 64.76C143.329 64.27 144.129 60.3001 145.479 55.6101C147.069 50.0801 147.489 44.4701 150.619 45.1101C153.109 45.6201 152.539 50.0702 152.039 54.1702C151.679 57.1202 151.459 59.9801 151.879 60.6101C152.959 60.3101 154.759 57.59 156.599 54.53C159.109 50.36 161.839 45.6901 164.369 46.8401C167.719 48.3501 164.219 53.7004 161.359 58.1404C159.449 61.1104 157.969 63.7802 158.489 64.2502C158.929 64.5902 161.449 63.07 164.049 61.28C167.299 59.04 170.799 56.5002 172.099 57.9202C174.109 60.1102 169.459 63.7804 165.789 66.7004C163.419 68.5804 161.649 70.3004 161.749 70.6203C162.019 71.0003 164.049 70.6203 166.179 70.0803C168.859 69.4003 171.769 68.5903 172.399 70.1003C173.319 72.3003 168.359 74.7002 162.509 77.6702C159.069 79.4102 150.799 84.3401 149.989 84.6301C148.989 85.0001 147.239 84.1102 146.209 82.4602C144.319 79.4202 142.019 79.74 140.739 78.8C139.149 77.64 138.529 76.5202 138.509 76.1902C136.729 68.2902 130.019 60.5004 133.309 58.4504Z" fill="#5970B5"/>
<path d="M152.687 67.6697C151.307 61.2297 144.657 63.3396 144.947 67.5896C145.197 71.3296 147.217 74.8397 147.957 75.6697C149.877 76.0197 152.307 75.92 155.967 74.93C160.177 73.79 159.937 70.2696 158.807 69.0696C156.887 66.9996 152.687 67.6697 152.687 67.6697Z" fill="#A5B2DB"/>
<path d="M133.309 58.4501C135.419 57.1401 138.399 60.8501 140.379 63.1401C140.269 63.5701 139.859 63.83 139.039 63.79C136.049 63.65 135.489 64.7898 136.049 67.3398C136.259 68.2698 136.409 69.3 136.339 70.06C133.879 64.58 130.889 59.9601 133.309 58.4501Z" fill="#FAC22C"/>
<path d="M144.27 60.0002C144.63 58.6902 145.019 57.1901 145.479 55.6101C147.069 50.0801 147.49 44.4701 150.62 45.1101C152.22 45.4401 152.559 47.4003 152.459 49.8503C151.169 51.4603 148.889 51.4803 149.419 54.1203C150.059 57.3203 150.489 59.4501 147.709 59.8801C146.369 60.0801 145.16 60.3102 144.27 60.0002Z" fill="#FAC22C"/>
<path d="M161.35 58.14C161.18 58.4 161.01 58.6598 160.85 58.9198C159.73 58.8098 158.53 58.5697 157.8 58.0897C156.16 57.0197 157.59 55.32 159.36 55.39C160.94 55.45 161.11 52.5498 159.09 50.4998C160.85 47.9198 162.65 46.0599 164.35 46.8299C167.71 48.3499 164.21 53.69 161.35 58.14Z" fill="#FAC22C"/>
<path d="M168.397 64.5798C167.637 64.7798 166.897 64.7999 166.187 64.6399C163.767 64.0699 159.927 65.7096 160.647 63.5696C160.667 63.5196 160.687 63.4799 160.707 63.4299C161.677 62.8799 162.857 62.1098 164.047 61.2898C167.297 59.0498 170.797 56.5099 172.097 57.9299C173.637 59.6099 171.247 62.1698 168.397 64.5798Z" fill="#FAC22C"/>
<path d="M166.548 72.6002C168.238 71.9002 168.998 70.2999 169.958 69.2799C171.148 69.1599 172.078 69.3202 172.408 70.1002C173.328 72.3002 168.368 74.7 162.518 77.67C161.558 78.16 160.208 78.9 158.758 79.71C158.588 78.09 164.278 73.5302 166.548 72.6002Z" fill="#FAC22C"/>
<path d="M35.5469 117.31C39.3269 94.9501 46.8868 54.7201 50.1968 47.1001C52.7668 50.4101 58.1169 57.4798 59.2969 59.2598C58.9269 59.3898 58.5768 59.5402 58.2468 59.7002C57.0368 60.2902 52.2268 94.6401 49.2368 117.31C41.9168 117.31 43.5769 117.31 35.5469 117.31Z" fill="#FBCB9D"/>
<path d="M50.9455 29.2097C54.4655 28.4197 56.2056 38.2499 57.3256 38.1399C58.4756 38.0199 60.5454 34.5398 63.3754 30.5598C66.7054 25.8698 68.9555 20.7099 71.6955 22.3499C73.8755 23.6499 71.8656 27.6699 70.0356 31.3699C68.7156 34.0299 67.5655 36.6597 67.7455 37.3997C68.8555 37.4797 71.4555 35.5 74.2055 33.22C77.9455 30.11 82.0756 26.6096 84.0856 28.5296C86.7456 31.0596 81.6755 34.95 77.5055 38.2C74.7255 40.37 72.4456 42.3998 72.7756 43.0198C73.0756 43.4898 75.9555 42.8898 79.0055 42.0598C82.8055 41.0198 86.9555 39.7796 87.7155 41.5496C88.8855 44.2896 83.2857 46.2098 78.8657 47.7498C76.0157 48.7498 73.7755 49.7796 73.7555 50.1096C73.8855 50.5596 75.9257 50.8698 78.1157 51.0598C80.8657 51.2998 83.8855 51.4999 83.9855 53.1399C84.1255 55.5199 78.6554 56.1495 72.1454 57.0095C68.3154 57.5195 58.8856 59.4297 58.0256 59.4397C56.9556 59.4597 55.6055 58.0399 55.1755 56.1399C54.3955 52.6499 52.1255 52.1899 51.2255 50.8699C50.1155 49.2499 49.8855 47.9897 49.9855 47.6697C50.9255 39.6297 47.1655 30.0597 50.9455 29.2097Z" fill="#F06628"/>
<path d="M63.0251 50.6201C60.7351 50.6201 58.875 48.8199 58.875 46.6099C58.875 44.3999 60.7351 42.6001 63.0251 42.6001C65.3151 42.6001 67.175 44.3999 67.175 46.6099C67.175 48.8199 65.3051 50.6201 63.0251 50.6201ZM63.0251 43.3901C61.1751 43.3901 59.665 44.8299 59.665 46.6099C59.665 48.3899 61.1751 49.8301 63.0251 49.8301C64.8751 49.8301 66.385 48.3799 66.385 46.6099C66.385 44.8399 64.8751 43.3901 63.0251 43.3901Z" fill="white"/>
<path d="M62.6841 41.7299C62.4841 41.7299 62.3142 41.5798 62.2942 41.3798C62.1442 40.1698 62.2642 38.2601 62.2642 38.1801C62.2742 37.9601 62.4641 37.8 62.6841 37.81C62.9041 37.82 63.0642 38.0099 63.0542 38.2299C63.0542 38.2499 62.9342 40.15 63.0742 41.29C63.1042 41.51 62.9441 41.6999 62.7341 41.7299C62.7141 41.7299 62.6941 41.7299 62.6841 41.7299Z" fill="white"/>
<path d="M63.9664 55.2C63.8164 55.2 63.6765 55.11 63.6065 54.97C62.9165 53.44 63.0965 51.6299 63.1065 51.5599C63.1265 51.3399 63.3165 51.1898 63.5365 51.2098C63.7565 51.2298 63.9063 51.43 63.8863 51.64C63.8863 51.66 63.7265 53.3197 64.3265 54.6497C64.4165 54.8497 64.3263 55.0798 64.1263 55.1698C64.0763 55.1898 64.0164 55.2 63.9664 55.2Z" fill="white"/>
<path d="M54.9757 48.1701C54.7857 48.1701 54.6159 48.0302 54.5859 47.8302C54.5559 47.6102 54.7057 47.4203 54.9257 47.3903C54.9457 47.3903 56.9659 47.12 57.8659 46.84C58.0759 46.78 58.2959 46.8903 58.3559 47.1003C58.4159 47.3103 58.3059 47.53 58.0959 47.59C57.1359 47.89 55.1158 48.1503 55.0258 48.1603C55.0158 48.1703 54.9957 48.1701 54.9757 48.1701Z" fill="white"/>
<path d="M68.1562 46.47C68.0563 46.47 67.9863 46.47 67.9563 46.47C67.7363 46.47 67.5664 46.2896 67.5664 46.0696C67.5664 45.8496 67.7463 45.68 67.9563 45.68C67.9563 45.68 67.9563 45.68 67.9663 45.68C68.8063 45.69 70.3064 45.64 70.7864 45.45C70.9864 45.37 71.2164 45.4697 71.2964 45.6697C71.3764 45.8697 71.2764 46.1 71.0764 46.18C70.4064 46.45 68.7563 46.47 68.1562 46.47Z" fill="white"/>
<path d="M66.1256 42.8702C66.0556 42.8702 65.9856 42.8501 65.9156 42.8101C65.7356 42.6901 65.6757 42.4501 65.7857 42.2701L67.3157 39.8199C67.4357 39.6399 67.6758 39.58 67.8558 39.69C68.0358 39.81 68.0957 40.05 67.9857 40.23L66.4556 42.6802C66.3856 42.8002 66.2556 42.8702 66.1256 42.8702Z" fill="white"/>
<path d="M58.2461 52.9501C58.1661 52.9501 58.0761 52.92 58.0061 52.87C57.8361 52.74 57.8061 52.4898 57.9361 52.3198L59.626 50.1401C59.756 49.9701 60.006 49.9398 60.176 50.0698C60.346 50.1998 60.3761 50.45 60.2461 50.62L58.5562 52.7997C58.4762 52.8997 58.3561 52.9501 58.2461 52.9501Z" fill="white"/>
<path d="M58.9569 43.7997C58.8969 43.7997 58.837 43.7896 58.777 43.7596L56.3968 42.5497C56.2068 42.4497 56.1269 42.2099 56.2269 42.0199C56.3269 41.8299 56.5669 41.75 56.7569 41.85L59.1368 43.0599C59.3268 43.1599 59.407 43.3997 59.307 43.5897C59.237 43.7197 59.0969 43.7997 58.9569 43.7997Z" fill="white"/>
<path d="M69.3245 51.2098C69.2645 51.2098 69.2043 51.2 69.1443 51.16L66.8345 49.9501C66.6445 49.8501 66.5644 49.6098 66.6644 49.4198C66.7644 49.2298 67.0044 49.1499 67.1944 49.2499L69.5045 50.4598C69.6945 50.5598 69.7744 50.8001 69.6744 50.9901C69.6044 51.1301 69.4645 51.2098 69.3245 51.2098Z" fill="white"/>
<path d="M129.871 117.31C128.761 88.6501 127.561 52.11 125.851 43.98C122.671 46.7 116.001 52.5501 114.481 54.0601C114.811 54.2601 115.131 54.4802 115.421 54.7002C116.491 55.5302 114.631 96.7701 114.141 117.31C119.441 117.31 125.741 117.31 129.871 117.31Z" fill="#FBCB9D"/>
<path d="M128.71 26.3102C125.42 24.8302 121.73 34.1001 120.66 33.7701C119.56 33.4201 118.23 29.6 116.26 25.13C113.95 19.86 112.78 14.3602 109.76 15.4102C107.36 16.2502 108.52 20.5802 109.57 24.5802C110.33 27.4602 110.92 30.26 110.59 30.94C109.48 30.79 107.33 28.3301 105.1 25.5401C102.06 21.7401 98.72 17.4803 96.37 18.9503C93.26 20.9003 97.44 25.7301 100.86 29.7501C103.15 32.4301 104.97 34.8903 104.52 35.4303C104.13 35.8303 101.43 34.6601 98.61 33.2301C95.09 31.4501 91.2798 29.4001 90.1798 30.9801C88.4798 33.4201 93.58 36.4399 97.6 38.8399C100.2 40.3899 102.18 41.8503 102.13 42.1803C101.91 42.5903 99.8498 42.4903 97.6698 42.2403C94.9198 41.9203 91.9299 41.5099 91.4999 43.0899C90.8799 45.3999 96.12 47.1101 102.31 49.2701C105.96 50.5401 114.81 54.3101 115.65 54.5001C116.7 54.7301 118.31 53.6199 119.1 51.8399C120.57 48.5799 122.88 48.5801 124.03 47.4801C125.45 46.1101 125.92 44.9302 125.89 44.6002C126.64 36.5202 132.25 27.9002 128.71 26.3102Z" fill="#36B24A"/>
<path d="M111.61 23.0801C109.97 20.7301 111.52 18.4299 113.53 18.3999C114.4 20.2599 115.21 22.7201 116.27 25.1201C116.59 25.8401 116.89 26.55 117.18 27.23C115.34 29 113.44 25.7001 111.61 23.0801ZM115.139 33.8501C112.779 32.6701 107.15 33.5099 106.98 37.3799C106.81 41.2499 108.41 42.6 111.1 41C113.8 39.4 118.849 35.7001 115.139 33.8501ZM119.94 43.3101C121.24 44.7301 123.58 45.2599 125.66 45.4199C125.73 45.2799 125.79 45.15 125.83 45.04C125.83 45.03 125.84 45.02 125.84 45.02C125.85 44.99 125.86 44.9599 125.87 44.9399C125.87 44.9299 125.879 44.9099 125.879 44.8999C125.889 44.8799 125.89 44.8598 125.9 44.8398C125.9 44.8198 125.91 44.81 125.91 44.79C125.91 44.77 125.92 44.7602 125.92 44.7402C125.92 44.7202 125.93 44.7099 125.93 44.6899C125.93 44.6799 125.93 44.6702 125.93 44.6602C125.93 44.6402 125.93 44.6098 125.93 44.5898C125.95 44.3498 125.98 44.1199 126 43.8799C126 43.8699 126 43.8601 126 43.8501C126.03 43.6201 126.06 43.3902 126.1 43.1602C126.1 43.1402 126.11 43.1199 126.11 43.1099C126.14 42.8899 126.18 42.6599 126.22 42.4399C126.22 42.4199 126.23 42.3901 126.23 42.3701C126.27 42.1501 126.31 41.93 126.36 41.71C126.37 41.68 126.369 41.6499 126.379 41.6299C126.429 41.4099 126.47 41.2 126.52 40.98C126.53 40.95 126.53 40.9201 126.54 40.8901C126.59 40.6801 126.64 40.46 126.69 40.25C126.7 40.22 126.71 40.1899 126.71 40.1499C126.76 39.9399 126.82 39.73 126.87 39.52C126.88 39.49 126.89 39.4499 126.9 39.4199C126.96 39.2099 127.01 39.0098 127.07 38.7998C127.08 38.7698 127.09 38.7302 127.1 38.7002C127.16 38.5002 127.22 38.2898 127.28 38.0898C127.29 38.0598 127.3 38.0202 127.31 37.9902C127.37 37.7902 127.43 37.5901 127.49 37.3901C127.5 37.3601 127.51 37.32 127.52 37.29C127.58 37.09 127.64 36.8902 127.71 36.7002C127.72 36.6602 127.73 36.6298 127.74 36.5898C127.8 36.3998 127.86 36.21 127.92 36.02C127.94 35.97 127.95 35.9299 127.97 35.8799C128.02 35.7099 128.079 35.5501 128.129 35.3901C128.349 34.7001 128.57 34.0301 128.78 33.3901C124.52 35.7801 117.51 40.6501 119.94 43.3101ZM99.7196 40.1499C98.5696 38.3099 95.2896 36.29 92.4596 35.48C93.9596 36.65 95.8995 37.8001 97.6295 38.8301C98.3895 39.2901 99.0996 39.7399 99.7196 40.1499ZM101.97 49.1299C102.09 49.1699 102.22 49.2198 102.34 49.2598C102.43 49.2898 102.52 49.3199 102.62 49.3599C102.64 49.3699 102.65 49.3699 102.67 49.3799C102.76 49.4099 102.86 49.45 102.95 49.48C102.97 49.49 102.99 49.49 103.01 49.5C103.11 49.54 103.21 49.5699 103.31 49.6099C103.33 49.6199 103.35 49.6199 103.37 49.6299C103.47 49.6699 103.58 49.71 103.69 49.75C103.7 49.75 103.71 49.7598 103.71 49.7598C103.82 49.7998 103.93 49.8401 104.05 49.8901C104.07 49.9001 104.1 49.9099 104.12 49.9199C104.23 49.9599 104.34 49.9998 104.45 50.0498C104.48 50.0598 104.51 50.0701 104.53 50.0801C104.64 50.1201 104.76 50.17 104.87 50.21C104.9 50.22 104.92 50.2302 104.95 50.2402C105.06 50.2802 105.17 50.3301 105.28 50.3701C105.3 50.3801 105.32 50.3901 105.34 50.3901C105.46 50.4401 105.57 50.4798 105.69 50.5298C105.73 50.5398 105.76 50.5598 105.8 50.5698C105.91 50.6098 106.03 50.66 106.15 50.71C106.19 50.73 106.23 50.7398 106.27 50.7598C106.39 50.8098 106.5 50.8499 106.62 50.8999C106.66 50.9199 106.7 50.9302 106.74 50.9502C106.84 50.9902 106.94 51.0298 107.04 51.0698C107.09 51.0898 107.13 51.1099 107.18 51.1299C107.28 51.1699 107.38 51.21 107.49 51.25C107.54 51.27 107.6 51.2901 107.65 51.3101C107.75 51.3501 107.86 51.3899 107.96 51.4399C108.03 51.4699 108.09 51.49 108.16 51.52C108.25 51.56 108.34 51.5899 108.42 51.6299C108.5 51.6599 108.57 51.6902 108.65 51.7202C108.71 51.7402 108.76 51.77 108.82 51.79C108.95 51.84 109.09 51.9002 109.22 51.9502C109.24 51.9602 109.26 51.9702 109.28 51.9702C111.18 52.7402 112.98 53.4802 114.2 53.9502H114.21C114.31 53.9902 114.4 54.0201 114.48 54.0601H114.49C114.67 54.1301 114.83 54.1902 114.97 54.2402C117.14 49.9302 109.82 44.23 104.45 45.98C100.34 47.32 98.0097 47.3702 96.0897 46.9902C96.0997 46.9902 96.0997 46.99 96.1097 47C96.3297 47.09 96.5496 47.1798 96.7696 47.2598C96.7696 47.2598 96.7796 47.26 96.7796 47.27C98.3396 47.88 100.11 48.4899 101.97 49.1299ZM99.7496 42.4199C99.1196 42.3799 98.4095 42.32 97.6895 42.23C94.9395 41.91 91.9496 41.5001 91.5196 43.0801C91.3096 43.8501 91.7595 44.5602 92.6895 45.2402C94.3195 44.8302 96.2096 44.0199 98.4796 43.1899C99.0696 42.9799 99.4796 42.7099 99.7496 42.4199ZM102.19 35.4502C102.3 35.3302 102.42 35.2 102.55 35.04C101.66 34.7 100.56 34.1901 99.3995 33.6201C99.7595 35.4901 100.7 36.9902 102.19 35.4502ZM95.2896 20.9702C95.3696 23.3402 98.3297 26.7698 100.87 29.7598C102.02 31.1098 103.05 32.4002 103.73 33.4102C104.88 31.6302 106.07 29.1702 106.22 26.9102C105.85 26.4702 105.48 26.01 105.1 25.54C103.96 24.12 102.779 22.6299 101.629 21.3999C99.5695 20.8399 97.1496 20.6602 95.2896 20.9702Z" fill="#D5DD26"/>
<path d="M16.3984 117.31C16.7184 100.55 16.7185 74.09 15.9185 50.73C15.8785 49.49 15.8384 48.7501 15.1484 47.8901C19.3184 47.4901 28.1586 46.7502 30.2886 46.7002C29.8886 48.4502 30.1585 50.1201 30.1885 51.5601C30.5185 66.4201 31.7685 92.8698 32.9485 117.3C24.7185 117.31 19.4884 117.31 16.3984 117.31Z" fill="#FBCB9D"/>
<path d="M0.438495 37.6899C1.6585 34.2899 9.98854 37.3201 10.4885 36.3101C11.0085 35.2801 10.0785 32.4202 8.21852 27.9102C6.03852 22.5902 2.88854 17.9302 5.73854 16.4902C8.00854 15.3502 10.3285 19.1902 12.4685 22.7202C14.0085 25.2602 15.4285 26.6299 16.1485 26.8599C16.8085 25.9599 16.7186 23.7199 16.2686 20.1699C15.6486 15.3499 14.8886 9.99006 17.5886 9.31006C21.1486 8.42006 21.7185 14.78 22.2385 20.04C22.5885 23.55 23.1086 25.4998 23.8086 25.5498C24.3586 25.5498 25.3686 23.8498 26.2986 20.8398C27.4586 17.0698 28.6286 12.9 30.5286 13.21C33.4686 13.68 32.0986 19.4498 31.0286 24.0098C30.3386 26.9498 30.2486 28.7402 30.5286 28.9302C30.9786 29.0602 32.0985 28.1602 33.4285 26.4102C35.1085 24.2102 36.8886 21.7701 38.3186 22.5601C40.4086 23.7201 38.0086 28.6799 35.2586 34.6299C33.6386 38.1299 30.2086 47.1299 29.7586 47.8599C29.1986 48.7699 27.2785 49.16 25.4485 48.5C22.0885 47.29 20.4784 48.96 18.8884 49.02C16.9184 49.09 15.7386 48.6099 15.5286 48.3599C9.22858 43.2899 -0.861505 41.3399 0.438495 37.6899Z" fill="#ED75AA"/>
<path d="M21.4862 43.5897C21.1962 43.5897 20.9063 43.5699 20.5963 43.5399C18.4363 43.3099 16.7363 42.4501 15.5563 40.9701C14.4663 39.6101 14.2062 38.2097 14.1562 37.8197C14.1262 37.5997 14.2762 37.4098 14.4962 37.3798C14.7162 37.3498 14.9062 37.5001 14.9362 37.7201C14.9962 38.1801 15.6962 42.2397 20.6762 42.7597C25.4462 43.2597 27.1261 39.2499 27.1361 39.2099C27.2161 39.0099 27.4461 38.9101 27.6461 38.9901C27.8461 39.0701 27.9464 39.2999 27.8664 39.4999C27.8464 39.5499 27.3863 40.6701 26.2563 41.7401C25.3363 42.6101 23.7862 43.5897 21.4862 43.5897Z" fill="#131314"/>
<path d="M30.4254 35.3101C30.4154 35.3101 30.4054 35.3101 30.3954 35.3101C30.1754 35.2901 30.0156 35.1002 30.0356 34.8902C30.1856 32.9402 29.0555 31.9301 27.9455 31.8101C27.1955 31.7301 25.8756 31.9801 25.5456 34.5201C25.5156 34.7401 25.3156 34.8899 25.1056 34.8599C24.8856 34.8299 24.7355 34.63 24.7655 34.42C24.9355 33.13 25.3556 32.1902 26.0356 31.6202C26.7256 31.0302 27.4955 30.9798 28.0255 31.0298C29.5055 31.1798 31.0156 32.4802 30.8156 34.9502C30.8056 35.1502 30.6354 35.3101 30.4254 35.3101Z" fill="#131314"/>
<path d="M18.4059 33.8199C18.3959 33.8199 18.3859 33.8199 18.3759 33.8199C18.1559 33.7999 17.996 33.61 18.016 33.4C18.166 31.45 17.0359 30.4399 15.9259 30.3199C15.1759 30.2399 13.856 30.4899 13.526 33.0299C13.496 33.2499 13.2961 33.4002 13.0861 33.3702C12.8661 33.3402 12.716 33.1403 12.746 32.9303C12.916 31.6403 13.336 30.7 14.016 30.13C14.706 29.54 15.476 29.4901 16.006 29.5401C17.486 29.7001 18.9961 30.99 18.7961 33.46C18.7761 33.66 18.6059 33.8199 18.4059 33.8199Z" fill="#131314"/>
<path d="M29.1564 40.7502C29.1264 40.7502 29.0866 40.7505 29.0566 40.7405C28.1866 40.5105 26.5965 39.59 26.7665 37.76C26.7865 37.54 26.9764 37.3801 27.1964 37.4001C27.4164 37.4201 27.5765 37.6103 27.5465 37.8303C27.3965 39.4503 29.1865 39.9504 29.2565 39.9704C29.4665 40.0304 29.5865 40.2404 29.5365 40.4504C29.4865 40.6304 29.3264 40.7502 29.1564 40.7502Z" fill="#131314"/>
<path d="M12.5371 38.83C12.4671 38.83 12.4071 38.8298 12.3471 38.8198C12.1271 38.8098 11.967 38.6199 11.977 38.3999C11.987 38.1799 12.1769 38.0197 12.3969 38.0297C12.4769 38.0297 14.337 38.1298 14.707 36.5498C14.757 36.3398 14.967 36.2097 15.177 36.2597C15.387 36.3097 15.517 36.5199 15.467 36.7299C15.077 38.4099 13.4771 38.83 12.5371 38.83Z" fill="#131314"/>
</svg>
