<svg width="56" height="56" viewBox="0 0 56 56" fill="none" xmlns="http://www.w3.org/2000/svg">
<path d="M27.9199 55.84C12.5199 55.84 0 43.31 0 27.92C0 12.53 12.5299 0 27.9199 0C43.3199 0 55.8398 12.53 55.8398 27.92C55.8398 43.31 43.3199 55.84 27.9199 55.84ZM27.9199 2.46997C13.8899 2.46997 2.47998 13.88 2.47998 27.91C2.47998 41.94 13.8899 53.35 27.9199 53.35C41.9499 53.35 53.3599 41.94 53.3599 27.91C53.3599 13.88 41.9499 2.46997 27.9199 2.46997Z" fill="white"/>
<path d="M44.8198 48.7701C40.1598 44.6301 34.1599 42.3401 27.9199 42.3401C21.6799 42.3401 15.67 44.6201 11.02 48.7701L9.36987 46.9201C14.4799 42.3701 21.0699 39.8701 27.9199 39.8701C34.7699 39.8701 41.36 42.3801 46.47 46.9201L44.8198 48.7701Z" fill="white"/>
<path d="M27.9199 30.9398C22.2199 30.9398 17.5898 26.3098 17.5898 20.6098C17.5898 14.9098 22.2199 10.2798 27.9199 10.2798C33.6199 10.2798 38.25 14.9098 38.25 20.6098C38.25 26.3098 33.6199 30.9398 27.9199 30.9398ZM27.9199 12.7598C23.5899 12.7598 20.0698 16.2798 20.0698 20.6098C20.0698 24.9398 23.5899 28.4598 27.9199 28.4598C32.2499 28.4598 35.77 24.9398 35.77 20.6098C35.77 16.2798 32.2499 12.7598 27.9199 12.7598Z" fill="white"/>
</svg>
