<svg width="24" height="33" viewBox="0 0 24 33" fill="none" xmlns="http://www.w3.org/2000/svg">
<path d="M12 15.7999C10.8634 15.7999 9.77327 15.3784 8.96954 14.6283C8.16581 13.8781 7.71429 12.8607 7.71429 11.7999C7.71429 10.739 8.16581 9.72157 8.96954 8.97143C9.77327 8.22128 10.8634 7.79985 12 7.79985C13.1366 7.79985 14.2267 8.22128 15.0305 8.97143C15.8342 9.72157 16.2857 10.739 16.2857 11.7999C16.2857 12.3251 16.1749 12.8453 15.9595 13.3306C15.7441 13.8159 15.4284 14.2568 15.0305 14.6283C14.6325 14.9997 14.16 15.2944 13.6401 15.4954C13.1201 15.6964 12.5628 15.7999 12 15.7999ZM12 0.599854C8.8174 0.599854 5.76515 1.77985 3.51472 3.88026C1.26428 5.98066 0 8.82943 0 11.7999C0 20.1999 12 32.5999 12 32.5999C12 32.5999 24 20.1999 24 11.7999C24 8.82943 22.7357 5.98066 20.4853 3.88026C18.2348 1.77985 15.1826 0.599854 12 0.599854Z" fill="#126B66"/>
</svg>
