<svg width="28" height="28" viewBox="0 0 28 28" fill="none" xmlns="http://www.w3.org/2000/svg">
<path d="M26.3667 28C23.0222 28 19.7623 27.2544 16.5869 25.7631C13.4104 24.2729 10.5975 22.3025 8.148 19.852C5.69748 17.4025 3.72711 14.5896 2.23689 11.4131C0.74563 8.2377 0 4.97778 0 1.63333C0 1.16667 0.155555 0.777778 0.466667 0.466667C0.777778 0.155555 1.16667 0 1.63333 0H7.93333C8.2963 0 8.62037 0.116667 8.90556 0.35C9.19074 0.583333 9.35926 0.881481 9.41111 1.24444L10.4222 6.68889C10.4741 7.05185 10.4679 7.38215 10.4036 7.67978C10.3382 7.97844 10.1889 8.24444 9.95555 8.47778L6.22222 12.2889C7.31111 14.1556 8.67222 15.9056 10.3056 17.5389C11.9389 19.1722 13.7407 20.5852 15.7111 21.7778L19.3667 18.1222C19.6 17.8889 19.9049 17.7136 20.2813 17.5964C20.6567 17.4803 21.0259 17.4481 21.3889 17.5L26.7556 18.5889C27.1185 18.6667 27.4167 18.8414 27.65 19.1131C27.8833 19.3859 28 19.7037 28 20.0667V26.3667C28 26.8333 27.8444 27.2222 27.5333 27.5333C27.2222 27.8444 26.8333 28 26.3667 28Z" fill="#188181"/>
</svg>
