<svg width="15" height="20" viewBox="0 0 15 20" fill="none" xmlns="http://www.w3.org/2000/svg">
<path d="M7.5 9.5C6.7896 9.5 6.10829 9.23661 5.60596 8.76777C5.10363 8.29893 4.82143 7.66304 4.82143 7C4.82143 6.33696 5.10363 5.70107 5.60596 5.23223C6.10829 4.76339 6.7896 4.5 7.5 4.5C8.2104 4.5 8.89171 4.76339 9.39404 5.23223C9.89637 5.70107 10.1786 6.33696 10.1786 7C10.1786 7.3283 10.1093 7.6534 9.97468 7.95671C9.84007 8.26002 9.64276 8.53562 9.39404 8.76777C9.14531 8.99991 8.85002 9.18406 8.52505 9.3097C8.20007 9.43534 7.85175 9.5 7.5 9.5ZM7.5 0C5.51088 0 3.60322 0.737498 2.1967 2.05025C0.790176 3.36301 0 5.14348 0 7C0 12.25 7.5 20 7.5 20C7.5 20 15 12.25 15 7C15 5.14348 14.2098 3.36301 12.8033 2.05025C11.3968 0.737498 9.48912 0 7.5 0Z" fill="#188181"/>
</svg>
