<svg width="18" height="14" viewBox="0 0 18 14" fill="none" xmlns="http://www.w3.org/2000/svg">
<path d="M16 5V2C16 1.46957 15.7893 0.960859 15.4142 0.585786C15.0391 0.210714 14.5304 0 14 0H4C3.46957 0 2.96086 0.210714 2.58579 0.585786C2.21071 0.960859 2 1.46957 2 2V5C1.46957 5 0.960859 5.21071 0.585786 5.58579C0.210714 5.96086 0 6.46957 0 7V12H1.33L2 14H3L3.67 12H14.33L15 14H16L16.67 12H18V7C18 6.46957 17.7893 5.96086 17.4142 5.58579C17.0391 5.21071 16.5304 5 16 5ZM4 2H14V5H4M16 10H2V7H16V10Z" fill="#126B66"/>
</svg>
