<svg width="22" height="29" viewBox="0 0 22 29" fill="none" xmlns="http://www.w3.org/2000/svg">
<path d="M11.0026 21.6663C11.7098 21.6663 12.3881 21.3854 12.8882 20.8853C13.3883 20.3852 13.6693 19.7069 13.6693 18.9997C13.6693 18.2924 13.3883 17.6142 12.8882 17.1141C12.3881 16.614 11.7098 16.333 11.0026 16.333C10.2954 16.333 9.61708 16.614 9.11699 17.1141C8.61689 17.6142 8.33594 18.2924 8.33594 18.9997C8.33594 19.7069 8.61689 20.3852 9.11699 20.8853C9.61708 21.3854 10.2954 21.6663 11.0026 21.6663ZM19.0026 9.66634C19.7098 9.66634 20.3881 9.94729 20.8882 10.4474C21.3883 10.9475 21.6693 11.6258 21.6693 12.333V25.6663C21.6693 26.3736 21.3883 27.0519 20.8882 27.552C20.3881 28.0521 19.7098 28.333 19.0026 28.333H3.0026C2.29536 28.333 1.61708 28.0521 1.11699 27.552C0.616889 27.0519 0.335938 26.3736 0.335938 25.6663V12.333C0.335938 11.6258 0.616889 10.9475 1.11699 10.4474C1.61708 9.94729 2.29536 9.66634 3.0026 9.66634H4.33594V6.99967C4.33594 5.23156 5.03832 3.53587 6.28856 2.28563C7.5388 1.03539 9.23449 0.333008 11.0026 0.333008C11.8781 0.333008 12.745 0.505446 13.5538 0.840478C14.3627 1.17551 15.0976 1.66657 15.7167 2.28563C16.3357 2.90469 16.8268 3.63961 17.1618 4.44845C17.4968 5.25729 17.6693 6.1242 17.6693 6.99967V9.66634H19.0026ZM11.0026 2.99967C9.94174 2.99967 8.92432 3.4211 8.17418 4.17125C7.42403 4.92139 7.0026 5.93881 7.0026 6.99967V9.66634H15.0026V6.99967C15.0026 5.93881 14.5812 4.92139 13.831 4.17125C13.0809 3.4211 12.0635 2.99967 11.0026 2.99967Z" fill="#126B66"/>
</svg>
