<svg width="32" height="33" viewBox="0 0 32 33" fill="none" xmlns="http://www.w3.org/2000/svg">
<path d="M14.3719 26.3425L14.3712 26.3419C11.0399 23.2196 8.31427 20.6609 6.41556 18.2599C4.52281 15.8664 3.5 13.6876 3.5 11.3333C3.5 7.47437 6.41274 4.5 10.0949 4.5C12.182 4.5 14.1983 5.50695 15.5151 7.09275L15.8997 7.55601L16.2844 7.09275C17.6012 5.50695 19.6175 4.5 21.7046 4.5C25.3867 4.5 28.2995 7.47437 28.2995 11.3333C28.2995 13.6876 27.2766 15.8664 25.3839 18.2599C23.4852 20.6609 20.7595 23.2196 17.4283 26.3419L17.4276 26.3425L15.8997 27.7801L14.3719 26.3425Z" fill="white" stroke="#126B66"/>
</svg>
