<svg width="30" height="28" viewBox="0 0 30 28" fill="none" xmlns="http://www.w3.org/2000/svg">
<path d="M24.3359 27.3334C22.8693 27.3334 21.6137 26.8112 20.5693 25.7667C19.5248 24.7223 19.0026 23.4667 19.0026 22.0001V16.0001C19.0026 15.0667 19.3248 14.2779 19.9693 13.6334C20.6137 12.989 21.4026 12.6667 22.3359 12.6667C23.2693 12.6667 24.0582 12.989 24.7026 13.6334C25.347 14.2779 25.6693 15.0667 25.6693 16.0001V22.0001H23.0026V16.0001C23.0026 15.8223 22.9359 15.6667 22.8026 15.5334C22.6693 15.4001 22.5137 15.3334 22.3359 15.3334C22.1582 15.3334 22.0026 15.4001 21.8693 15.5334C21.7359 15.6667 21.6693 15.8223 21.6693 16.0001V22.0001C21.6693 22.7334 21.9302 23.3614 22.4519 23.8841C22.9746 24.4059 23.6026 24.6667 24.3359 24.6667C25.0693 24.6667 25.6973 24.4059 26.2199 23.8841C26.7417 23.3614 27.0026 22.7334 27.0026 22.0001V16.6667H29.6693V22.0001C29.6693 23.4667 29.1471 24.7223 28.1026 25.7667C27.0582 26.8112 25.8026 27.3334 24.3359 27.3334ZM3.0026 22.0001C2.26927 22.0001 1.64172 21.7392 1.11994 21.2174C0.597271 20.6947 0.335938 20.0667 0.335938 19.3334V3.33341C0.335938 2.60008 0.597271 1.97208 1.11994 1.44941C1.64172 0.927637 2.26927 0.666748 3.0026 0.666748H24.3359C25.0693 0.666748 25.6973 0.927637 26.2199 1.44941C26.7417 1.97208 27.0026 2.60008 27.0026 3.33341V11.3334H22.3359C21.047 11.3334 19.947 11.789 19.0359 12.7001C18.1248 13.6112 17.6693 14.7112 17.6693 16.0001V22.0001H3.0026ZM13.6693 12.6667L24.3359 6.00008V3.33341L13.6693 10.0001L3.0026 3.33341V6.00008L13.6693 12.6667Z" fill="white"/>
</svg>
