<svg width="32" height="33" viewBox="0 0 32 33" fill="none" xmlns="http://www.w3.org/2000/svg">
<path fill-rule="evenodd" clip-rule="evenodd" d="M3.62004 3.57656C2.47825 4.72621 1.57059 6.09499 0.949322 7.60409C0.328052 9.11318 0.0054419 10.7328 6.82559e-05 12.3696C-0.00530539 14.0065 0.306664 15.6283 0.918012 17.1416C1.52936 18.6549 2.42801 20.0298 3.56222 21.1873C4.69644 22.3447 6.0438 23.2618 7.52675 23.8856C9.0097 24.5095 10.5989 24.8278 12.2029 24.8224C13.8069 24.8169 15.394 24.4877 16.8729 23.8537C18.3517 23.2197 19.693 22.2934 20.8196 21.1283C23.0752 18.7954 24.3351 15.6469 24.3243 12.3696C24.3136 9.0924 23.033 5.95253 20.7622 3.63516C18.4913 1.31779 15.4144 0.0110489 12.2029 6.97442e-05C8.99146 -0.0109094 5.90607 1.27477 3.62004 3.57656ZM17.6928 17.9375C16.2413 19.4187 14.2726 20.2509 12.2198 20.2509C10.167 20.2509 8.19835 19.4187 6.74683 17.9375C5.2953 16.4562 4.47984 14.4472 4.47984 12.3524C4.47984 10.2576 5.2953 8.24861 6.74683 6.76737C8.19835 5.28612 10.167 4.45396 12.2198 4.45396C14.2726 4.45396 16.2413 5.28612 17.6928 6.76737C19.1443 8.24861 19.9598 10.2576 19.9598 12.3524C19.9598 14.4472 19.1443 16.4562 17.6928 17.9375Z" fill="white"/>
<path d="M18.4796 23.517C18.1715 23.2029 17.9271 22.8301 17.7604 22.4198C17.5936 22.0095 17.5078 21.5697 17.5078 21.1256C17.5078 20.6815 17.5936 20.2417 17.7604 19.8314C17.9271 19.4211 18.1715 19.0482 18.4796 18.7342C18.7877 18.4202 19.1535 18.171 19.5561 18.0011C19.9586 17.8311 20.3901 17.7437 20.8258 17.7437C21.2616 17.7437 21.693 17.8311 22.0956 18.0011C22.4981 18.171 22.8639 18.4202 23.172 18.7342L30.989 26.704C31.3058 27.0158 31.5585 27.3889 31.7323 27.8014C31.9062 28.2139 31.9977 28.6575 32.0015 29.1064C32.0053 29.5553 31.9214 30.0005 31.7546 30.416C31.5878 30.8315 31.3416 31.209 31.0301 31.5264C30.7187 31.8438 30.3483 32.0949 29.9407 32.2649C29.533 32.4349 29.0963 32.5204 28.6558 32.5165C28.2154 32.5126 27.7802 32.4193 27.3755 32.2421C26.9708 32.065 26.6048 31.8074 26.2988 31.4845L18.4796 23.517Z" fill="white"/>
</svg>
