<svg width="78" height="76" viewBox="0 0 78 76" fill="none" xmlns="http://www.w3.org/2000/svg">
<ellipse cx="38.7172" cy="38.1439" rx="38.7164" ry="37.8561" transform="rotate(-180 38.7172 38.1439)" fill="#558F7C" fill-opacity="0.9"/>
<path d="M41.513 49.3912L31.6188 39.497C31.4038 39.2819 31.2518 39.0489 31.1629 38.7979C31.0725 38.547 31.0273 38.2781 31.0273 37.9913C31.0273 37.7046 31.0725 37.4357 31.1629 37.1847C31.2518 36.9338 31.4038 36.7008 31.6188 36.4857L41.513 26.5915C41.9074 26.1972 42.4093 26 43.0187 26C43.6281 26 44.13 26.1972 44.5243 26.5915C44.9187 26.9858 45.1158 27.4877 45.1158 28.0971C45.1158 28.7066 44.9187 29.2084 44.5243 29.6028L36.1358 37.9913L44.5243 46.3799C44.9187 46.7742 45.1158 47.2761 45.1158 47.8855C45.1158 48.495 44.9187 48.9968 44.5243 49.3912C44.13 49.7855 43.6281 49.9827 43.0187 49.9827C42.4093 49.9827 41.9074 49.7855 41.513 49.3912Z" fill="white"/>
</svg>
