<svg width="33" height="33" viewBox="0 0 33 33" fill="none" xmlns="http://www.w3.org/2000/svg">
<circle cx="16.5" cy="16.5" r="16.5" fill="white"/>
<path d="M17.0104 15.3576V14.9302H18.4135V20.9354H17.6115C17.4527 20.9357 17.3003 20.8785 17.1876 20.7765C17.075 20.6745 17.0112 20.5359 17.0104 20.3911C16.4247 20.7821 15.7175 20.9934 14.9917 20.9924C14.0848 20.9924 13.215 20.664 12.5735 20.0794C11.932 19.4948 11.5714 18.7019 11.5708 17.8749C11.5714 17.0479 11.932 16.2549 12.5735 15.6703C13.215 15.0857 14.0848 14.7573 14.9917 14.7573C15.7171 14.7566 16.425 14.9669 17.0104 15.3576ZM11.2073 13V13.1947C11.2073 13.5576 11.1542 13.854 10.8948 14.2016L10.8635 14.2339C10.7771 14.3223 10.6931 14.4125 10.6115 14.5046L6.10833 19.6588H11.2073V20.3883C11.2073 20.4602 11.1917 20.5314 11.1615 20.5979C11.1313 20.6643 11.087 20.7247 11.0312 20.7755C10.9754 20.8263 10.9091 20.8666 10.8362 20.894C10.7633 20.9215 10.6851 20.9355 10.6062 20.9354H4V20.5915C4 20.1707 4.11458 19.9827 4.26042 19.787L9.05937 14.3678H4.2V13H11.2073ZM20.1146 20.9354C19.982 20.9354 19.8548 20.8874 19.761 20.8019C19.6673 20.7164 19.6146 20.6004 19.6146 20.4795V13H21.1156V20.9354H20.1146ZM25.5552 14.7193C26.0074 14.7192 26.4553 14.8003 26.8732 14.958C27.291 15.1157 27.6707 15.3469 27.9906 15.6384C28.3105 15.9299 28.5643 16.2761 28.7375 16.657C28.9107 17.038 28.9999 17.4463 29 17.8587C29.0001 18.2711 28.9112 18.6795 28.7383 19.0605C28.5653 19.4416 28.3118 19.7878 27.9921 20.0795C27.6724 20.3712 27.2928 20.6027 26.8751 20.7606C26.4573 20.9185 26.0095 20.9999 25.5573 21C24.644 21.0003 23.7679 20.6696 23.1219 20.0809C22.4759 19.4921 22.1128 18.6935 22.1125 17.8606C22.1122 17.0277 22.4748 16.2289 23.1204 15.6398C23.766 15.0507 24.6419 14.7196 25.5552 14.7193ZM14.9927 19.7091C15.2608 19.7147 15.5274 19.6713 15.7768 19.5816C16.0262 19.4919 16.2535 19.3577 16.4453 19.1867C16.637 19.0158 16.7894 18.8117 16.8934 18.5863C16.9974 18.3609 17.051 18.1189 17.051 17.8744C17.051 17.6299 16.9974 17.3878 16.8934 17.1624C16.7894 16.9371 16.637 16.7329 16.4453 16.562C16.2535 16.3911 16.0262 16.2568 15.7768 16.1671C15.5274 16.0774 15.2608 16.0341 14.9927 16.0397C14.467 16.0506 13.9669 16.2487 13.5993 16.5915C13.2318 16.9344 13.026 17.3949 13.026 17.8744C13.026 18.3539 13.2318 18.8143 13.5993 19.1572C13.9669 19.5001 14.467 19.6982 14.9927 19.7091ZM25.5552 19.7062C26.0925 19.7062 26.6079 19.5116 26.9878 19.1651C27.3678 18.8186 27.5812 18.3487 27.5812 17.8587C27.5812 17.3687 27.3678 16.8988 26.9878 16.5523C26.6079 16.2058 26.0925 16.0112 25.5552 16.0112C25.0179 16.0112 24.5025 16.2058 24.1226 16.5523C23.7426 16.8988 23.5292 17.3687 23.5292 17.8587C23.5292 18.3487 23.7426 18.8186 24.1226 19.1651C24.5025 19.5116 25.0179 19.7062 25.5552 19.7062Z" fill="#55A192"/>
</svg>
