<svg width="20" height="20" viewBox="0 0 20 20" fill="none" xmlns="http://www.w3.org/2000/svg">
<mask id="path-1-inside-1_361_5020" fill="white">
<path d="M17.3172 14.4045C16.7306 13.8173 16.0451 13.3381 15.2922 12.9888C16.354 12.1287 17.0313 10.8162 17.0313 9.3443C17.0313 6.74743 14.8657 4.61696 12.2688 4.6568C9.71178 4.69664 7.65162 6.78024 7.65162 9.3443C7.65162 10.8162 8.33131 12.1287 9.39068 12.9888C8.63765 13.3379 7.95214 13.8171 7.36568 14.4045C6.086 15.6865 5.35943 17.3787 5.31256 19.1834C5.31193 19.2084 5.31632 19.2333 5.32546 19.2566C5.33461 19.2798 5.34832 19.3011 5.36579 19.319C5.38327 19.3369 5.40415 19.3511 5.42721 19.3608C5.45027 19.3706 5.47504 19.3756 5.50006 19.3755H6.81256C6.91334 19.3755 6.99772 19.2959 7.00006 19.1951C7.04459 17.8357 7.59537 16.563 8.56334 15.5974C9.05867 15.0995 9.64784 14.7047 10.2968 14.4359C10.9457 14.1672 11.6414 14.0298 12.3438 14.0318C13.7712 14.0318 15.1141 14.5873 16.1243 15.5974C17.0899 16.563 17.6407 17.8357 17.6876 19.1951C17.6899 19.2959 17.7743 19.3755 17.8751 19.3755H19.1876C19.2126 19.3756 19.2374 19.3706 19.2604 19.3608C19.2835 19.3511 19.3044 19.3369 19.3218 19.319C19.3393 19.3011 19.353 19.2798 19.3622 19.2566C19.3713 19.2333 19.3757 19.2084 19.3751 19.1834C19.3282 17.3787 18.6016 15.6865 17.3172 14.4045ZM12.3438 12.3443C11.5422 12.3443 10.7876 12.0326 10.2227 11.4654C9.93925 11.1842 9.71533 10.8487 9.56433 10.479C9.41332 10.1094 9.33833 9.7131 9.34381 9.31383C9.35084 8.54508 9.65787 7.80211 10.1946 7.25133C10.7571 6.67477 11.5094 6.35367 12.3133 6.3443C13.1079 6.33727 13.879 6.64664 14.4462 7.20211C15.0274 7.77164 15.3462 8.53336 15.3462 9.3443C15.3462 10.1459 15.0344 10.8982 14.4672 11.4654C14.189 11.745 13.858 11.9666 13.4935 12.1175C13.1291 12.2684 12.7383 12.3454 12.3438 12.3443ZM6.47272 9.96305C6.45162 9.75914 6.4399 9.55289 6.4399 9.3443C6.4399 8.97164 6.47506 8.60836 6.54068 8.25446C6.55709 8.17008 6.51256 8.08336 6.43521 8.04821C6.11647 7.90524 5.8235 7.70836 5.57037 7.45993C5.27211 7.17072 5.0374 6.82252 4.88123 6.43754C4.72506 6.05256 4.65085 5.63925 4.66334 5.22399C4.68443 4.47164 4.98678 3.7568 5.51412 3.21774C6.09303 2.62477 6.87115 2.30133 7.6985 2.31071C8.44615 2.31774 9.16803 2.60602 9.71412 3.11696C9.89928 3.29039 10.0587 3.48258 10.1922 3.68883C10.2391 3.76149 10.3305 3.79196 10.4102 3.76383C10.8227 3.62086 11.2587 3.52008 11.7063 3.47321C11.8376 3.45914 11.9126 3.31852 11.854 3.20133C11.0922 1.6943 9.536 0.653675 7.736 0.62555C5.13678 0.585706 2.97115 2.71618 2.97115 5.31071C2.97115 6.78258 3.6485 8.09508 4.71022 8.95524C3.9649 9.29977 3.27818 9.77555 2.68287 10.3709C1.3985 11.6529 0.671934 13.3451 0.625059 15.1521C0.624433 15.1771 0.628821 15.202 0.637963 15.2253C0.647105 15.2486 0.660817 15.2698 0.678291 15.2877C0.695764 15.3056 0.716646 15.3199 0.739706 15.3296C0.762766 15.3393 0.787536 15.3443 0.812559 15.3443H2.1274C2.22818 15.3443 2.31256 15.2646 2.3149 15.1638C2.35943 13.8045 2.91022 12.5318 3.87818 11.5662C4.56725 10.8771 5.411 10.399 6.33209 10.167C6.4235 10.1435 6.48443 10.0568 6.47272 9.96305Z"/>
</mask>
<path d="M17.3172 14.4045C16.7306 13.8173 16.0451 13.3381 15.2922 12.9888C16.354 12.1287 17.0313 10.8162 17.0313 9.3443C17.0313 6.74743 14.8657 4.61696 12.2688 4.6568C9.71178 4.69664 7.65162 6.78024 7.65162 9.3443C7.65162 10.8162 8.33131 12.1287 9.39068 12.9888C8.63765 13.3379 7.95214 13.8171 7.36568 14.4045C6.086 15.6865 5.35943 17.3787 5.31256 19.1834C5.31193 19.2084 5.31632 19.2333 5.32546 19.2566C5.33461 19.2798 5.34832 19.3011 5.36579 19.319C5.38327 19.3369 5.40415 19.3511 5.42721 19.3608C5.45027 19.3706 5.47504 19.3756 5.50006 19.3755H6.81256C6.91334 19.3755 6.99772 19.2959 7.00006 19.1951C7.04459 17.8357 7.59537 16.563 8.56334 15.5974C9.05867 15.0995 9.64784 14.7047 10.2968 14.4359C10.9457 14.1672 11.6414 14.0298 12.3438 14.0318C13.7712 14.0318 15.1141 14.5873 16.1243 15.5974C17.0899 16.563 17.6407 17.8357 17.6876 19.1951C17.6899 19.2959 17.7743 19.3755 17.8751 19.3755H19.1876C19.2126 19.3756 19.2374 19.3706 19.2604 19.3608C19.2835 19.3511 19.3044 19.3369 19.3218 19.319C19.3393 19.3011 19.353 19.2798 19.3622 19.2566C19.3713 19.2333 19.3757 19.2084 19.3751 19.1834C19.3282 17.3787 18.6016 15.6865 17.3172 14.4045ZM12.3438 12.3443C11.5422 12.3443 10.7876 12.0326 10.2227 11.4654C9.93925 11.1842 9.71533 10.8487 9.56433 10.479C9.41332 10.1094 9.33833 9.7131 9.34381 9.31383C9.35084 8.54508 9.65787 7.80211 10.1946 7.25133C10.7571 6.67477 11.5094 6.35367 12.3133 6.3443C13.1079 6.33727 13.879 6.64664 14.4462 7.20211C15.0274 7.77164 15.3462 8.53336 15.3462 9.3443C15.3462 10.1459 15.0344 10.8982 14.4672 11.4654C14.189 11.745 13.858 11.9666 13.4935 12.1175C13.1291 12.2684 12.7383 12.3454 12.3438 12.3443ZM6.47272 9.96305C6.45162 9.75914 6.4399 9.55289 6.4399 9.3443C6.4399 8.97164 6.47506 8.60836 6.54068 8.25446C6.55709 8.17008 6.51256 8.08336 6.43521 8.04821C6.11647 7.90524 5.8235 7.70836 5.57037 7.45993C5.27211 7.17072 5.0374 6.82252 4.88123 6.43754C4.72506 6.05256 4.65085 5.63925 4.66334 5.22399C4.68443 4.47164 4.98678 3.7568 5.51412 3.21774C6.09303 2.62477 6.87115 2.30133 7.6985 2.31071C8.44615 2.31774 9.16803 2.60602 9.71412 3.11696C9.89928 3.29039 10.0587 3.48258 10.1922 3.68883C10.2391 3.76149 10.3305 3.79196 10.4102 3.76383C10.8227 3.62086 11.2587 3.52008 11.7063 3.47321C11.8376 3.45914 11.9126 3.31852 11.854 3.20133C11.0922 1.6943 9.536 0.653675 7.736 0.62555C5.13678 0.585706 2.97115 2.71618 2.97115 5.31071C2.97115 6.78258 3.6485 8.09508 4.71022 8.95524C3.9649 9.29977 3.27818 9.77555 2.68287 10.3709C1.3985 11.6529 0.671934 13.3451 0.625059 15.1521C0.624433 15.1771 0.628821 15.202 0.637963 15.2253C0.647105 15.2486 0.660817 15.2698 0.678291 15.2877C0.695764 15.3056 0.716646 15.3199 0.739706 15.3296C0.762766 15.3393 0.787536 15.3443 0.812559 15.3443H2.1274C2.22818 15.3443 2.31256 15.2646 2.3149 15.1638C2.35943 13.8045 2.91022 12.5318 3.87818 11.5662C4.56725 10.8771 5.411 10.399 6.33209 10.167C6.4235 10.1435 6.48443 10.0568 6.47272 9.96305Z" fill="#126B66"/>
<path d="M17.3172 14.4045L16.2562 15.4647L16.2576 15.4661L17.3172 14.4045ZM15.2922 12.9888L14.348 11.8233L12.4793 13.3373L14.6609 14.3495L15.2922 12.9888ZM12.2688 4.6568L12.2458 3.15698L12.2454 3.15698L12.2688 4.6568ZM9.39068 12.9888L10.0215 14.3497L12.2018 13.3391L10.3362 11.8243L9.39068 12.9888ZM7.36568 14.4045L6.30422 13.3446L6.30405 13.3448L7.36568 14.4045ZM5.31256 19.1834L3.81306 19.1444L3.81303 19.1459L5.31256 19.1834ZM5.50006 19.3755V17.8755H5.49959L5.50006 19.3755ZM7.00006 19.1951L5.50086 19.146L5.50063 19.1531L5.50046 19.1602L7.00006 19.1951ZM8.56334 15.5974L9.62272 16.6594L9.62681 16.6553L8.56334 15.5974ZM12.3438 14.0318L12.3396 15.5318H12.3438V14.0318ZM17.6876 19.1951L19.1872 19.1602L19.187 19.1518L19.1867 19.1434L17.6876 19.1951ZM19.1876 19.3755L19.188 17.8755H19.1876V19.3755ZM19.3751 19.1834L20.8746 19.1459L20.8746 19.1444L19.3751 19.1834ZM12.3438 12.3443L12.3482 10.8443H12.3438V12.3443ZM10.2227 11.4654L11.2856 10.4069L11.2792 10.4005L10.2227 11.4654ZM9.34381 9.31383L10.8437 9.33443L10.8437 9.32755L9.34381 9.31383ZM10.1946 7.25133L9.12092 6.20385L9.12031 6.20447L10.1946 7.25133ZM12.3133 6.3443L12.3001 4.84435L12.2958 4.8444L12.3133 6.3443ZM14.4462 7.20211L15.496 6.13071L15.4957 6.13044L14.4462 7.20211ZM14.4672 11.4654L13.4066 10.4047L13.4041 10.4073L14.4672 11.4654ZM6.47272 9.96305L4.98068 10.1174L4.98232 10.1333L4.9843 10.1491L6.47272 9.96305ZM6.54068 8.25446L5.06821 7.96814L5.06583 7.98097L6.54068 8.25446ZM6.43521 8.04821L7.05593 6.68264L7.04909 6.67957L6.43521 8.04821ZM5.57037 7.45993L6.62109 6.38938L6.61454 6.38303L5.57037 7.45993ZM4.66334 5.22399L6.16266 5.26909L6.16275 5.26603L4.66334 5.22399ZM5.51412 3.21774L6.58637 4.26668L6.58743 4.26559L5.51412 3.21774ZM7.6985 2.31071L7.6815 3.81061L7.68439 3.81064L7.6985 2.31071ZM9.71412 3.11696L10.7396 2.02222L10.7389 2.02162L9.71412 3.11696ZM10.1922 3.68883L11.4527 2.87564L11.4512 2.87336L10.1922 3.68883ZM10.4102 3.76383L9.91899 2.34652L9.91099 2.34935L10.4102 3.76383ZM11.7063 3.47321L11.8625 4.96505L11.8661 4.96467L11.7063 3.47321ZM11.854 3.20133L13.1956 2.5305L13.1927 2.52469L11.854 3.20133ZM7.736 0.62555L7.75943 -0.874267L7.75899 -0.874274L7.736 0.62555ZM4.71022 8.95524L5.33962 10.3168L7.52611 9.30606L5.65446 7.78973L4.71022 8.95524ZM2.68287 10.3709L3.74256 11.4325L3.74353 11.4315L2.68287 10.3709ZM0.625059 15.1521L-0.874438 15.1132L-0.874473 15.1146L0.625059 15.1521ZM0.812559 15.3443V13.8443H0.81209L0.812559 15.3443ZM2.3149 15.1638L0.815707 15.1147L0.815474 15.1218L0.815308 15.129L2.3149 15.1638ZM3.87818 11.5662L4.93756 12.6281L4.93884 12.6268L3.87818 11.5662ZM6.33209 10.167L6.69851 11.6215L6.70465 11.62L6.33209 10.167ZM18.3783 13.3442C17.6672 12.6325 16.8362 12.0516 15.9236 11.6282L14.6609 14.3495C15.254 14.6247 15.794 15.0022 16.2562 15.4647L18.3783 13.3442ZM16.2365 14.1543C17.6348 13.0215 18.5313 11.2876 18.5313 9.3443H15.5313C15.5313 10.3448 15.0732 11.2358 14.348 11.8233L16.2365 14.1543ZM18.5313 9.3443C18.5313 5.90902 15.679 3.1043 12.2458 3.15698L12.2918 6.15662C14.0523 6.12961 15.5313 7.58583 15.5313 9.3443H18.5313ZM12.2454 3.15698C8.87149 3.20956 6.15162 5.95862 6.15162 9.3443H9.15162C9.15162 7.60185 10.5521 6.18373 12.2922 6.15662L12.2454 3.15698ZM6.15162 9.3443C6.15162 11.289 7.0516 13.0218 8.44518 14.1533L10.3362 11.8243C9.61102 11.2355 9.15162 10.3434 9.15162 9.3443H6.15162ZM8.75986 11.6279C7.84668 12.0512 7.01539 12.6324 6.30422 13.3446L8.42715 15.4643C8.88889 15.0019 9.42862 14.6246 10.0215 14.3497L8.75986 11.6279ZM6.30405 13.3448C4.75393 14.8977 3.86993 16.9549 3.81306 19.1444L6.81205 19.2223C6.84893 17.8024 7.41806 16.4752 8.42731 15.4641L6.30405 13.3448ZM3.81303 19.1459C3.8074 19.371 3.84689 19.595 3.92917 19.8046L6.72176 18.7085C6.78575 18.8715 6.81647 19.0457 6.81209 19.2209L3.81303 19.1459ZM3.92917 19.8046C4.01144 20.0142 4.13484 20.2053 4.29212 20.3665L6.43946 18.2715C6.5618 18.3969 6.65777 18.5455 6.72176 18.7085L3.92917 19.8046ZM4.29212 20.3665C4.44939 20.5277 4.63733 20.6558 4.84485 20.7432L6.00956 17.9785C6.17097 18.0465 6.31714 18.1461 6.43946 18.2715L4.29212 20.3665ZM4.84485 20.7432C5.0524 20.8306 5.27534 20.8756 5.50053 20.8755L5.49959 17.8755C5.67474 17.8755 5.84813 17.9105 6.00956 17.9785L4.84485 20.7432ZM5.50006 20.8755H6.81256V17.8755H5.50006V20.8755ZM6.81256 20.8755C7.69896 20.8755 8.47769 20.1743 8.49965 19.23L5.50046 19.1602C5.51774 18.4175 6.12772 17.8755 6.81256 17.8755V20.8755ZM8.49926 19.2442C8.53131 18.2657 8.92503 17.3554 9.62271 16.6594L7.50397 14.5355C6.26571 15.7707 5.55787 17.4057 5.50086 19.146L8.49926 19.2442ZM9.62681 16.6553C9.98225 16.2979 10.405 16.0147 10.8707 15.8218L9.72283 13.0501C8.89065 13.3947 8.13509 13.901 7.49987 14.5396L9.62681 16.6553ZM10.8707 15.8218C11.3363 15.629 11.8356 15.5304 12.3396 15.5318L12.348 12.5318C11.4473 12.5293 10.555 12.7055 9.72283 13.0501L10.8707 15.8218ZM12.3438 15.5318C13.3737 15.5318 14.335 15.9295 15.0636 16.6581L17.1849 14.5368C15.8932 13.245 14.1686 12.5318 12.3438 12.5318V15.5318ZM15.0636 16.6581C15.76 17.3544 16.1546 18.2662 16.1885 19.2468L19.1867 19.1434C19.1267 17.4052 18.4198 15.7717 17.1849 14.5368L15.0636 16.6581ZM16.188 19.23C16.2099 20.1743 16.9887 20.8755 17.8751 20.8755V17.8755C18.5599 17.8755 19.1699 18.4175 19.1872 19.1602L16.188 19.23ZM17.8751 20.8755H19.1876V17.8755H17.8751V20.8755ZM19.1871 20.8755C19.4123 20.8756 19.6352 20.8306 19.8428 20.7432L18.6781 17.9785C18.8395 17.9105 19.0129 17.8755 19.188 17.8755L19.1871 20.8755ZM19.8428 20.7432C20.0503 20.6558 20.2382 20.5277 20.3955 20.3665L18.2482 18.2715C18.3705 18.1461 18.5166 18.0465 18.6781 17.9785L19.8428 20.7432ZM20.3955 20.3665C20.5528 20.2053 20.6762 20.0142 20.7585 19.8046L17.9659 18.7085C18.0298 18.5455 18.1258 18.3969 18.2482 18.2715L20.3955 20.3665ZM20.7585 19.8046C20.8407 19.595 20.8802 19.371 20.8746 19.1459L17.8755 19.2209C17.8711 19.0457 17.9019 18.8715 17.9659 18.7085L20.7585 19.8046ZM20.8746 19.1444C20.8177 16.9546 19.9334 14.8964 18.3769 13.3428L16.2576 15.4661C17.2699 16.4766 17.8387 17.8027 17.8756 19.2223L20.8746 19.1444ZM12.3438 10.8443C11.9385 10.8443 11.5671 10.6896 11.2856 10.4069L9.15986 12.5239C10.008 13.3755 11.146 13.8443 12.3438 13.8443V10.8443ZM11.2792 10.4005C11.1387 10.2612 11.0278 10.095 10.9529 9.91181L8.17572 11.0463C8.4029 11.6024 8.73978 12.1071 9.16626 12.5302L11.2792 10.4005ZM10.9529 9.91181C10.8781 9.72864 10.841 9.53227 10.8437 9.33443L7.84395 9.29323C7.8357 9.89393 7.94853 10.4901 8.17572 11.0463L10.9529 9.91181ZM10.8437 9.32755C10.8472 8.94643 11.0009 8.57318 11.2689 8.29819L9.12031 6.20447C8.31484 7.03104 7.85445 8.14373 7.84387 9.30011L10.8437 9.32755ZM11.2683 8.29882C11.5519 8.00804 11.924 7.84894 12.3308 7.8442L12.2958 4.8444C11.0949 4.85841 9.96223 5.3415 9.12092 6.20385L11.2683 8.29882ZM12.3266 7.84424C12.7261 7.84071 13.1144 7.99742 13.3966 8.27379L15.4957 6.13044C14.6435 5.29586 13.4897 4.83383 12.3001 4.84436L12.3266 7.84424ZM13.3963 8.27352C13.689 8.56027 13.8462 8.93556 13.8462 9.3443H16.8462C16.8462 8.13116 16.3658 6.98301 15.496 6.13071L13.3963 8.27352ZM13.8462 9.3443C13.8462 9.74778 13.6927 10.1187 13.4066 10.4047L15.5279 12.5261C16.3762 11.6777 16.8462 10.544 16.8462 9.3443H13.8462ZM13.4041 10.4073C13.2657 10.5463 13.1011 10.6565 12.9199 10.7315L14.0672 13.5035C14.6149 13.2768 15.1123 12.9437 15.5304 12.5235L13.4041 10.4073ZM12.9199 10.7315C12.7386 10.8065 12.5443 10.8449 12.3482 10.8443L12.3394 13.8443C12.9322 13.846 13.5195 13.7302 14.0672 13.5035L12.9199 10.7315ZM7.96475 9.8087C7.94846 9.65122 7.9399 9.49668 7.9399 9.3443H4.9399C4.9399 9.60911 4.95478 9.86707 4.98068 10.1174L7.96475 9.8087ZM7.9399 9.3443C7.9399 9.06657 7.96605 8.79484 8.01554 8.52794L5.06583 7.98097C4.98407 8.42189 4.9399 8.87671 4.9399 9.3443H7.9399ZM8.01311 8.54076C8.16061 7.78219 7.77179 7.00805 7.05592 6.68266L5.81451 9.41376C5.25333 9.15868 4.95357 8.55798 5.06826 7.96815L8.01311 8.54076ZM7.04909 6.67957C6.88696 6.60685 6.74317 6.50923 6.62107 6.3894L4.51967 8.53045C4.90383 8.90749 5.34597 9.20362 5.82134 9.41684L7.04909 6.67957ZM6.61454 6.38303C6.46595 6.23895 6.34902 6.06548 6.27121 5.87368L3.49124 7.0014C3.72578 7.57957 4.07826 8.1025 4.5262 8.53682L6.61454 6.38303ZM6.27121 5.87368C6.19341 5.68188 6.15644 5.47597 6.16266 5.26909L3.16402 5.17888C3.14526 5.80253 3.2567 6.42324 3.49124 7.0014L6.27121 5.87368ZM6.16275 5.26603C6.17329 4.89028 6.32365 4.53524 6.58637 4.26668L4.44187 2.1688C3.6499 2.97836 3.19558 4.05301 3.16393 5.18195L6.16275 5.26603ZM6.58743 4.26559C6.88091 3.96498 7.26547 3.8059 7.6815 3.81061L7.71549 0.810802C6.47683 0.796766 5.30514 1.28455 4.44081 2.16988L6.58743 4.26559ZM7.68439 3.81064C8.05726 3.81415 8.41821 3.95865 8.68931 4.21229L10.7389 2.02162C9.91784 1.25339 8.83504 0.821328 7.7126 0.810772L7.68439 3.81064ZM8.68867 4.21169C8.78336 4.30039 8.86471 4.39844 8.93328 4.5043L11.4512 2.87336C11.2526 2.56672 11.0152 2.2804 10.7396 2.02222L8.68867 4.21169ZM8.9318 4.50202C9.35624 5.1599 10.1764 5.43702 10.9094 5.17832L9.91099 2.34935C10.4846 2.14689 11.122 2.36307 11.4527 2.87564L8.9318 4.50202ZM10.9014 5.18112C11.2118 5.07355 11.5355 4.9993 11.8625 4.96505L11.5501 1.98136C10.9818 2.04087 10.4336 2.16817 9.919 2.34654L10.9014 5.18112ZM11.8661 4.96467C13.0558 4.8372 13.7138 3.56688 13.1956 2.53051L10.5123 3.87215C10.1113 3.07015 10.6193 2.08108 11.5465 1.98174L11.8661 4.96467ZM13.1927 2.52469C12.1882 0.537444 10.1358 -0.837136 7.75943 -0.874267L7.71256 2.12537C8.93619 2.14449 9.99625 2.85116 10.5153 3.87797L13.1927 2.52469ZM7.75899 -0.874274C4.32442 -0.926923 1.47115 1.87679 1.47115 5.31071H4.47115C4.47115 3.55556 5.94914 2.09834 7.71301 2.12537L7.75899 -0.874274ZM1.47115 5.31071C1.47115 7.25396 2.3677 8.98792 3.76597 10.1207L5.65446 7.78973C4.9293 7.20224 4.47115 6.3112 4.47115 5.31071H1.47115ZM4.08081 7.59367C3.1762 8.01185 2.34325 8.58917 1.62221 9.3102L3.74353 11.4315C4.21312 10.9619 4.75361 10.5877 5.33962 10.3168L4.08081 7.59367ZM1.62318 9.30923C0.0665579 10.863 -0.817578 12.9213 -0.874437 15.1132L2.12455 15.191C2.16145 13.7689 2.73043 12.4428 3.74256 11.4325L1.62318 9.30923ZM-0.874473 15.1146C-0.880103 15.3397 -0.840615 15.5637 -0.758333 15.7734L2.03426 14.6773C2.09826 14.8403 2.12897 15.0145 2.12459 15.1896L-0.874473 15.1146ZM-0.758333 15.7734C-0.676058 15.983 -0.552656 16.174 -0.395382 16.3352L1.75196 14.2402C1.87429 14.3656 1.97027 14.5142 2.03426 14.6773L-0.758333 15.7734ZM-0.395382 16.3352C-0.238114 16.4964 -0.0501754 16.6245 0.157354 16.7119L1.32206 13.9473C1.48347 14.0153 1.62964 14.1149 1.75196 14.2402L-0.395382 16.3352ZM0.157354 16.7119C0.364901 16.7994 0.587839 16.8444 0.813027 16.8443L0.81209 13.8443C0.987234 13.8442 1.16063 13.8792 1.32206 13.9473L0.157354 16.7119ZM0.812559 16.8443H2.1274V13.8443H0.812559V16.8443ZM2.1274 16.8443C3.0138 16.8443 3.79254 16.143 3.8145 15.1987L0.815308 15.129C0.832581 14.3862 1.44257 13.8443 2.1274 13.8443V16.8443ZM3.8141 15.2129C3.84615 14.2345 4.23988 13.3241 4.93756 12.6281L2.81881 10.5042C1.58055 11.7395 0.872717 13.3744 0.815707 15.1147L3.8141 15.2129ZM4.93884 12.6268C5.43845 12.1272 6.04307 11.7866 6.69851 11.6215L5.96567 8.7124C4.77893 9.01135 3.69604 9.627 2.81752 10.5055L4.93884 12.6268ZM6.70465 11.62C7.50509 11.4147 8.06937 10.6429 7.96113 9.777L4.9843 10.1491C4.8995 9.47071 5.3419 8.87232 5.95953 8.71396L6.70465 11.62Z" fill="#126B66" mask="url(#path-1-inside-1_361_5020)"/>
</svg>
