<svg width="62" height="48" viewBox="0 0 62 48" fill="none" xmlns="http://www.w3.org/2000/svg">
<g clip-path="url(#clip0)">
<path d="M48.5939 9.27783H12.4377V43.7047H48.5939V9.27783Z" fill="#25A592"/>
<path d="M48.5939 21.9919H12.4377V25.5785H48.5939V21.9919Z" fill="#43B1A1"/>
<path d="M48.5939 9.27783H12.4377V13.8738H48.5939V9.27783Z" fill="#43B1A1"/>
<path d="M16.9414 13.8738H15.9944V31.7423H16.9414V13.8738Z" fill="#4BB4A5"/>
<path d="M26.3067 13.8738H25.3596V31.7423H26.3067V13.8738Z" fill="#4BB4A5"/>
<path d="M35.6509 13.8738H34.7039V31.7423H35.6509V13.8738Z" fill="#4BB4A5"/>
<path d="M45.0161 13.8738H44.0691V31.7423H45.0161V13.8738Z" fill="#4BB4A5"/>
<path d="M16.9414 35.4363H15.9944V43.6833H16.9414V35.4363Z" fill="#4BB4A5"/>
<path d="M26.3067 35.4363H25.3596V43.6833H26.3067V35.4363Z" fill="#4BB4A5"/>
<path d="M35.6509 35.4363H34.7039V43.6833H35.6509V35.4363Z" fill="#4BB4A5"/>
<path d="M45.0161 35.4363H44.0691V43.6833H45.0161V35.4363Z" fill="#4BB4A5"/>
<path d="M16.9414 15.2053V31.7422H17.5938V25.6H17.9516V31.7422H20.6665V25.6H20.9611V31.7422H21.2978V25.6H21.6345V31.7422H24.3494V25.6H24.6861V31.7422H25.3386V15.2053H16.9414ZM20.456 31.506H18.1831V18.7489L19.3195 17.6966L20.456 18.7489V31.506ZM20.6875 21.9919V18.6416L19.3195 17.3959L17.9726 18.6416V21.9919H17.6149V18.0402L19.2985 16.4939L20.9821 18.0402V21.9919H20.6875ZM24.139 31.506H21.866V18.7489L23.0025 17.6966L24.139 18.7489V31.506ZM24.3705 21.9919V18.6416L23.0236 17.3959L21.6766 18.6416V21.9919H21.3399V18.0402L23.0236 16.4939L24.7072 18.0402V21.9919H24.3705Z" fill="#C7E8E3"/>
<path d="M35.6509 15.2053V31.7422H36.3033V25.6H36.6611V31.7422H39.3759V25.6H39.6706V31.6134H40.0073V25.6H40.344V31.7422H43.0589V25.6H43.3956V31.7422H44.048V15.2053H35.6509ZM39.1655 31.506H36.8926V18.7489L38.029 17.6966L39.1655 18.7489V31.506ZM39.397 21.9919V18.6416L38.0501 17.3959L36.7032 18.6416V21.9919H36.3454V18.0402L38.029 16.4939L39.7127 18.0402V21.9919H39.397ZM42.8484 31.506H40.5755V18.7489L41.712 17.6966L42.8484 18.7489V31.506ZM43.0799 21.9919V18.6416L41.733 17.3959L40.3861 18.6416V21.9919H40.0494V18.0402L41.733 16.4939L43.4167 18.0402V21.9919H43.0799Z" fill="#C7E8E3"/>
<path d="M34.7038 15.2053V31.7208H34.1987V18.0402L32.3467 16.4939L30.4947 18.0402L28.6427 16.4939L26.8117 18.0402V31.7208H26.3066V15.2053H34.7038Z" fill="#C7E8E3"/>
<path d="M48.5939 31.7207H12.4377V35.4361H48.5939V31.7207Z" fill="#43B1A1"/>
<path d="M50.3828 9.27783H10.6699V10.0295H50.3828V9.27783Z" fill="#4BB4A5"/>
<path d="M49.3855 43.7013L49.3855 10.0261H48.6068L48.6068 43.7013H49.3855Z" fill="#78C7BC"/>
<path d="M12.4497 43.702L12.4497 10.0269H11.671L11.671 43.702H12.4497Z" fill="#78C7BC"/>
<path d="M39.86 4.01605H21.4031V10.008H39.86V4.01605Z" fill="#4BB4A5"/>
<path d="M38.8499 5.00403H22.4133V9.27785H38.8499V5.00403Z" fill="#A1D8D0"/>
<path d="M25.3596 9.27782L30.5158 5.73419L35.6509 9.27782H25.3596Z" fill="#C7E8E3"/>
<path d="M30.663 0.150269H30.4736V9.27779H30.663V0.150269Z" fill="#3EAF9E"/>
<path d="M34.2198 36.6819H26.8118V43.6832H34.2198V36.6819Z" fill="#C7E8E3"/>
<path d="M43.564 36.6819H36.156V43.6832H43.564V36.6819Z" fill="#C7E8E3"/>
<path d="M24.8545 36.6819H17.4465V43.6832H24.8545V36.6819Z" fill="#C7E8E3"/>
<path d="M35.5457 3.67248C33.9041 3.04966 32.2836 4.29529 30.6421 3.67248C30.6421 2.51274 30.6421 1.35301 30.6421 0.193281C32.2836 0.8161 33.9041 -0.429538 35.5457 0.193281C35.5457 1.33154 35.5457 2.51274 35.5457 3.67248Z" fill="#109C88"/>
<path d="M50.3828 31.7207H10.6699V32.4724H50.3828V31.7207Z" fill="#25A592"/>
<path d="M50.3617 43.7047H10.1438V47.3557H50.3617V43.7047Z" fill="#3EAF9E"/>
<path d="M50.3617 43.7047H10.1438V45.3369H50.3617V43.7047Z" fill="#5FBDAF"/>
<path d="M62 47.3557H0V48H62V47.3557Z" fill="#5ABBAC"/>
</g>
<defs>
<clipPath id="clip0">
<rect width="62" height="48" fill="white"/>
</clipPath>
</defs>
</svg>
