<svg width="72" height="38" viewBox="0 0 72 38" fill="none" xmlns="http://www.w3.org/2000/svg">
<path d="M67.3564 19.2207H59.0957V22.2607H67.3564V19.2207Z" fill="#25A592"/>
<path d="M66.4277 19.6129H60.0244V20.8387H66.4277V19.6129Z" fill="#B3DFD9"/>
<path d="M66.281 19.7356H60.1466V20.7408H66.281V19.7356Z" fill="#25A592"/>
<path d="M65.5723 22.5304H60.8799V36.0633H65.5723V22.5304Z" fill="#5ABBAC"/>
<path d="M59.0957 25.2762H53.5234V36.0633H59.0957V25.2762Z" fill="#64BFB2"/>
<path d="M59.0957 24.8104H53.5234V25.2762H59.0957V24.8104Z" fill="#25A592"/>
<path d="M59.0957 24.1484H53.5234V24.8104H59.0957V24.1484Z" fill="#B3DFD9"/>
<path d="M57.9959 26.8452H54.5988V34.5188H57.9959V26.8452Z" fill="#25A592"/>
<path d="M59.0957 35.475H53.5234V36.0879H59.0957V35.475Z" fill="#25A592"/>
<path d="M67.332 36.0879H54.2566V37.2892H67.332V36.0879Z" fill="#64BFB2"/>
<path d="M67.332 36.0879H54.2566V36.3085H67.332V36.0879Z" fill="#25A592"/>
<path d="M67.332 37.0685H54.2566V37.2891H67.332V37.0685Z" fill="#25A592"/>
<path d="M60.8798 22.5304H59.0957V36.0633H60.8798V22.5304Z" fill="#25A592"/>
<path d="M67.332 22.5304H65.5479V36.0633H67.332V22.5304Z" fill="#25A592"/>
<path d="M64.8391 26.8452C64.7413 25.0555 61.7108 25.0555 61.6375 26.8452V36.0878H64.8391V26.8452Z" fill="#B3DFD9"/>
<path d="M67.9919 20.5691C67.9674 19.711 67.2587 20.0297 67.4786 20.4465C67.6986 20.8633 67.4542 20.5201 67.4053 20.5936C67.3564 20.6672 67.3564 20.8388 67.2587 20.9368C67.1609 21.0349 67.332 21.0594 67.0387 21.133C66.7454 21.2065 66.0856 21.5007 63.2016 21.5007C60.2933 21.5007 59.6334 21.2065 59.3646 21.133C59.0713 21.0594 59.2424 21.0349 59.1446 20.9368C59.0469 20.8388 59.0469 20.6672 58.998 20.5936C58.9491 20.5201 58.7047 20.8633 58.9247 20.4465C59.1446 20.0297 58.4603 19.711 58.4114 20.5691C58.387 21.4272 59.2179 21.7214 60.2933 21.7949C61.3686 21.8685 63.2016 21.8685 63.2016 21.8685C63.2016 21.8685 65.0102 21.8685 66.11 21.7949C67.1853 21.7214 68.0407 21.4517 67.9919 20.5691Z" fill="#B3DFD9"/>
<path d="M67.332 21.5743C65.9634 21.8195 64.5703 21.8685 63.2016 21.8685C61.833 21.8685 60.4399 21.8195 59.0713 21.5743C59.0713 21.746 59.0713 22.3834 59.0713 22.555C61.833 22.555 64.5703 22.555 67.332 22.555C67.332 22.3589 67.332 21.746 67.332 21.5743Z" fill="#25A592"/>
<path d="M67.332 21.6479C64.5947 22.0647 61.8086 22.0647 59.0713 21.6479V21.6725C61.8086 22.0647 64.5947 22.0647 67.332 21.6479C67.332 21.6725 67.332 21.6725 67.332 21.6479Z" fill="#B3DFD9"/>
<path d="M66.2811 18.24C66.2811 18.24 66.33 18.0684 66.3788 17.9949C66.4277 17.9458 66.4522 17.8478 66.4522 17.7497C66.4277 17.8233 66.3788 17.7987 66.3544 17.8478C66.4033 17.6271 66.501 17.5291 66.3544 17.3084C66.4766 17.2349 66.6721 17.0387 66.4522 16.7691C66.2566 16.5239 65.9145 16.671 65.8412 16.9162C65.7678 17.1613 65.8656 17.3329 65.8656 17.382C65.8656 17.431 65.8167 17.5045 65.7923 17.48C65.7678 17.4555 65.7434 17.2839 65.6456 17.2594C65.6212 17.3084 65.6701 17.4065 65.6456 17.4555C65.6212 17.48 65.5968 17.48 65.5723 17.4555C65.6212 17.5045 65.6212 17.5781 65.6212 17.6271C65.6212 17.7007 65.5723 17.5781 65.4746 17.6026C65.4012 17.6271 65.3035 17.6271 65.3035 17.5291C65.3279 17.6762 65.3035 17.6762 65.3524 17.7007C65.279 17.6762 65.2546 17.7252 65.2057 17.6516C65.2546 17.7252 65.279 17.9458 65.2057 17.9949C65.108 18.0194 64.9124 18.0439 64.8636 17.9458C64.888 17.9949 64.9124 18.1174 64.8391 18.1665C64.9369 18.24 64.8636 18.4852 64.8636 18.4852L66.2811 18.24Z" fill="#5ABBAC"/>
<path d="M60.1467 18.24C60.1467 18.24 60.0978 18.0684 60.0489 17.9949C60 17.9458 59.9756 17.8478 59.9756 17.7497C60 17.8233 60.0489 17.7987 60.0733 17.8478C60.0244 17.6271 59.9267 17.5291 60.0733 17.3084C59.9511 17.2349 59.7556 17.0387 59.9756 16.7691C60.1711 16.5239 60.5132 16.671 60.5866 16.9162C60.6599 17.1613 60.5621 17.3329 60.5621 17.382C60.5621 17.431 60.611 17.5045 60.6354 17.48C60.6599 17.4555 60.6843 17.2839 60.7821 17.2594C60.8065 17.3084 60.7576 17.4065 60.7821 17.4555C60.8065 17.48 60.831 17.48 60.8554 17.4555C60.8065 17.5045 60.8065 17.5781 60.8065 17.6271C60.8065 17.7007 60.8554 17.5781 60.9532 17.6026C61.0265 17.6271 61.1242 17.6271 61.1242 17.5291C61.0998 17.6762 61.1242 17.6762 61.0754 17.7007C61.1487 17.6762 61.1731 17.7252 61.222 17.6516C61.1731 17.7252 61.1487 17.9458 61.222 17.9949C61.3198 18.0194 61.5153 18.0439 61.5642 17.9458C61.5397 17.9949 61.5153 18.1174 61.5886 18.1665C61.4908 18.24 61.5642 18.4852 61.5642 18.4852L60.1467 18.24Z" fill="#5ABBAC"/>
<path d="M67.9919 17.2593C67.9674 16.4012 67.2587 16.7199 67.4786 17.1367C67.6986 17.5535 67.4542 17.2103 67.4053 17.2838C67.3564 17.3574 67.3564 17.529 67.2587 17.627C67.1609 17.7251 67.332 17.7496 67.0387 17.8232C66.7454 17.8967 66.0856 18.1909 63.2016 18.1909C60.2933 18.1909 59.6334 17.8967 59.3646 17.8232C59.0713 17.7496 59.2424 17.7251 59.1446 17.627C59.0469 17.529 59.0469 17.3574 58.998 17.2838C58.9491 17.2103 58.7047 17.5535 58.9247 17.1367C59.1446 16.7199 58.4603 16.4012 58.4114 17.2593C58.387 18.1174 59.2179 18.4116 60.2933 18.4851C61.3686 18.5586 63.2016 18.5586 63.2016 18.5586C63.2016 18.5586 65.0102 18.5586 66.11 18.4851C67.1853 18.4116 68.0407 18.1174 67.9919 17.2593Z" fill="#B3DFD9"/>
<path d="M67.332 18.2399C65.9634 18.485 64.5703 18.5341 63.2016 18.5341C61.833 18.5341 60.4399 18.485 59.0713 18.2399C59.0713 18.4115 59.0713 19.0489 59.0713 19.2205C61.833 19.2205 64.5703 19.2205 67.332 19.2205C67.332 19.0489 67.332 18.4115 67.332 18.2399Z" fill="#25A592"/>
<path d="M67.332 18.3379C64.5947 18.7547 61.8086 18.7547 59.0713 18.3379V18.3624C61.8086 18.7547 64.6192 18.7547 67.332 18.3379Z" fill="#B3DFD9"/>
<path d="M13.9307 19.2207H5.67004V22.2607H13.9307V19.2207Z" fill="#25A592"/>
<path d="M13.002 19.6129H6.59875V20.8387H13.002V19.6129Z" fill="#B3DFD9"/>
<path d="M12.8554 19.7356H6.72095V20.7408H12.8554V19.7356Z" fill="#25A592"/>
<path d="M12.1466 22.5304H7.4541V36.0633H12.1466V22.5304Z" fill="#5ABBAC"/>
<path d="M19.5031 25.2762H13.9308V36.0633H19.5031V25.2762Z" fill="#64BFB2"/>
<path d="M19.5031 24.8104H13.9308V25.2762H19.5031V24.8104Z" fill="#25A592"/>
<path d="M19.5031 24.1484H13.9308V24.8104H19.5031V24.1484Z" fill="#B3DFD9"/>
<path d="M18.4033 26.8452H15.0061V34.5188H18.4033V26.8452Z" fill="#25A592"/>
<path d="M19.5031 35.475H13.9308V36.0879H19.5031V35.475Z" fill="#25A592"/>
<path d="M18.7454 36.0879H5.67004V37.2892H18.7454V36.0879Z" fill="#64BFB2"/>
<path d="M18.7454 36.0879H5.67004V36.3085H18.7454V36.0879Z" fill="#25A592"/>
<path d="M18.7454 37.0685H5.67004V37.2891H18.7454V37.0685Z" fill="#25A592"/>
<path d="M13.9307 22.5304H12.1466V36.0633H13.9307V22.5304Z" fill="#25A592"/>
<path d="M7.45416 22.5304H5.67004V36.0633H7.45416V22.5304Z" fill="#25A592"/>
<path d="M8.16296 26.8452C8.26072 25.0555 11.2913 25.0555 11.3646 26.8452V36.0878H8.16296V26.8452Z" fill="#B3DFD9"/>
<path d="M5.01017 20.5691C5.03461 19.711 5.74337 20.0297 5.52341 20.4465C5.30345 20.8633 5.54785 20.5201 5.59673 20.5936C5.64561 20.6672 5.64561 20.8388 5.74337 20.9368C5.84113 21.0349 5.67005 21.0594 5.96333 21.133C6.2566 21.2065 6.91648 21.5007 9.80039 21.5007C12.6843 21.5007 13.3686 21.2065 13.6375 21.133C13.9307 21.0594 13.7597 21.0349 13.8574 20.9368C13.9552 20.8388 13.9552 20.6672 14.0041 20.5936C14.0529 20.5201 14.2973 20.8633 14.0774 20.4465C13.8574 20.0297 14.5417 19.711 14.5906 20.5691C14.6151 21.4272 13.7841 21.7214 12.7087 21.7949C11.6334 21.8685 9.80039 21.8685 9.80039 21.8685C9.80039 21.8685 7.99184 21.8685 6.89204 21.7949C5.81669 21.7214 4.98573 21.4517 5.01017 20.5691Z" fill="#B3DFD9"/>
<path d="M5.67004 21.5743C7.03868 21.8195 8.43175 21.8685 9.80039 21.8685C11.169 21.8685 12.5621 21.8195 13.9307 21.5743C13.9307 21.746 13.9307 22.3834 13.9307 22.555C11.169 22.555 8.43175 22.555 5.67004 22.555C5.67004 22.3589 5.67004 21.746 5.67004 21.5743Z" fill="#25A592"/>
<path d="M5.67004 21.6479C8.40731 22.0647 11.1935 22.0647 13.9307 21.6479V21.6725C11.1935 22.0647 8.40731 22.0647 5.67004 21.6479C5.67004 21.6725 5.67004 21.6725 5.67004 21.6479Z" fill="#B3DFD9"/>
<path d="M6.72099 18.24C6.72099 18.24 6.67211 18.0684 6.62323 17.9949C6.57435 17.9458 6.54991 17.8478 6.54991 17.7497C6.57435 17.8233 6.62323 17.7987 6.64767 17.8478C6.59879 17.6271 6.50103 17.5291 6.64767 17.3084C6.52547 17.2349 6.32995 17.0387 6.54991 16.7691C6.74543 16.5239 7.08759 16.671 7.16091 16.9162C7.23423 17.1613 7.13647 17.3329 7.13647 17.382C7.13647 17.431 7.18535 17.5045 7.20979 17.48C7.23423 17.4555 7.25867 17.2839 7.35643 17.2594C7.38087 17.3084 7.33199 17.4065 7.35643 17.4555C7.38087 17.48 7.40531 17.48 7.42975 17.4555C7.38087 17.5045 7.38087 17.5781 7.38087 17.6271C7.38087 17.7007 7.42975 17.5781 7.52751 17.6026C7.60083 17.6271 7.69859 17.6271 7.69859 17.5291C7.67415 17.6762 7.69859 17.6762 7.64971 17.7007C7.72303 17.6762 7.74747 17.7252 7.79635 17.6516C7.74747 17.7252 7.72303 17.9458 7.79635 17.9949C7.89411 18.0194 8.08962 18.0439 8.1385 17.9458C8.11406 17.9949 8.08963 18.1174 8.16294 18.1665C8.06519 18.24 8.1385 18.4852 8.1385 18.4852L6.72099 18.24Z" fill="#5ABBAC"/>
<path d="M12.8798 18.24C12.8798 18.24 12.9287 18.0684 12.9776 17.9949C13.0265 17.9458 13.0509 17.8478 13.0509 17.7497C13.0265 17.8233 12.9776 17.7987 12.9531 17.8478C13.002 17.6271 13.0998 17.5291 12.9531 17.3084C13.0753 17.2349 13.2709 17.0387 13.0509 16.7691C12.8554 16.5239 12.5132 16.671 12.4399 16.9162C12.3666 17.1613 12.4643 17.3329 12.4643 17.382C12.4643 17.431 12.4155 17.5045 12.391 17.48C12.3666 17.4555 12.3421 17.2839 12.2444 17.2594C12.2199 17.3084 12.2688 17.4065 12.2444 17.4555C12.2199 17.48 12.1955 17.48 12.1711 17.4555C12.2199 17.5045 12.2199 17.5781 12.2199 17.6271C12.2199 17.7007 12.1711 17.5781 12.0733 17.6026C12 17.6271 11.9022 17.6271 11.9022 17.5291C11.9267 17.6762 11.9022 17.6762 11.9511 17.7007C11.8778 17.6762 11.8533 17.7252 11.8045 17.6516C11.8533 17.7252 11.8778 17.9458 11.8045 17.9949C11.7067 18.0194 11.5112 18.0439 11.4623 17.9458C11.4867 17.9949 11.5112 18.1174 11.4379 18.1665C11.5356 18.24 11.4623 18.4852 11.4623 18.4852L12.8798 18.24Z" fill="#5ABBAC"/>
<path d="M5.01017 17.2594C5.03461 16.4013 5.74337 16.7201 5.52341 17.1368C5.30345 17.5536 5.54785 17.2104 5.59673 17.2839C5.64561 17.3575 5.64561 17.5291 5.74337 17.6272C5.84113 17.7252 5.67005 17.7497 5.96333 17.8233C6.2566 17.8968 6.91648 18.191 9.80039 18.191C12.7087 18.191 13.3686 17.8968 13.6375 17.8233C13.9307 17.7497 13.7597 17.7252 13.8574 17.6272C13.9552 17.5291 13.9552 17.3575 14.0041 17.2839C14.0529 17.2104 14.2973 17.5536 14.0774 17.1368C13.8574 16.7201 14.5417 16.4013 14.5906 17.2594C14.6151 18.1175 13.7841 18.4117 12.7087 18.4852C11.6334 18.5588 9.80039 18.5588 9.80039 18.5588C9.80039 18.5588 7.99184 18.5588 6.89204 18.4852C5.81669 18.4117 4.98573 18.1175 5.01017 17.2594Z" fill="#B3DFD9"/>
<path d="M5.67004 18.24C7.03868 18.4852 8.43175 18.5342 9.80039 18.5342C11.169 18.5342 12.5621 18.4852 13.9307 18.24C13.9307 18.4116 13.9307 19.049 13.9307 19.2206C11.169 19.2206 8.43175 19.2206 5.67004 19.2206C5.67004 19.049 5.67004 18.4116 5.67004 18.24Z" fill="#25A592"/>
<path d="M5.67004 18.338C8.40731 18.7548 11.1935 18.7548 13.9307 18.338V18.3625C11.1935 18.7548 8.40731 18.7548 5.67004 18.338Z" fill="#B3DFD9"/>
<path d="M43.5519 2.94206C43.5519 2.94206 43.6497 2.59883 43.7719 2.50077C43.8941 2.37819 43.9185 2.20657 43.9185 2.03496C43.8452 2.15754 43.723 2.13303 43.6986 2.23109C43.8208 1.83883 44.0407 1.61819 43.6986 1.25044C43.9919 1.12786 44.4073 0.735606 43.943 0.2698C43.4786 -0.196007 42.721 0.0981869 42.5499 0.563993C42.3788 1.0298 42.5988 1.34851 42.5743 1.44657C42.5499 1.54464 42.4521 1.69174 42.4033 1.6427C42.3544 1.59367 42.3055 1.27496 42.0855 1.22593C42.0611 1.34851 42.1344 1.52012 42.0855 1.56915C42.0367 1.61819 41.9878 1.6427 41.9389 1.59367C42.0367 1.69174 42.0611 1.81432 42.0611 1.91238C42.0611 2.03496 41.9389 1.81432 41.7434 1.88786C41.5723 1.9369 41.3768 1.91238 41.3524 1.76528C41.4012 2.01044 41.3768 2.03496 41.4745 2.10851C41.279 2.05948 41.2546 2.15754 41.1568 2.03496C41.2546 2.15754 41.3279 2.57432 41.1568 2.64786C40.9369 2.6969 40.4725 2.74593 40.3992 2.57432C40.4725 2.67238 40.4725 2.91754 40.3748 2.99109C40.5947 3.13819 40.3992 3.55496 40.3992 3.55496L43.5519 2.94206Z" fill="#5ABBAC"/>
<path d="M29.4745 2.94206C29.4745 2.94206 29.3768 2.59883 29.2546 2.50077C29.1324 2.37819 29.1079 2.20657 29.1079 2.03496C29.1812 2.15754 29.3034 2.13303 29.3279 2.23109C29.2057 1.83883 28.9857 1.61819 29.3279 1.25044C29.0346 1.12786 28.6191 0.735606 29.0835 0.2698C29.5478 -0.196007 30.3055 0.0981869 30.4766 0.563993C30.6476 1.0298 30.4277 1.34851 30.4521 1.44657C30.4766 1.54464 30.5743 1.69174 30.6232 1.6427C30.6721 1.59367 30.721 1.27496 30.9409 1.22593C30.9654 1.34851 30.892 1.52012 30.9409 1.56915C30.9898 1.61819 31.0387 1.6427 31.0875 1.59367C30.9898 1.69174 30.9654 1.81432 30.9654 1.91238C30.9654 2.03496 31.0876 1.81432 31.2831 1.88786C31.4541 1.9369 31.6497 1.91238 31.6741 1.76528C31.6252 2.01044 31.6497 2.03496 31.5519 2.10851C31.7474 2.05948 31.7719 2.15754 31.8696 2.03496C31.7719 2.15754 31.6985 2.57432 31.8696 2.64786C32.0896 2.6969 32.5539 2.74593 32.6273 2.57432C32.5539 2.67238 32.5539 2.91754 32.6517 2.99109C32.4317 3.13819 32.6273 3.55496 32.6273 3.55496L29.4745 2.94206Z" fill="#5ABBAC"/>
<path d="M38.3951 2.72143C38.0285 2.5253 37.7352 2.79498 37.613 2.86852C37.4908 2.94207 37.393 2.81949 37.4175 2.69691C37.9551 2.40272 37.7352 2.30465 37.8085 2.10853C37.9063 1.9124 37.5641 1.88788 37.5641 1.7653C37.5641 1.66723 37.5152 1.66723 37.393 1.54465C37.613 1.25046 37.5152 1.02982 37.4175 0.882719C37.4419 0.980783 37.3197 1.22594 37.2219 1.29949C37.1242 1.37304 37.0997 1.56917 36.9775 1.54465C36.8553 1.52014 36.9775 1.34853 36.9042 1.22594C36.9287 1.32401 36.8553 1.37304 36.7576 1.37304C36.6354 1.37304 36.5865 0.907235 36.5621 0.760138C36.5132 0.613041 36.6598 0.613041 36.5621 0.490461C36.5132 0.416912 36.4887 0.343364 36.4887 0.318848C36.4887 0.36788 36.4643 0.441428 36.4154 0.490461C36.3177 0.613041 36.4643 0.613041 36.4154 0.760138C36.3665 0.907235 36.3177 1.37304 36.2199 1.37304C36.0977 1.37304 36.0488 1.32401 36.0733 1.22594C35.9999 1.34853 36.1221 1.52014 35.9999 1.54465C35.8777 1.56917 35.8533 1.37304 35.7555 1.29949C35.6578 1.22594 35.5356 0.980783 35.56 0.882719C35.4867 1.0053 35.3645 1.22594 35.5845 1.54465C35.4867 1.66723 35.4378 1.66723 35.4134 1.7653C35.4134 1.86336 35.0712 1.88788 35.169 2.10853C35.2667 2.30465 35.0468 2.42723 35.56 2.69691C35.56 2.81949 35.4623 2.96659 35.3645 2.86852C35.2423 2.79498 34.9735 2.5253 34.5824 2.72143C34.2158 2.91756 34.1914 2.94207 34.338 3.16272C34.4847 3.38336 34.4358 3.40788 34.6069 3.45691C34.7779 3.50594 35.3401 3.50594 36.4887 3.45691C37.6374 3.50594 38.1995 3.50594 38.3706 3.45691C38.5417 3.40788 38.4928 3.38336 38.6395 3.16272C38.7861 2.94207 38.7617 2.91756 38.3951 2.72143ZM36.5132 2.54982C36.2688 2.54982 36.0733 2.35369 36.0733 2.10853C36.0733 1.86336 36.2688 1.66723 36.5132 1.66723C36.7576 1.66723 36.9531 1.86336 36.9531 2.10853C36.9287 2.35369 36.7576 2.54982 36.5132 2.54982Z" fill="#5ABBAC"/>
<path d="M47.3401 1.25038C47.2668 -0.710908 45.7027 0.0245757 46.1915 0.956189C46.6803 1.8878 46.167 1.10329 46.0448 1.2749C45.9226 1.44651 45.9226 1.81425 45.7027 2.05941C45.4827 2.30458 45.8738 2.30458 45.2139 2.5007C44.554 2.69683 43.0632 3.35877 36.5133 3.35877C29.9634 3.35877 28.4481 2.69683 27.8126 2.5007C27.1528 2.30458 27.5438 2.30458 27.3238 2.05941C27.1039 1.81425 27.1039 1.44651 26.9817 1.2749C26.8595 1.10329 26.3218 1.8878 26.835 0.956189C27.3238 0.0245757 25.7597 -0.710908 25.6864 1.25038C25.6131 3.21167 27.5194 3.87361 29.9634 4.0207C32.4074 4.1678 36.5133 4.1678 36.5133 4.1678C36.5133 4.1678 40.6192 4.1678 43.0632 4.0207C45.5072 3.84909 47.4135 3.21167 47.3401 1.25038Z" fill="#B3DFD9"/>
<path d="M45.8493 3.48138C42.7699 4.04526 39.6172 4.14332 36.5133 4.14332C33.4094 4.14332 30.2567 4.04526 27.1772 3.48138C27.1772 3.87364 27.1772 4.2659 27.1772 4.65816C33.4094 4.65816 39.6416 4.65816 45.8493 4.65816C45.8493 4.29042 45.8493 3.87364 45.8493 3.48138Z" fill="#25A592"/>
<path d="M45.8493 3.70197C39.666 4.63358 33.3605 4.63358 27.1772 3.70197C27.1772 3.72648 27.1772 3.72648 27.1772 3.751C33.3605 4.63358 39.666 4.63358 45.8493 3.751C45.8493 3.72648 45.8493 3.70197 45.8493 3.70197Z" fill="#B3DFD9"/>
<path d="M45.8982 4.68262H27.1283V8.311H45.8982V4.68262Z" fill="#25A592"/>
<path d="M33.1405 4.85425H32.3096V8.31102H33.1405V4.85425Z" fill="#25A592"/>
<path d="M40.6924 4.85425H39.8615V8.31102H40.6924V4.85425Z" fill="#25A592"/>
<path d="M45.7271 4.85425H44.8961V8.31102H45.7271V4.85425Z" fill="#25A592"/>
<path d="M28.1059 4.85425H27.2749V8.31102H28.1059V4.85425Z" fill="#25A592"/>
<path d="M39.7149 5.36914H33.2872V7.72269H39.7149V5.36914Z" fill="#B3DFD9"/>
<path d="M44.6762 5.36914H40.8391V7.72269H44.6762V5.36914Z" fill="#B3DFD9"/>
<path d="M32.1874 5.36914H28.3503V7.72269H32.1874V5.36914Z" fill="#B3DFD9"/>
<path d="M51.006 17.5046H21.9958V20.3485H51.006V17.5046Z" fill="#25A592"/>
<path d="M47.3156 17.5046H25.6863V20.3485H47.3156V17.5046Z" fill="#64BFB2"/>
<path d="M49.0509 5.83492C48.9532 3.55492 47.1446 4.41298 47.7312 5.49169C48.3177 6.5704 47.6823 5.6633 47.5601 5.85943C47.4135 6.05556 47.4135 6.49685 47.1691 6.76653C46.9247 7.03621 47.3646 7.06072 46.6069 7.28137C45.8493 7.50202 44.1385 8.26202 36.5377 8.26202C28.9369 8.26202 27.2017 7.50202 26.4685 7.28137C25.7108 7.06072 26.1507 7.03621 25.9063 6.76653C25.6619 6.49685 25.6619 6.05556 25.5153 5.85943C25.3687 5.6633 24.7577 6.5704 25.3442 5.49169C25.9308 4.41298 24.1222 3.55492 24.0245 5.83492C23.9267 8.11492 26.1507 8.8504 28.9613 9.04653C31.7719 9.21815 36.5621 9.21814 36.5621 9.21814C36.5621 9.21814 41.3279 9.21815 44.163 9.04653C46.9247 8.8504 49.1243 8.11492 49.0509 5.83492Z" fill="#B3DFD9"/>
<path d="M47.3156 9.80652H25.6863V17.5046H47.3156V9.80652Z" fill="#64BFB2"/>
<path d="M32.6272 10.0271H31.6741V17.5045H32.6272V10.0271Z" fill="#25A592"/>
<path d="M41.3034 10.0271H40.3502V17.5045H41.3034V10.0271Z" fill="#25A592"/>
<path d="M47.12 10.0271H46.1669V17.5045H47.12V10.0271Z" fill="#25A592"/>
<path d="M26.835 10.0271H25.8818V17.5045H26.835V10.0271Z" fill="#25A592"/>
<path d="M40.2035 10.0271H32.7982V17.7252H40.2035V10.0271Z" fill="#25A592"/>
<path d="M38.5905 13.0181C38.5416 10.3949 34.4845 10.3949 34.4357 13.0181V17.7252H38.5905V13.0181Z" fill="#B3DFD9"/>
<path d="M38.4683 13.1406C38.4194 10.5664 34.6067 10.5664 34.5579 13.1406V17.7251H38.4683V13.1406Z" fill="#5ABBAC"/>
<path d="M45.8736 10.0271H41.4744V17.7252H45.8736V10.0271Z" fill="#25A592"/>
<path d="M44.9203 13.0181C44.8959 10.3949 42.4763 10.3949 42.4519 13.0181V17.7252H44.9203V13.0181Z" fill="#B3DFD9"/>
<path d="M44.7248 13.1406C44.7004 10.5664 42.6963 10.5664 42.6719 13.1406V17.7251H44.7248V13.1406Z" fill="#5ABBAC"/>
<path d="M31.5274 10.0271H27.1282V17.7252H31.5274V10.0271Z" fill="#25A592"/>
<path d="M30.5497 13.0181C30.5253 10.3949 28.1057 10.3949 28.0813 13.0181V17.7252H30.5497V13.0181Z" fill="#B3DFD9"/>
<path d="M30.3542 13.1406C30.3298 10.5664 28.3257 10.5664 28.3013 13.1406V17.7251H30.3542V13.1406Z" fill="#5ABBAC"/>
<path d="M42.7943 18.3137H30.2078V19.9563H42.7943V18.3137Z" fill="#5ABBAC"/>
<path d="M30.11 18.2891L29.9389 18.093L29.2057 18.9021L28.9124 18.5833L29.1813 18.2891L29.0102 18.093L28.7414 18.3872L28.4725 18.093L28.3014 18.2891L28.5703 18.5833L28.277 18.9021L27.9837 18.5833L28.2526 18.2891L28.0815 18.093L27.8126 18.3872L27.5438 18.093L27.3727 18.2891L27.6416 18.5833L27.3483 18.9021L27.055 18.5833L27.3238 18.2891L27.1528 18.093L26.8839 18.3872L26.6151 18.093L26.444 18.2891L26.7128 18.5833L26.4196 18.9021L26.1263 18.5833L26.3951 18.2891L26.224 18.093L25.9552 18.3872L25.6864 18.093L25.5153 18.2891L25.7841 18.5833L25.4908 18.9021L25.1976 18.5833L25.4664 18.2891L25.2953 18.093L25.0265 18.3872L24.7577 18.093L24.5866 18.2891L24.8554 18.5833L24.5621 18.9021L24.2689 18.5833L24.5377 18.2891L24.3666 18.093L24 18.3872L23.7312 18.093L23.5601 18.2891L23.8289 18.5833L23.5357 18.9021L23.2424 18.5833L23.5112 18.2891L23.3401 18.093L23.0469 18.3872L22.778 18.093L22.6069 18.2891L22.8758 18.5833L22.5825 18.9021L21.8493 18.093L21.6782 18.2891L22.4114 19.0982L21.6782 19.9072L21.8493 20.1033L22.5825 19.2943L22.8758 19.613L22.6069 19.9072L22.778 20.1033L23.0469 19.8092L23.3157 20.1033L23.4868 19.9072L23.2179 19.613L23.5112 19.2943L23.8045 19.613L23.5357 19.9072L23.7067 20.1033L23.9756 19.8092L24.2444 20.1033L24.4155 19.9072L24.1467 19.613L24.4399 19.2943L24.7332 19.613L24.4644 19.9072L24.6843 20.1033L24.9532 19.8092L25.222 20.1033L25.3931 19.9072L25.1243 19.613L25.4175 19.2943L25.7108 19.613L25.442 19.9072L25.613 20.1033L25.8819 19.8092L26.1507 20.1033L26.3218 19.9072L26.053 19.613L26.3462 19.2943L26.6395 19.613L26.3707 19.9072L26.5418 20.1033L26.8106 19.8092L27.0794 20.1033L27.2505 19.9072L26.9817 19.613L27.275 19.2943L27.5682 19.613L27.2994 19.9072L27.4705 20.1033L27.7393 19.8092L28.0082 20.1033L28.1792 19.9072L27.9104 19.613L28.2037 19.2943L28.497 19.613L28.2281 19.9072L28.3992 20.1033L28.668 19.8092L28.9369 20.1033L29.108 19.9072L28.8391 19.613L29.1324 19.2943L29.8656 20.1033L30.0367 19.9072L29.3035 19.0982L30.11 18.2891ZM23.0469 19.4414L22.7536 19.1227L23.0469 18.804L23.3401 19.1227L23.0469 19.4414ZM24 19.4414L23.7067 19.0982L24 18.7795L24.2933 19.0982L24 19.4414ZM24.9532 19.4414L24.6599 19.1227L24.9532 18.804L25.2464 19.1227L24.9532 19.4414ZM25.8819 19.4414L25.5886 19.1227L25.8819 18.804L26.1752 19.1227L25.8819 19.4414ZM26.835 19.4414L26.5418 19.1227L26.835 18.804L27.1283 19.1227L26.835 19.4414ZM27.7638 19.4414L27.4705 19.1227L27.7638 18.804L28.057 19.1227L27.7638 19.4414ZM28.7169 19.4414L28.4236 19.1227L28.7169 18.804L29.0102 19.1227L28.7169 19.4414Z" fill="#25A592"/>
<path d="M28.9858 19.9563H21.6782V20.1524H28.9858V19.9563Z" fill="#B3DFD9"/>
<path d="M28.9858 20.1523H21.6782V20.3485H28.9858V20.1523Z" fill="#5ABBAC"/>
<path d="M28.9858 17.5046H22.0204V17.7008H28.9858V17.5046Z" fill="#25A592"/>
<path d="M28.9858 17.7008H22.0204V17.8969H28.9858V17.7008Z" fill="#B3DFD9"/>
<path d="M28.9858 17.9214H22.0204V18.1175H28.9858V17.9214Z" fill="#5ABBAC"/>
<path d="M28.9858 18.1176H22.0204V18.3137H28.9858V18.1176Z" fill="#5ABBAC"/>
<path d="M43.6497 19.0982L42.9165 19.9072L43.0876 20.1033L43.8208 19.2943L44.1141 19.613L43.8452 19.9072L44.0163 20.1033L44.2851 19.8092L44.554 20.1033L44.7251 19.9072L44.4562 19.613L44.7495 19.2943L45.0428 19.613L44.7739 19.9072L44.9695 20.1033L45.2383 19.8092L45.5071 20.1033L45.6782 19.9072L45.4094 19.613L45.7027 19.2943L45.9959 19.613L45.7271 19.9072L45.8982 20.1033L46.167 19.8092L46.4358 20.1033L46.6069 19.9072L46.3381 19.613L46.6314 19.2943L46.9246 19.613L46.6558 19.9072L46.8269 20.1033L47.0957 19.8092L47.3646 20.1033L47.5356 19.9072L47.2668 19.613L47.5601 19.2943L47.8534 19.613L47.5845 19.9072L47.7556 20.1033L48.0244 19.8092L48.2933 20.1033L48.4644 19.9072L48.1955 19.613L48.4888 19.2943L48.7821 19.613L48.5132 19.9072L48.6843 20.1033L48.9532 19.8092L49.222 20.1033L49.3931 19.9072L49.1242 19.613L49.4175 19.2943L49.7108 19.613L49.442 19.9072L49.613 20.1033L49.8819 19.8092L50.1507 20.1033L50.3218 19.9072L50.053 19.613L50.3462 19.2943L51.0794 20.1033L51.2505 19.9072L50.5173 19.0982L51.2505 18.2891L51.0794 18.093L50.3462 18.9021L50.053 18.5833L50.3218 18.2891L50.1507 18.093L49.8819 18.3872L49.613 18.093L49.442 18.2891L49.7108 18.5833L49.4175 18.9021L49.1242 18.5833L49.3931 18.2891L49.222 18.093L48.9532 18.3872L48.6843 18.093L48.5132 18.2891L48.7821 18.5833L48.4888 18.9021L48.1955 18.5833L48.4644 18.2891L48.2933 18.093L48.0244 18.3872L47.7556 18.093L47.5845 18.2891L47.8534 18.5833L47.5601 18.9021L47.2668 18.5833L47.5356 18.2891L47.3646 18.093L47.0957 18.3872L46.8269 18.093L46.6558 18.2891L46.9246 18.5833L46.6314 18.9021L46.3381 18.5833L46.6069 18.2891L46.4358 18.093L46.1915 18.3872L45.9226 18.093L45.7515 18.2891L46.0204 18.5833L45.7271 18.9021L45.4338 18.5833L45.7027 18.2891L45.5316 18.093L45.2627 18.3872L44.9939 18.093L44.8228 18.2891L45.0917 18.5833L44.7984 18.9021L44.5051 18.5833L44.7739 18.2891L44.6029 18.093L44.334 18.3872L44.0652 18.093L43.8941 18.2891L44.1629 18.5833L43.8697 18.9021L43.1365 18.093L42.9654 18.2891L43.6497 19.0982ZM49.6619 19.0982L49.9552 18.7795L50.2485 19.0982L49.9552 19.4169L49.6619 19.0982ZM48.7332 19.0982L49.0265 18.7795L49.3198 19.0982L49.0265 19.4169L48.7332 19.0982ZM47.78 19.0982L48.0733 18.7795L48.3666 19.0982L48.0733 19.4169L47.78 19.0982ZM46.8269 19.0982L47.1202 18.7795L47.4134 19.0982L47.1202 19.4169L46.8269 19.0982ZM45.8982 19.0982L46.1915 18.7795L46.4847 19.0982L46.1915 19.4169L45.8982 19.0982ZM44.945 19.0982L45.2383 18.7795L45.5316 19.0982L45.2383 19.4169L44.945 19.0982ZM43.9919 19.0982L44.2851 18.7795L44.5784 19.0982L44.2851 19.4169L43.9919 19.0982Z" fill="#25A592"/>
<path d="M51.3483 19.9563H44.0408V20.1524H51.3483V19.9563Z" fill="#B3DFD9"/>
<path d="M51.3483 20.1523H44.0408V20.3485H51.3483V20.1523Z" fill="#5ABBAC"/>
<path d="M51.0062 17.5046H44.0408V17.7008H51.0062V17.5046Z" fill="#25A592"/>
<path d="M51.0062 17.7008H44.0408V17.8969H51.0062V17.7008Z" fill="#B3DFD9"/>
<path d="M51.0062 17.9214H44.0408V18.1175H51.0062V17.9214Z" fill="#5ABBAC"/>
<path d="M51.0062 18.1176H44.0408V18.3137H51.0062V18.1176Z" fill="#5ABBAC"/>
<path d="M51.2015 20.5938H21.8003V21.1821H51.2015V20.5938Z" fill="#B3DFD9"/>
<path d="M51.5926 20.3485H21.4093V20.6182H51.5926V20.3485Z" fill="#25A592"/>
<path d="M51.2015 20.9124H21.8003V21.2065H51.2015V20.9124Z" fill="#5ABBAC"/>
<path d="M44.6273 21.2065H28.3748V36.0878H44.6273V21.2065Z" fill="#25A592"/>
<path d="M41.0835 26.9678C40.9858 21.8685 32.0652 21.8685 31.943 26.9678V36.0878H41.0835V26.9678Z" fill="#B3DFD9"/>
<path d="M40.8146 27.213C40.7169 22.2607 32.3096 22.2607 32.2118 27.213V36.0878H40.8146V27.213Z" fill="#5ABBAC"/>
<path d="M30.2077 21.2065H28.9857V32.9007H30.2077V21.2065Z" fill="#5ABBAC"/>
<path d="M44.0163 21.2065H42.7943V32.9007H44.0163V21.2065Z" fill="#5ABBAC"/>
<path d="M28.3748 21.2065H21.8004V36.0878H28.3748V21.2065Z" fill="#25A592"/>
<path d="M27.5438 32.582H22.6069V35.622H27.5438V32.582Z" fill="#64BFB2"/>
<path d="M27.1283 32.9006H23.0469V35.2787H27.1283V32.9006Z" fill="#25A592"/>
<path d="M27.5438 21.5988H22.6069V24.6388H27.5438V21.5988Z" fill="#64BFB2"/>
<path d="M27.1283 21.9174H23.0469V24.2954H27.1283V21.9174Z" fill="#25A592"/>
<path d="M27.5438 25.4479H22.6069V32.0427H27.5438V25.4479Z" fill="#64BFB2"/>
<path d="M27.1283 25.8156H23.0469V31.6749H27.1283V25.8156Z" fill="#25A592"/>
<path d="M51.2017 21.2065H44.6273V36.0878H51.2017V21.2065Z" fill="#25A592"/>
<path d="M50.3951 32.5822H45.4583V35.6222H50.3951V32.5822Z" fill="#64BFB2"/>
<path d="M49.9552 32.9008H45.8738V35.2788H49.9552V32.9008Z" fill="#25A592"/>
<path d="M50.3951 21.5989H45.4583V24.6389H50.3951V21.5989Z" fill="#64BFB2"/>
<path d="M49.9552 21.9175H45.8738V24.2955H49.9552V21.9175Z" fill="#25A592"/>
<path d="M50.3951 25.448H45.4583V32.0428H50.3951V25.448Z" fill="#64BFB2"/>
<path d="M49.9552 25.8157H45.8738V31.675H49.9552V25.8157Z" fill="#25A592"/>
<path d="M21.8737 12.1356C21.7026 11.7924 21.9959 11.8414 21.8004 11.7433C21.6048 11.6453 21.8737 11.4491 21.7026 11.3756C21.5315 11.302 21.8004 11.0078 21.6782 10.8608C21.5315 10.7382 21.8737 10.4685 21.8737 10.4685C21.8737 10.4685 21.8981 10.3704 21.8248 10.2478C21.8981 9.88011 21.7759 10.0027 21.6537 10.1988C21.5315 10.3949 21.6537 9.97817 21.556 9.78204C21.4827 10.0027 21.3116 10.0762 21.2871 10.2478C21.2627 10.4195 21.1161 10.444 21.0672 10.5175C21.0183 10.5911 20.6517 10.542 20.6517 10.542C20.6517 10.542 20.2851 10.6156 20.2362 10.542C20.1873 10.4685 20.0407 10.444 20.0163 10.2724C19.9918 10.1008 19.8207 10.0272 19.7474 9.80656C19.6497 10.0027 19.7963 10.3949 19.6497 10.2233C19.5275 10.0272 19.4053 9.90462 19.4786 10.2724C19.3808 10.3949 19.4297 10.493 19.4297 10.493C19.4297 10.493 19.7719 10.7382 19.6252 10.8853C19.4786 11.0078 19.7719 11.3266 19.6008 11.4001C19.4297 11.4737 19.6985 11.6698 19.503 11.7678C19.3075 11.8659 19.6008 11.8169 19.4297 12.1601C19.6741 12.4543 19.9429 12.6014 19.7719 12.724C20.0407 12.724 20.6517 12.724 20.6517 12.724C20.6517 12.724 21.2383 12.724 21.5315 12.724C21.3605 12.5524 21.6293 12.4298 21.8737 12.1356Z" fill="#25A592"/>
<path d="M21.4093 13.2878H19.894V13.8762H21.4093V13.2878Z" fill="#5ABBAC"/>
<path d="M21.5315 12.9935H19.7719V13.2877H21.5315V12.9935Z" fill="#B3DFD9"/>
<path d="M21.6538 12.6749H19.6252L19.7719 12.9936H21.5316L21.6538 12.6749Z" fill="#5ABBAC"/>
<path d="M22.5091 35.4749H18.7454V37.2891H22.5091V35.4749Z" fill="#64BFB2"/>
<path d="M22.4358 35.3032H18.8431V35.4503H22.4358V35.3032Z" fill="#25A592"/>
<path d="M22.1181 32.9497H19.1853V33.0968H22.1181V32.9497Z" fill="#25A592"/>
<path d="M22.1181 32.5084H19.1853V32.6555H22.1181V32.5084Z" fill="#25A592"/>
<path d="M21.9959 32.6555H19.2587V32.9497H21.9959V32.6555Z" fill="#64BFB2"/>
<path d="M22.4114 34.0284C22.9735 33.6607 22.4603 33.1213 22.2159 33.1213C21.9715 33.1213 20.6517 33.1213 20.6517 33.1213C20.6517 33.1213 19.332 33.1213 19.0876 33.1213C18.8432 33.1213 18.3299 33.6852 18.892 34.0284C19.2342 34.3717 19.503 34.6658 19.1853 35.0581C19.0387 35.1317 19.0387 35.2052 19.0387 35.2052L18.8676 35.3278H20.6761H22.4847L22.3136 35.2052C22.3136 35.2052 22.3136 35.1317 22.167 35.0581C21.8004 34.6658 22.0448 34.3717 22.4114 34.0284Z" fill="#25A592"/>
<path d="M22.2891 32.3613C22.2891 32.2878 22.2158 32.2142 22.1425 32.2142H19.1364C19.0631 32.2142 18.9897 32.2878 18.9897 32.3613C18.9897 32.4349 19.0631 32.5084 19.1364 32.5084H22.1181C22.2158 32.5084 22.2891 32.4349 22.2891 32.3613Z" fill="#64BFB2"/>
<path d="M21.8004 20.5936H19.4786V32.2143H21.8004V20.5936Z" fill="#B3DFD9"/>
<path d="M21.4582 20.9122H19.8452V31.8955H21.4582V20.9122Z" fill="#25A592"/>
<path d="M21.2383 21.2065H20.0652V31.6259H21.2383V21.2065Z" fill="#64BFB2"/>
<path d="M21.6782 20.4711H19.6252V20.5936H21.6782V20.4711Z" fill="#25A592"/>
<path d="M21.6782 20.0787H19.6252V20.2013H21.6782V20.0787Z" fill="#25A592"/>
<path d="M21.6782 20.2014H19.6252V20.4711H21.6782V20.2014Z" fill="#5ABBAC"/>
<path d="M22.0204 19.8091H19.2587L19.6253 20.0788H21.6782L22.0204 19.8091Z" fill="#5ABBAC"/>
<path d="M22.0204 16.5729H19.2587V19.809H22.0204V16.5729Z" fill="#B3DFD9"/>
<path d="M21.5805 17.1122H19.723V19.2941H21.5805V17.1122Z" fill="#25A592"/>
<path d="M21.4093 17.2838H19.8696V19.0735H21.4093V17.2838Z" fill="#25A592"/>
<path d="M21.727 16.1071H19.5763V16.5729H21.727V16.1071Z" fill="#25A592"/>
<path d="M21.8004 15.9109H19.4786V16.1071H21.8004V15.9109Z" fill="#5ABBAC"/>
<path d="M21.9959 15.7393H19.2831V15.9355H21.9959V15.7393Z" fill="#25A592"/>
<path d="M22.1181 15.5432H19.1609V15.7393H22.1181V15.5432Z" fill="#B3DFD9"/>
<path d="M22.1181 15.2736H19.1609V15.5432H22.1181V15.2736Z" fill="#5ABBAC"/>
<path d="M22.1181 14.5871C21.947 14.6852 21.8982 14.8568 21.8248 14.8078C21.7515 14.7342 22.2159 14.3665 22.0204 14.0478C21.8248 13.7045 21.3605 13.6555 20.6517 13.6555C19.943 13.6555 19.4786 13.7045 19.2831 14.0478C19.0876 14.391 19.5519 14.7587 19.4786 14.8078C19.4053 14.8813 19.3564 14.7097 19.1853 14.5871C18.9165 14.6607 18.9409 14.7833 19.0387 15.0529C18.8921 15.2491 19.112 15.2981 19.112 15.2981H20.6517H22.1914C22.1914 15.2981 22.4114 15.2736 22.2648 15.0529C22.3625 14.7833 22.387 14.6607 22.1181 14.5871Z" fill="#B3DFD9"/>
<path d="M53.5967 12.1356C53.4256 11.7924 53.7189 11.8414 53.5234 11.7433C53.3279 11.6453 53.5967 11.4491 53.4256 11.3756C53.2546 11.302 53.5234 11.0078 53.4012 10.8608C53.2546 10.7382 53.5967 10.4685 53.5967 10.4685C53.5967 10.4685 53.6212 10.3704 53.5478 10.2478C53.6212 9.88011 53.499 10.0027 53.3768 10.1988C53.2546 10.3949 53.3768 9.97817 53.279 9.78204C53.2057 10.0027 53.0346 10.0762 53.0102 10.2478C52.9857 10.4195 52.8391 10.444 52.7902 10.5175C52.7413 10.5911 52.3747 10.542 52.3747 10.542C52.3747 10.542 52.0081 10.5911 51.9592 10.5175C51.9104 10.444 51.7637 10.4195 51.7393 10.2478C51.7148 10.0762 51.5438 10.0027 51.4704 9.78204C51.3727 9.97817 51.5193 10.3704 51.3727 10.1988C51.2505 10.0027 51.1283 9.88011 51.2016 10.2478C51.1038 10.3704 51.1527 10.4685 51.1527 10.4685C51.1527 10.4685 51.4949 10.7137 51.3482 10.8608C51.2016 10.9833 51.4949 11.302 51.3238 11.3756C51.1527 11.4491 51.4216 11.6453 51.226 11.7433C51.0305 11.8414 51.3238 11.7924 51.1527 12.1356C51.3971 12.4298 51.666 12.5769 51.4949 12.6995C51.7637 12.6995 52.3747 12.6995 52.3747 12.6995C52.3747 12.6995 52.9613 12.6995 53.2546 12.6995C53.0835 12.5524 53.3523 12.4298 53.5967 12.1356Z" fill="#25A592"/>
<path d="M53.1079 13.2878H51.5927V13.8762H53.1079V13.2878Z" fill="#5ABBAC"/>
<path d="M53.2545 12.9935H51.4949V13.2877H53.2545V12.9935Z" fill="#B3DFD9"/>
<path d="M53.3768 12.6749H51.3483L51.4949 12.9936H53.2546L53.3768 12.6749Z" fill="#5ABBAC"/>
<path d="M54.2321 35.4749H50.4684V37.2891H54.2321V35.4749Z" fill="#64BFB2"/>
<path d="M54.1588 35.3032H50.5662V35.4503H54.1588V35.3032Z" fill="#25A592"/>
<path d="M53.8167 32.9497H50.8839V33.0968H53.8167V32.9497Z" fill="#25A592"/>
<path d="M53.8167 32.5084H50.8839V32.6555H53.8167V32.5084Z" fill="#25A592"/>
<path d="M53.719 32.6555H50.9817V32.9497H53.719V32.6555Z" fill="#64BFB2"/>
<path d="M54.1344 34.0284C54.6965 33.6607 54.1833 33.1213 53.9389 33.1213C53.6945 33.1213 52.3747 33.1213 52.3747 33.1213C52.3747 33.1213 51.055 33.1213 50.8106 33.1213C50.5662 33.1213 50.0529 33.6852 50.6151 34.0284C50.9572 34.3717 51.2261 34.6659 50.9083 35.0581C50.7617 35.1317 50.7617 35.2052 50.7617 35.2052L50.5906 35.3278H52.3992H54.2077L54.0367 35.2052C54.0367 35.2052 54.0367 35.1317 53.89 35.0581C53.5234 34.6659 53.7678 34.3717 54.1344 34.0284Z" fill="#25A592"/>
<path d="M54.0123 32.3613C54.0123 32.2878 53.9389 32.2142 53.8656 32.2142H50.8839C50.8106 32.2142 50.7373 32.2878 50.7373 32.3613C50.7373 32.4349 50.8106 32.5084 50.8839 32.5084H53.8656C53.9389 32.5084 54.0123 32.4349 54.0123 32.3613Z" fill="#64BFB2"/>
<path d="M53.5235 20.5936H51.2017V32.2143H53.5235V20.5936Z" fill="#B3DFD9"/>
<path d="M53.1813 20.9122H51.5682V31.8955H53.1813V20.9122Z" fill="#25A592"/>
<path d="M52.9613 21.2065H51.7882V31.6259H52.9613V21.2065Z" fill="#64BFB2"/>
<path d="M53.4012 20.4711H51.3483V20.5937H53.4012V20.4711Z" fill="#25A592"/>
<path d="M53.4012 20.0787H51.3483V20.2013H53.4012V20.0787Z" fill="#25A592"/>
<path d="M53.4012 20.2014H51.3483V20.4711H53.4012V20.2014Z" fill="#5ABBAC"/>
<path d="M53.7434 19.8091H50.9817L51.3483 20.0788H53.4012L53.7434 19.8091Z" fill="#5ABBAC"/>
<path d="M53.7434 16.5729H50.9817V19.809H53.7434V16.5729Z" fill="#B3DFD9"/>
<path d="M53.3035 17.1122H51.446V19.2941H53.3035V17.1122Z" fill="#25A592"/>
<path d="M53.1324 17.2838H51.5927V19.0735H53.1324V17.2838Z" fill="#25A592"/>
<path d="M53.45 16.1071H51.2993V16.5729H53.45V16.1071Z" fill="#25A592"/>
<path d="M53.5235 15.9109H51.2017V16.1071H53.5235V15.9109Z" fill="#5ABBAC"/>
<path d="M53.7189 15.7393H51.0061V15.9355H53.7189V15.7393Z" fill="#25A592"/>
<path d="M53.8411 15.5432H50.8839V15.7393H53.8411V15.5432Z" fill="#B3DFD9"/>
<path d="M53.8411 15.2736H50.8839V15.5432H53.8411V15.2736Z" fill="#5ABBAC"/>
<path d="M53.8412 14.5871C53.6701 14.6852 53.6212 14.8568 53.5479 14.8078C53.4746 14.7342 53.9389 14.3665 53.7434 14.0478C53.5479 13.7045 53.0835 13.6555 52.3748 13.6555C51.666 13.6555 51.2016 13.7045 51.0061 14.0478C50.8106 14.391 51.275 14.7587 51.2016 14.8078C51.1283 14.8813 51.0794 14.7097 50.9084 14.5871C50.6395 14.6607 50.664 14.7833 50.7617 15.0529C50.6151 15.2491 50.835 15.2981 50.835 15.2981H52.3748H53.9145C53.9145 15.2981 54.1344 15.2736 53.9878 15.0529C54.0856 14.7833 54.11 14.6607 53.8412 14.5871Z" fill="#B3DFD9"/>
<path d="M50.4928 36.0878H22.5336V37.2891H50.4928V36.0878Z" fill="#25A592"/>
<path d="M50.4928 36.0878H22.5336V36.3084H50.4928V36.0878Z" fill="#B3DFD9"/>
<path d="M30.2077 17.1123H28.9857V20.3484H30.2077V17.1123Z" fill="#5ABBAC"/>
<path d="M29.9633 17.4309H29.2057V20.0051H29.9633V17.4309Z" fill="#25A592"/>
<path d="M44.0163 17.1123H42.7943V20.3484H44.0163V17.1123Z" fill="#5ABBAC"/>
<path d="M43.7963 17.4309H43.0387V20.0051H43.7963V17.4309Z" fill="#25A592"/>
<path d="M42.7943 19.9563H30.2078V20.1524H42.7943V19.9563Z" fill="#B3DFD9"/>
<path d="M42.7943 20.1523H30.2078V20.3485H42.7943V20.1523Z" fill="#5ABBAC"/>
<path d="M42.7943 17.5046H30.2078V17.7008H42.7943V17.5046Z" fill="#25A592"/>
<path d="M42.7943 17.7008H30.2078V17.8969H42.7943V17.7008Z" fill="#B3DFD9"/>
<path d="M42.7943 17.9214H30.2078V18.1175H42.7943V17.9214Z" fill="#5ABBAC"/>
<path d="M42.7943 18.1176H30.2078V18.3137H42.7943V18.1176Z" fill="#5ABBAC"/>
<path d="M31.8696 18.5834H30.4766V19.6131H31.8696V18.5834Z" fill="#25A592"/>
<path d="M42.5254 18.5834H41.1323V19.6131H42.5254V18.5834Z" fill="#25A592"/>
<path d="M40.6435 18.5834H32.3584V19.6131H40.6435V18.5834Z" fill="#25A592"/>
<path d="M47.3156 8.43359C43.7474 9.09553 40.1058 9.19359 36.5131 9.19359C32.896 9.19359 29.2789 9.07101 25.7107 8.43359C25.7107 8.8994 25.7107 9.34069 25.7107 9.8065C32.9205 9.8065 40.1302 9.8065 47.34 9.8065C47.3156 9.34069 47.3156 8.8994 47.3156 8.43359Z" fill="#25A592"/>
<path d="M47.3156 8.67877C40.1547 9.75748 32.8472 9.75748 25.6863 8.67877C25.6863 8.70329 25.6863 8.7278 25.6863 8.75232C32.8472 9.782 40.1547 9.782 47.3156 8.75232C47.3156 8.70329 47.3156 8.67877 47.3156 8.67877Z" fill="#B3DFD9"/>
<path d="M72 37.2645H0V38H72V37.2645Z" fill="#5ABBAC"/>
</svg>
