<svg width="70" height="39" viewBox="0 0 70 39" fill="none" xmlns="http://www.w3.org/2000/svg">
<path d="M54.1127 5.10669H42.2176V5.6357H54.1127V5.10669Z" fill="#34AB99"/>
<path d="M52.8391 5.63574H43.4935V8.5687H52.8391V5.63574Z" fill="#27A693"/>
<path d="M54.1126 3.69604V5.10674H53.8155V4.05418H52.6965V5.10674H52.6098V3.69604H54.1126Z" fill="#C7E8E3"/>
<path d="M41.1292 5.10669H40.7683V5.55143V5.6357H52.6642V5.55143V5.10669H52.3017H41.1292Z" fill="#46B2A2"/>
<path d="M51.3891 5.63574H42.0434V8.5687H51.3891V5.63574Z" fill="#52B8A9"/>
<path d="M40.7683 3.69604V5.10674H41.1292V4.05418H52.3017V5.10674H52.6642V3.69604H40.7683Z" fill="#9EEADF"/>
<path d="M62.4969 6.60791H31.0412V7.17047H62.4969V6.60791Z" fill="#46B2A2"/>
<path d="M61.5252 7.17053H48.6317V38.0926H61.5252V7.17053Z" fill="#48B3A4"/>
<path d="M55.9433 7.17053H34.0579V38.0926H55.9433V7.17053Z" fill="#69C1B4"/>
<path d="M35.5442 0.5625H8.23688V35.8774H35.5442V0.5625Z" fill="#ECFBF9"/>
<path d="M8.23691 0.5625H8.00049V35.8774H8.23691V0.5625Z" fill="#C7E8E3"/>
<path d="M38.0866 0.5625H35.3409V35.8774H38.0866V0.5625Z" fill="#C6F3EC"/>
<path d="M51.7476 38.1252H14.1426H14.1403H8.23688V22.4368H31.9766V32.9257L51.7476 32.9264V38.1252Z" fill="#52B8A9"/>
<path d="M30.4186 29.7828H20.2534V35.5489H30.4186V29.7828Z" fill="#019680"/>
<path d="M30.4186 28.17H20.2534V30.1355H30.4186V28.17Z" fill="#019680"/>
<path d="M16.5124 30.1347V27.7534H16.5108V35.9663H16.5124V32.2773V30.1347Z" fill="#A4D9D1"/>
<path d="M16.9182 30.5514V35.5489H17.1215H19.8467V30.5514H17.1215H16.9182Z" fill="#019680"/>
<path d="M17.1215 28.17H16.9182V30.7815H19.8467V28.17H17.1215Z" fill="#019680"/>
<path d="M30.4186 29.9576V35.5489H20.2534V35.9663H30.8261V29.9576H30.4186Z" fill="#99D5CC"/>
<path d="M13.7857 29.9186H13.5831V35.5489H13.7857V29.9186Z" fill="#70E0D0"/>
<path d="M13.1772 30.1347V27.7534H13.1749V35.9663H13.1772V30.5514V30.1347Z" fill="#A4D9D1"/>
<path d="M13.7872 28.1708H13.5831V30.1347H13.7872V28.1708Z" fill="#70E0D0"/>
<path d="M16.5123 29.9865V35.5489H13.7849L13.7872 29.9576L16.5123 29.9865Z" fill="#019680"/>
<path d="M16.5123 28.1708H13.7872V30.1347H16.5123V28.1708Z" fill="#019680"/>
<path d="M16.5123 27.7534H13.7872H13.1772V30.1347V30.5514V35.9663H13.7872H16.5123H16.9182V35.5489V30.5514V30.1347V28.1708V27.7534H16.5123ZM16.5123 35.5489H13.7872H13.5831V32.2765H16.5131V35.5489H16.5123ZM16.5123 31.8599H13.5823V28.1708H13.7864H16.5116V31.8599H16.5123Z" fill="#99D5CC"/>
<path d="M19.8466 27.7533H17.1215H16.5123V31.8598V32.2772V35.9663H17.1215H19.8466H20.2533V35.5488V30.5513V30.1347V28.1692V27.7526H19.8466V27.7533ZM19.8466 35.5488H17.1215H16.9182V32.2765H19.8466V35.5488ZM19.8466 31.8598H16.9182V28.17H17.1215H19.8466V31.8598Z" fill="#99D5CC"/>
<path d="M23.8722 27.7534H23.4647V35.9663H23.8722V27.7534Z" fill="#99D5CC"/>
<path d="M27.4901 27.7534H27.0866V35.9663H27.4901V27.7534Z" fill="#99D5CC"/>
<path d="M30.4186 31.8599H20.2534V32.2773H30.4186V31.8599Z" fill="#99D5CC"/>
<path d="M30.4186 28.1701V30.1347H30.8261V27.7534H20.2534V28.1701H30.4186Z" fill="#99D5CC"/>
<path d="M30.826 35.9164H13.1718V36.1349H30.826V35.9164Z" fill="#EFFCFA"/>
<path d="M30.826 36.1356H13.1718V36.7216H30.826V36.1356Z" fill="#A9ECE3"/>
<path d="M30.826 36.6185H13.1718V36.8378H30.826V36.6185Z" fill="#EFFCFA"/>
<path d="M30.826 36.8378H13.1718V37.4261H30.826V36.8378Z" fill="#A9ECE3"/>
<path d="M30.826 37.3169H13.1718V37.5369H30.826V37.3169Z" fill="#EFFCFA"/>
<path d="M30.826 37.5369H13.1718V38.1252H30.826V37.5369Z" fill="#A9ECE3"/>
<path d="M54.1812 34.5542H51.7477V38.1254H54.1812V34.5542Z" fill="#049781"/>
<path d="M54.1812 35.0293H51.7477V38.1245H54.1812V35.0293Z" fill="#27A693"/>
<path d="M52.5105 22.4368H51.0888V25.3268H52.5105V22.4368Z" fill="#049781"/>
<path d="M51.3465 22.4368H8.29285V25.3268H51.3465V22.4368Z" fill="#52B8A9"/>
<path d="M35.3134 9.16406H12.632V12.2874H35.3134V9.16406Z" fill="#019680"/>
<path d="M35.0935 9.20698V12.2445H12.8511V9.20698H35.0935ZM35.3134 9.16406H12.632V12.2874H35.3134V9.16406Z" fill="#99D5CC"/>
<path d="M16.6141 9.16406H16.395V12.2874H16.6141V9.16406Z" fill="#99D5CC"/>
<path d="M20.3535 9.16406H20.1344V12.2874H20.3535V9.16406Z" fill="#99D5CC"/>
<path d="M23.7689 9.16406H23.5499V12.2874H23.7689V9.16406Z" fill="#99D5CC"/>
<path d="M27.3894 9.16406H27.1703V12.2874H27.3894V9.16406Z" fill="#99D5CC"/>
<path d="M31.403 9.16406H31.1839V12.2874H31.403V9.16406Z" fill="#99D5CC"/>
<path d="M35.3134 15.1306H12.632V18.254H35.3134V15.1306Z" fill="#019680"/>
<path d="M35.0935 15.1735V18.211H12.8511V15.1735H35.0935ZM35.3134 15.1306H12.632V18.254H35.3134V15.1306Z" fill="#99D5CC"/>
<path d="M16.6141 15.1306H16.395V18.254H16.6141V15.1306Z" fill="#99D5CC"/>
<path d="M20.3535 15.1306H20.1344V18.254H20.3535V15.1306Z" fill="#99D5CC"/>
<path d="M23.7689 15.1306H23.5499V18.254H23.7689V15.1306Z" fill="#99D5CC"/>
<path d="M27.3894 15.1306H27.1703V18.254H27.3894V15.1306Z" fill="#99D5CC"/>
<path d="M31.403 15.1306H31.1839V18.254H31.403V15.1306Z" fill="#99D5CC"/>
<path d="M42.6376 10.329H40.6375V14.6898H42.6376V10.329Z" fill="#019680"/>
<path d="M40.6375 14.689V10.329H42.6376V10.2673H40.5145V14.7506H42.6376V14.689H40.6375Z" fill="#99D5CC"/>
<path d="M42.7613 10.329H42.6376V14.6898H42.7613V10.329Z" fill="#99D5CC"/>
<path d="M42.7613 10.2673H42.6376V10.329H42.7613V10.2673Z" fill="#99D5CC"/>
<path d="M42.7613 14.689H42.6376V14.7506H42.7613V14.689Z" fill="#99D5CC"/>
<path d="M47.0161 10.329H45.016V14.6898H47.0161V10.329Z" fill="#019680"/>
<path d="M45.016 14.689V10.329H47.0161V10.2673H44.8915V14.7506H47.0161V14.689H45.016Z" fill="#99D5CC"/>
<path d="M47.1391 10.329H47.0161V14.6898H47.1391V10.329Z" fill="#99D5CC"/>
<path d="M47.1391 10.2673H47.0161V10.329H47.1391V10.2673Z" fill="#99D5CC"/>
<path d="M47.1391 14.689H47.0161V14.7506H47.1391V14.689Z" fill="#99D5CC"/>
<path d="M51.6239 10.329H49.6238V14.6898H51.6239V10.329Z" fill="#019680"/>
<path d="M49.6238 14.689V10.329H51.6231V10.2673H49.5001V14.7506H51.6231V14.689H49.6238Z" fill="#99D5CC"/>
<path d="M51.7476 10.329H51.6231V14.6898H51.7476V10.329Z" fill="#99D5CC"/>
<path d="M51.7476 10.2673H51.6231V10.329H51.7476V10.2673Z" fill="#99D5CC"/>
<path d="M51.7476 14.689H51.6231V14.7506H51.7476V14.689Z" fill="#99D5CC"/>
<path d="M38.9589 0H7.50323V0.56256H38.9589V0Z" fill="#46B2A2"/>
<path d="M35.3211 0.5625H8.23688V5.18002H35.3211V0.5625Z" fill="#52B8A9"/>
<path d="M38.0857 0.5625H35.3212V5.18002H38.0857V0.5625Z" fill="#27A693"/>
<path d="M31.8088 24.8806H12.4799V26.9498H31.8088V24.8806Z" fill="#019680"/>
<path d="M54.1537 34.5541H49.8469H49.2038H32.4905H32.4857H31.5259V24.8806H54.1537V34.5541Z" fill="#019680"/>
<path d="M53.1874 34.5541H53.7123H53.7911H55.8251H55.9433V24.8806H53.1874V34.5541Z" fill="#27A693"/>
<path d="M55.9433 9.16406H38.0865V10.2673H55.9433V9.16406Z" fill="#ECFBF9"/>
<path d="M61.526 9.16406H55.9433V10.2673H61.526V9.16406Z" fill="#C6F3EC"/>
<path d="M70 38.1254H0V39H70V38.1254Z" fill="#5ABBAC"/>
</svg>
