<svg width="70" height="40" viewBox="0 0 70 40" fill="none" xmlns="http://www.w3.org/2000/svg">
<g clip-path="url(#clip0)">
<path d="M24.949 16.2524H23.9985V39.3074H24.949V16.2524Z" fill="#5ABBAC"/>
<path d="M23.9986 16.2524H23.5709V39.3074H23.9986V16.2524Z" fill="#5ABBAC"/>
<path d="M27.9667 16.2524H27.0162V39.3074H27.9667V16.2524Z" fill="#73C5B9"/>
<path d="M27.0162 16.2524H26.5885V39.3074H27.0162V16.2524Z" fill="#5ABBAC"/>
<path d="M24.949 16.2524H23.9985V39.3074H24.949V16.2524Z" fill="#62BEB0"/>
<path d="M23.9986 16.2524H23.5709V39.3074H23.9986V16.2524Z" fill="#5ABBAC"/>
<path d="M27.9667 16.2524H27.0162V39.3074H27.9667V16.2524Z" fill="#73C5B9"/>
<path d="M27.0162 16.2524H26.5885V39.3074H27.0162V16.2524Z" fill="#5ABBAC"/>
<path d="M34.3584 16.2524H33.408V39.3074H34.3584V16.2524Z" fill="#62BEB0"/>
<path d="M33.4079 16.2524H32.9802V39.3074H33.4079V16.2524Z" fill="#5ABBAC"/>
<path d="M37.376 16.2524H36.4255V39.3074H37.376V16.2524Z" fill="#73C5B9"/>
<path d="M36.4256 16.2524H35.9979V39.3074H36.4256V16.2524Z" fill="#5ABBAC"/>
<path d="M35.9028 6.38214V17.0191H32.3624H23.5708V6.38214H35.9028Z" fill="#5CBCAE"/>
<path d="M22.3828 6.38219H32.5525V0H30.2715L22.3828 6.38219Z" fill="#25A592"/>
<path d="M25.8281 6.38219H39.2531L32.5525 0L25.8281 6.38219Z" fill="#5FBDAF"/>
<path d="M38.0651 6.38214V17.0191H34.8098H27.0162V6.38214H38.0651Z" fill="#9ED7CF"/>
<path d="M40.4888 12.6896C41.4155 11.7743 42.5561 11.4032 43.3164 11.6753C41.867 9.96847 39.7998 9.00372 37.59 9.00372H36.4019C35.5703 9.22636 34.905 10.4385 34.8575 11.9227C34.81 13.2338 35.2377 14.4706 35.8792 14.9654H35.903C37.1385 14.9654 38.2791 15.3612 39.3008 16.0291C38.9444 15.188 39.4434 13.7038 40.4888 12.6896Z" fill="#5ABBAC"/>
<path d="M34.905 11.8985C34.9525 10.4143 35.6178 9.20219 36.4494 8.97955H35.9505C35.9029 8.97955 32.7427 8.97955 32.6952 8.97955C31.721 8.97955 30.9369 10.3154 30.9369 11.9728C30.9369 13.6301 31.721 14.9659 32.6952 14.9659C32.7427 14.9659 35.8792 14.9659 35.9505 14.9659C35.2614 14.4712 34.8575 13.2343 34.905 11.8985Z" fill="#73C5B9"/>
<path d="M54.9118 19.5176C54.8643 19.5176 54.8167 19.5176 54.793 19.5176H53.106C53.0109 19.5176 52.9159 19.5176 52.8208 19.5176C52.1318 19.6907 51.1576 20.9771 51.1338 22.5108C51.1338 24.1682 51.9179 25.504 52.8921 25.504H54.793C54.8405 25.504 54.888 25.504 54.9118 25.504C55.886 25.504 56.6701 24.1682 56.6701 22.5108C56.6701 20.8534 55.886 19.5176 54.9118 19.5176Z" fill="#5ABBAC"/>
<path d="M51.1337 22.5108C51.1337 20.9771 52.1317 19.6908 52.8208 19.5176C51.5377 19.4681 50.3734 19.0724 49.3516 18.3797C48.4962 18.256 47.2844 19.0229 46.5716 20.3092C45.8825 21.5461 45.6924 22.8571 46.0964 23.5745C47.5696 24.8361 49.5655 25.5288 51.4664 25.5288H52.9158C51.9178 25.504 51.11 24.1682 51.1337 22.5108Z" fill="#73C5B9"/>
<path d="M46.5479 20.2844C47.2608 18.9981 48.4726 18.256 49.328 18.3549C48.5914 17.8602 47.9023 17.2417 47.332 16.4749L46.6192 15.6091C45.8589 15.337 44.7183 15.7328 43.7917 16.6233C42.9125 17.4891 42.4848 18.5528 42.6036 19.3444L45.1698 22.585C45.4312 22.9313 45.7401 23.2281 46.0489 23.525C45.6688 22.8323 45.8589 21.5213 46.5479 20.2844Z" fill="#5ABBAC"/>
<path d="M43.7916 16.648C44.7183 15.7328 45.8588 15.3617 46.6192 15.6338L43.554 11.948C43.4827 11.849 43.4114 11.7748 43.3164 11.6759C42.556 11.4038 41.4155 11.7748 40.4888 12.6901C39.4433 13.7043 38.9444 15.2133 39.3483 16.0296C40.2275 16.5986 41.0116 17.3654 41.6769 18.2312L42.6036 19.3691C42.4848 18.5775 42.9125 17.5138 43.7916 16.648Z" fill="#73C5B9"/>
<path d="M58.1195 28.1509H57.1691V39.1342H58.1195V28.1509Z" fill="#5ABBAC"/>
<path d="M57.1452 28.1509H56.7175V39.1342H57.1452V28.1509Z" fill="#5ABBAC"/>
<path d="M61.1133 28.1509H60.1628V39.1342H61.1133V28.1509Z" fill="#73C5B9"/>
<path d="M60.1629 28.1509H59.7352V39.1342H60.1629V28.1509Z" fill="#5ABBAC"/>
<path d="M44.9321 28.151H43.9817V39.1343H44.9321V28.151Z" fill="#5ABBAC"/>
<path d="M43.9816 28.151H43.554V39.1343H43.9816V28.151Z" fill="#5ABBAC"/>
<path d="M47.9497 28.151H46.9993V39.1343H47.9497V28.151Z" fill="#73C5B9"/>
<path d="M46.9756 28.151H46.5479V39.1343H46.9756V28.151Z" fill="#5ABBAC"/>
<path d="M58.9986 18.2808V28.9177H55.4582H43.554V18.2808H58.9986Z" fill="#5CBCAE"/>
<path d="M42.3422 18.2808H54.0801V11.8986H50.6348L42.3422 18.2808Z" fill="#25A592"/>
<path d="M45.7875 18.2808H62.3727L54.0801 11.8986L45.7875 18.2808Z" fill="#5FBDAF"/>
<path d="M61.1846 18.2808V28.9178H57.9294V23.4262C57.9294 21.2493 56.2186 19.4682 54.1276 19.4682H54.0563C51.9653 19.4682 50.2545 21.2493 50.2545 23.4262V28.8931H46.9993V18.2561H61.1846V18.2808Z" fill="#9ED7CF"/>
<path d="M65.2003 39.4559V35.77L58.4522 25.2567H57.8582L64.63 39.4559H65.2003Z" fill="#25A592"/>
<path d="M64.63 39.4559V35.77L57.8582 25.2567V28.9178L64.63 39.4559Z" fill="#2CA896"/>
<path d="M58.7135 26.8894H50.9199V30.2042H58.7135V26.8894Z" fill="#85CDC2"/>
<path d="M58.9274 26.8894H50.2308V27.2605H58.9274V26.8894Z" fill="#97D4CB"/>
<path d="M60.5906 29.8579H52.797V33.1727H60.5906V29.8579Z" fill="#85CDC2"/>
<path d="M60.8283 29.8579H52.1317V30.229H60.8283V29.8579Z" fill="#97D4CB"/>
<path d="M62.4915 32.8015H54.6979V36.1163H62.4915V32.8015Z" fill="#85CDC2"/>
<path d="M62.7291 32.8015H54.0326V33.1726H62.7291V32.8015Z" fill="#97D4CB"/>
<path d="M64.3924 35.77H56.5988V39.0848H64.3924V35.77Z" fill="#85CDC2"/>
<path d="M64.63 35.77H55.9335V36.1411H64.63V35.77Z" fill="#97D4CB"/>
<path d="M57.0027 39.4559V35.77L50.2545 25.2567H49.6605L56.4324 39.4559H57.0027Z" fill="#25A592"/>
<path d="M56.4324 39.4559V35.77L49.6605 25.2567V28.9178L56.4324 39.4559Z" fill="#2CA896"/>
<path d="M37.281 26.6915C36.3544 25.7762 35.2138 25.4051 34.4535 25.6772C35.9029 23.9704 37.9701 23.0056 40.1799 23.0056H41.3679C42.1996 23.2282 42.8649 24.4404 42.9124 25.9246C42.9599 27.2357 42.5322 28.4725 41.8907 28.9673H41.8669C40.6313 28.9673 39.4908 29.3631 38.4691 30.031C38.8255 29.2146 38.3265 27.7057 37.281 26.6915Z" fill="#5ABBAC"/>
<path d="M42.8648 25.9246C42.8173 24.4404 42.152 23.2282 41.3203 23.0056H41.8193C41.8668 23.0056 45.027 23.0056 45.0746 23.0056C46.0488 23.0056 46.8329 24.3414 46.8329 25.9988C46.8329 27.6562 46.0488 28.992 45.0746 28.992C45.027 28.992 41.8906 28.992 41.8193 28.992C42.5084 28.4725 42.9123 27.2357 42.8648 25.9246Z" fill="#73C5B9"/>
<path d="M22.858 33.5189C22.9056 33.5189 22.9531 33.5189 22.9769 33.5189H24.6639C24.7589 33.5189 24.854 33.5189 24.949 33.5189C25.6381 33.6921 26.6123 34.9784 26.6361 36.5121C26.6361 38.1695 25.8519 39.5053 24.8777 39.5053H22.9769C22.9293 39.5053 22.8818 39.5053 22.858 39.5053C21.8838 39.5053 21.0997 38.1695 21.0997 36.5121C21.0997 34.8547 21.8838 33.5189 22.858 33.5189Z" fill="#5ABBAC"/>
<path d="M26.6361 36.512C26.6361 34.9783 25.6381 33.692 24.949 33.5188C26.2321 33.4694 27.3964 33.0488 28.4182 32.3809C29.2736 32.2572 30.4854 33.0241 31.1982 34.3104C31.8873 35.5473 32.0774 36.8584 31.6734 37.5757C30.2002 38.8373 28.2043 39.53 26.3034 39.53H24.854C25.852 39.5052 26.6598 38.1694 26.6361 36.512Z" fill="#73C5B9"/>
<path d="M31.2219 34.2858C30.5091 32.9994 29.2973 32.2573 28.4419 32.3563C29.1785 31.8615 29.8676 31.2431 30.4378 30.4762L31.1507 29.6104C31.911 29.3383 33.0515 29.7341 33.9782 30.6247C34.8574 31.4905 35.2851 32.5542 35.1663 33.3457L32.6001 36.611C32.3387 36.9574 32.0298 37.2542 31.7209 37.5511C32.1011 36.8337 31.911 35.5226 31.2219 34.2858Z" fill="#5ABBAC"/>
<path d="M33.9782 30.6494C33.0515 29.7342 31.911 29.3631 31.1506 29.6352L34.2158 25.9494C34.2871 25.8504 34.3584 25.7762 34.4534 25.6773C35.2138 25.4052 36.3543 25.7762 37.281 26.6915C38.3265 27.7057 38.8255 29.2147 38.4215 30.031C37.5424 30.6 36.7582 31.3668 36.0929 32.2326L35.1663 33.3705C35.2851 32.5789 34.8574 31.5152 33.9782 30.6494Z" fill="#73C5B9"/>
<path d="M21.2899 28.8187V39.4557H18.9138H8.17383V28.8187H21.2899Z" fill="#5CBCAE"/>
<path d="M6.98572 28.8188H17.5356V22.4613H14.0903L6.98572 28.8188Z" fill="#25A592"/>
<path d="M10.431 28.8188H24.6639L17.5356 22.4613L10.431 28.8188Z" fill="#5FBDAF"/>
<path d="M23.4521 28.8187H11.6191V39.4557H23.4521V28.8187Z" fill="#9ED7CF"/>
<path d="M13.8765 34.1373C13.8765 36.0915 15.3972 37.6747 17.2743 37.6747C19.1514 37.6747 20.6721 36.0915 20.6721 34.1373C20.6721 32.183 19.1514 30.5999 17.2743 30.5999C15.3972 30.5999 13.8765 32.183 13.8765 34.1373Z" fill="#5ABBAC"/>
<path d="M70 39.2579H0V40H70V39.2579Z" fill="#5ABBAC"/>
</g>
<defs>
<clipPath id="clip0">
<rect width="70" height="40" fill="white"/>
</clipPath>
</defs>
</svg>
