<svg width="59" height="37" viewBox="0 0 59 37" fill="none" xmlns="http://www.w3.org/2000/svg">
<path d="M26.1756 6.38138H12.9777V3.1001H26.1756V6.38138ZM13.1779 6.20021H25.9953V3.3014H13.1779V6.20021Z" fill="#25A592"/>
<path d="M26.1756 7.10612H12.9777V3.84497H26.1756V7.10612ZM13.1779 6.92495H25.9953V4.02615H13.1779V6.92495Z" fill="#25A592"/>
<path d="M26.1756 7.10611H12.9777V2.47607H26.1756V7.10611ZM13.1779 6.92493H25.9953V2.65725H13.1779V6.92493Z" fill="#25A592"/>
<path d="M54.1134 7.97166H5.40735L8.53158 5.71704H50.7288L54.1134 7.97166Z" fill="#4BB4A5"/>
<path d="M54.1134 7.97166H46.9036L43.5391 5.71704H50.7288L54.1134 7.97166Z" fill="#3BAE9D"/>
<path d="M12.9176 2.97938H11.0751V5.05283H10.0938V0.100708H11.0751V2.11377H12.9176V0.100708H13.8989V5.05283H12.9176V2.97938Z" fill="#62BEB0"/>
<path d="M14.9803 2.57671C14.9803 1.75136 15.1606 1.12731 15.5411 0.664309C15.9016 0.221436 16.4423 0 17.1232 0C17.4837 0 17.8042 0.0603917 18.0645 0.181175C18.3249 0.301959 18.5652 0.483134 18.7454 0.70457C18.9257 0.926006 19.0459 1.20783 19.146 1.50979C19.2261 1.83188 19.2662 2.1741 19.2662 2.55658C19.2662 3.38194 19.0859 4.02612 18.7054 4.46899C18.3249 4.91186 17.8042 5.1333 17.1232 5.1333C16.7628 5.1333 16.4423 5.07291 16.1619 4.95212C15.9016 4.83134 15.6613 4.65016 15.5011 4.42873C15.3208 4.20729 15.2006 3.92546 15.1005 3.6235C15.0204 3.30141 14.9803 2.95919 14.9803 2.57671ZM16.0218 2.57671C16.0218 2.81828 16.0418 3.05985 16.0818 3.26115C16.1219 3.46246 16.182 3.64363 16.2821 3.80468C16.3622 3.94559 16.4824 4.06638 16.6226 4.16703C16.7628 4.24755 16.923 4.28781 17.1232 4.28781C17.4837 4.28781 17.7441 4.1469 17.9444 3.8852C18.1446 3.6235 18.2247 3.18063 18.2247 2.57671C18.2247 2.33515 18.2047 2.11371 18.1647 1.9124C18.1246 1.7111 18.0645 1.52992 17.9644 1.36888C17.8843 1.20783 17.7641 1.08705 17.6239 1.00653C17.4837 0.926006 17.3035 0.885745 17.1032 0.885745C16.7427 0.885745 16.4824 1.02666 16.2821 1.30849C16.1219 1.55005 16.0218 1.99293 16.0218 2.57671Z" fill="#62BEB0"/>
<path d="M23.6521 0.966323H22.1701V5.05283H21.1888V0.966323H19.7068V0.100708H23.6521V0.966323Z" fill="#62BEB0"/>
<path d="M24.5333 0.100708H27.5374V0.966323H25.5347V2.11377H27.3571V2.97938H25.5347V4.18722H27.5774V5.05283H24.5333V0.100708Z" fill="#62BEB0"/>
<path d="M31.8633 5.05283H28.6589V0.100708H29.6403V4.18722H31.8433V5.05283H31.8633Z" fill="#62BEB0"/>
<path d="M37.0503 3.7644H34.0663V5.69694H37.0503V3.7644Z" fill="#9ED7CF"/>
<path d="M42.0771 3.7644H39.093V5.69694H42.0771V3.7644Z" fill="#BFE5DF"/>
<path d="M42.9782 3.7644H42.077V5.69694H42.9782V3.7644Z" fill="#9ED7CF"/>
<path d="M36.1491 3.7644H33.165V5.69694H36.1491V3.7644Z" fill="#BFE5DF"/>
<path d="M43.1386 3.46252H38.9329V3.76448H43.1386V3.46252Z" fill="#3BAE9D"/>
<path d="M37.2105 3.46252H33.0048V3.76448H37.2105V3.46252Z" fill="#3BAE9D"/>
<path d="M46.7634 7.97168H6.32861V8.13272H46.7634V7.97168Z" fill="#0E9B86"/>
<path d="M52.9318 9.36072H43.9196V31.4238H52.9318V9.36072Z" fill="#C7E8E3"/>
<path d="M52.9318 29.3102H43.0785V36.1143H52.9318V29.3102Z" fill="#9ED7CF"/>
<path d="M52.9318 35.5305H43.0785V36.5169H52.9318V35.5305Z" fill="#019680"/>
<path d="M46.7835 9.36072H6.34863V31.4238H46.7835V9.36072Z" fill="#A8DBD3"/>
<path d="M46.7835 29.3102H6.34863V35.5305H46.7835V29.3102Z" fill="#C2E6E1"/>
<path d="M46.7835 35.5305H6.34863V36.5169H46.7835V35.5305Z" fill="#0E9B86"/>
<path d="M46.2628 33.92H43.9998V35.1279H46.2628V33.92Z" fill="#D4EDE9"/>
<path d="M43.7194 33.9603H41.4563V35.1682H43.7194V33.9603Z" fill="#D4EDE9"/>
<path d="M41.1959 33.9603H38.9329V35.1682H41.1959V33.9603Z" fill="#D4EDE9"/>
<path d="M38.6725 33.9402H36.3894V35.148H38.6725V33.9402Z" fill="#D4EDE9"/>
<path d="M36.129 33.9805H33.8459V35.1883H36.129V33.9805Z" fill="#D4EDE9"/>
<path d="M33.6056 33.9805H31.3225V35.1883H33.6056V33.9805Z" fill="#D4EDE9"/>
<path d="M45.0211 32.531H42.738V33.7388H45.0211V32.531Z" fill="#D4EDE9"/>
<path d="M42.4376 32.5511H40.1746V33.759H42.4376V32.5511Z" fill="#D4EDE9"/>
<path d="M39.9342 32.5513H37.6711V33.7591H39.9342V32.5513Z" fill="#D4EDE9"/>
<path d="M37.3908 32.5511H35.1077V33.759H37.3908V32.5511Z" fill="#D4EDE9"/>
<path d="M34.8473 32.5713H32.5642V33.7791H34.8473V32.5713Z" fill="#D4EDE9"/>
<path d="M32.3239 32.5713H30.0408V33.7791H32.3239V32.5713Z" fill="#D4EDE9"/>
<path d="M45.0011 29.6725H42.738V30.8803H45.0011V29.6725Z" fill="#D4EDE9"/>
<path d="M42.4376 29.7126H40.1746V30.9205H42.4376V29.7126Z" fill="#D4EDE9"/>
<path d="M39.9342 29.7126H37.6711V30.9205H39.9342V29.7126Z" fill="#D4EDE9"/>
<path d="M37.3908 29.6926H35.1077V30.9005H37.3908V29.6926Z" fill="#D4EDE9"/>
<path d="M34.8473 29.7329H32.5642V30.9407H34.8473V29.7329Z" fill="#D4EDE9"/>
<path d="M32.3239 29.7329H30.0408V30.9407H32.3239V29.7329Z" fill="#D4EDE9"/>
<path d="M46.2628 31.1017H43.9998V32.3095H46.2628V31.1017Z" fill="#D4EDE9"/>
<path d="M43.7194 31.142H41.4563V32.3498H43.7194V31.142Z" fill="#D4EDE9"/>
<path d="M41.1959 31.142H38.9329V32.3498H41.1959V31.142Z" fill="#D4EDE9"/>
<path d="M38.6725 31.1218H36.3894V32.3297H38.6725V31.1218Z" fill="#D4EDE9"/>
<path d="M36.109 31.1621H33.8459V32.3699H36.109V31.1621Z" fill="#D4EDE9"/>
<path d="M33.6056 31.1621H31.3225V32.3699H33.6056V31.1621Z" fill="#D4EDE9"/>
<path d="M20.5078 34.061H18.2247V35.2689H20.5078V34.061Z" fill="#D4EDE9"/>
<path d="M17.9644 34.061H15.7013V35.2689H17.9644V34.061Z" fill="#D4EDE9"/>
<path d="M15.4209 34.061H13.1578V35.2689H15.4209V34.061Z" fill="#D4EDE9"/>
<path d="M12.8975 34.0812H10.6144V35.289H12.8975V34.0812Z" fill="#D4EDE9"/>
<path d="M10.374 34.0813H8.09094V35.2891H10.374V34.0813Z" fill="#D4EDE9"/>
<path d="M21.7896 32.6317H19.5065V33.8395H21.7896V32.6317Z" fill="#D4EDE9"/>
<path d="M19.2061 32.672H16.943V33.8798H19.2061V32.672Z" fill="#D4EDE9"/>
<path d="M16.7227 32.672H14.4396V33.8798H16.7227V32.672Z" fill="#D4EDE9"/>
<path d="M14.1592 32.6519H11.8761V33.8597H14.1592V32.6519Z" fill="#D4EDE9"/>
<path d="M11.5957 32.6921H9.33264V33.9H11.5957V32.6921Z" fill="#D4EDE9"/>
<path d="M9.0923 32.6921H6.8092V33.9H9.0923V32.6921Z" fill="#D4EDE9"/>
<path d="M21.7695 29.7932H19.5065V31.001H21.7695V29.7932Z" fill="#D4EDE9"/>
<path d="M24.313 29.7932H22.0299V31.001H24.313V29.7932Z" fill="#D4EDE9"/>
<path d="M19.2061 29.8335H16.943V31.0413H19.2061V29.8335Z" fill="#D4EDE9"/>
<path d="M16.7227 29.8335H14.4396V31.0413H16.7227V29.8335Z" fill="#D4EDE9"/>
<path d="M14.1592 29.8134H11.8761V31.0212H14.1592V29.8134Z" fill="#D4EDE9"/>
<path d="M11.6157 29.8335H9.33264V31.0413H11.6157V29.8335Z" fill="#D4EDE9"/>
<path d="M9.09229 29.8335H6.82922V31.0413H9.09229V29.8335Z" fill="#D4EDE9"/>
<path d="M23.0513 31.2024H20.7682V32.4102H23.0513V31.2024Z" fill="#D4EDE9"/>
<path d="M20.5078 31.2427H18.2247V32.4505H20.5078V31.2427Z" fill="#D4EDE9"/>
<path d="M17.9644 31.2427H15.7013V32.4505H17.9644V31.2427Z" fill="#D4EDE9"/>
<path d="M15.4209 31.2225H13.1578V32.4304H15.4209V31.2225Z" fill="#D4EDE9"/>
<path d="M12.8975 31.2628H10.6144V32.4707H12.8975V31.2628Z" fill="#D4EDE9"/>
<path d="M10.374 31.2628H8.09094V32.4707H10.374V31.2628Z" fill="#D4EDE9"/>
<path d="M53.1121 34.1213H50.829V35.3292H53.1121V34.1213Z" fill="#AEDDD6"/>
<path d="M50.5686 34.1213H48.3055V35.3292H50.5686V34.1213Z" fill="#AEDDD6"/>
<path d="M51.8303 32.7122H49.5472V33.92H51.8303V32.7122Z" fill="#AEDDD6"/>
<path d="M49.3269 32.7122H47.0438V33.92H49.3269V32.7122Z" fill="#AEDDD6"/>
<path d="M51.8103 29.8738H49.5472V31.0816H51.8103V29.8738Z" fill="#AEDDD6"/>
<path d="M49.3269 29.8738H47.0438V31.0816H49.3269V29.8738Z" fill="#AEDDD6"/>
<path d="M53.1121 31.3031H50.829V32.5109H53.1121V31.3031Z" fill="#AEDDD6"/>
<path d="M50.5686 31.3031H48.3055V32.5109H50.5686V31.3031Z" fill="#AEDDD6"/>
<path d="M46.7634 8.29382H6.32861V9.34061H46.7634V8.29382Z" fill="#C2E6E1"/>
<path d="M46.7634 8.93799H6.32861V9.3406H46.7634V8.93799Z" fill="#DBF0ED"/>
<path d="M46.7634 8.13269H6.32861V8.29373H46.7634V8.13269Z" fill="#DBF0ED"/>
<path d="M52.9518 7.97168H46.7634V8.13272H52.9518V7.97168Z" fill="#019680"/>
<path d="M52.9518 8.29382H46.7634V9.34061H52.9518V8.29382Z" fill="#9ED7CF"/>
<path d="M52.9518 8.93799H46.7634V9.3406H52.9518V8.93799Z" fill="#BFE5DF"/>
<path d="M52.9518 8.13269H46.7634V8.29373H52.9518V8.13269Z" fill="#BFE5DF"/>
<path d="M46.1025 9.34058H38.5122V29.3504H46.1025V9.34058Z" fill="#94D3CA"/>
<path d="M45.5017 9.34058H38.2719V29.3504H45.5017V9.34058Z" fill="#C7E8E3"/>
<path d="M44.4203 22.3248H41.8969V26.0691H44.4203V22.3248Z" fill="#25A592"/>
<path d="M41.6965 22.1235H44.6606V26.2704H41.6965V22.1235ZM44.3201 22.3248H42.017V26.0691H44.3201V22.3248Z" fill="#4BB4A5"/>
<path d="M44.4203 24.7205H41.8969V24.8614H44.4203V24.7205Z" fill="#4BB4A5"/>
<path d="M44.4203 23.5327H41.8969V23.6736H44.4203V23.5327Z" fill="#4BB4A5"/>
<path d="M43.2586 22.3248H43.0784V26.0691H43.2586V22.3248Z" fill="#4BB4A5"/>
<path d="M41.8768 22.3248H39.3534V26.0691H41.8768V22.3248Z" fill="#25A592"/>
<path d="M39.1531 22.1235H42.1171V26.2704H39.1531V22.1235ZM41.7766 22.3248H39.4935V26.0691H41.7766V22.3248Z" fill="#4BB4A5"/>
<path d="M41.8768 24.7205H39.3534V24.8614H41.8768V24.7205Z" fill="#4BB4A5"/>
<path d="M41.8768 23.5327H39.3534V23.6736H41.8768V23.5327Z" fill="#4BB4A5"/>
<path d="M40.7152 22.3248H40.5349V26.0691H40.7152V22.3248Z" fill="#4BB4A5"/>
<path d="M45.0211 26.2301H38.7926V26.5925H45.0211V26.2301Z" fill="#4BB4A5"/>
<path d="M42.9783 26.6126C42.9783 26.834 43.3588 27.0152 43.8194 27.0152C44.28 27.0152 44.6606 26.834 44.6606 26.6126C44.6606 26.3911 44.28 26.21 43.8194 26.21C43.3588 26.21 42.9783 26.3911 42.9783 26.6126Z" fill="#5ABBAC"/>
<path d="M41.316 26.6126C41.316 26.834 41.6966 27.0152 42.1572 27.0152C42.6178 27.0152 42.9983 26.834 42.9983 26.6126C42.9983 26.3911 42.6178 26.21 42.1572 26.21C41.6966 26.21 41.316 26.3911 41.316 26.6126Z" fill="#5ABBAC"/>
<path d="M39.6538 26.6126C39.6538 26.834 40.0343 27.0152 40.495 27.0152C40.9556 27.0152 41.3361 26.834 41.3361 26.6126C41.3361 26.3911 40.9556 26.21 40.495 26.21C40.0143 26.21 39.6538 26.3911 39.6538 26.6126Z" fill="#5ABBAC"/>
<path d="M43.7193 26.5925H39.2332V27.4179H43.7193V26.5925Z" fill="#4BB4A5"/>
<path d="M44.6406 26.5925H39.6538V27.4179H44.6406V26.5925Z" fill="#6CC2B5"/>
<path d="M44.4203 14.051H41.8969V17.7953H44.4203V14.051Z" fill="#25A592"/>
<path d="M41.6965 13.8497H44.6606V17.9966H41.6965V13.8497ZM44.3201 14.051H42.017V17.7953H44.3201V14.051Z" fill="#4BB4A5"/>
<path d="M44.4203 16.4467H41.8969V16.5876H44.4203V16.4467Z" fill="#4BB4A5"/>
<path d="M44.4203 15.2589H41.8969V15.3998H44.4203V15.2589Z" fill="#4BB4A5"/>
<path d="M43.2586 14.051H43.0784V17.7953H43.2586V14.051Z" fill="#4BB4A5"/>
<path d="M41.8768 14.051H39.3534V17.7953H41.8768V14.051Z" fill="#25A592"/>
<path d="M39.1531 13.8497H42.1171V17.9966H39.1531V13.8497ZM41.7766 14.051H39.4935V17.7953H41.7766V14.051Z" fill="#4BB4A5"/>
<path d="M41.8768 16.4467H39.3534V16.5876H41.8768V16.4467Z" fill="#4BB4A5"/>
<path d="M41.8768 15.2589H39.3534V15.3998H41.8768V15.2589Z" fill="#4BB4A5"/>
<path d="M40.7152 14.051H40.5349V17.7953H40.7152V14.051Z" fill="#4BB4A5"/>
<path d="M45.0211 17.9362H38.7926V18.2985H45.0211V17.9362Z" fill="#4BB4A5"/>
<path d="M42.9783 18.3187C42.9783 18.5402 43.3588 18.7214 43.8194 18.7214C44.28 18.7214 44.6606 18.5402 44.6606 18.3187C44.6606 18.0973 44.28 17.9161 43.8194 17.9161C43.3588 17.9363 42.9783 18.0973 42.9783 18.3187Z" fill="#5ABBAC"/>
<path d="M41.316 18.3187C41.316 18.5402 41.6966 18.7214 42.1572 18.7214C42.6178 18.7214 42.9983 18.5402 42.9983 18.3187C42.9983 18.0973 42.6178 17.9161 42.1572 17.9161C41.6966 17.9363 41.316 18.0973 41.316 18.3187Z" fill="#5ABBAC"/>
<path d="M39.6538 18.3187C39.6538 18.5402 40.0343 18.7214 40.495 18.7214C40.9556 18.7214 41.3361 18.5402 41.3361 18.3187C41.3361 18.0973 40.9556 17.9161 40.495 17.9161C40.0143 17.9363 39.6538 18.0973 39.6538 18.3187Z" fill="#5ABBAC"/>
<path d="M43.7193 18.3187H39.2332V19.1441H43.7193V18.3187Z" fill="#4BB4A5"/>
<path d="M44.6406 18.3187H39.6538V19.1441H44.6406V18.3187Z" fill="#6CC2B5"/>
<path d="M25.3544 9.34058H17.7642V29.3504H25.3544V9.34058Z" fill="#94D3CA"/>
<path d="M24.7736 9.34058H17.5438V29.3504H24.7736V9.34058Z" fill="#C7E8E3"/>
<path d="M23.6721 22.3248H21.1487V26.0691H23.6721V22.3248Z" fill="#25A592"/>
<path d="M20.9484 22.1235H23.9124V26.2704H20.9484V22.1235ZM23.5719 22.3248H21.2688V26.0691H23.5719V22.3248Z" fill="#4BB4A5"/>
<path d="M23.6721 24.7205H21.1487V24.8614H23.6721V24.7205Z" fill="#4BB4A5"/>
<path d="M23.6721 23.5327H21.1487V23.6736H23.6721V23.5327Z" fill="#4BB4A5"/>
<path d="M22.5104 22.3248H22.3302V26.0691H22.5104V22.3248Z" fill="#4BB4A5"/>
<path d="M21.1487 22.3248H18.6252V26.0691H21.1487V22.3248Z" fill="#25A592"/>
<path d="M18.4049 22.1235H21.3689V26.2704H18.4049V22.1235ZM21.0285 22.3248H18.7454V26.0691H21.0285V22.3248Z" fill="#4BB4A5"/>
<path d="M21.1487 24.7205H18.6252V24.8614H21.1487V24.7205Z" fill="#4BB4A5"/>
<path d="M21.1487 23.5327H18.6252V23.6736H21.1487V23.5327Z" fill="#4BB4A5"/>
<path d="M19.967 22.3248H19.7867V26.0691H19.967V22.3248Z" fill="#4BB4A5"/>
<path d="M24.2729 26.2301H18.0444V26.5925H24.2729V26.2301Z" fill="#4BB4A5"/>
<path d="M22.2301 26.6126C22.2301 26.834 22.6106 27.0152 23.0712 27.0152C23.5319 27.0152 23.9124 26.834 23.9124 26.6126C23.9124 26.3911 23.5319 26.21 23.0712 26.21C22.6106 26.21 22.2301 26.3911 22.2301 26.6126Z" fill="#5ABBAC"/>
<path d="M20.5679 26.6126C20.5679 26.834 20.9484 27.0152 21.409 27.0152C21.8696 27.0152 22.2502 26.834 22.2502 26.6126C22.2502 26.3911 21.8696 26.21 21.409 26.21C20.9484 26.21 20.5679 26.3911 20.5679 26.6126Z" fill="#5ABBAC"/>
<path d="M18.9056 26.6126C18.9056 26.834 19.2862 27.0152 19.7468 27.0152C20.2074 27.0152 20.5879 26.834 20.5879 26.6126C20.5879 26.3911 20.2074 26.21 19.7468 26.21C19.2862 26.21 18.9056 26.3911 18.9056 26.6126Z" fill="#5ABBAC"/>
<path d="M22.9711 26.5925H18.485V27.4179H22.9711V26.5925Z" fill="#4BB4A5"/>
<path d="M23.8924 26.5925H18.9056V27.4179H23.8924V26.5925Z" fill="#6CC2B5"/>
<path d="M23.6721 14.051H21.1487V17.7953H23.6721V14.051Z" fill="#25A592"/>
<path d="M20.9484 13.8497H23.9124V17.9966H20.9484V13.8497ZM23.5719 14.051H21.2688V17.7953H23.5719V14.051Z" fill="#4BB4A5"/>
<path d="M23.6721 16.4467H21.1487V16.5876H23.6721V16.4467Z" fill="#4BB4A5"/>
<path d="M23.6721 15.2589H21.1487V15.3998H23.6721V15.2589Z" fill="#4BB4A5"/>
<path d="M22.5104 14.051H22.3302V17.7953H22.5104V14.051Z" fill="#4BB4A5"/>
<path d="M21.1487 14.051H18.6252V17.7953H21.1487V14.051Z" fill="#25A592"/>
<path d="M18.4049 13.8497H21.3689V17.9966H18.4049V13.8497ZM21.0285 14.051H18.7454V17.7953H21.0285V14.051Z" fill="#4BB4A5"/>
<path d="M21.1487 16.4467H18.6252V16.5876H21.1487V16.4467Z" fill="#4BB4A5"/>
<path d="M21.1487 15.2589H18.6252V15.3998H21.1487V15.2589Z" fill="#4BB4A5"/>
<path d="M19.967 14.051H19.7867V17.7953H19.967V14.051Z" fill="#4BB4A5"/>
<path d="M24.2729 17.9362H18.0444V18.2985H24.2729V17.9362Z" fill="#4BB4A5"/>
<path d="M22.2301 18.3187C22.2301 18.5402 22.6106 18.7214 23.0712 18.7214C23.5319 18.7214 23.9124 18.5402 23.9124 18.3187C23.9124 18.0973 23.5319 17.9161 23.0712 17.9161C22.6106 17.9363 22.2301 18.0973 22.2301 18.3187Z" fill="#5ABBAC"/>
<path d="M20.5679 18.3187C20.5679 18.5402 20.9484 18.7214 21.409 18.7214C21.8696 18.7214 22.2502 18.5402 22.2502 18.3187C22.2502 18.0973 21.8696 17.9161 21.409 17.9161C20.9484 17.9363 20.5679 18.0973 20.5679 18.3187Z" fill="#5ABBAC"/>
<path d="M18.9056 18.3187C18.9056 18.5402 19.2862 18.7214 19.7468 18.7214C20.2074 18.7214 20.5879 18.5402 20.5879 18.3187C20.5879 18.0973 20.2074 17.9161 19.7468 17.9161C19.2862 17.9363 18.9056 18.0973 18.9056 18.3187Z" fill="#5ABBAC"/>
<path d="M22.9711 18.3187H18.485V19.1441H22.9711V18.3187Z" fill="#4BB4A5"/>
<path d="M23.8924 18.3187H18.9056V19.1441H23.8924V18.3187Z" fill="#6CC2B5"/>
<path d="M15.2006 9.34058H7.61035V29.3504H15.2006V9.34058Z" fill="#94D3CA"/>
<path d="M14.5998 9.34058H7.37V29.3504H14.5998V9.34058Z" fill="#C7E8E3"/>
<path d="M13.5184 22.3248H10.995V26.0691H13.5184V22.3248Z" fill="#25A592"/>
<path d="M10.7747 22.1235H13.7387V26.2704H10.7747V22.1235ZM13.4182 22.3248H11.1151V26.0691H13.4182V22.3248Z" fill="#4BB4A5"/>
<path d="M13.5184 24.7205H10.995V24.8614H13.5184V24.7205Z" fill="#4BB4A5"/>
<path d="M13.5184 23.5327H10.995V23.6736H13.5184V23.5327Z" fill="#4BB4A5"/>
<path d="M12.3568 22.3248H12.1765V26.0691H12.3568V22.3248Z" fill="#4BB4A5"/>
<path d="M10.975 22.3248H8.45154V26.0691H10.975V22.3248Z" fill="#25A592"/>
<path d="M8.25122 22.1235H11.2152V26.2704H8.25122V22.1235ZM10.8748 22.3248H8.57165V26.0691H10.8748V22.3248Z" fill="#4BB4A5"/>
<path d="M10.975 24.7205H8.45154V24.8614H10.975V24.7205Z" fill="#4BB4A5"/>
<path d="M10.975 23.5327H8.45154V23.6736H10.975V23.5327Z" fill="#4BB4A5"/>
<path d="M9.8133 22.3248H9.63306V26.0691H9.8133V22.3248Z" fill="#4BB4A5"/>
<path d="M14.1192 26.2301H7.89075V26.5925H14.1192V26.2301Z" fill="#4BB4A5"/>
<path d="M12.0764 26.6126C12.0764 26.834 12.4569 27.0152 12.9176 27.0152C13.3782 27.0152 13.7587 26.834 13.7587 26.6126C13.7587 26.3911 13.3782 26.21 12.9176 26.21C12.4569 26.21 12.0764 26.3911 12.0764 26.6126Z" fill="#5ABBAC"/>
<path d="M10.4142 26.6126C10.4142 26.834 10.7947 27.0152 11.2553 27.0152C11.716 27.0152 12.0965 26.834 12.0965 26.6126C12.0965 26.3911 11.716 26.21 11.2553 26.21C10.7747 26.21 10.4142 26.3911 10.4142 26.6126Z" fill="#5ABBAC"/>
<path d="M8.75195 26.6126C8.75195 26.834 9.13247 27.0152 9.59309 27.0152C10.0537 27.0152 10.4342 26.834 10.4342 26.6126C10.4342 26.3911 10.0537 26.21 9.59309 26.21C9.11244 26.21 8.75195 26.3911 8.75195 26.6126Z" fill="#5ABBAC"/>
<path d="M12.8174 26.5925H8.3313V27.4179H12.8174V26.5925Z" fill="#4BB4A5"/>
<path d="M13.7387 26.5925H8.75195V27.4179H13.7387V26.5925Z" fill="#6CC2B5"/>
<path d="M13.5184 14.051H10.995V17.7953H13.5184V14.051Z" fill="#25A592"/>
<path d="M10.7747 13.8497H13.7387V17.9966H10.7747V13.8497ZM13.4182 14.051H11.1151V17.7953H13.4182V14.051Z" fill="#4BB4A5"/>
<path d="M13.5184 16.4467H10.995V16.5876H13.5184V16.4467Z" fill="#4BB4A5"/>
<path d="M13.5184 15.2589H10.995V15.3998H13.5184V15.2589Z" fill="#4BB4A5"/>
<path d="M12.3568 14.051H12.1765V17.7953H12.3568V14.051Z" fill="#4BB4A5"/>
<path d="M10.975 14.051H8.45154V17.7953H10.975V14.051Z" fill="#25A592"/>
<path d="M8.25122 13.8497H11.2152V17.9966H8.25122V13.8497ZM10.8748 14.051H8.57165V17.7953H10.8748V14.051Z" fill="#4BB4A5"/>
<path d="M10.975 16.4467H8.45154V16.5876H10.975V16.4467Z" fill="#4BB4A5"/>
<path d="M10.975 15.2589H8.45154V15.3998H10.975V15.2589Z" fill="#4BB4A5"/>
<path d="M9.8133 14.051H9.63306V17.7953H9.8133V14.051Z" fill="#4BB4A5"/>
<path d="M14.1192 17.9362H7.89075V18.2985H14.1192V17.9362Z" fill="#4BB4A5"/>
<path d="M12.0764 18.3187C12.0764 18.5402 12.4569 18.7214 12.9176 18.7214C13.3782 18.7214 13.7587 18.5402 13.7587 18.3187C13.7587 18.0973 13.3782 17.9161 12.9176 17.9161C12.4569 17.9363 12.0764 18.0973 12.0764 18.3187Z" fill="#5ABBAC"/>
<path d="M10.4142 18.3187C10.4142 18.5402 10.7947 18.7214 11.2553 18.7214C11.716 18.7214 12.0965 18.5402 12.0965 18.3187C12.0965 18.0973 11.716 17.9161 11.2553 17.9161C10.7747 17.9363 10.4142 18.0973 10.4142 18.3187Z" fill="#5ABBAC"/>
<path d="M8.75195 18.3187C8.75195 18.5402 9.13247 18.7214 9.59309 18.7214C10.0537 18.7214 10.4342 18.5402 10.4342 18.3187C10.4342 18.0973 10.0537 17.9161 9.59309 17.9161C9.11244 17.9363 8.75195 18.0973 8.75195 18.3187Z" fill="#5ABBAC"/>
<path d="M12.8174 18.3187H8.3313V19.1441H12.8174V18.3187Z" fill="#4BB4A5"/>
<path d="M13.7387 18.3187H8.75195V19.1441H13.7387V18.3187Z" fill="#6CC2B5"/>
<path d="M51.4098 22.3248H48.8864V26.0691H51.4098V22.3248Z" fill="#25A592"/>
<path d="M51.63 26.2704H48.666V22.1235H51.63V26.2704ZM49.0065 26.0691H51.3096V22.3248H49.0065V26.0691Z" fill="#4BB4A5"/>
<path d="M51.4098 24.7205H48.8864V24.8614H51.4098V24.7205Z" fill="#4BB4A5"/>
<path d="M51.4098 23.5327H48.8864V23.6736H51.4098V23.5327Z" fill="#4BB4A5"/>
<path d="M50.2481 22.3248H50.0679V26.0691H50.2481V22.3248Z" fill="#4BB4A5"/>
<path d="M51.9705 26.2301H48.3456V26.5925H51.9705V26.2301Z" fill="#4BB4A5"/>
<path d="M35.8085 9.36072H26.9966V21.0767H35.8085V9.36072Z" fill="#94D3CA"/>
<path d="M35.368 9.34058H26.556V21.0566H35.368V9.34058Z" fill="#C7E8E3"/>
<path d="M51.4098 14.051H48.8864V17.7953H51.4098V14.051Z" fill="#25A592"/>
<path d="M51.63 17.9966H48.666V13.8497H51.63V17.9966ZM49.0065 17.7953H51.3096V14.051H49.0065V17.7953Z" fill="#4BB4A5"/>
<path d="M51.4098 16.4467H48.8864V16.5876H51.4098V16.4467Z" fill="#4BB4A5"/>
<path d="M51.4098 15.2589H48.8864V15.3998H51.4098V15.2589Z" fill="#4BB4A5"/>
<path d="M50.2481 14.051H50.0679V17.7953H50.2481V14.051Z" fill="#4BB4A5"/>
<path d="M51.9705 17.9364H48.3256V18.2988H51.9705V17.9364Z" fill="#4BB4A5"/>
<path d="M28.1782 14.6148C28.1782 13.6686 29.3999 12.9037 30.9219 12.9037C32.444 12.9037 33.6657 13.6686 33.6657 14.6148C33.6657 15.5609 32.444 16.3259 30.9219 16.3259C29.3999 16.3259 28.1782 15.5609 28.1782 14.6148Z" fill="#4BB4A5"/>
<path d="M28.4786 14.655C28.4786 13.8096 29.5801 13.1251 30.9219 13.1251C32.2638 13.1251 33.3653 13.8096 33.3653 14.655C33.3653 15.5005 32.2638 16.185 30.9219 16.185C29.5801 16.185 28.4786 15.5005 28.4786 14.655Z" fill="#25A592"/>
<path d="M30.0808 14.655C30.0808 14.353 30.4413 14.1115 30.9219 14.1115C31.4026 14.1115 31.7631 14.353 31.7631 14.655C31.7631 14.9569 31.4026 15.1985 30.9219 15.1985C30.4613 15.2186 30.0808 14.9771 30.0808 14.655ZM30.2611 14.655C30.2611 14.8563 30.5615 15.0375 30.9219 15.0375C31.2824 15.0375 31.5828 14.8563 31.5828 14.655C31.5828 14.4537 31.2824 14.2725 30.9219 14.2725C30.5615 14.2725 30.2611 14.4537 30.2611 14.655Z" fill="#4BB4A5"/>
<path d="M33.4454 14.8564H30.922V18.6007H33.4454V14.8564Z" fill="#25A592"/>
<path d="M30.7217 14.6552H33.6857V18.802H30.7217V14.6552ZM33.3452 14.8565H31.0421V18.6007H33.3452V14.8565Z" fill="#4BB4A5"/>
<path d="M33.4454 17.2721H30.922V17.413H33.4454V17.2721Z" fill="#4BB4A5"/>
<path d="M33.4454 16.0643H30.922V16.2052H33.4454V16.0643Z" fill="#4BB4A5"/>
<path d="M32.2838 14.8564H32.1035V18.6007H32.2838V14.8564Z" fill="#4BB4A5"/>
<path d="M30.902 14.8564H28.3785V18.6007H30.902V14.8564Z" fill="#25A592"/>
<path d="M28.1782 14.6552H31.1422V18.802H28.1782V14.6552ZM30.8018 14.8565H28.4987V18.6007H30.8018V14.8565Z" fill="#4BB4A5"/>
<path d="M30.902 17.2721H28.3785V17.413H30.902V17.2721Z" fill="#4BB4A5"/>
<path d="M30.902 16.0643H28.3785V16.2052H30.902V16.0643Z" fill="#4BB4A5"/>
<path d="M29.7403 14.8564H29.5601V18.6007H29.7403V14.8564Z" fill="#4BB4A5"/>
<path d="M34.0262 18.7617H27.8177V19.1241H34.0262V18.7617Z" fill="#4BB4A5"/>
<path d="M31.002 13.0245H30.8418V14.1921H31.002V13.0245Z" fill="#4BB4A5"/>
<path d="M30.3612 14.3933L30.4414 14.2524L29.0795 13.4874L28.9794 13.6283L30.3612 14.3933Z" fill="#4BB4A5"/>
<path d="M31.4827 14.3933L32.8646 13.6283L32.7845 13.4874L31.4026 14.2524L31.4827 14.3933Z" fill="#4BB4A5"/>
<path d="M35.2478 32.672H31.1622V34.987H35.2478V32.672Z" fill="#40B0A0"/>
<path d="M34.0462 34.061H31.7631V35.2689H34.0462V34.061Z" fill="#D4EDE9"/>
<path d="M31.5227 34.061H29.2396V35.2689H31.5227V34.061Z" fill="#D4EDE9"/>
<path d="M28.9793 34.061H26.6962V35.2689H28.9793V34.061Z" fill="#D4EDE9"/>
<path d="M26.4358 34.0812H24.1527V35.289H26.4358V34.0812Z" fill="#D4EDE9"/>
<path d="M23.9124 34.0813H21.6293V35.2891H23.9124V34.0813Z" fill="#D4EDE9"/>
<path d="M37.8714 32.6116H35.5883V33.8194H37.8714V32.6116Z" fill="#D4EDE9"/>
<path d="M35.3079 32.6519H33.0448V33.8597H35.3079V32.6519Z" fill="#D4EDE9"/>
<path d="M32.7844 32.6519H30.5214V33.8597H32.7844V32.6519Z" fill="#D4EDE9"/>
<path d="M30.241 32.6317H27.9779V33.8396H30.241V32.6317Z" fill="#D4EDE9"/>
<path d="M27.6975 32.6519H25.4144V33.8597H27.6975V32.6519Z" fill="#D4EDE9"/>
<path d="M25.1941 32.6519H22.911V33.8597H25.1941V32.6519Z" fill="#D4EDE9"/>
<path d="M27.6775 29.8336H25.4144V31.0415H27.6775V29.8336Z" fill="#D4EDE9"/>
<path d="M28.9592 31.2227H26.6962V32.4305H28.9592V31.2227Z" fill="#D4EDE9"/>
<path d="M26.4558 31.2227H24.1727V32.4305H26.4558V31.2227Z" fill="#D4EDE9"/>
<path d="M37.4708 23.5931H25.7949V23.9152H37.4708V23.5931Z" fill="#0E9B86"/>
<path d="M37.4708 24.2173H25.7949V26.1699H37.4708V24.2173Z" fill="#4BB4A5"/>
<path d="M37.4708 25.425H25.7949V26.1699H37.4708V25.425Z" fill="#9ED7CF"/>
<path d="M37.4708 23.9153H25.7949V24.2374H37.4708V23.9153Z" fill="#DBF0ED"/>
<path d="M38.0516 23.5931H37.2505V23.9152H38.0516V23.5931Z" fill="#25A592"/>
<path d="M38.0516 24.2173H37.2505V26.1699H38.0516V24.2173Z" fill="#3EAF9E"/>
<path d="M38.0516 25.425H37.2505V26.1699H38.0516V25.425Z" fill="#88CEC3"/>
<path d="M38.0516 23.9153H37.2505V24.2374H38.0516V23.9153Z" fill="#C7E8E3"/>
<path d="M36.6897 26.1698H27.0166V33.2759H36.6897V26.1698Z" fill="#C2E6E1"/>
<path d="M35.6484 27.0154H28.0581V33.2559H35.6484V27.0154Z" fill="#31AA98"/>
<path d="M36.7899 26.1095V33.2961L36.5896 33.2156V26.2303H27.1168V33.2961H26.9165V26.1095H36.7899Z" fill="#AEDDD6"/>
<path d="M36.79 31.1221H35.6484V31.2227H36.79V31.1221Z" fill="#AEDDD6"/>
<path d="M28.0581 31.1221H27.0968V31.2227H28.0581V31.1221Z" fill="#AEDDD6"/>
<path d="M36.79 30.0752H35.6484V30.1758H36.79V30.0752Z" fill="#AEDDD6"/>
<path d="M28.0581 30.0752H27.0968V30.1758H28.0581V30.0752Z" fill="#AEDDD6"/>
<path d="M36.79 29.0485H35.6484V29.1491H36.79V29.0485Z" fill="#AEDDD6"/>
<path d="M28.0581 29.0485H27.0968V29.1491H28.0581V29.0485Z" fill="#AEDDD6"/>
<path d="M36.79 28.0018H35.6484V28.1025H36.79V28.0018Z" fill="#AEDDD6"/>
<path d="M28.0581 28.0018H27.0968V28.1025H28.0581V28.0018Z" fill="#AEDDD6"/>
<path d="M36.7699 26.9751H27.0968V27.0758H36.7699V26.9751Z" fill="#AEDDD6"/>
<path d="M36.79 33.1956H35.6484V33.2962H36.79V33.1956Z" fill="#AEDDD6"/>
<path d="M28.0581 33.1956H27.0968V33.2962H28.0581V33.1956Z" fill="#AEDDD6"/>
<path d="M28.0581 32.1487H27.0968V32.2493H28.0581V32.1487Z" fill="#AEDDD6"/>
<path d="M36.79 32.1487H35.6484V32.2493H36.79V32.1487Z" fill="#AEDDD6"/>
<path d="M35.5082 27.277H31.9233V33.296H35.5082V27.277Z" fill="#4BB4A5"/>
<path d="M33.5256 27.9816H32.4241V29.0082H33.5256V27.9816Z" fill="#25A592"/>
<path d="M34.9876 27.9816H33.8861V29.0082H34.9876V27.9816Z" fill="#25A592"/>
<path d="M33.5256 29.2699H32.4241V30.2966H33.5256V29.2699Z" fill="#25A592"/>
<path d="M34.9876 29.2699H33.8861V30.2966H34.9876V29.2699Z" fill="#25A592"/>
<path d="M33.5256 30.5382H32.4241V31.5649H33.5256V30.5382Z" fill="#25A592"/>
<path d="M34.9876 30.5382H33.8861V31.5649H34.9876V30.5382Z" fill="#25A592"/>
<path d="M33.5256 31.8064H32.4241V32.8331H33.5256V31.8064Z" fill="#25A592"/>
<path d="M34.9876 31.8064H33.8861V32.8331H34.9876V31.8064Z" fill="#25A592"/>
<path d="M31.7631 27.277H28.1782V33.296H31.7631V27.277Z" fill="#4BB4A5"/>
<path d="M29.8005 27.9816H28.699V29.0082H29.8005V27.9816Z" fill="#25A592"/>
<path d="M31.2625 27.9816H30.161V29.0082H31.2625V27.9816Z" fill="#25A592"/>
<path d="M29.8005 29.2699H28.699V30.2966H29.8005V29.2699Z" fill="#25A592"/>
<path d="M31.2625 29.2699H30.161V30.2966H31.2625V29.2699Z" fill="#25A592"/>
<path d="M29.8005 30.5382H28.699V31.5649H29.8005V30.5382Z" fill="#25A592"/>
<path d="M31.2625 30.5382H30.161V31.5649H31.2625V30.5382Z" fill="#25A592"/>
<path d="M29.8005 31.8064H28.699V32.8331H29.8005V31.8064Z" fill="#25A592"/>
<path d="M31.2625 31.8064H30.161V32.8331H31.2625V31.8064Z" fill="#25A592"/>
<path d="M43.7793 32.1487H38.0315V36.5371H43.7793V32.1487Z" fill="#C2E6E1"/>
<path d="M42.5177 32.1487H36.7699V36.5371H42.5177V32.1487Z" fill="#AEDDD6"/>
<path d="M25.6548 32.1487H19.907V36.5371H25.6548V32.1487Z" fill="#C2E6E1"/>
<path d="M26.9165 32.1487H21.1687V36.5371H26.9165V32.1487Z" fill="#AEDDD6"/>
<path d="M39.4134 33.2961H24.1527V33.5981H39.4134V33.2961Z" fill="#A8DBD3"/>
<path d="M39.4134 33.5981H24.1527V34.4034H39.4134V33.5981Z" fill="#BAE3DD"/>
<path d="M40.9955 34.363H22.5505V34.665H40.9955V34.363Z" fill="#A8DBD3"/>
<path d="M40.9955 34.6649H22.5505V35.4701H40.9955V34.6649Z" fill="#BAE3DD"/>
<path d="M42.5176 35.4301H21.0284V35.732H42.5176V35.4301Z" fill="#A8DBD3"/>
<path d="M42.5176 35.7319H21.0284V36.5372H42.5176V35.7319Z" fill="#BAE3DD"/>
<path d="M43.3187 30.5382H40.5149V31.2227H43.3187V30.5382Z" fill="#5ABBAC"/>
<path d="M43.4388 30.9207H41.2158V32.1486H43.4388V30.9207Z" fill="#6CC2B5"/>
<path d="M42.5978 30.9207H40.3748V32.1486H42.5978V30.9207Z" fill="#4BB4A5"/>
<path d="M23.4117 30.5382H20.6079V31.2227H23.4117V30.5382Z" fill="#5ABBAC"/>
<path d="M22.6908 30.9207H20.4678V32.1486H22.6908V30.9207Z" fill="#6CC2B5"/>
<path d="M23.5519 30.9207H21.3289V32.1486H23.5519V30.9207Z" fill="#4BB4A5"/>
<path d="M37.4708 26.0894H25.7949V26.4114H37.4708V26.0894Z" fill="#BAE3DD"/>
<path d="M38.0516 26.0894H37.2505V26.4114H38.0516V26.0894Z" fill="#A1D8D0"/>
<path d="M59 36.396H0V36.9999H59V36.396Z" fill="#5ABBAC"/>
</svg>
