<svg width="49" height="57" viewBox="0 0 49 57" fill="none" xmlns="http://www.w3.org/2000/svg">
<path d="M18.98 8.20271C18.98 8.20271 22.4147 0 24.8457 0C27.2767 0 30.1762 8.11451 29.9085 8.11451C29.6409 8.11451 24.4889 13.0317 24.4889 13.0317L18.98 8.20271Z" fill="#D3EDE9"/>
<path d="M20.6304 4.76275C20.5189 4.98325 20.4074 5.20376 20.2959 5.40221C21.5226 5.07145 22.95 4.873 24.4666 4.873C26.1393 4.873 27.7451 5.11555 29.061 5.53451C28.9718 5.31401 28.8826 5.11556 28.7711 4.89505C27.4998 4.5643 26.0278 4.36584 24.4666 4.36584C23.0838 4.36584 21.7902 4.49815 20.6304 4.76275Z" fill="#6CC2B5"/>
<path d="M29.6186 7.01189C29.5517 6.81344 29.4624 6.59294 29.3732 6.35038C27.9681 5.90938 26.2954 5.64478 24.4665 5.64478C22.7715 5.64478 21.2103 5.86528 19.8944 6.24013C19.7829 6.48269 19.6714 6.70319 19.5822 6.92369C20.9649 6.46064 22.66 6.17398 24.4888 6.17398C26.3846 6.17398 28.1912 6.48269 29.6186 7.01189Z" fill="#6CC2B5"/>
<path d="M19.1807 7.7396C19.0469 8.02625 18.98 8.20266 18.98 8.20266L19.1361 8.33496C20.5858 7.7837 22.4593 7.4309 24.4665 7.4309C26.4069 7.4309 28.2135 7.76165 29.6409 8.26881C29.7747 8.15856 29.8639 8.09241 29.9085 8.09241C29.9308 8.09241 29.9308 7.98215 29.8639 7.76165C28.3696 7.21039 26.5184 6.87964 24.4665 6.87964C22.4593 6.92374 20.6304 7.23244 19.1807 7.7396Z" fill="#6CC2B5"/>
<path d="M23.0614 1.10244C23.5298 1.05834 23.9981 1.03629 24.4665 1.03629C25.2248 1.03629 25.9385 1.08039 26.6299 1.16859C26.4515 0.948086 26.2508 0.749633 26.0723 0.573231C25.5594 0.52913 25.0018 0.50708 24.4665 0.50708C24.1989 0.50708 23.9089 0.50708 23.6413 0.52913C23.4406 0.705533 23.2398 0.903985 23.0614 1.10244Z" fill="#6CC2B5"/>
<path d="M24.4666 1.80798C23.7529 1.80798 23.0615 1.85208 22.3924 1.91823C22.2586 2.11669 22.1024 2.31514 21.9686 2.51359C22.7492 2.40334 23.5968 2.33719 24.4443 2.33719C25.5594 2.33719 26.63 2.44744 27.589 2.62384C27.4552 2.40334 27.3437 2.20489 27.2099 2.00644C26.3623 1.87413 25.4256 1.80798 24.4666 1.80798Z" fill="#6CC2B5"/>
<path d="M21.4556 3.32959C21.3218 3.52804 21.2103 3.74855 21.0988 3.947C22.1247 3.72649 23.2845 3.61624 24.4665 3.61624C25.8716 3.61624 27.2098 3.79265 28.3919 4.0793C28.2804 3.8588 28.1912 3.66034 28.0796 3.43984C26.9868 3.19729 25.7601 3.08704 24.4665 3.08704C23.396 3.08704 22.3923 3.17524 21.4556 3.32959Z" fill="#6CC2B5"/>
<path d="M22.7715 11.4221C22.7715 11.4221 21.2772 7.05614 14.1179 7.14434C6.80245 7.23254 2.74327 3.57219 1.94036 2.77838C1.11514 1.96252 -0.33456 13.4728 3.81382 15.6117C9.50113 13.12 22.7715 16.6921 22.5708 16.4055C22.4146 16.1409 22.7715 11.4221 22.7715 11.4221Z" fill="#7BC8BD"/>
<path d="M25.0018 11.4221C25.0018 11.4221 26.4961 7.05613 33.6554 7.14433C40.9709 7.23253 45.03 3.57219 45.833 2.77838C46.6359 1.98457 48.0856 13.4728 43.9372 15.6337C38.2499 13.142 24.9795 16.7142 25.1803 16.4275C25.3587 16.1408 25.0018 11.4221 25.0018 11.4221Z" fill="#7BC8BD"/>
<path d="M26.0278 28.7535C23.9982 28.4007 21.701 28.2243 19.6491 28.4668C17.6195 28.6873 15.5007 29.5914 13.6272 30.4293C11.9099 31.179 10.3933 32.1051 8.87666 33.0753C6.95859 34.3102 6.91398 36.449 5.97725 36.8459C6.37871 37.4634 4.30452 39.5361 3.65773 39.9771C3.07784 40.374 2.09651 40.5283 2.36414 41.3663C2.98863 43.2405 7.29314 42.6011 8.58672 42.116C8.27448 43.3728 7.33774 44.8723 6.69095 46.0409C6.26719 46.8127 5.82113 47.7608 5.10743 48.3562C6.44562 48.3342 7.56077 48.1137 8.83205 47.8049C9.92491 47.5403 10.9955 47.0552 12.1106 46.9229C12.1552 47.9813 12.1775 49.0839 12.1329 50.1423C12.0883 51.0022 11.7761 51.9063 11.8653 52.7442C12.0883 54.9051 18.1771 50.8258 19.0915 50.2084C19.0692 51.4432 18.757 53.4057 19.3145 54.5744C19.5599 55.0815 20.0951 55.5667 20.4297 55.9415C21.0096 55.5667 21.6341 54.5744 22.1693 54.0231C22.5931 53.5821 22.9053 52.5678 23.4406 52.3694C23.8198 54.3098 24.9126 55.7872 26.4069 56.9779C27.1206 56.3384 27.4329 55.2359 27.7674 54.3759C27.9235 53.957 28.3027 51.9945 28.7934 51.9063C29.061 51.8622 29.9531 52.7883 30.1985 52.9427C30.8899 53.4498 31.6482 53.979 32.4511 54.3098C33.0756 54.5744 33.9454 54.7949 34.5922 54.839C34.6368 53.3175 33.9677 51.8402 33.9008 50.2966C33.9008 50.0982 33.767 49.1721 33.9454 49.0177C34.4138 48.6649 35.8858 50.3628 36.3764 50.6274C36.8448 50.8699 40.2795 52.1489 40.7702 51.7078C41.2385 51.2889 39.2089 47.5403 38.8967 47.0773C39.9003 47.827 41.1939 48.1357 42.4652 48.0695C43.1789 48.0475 46.056 47.849 45.8776 46.9229C45.7661 46.3496 44.4948 45.7322 44.0933 45.3794C42.7105 44.2328 41.5285 42.9539 40.1457 41.7852C41.4392 42.557 42.889 42.6452 44.3833 42.4247C45.0524 42.3144 47.6841 42.3365 47.7064 41.3222C47.7064 40.8371 45.5207 39.8007 45.0747 39.4038C43.625 38.169 42.4206 36.7136 40.9932 35.4568C39.6996 34.3322 38.3391 33.6707 36.9563 32.7005C35.975 32.039 35.0382 31.4877 33.9454 31.0247C31.3805 29.9663 28.7265 29.2165 26.0278 28.7535Z" fill="#62BEB0"/>
<path d="M2.78784 21.3667C2.34178 21.8959 1.7842 22.6015 1.49426 23.241C2.27487 23.5497 3.167 22.9984 3.8584 22.6677C3.1893 23.8363 2.29718 24.9168 2.31948 26.328C2.96627 26.328 3.167 25.7988 3.63536 25.5122C3.1447 27.1659 2.52021 29.7679 3.27851 31.4437C4.08143 33.2077 7.89526 31.4878 9.05503 30.7822C9.83564 30.3191 10.5939 29.9222 11.263 29.3048C11.8206 28.7756 12.3559 28.2243 13.1365 28.0259C14.8985 27.6069 16.5043 27.0777 18.2885 26.9454C20.2289 26.7911 22.1693 26.5485 24.132 26.4383C26.6522 26.2839 29.1725 26.328 31.715 26.328C33.5885 26.328 35.1274 26.5706 36.8224 27.4085C38.4506 28.2244 39.9449 29.2828 41.4615 30.275C42.532 30.9586 45.6545 33.2298 45.7883 30.6719C45.8329 29.7017 45.7214 28.6874 45.4984 27.7613C45.3645 27.1439 45.0077 26.5265 44.9408 25.9532C45.4315 26.328 46.6358 28.9961 46.9035 27.21C47.0819 25.9091 45.8998 24.4979 45.4314 23.3292C45.9667 23.5717 46.1675 24.0348 46.8142 23.9466C46.8142 23.0646 45.8329 22.0944 45.3422 21.4108C44.5839 20.3744 43.7587 19.6027 42.6436 19.0294C41.0154 18.1915 39.5211 17.5961 37.6477 18.2356C35.685 18.9191 35.2389 16.2069 33.6554 15.5675C30.1315 14.1342 26.4515 15.4572 22.9276 15.6336C21.8124 15.6777 20.7865 16.3392 19.7382 15.9423C18.9576 15.6336 18.2662 16.4495 17.4633 16.1408C16.3482 15.6998 15.2107 15.1926 14.0509 14.8619C12.2221 14.3327 9.63491 14.7516 8.09599 15.8762C7.35999 16.4054 7.20387 17.111 6.7355 17.7946C6.37865 18.3017 5.91028 18.3458 5.57574 18.8089C5.37501 19.0955 5.37501 19.5365 5.06277 19.7791C4.90664 19.8893 4.75052 19.8011 4.5944 19.8673C3.96991 20.176 3.23391 20.8375 2.78784 21.3667Z" fill="#7BC8BD"/>
<path d="M5.64264 20.4406C4.639 21.6534 3.61306 22.9985 4.01451 23.0867C4.50518 23.1969 4.88434 22.9544 5.21888 22.6677C4.37136 23.3072 4.32676 25.0491 4.37136 26.0635C4.99585 25.865 5.39731 25.7107 5.88798 25.2917C5.3081 25.7768 4.92894 26.8793 4.88434 27.7172C5.86567 27.7834 5.93258 27.4085 6.7355 27.1219C6.40095 28.1582 5.50882 30.7381 6.40095 31.7745C7.22617 32.7447 9.27805 31.9068 10.1033 31.3555C11.9544 30.1207 13.4041 28.952 15.4337 28.2023C18.5785 27.0557 21.8124 25.7768 25.2694 25.9973C27.7005 26.1517 29.1502 27.9818 31.2913 28.7977C33.3208 29.5695 35.395 30.2751 37.4692 30.8043C38.629 31.0909 40.7478 31.995 41.9745 31.576C43.2903 31.135 42.0414 29.1725 41.7068 28.2244C42.1975 28.5551 42.7774 29.5695 43.4688 29.2166C43.6249 28.0259 42.4874 27.1439 42.599 25.9753C43.0004 26.3501 43.3796 26.8573 43.8925 27.0337C44.3386 25.7107 43.335 24.8507 43.2904 23.6159C43.781 23.8143 44.1602 24.1671 44.517 24.4979C44.8962 23.1969 43.8033 22.0062 43.1788 20.9919C42.8666 20.4847 42.7551 19.8673 42.3313 19.4263C42.0414 19.1176 41.4615 18.9853 41.2162 18.6546C40.9262 18.2577 40.8816 17.5961 40.6363 17.111C40.0787 16.0306 38.8966 15.1706 37.8038 14.6635C35.3727 13.5609 33.6108 15.1706 31.4028 15.7439C28.7041 16.4495 26.5407 16.2731 23.7305 16.2511C21.5448 16.229 19.426 16.0526 17.2626 15.8983C15.01 15.7439 13.1811 14.8619 10.9731 15.6337C10.304 15.8762 9.47878 16.1188 8.8766 16.4936C8.05138 17.0008 7.76144 17.7946 7.22617 18.5002C7.20386 18.6546 6.42325 19.4925 5.64264 20.4406Z" fill="#5ABBAC"/>
<path opacity="0.3" d="M12.9563 27.4533C16.3456 26.6486 18.4334 23.2797 17.6194 19.9288C16.8055 16.5779 13.398 14.5138 10.0087 15.3185C6.61931 16.1233 4.53155 19.4921 5.34551 22.843C6.15947 26.1939 9.56692 28.258 12.9563 27.4533Z" fill="#62BEB0"/>
<path opacity="0.3" d="M37.0678 27.4526C40.5537 27.4526 43.3795 24.6588 43.3795 21.2124C43.3795 17.766 40.5537 14.9722 37.0678 14.9722C33.5819 14.9722 30.756 17.766 30.756 21.2124C30.756 24.6588 33.5819 27.4526 37.0678 27.4526Z" fill="#62BEB0"/>
<path opacity="0.3" d="M20.7196 20.176C20.7196 20.176 15.1215 21.8518 10.9062 15.8983C8.85431 16.2731 6.24484 18.1253 6.02181 21.4329C4.03683 22.6236 1.22663 19.9996 3.21161 15.5896C5.19659 11.1795 10.6163 8.75396 15.3668 11.1354C20.1174 13.5168 23.9758 18.1474 20.7196 20.176Z" fill="#62BEB0"/>
<path opacity="0.3" d="M27.7897 19.9775C27.7897 19.9775 33.3878 21.6533 37.6031 15.6998C39.655 16.0746 42.2645 17.9268 42.4875 21.2344C44.4725 22.4251 47.2827 19.8011 45.2977 15.3911C43.3127 10.981 37.893 8.55548 33.1425 10.9369C28.3919 13.3183 24.5335 17.9709 27.7897 19.9775Z" fill="#62BEB0"/>
<path d="M12.0659 26.4603C15.3917 26.4603 18.0878 23.7948 18.0878 20.5067C18.0878 17.2186 15.3917 14.5531 12.0659 14.5531C8.74014 14.5531 6.04407 17.2186 6.04407 20.5067C6.04407 23.7948 8.74014 26.4603 12.0659 26.4603Z" fill="#5ABBAC"/>
<path d="M16.1202 24.1715C18.167 22.1479 18.167 18.867 16.1202 16.8434C14.0734 14.8198 10.7548 14.8198 8.70803 16.8434C6.66122 18.867 6.66122 22.1479 8.70803 24.1715C10.7548 26.1951 14.0734 26.1951 16.1202 24.1715Z" fill="#E1F2F0"/>
<path d="M13.6718 24.5418C15.9259 24.5418 17.7533 22.7352 17.7533 20.5066C17.7533 18.2781 15.9259 16.4714 13.6718 16.4714C11.4177 16.4714 9.59033 18.2781 9.59033 20.5066C9.59033 22.7352 11.4177 24.5418 13.6718 24.5418Z" fill="#6CC2B5"/>
<path d="M13.6719 22.9983C15.0638 22.9983 16.1921 21.8827 16.1921 20.5066C16.1921 19.1305 15.0638 18.0149 13.6719 18.0149C12.28 18.0149 11.1516 19.1305 11.1516 20.5066C11.1516 21.8827 12.28 22.9983 13.6719 22.9983Z" fill="#B3DFD9"/>
<path d="M12.1553 19.9994C12.7096 19.9994 13.1589 19.5552 13.1589 19.0072C13.1589 18.4591 12.7096 18.0149 12.1553 18.0149C11.601 18.0149 11.1516 18.4591 11.1516 19.0072C11.1516 19.5552 11.601 19.9994 12.1553 19.9994Z" fill="#D3EDE9"/>
<path d="M15.7014 22.3368C15.7014 22.6235 15.4561 22.866 15.1661 22.866C14.8762 22.866 14.6309 22.6235 14.6309 22.3368C14.6309 22.0502 14.8762 21.8076 15.1661 21.8076C15.4561 21.8297 15.7014 22.0502 15.7014 22.3368Z" fill="#D3EDE9"/>
<path opacity="0.3" d="M10.2817 14.8399C10.3486 14.9722 13.2481 20.132 18.0655 20.1981C17.9094 17.067 15.2776 14.5753 12.066 14.5753C11.4415 14.5753 10.8393 14.6635 10.2817 14.8399Z" fill="#62BEB0"/>
<path d="M40.7374 24.5375C43.0891 22.2125 43.0891 18.443 40.7374 16.118C38.3857 13.793 34.573 13.793 32.2213 16.118C29.8697 18.443 29.8697 22.2125 32.2213 24.5375C34.573 26.8625 38.3857 26.8625 40.7374 24.5375Z" fill="#5ABBAC"/>
<path d="M39.7624 23.9937C41.8092 21.97 41.8092 18.6891 39.7624 16.6655C37.7156 14.6419 34.3971 14.6419 32.3502 16.6655C30.3034 18.6891 30.3034 21.97 32.3502 23.9937C34.3971 26.0173 37.7156 26.0173 39.7624 23.9937Z" fill="#E1F2F0"/>
<path d="M34.7929 24.542C37.0471 24.542 38.8744 22.7353 38.8744 20.5068C38.8744 18.2782 37.0471 16.4716 34.7929 16.4716C32.5388 16.4716 30.7114 18.2782 30.7114 20.5068C30.7114 22.7353 32.5388 24.542 34.7929 24.542Z" fill="#6CC2B5"/>
<path d="M34.793 22.9985C36.1849 22.9985 37.3132 21.8829 37.3132 20.5068C37.3132 19.1307 36.1849 18.0151 34.793 18.0151C33.4011 18.0151 32.2727 19.1307 32.2727 20.5068C32.2727 21.8829 33.4011 22.9985 34.793 22.9985Z" fill="#B3DFD9"/>
<path d="M33.254 19.9997C33.8083 19.9997 34.2576 19.5554 34.2576 19.0074C34.2576 18.4594 33.8083 18.0151 33.254 18.0151C32.6997 18.0151 32.2504 18.4594 32.2504 19.0074C32.2504 19.5554 32.6997 19.9997 33.254 19.9997Z" fill="#D3EDE9"/>
<path d="M36.8225 22.3369C36.8225 22.6236 36.5772 22.8662 36.2872 22.8662C35.9973 22.8662 35.752 22.6236 35.752 22.3369C35.752 22.0503 35.9973 21.8077 36.2872 21.8077C36.5772 21.8298 36.8225 22.0503 36.8225 22.3369Z" fill="#D3EDE9"/>
<path opacity="0.3" d="M9.03284 37.5737C9.03284 37.5737 9.21126 49.3706 24.935 49.4588C40.6364 49.547 40.458 37.287 40.458 37.287L21.8125 29.9884L9.03284 37.5737Z" fill="#62BEB0"/>
<path d="M9.7688 36.846C9.7688 36.846 9.94722 48.0917 24.9349 48.1799C39.9226 48.2681 39.7219 36.5814 39.7219 36.5814L21.9463 29.6135L9.7688 36.846Z" fill="#5ABBAC"/>
<path d="M11.2185 36.5815C11.2185 36.5815 12.6459 46.3939 24.8234 46.2836C37.0232 46.1734 38.8967 35.7656 38.7852 35.5892C38.6737 35.4128 26.1616 29.7679 25.7825 29.349C25.4033 28.908 11.2185 36.5815 11.2185 36.5815Z" fill="#B3DFD9"/>
<path d="M12.1775 36.2066C12.1775 36.2066 13.025 39.0069 14.051 40.0213L15.5453 39.1392L16.6827 40.4402L15.7237 41.8735C15.7237 41.8735 17.3518 43.417 18.7346 43.9021L19.5152 42.4688L21.4333 42.998L21.1434 44.718C21.1434 44.718 23.619 45.2472 25.1802 45.0046V43.2185L27.2321 42.9319L27.7228 44.5416C27.7228 44.5416 29.4178 44.5416 31.269 43.5273L30.5999 41.8073L32.228 41.0356L33.6777 42.4027C33.6777 42.4027 35.1274 41.2781 35.5958 40.33L34.2799 38.8967L35.1274 37.4193L36.8225 38.0147C36.8225 38.0147 37.7815 37.1768 37.9599 36.2286C38.1383 35.2804 35.1943 31.4657 35.1943 31.4657L19.7383 30.3412L12.1775 36.2066Z" fill="#E1F2F0"/>
<path d="M14.8539 33.9354C14.8539 33.9354 14.9654 41.4987 25.0464 41.5648C35.1274 41.631 35.0159 33.759 35.0159 33.759L23.0614 29.0844L14.8539 33.9354Z" fill="#5ABBAC"/>
<path d="M19.939 20.5068C19.939 20.5068 25.0018 18.2576 29.1502 20.9257C28.6149 23.7702 27.8343 25.3358 27.8343 25.3358C27.8343 25.3358 20.1843 25.4019 20.2512 25.2255C20.2958 25.0271 19.939 20.5068 19.939 20.5068Z" fill="#6CC2B5"/>
<path d="M22.7938 24.3215L22.4369 24.2774C22.9499 20.7714 21.1211 19.6027 21.0988 19.5807L21.2772 19.272C21.3887 19.3381 23.3291 20.5729 22.7938 24.3215Z" fill="#B3DFD9"/>
<path d="M23.686 24.3215L23.3291 24.2994C23.5745 20.7714 22.66 19.5807 22.66 19.5586L22.9277 19.3381C22.9946 19.3822 23.9536 20.6171 23.686 24.3215Z" fill="#B3DFD9"/>
<path d="M24.6004 19.4484H24.2435V24.2994H24.6004V19.4484Z" fill="#B3DFD9"/>
<path d="M25.1356 24.3215C24.868 20.6171 25.8493 19.3822 25.894 19.3381L26.1616 19.5586L26.0278 19.4484L26.1616 19.5586C26.1616 19.5807 25.2472 20.7494 25.4925 24.2994L25.1356 24.3215Z" fill="#B3DFD9"/>
<path d="M26.0278 24.3215C25.4925 20.573 27.4329 19.3382 27.5221 19.2941L27.7005 19.6028L27.6113 19.4484L27.7005 19.6028C27.6782 19.6248 25.8494 20.7935 26.3623 24.2995L26.0278 24.3215Z" fill="#B3DFD9"/>
<path d="M16.2144 33.4281C16.2144 33.4281 17.0619 36.3388 18.3778 37.4634C20.4297 34.0676 21.3887 32.4138 21.2103 32.4138C21.0318 32.4138 16.8611 32.2815 16.2144 33.4281Z" fill="#E1F2F0"/>
<path d="M21.0319 32.2375C21.0319 32.2375 21.5225 33.9574 22.3031 34.6189C23.5075 32.6344 24.0651 31.6421 23.9759 31.6421C23.8421 31.6421 21.411 31.5759 21.0319 32.2375Z" fill="#E1F2F0"/>
<path d="M34.1238 33.6047C34.1238 33.6047 33.2763 36.5153 31.9604 37.6399C29.9086 34.2441 28.9495 32.5904 29.1279 32.5904C29.3287 32.5904 33.4771 32.4801 34.1238 33.6047Z" fill="#E1F2F0"/>
<path d="M29.3286 32.5904C29.3286 32.5904 28.8379 34.3103 28.0573 34.9718C26.853 32.9873 26.2954 31.995 26.3846 31.995C26.4961 31.995 28.9271 31.9288 29.3286 32.5904Z" fill="#E1F2F0"/>
<path opacity="0.3" d="M27.2767 24.6082C22.7715 24.1672 19.1584 23.9908 13.3819 27.1881C7.60537 30.4074 5.79882 31.1131 3.63541 30.4956C1.47201 29.8782 -0.245331 32.3699 0.0223065 34.156C0.289944 35.9421 2.89941 39.867 7.15931 39.426C11.3969 38.985 17.2403 33.274 24.5781 33.6268C32.6964 34.0237 33.7893 35.5893 36.6664 37.3753C39.5435 39.1614 42.086 39.867 45.6991 38.8086C49.3122 37.7281 49.6691 33.6268 48.2194 32.2156C46.7697 30.7823 44.9631 30.9587 43.5357 31.3336C42.086 31.6864 39.9895 29.768 37.9376 28.1583C35.0828 25.8871 30.2431 24.8949 27.2767 24.6082Z" fill="#62BEB0"/>
<path d="M27.2767 23.7261C22.7715 23.2851 19.1584 23.1087 13.3819 26.306C7.60537 29.5254 5.79882 30.231 3.63541 29.6136C1.47201 28.9962 -0.245331 31.4878 0.0223065 33.2739C0.289944 35.06 2.89941 38.9849 7.15931 38.5439C11.3969 38.1029 17.2403 32.3919 24.5781 32.7447C32.6964 33.1416 33.7893 34.7072 36.6664 36.4933C39.5435 38.2793 42.086 38.9849 45.6991 37.9265C49.3122 36.8461 49.6691 32.7447 48.2194 31.3335C46.7697 29.9002 44.9631 30.0766 43.5357 30.4515C42.086 30.8043 39.9895 28.8859 37.9376 27.2762C35.0828 25.0051 30.2431 24.0128 27.2767 23.7261Z" fill="#D3EDE9"/>
<path d="M21.411 12.7672C20.6081 11.1134 18.4893 9.23914 17.4187 9.19504C17.4187 9.50375 17.5303 9.8345 17.5749 10.1432C16.036 9.10684 14.274 7.60742 12.2667 7.71767C12.289 8.20278 12.7574 8.64378 12.9581 9.10684C12.802 8.77609 10.7055 8.35713 10.304 8.20278C9.45652 7.87202 8.72052 7.69562 7.76149 7.73972C7.78379 8.02638 7.91761 8.29098 8.11834 8.51148C6.40099 9.23914 5.0182 7.16641 3.5908 6.87976C3.54619 7.84997 3.76922 8.82019 4.28219 9.63605C3.74692 9.614 2.9217 8.33508 2.54255 8.55558C2.1857 8.75404 2.58716 10.5401 2.67637 10.937C2.8771 11.8631 3.23395 13.4949 3.83613 14.2887C4.37141 15.0163 4.81747 14.862 5.41965 14.2225C6.40099 13.142 6.98088 12.26 8.45288 11.7088C11.843 10.4078 15.0546 13.0318 17.7756 14.6415C18.8461 15.2809 20.162 15.5676 21.2103 14.9061C21.8794 14.443 21.8348 13.6492 21.411 12.7672Z" fill="#5ABBAC"/>
<path d="M26.3623 12.7672C27.1652 11.1134 29.284 9.23914 30.3546 9.19504C30.3546 9.50375 30.243 9.8345 30.1984 10.1432C31.715 9.10684 33.4993 7.58537 35.4843 7.71767C35.462 8.20278 34.9936 8.64378 34.7929 9.10684C34.949 8.77609 37.0455 8.35713 37.447 8.20278C38.2945 7.87202 39.0305 7.69562 39.9895 7.73972C39.9672 8.02638 39.8334 8.29098 39.6327 8.51148C41.35 9.23914 42.7328 7.16641 44.1602 6.87976C44.2048 7.84997 43.9818 8.82019 43.4688 9.63605C44.0041 9.614 44.8293 8.33508 45.2085 8.55558C45.5653 8.75404 45.1639 10.5401 45.0746 10.937C44.8739 11.8631 44.5171 13.4949 43.9149 14.2887C43.3796 15.0163 42.9335 14.862 42.3313 14.2225C41.35 13.142 40.7701 12.26 39.2981 11.7088C35.908 10.4078 32.6964 13.0318 29.9754 14.6415C28.9048 15.2809 27.589 15.5676 26.5407 14.9061C25.8939 14.443 25.9385 13.6492 26.3623 12.7672Z" fill="#5ABBAC"/>
<path d="M20.7196 18.9412C20.7196 18.9412 15.1215 20.617 10.9062 14.6634C8.85429 15.0383 6.24482 16.8905 6.02179 20.1981C4.05911 21.3888 1.24892 18.7648 3.2339 14.3768C5.21888 9.96672 10.6385 7.54119 15.3891 9.92262C20.1174 12.282 23.9758 16.9346 20.7196 18.9412Z" fill="#D3EDE9"/>
<path opacity="0.3" d="M30.4884 19.8893C35.1052 19.8452 37.7369 15.5675 38.2276 14.6634C37.67 14.487 37.0901 14.3988 36.4656 14.3988C33.3209 14.3988 30.7114 16.8023 30.4884 19.8893Z" fill="#62BEB0"/>
<path d="M27.7897 18.7648C27.7897 18.7648 33.3878 20.4406 37.6031 14.487C39.655 14.8619 42.2645 16.7141 42.4875 20.0216C44.4725 21.2123 47.2827 18.5884 45.2977 14.1783C43.3127 9.76824 37.893 7.34271 33.1425 9.72414C28.3919 12.1056 24.5335 16.7361 27.7897 18.7648Z" fill="#D3EDE9"/>
<path d="M19.6045 26.1076C20.9471 26.1076 22.0355 24.7254 22.0355 23.0205C22.0355 21.3156 20.9471 19.9335 19.6045 19.9335C18.2619 19.9335 17.1735 21.3156 17.1735 23.0205C17.1735 24.7254 18.2619 26.1076 19.6045 26.1076Z" fill="#5ABBAC"/>
<path d="M19.4261 25.2035C20.3745 25.2035 21.1434 24.2261 21.1434 23.0205C21.1434 21.8149 20.3745 20.8375 19.4261 20.8375C18.4776 20.8375 17.7087 21.8149 17.7087 23.0205C17.7087 24.2261 18.4776 25.2035 19.4261 25.2035Z" fill="#5ABBAC"/>
<path d="M29.2394 26.2178C30.582 26.2178 31.6704 24.8357 31.6704 23.1307C31.6704 21.4258 30.582 20.0437 29.2394 20.0437C27.8968 20.0437 26.8083 21.4258 26.8083 23.1307C26.8083 24.8357 27.8968 26.2178 29.2394 26.2178Z" fill="#5ABBAC"/>
<path d="M29.4179 25.2256C30.2924 25.2256 31.0014 24.3173 31.0014 23.197C31.0014 22.0766 30.2924 21.1683 29.4179 21.1683C28.5433 21.1683 27.8344 22.0766 27.8344 23.197C27.8344 24.3173 28.5433 25.2256 29.4179 25.2256Z" fill="#5ABBAC"/>
<path d="M24.3773 12.2821C26.262 12.2821 27.7897 10.7716 27.7897 8.90836C27.7897 7.04512 26.262 5.53467 24.3773 5.53467C22.4927 5.53467 20.965 7.04512 20.965 8.90836C20.965 10.7716 22.4927 12.2821 24.3773 12.2821Z" fill="#5ABBAC"/>
<path d="M27.1946 9.56562C27.5653 8.02553 26.603 6.47994 25.0453 6.11345C23.4876 5.74695 21.9242 6.69833 21.5535 8.23841C21.1828 9.77849 22.1451 11.3241 23.7029 11.6906C25.2606 12.0571 26.8239 11.1057 27.1946 9.56562Z" stroke="#B3DFD9" stroke-width="1.5884" stroke-miterlimit="10"/>
<path d="M26.5011 9.40166C26.7801 8.24056 26.0542 7.07571 24.8797 6.79991C23.7053 6.5241 22.5271 7.24178 22.2482 8.40288C21.9692 9.56399 22.6951 10.7288 23.8695 11.0046C25.0439 11.2804 26.2221 10.5628 26.5011 9.40166Z" stroke="#B3DFD9" stroke-width="1.5884" stroke-miterlimit="10"/>
<path d="M24.3772 10.3858C25.2025 10.3858 25.8715 9.72433 25.8715 8.9084C25.8715 8.09247 25.2025 7.43103 24.3772 7.43103C23.552 7.43103 22.8829 8.09247 22.8829 8.9084C22.8829 9.72433 23.552 10.3858 24.3772 10.3858Z" stroke="#B3DFD9" stroke-width="1.5884" stroke-miterlimit="10"/>
<path d="M27.5404 16.6702C29.2911 14.9394 29.2911 12.1331 27.5404 10.4023C25.7897 8.67148 22.9513 8.67148 21.2006 10.4023C19.45 12.1331 19.45 14.9394 21.2006 16.6702C22.9513 18.401 25.7897 18.401 27.5404 16.6702Z" fill="#6CC2B5"/>
<path d="M24.3773 17.2875C26.4714 17.2875 28.1689 15.6092 28.1689 13.539C28.1689 11.4687 26.4714 9.79041 24.3773 9.79041C22.2833 9.79041 20.5858 11.4687 20.5858 13.539C20.5858 15.6092 22.2833 17.2875 24.3773 17.2875Z" stroke="#7BC8BD" stroke-width="1.5884" stroke-miterlimit="10"/>
<path d="M26.405 15.5477C27.5285 14.4369 27.5285 12.6359 26.405 11.525C25.2814 10.4142 23.4597 10.4142 22.3362 11.525C21.2126 12.6359 21.2126 14.4369 22.3362 15.5477C23.4597 16.6585 25.2814 16.6585 26.405 15.5477Z" stroke="#7BC8BD" stroke-width="1.5884" stroke-miterlimit="10"/>
<path d="M25.8816 14.7733C26.5721 13.9473 26.4545 12.7242 25.619 12.0416C24.7835 11.3589 23.5464 11.4752 22.8559 12.3012C22.1655 13.1272 22.283 14.3503 23.1185 15.0329C23.9541 15.7156 25.1911 15.5993 25.8816 14.7733Z" stroke="#7BC8BD" stroke-width="1.5884" stroke-miterlimit="10"/>
<path d="M25.4033 13.5388C25.4033 14.1121 24.9349 14.5752 24.355 14.5752C23.7751 14.5752 23.3068 14.1121 23.3068 13.5388C23.3068 12.9655 23.7751 12.5024 24.355 12.5024C24.9572 12.5245 25.4033 12.9655 25.4033 13.5388Z" stroke="#7BC8BD" stroke-width="1.5884" stroke-miterlimit="10"/>
</svg>
