<svg width="62" height="39" viewBox="0 0 62 39" fill="none" xmlns="http://www.w3.org/2000/svg">
<path d="M52.3191 2.53271H10.1439V38.7117H52.3191V2.53271Z" fill="#73C5B9"/>
<path d="M52.319 33.7287V38.6912H46.321L45.1425 37.5381L44.448 36.8586V36.2614V33.008C44.448 33.5845 43.9639 34.0581 43.3747 34.0581C42.6802 34.0581 42.154 33.4198 42.3224 32.7403C40.6177 32.8432 40.1547 30.4958 41.7752 29.9605C41.0597 29.2604 41.7752 28.0455 42.7643 28.3749C42.7433 27.4483 43.4799 26.7688 44.3428 26.7688C45.2477 26.7688 46.0053 27.5101 45.9212 28.4573C46.3 28.2308 46.6999 28.2926 46.9734 28.4779L47.1839 28.6838L52.319 33.7287Z" fill="#5CBCAE"/>
<path d="M30.9579 38.7118H19.888L18.6884 37.5381L17.9939 36.8586V36.2614V33.008C17.9939 33.5845 17.5098 34.0581 16.9206 34.0581C16.2261 34.0581 15.6999 33.4198 15.8683 32.7403C14.1636 32.8432 13.7006 30.4958 15.3211 29.9605C14.6056 29.2604 15.3211 28.0455 16.3102 28.3749C16.2892 27.4483 17.0258 26.7688 17.8887 26.7688C18.7936 26.7688 19.5512 27.5101 19.4671 28.4573C19.8459 28.2308 20.2457 28.2926 20.5193 28.4985L20.7298 28.7044L30.9579 38.7118Z" fill="#5CBCAE"/>
<path d="M52.319 2.53271H10.1018V3.70642H52.319V2.53271Z" fill="#5CBCAE"/>
<path d="M36.8296 15.9171H25.6334V38.6911H36.8296V15.9171Z" fill="#4DB5A6"/>
<path d="M53.8133 37.538H8.64966V38.7117H53.8133V37.538Z" fill="#4DB5A6"/>
<path d="M53.8133 0H8.64966V2.53273H53.8133V0Z" fill="#4DB5A6"/>
<path d="M35.7563 17.0291H26.7278V32.8638H35.7563V17.0291Z" fill="#D9EFEC"/>
<path d="M50.8038 18.3881V32.5961H38.1134V17.585C38.1344 17.5027 38.1555 17.4203 38.1765 17.338C38.2397 17.9351 38.7237 18.3881 39.334 18.3881C39.9444 18.3881 40.4284 17.9351 40.4915 17.338C40.5547 17.9351 41.0387 18.3881 41.649 18.3881C42.2594 18.3881 42.7434 17.9351 42.8065 17.338C42.8697 17.9351 43.3537 18.3881 43.964 18.3881C44.5744 18.3881 45.0584 17.9351 45.1215 17.338C45.1847 17.9351 45.6687 18.3881 46.279 18.3881C46.8894 18.3881 47.3734 17.9351 47.4366 17.338C47.4997 17.9351 47.9837 18.3881 48.5941 18.3881C49.2044 18.3881 49.6884 17.9351 49.7516 17.338C49.7936 17.8939 50.2356 18.3469 50.8038 18.3881Z" fill="#D9EFEC"/>
<path d="M24.3496 17.585V32.5961H11.6592V18.3881C12.2064 18.3469 12.6694 17.8939 12.7115 17.338C12.7746 17.9351 13.2586 18.3881 13.869 18.3881C14.4793 18.3881 14.9633 17.9351 15.0265 17.338C15.0896 17.9351 15.5736 18.3881 16.184 18.3881C16.7943 18.3881 17.2783 17.9351 17.3415 17.338C17.4046 17.9351 17.8886 18.3881 18.499 18.3881C19.1093 18.3881 19.5933 17.9351 19.6565 17.338C19.7196 17.9351 20.2036 18.3881 20.814 18.3881C21.4243 18.3881 21.9083 17.9351 21.9715 17.338C22.0346 17.9351 22.5187 18.3881 23.129 18.3881C23.7393 18.3881 24.2233 17.9351 24.2865 17.338C24.3075 17.4203 24.3286 17.5027 24.3496 17.585Z" fill="#D9EFEC"/>
<path d="M24.3496 33.7286H11.6592V36.1172H24.3496V33.7286Z" fill="#4DB5A6"/>
<path d="M50.8037 33.7286H38.1133V36.1172H50.8037V33.7286Z" fill="#4DB5A6"/>
<path d="M35.7563 33.7286H26.7278V36.1172H35.7563V33.7286Z" fill="#73C5B9"/>
<path d="M51.7929 16.0613H10.5227V12.5607H51.7929V16.0613ZM10.9226 15.67H51.393V12.952H10.9226V15.67Z" fill="#5ABBAC"/>
<path d="M52.0033 12.952H10.3333L12.6272 9.98682H49.7304L52.0033 12.952ZM11.133 12.5607H51.2036L49.5199 10.3781H12.8166L11.133 12.5607Z" fill="#5ABBAC"/>
<path d="M49.5621 1.2561H12.7114V10.1516H49.5621V1.2561Z" fill="#4DB5A6"/>
<path d="M47.9627 3.31519H14.2478V8.56598H47.9627V3.31519Z" fill="#73C5B9"/>
<path d="M46.9945 28.5396C46.7209 28.3337 46.3211 28.2719 45.9422 28.4984C46.0264 27.5306 45.2688 26.8099 44.3638 26.8099C43.501 26.8099 42.7433 27.51 42.7854 28.4161C41.7963 28.0866 41.0807 29.3015 41.7963 30.0016C40.4914 30.434 40.5546 32.0607 41.5227 32.5961H50.8248V32.246L47.2471 28.7455L46.9945 28.5396Z" fill="#CCEAE6"/>
<path d="M47.9836 2.53271H14.2898V3.70642H47.9836V2.53271Z" fill="#5CBCAE"/>
<path opacity="0.5" d="M17.3204 32.5961H14.374L11.6592 29.9398V27.057L17.3204 32.5961Z" fill="#D3EDE9"/>
<path d="M20.5404 28.5396C20.2668 28.3337 19.8669 28.2719 19.4881 28.4984C19.5723 27.5306 18.8147 26.8099 17.9097 26.8099C17.0469 26.8099 16.2892 27.51 16.3313 28.4161C15.3422 28.0866 14.6266 29.3015 15.3422 30.0016C14.0373 30.434 14.1005 32.0607 15.0686 32.5961H24.3707V32.246L20.7929 28.7455L20.5404 28.5396Z" fill="#CCEAE6"/>
<path opacity="0.5" d="M43.7745 32.5961H40.8281L38.1133 29.9398V27.057L43.7745 32.5961Z" fill="#D3EDE9"/>
<path d="M20.1195 32.7814C20.5193 34.3464 17.9939 34.5935 17.9939 33.0491C17.9939 33.6257 17.5098 34.0993 16.9206 34.0993C16.2261 34.0993 15.6999 33.4609 15.8683 32.7814C14.1636 32.8844 13.7006 30.537 15.3211 30.0016C14.6056 29.3015 15.3211 28.0866 16.3102 28.4161C16.2892 27.4895 17.0258 26.8099 17.8886 26.8099C18.7936 26.8099 19.5512 27.5512 19.4671 28.4984C19.8459 28.2719 20.2457 28.3337 20.5193 28.5396L20.7298 28.7455C21.0034 29.0956 21.0455 29.6104 20.6456 30.0016C22.2872 30.537 21.8452 32.8638 20.1195 32.7814Z" fill="#25A592"/>
<path d="M17.8044 36.3232V29.6927H18.2043V36.282L17.8044 36.3232Z" fill="#5ABBAC"/>
<path d="M19.909 36.282H16.1208V38.7118H19.909V36.282Z" fill="#6CC2B5"/>
<path d="M16.3534 30.3538L16.0707 30.6305L17.8567 32.3775L18.1394 32.1008L16.3534 30.3538Z" fill="#5ABBAC"/>
<path d="M19.6128 30.3747L17.8568 32.0928L18.1396 32.3694L19.8955 30.6513L19.6128 30.3747Z" fill="#5ABBAC"/>
<path d="M19.888 36.282H17.9939V38.7118H19.888V36.282Z" fill="#78C7BC"/>
<path d="M46.5947 32.7814C46.9945 34.3464 44.4691 34.5935 44.4691 33.0491C44.4691 33.6257 43.985 34.0993 43.3958 34.0993C42.7013 34.0993 42.1751 33.4609 42.3435 32.7814C40.6388 32.8844 40.1758 30.537 41.7963 30.0016C41.0808 29.3015 41.7963 28.0866 42.7855 28.4161C42.7644 27.4895 43.501 26.8099 44.3639 26.8099C45.2688 26.8099 46.0265 27.5512 45.9423 28.4984C46.3211 28.2719 46.721 28.3337 46.9945 28.5396L47.205 28.7455C47.4786 29.0956 47.5207 29.6104 47.1208 30.0016C48.7413 30.537 48.2994 32.8638 46.5947 32.7814Z" fill="#25A592"/>
<path d="M44.2587 36.3232V29.6927H44.6585V36.282L44.2587 36.3232Z" fill="#5ABBAC"/>
<path d="M46.3631 36.282H42.575V38.7118H46.3631V36.282Z" fill="#6CC2B5"/>
<path d="M42.8241 30.342L42.5414 30.6187L44.3274 32.3656L44.6101 32.089L42.8241 30.342Z" fill="#5ABBAC"/>
<path d="M46.0676 30.3767L44.3116 32.0948L44.5944 32.3715L46.3504 30.6534L46.0676 30.3767Z" fill="#5ABBAC"/>
<path d="M46.3421 36.282H44.448V38.7118H46.3421V36.282Z" fill="#78C7BC"/>
<path d="M10.3965 12.746V16.0612C10.3965 16.6996 10.9226 17.2349 11.575 17.2349C12.2274 17.2349 12.7536 16.7202 12.7536 16.0612V12.746H10.3965Z" fill="#5CBCAE"/>
<path d="M11.6592 15.9377H24.3496V17.6056C24.3286 17.5232 24.3075 17.4409 24.2865 17.3585C24.2233 17.9556 23.7393 18.4086 23.129 18.4086C22.5187 18.4086 22.0346 17.9556 21.9715 17.3585C21.9083 17.9556 21.4243 18.4086 20.814 18.4086C20.2036 18.4086 19.7196 17.9556 19.6565 17.3585C19.5933 17.9556 19.1093 18.4086 18.499 18.4086C17.8886 18.4086 17.4046 17.9556 17.3415 17.3585C17.2783 17.9556 16.7943 18.4086 16.184 18.4086C15.5736 18.4086 15.0896 17.9556 15.0265 17.3585C14.9633 17.9556 14.4793 18.4086 13.869 18.4086C13.2586 18.4086 12.7746 17.9556 12.7115 17.3585C12.6483 17.9145 12.2064 18.3675 11.6592 18.4086V15.9377Z" fill="#CCEAE6"/>
<path opacity="0.5" d="M24.3496 19.2117V23.6183L16.7101 16.1436H21.2138L24.3496 19.2117Z" fill="#D3EDE9"/>
<path d="M50.8037 15.9376V18.388C50.2355 18.3468 49.7935 17.8938 49.7514 17.3379C49.6883 17.935 49.2042 18.388 48.5939 18.388C47.9836 18.388 47.4996 17.935 47.4364 17.3379C47.3733 17.935 46.8892 18.388 46.2789 18.388C45.6686 18.388 45.1846 17.935 45.1214 17.3379C45.0583 17.935 44.5742 18.388 43.9639 18.388C43.3536 18.388 42.8696 17.935 42.8064 17.3379C42.7433 17.935 42.2592 18.388 41.6489 18.388C41.0386 18.388 40.5546 17.935 40.4914 17.3379C40.4283 17.935 39.9442 18.388 39.3339 18.388C38.7236 18.388 38.2396 17.935 38.1764 17.3379C38.1764 17.4202 38.1554 17.5026 38.1133 17.585V15.9171H50.8037V15.9376Z" fill="#CCEAE6"/>
<path d="M10.3965 13.9197V17.2349C10.3965 17.8733 10.9226 18.4087 11.575 18.4087C11.5961 18.4087 11.6382 18.4087 11.6803 18.4087V15.9377H24.3707V17.6056C24.518 18.0792 24.96 18.4087 25.4651 18.4087C25.5282 18.4087 25.5913 18.4087 25.6545 18.3881V15.9171H36.8296V18.3675C36.8928 18.3675 36.9559 18.3881 37.019 18.3881C37.5452 18.3881 37.9661 18.0586 38.1134 17.585V15.9171H50.8038V18.3675C50.8459 18.3675 50.867 18.3675 50.909 18.3675C51.5615 18.3675 52.0666 17.8527 52.0666 17.1938V13.9197H10.3965Z" fill="#5CBCAE"/>
<path d="M25.6334 15.9171V18.3674C26.1596 18.2851 26.5594 17.8732 26.6015 17.3379C26.6226 17.482 26.6647 17.6261 26.7278 17.7497V17.029H35.7563V17.7497C35.8194 17.6261 35.8615 17.482 35.8826 17.3379C35.9457 17.8732 36.3456 18.2851 36.8507 18.3674V15.9171H25.6334Z" fill="#48B3A4"/>
<path opacity="0.5" d="M50.8038 19.2117V23.6183L43.1643 16.1436H47.668L50.8038 19.2117Z" fill="#D3EDE9"/>
<path d="M12.7114 12.746V16.0612C12.7114 16.6996 13.2376 17.2349 13.89 17.2349C14.5424 17.2349 15.0685 16.7202 15.0685 16.0612V12.746H12.7114Z" fill="#25A592"/>
<path d="M17.3414 12.746V16.0612C17.3414 16.6996 17.8676 17.2349 18.52 17.2349C19.1724 17.2349 19.6985 16.7202 19.6985 16.0612V12.746H17.3414Z" fill="#25A592"/>
<path d="M21.9714 12.746V16.0612C21.9714 16.6996 22.4976 17.2349 23.15 17.2349C23.8024 17.2349 24.3285 16.7202 24.3285 16.0612V12.746H21.9714Z" fill="#25A592"/>
<path d="M26.6014 12.746V16.0612C26.6014 16.6996 27.1276 17.2349 27.78 17.2349C28.4324 17.2349 28.9585 16.7202 28.9585 16.0612V12.746H26.6014Z" fill="#25A592"/>
<path d="M31.2104 12.746V16.0612C31.2104 16.6996 31.7366 17.2349 32.389 17.2349C33.0414 17.2349 33.5675 16.7202 33.5675 16.0612V12.746H31.2104Z" fill="#25A592"/>
<path d="M35.8405 12.746V16.0612C35.8405 16.6996 36.3666 17.2349 37.019 17.2349C37.6714 17.2349 38.1975 16.7202 38.1975 16.0612V12.746H35.8405Z" fill="#25A592"/>
<path d="M40.4705 12.746V16.0612C40.4705 16.6996 40.9966 17.2349 41.649 17.2349C42.3014 17.2349 42.8276 16.7202 42.8276 16.0612V12.746H40.4705Z" fill="#25A592"/>
<path d="M45.1005 12.746V16.0612C45.1005 16.6996 45.6266 17.2349 46.279 17.2349C46.9314 17.2349 47.4576 16.7202 47.4576 16.0612V12.746H45.1005Z" fill="#25A592"/>
<path d="M49.7305 12.746V16.0612C49.7305 16.6996 50.2566 17.2349 50.909 17.2349C51.5614 17.2349 52.0876 16.7202 52.0876 16.0612V12.746H49.7305Z" fill="#25A592"/>
<path d="M12.7115 12.746C12.2485 12.746 11.8907 12.746 11.5329 12.746C11.1751 12.746 10.8384 12.746 10.3544 12.746C10.6069 12.0871 10.7753 11.5929 10.9647 11.0987C11.1541 10.6045 11.3225 10.1103 11.575 9.45142C12.017 9.45142 12.3537 9.45142 12.6694 9.45142C13.0061 9.45142 13.3218 9.45142 13.7637 9.45142C13.5533 10.1103 13.3849 10.6045 13.2166 11.0987C13.0903 11.5929 12.943 12.0871 12.7115 12.746Z" fill="#43B1A1"/>
<path d="M17.3415 12.746C16.8785 12.746 16.5207 12.746 16.1629 12.746C15.8051 12.746 15.4684 12.746 14.9844 12.746C15.1738 12.0871 15.3211 11.5929 15.4474 11.0987C15.5947 10.6045 15.721 10.1103 15.9104 9.45142C16.3523 9.45142 16.6891 9.45142 17.0047 9.45142C17.3415 9.45142 17.6571 9.45142 18.0991 9.45142C17.9307 10.1103 17.8255 10.6045 17.6992 11.0987C17.6361 11.5929 17.5098 12.0871 17.3415 12.746Z" fill="#43B1A1"/>
<path d="M21.9715 12.746C21.5085 12.746 21.1507 12.746 20.7929 12.746C20.4352 12.746 20.0984 12.746 19.6144 12.746C19.7407 12.0871 19.8459 11.5929 19.9511 11.0987C20.0563 10.6045 20.1616 10.1103 20.2878 9.45142C20.7298 9.45142 21.0665 9.45142 21.3822 9.45142C21.6979 9.45142 22.0346 9.45142 22.4766 9.45142C22.3713 10.1103 22.2872 10.6045 22.203 11.0987C22.1609 11.5929 22.0767 12.0871 21.9715 12.746Z" fill="#43B1A1"/>
<path d="M26.6015 12.746C26.1385 12.746 25.7807 12.746 25.4229 12.746C25.0652 12.746 24.7284 12.746 24.2444 12.746C24.3286 12.0871 24.3917 11.5929 24.4548 11.0987C24.518 10.6045 24.5811 10.1103 24.6653 9.45142C25.1073 9.45142 25.444 9.45142 25.7597 9.45142C26.0753 9.45142 26.4121 9.45142 26.854 9.45142C26.7909 10.1103 26.7698 10.6045 26.7278 11.0987C26.6857 11.5929 26.6646 12.0871 26.6015 12.746Z" fill="#43B1A1"/>
<path d="M31.2315 12.746C30.7685 12.746 30.4107 12.746 30.0529 12.746C29.6952 12.746 29.3584 12.746 28.8744 12.746C28.8954 12.0871 28.9165 11.5929 28.9375 11.0987C28.9586 10.6045 28.9796 10.1103 29.0007 9.45142C29.4426 9.45142 29.7793 9.45142 30.095 9.45142C30.4318 9.45142 30.7474 9.45142 31.1894 9.45142C31.1894 10.1103 31.1894 10.6045 31.1894 11.0987C31.2315 11.5929 31.2315 12.0871 31.2315 12.746Z" fill="#43B1A1"/>
<path d="M35.8615 12.746C35.3985 12.746 35.0408 12.746 34.683 12.746C34.3252 12.746 33.9885 12.746 33.5044 12.746C33.4834 12.0871 33.4624 11.5929 33.4413 11.0987C33.4203 10.6045 33.3992 10.1103 33.3782 9.45142C33.8201 9.45142 34.1569 9.45142 34.4725 9.45142C34.8093 9.45142 35.1249 9.45142 35.5669 9.45142C35.63 10.1103 35.6721 10.6045 35.6932 11.0987C35.7563 11.5929 35.7984 12.0871 35.8615 12.746Z" fill="#43B1A1"/>
<path d="M40.4915 12.746C40.0285 12.746 39.6707 12.746 39.313 12.746C38.9552 12.746 38.6185 12.746 38.1344 12.746C38.0502 12.0871 37.9871 11.5929 37.924 11.0987C37.8608 10.6045 37.7977 10.1103 37.7135 9.45142C38.1555 9.45142 38.4922 9.45142 38.8079 9.45142C39.1446 9.45142 39.4603 9.45142 39.9022 9.45142C40.0074 10.1103 40.0916 10.6045 40.1758 11.0987C40.3021 11.5929 40.3863 12.0871 40.4915 12.746Z" fill="#43B1A1"/>
<path d="M45.1215 12.746C44.6585 12.746 44.3007 12.746 43.9429 12.746C43.5852 12.746 43.2484 12.746 42.7644 12.746C42.6381 12.0871 42.5329 11.5929 42.4277 11.0987C42.3224 10.6045 42.2172 10.1103 42.0909 9.45142C42.5329 9.45142 42.8696 9.45142 43.1853 9.45142C43.522 9.45142 43.8377 9.45142 44.2797 9.45142C44.448 10.1103 44.5533 10.6045 44.6795 11.0987C44.8268 11.5929 44.9531 12.0871 45.1215 12.746Z" fill="#43B1A1"/>
<path d="M49.7515 12.746C49.2885 12.746 48.9307 12.746 48.5729 12.746C48.2152 12.746 47.8784 12.746 47.3944 12.746C47.205 12.0871 47.0577 11.5929 46.9314 11.0987C46.7841 10.6045 46.6578 10.1103 46.4684 9.45142C46.9103 9.45142 47.2471 9.45142 47.5627 9.45142C47.8995 9.45142 48.2152 9.45142 48.6571 9.45142C48.8676 10.1103 49.0359 10.6045 49.2043 11.0987C49.3727 11.5929 49.52 12.0871 49.7515 12.746Z" fill="#43B1A1"/>
<path d="M15.0264 12.746C14.5634 12.746 14.2056 12.746 13.8479 12.746C13.4901 12.746 13.1534 12.746 12.6693 12.746C12.8798 12.0871 13.0481 11.5929 13.2165 11.0987C13.3849 10.6045 13.5322 10.1103 13.7637 9.45142C14.2056 9.45142 14.5424 9.45142 14.858 9.45142C15.1948 9.45142 15.5105 9.45142 15.9524 9.45142C15.763 10.1103 15.6157 10.6045 15.4894 11.0987C15.3631 11.5929 15.2158 12.0871 15.0264 12.746Z" fill="#25A592"/>
<path d="M19.6564 12.746C19.1934 12.746 18.8356 12.746 18.4989 12.746C18.1411 12.746 17.8044 12.746 17.3203 12.746C17.4887 12.0871 17.5939 11.5929 17.7202 11.0987C17.8464 10.6045 17.9727 10.1103 18.12 9.45142C18.562 9.45142 18.8987 9.45142 19.2144 9.45142C19.5511 9.45142 19.8668 9.45142 20.3088 9.45142C20.1825 10.1103 20.0773 10.6045 19.972 11.0987C19.8879 11.5929 19.8037 12.0871 19.6564 12.746Z" fill="#25A592"/>
<path d="M24.2864 12.746C23.8234 12.746 23.4656 12.746 23.1289 12.746C22.7711 12.746 22.4344 12.746 21.9503 12.746C22.0555 12.0871 22.1397 11.5929 22.2239 11.0987C22.3081 10.6045 22.3923 10.1103 22.4975 9.45142C22.9395 9.45142 23.2762 9.45142 23.5919 9.45142C23.9286 9.45142 24.2443 9.45142 24.6862 9.45142C24.602 10.1103 24.5389 10.6045 24.4758 11.0987C24.4337 11.5929 24.3705 12.0871 24.2864 12.746Z" fill="#25A592"/>
<path d="M28.9164 12.746C28.4534 12.746 28.0956 12.746 27.7379 12.746C27.3801 12.746 27.0434 12.746 26.5593 12.746C26.6225 12.0871 26.6646 11.5929 26.6856 11.0987C26.7277 10.6045 26.7698 10.1103 26.8119 9.45142C27.2538 9.45142 27.5906 9.45142 27.9062 9.45142C28.2219 9.45142 28.5586 9.45142 29.0006 9.45142C28.9796 10.1103 28.9585 10.6045 28.9375 11.0987C28.9585 11.5929 28.9375 12.0871 28.9164 12.746Z" fill="#25A592"/>
<path d="M33.5464 12.746C33.0834 12.746 32.7257 12.746 32.3679 12.746C32.0101 12.746 31.6734 12.746 31.1893 12.746C31.1893 12.0871 31.1893 11.5929 31.1893 11.0987C31.1893 10.6045 31.1893 10.1103 31.1893 9.45142C31.6313 9.45142 31.968 9.45142 32.2837 9.45142C32.6204 9.45142 32.9361 9.45142 33.3781 9.45142C33.3991 10.1103 33.4202 10.6045 33.4412 11.0987C33.5043 11.5929 33.5254 12.0871 33.5464 12.746Z" fill="#25A592"/>
<path d="M38.1765 12.746C37.7135 12.746 37.3557 12.746 37.019 12.746C36.6612 12.746 36.3245 12.746 35.8404 12.746C35.7773 12.0871 35.7563 11.5929 35.7142 11.0987C35.6721 10.6045 35.63 10.1103 35.5879 9.45142C36.0298 9.45142 36.3666 9.45142 36.6823 9.45142C37.019 9.45142 37.3347 9.45142 37.7766 9.45142C37.8608 10.1103 37.9239 10.6045 37.9871 11.0987C38.0292 11.5929 38.0923 12.0871 38.1765 12.746Z" fill="#25A592"/>
<path d="M42.8065 12.746C42.3435 12.746 41.9857 12.746 41.628 12.746C41.2702 12.746 40.9334 12.746 40.4494 12.746C40.3442 12.0871 40.26 11.5929 40.1758 11.0987C40.0916 10.6045 40.0074 10.1103 39.9022 9.45142C40.3442 9.45142 40.6809 9.45142 40.9966 9.45142C41.3123 9.45142 41.649 9.45142 42.091 9.45142C42.2172 10.1103 42.3225 10.6045 42.4277 11.0987C42.575 11.5929 42.6592 12.0871 42.8065 12.746Z" fill="#25A592"/>
<path d="M47.4365 12.746C46.9735 12.746 46.6157 12.746 46.2579 12.746C45.9002 12.746 45.5634 12.746 45.0794 12.746C44.911 12.0871 44.8058 11.5929 44.6795 11.0987C44.5533 10.6045 44.427 10.1103 44.2797 9.45142C44.7216 9.45142 45.0583 9.45142 45.374 9.45142C45.7108 9.45142 46.0264 9.45142 46.4684 9.45142C46.6578 10.1103 46.8051 10.6045 46.9314 11.0987C47.0998 11.5929 47.2471 12.0871 47.4365 12.746Z" fill="#25A592"/>
<path d="M52.0665 12.746C51.6035 12.746 51.2457 12.746 50.8879 12.746C50.5301 12.746 50.1934 12.746 49.7094 12.746C49.4989 12.0871 49.3305 11.5929 49.1622 11.0987C48.9938 10.6045 48.8465 10.1103 48.615 9.45142C49.0569 9.45142 49.3937 9.45142 49.7094 9.45142C50.0461 9.45142 50.3618 9.45142 50.8037 9.45142C51.0563 10.1103 51.2246 10.6045 51.414 11.0987C51.6245 11.5929 51.8139 12.0871 52.0665 12.746Z" fill="#25A592"/>
<path d="M15.0265 12.746V16.0612C15.0265 16.6996 15.5526 17.2349 16.205 17.2349C16.8574 17.2349 17.3836 16.7202 17.3836 16.0612V12.746H15.0265Z" fill="#5CBCAE"/>
<path d="M19.6565 12.746V16.0612C19.6565 16.6996 20.1826 17.2349 20.835 17.2349C21.4874 17.2349 22.0136 16.7202 22.0136 16.0612V12.746H19.6565Z" fill="#5CBCAE"/>
<path d="M24.2865 12.746V16.0612C24.2865 16.6996 24.8126 17.2349 25.465 17.2349C26.1175 17.2349 26.6436 16.7202 26.6436 16.0612V12.746H24.2865Z" fill="#5CBCAE"/>
<path d="M28.8955 12.746V16.0612C28.8955 16.6996 29.4216 17.2349 30.0741 17.2349C30.7265 17.2349 31.2526 16.7202 31.2526 16.0612V12.746H28.8955Z" fill="#5CBCAE"/>
<path d="M33.5255 12.746V16.0612C33.5255 16.6996 34.0516 17.2349 34.7041 17.2349C35.3565 17.2349 35.8826 16.7202 35.8826 16.0612V12.746H33.5255Z" fill="#5CBCAE"/>
<path d="M38.1555 12.746V16.0612C38.1555 16.6996 38.6817 17.2349 39.3341 17.2349C39.9865 17.2349 40.5126 16.7202 40.5126 16.0612V12.746H38.1555Z" fill="#5CBCAE"/>
<path d="M42.7855 12.746V16.0612C42.7855 16.6996 43.3117 17.2349 43.9641 17.2349C44.6165 17.2349 45.1426 16.7202 45.1426 16.0612V12.746H42.7855Z" fill="#5CBCAE"/>
<path d="M47.4155 12.746V16.0612C47.4155 16.6996 47.9417 17.2349 48.5941 17.2349C49.2465 17.2349 49.7726 16.7202 49.7726 16.0612V12.746H47.4155Z" fill="#5CBCAE"/>
<path d="M10.3965 12.746V16.0612C10.3965 16.6996 10.9226 17.2349 11.575 17.2349C12.2274 17.2349 12.7536 16.7202 12.7536 16.0612V12.746H10.3965Z" fill="#5CBCAE"/>
<path d="M34.704 18.3881C34.0937 18.3881 33.6097 17.9351 33.5465 17.338C33.4834 17.9351 32.9993 18.3881 32.389 18.3881C31.7787 18.3881 31.2947 17.9351 31.2315 17.338C31.1684 17.9351 30.6843 18.3881 30.074 18.3881C29.4637 18.3881 28.9796 17.9351 28.9165 17.338C28.8534 17.9351 28.3693 18.3881 27.759 18.3881C27.296 18.3881 26.9172 18.1204 26.7278 17.7498V32.8638H35.7563V17.7498C35.5458 18.1204 35.167 18.3881 34.704 18.3881Z" fill="#D9EFEC"/>
<path d="M26.7278 17.0291V17.7497C26.9172 18.141 27.3171 18.3881 27.759 18.3881C28.3693 18.3881 28.8534 17.9351 28.9165 17.3379C28.9796 17.9351 29.4637 18.3881 30.074 18.3881C30.6843 18.3881 31.1684 17.9351 31.2315 17.3379C31.2947 17.9351 31.7787 18.3881 32.389 18.3881C32.9993 18.3881 33.4834 17.9351 33.5465 17.3379C33.6097 17.9351 34.0937 18.3881 34.704 18.3881C35.167 18.3881 35.5458 18.1204 35.7353 17.7497V17.0291H26.7278Z" fill="#CCEAE6"/>
<path opacity="0.5" d="M32.389 32.8433H29.4216L26.7278 30.187V27.3042L32.389 32.8433Z" fill="#D3EDE9"/>
<path opacity="0.5" d="M35.7352 19.7265V23.6183L29.0006 17.0291H32.9782L35.7352 19.7265Z" fill="#D3EDE9"/>
<path d="M28.3062 22.9181H27.317V28.869H28.3062V22.9181Z" fill="#4DB5A6"/>
<path d="M62 38.3617H0V38.9794H62V38.3617Z" fill="#5ABBAC"/>
</svg>
