<svg width="68" height="29" viewBox="0 0 68 29" fill="none" xmlns="http://www.w3.org/2000/svg">
<path d="M58.7209 0.0692749H12.6259V1.94099L58.4901 4.45971L58.7209 0.0692749Z" fill="#D1ECE8"/>
<path d="M61.2369 15.4128L58.5593 14.8351V20.9355H62.114L61.2369 15.4128Z" fill="#25A592"/>
<path d="M60.2216 15.8897L60.0614 15.9111L60.749 21.0646L60.9092 21.0432L60.2216 15.8897Z" fill="#AEDDD6"/>
<path d="M61.283 16.2677L59.3441 17.4462L59.298 16.2677H61.283Z" fill="#AEDDD6"/>
<path d="M61.9985 23.7547L57.8207 23.2694L57.9823 28.1451H61.5369L61.9985 23.7547Z" fill="#D4EDE9"/>
<path d="M61.0522 23.7547L60.9137 23.7316L60.3367 27.1515L60.4752 27.1977L61.0522 23.7547Z" fill="#AEDDD6"/>
<path d="M9.67138 14.8351L5.28577 15.6207L6.11672 20.9355H9.67138V14.8351Z" fill="#D4EDE9"/>
<path d="M6.67039 16.3942L6.51025 16.4158L7.20151 21.5687L7.36165 21.5472L6.67039 16.3942Z" fill="#AEDDD6"/>
<path d="M7.38627 17.3538L5.21655 15.6438L7.43244 15.6207L7.38627 17.3538Z" fill="#AEDDD6"/>
<path d="M9.39437 22.2295L6.30136 23.5235L5.83972 28.353H9.39437V22.2295Z" fill="#D4EDE9"/>
<path d="M7.89402 23.7547L7.73245 23.7316L7.1554 27.1515L7.31697 27.1977L7.89402 23.7547Z" fill="#AEDDD6"/>
<path d="M8.14803 24.3554L6.16296 23.5004L8.35577 23.3849L8.14803 24.3554Z" fill="#AEDDD6"/>
<path d="M59.4135 14.8812L6.94775 14.9043L8.19419 28.3992H60.5676L59.4135 14.8812Z" fill="#AEDDD6"/>
<path d="M36.7698 23.5697H28.7372V27.8446H36.7698V23.5697Z" fill="#7BC8BD"/>
<path d="M48.4032 23.4773H48.0339V27.6829H48.4032V23.4773Z" fill="#7BC8BD"/>
<path d="M41.9864 23.4773H41.6171V27.6829H41.9864V23.4773Z" fill="#7BC8BD"/>
<path d="M36.1928 23.4773H35.8235V27.6829H36.1928V23.4773Z" fill="#7BC8BD"/>
<path d="M29.9606 23.4773H29.5913V27.6829H29.9606V23.4773Z" fill="#7BC8BD"/>
<path d="M23.636 23.4773H23.2667V27.6829H23.636V23.4773Z" fill="#7BC8BD"/>
<path d="M17.2193 23.4773H16.85V27.6829H17.2193V23.4773Z" fill="#7BC8BD"/>
<path d="M11.3102 23.4773H10.9409V27.6829H11.3102V23.4773Z" fill="#7BC8BD"/>
<path d="M54.8432 23.4773H54.4739V27.6829H54.8432V23.4773Z" fill="#7BC8BD"/>
<path d="M48.4032 15.9905H48.0339V21.1897H48.4032V15.9905Z" fill="#7BC8BD"/>
<path d="M41.9864 15.9905H41.6171V21.1897H41.9864V15.9905Z" fill="#7BC8BD"/>
<path d="M36.1928 15.9905H35.8235V21.1897H36.1928V15.9905Z" fill="#7BC8BD"/>
<path d="M29.9606 15.9905H29.5913V21.1897H29.9606V15.9905Z" fill="#7BC8BD"/>
<path d="M23.636 15.9905H23.2667V21.1897H23.636V15.9905Z" fill="#7BC8BD"/>
<path d="M17.2193 15.9905H16.85V21.1897H17.2193V15.9905Z" fill="#7BC8BD"/>
<path d="M11.3102 15.9905H10.9409V21.1897H11.3102V15.9905Z" fill="#7BC8BD"/>
<path d="M54.8432 15.9905H54.4739V21.1897H54.8432V15.9905Z" fill="#7BC8BD"/>
<path opacity="0.6" d="M59.4134 13.7259L6.87842 13.7028L7.1554 17.0534L59.6442 17.5155L59.4134 13.7259Z" fill="#5ABBAC"/>
<path opacity="0.6" d="M59.9904 21.051L7.45544 21.2128L7.89401 24.91H60.3135L59.9904 21.051Z" fill="#5ABBAC"/>
<path d="M62.0909 23.2462L16.0189 22.9689L6.1167 23.5697L8.17101 23.8932L61.9755 23.9163L62.0909 23.2462Z" fill="#5CBCAE"/>
<path d="M61.4677 15.6207L14.4494 14.2112L5.2627 15.5976L7.10927 16.2215L61.4677 16.2678V15.6207Z" fill="#B3DFD9"/>
<path opacity="0.6" d="M7.96326 20.2885L14.1493 15.7363H19.7813L16.0189 20.2885H7.96326Z" fill="#C2E6E1"/>
<path opacity="0.6" d="M35.8235 20.4733L42.0095 15.9211H47.6415L43.9022 20.4733H35.8235Z" fill="#C2E6E1"/>
<path opacity="0.6" d="M42.5404 27.1746L48.1724 23.5929H53.7814L50.6192 27.1746H42.5404Z" fill="#C2E6E1"/>
<path opacity="0.6" d="M16.4114 27.1746L22.0434 23.5929H27.6524L24.4901 27.1746H16.4114Z" fill="#C2E6E1"/>
<path d="M55.6279 15.2047H55.4432V20.7736H55.6279V15.2047Z" fill="#D1ECE8"/>
<path d="M49.0726 15.2047H48.8879V20.7736H49.0726V15.2047Z" fill="#D1ECE8"/>
<path d="M43.9023 15.2047H40.9478V20.7736H43.9023V15.2047Z" fill="#D1ECE8"/>
<path d="M35.9851 15.2047H35.8004V20.7736H35.9851V15.2047Z" fill="#D1ECE8"/>
<path d="M43.833 15.2047H22.8975V20.7736H43.833V15.2047Z" fill="#5ABBAC"/>
<path d="M22.8744 15.2047H22.6897V20.7736H22.8744V15.2047Z" fill="#D1ECE8"/>
<path d="M16.3421 15.2047H16.1575V20.7736H16.3421V15.2047Z" fill="#D1ECE8"/>
<path d="M9.78683 15.2047H9.60217V20.7736H9.78683V15.2047Z" fill="#D1ECE8"/>
<path d="M55.6279 22.8534H55.4432V27.3363H55.6279V22.8534Z" fill="#B3DFD9"/>
<path d="M49.0726 22.8534H48.8879V27.3363H49.0726V22.8534Z" fill="#B3DFD9"/>
<path d="M42.5173 22.8534H42.3326V27.3363H42.5173V22.8534Z" fill="#B3DFD9"/>
<path d="M35.9851 22.8534H35.8004V27.3363H35.9851V22.8534Z" fill="#D1ECE8"/>
<path d="M29.4297 22.8534H29.245V27.3363H29.4297V22.8534Z" fill="#D1ECE8"/>
<path d="M22.8744 22.8534H22.6897V27.3363H22.8744V22.8534Z" fill="#B3DFD9"/>
<path d="M16.3421 22.8534H16.1575V27.3363H16.3421V22.8534Z" fill="#B3DFD9"/>
<path d="M9.78683 22.8534H9.60217V27.3363H9.78683V22.8534Z" fill="#B3DFD9"/>
<path d="M61.6293 27.1976H5.95519L5.72437 28.0757H61.6293V27.1976Z" fill="#B3DFD9"/>
<path d="M36.3312 23.5697H29.2219V28.0757H36.3312V23.5697Z" fill="#B5E1DA"/>
<path d="M35.8696 23.9164H29.6605V28.0526H35.8696V23.9164Z" fill="#7BC8BD"/>
<path d="M35.5234 24.6096H29.9144V27.9833H35.5234V24.6096Z" fill="#AEDDD6"/>
<path d="M33.0074 24.4709H32.5688V28.0988H33.0074V24.4709Z" fill="#7BC8BD"/>
<path d="M32.8689 23.7316H32.7535V28.122H32.8689V23.7316Z" fill="#B5E1DA"/>
<path d="M63.5451 27.9833H4.224V28.5841H63.5451V27.9833Z" fill="#D9EFEC"/>
<path d="M63.5682 2.88845L5.21655 0V15.6438L61.5831 16.0367L63.5682 2.88845Z" fill="#25A592"/>
<path d="M63.2219 12.5012H6.34753L6.37062 12.6399H63.1989L63.2219 12.5012Z" fill="#BFE5DF"/>
<path d="M63.1758 5.45343H5.00879L5.03187 5.59208H63.1527L63.1758 5.45343Z" fill="#BFE5DF"/>
<path d="M22.3435 2.51868H5.21655V14.2573H20.8201L22.3435 2.51868Z" fill="#B3DFD9"/>
<path d="M21.6971 11.7849H4.36243V13.1252H21.6971V11.7849Z" fill="#25A592"/>
<path d="M21.6971 9.26611H4.36243V10.6064H21.6971V9.26611Z" fill="#25A592"/>
<path d="M23.4052 6.58563H4.36243V7.92587H23.4052V6.58563Z" fill="#25A592"/>
<path d="M23.4052 3.72034H4.36243V5.06058H23.4052V3.72034Z" fill="#25A592"/>
<path d="M56.0665 3.88202H63.4067L61.6755 14.835H54.9817L56.0665 3.88202Z" fill="#B3DFD9"/>
<path d="M54.3584 12.5243H62.6911L62.4602 13.7721H54.1276L54.3584 12.5243Z" fill="#25A592"/>
<path d="M54.7739 10.1674H63.1065L62.8757 11.4383H54.5431L54.7739 10.1674Z" fill="#25A592"/>
<path d="M54.3815 7.69476H63.5451L63.3142 8.94257H54.1506L54.3815 7.69476Z" fill="#25A592"/>
<path d="M54.8662 5.0144H64.0298L63.799 6.26221H54.6354L54.8662 5.0144Z" fill="#25A592"/>
<path d="M24.7902 7.99518V7.02466H27.6985V7.50992L27.4908 7.99518H26.8676V10.8605H25.575V7.99518H24.7902Z" fill="#D3EDE9"/>
<path d="M29.799 8.41111V7.02466H31.0916V10.8605H29.799V9.35852H29.2681V10.8605H27.9755V7.02466H29.2681V8.41111H29.799Z" fill="#D3EDE9"/>
<path d="M31.5532 10.8605V7.02466H34.3231V7.50992L34.1153 7.99518H32.8458V8.43422H34.1153V9.40474H32.8458V9.93621H34.3231V10.8605H31.5532Z" fill="#D3EDE9"/>
<path d="M38.8241 9.01191H38.7318V10.8605H37.4623V10.3984L37.8778 7.02466H39.3319L39.6551 8.54976H39.7474L40.0706 7.02466H41.5247L41.9402 10.3984V10.8605H40.6707V9.01191H40.5553L40.2321 10.8605H39.1473L38.8241 9.01191Z" fill="#D3EDE9"/>
<path d="M44.8716 7.02466L45.4718 10.3984V10.8605H44.1792L44.1099 10.0749H43.5329L43.4405 10.8605H42.1479V10.3984L42.725 7.02466H44.8716ZM43.9945 9.12745L43.8791 7.97207H43.7406L43.6252 9.12745H43.9945Z" fill="#D3EDE9"/>
<path d="M45.818 7.02466H47.1106V9.91311H48.4032V10.8605H45.818V7.02466Z" fill="#D3EDE9"/>
<path d="M48.7032 7.02466H49.9958V9.91311H51.2884V10.8605H48.7032V7.02466Z" fill="#D3EDE9"/>
<path d="M62.2294 20.6582L6.04749 20.2885V23.5697L62.0909 23.6159L62.2294 20.6582Z" fill="#B5E1DA"/>
<path d="M62.2294 20.3809L6.04749 20.2885V21.1434L62.0909 21.1665L62.2294 20.3809Z" fill="#5ABBAC"/>
<path d="M32.7074 22.9921H29.6605V23.7084H32.7074V22.9921Z" fill="#5ABBAC"/>
<path d="M35.7312 22.9921H32.9152V23.7084H35.7312V22.9921Z" fill="#5ABBAC"/>
<path d="M32.7074 23.2924H29.6605V23.7083H32.7074V23.2924Z" fill="#7BC8BD"/>
<path d="M35.7312 23.2924H32.9152V23.7083H35.7312V23.2924Z" fill="#7BC8BD"/>
<path d="M31.8302 26.1346H30.4684V26.5275H31.8302V26.1346Z" fill="#D6EEEB"/>
<path d="M34.8771 26.1346H33.5845V26.5275H34.8771V26.1346Z" fill="#D6EEEB"/>
<path d="M68 28.3068H0V29H68V28.3068Z" fill="#5ABBAC"/>
</svg>
