<svg width="21" height="28" viewBox="0 0 21 28" fill="none" xmlns="http://www.w3.org/2000/svg">
<path d="M10.5 13.3C9.50544 13.3 8.55161 12.9313 7.84835 12.2749C7.14509 11.6185 6.75 10.7283 6.75 9.8C6.75 8.87174 7.14509 7.9815 7.84835 7.32513C8.55161 6.66875 9.50544 6.3 10.5 6.3C11.4946 6.3 12.4484 6.66875 13.1516 7.32513C13.8549 7.9815 14.25 8.87174 14.25 9.8C14.25 10.2596 14.153 10.7148 13.9645 11.1394C13.7761 11.564 13.4999 11.9499 13.1516 12.2749C12.8034 12.5999 12.39 12.8577 11.9351 13.0336C11.4801 13.2095 10.9925 13.3 10.5 13.3ZM10.5 0C7.71523 0 5.04451 1.0325 3.07538 2.87035C1.10625 4.70821 0 7.20088 0 9.8C0 17.15 10.5 28 10.5 28C10.5 28 21 17.15 21 9.8C21 7.20088 19.8938 4.70821 17.9246 2.87035C15.9555 1.0325 13.2848 0 10.5 0Z" fill="#188181"/>
</svg>
