<svg width="48" height="48" viewBox="0 0 48 48" fill="none" xmlns="http://www.w3.org/2000/svg">
<circle cx="24" cy="24" r="24" fill="#188181"/>
<path d="M19.2 9.59961L16.272 12.7996H11.2C9.44 12.7996 8 14.2396 8 15.9996V35.1996C8 36.9596 9.44 38.3996 11.2 38.3996H36.8C38.56 38.3996 40 36.9596 40 35.1996V15.9996C40 14.2396 38.56 12.7996 36.8 12.7996H31.728L28.8 9.59961H19.2ZM24 33.5996C19.584 33.5996 16 30.0156 16 25.5996C16 21.1836 19.584 17.5996 24 17.5996C28.416 17.5996 32 21.1836 32 25.5996C32 30.0156 28.416 33.5996 24 33.5996Z" fill="white"/>
</svg>
