<svg width="78" height="76" viewBox="0 0 78 76" fill="none" xmlns="http://www.w3.org/2000/svg">
<ellipse cx="38.7164" cy="37.8561" rx="38.7164" ry="37.8561" fill="#558F7C" fill-opacity="0.9"/>
<path d="M35.5143 26.6088L45.4085 36.503C45.6236 36.7181 45.7756 36.9511 45.8645 37.2021C45.9548 37.453 46 37.7219 46 38.0087C46 38.2954 45.9548 38.5643 45.8645 38.8153C45.7756 39.0662 45.6236 39.2992 45.4085 39.5143L35.5143 49.4085C35.12 49.8028 34.6181 50 34.0087 50C33.3992 50 32.8974 49.8028 32.503 49.4085C32.1087 49.0142 31.9115 48.5123 31.9115 47.9029C31.9115 47.2934 32.1087 46.7916 32.503 46.3972L40.8916 38.0087L32.503 29.6201C32.1087 29.2258 31.9115 28.7239 31.9115 28.1145C31.9115 27.505 32.1087 27.0032 32.503 26.6088C32.8974 26.2145 33.3992 26.0173 34.0087 26.0173C34.6181 26.0173 35.12 26.2145 35.5143 26.6088Z" fill="white"/>
</svg>
